<svg width="126" height="17" viewBox="0 0 126 17" fill="none" xmlns="http://www.w3.org/2000/svg">
<path fill-rule="evenodd" clip-rule="evenodd" d="M8.24999 16.5H2.05838C0.922155 16.5 0 15.5778 0 14.4416V2.05838C0 0.922156 0.922155 0 2.05838 0H8.24999C12.7949 0 16.5 3.70509 16.5 8.25C16.5 12.7949 12.7949 16.5 8.24999 16.5ZM4.11676 12.3832H8.24999C10.5224 12.3832 12.3832 10.5225 12.3832 8.25C12.3832 5.97755 10.5224 4.11677 8.24999 4.11677H4.11676V12.3832ZM117.69 16.5C113.145 16.5 109.44 12.7949 109.44 8.25C109.44 3.70509 113.145 0 117.69 0C122.235 0 125.94 3.70509 125.94 8.25C125.94 12.7949 122.251 16.5 117.69 16.5ZM117.69 4.11677C115.418 4.11677 113.557 5.97755 113.557 8.25C113.557 10.5225 115.418 12.3832 117.69 12.3832C119.963 12.3832 121.823 10.5225 121.823 8.25C121.823 5.97755 119.979 4.11677 117.69 4.11677ZM18.2949 14.4416C18.2949 15.5778 19.217 16.5 20.3533 16.5C21.4895 16.5 22.4116 15.5778 22.4116 14.4416V2.05838C22.4116 0.922156 21.4895 0 20.3533 0C19.217 0 18.2949 0.922156 18.2949 2.05838V14.4416ZM69.0299 16.5H62.8383C61.702 16.5 60.7799 15.5778 60.7799 14.4416V2.05838C60.7799 0.922156 61.702 0 62.8383 0H69.0299C73.5748 0 77.2798 3.70509 77.2798 8.25C77.2798 12.7949 73.5748 16.5 69.0299 16.5ZM64.8966 12.3832H69.0299C71.3023 12.3832 73.1631 10.5225 73.1631 8.25C73.1631 5.97755 71.3023 4.11677 69.0299 4.11677H64.8966V12.3832ZM103.545 14.4416C103.545 15.5778 104.467 16.5 105.603 16.5C106.739 16.5 107.662 15.5778 107.662 14.4416V5.15419C107.662 2.30539 105.356 0 102.507 0C101.338 0 100.268 0.39521 99.4116 1.03743C98.5553 0.378743 97.4685 0 96.3158 0C93.467 0 91.1616 2.30539 91.1616 5.15419V14.4416C91.1616 15.5778 92.0838 16.5 93.22 16.5C94.3562 16.5 95.2784 15.5778 95.2784 14.4416V5.15419C95.2784 4.57784 95.7394 4.11677 96.3158 4.11677C96.8921 4.11677 97.3532 4.57784 97.3532 5.15419V14.4416C97.3532 15.5778 98.2754 16.5 99.4116 16.5C100.548 16.5 101.47 15.5778 101.47 14.4416V5.15419C101.47 4.57784 101.931 4.11677 102.507 4.11677C103.084 4.11677 103.545 4.57784 103.545 5.15419V14.4416ZM50.735 16.5C46.1901 16.5 42.485 12.7949 42.485 8.25C42.485 3.70509 46.1901 0 50.735 0C55.2799 0 58.985 3.70509 58.985 8.25C58.985 12.7949 55.2799 16.5 50.735 16.5ZM50.735 4.11677C48.4625 4.11677 46.6018 5.97755 46.6018 8.25C46.6018 10.5225 48.4625 12.3832 50.735 12.3832C53.0074 12.3832 54.8682 10.5225 54.8682 8.25C54.8682 5.97755 53.0074 4.11677 50.735 4.11677ZM36.5733 14.4416C36.5733 15.5778 37.4955 16.5 38.6317 16.5C39.7679 16.5 40.6901 15.5778 40.6901 14.4416V5.15419C40.6901 2.30539 38.3847 0 35.5359 0C34.3667 0 33.2964 0.39521 32.4401 1.03743C31.5838 0.378743 30.497 0 29.3443 0C26.512 0 24.2066 2.30539 24.2066 5.15419V14.4416C24.2066 15.5778 25.1122 16.5 26.2485 16.5C27.3847 16.5 28.3069 15.5778 28.3069 14.4416V5.15419C28.3069 4.57784 28.7679 4.11677 29.3443 4.11677C29.9206 4.11677 30.3817 4.57784 30.3817 5.15419V14.4416C30.3817 15.5778 31.3039 16.5 32.4401 16.5C33.5763 16.5 34.4985 15.5778 34.4985 14.4416V5.15419C34.4985 4.57784 34.9596 4.11677 35.5359 4.11677C36.1123 4.11677 36.5733 4.57784 36.5733 5.15419V14.4416ZM87.3083 16.5C86.1721 16.5 85.2499 15.5778 85.2499 14.4416V10.3084H83.1751V14.4416C83.1751 15.5778 82.2529 16.5 81.1167 16.5C79.9805 16.5 79.0583 15.5778 79.0583 14.4416V8.25002V5.15419C79.0583 2.30539 81.3637 0 84.2125 0C87.0613 0 89.3667 2.30539 89.3667 5.15419V8.25002V14.4416C89.3667 15.5778 88.4445 16.5 87.3083 16.5ZM85.2499 6.19163V5.15419C85.2499 4.57784 84.7888 4.11677 84.2125 4.11677C83.6361 4.11677 83.1751 4.57784 83.1751 5.15419V6.19163H85.2499Z" fill="#FF7D5F"/>
</svg>
