<svg width="145" height="133" viewBox="0 0 145 133" fill="none" xmlns="http://www.w3.org/2000/svg">
<path d="M12.344 56.5C10.8133 56.5 9.63733 56.0893 8.816 55.268C7.99467 54.4467 7.584 53.2707 7.584 51.74V21.78C7.584 20.2493 7.99467 19.0733 8.816 18.252C9.63733 17.4307 10.8133 17.02 12.344 17.02H23.656C28.024 17.02 31.776 17.8227 34.912 19.428C38.0853 20.996 40.512 23.2547 42.192 26.204C43.872 29.1533 44.712 32.6627 44.712 36.732C44.712 40.8387 43.872 44.3853 42.192 47.372C40.5493 50.3213 38.1413 52.58 34.968 54.148C31.832 55.716 28.0613 56.5 23.656 56.5H12.344ZM22.928 48.212C26.7733 48.212 29.648 47.2787 31.552 45.412C33.4933 43.508 34.464 40.6147 34.464 36.732C34.464 32.8493 33.4933 29.9747 31.552 28.108C29.648 26.2413 26.7733 25.308 22.928 25.308H17.888V48.212H22.928ZM57.1125 56.836C55.5445 56.836 54.2938 56.388 53.3605 55.492C52.4645 54.5587 52.0165 53.308 52.0165 51.74V21.78C52.0165 20.2493 52.4272 19.0733 53.2485 18.252C54.0698 17.4307 55.2458 17.02 56.7765 17.02H71.1125C75.4805 17.02 78.8778 18.14 81.3045 20.38C83.7312 22.5827 84.9445 25.6627 84.9445 29.62C84.9445 33.54 83.7125 36.62 81.2485 38.86C78.8218 41.1 75.4432 42.22 71.1125 42.22H62.3205V51.74C62.3205 53.308 61.8538 54.5587 60.9205 55.492C59.9872 56.388 58.7178 56.836 57.1125 56.836ZM69.7125 34.492C71.6165 34.492 73.0165 34.1 73.9125 33.316C74.8458 32.532 75.3125 31.3187 75.3125 29.676C75.3125 26.428 73.4458 24.804 69.7125 24.804H62.3205V34.492H69.7125ZM104.381 56.78C102.813 56.78 101.544 56.332 100.573 55.436C99.64 54.5027 99.1733 53.2707 99.1733 51.74V25.364H91.2773C89.6346 25.364 88.4026 25.028 87.5813 24.356C86.7973 23.6467 86.4053 22.5827 86.4053 21.164C86.4053 19.7453 86.7973 18.7 87.5813 18.028C88.4026 17.356 89.6346 17.02 91.2773 17.02H117.485C119.128 17.02 120.341 17.356 121.125 18.028C121.947 18.7 122.357 19.7453 122.357 21.164C122.357 22.5827 121.947 23.6467 121.125 24.356C120.341 25.028 119.128 25.364 117.485 25.364H109.589V51.74C109.589 53.2707 109.104 54.5027 108.133 55.436C107.2 56.332 105.949 56.78 104.381 56.78ZM131.868 56.836C130.3 56.836 129.049 56.388 128.116 55.492C127.22 54.5587 126.772 53.308 126.772 51.74V21.78C126.772 20.2493 127.22 19.036 128.116 18.14C129.049 17.2067 130.3 16.74 131.868 16.74C133.473 16.74 134.743 17.2067 135.676 18.14C136.609 19.036 137.076 20.2493 137.076 21.78V51.74C137.076 53.308 136.609 54.5587 135.676 55.492C134.743 56.388 133.473 56.836 131.868 56.836Z" fill="#FF7D5F"/>
<path d="M18.696 112.78C17.128 112.78 15.8587 112.332 14.888 111.436C13.9547 110.503 13.488 109.271 13.488 107.74V81.364H5.592C3.94933 81.364 2.71733 81.028 1.896 80.356C1.112 79.6467 0.72 78.5827 0.72 77.164C0.72 75.7453 1.112 74.7 1.896 74.028C2.71733 73.356 3.94933 73.02 5.592 73.02H31.8C33.4427 73.02 34.656 73.356 35.44 74.028C36.2613 74.7 36.672 75.7453 36.672 77.164C36.672 78.5827 36.2613 79.6467 35.44 80.356C34.656 81.028 33.4427 81.364 31.8 81.364H23.904V107.74C23.904 109.271 23.4187 110.503 22.448 111.436C21.5147 112.332 20.264 112.78 18.696 112.78ZM45.8468 112.5C44.3161 112.5 43.1401 112.089 42.3188 111.268C41.4975 110.447 41.0868 109.271 41.0868 107.74V77.78C41.0868 76.2493 41.4975 75.0733 42.3188 74.252C43.1401 73.4307 44.3161 73.02 45.8468 73.02H65.2228C66.8281 73.02 68.0415 73.356 68.8628 74.028C69.6841 74.7 70.0948 75.6707 70.0948 76.94C70.0948 79.628 68.4708 80.972 65.2228 80.972H51.1108V88.476H64.1028C67.3508 88.476 68.9748 89.8013 68.9748 92.452C68.9748 93.7213 68.5641 94.692 67.7428 95.364C66.9215 96.036 65.7081 96.372 64.1028 96.372H51.1108V104.548H65.2228C68.4708 104.548 70.0948 105.892 70.0948 108.58C70.0948 109.849 69.6841 110.82 68.8628 111.492C68.0415 112.164 66.8281 112.5 65.2228 112.5H45.8468ZM89.914 113.004C86.9273 113.004 84.146 112.687 81.57 112.052C79.0313 111.38 76.9407 110.465 75.298 109.308C74.6633 108.823 74.1967 108.319 73.898 107.796C73.6367 107.273 73.506 106.601 73.506 105.78C73.506 104.66 73.842 103.689 74.514 102.868C75.186 102.047 75.97 101.636 76.866 101.636C77.3513 101.636 77.818 101.711 78.266 101.86C78.714 102.009 79.274 102.289 79.946 102.7C81.4767 103.559 82.9887 104.175 84.482 104.548C86.0127 104.921 87.73 105.108 89.634 105.108C91.8367 105.108 93.498 104.791 94.618 104.156C95.7753 103.484 96.354 102.513 96.354 101.244C96.354 100.385 95.8127 99.6573 94.73 99.06C93.6847 98.4253 91.6687 97.8093 88.682 97.212C84.986 96.428 82.0927 95.4947 80.002 94.412C77.9113 93.3293 76.4367 92.06 75.578 90.604C74.7567 89.1107 74.346 87.3187 74.346 85.228C74.346 82.8387 75.0553 80.6733 76.474 78.732C77.8927 76.7907 79.834 75.2787 82.298 74.196C84.7993 73.076 87.5993 72.516 90.698 72.516C93.4233 72.516 95.85 72.8147 97.978 73.412C100.106 74.0093 102.047 74.9427 103.802 76.212C104.474 76.6973 104.941 77.22 105.202 77.78C105.501 78.3027 105.65 78.956 105.65 79.74C105.65 80.86 105.314 81.8307 104.642 82.652C104.007 83.4733 103.242 83.884 102.346 83.884C101.861 83.884 101.413 83.828 101.002 83.716C100.591 83.5667 100.013 83.268 99.266 82.82C99.0793 82.708 98.538 82.428 97.642 81.98C96.7833 81.4947 95.7567 81.1213 94.562 80.86C93.4047 80.5613 92.1353 80.412 90.754 80.412C88.85 80.412 87.3193 80.7853 86.162 81.532C85.0047 82.2413 84.426 83.1933 84.426 84.388C84.426 85.0973 84.6313 85.676 85.042 86.124C85.4527 86.572 86.218 87.02 87.338 87.468C88.458 87.8787 90.1193 88.308 92.322 88.756C95.906 89.54 98.7247 90.492 100.778 91.612C102.831 92.6947 104.287 93.964 105.146 95.42C106.005 96.876 106.434 98.5933 106.434 100.572C106.434 103.036 105.743 105.22 104.362 107.124C102.981 108.991 101.039 110.447 98.538 111.492C96.074 112.5 93.1993 113.004 89.914 113.004ZM126.673 112.78C125.105 112.78 123.836 112.332 122.865 111.436C121.932 110.503 121.465 109.271 121.465 107.74V81.364H113.569C111.927 81.364 110.695 81.028 109.873 80.356C109.089 79.6467 108.697 78.5827 108.697 77.164C108.697 75.7453 109.089 74.7 109.873 74.028C110.695 73.356 111.927 73.02 113.569 73.02H139.777C141.42 73.02 142.633 73.356 143.417 74.028C144.239 74.7 144.649 75.7453 144.649 77.164C144.649 78.5827 144.239 79.6467 143.417 80.356C142.633 81.028 141.42 81.364 139.777 81.364H131.881V107.74C131.881 109.271 131.396 110.503 130.425 111.436C129.492 112.332 128.241 112.78 126.673 112.78Z" fill="#FF7D5F"/>
</svg>
