<svg width="180" height="400" viewBox="0 0 180 400" fill="none" xmlns="http://www.w3.org/2000/svg">
<path d="M33.148 400L-3.01885 399.108L-7.9165 157.793L41.2743 155.815L33.148 400Z" fill="#E36969"/>
<path d="M2.93017 167.842C13.5027 175.361 4.58431 177.359 3.17929 185.734C2.21271 191.503 11.9233 193.83 2.09812 203.003C1.0867 205.888 2.09812 207.218 3.92664 208.827L7.56376 387.255" stroke="#C13838" stroke-width="2" stroke-miterlimit="10"/>
<path d="M45.8483 400L82.0102 399.108L80.8393 157.793L32.8643 155.815L45.8483 400Z" fill="#E36969"/>
<path d="M51.7571 219.793L55.3942 398.216" stroke="#C13838" stroke-width="2" stroke-miterlimit="10"/>
<path d="M40.3376 170.587V205.18C40.3376 205.18 51.2639 205.18 51.2639 197.901C51.2639 190.616 51.2639 171.195 51.2639 171.195" stroke="#C13838" stroke-width="2" stroke-miterlimit="10"/>
<path d="M68.2438 68.1009C68.2438 68.1009 52.4498 62.1769 39.7747 63.1136C17.5683 64.7528 -0.946074 77.5923 -6.4167 100.232C-8.54914 109.061 -6.3021 161.53 -8.10571 172.895L80.9638 171.116C80.9588 171.116 79.1751 89.5101 68.2438 68.1009Z" fill="#82E155"/>
<path d="M49.4204 49.427C49.4204 49.427 47.7563 60.717 47.3428 66.9698C47.3428 66.9698 43.3569 76.7801 26.6909 65.1313C26.6909 65.1313 27.5778 56.8656 28.8782 46.2881" fill="#FFDBE5"/>
<path opacity="0.4" d="M49.49 50.2891C49.49 50.2891 45.25 53.1938 40.6313 50.2891L48.1497 60.7121L49.49 50.2891Z" fill="#807B63"/>
<path d="M39.7743 49.8206C43.546 50.7673 49.1162 52.0278 52.3049 49.9253C59.9977 44.8482 57.7905 30.9126 57.6909 26.6029C57.6062 23.1202 57.2873 18.367 54.9456 15.5221C53.0274 13.2053 49.6892 13.3498 46.9738 12.9363C43.5808 12.4181 40.1082 11.9398 36.7002 12.6473C33.1528 13.3847 29.2018 15.4225 26.4216 17.7492C26.4216 17.7492 29.3513 32.0984 28.6587 46.8611C28.6587 46.8711 38.2946 49.427 39.0619 49.6313C39.291 49.6961 39.5302 49.7559 39.7743 49.8206Z" fill="#FFDBE5"/>
<path d="M30.2782 29.622C37.1389 28.0626 49.1114 22.8311 50.9599 15.4223C52.8631 19.4531 54.9009 24.3158 57.8704 27.4896C57.437 27.0312 62.6933 19.742 58.1644 11.9845C55.2796 7.40075 48.9022 5.09392 43.7454 4.71526C36.0726 4.15225 14.5389 7.40075 22.8694 30.5537" fill="#135656"/>
<path d="M29.197 31.6948C29.197 31.6948 26.5214 26.558 22.68 29.2086C18.8337 31.8642 20.0942 38.5057 29.5009 39.6068" fill="#FFDBE5"/>
<path d="M42.5396 30.6285C41.3688 29.6868 40.8506 32.178 41.0997 32.9203C41.6976 34.704 42.9831 32.3125 42.6642 30.9772L42.5396 30.6285Z" fill="#46130A" stroke="#46130A" stroke-miterlimit="10"/>
<path d="M54.4871 29.8616C53.4608 29.0296 52.9924 31.2268 53.2166 31.8844C53.7398 33.4539 54.8708 31.3464 54.5918 30.1705L54.4871 29.8616Z" fill="#46130A" stroke="#46130A" stroke-miterlimit="10"/>
<path d="M48.8124 40.4739C48.7925 40.459 48.7975 40.6184 48.7925 40.6433C48.8274 40.6084 48.8124 40.434 48.8124 40.4739Z" fill="#61362E"/>
<path d="M49.1359 40.13L49.126 40.1947L49.1858 40.0403L49.1359 40.13Z" fill="#61362E"/>
<path d="M49.4451 40.1548C49.4351 39.8858 49.3305 40.1897 49.2807 40.0901L49.2757 40.0303L49.2358 40.2445C49.3056 40.2146 49.4052 40.0801 49.4451 40.1548Z" fill="#61362E"/>
<path d="M49.5745 40.7432C49.5695 40.6386 49.6194 40.6585 49.5347 40.7083C49.5347 40.7183 49.5397 40.7283 49.5397 40.7333C49.5496 40.7333 49.5596 40.7333 49.5745 40.7432Z" fill="#61362E"/>
<path d="M49.5397 40.7329C49.505 40.7379 49.5595 40.8221 49.5397 40.7329V40.7329Z" fill="#61362E"/>
<path d="M49.7044 40.6882L49.6545 40.7779C49.6595 40.8377 49.6994 40.8576 49.6795 40.8975C49.7293 40.8477 49.7243 40.7879 49.7044 40.6882Z" fill="#61362E"/>
<path d="M49.7588 40.4939L49.7339 40.5338C49.7389 40.5587 49.7438 40.5686 49.7588 40.4939Z" fill="#61362E"/>
<path d="M49.679 40.6134L49.7338 40.5337C49.7288 40.4888 49.7338 40.4041 49.7088 40.5636C49.7188 40.4838 49.7039 40.5586 49.679 40.6134Z" fill="#61362E"/>
<path d="M49.6544 40.5685C49.6345 40.5087 49.6046 40.4688 49.6544 40.3792C49.5647 40.414 49.5647 40.5984 49.6544 40.5685Z" fill="#61362E"/>
<path d="M49.4802 39.8807L49.4553 39.801L49.4204 39.8857C49.4354 39.8459 49.4752 39.9654 49.4802 39.8807Z" fill="#61362E"/>
<path d="M49.9929 40.8375C49.9979 40.7827 49.983 40.688 49.983 40.6133L49.9431 40.6781C49.9581 40.7179 49.9929 40.7578 49.9929 40.8375Z" fill="#61362E"/>
<path d="M49.9832 40.6134L50.0429 40.5187C49.9931 40.5088 49.9832 40.5536 49.9832 40.6134Z" fill="#61362E"/>
<path d="M49.7885 40.1997L49.6938 40.399L49.8035 40.1997H49.7885Z" fill="#61362E"/>
<path d="M50.1972 40.8576L50.1624 40.9871L50.2221 40.7878L50.1972 40.8576Z" fill="#61362E"/>
<path d="M50.3416 40.8328C50.3167 40.9424 50.3715 41.0171 50.3466 41.0819C50.3865 41.062 50.4263 40.9673 50.4562 40.8826C50.4213 40.9374 50.3865 40.9224 50.3416 40.8328Z" fill="#61362E"/>
<path d="M50.5064 40.7681C50.4914 40.793 50.4765 40.8428 50.4565 40.8926C50.4715 40.8627 50.4914 40.8279 50.5064 40.7681Z" fill="#61362E"/>
<path d="M50.1277 40.5537C50.1327 40.5886 50.1377 40.6783 50.1626 40.7181L50.1476 40.5587L50.1277 40.5537Z" fill="#61362E"/>
<path d="M50.1477 40.5486V40.5535C50.1675 40.5585 50.1874 40.5635 50.1923 40.5635C50.1874 40.5635 50.1725 40.5585 50.1477 40.5486Z" fill="#61362E"/>
<path d="M50.1226 40.5546C50.1279 40.5386 50.1226 40.5333 50.1226 40.5546V40.5546Z" fill="#61362E"/>
<path d="M49.9084 40.3491C49.9433 40.2595 50.0131 40.1698 49.9583 40.0303C49.9334 40.1399 49.9633 40.2196 49.9084 40.3491Z" fill="#61362E"/>
<path d="M50.1029 40.3494L50.048 40.3096C50.048 40.3494 50.053 40.4142 50.0381 40.459L50.1029 40.3494Z" fill="#61362E"/>
<path d="M50.1327 40.2996L50.1028 40.3494L50.1227 40.3643L50.1327 40.2996Z" fill="#61362E"/>
<path d="M50.4016 40.6184C50.4265 40.5487 50.4564 40.5437 50.4863 40.5337C50.4514 40.5038 50.4165 40.4839 50.3866 40.4839C50.3816 40.5337 50.3667 40.6234 50.4016 40.6184Z" fill="#61362E"/>
<path d="M50.2722 40.574L50.2774 40.5638C50.2774 40.5483 50.2722 40.5483 50.2722 40.574Z" fill="#61362E"/>
<path d="M50.8051 40.5191C50.8051 40.509 50.8 40.4989 50.8 40.4888V40.5191H50.8051Z" fill="#61362E"/>
<path d="M50.3768 40.4539C50.3519 40.424 50.337 40.4639 50.322 40.5137C50.342 40.4987 50.3619 40.4888 50.3818 40.4838C50.3868 40.4589 50.3868 40.4439 50.3768 40.4539Z" fill="#61362E"/>
<path d="M50.5961 40.6883C50.5812 40.6534 50.5662 40.6285 50.5513 40.5986C50.5612 40.6534 50.5911 40.7332 50.5961 40.6883Z" fill="#61362E"/>
<path d="M50.2873 40.6082L50.2822 40.6132C50.2923 40.6485 50.2923 40.6334 50.2873 40.6082Z" fill="#61362E"/>
<path d="M50.2871 40.6084C50.302 40.5835 50.312 40.5437 50.3219 40.5088C50.307 40.5188 50.292 40.5387 50.2771 40.5636C50.2821 40.5736 50.2871 40.5935 50.2871 40.6084Z" fill="#61362E"/>
<path d="M50.8152 39.4924C50.8252 39.6419 50.7754 39.7814 50.7156 39.627C50.6757 39.7416 50.7255 40.2248 50.7953 40.4939C50.7953 40.4291 50.7903 40.3693 50.8401 40.2796C50.8103 40.1999 50.7006 40.1003 50.7405 39.9658C50.8053 39.886 50.8053 40.0156 50.8451 40.0903C50.8003 39.911 50.9199 39.8163 50.87 39.5472L50.8202 39.6469C50.8202 39.5971 50.8352 39.5273 50.8152 39.4924Z" fill="#61362E"/>
<path d="M50.6807 40.4839L50.6558 40.5038C50.6857 40.5287 50.7056 40.5885 50.7504 40.6981C50.7903 40.6234 50.7953 40.5686 50.7953 40.5188L50.6707 40.5088L50.6807 40.4839Z" fill="#61362E"/>
<path d="M50.5511 40.5039C50.566 40.3445 50.6209 40.2747 50.581 40.1003C50.5162 40.1103 50.5362 40.2349 50.4963 40.3046C50.6059 40.2648 50.4664 40.3943 50.5461 40.484C50.5262 40.5139 50.5063 40.5189 50.4863 40.5288C50.5063 40.5488 50.5262 40.5737 50.5461 40.6036L50.5411 40.5936V40.5886C50.5362 40.5687 50.5362 40.5587 50.5411 40.5687V40.5637C50.5461 40.5438 50.5461 40.5238 50.5511 40.5039C50.586 40.5388 50.5561 40.5488 50.5461 40.5637V40.5886L50.6557 40.4989C50.6308 40.484 50.6009 40.489 50.5511 40.5039Z" fill="#61362E"/>
<path d="M50.033 39.687C50.033 39.7019 50.033 39.7118 50.033 39.7267C50.0379 39.7068 50.0429 39.692 50.033 39.687Z" fill="#61362E"/>
<path d="M50.0675 39.7866C50.0576 39.8065 50.0476 39.8713 50.0277 39.8563C50.0077 39.8065 50.0326 39.7766 50.0326 39.7268C50.0177 39.7667 49.9778 39.8414 50.0177 39.9211L50.0277 39.9012C50.0675 39.956 50.1124 40.1603 50.1024 40.1852C50.0924 40.0357 50.0875 39.9311 50.0675 39.7866Z" fill="#61362E"/>
<path d="M50.2969 40.1101L50.3866 40.0304L50.3417 39.8909V39.9756C50.2969 39.9457 50.3068 40.0453 50.2969 40.1101Z" fill="#61362E"/>
<path d="M50.8201 40.5984V40.7678L50.8599 40.5237L50.8201 40.5984Z" fill="#61362E"/>
<path d="M50.9646 40.5686L50.9696 40.7131L51.0094 40.6234L50.9646 40.5686Z" fill="#61362E"/>
<path d="M50.2027 35.0482L50.1528 35.0432C50.1728 35.0482 50.1877 35.0482 50.2027 35.0482Z" fill="#61362E"/>
<path d="M50.2673 35.2075L50.3371 35.1826C50.2922 35.1926 50.2673 35.2025 50.2673 35.2075Z" fill="#61362E"/>
<path d="M53.0525 37.7583C53.187 37.7084 53.3913 37.6487 53.2269 37.6736L53.0674 37.7035C53.1023 37.7184 53.0874 37.7383 53.0525 37.7583Z" fill="#61362E"/>
<path d="M51.6324 36.1691L51.5925 36.199C51.6473 36.1841 51.6972 36.1741 51.747 36.1592C51.7071 36.1642 51.6722 36.1642 51.6324 36.1691Z" fill="#61362E"/>
<path d="M51.0046 36.4084L51.0844 36.3237C51.0545 36.3486 51.0296 36.3736 51.0046 36.4084Z" fill="#61362E"/>
<path d="M49.6442 34.2407L49.4797 34.2806C49.5046 34.3254 49.5694 34.2706 49.6442 34.2407Z" fill="#61362E"/>
<path d="M52.554 39.9305C52.6337 39.9455 52.6836 39.9355 52.7135 39.9156C52.6038 39.9006 52.4693 39.8309 52.554 39.9305Z" fill="#61362E"/>
<path d="M51.7969 34.3953C51.762 34.3953 51.7321 34.4002 51.6973 34.4152C51.7321 34.4202 51.762 34.4152 51.7969 34.3953Z" fill="#61362E"/>
<path d="M52.8082 39.816C52.7883 39.816 52.7783 39.811 52.7634 39.811C52.7634 39.8559 52.7534 39.8957 52.7185 39.9206C52.7982 39.9306 52.868 39.9206 52.8082 39.816Z" fill="#61362E"/>
<path d="M48.4092 30.8839C48.4145 30.8786 48.4199 30.8732 48.4252 30.8679C48.4039 30.8732 48.4039 30.8786 48.4092 30.8839Z" fill="#61362E"/>
<path d="M49.6992 29.4629C49.7091 29.4678 49.7141 29.4827 49.719 29.4976C49.729 29.4827 49.724 29.4728 49.6992 29.4629Z" fill="#61362E"/>
<path d="M51.6826 40.4988C51.6463 40.5195 51.6826 40.5143 51.6826 40.4988V40.4988Z" fill="#61362E"/>
<path d="M51.2986 39.9361C51.2986 39.9161 51.2937 39.8962 51.2837 39.8613C51.2937 39.8962 51.2986 39.9211 51.2986 39.9361Z" fill="#61362E"/>
<path d="M52.126 39.0045C52.0951 38.9943 52.1003 38.9943 52.126 39.0045V39.0045Z" fill="#61362E"/>
<path d="M51.5974 40.4438C51.6173 40.4588 51.6423 40.4688 51.6622 40.4787C51.6522 40.4638 51.6323 40.4538 51.5974 40.4438Z" fill="#61362E"/>
<path d="M51.6322 40.5137C51.6173 40.5088 51.6074 40.5088 51.5925 40.5088C51.6024 40.5336 51.6124 40.5484 51.6322 40.5137Z" fill="#61362E"/>
<path d="M51.7318 40.4788C51.7118 40.4837 51.6869 40.4837 51.667 40.4788C51.677 40.4887 51.6869 40.4937 51.6869 40.4987C51.6919 40.4937 51.7069 40.4887 51.7318 40.4788Z" fill="#61362E"/>
<path d="M49.5047 32.5172C49.5096 32.5123 49.5096 32.5123 49.5146 32.5073C49.4502 32.5123 49.4601 32.5172 49.5047 32.5172Z" fill="#61362E"/>
<path d="M51.199 37.41C51.3983 37.3801 51.3734 37.4 51.3335 37.42L51.7919 37.3203C51.7919 37.3203 51.6424 37.3402 51.4929 37.3602C51.3485 37.3851 51.199 37.41 51.199 37.41Z" fill="#61362E"/>
<path d="M49.983 34.6846L49.8734 34.7992C49.6243 34.8341 49.6791 34.7544 49.5147 34.8889C49.9781 34.6846 49.6542 35.0733 50.1176 34.869L50.0378 34.9487C50.0378 34.9387 50.0079 34.9487 50.0079 34.9338C49.8186 35.1032 50.3667 34.8291 50.3368 34.9487C50.3168 34.9935 50.2571 35.0484 50.1923 35.0533L50.3368 35.0683C50.3368 35.0932 50.2521 35.1231 50.2521 35.0982L50.3368 35.1829L50.3218 35.1879C50.4015 35.1679 50.5261 35.153 50.5809 35.148C50.5261 35.2028 50.5261 35.158 50.4713 35.1879L50.6108 35.1928C50.5012 35.2726 50.3617 35.2775 50.3617 35.2277C49.9232 35.4918 50.5012 35.2227 50.282 35.4569L50.1973 35.432C49.9531 35.5864 50.0628 35.5815 49.9282 35.716C50.0079 35.6612 50.287 35.4121 50.4314 35.417C50.4015 35.4519 50.3966 35.4818 50.5062 35.4719C50.3418 35.5466 50.3966 35.5615 50.4215 35.5964L50.2023 35.6911C50.287 35.706 50.3916 35.6512 50.5012 35.6363C50.5012 35.6961 50.3368 35.7808 50.2023 35.8555C50.2023 35.9502 50.4514 35.6811 50.5311 35.7558C50.4763 35.8555 50.5859 35.8605 50.7503 35.8804C50.6955 35.9601 50.6158 35.9302 50.556 35.9751L50.7453 35.9352C50.7453 35.9452 50.6905 35.9651 50.6606 35.9801C50.7404 35.985 50.8799 35.8854 50.9646 35.9103C51.2137 35.8206 50.6606 36.1744 50.9646 36.1196C50.9098 36.1644 50.8251 36.1694 50.7453 36.2142C50.9646 36.2242 50.9097 36.2342 51.1838 36.2043L51.0642 36.3288C51.2087 36.2142 51.4279 36.1893 51.6123 36.1744C51.682 36.1245 51.7468 36.0797 51.7767 36.0548L51.9311 36.0897C51.9012 36.1146 51.8215 36.1395 51.7219 36.1644C51.7418 36.1644 51.7617 36.1594 51.7817 36.1594C51.7119 36.2242 51.5774 36.2591 51.4478 36.289C51.4877 36.2591 51.5276 36.2292 51.5724 36.1993C51.4279 36.2342 51.2735 36.279 51.1489 36.3388C51.1788 36.3338 51.2037 36.3338 51.2187 36.3388C51.1788 36.3487 51.1489 36.3587 51.124 36.3687C51.1041 36.3836 51.1539 36.3687 51.2137 36.3587L50.9745 36.4783L51.0742 36.4434L50.9646 36.6128C51.2436 36.5879 51.6422 36.5082 51.7916 36.5929C51.5973 36.6327 51.4927 36.7025 51.2735 36.7822C51.4927 36.6626 51.1439 36.7274 51.1589 36.6477C51.1489 36.6925 51.0443 36.7224 51.0044 36.7324L51.2535 36.7623C51.0742 36.8271 51.129 36.837 51.0692 36.8918C51.413 36.7374 51.3332 36.8868 51.4578 36.8918C51.3432 36.9367 51.2187 36.9715 51.2236 36.9068C50.9795 37.0612 51.6671 36.832 51.4628 36.9765C51.4528 36.9616 51.4728 36.9516 51.408 36.9666C51.5276 36.9616 51.4728 37.0662 51.3582 37.0861L51.3532 37.0762C51.3382 37.1708 51.4229 37.3153 51.7368 37.2555C51.697 37.2655 51.3631 37.3353 51.2984 37.3502C51.2984 37.3502 51.3631 37.3402 51.4678 37.3303C51.5674 37.3153 51.697 37.3004 51.8315 37.2954C52.1005 37.2804 52.3696 37.3004 52.3696 37.3004C52.1005 37.3303 51.4628 37.4498 51.2984 37.4299C51.2635 37.4498 51.2187 37.4648 51.3183 37.4797C51.3532 37.4698 51.7069 37.415 51.7318 37.4299C51.5774 37.4698 51.5375 37.4748 51.5026 37.4897C51.4678 37.4847 51.4379 37.5146 51.3183 37.5644C51.3731 37.5296 51.8016 37.5395 51.7916 37.5794C51.7269 37.5794 51.3731 37.6143 51.3233 37.6043C51.3233 37.6043 51.4279 37.6242 51.5375 37.6442C51.6471 37.6591 51.7518 37.679 51.7518 37.679C51.672 37.6591 51.398 37.7089 51.2834 37.7438C51.3631 37.7239 51.2834 37.8435 51.3332 37.8634L51.4229 37.8086C51.3731 37.9381 52.0258 37.8484 52.0158 37.958C51.9262 37.958 51.4827 38.0029 51.4379 38.0677C51.5475 38.0677 51.8066 38.0477 52.0607 38.0527C52.3148 38.0577 52.5739 38.0976 52.6635 38.1623L52.544 38.1872L52.6984 38.2869C52.3646 38.1922 51.6571 38.0976 51.393 38.1125C51.2984 38.1424 51.2485 38.1324 51.2635 38.1573C51.1489 38.1723 51.0891 38.1623 51.0791 38.1573C51.0791 38.1573 51.0094 38.2022 51.0094 38.1972C51.2635 38.1872 51.2685 38.2371 51.4827 38.247C51.4827 38.2371 51.2087 38.1673 51.2087 38.1773C51.4578 38.1524 51.9361 38.2072 51.9012 38.3018C51.8016 38.3118 51.4429 38.252 51.3582 38.252C51.4478 38.262 51.5325 38.3168 51.4728 38.3168L51.3332 38.2769C51.2386 38.2819 51.682 38.3766 51.4379 38.3666C51.4229 38.3766 51.1041 38.3168 51.2585 38.3566C51.5575 38.4264 52.4742 38.6207 52.6735 38.7054C52.6536 38.7154 52.3945 38.7851 52.26 38.7602C52.0407 38.7154 51.7069 38.5211 51.5126 38.4862C51.5824 38.5111 51.672 38.5559 51.7019 38.5709C51.6422 38.5659 51.4827 38.4862 51.5126 38.526C51.7767 38.6356 51.4827 38.5858 51.7318 38.6307C51.8016 38.7004 51.677 38.6456 51.677 38.6905C51.8464 38.7502 52.245 39.0193 52.265 39.104C52.2101 39.0691 52.1354 39.0392 52.0906 39.0243C52.0258 39.109 51.8863 39.0791 51.8215 39.1339C51.7617 39.094 51.6671 39.0691 51.5824 38.9744C51.6172 39.0143 51.682 39.089 51.6671 39.104C51.4478 38.9595 51.677 39.0492 51.4279 38.8648C51.5525 38.9794 51.5575 39.0542 51.6023 39.1488C51.7916 39.3282 51.7119 39.1339 51.6571 39.0442C51.9511 39.2883 52.1205 39.5424 52.1105 39.7318C52.0706 39.8464 51.9361 39.6022 51.9511 39.6421C51.7667 39.6819 52.1354 40.1503 51.8365 40.0357C51.6671 39.8862 51.6222 39.6919 51.5325 39.5773C51.5575 39.4926 51.7069 39.6471 51.7518 39.6222L51.6372 39.5673C51.6222 39.5026 51.6322 39.4478 51.692 39.4876C51.5375 39.3481 51.4179 39.5474 51.2336 39.4229C51.2436 39.4876 51.2336 39.5624 51.2834 39.6321L51.3083 39.5972C51.413 39.7367 51.3183 39.8214 51.403 39.8763C51.3881 39.9908 51.3681 40.1802 51.2436 40.1154L51.1638 39.9012C51.1838 39.9659 51.2585 40.0207 51.2635 39.946C51.2485 40.0506 51.0542 39.677 51.0841 39.9759L51.1838 40.1154C51.1489 40.2449 51.0991 40.499 50.9845 40.4343C51.0642 40.6535 50.9994 40.4094 51.119 40.6585C50.9994 40.3496 51.3831 40.6186 51.2037 40.3047C51.3532 40.5837 51.3532 40.4044 51.5375 40.6286C51.5076 40.5588 51.4528 40.499 51.5525 40.514C51.5475 40.4941 51.5475 40.4642 51.5475 40.4492L51.5575 40.4542L51.5475 40.4492C51.5475 40.4393 51.5475 40.4343 51.5425 40.4492C51.5126 40.4243 51.4827 40.3894 51.4628 40.3496C51.4429 40.1802 51.5624 40.1553 51.5624 40.0656C51.6222 40.0855 51.5824 40.1503 51.6422 40.2151L51.6372 40.0706C51.7169 40.22 51.8863 40.2699 51.8265 40.3994L51.9311 40.3645C52.0358 40.4243 52.1454 40.4143 52.1553 40.3346C52.2251 40.3446 52.1653 40.1353 52.2002 40.2549C52.2052 40.2599 52.2899 40.1054 52.2799 40.1005L52.3098 40.1304C52.4692 40.0506 52.3696 39.7617 52.7183 39.8165C52.7233 39.7517 52.7134 39.677 52.803 39.6271L52.9326 39.6919C52.9276 39.6072 53.1668 39.5723 53.0472 39.4677C53.4308 39.5773 53.2564 39.1588 53.3262 39.0591L53.1418 38.9944C53.1668 38.9147 53.1219 38.81 53.0522 38.6905L52.8828 38.6606C52.7433 38.5559 53.0023 38.4613 52.9675 38.3118C53.0322 38.3267 53.0173 38.3616 52.9824 38.3815C53.1668 38.3118 53.087 38.2022 52.9924 38.1175C52.8977 38.0278 52.7931 37.963 52.9176 37.8684C52.8529 37.8484 52.8728 37.8335 52.9127 37.8086C52.9127 37.8086 52.9176 37.8136 52.9226 37.8136C52.9226 37.8086 52.9226 37.8086 52.9226 37.8036C52.9475 37.7886 52.9824 37.7737 53.0073 37.7588C52.9675 37.7737 52.9376 37.7886 52.9226 37.7986C52.9176 37.7787 52.8927 37.7588 52.8479 37.7388L53.0273 37.7039C53.0223 37.7039 53.0223 37.699 53.0223 37.699C53.087 37.6641 52.9326 37.689 52.803 37.7189C52.7731 37.7089 52.7333 37.7039 52.6934 37.699C52.9774 37.6442 52.5888 37.6442 52.8927 37.5844C52.7383 37.5844 52.7682 37.4797 52.4493 37.4897C52.4892 37.4847 52.5091 37.4797 52.5141 37.4897C52.544 37.4598 52.5739 37.4498 52.529 37.415C52.5191 37.41 52.5091 37.405 52.4941 37.4L52.7183 37.3651C52.7183 37.3651 52.6386 37.3502 52.5589 37.3303C52.4792 37.3153 52.3995 37.3054 52.3995 37.3054C52.529 37.2356 52.6037 37.1908 52.7881 37.2256C52.4991 37.126 52.6685 37.111 52.3895 37.0712L52.534 37.0413C52.519 37.0064 52.3098 37.0064 52.4244 36.9566C52.5489 36.8819 52.529 36.7822 52.4991 36.6726C52.4692 36.573 52.4343 36.4584 52.519 36.3238C52.1254 36.5181 52.6685 36.1694 52.3546 36.284C52.4443 36.2342 52.4892 36.1893 52.5838 36.1843C52.4543 36.1345 52.6785 35.99 52.3945 36.0398C52.4842 35.99 52.544 36 52.5938 35.9701C52.5689 35.9701 52.4991 35.9751 52.5539 35.9452C52.6087 35.9153 52.6386 35.9252 52.6884 35.9203C52.6336 35.8356 52.3397 35.9502 52.0607 36.0598C52.1753 35.9601 52.1454 35.9452 51.9511 35.99C52.0358 35.9352 52.1205 35.8704 52.1703 35.9103C52.1703 35.8754 52.2251 35.6711 52.0009 35.7608C52.0507 35.726 52.0009 35.711 51.971 35.716C51.956 35.6413 51.971 35.6313 51.9212 35.5715L51.8913 35.6064C51.6172 35.6961 51.8066 35.5765 51.7518 35.5366L51.7817 35.5267C51.9162 35.3224 51.6671 35.5167 51.8315 35.2975L51.7069 35.3722C51.3482 35.5167 51.8664 35.1729 51.7019 35.1679L51.6172 35.2327C51.4827 35.2476 52.0507 34.9138 52.0756 34.854C52.1005 34.8341 52.1304 34.8441 52.1603 34.8441C52.3247 34.6498 51.9411 34.9288 51.8564 34.879C51.966 34.8142 52.1553 34.7644 52.1553 34.7046C52.2351 34.6348 51.7169 34.7295 51.9062 34.5651C51.8215 34.6199 51.7418 34.6747 51.6621 34.6697C51.6073 34.6298 51.9311 34.3757 51.6322 34.4555C51.6521 34.4355 51.677 34.4256 51.697 34.4156C51.6073 34.4106 51.5176 34.3409 51.3532 34.3857C51.9012 34.0917 50.9646 34.2661 51.4877 34.027L51.403 33.9174L51.4578 33.8974C51.4578 33.8028 51.3183 33.8327 51.1838 33.8626C51.2087 33.8277 51.2635 33.8177 51.2934 33.8077C51.3482 33.6483 51.3183 33.6433 51.0194 33.6682L51.1838 33.5835C51.0742 33.6035 51.3731 33.2996 51.129 33.2796C51.1489 33.2746 51.1838 33.2597 51.2087 33.2597C50.9546 33.2248 51.5425 32.7515 50.9048 32.9807L50.7154 32.9657C50.7154 33.0953 50.4414 33.0704 50.3567 33.16C50.3019 33.1351 50.4962 32.9657 50.551 33.0056L50.5261 33.0255C50.8549 32.901 50.5809 32.8412 50.8001 32.7465C50.6905 32.5422 50.7802 32.2582 50.7105 32.0589L50.4663 32.1885L50.4514 32.1137C50.5012 32.0689 50.6407 32.0041 50.6507 32.0589C50.7802 31.9742 50.4962 32.0291 50.4414 32.049C50.5012 31.9095 50.7503 31.9643 50.7453 31.9294L50.7105 31.8995L50.6855 31.9194C50.5709 31.9294 50.4564 31.9742 50.4464 31.9095C50.4813 31.8497 50.5959 31.8248 50.5959 31.8048C50.6158 31.7999 50.6208 31.7899 50.5959 31.7799L50.5809 31.6853L50.3966 31.8048C50.282 31.8048 50.3717 31.7201 50.1624 31.8547C50.4863 31.6504 50.1574 31.476 50.2521 31.3963C50.0827 31.4013 50.0627 31.3465 50.0578 31.2717C50.0229 31.3066 49.7987 31.4013 49.8037 31.3365C50.277 31.1771 49.9681 31.1522 50.287 30.9778C50.0777 31.1023 50.1724 30.8383 49.8784 31.0226C49.8983 30.9628 50.0528 30.9529 50.1475 30.8781C49.9232 30.8333 50.1674 30.5891 50.0627 30.4746C49.998 30.4945 49.9133 30.5493 49.8086 30.5543L50.0926 30.3749C50.0528 30.36 49.7239 30.4696 49.9232 30.35C49.8734 30.3749 49.7987 30.4098 49.7738 30.3998C49.983 30.0361 49.3403 29.9016 49.8635 29.488C49.7439 29.5528 49.7289 29.5329 49.719 29.503C49.6941 29.5279 49.5595 29.5379 49.4748 29.5628L49.6941 29.3984C49.4449 29.4283 49.6542 29.2838 49.415 29.3137L49.4649 29.3436C49.1809 29.3436 48.872 29.5279 48.5182 29.5877C48.8421 29.5827 48.0947 29.8567 48.5581 29.8667C48.4933 29.9066 48.4435 29.8717 48.3638 29.9066C48.5182 29.8966 48.5581 29.9215 48.5083 29.9962L48.4684 30.0012C48.5531 30.1557 48.4236 30.2603 48.3787 30.4746L48.5431 30.4098C48.5332 30.4546 48.4833 30.4795 48.4435 30.5144C48.7125 30.4795 48.4285 30.3998 48.7225 30.355C48.3887 30.5144 48.8022 30.624 48.4236 30.7835C48.4435 30.8433 48.6129 30.7037 48.6278 30.7635L48.5282 30.8134L48.6677 30.7835C48.6577 30.8283 48.5332 30.8931 48.4435 30.923C48.4485 30.908 48.4086 30.903 48.3986 30.8981C48.294 30.9927 48.4883 31.0276 48.4534 31.0575L48.4983 30.9778C48.6478 31.1073 48.583 31.3415 48.852 31.4162L48.9268 31.3764C49.1161 31.4361 48.877 31.5009 48.9866 31.6006L48.9666 31.6055C49.0513 31.6006 49.1061 31.6205 49.1111 31.6554C49.0065 31.6604 48.9567 31.7849 48.8421 31.7799C49.0463 31.8397 48.9866 31.7949 49.3104 31.755L49.1908 31.8248C49.3154 31.8048 49.3802 31.7849 49.44 31.8298C49.3104 31.8248 49.2606 31.9493 49.0912 31.9493C48.862 32.1935 49.4499 32.0241 49.0663 32.2533C49.4449 32.1636 49.2207 32.0589 49.3054 32.0639C49.4101 31.9892 49.5894 32.0041 49.5695 32.0589C49.5795 32.1038 49.146 32.318 49.1958 32.4177C49.1908 32.4077 49.1659 32.4177 49.1609 32.4077C49.0862 32.4824 49.3154 32.4326 49.1908 32.5372C49.415 32.4725 49.2058 32.602 49.4798 32.4974L49.3752 32.4326C49.4699 32.4575 49.8086 32.3678 49.6891 32.5223C49.6293 32.5372 49.5496 32.5422 49.4997 32.5422C49.43 32.602 49.5745 32.5671 49.4997 32.6319C49.2257 32.7415 49.3951 32.5422 49.1609 32.5771C49.0563 32.6518 49.4051 32.602 49.0962 32.6967C49.4898 32.5771 49.0912 32.8163 49.4051 32.7664L49.2407 32.8312C49.2706 32.8312 49.3553 32.8212 49.3602 32.8412L49.131 32.896C49.3353 32.876 49.0214 33.0704 49.141 33.0853C49.0862 32.9757 49.3254 32.9757 49.425 32.876C49.704 32.9209 49.0364 33.1401 49.1809 33.2597C49.151 33.2497 49.2456 33.1401 49.3353 33.1401C49.3154 33.185 49.2706 33.2497 49.1908 33.3045C49.2706 33.3942 49.3503 33.2148 49.4699 33.2148C49.2855 33.3344 49.5745 33.2298 49.6542 33.2447L49.4898 33.3195C49.435 33.4839 49.8485 33.1999 49.7638 33.3593L49.5147 33.4141L49.5994 33.444L49.4051 33.5138C49.5695 33.5138 49.5446 33.5437 49.5147 33.6284C49.6243 33.5636 49.8186 33.5038 49.8435 33.5487C49.7588 33.6284 49.6791 33.5985 49.7339 33.6633C49.6243 33.6932 49.4848 33.733 49.6243 33.6334C49.5695 33.6483 49.5147 33.6682 49.4599 33.6832C49.3652 33.7729 49.4748 33.7878 49.4898 33.8127C49.4898 33.7978 49.4948 33.7828 49.5147 33.7679L49.7887 33.7729C49.7339 33.8177 49.6791 33.8277 49.6243 33.8327C49.6492 33.8476 49.7339 33.8277 49.7638 33.8526C49.6243 33.9024 49.4898 33.9672 49.4051 33.9522L49.5994 33.9871C49.5446 34.022 49.4649 34.1117 49.4101 34.1216C49.3553 34.2113 49.7289 34.1416 49.6592 34.2611C49.6841 34.2512 49.714 34.2512 49.7389 34.2562C49.7389 34.3409 49.6044 34.4754 49.8236 34.4704L49.6044 34.6249C49.6891 34.6647 49.8784 34.4256 50.0179 34.4903C50.1275 34.5302 49.8286 34.6099 49.7738 34.6697C49.9133 34.6498 50.1873 34.6049 50.0229 34.7644C49.983 34.7295 50.0129 34.6946 49.983 34.6846ZM50.4464 35.4121C50.4065 35.4121 50.287 35.432 50.3766 35.3772C50.5709 35.3074 50.4912 35.3622 50.4464 35.4121ZM51.3631 36.4185C51.3034 36.4285 51.3233 36.4036 51.3781 36.3537C51.398 36.3637 51.398 36.3836 51.3631 36.4185ZM51.9909 40.235C51.9909 40.23 51.9909 40.23 51.9909 40.225C52.0806 40.2599 52.0457 40.2449 51.9909 40.235ZM51.8414 40.2101C51.8414 40.235 51.8564 40.2599 51.8713 40.2798C51.8564 40.235 51.8813 40.225 51.9112 40.225C51.8863 40.1852 51.8564 40.1602 51.8414 40.2101ZM50.5311 31.8248L50.4912 31.8547C50.4314 31.8447 50.4763 31.8347 50.5311 31.8248Z" fill="#61362E"/>
<path d="M51.0791 36.3783C51.104 36.3634 51.1339 36.3484 51.1688 36.3335C51.1339 36.3435 51.104 36.3534 51.0791 36.3783Z" fill="#61362E"/>
<path d="M49.679 34.2357V34.2307L49.6443 34.2406L49.679 34.2357Z" fill="#61362E"/>
<path d="M51.4531 38.451C51.478 38.451 51.5129 38.461 51.5528 38.466C51.5029 38.451 51.4631 38.4411 51.4531 38.451Z" fill="#61362E"/>
<path d="M51.3131 40.6681L51.3829 40.6033C51.343 40.6233 51.3231 40.5884 51.2932 40.5635C51.3082 40.6033 51.3381 40.6581 51.3131 40.6681Z" fill="#61362E"/>
<path d="M50.6305 39.627C50.6255 39.6469 50.6156 39.627 50.6106 39.6519L50.6156 39.7366C50.6455 39.7316 50.6654 39.6618 50.6305 39.627Z" fill="#61362E"/>
<path d="M51.1141 40.1001C51.0793 39.9556 51.0494 40.0055 51.0095 40.0404C51.0095 40.0404 51.0145 40.0404 51.0195 40.0404C51.0394 40.2496 51.0793 40.1749 51.1141 40.1001Z" fill="#61362E"/>
<path d="M51.0045 40.0454C50.9945 40.0554 50.9795 40.0604 50.9646 40.0554C50.9696 40.1401 50.9795 40.0703 51.0045 40.0454Z" fill="#61362E"/>
<path d="M51.7519 40.3543C51.712 40.3244 51.8167 40.5336 51.7768 40.4838C51.8366 40.6731 51.8416 40.2148 51.7519 40.3543Z" fill="#61362E"/>
<path d="M50.9846 39.6167L51.0344 39.7961L51.0245 39.6466L50.9846 39.6167Z" fill="#61362E"/>
<path d="M51.3035 39.6965L51.2288 39.6616C51.2387 39.6915 51.2387 39.7114 51.2337 39.7264C51.2686 39.7214 51.3234 39.7463 51.3035 39.6965Z" fill="#61362E"/>
<path d="M51.2335 39.7219C51.2137 39.7219 51.1988 39.7318 51.1938 39.7616C51.2038 39.7566 51.2236 39.7467 51.2335 39.7219Z" fill="#61362E"/>
<path d="M51.0493 39.5471L51.0742 39.582L51.1141 39.592L51.0493 39.5471Z" fill="#61362E"/>
<path d="M51.9364 39.5075C51.9364 39.5075 51.9563 39.4378 51.9563 39.4328C51.9164 39.383 51.8766 39.368 51.8716 39.3929C51.8865 39.4378 51.8815 39.4677 51.9364 39.5075Z" fill="#61362E"/>
<path d="M51.4278 39.1535C51.4627 39.1834 51.4926 39.2183 51.5424 39.2681L51.3879 39.0688L51.4278 39.1535Z" fill="#61362E"/>
<path d="M51.5125 39.054C51.4677 38.9992 51.4228 38.8796 51.3879 38.9095C51.4378 38.9643 51.4378 39.0291 51.5125 39.054Z" fill="#61362E"/>
<path d="M52.1157 38.5957V38.6156L52.4944 38.7252L52.1157 38.5957Z" fill="#61362E"/>
<path d="M51.1242 37.9677C51.0445 38.0623 51.3584 37.9577 51.2537 38.0424C51.3434 38.0474 51.3384 37.9726 51.4182 37.9826C51.3185 37.9427 51.3683 37.9128 51.1242 37.9677Z" fill="#61362E"/>
<path d="M51.4182 37.9778C51.4332 37.9828 51.4531 37.9877 51.478 37.9927C51.4531 37.9828 51.4332 37.9778 51.4182 37.9778Z" fill="#61362E"/>
<path d="M49.8687 29.2783L49.9384 29.2285L49.8188 29.2734L49.8687 29.2783Z" fill="#61362E"/>
<path d="M49.5745 29.2537L49.8136 29.2039L49.5894 29.2138C49.6044 29.2238 49.6293 29.2387 49.5745 29.2537Z" fill="#61362E"/>
<path d="M50.053 35.7308L50.1078 35.7109C50.1626 35.681 50.1626 35.666 50.1626 35.6411L50.053 35.7308Z" fill="#61362E"/>
<path d="M49.9631 35.0928V35.1028L50.1525 34.9932L49.9631 35.0928Z" fill="#61362E"/>
<path d="M49.4897 34.7294C49.4897 34.7543 49.5446 34.7543 49.5446 34.7792C49.4897 34.7543 49.7389 34.6148 49.4897 34.7294Z" fill="#61362E"/>
<path d="M24.8821 32.3474L27.1391 34.435" stroke="#46130A" stroke-width="1.5" stroke-miterlimit="10" stroke-linecap="round" stroke-linejoin="round"/>
<path d="M48.1851 43.2638C48.1951 43.2688 48.1502 43.194 48.1453 43.1841C48.1453 43.204 48.2001 43.2837 48.1851 43.2638Z" fill="#61362E"/>
<path d="M48.1399 43.493L48.125 43.4631L48.1399 43.5478V43.493Z" fill="#61362E"/>
<path d="M48.0054 43.5528C48.0751 43.6774 48.0452 43.508 48.0901 43.5429L48.11 43.5727L48.0701 43.4631C48.0502 43.493 48.0402 43.5827 48.0054 43.5528Z" fill="#61362E"/>
<path d="M47.821 43.3035C47.8458 43.353 47.826 43.353 47.8409 43.3134C47.8359 43.3084 47.8359 43.3035 47.831 43.3035C47.831 43.2985 47.831 43.3035 47.821 43.3035Z" fill="#61362E"/>
<path d="M47.8364 43.2994C47.8467 43.2891 47.8106 43.2582 47.8364 43.2994V43.2994Z" fill="#61362E"/>
<path d="M47.7858 43.3584V43.3036C47.7709 43.2737 47.7559 43.2737 47.751 43.2488C47.746 43.2837 47.7609 43.3086 47.7858 43.3584Z" fill="#61362E"/>
<path d="M47.8062 43.4585V43.4383C47.8062 43.4232 47.8011 43.4232 47.8062 43.4585Z" fill="#61362E"/>
<path d="M47.8109 43.3882L47.8059 43.438C47.8159 43.4579 47.8308 43.5028 47.8109 43.4181C47.8258 43.4579 47.8159 43.4181 47.8109 43.3882Z" fill="#61362E"/>
<path d="M47.8308 43.4032C47.8507 43.4281 47.8707 43.4381 47.8707 43.4929C47.9006 43.458 47.8557 43.3683 47.8308 43.4032Z" fill="#61362E"/>
<path d="M48.0548 43.692L48.0847 43.7219L48.0797 43.6721C48.0847 43.697 48.0399 43.6522 48.0548 43.692Z" fill="#61362E"/>
<path d="M47.6565 43.3188C47.6665 43.3487 47.6864 43.3936 47.7013 43.4285V43.3936C47.6914 43.3737 47.6714 43.3587 47.6565 43.3188Z" fill="#61362E"/>
<path d="M47.7015 43.428L47.6965 43.4828C47.7165 43.4828 47.7115 43.4579 47.7015 43.428Z" fill="#61362E"/>
<path d="M47.8608 43.6078L47.8558 43.4932L47.8508 43.6127L47.8608 43.6078Z" fill="#61362E"/>
<path d="M47.5869 43.3337L47.5769 43.2639L47.5869 43.3685V43.3337Z" fill="#61362E"/>
<path d="M47.5419 43.3585C47.5369 43.2988 47.507 43.2689 47.507 43.229C47.4971 43.244 47.4971 43.2938 47.5021 43.3386C47.5021 43.3137 47.512 43.3137 47.5419 43.3585Z" fill="#61362E"/>
<path d="M47.4971 43.4084C47.4971 43.3934 47.4971 43.3685 47.4971 43.3386C47.4971 43.3536 47.4921 43.3735 47.4971 43.4084Z" fill="#61362E"/>
<path d="M47.6566 43.4782C47.6516 43.4632 47.6316 43.4184 47.6167 43.3984L47.6466 43.4782H47.6566Z" fill="#61362E"/>
<path d="M47.6524 43.4831C47.6421 43.4831 47.637 43.4831 47.6318 43.4831C47.6318 43.478 47.6421 43.478 47.6524 43.4831Z" fill="#61362E"/>
<path d="M47.7761 43.553C47.7811 43.6028 47.7662 43.6576 47.816 43.7174C47.811 43.6576 47.7811 43.6227 47.7761 43.553Z" fill="#61362E"/>
<path d="M47.7014 43.578L47.7313 43.5879C47.7263 43.568 47.7114 43.5381 47.7114 43.5132L47.7014 43.578Z" fill="#61362E"/>
<path d="M47.6964 43.6074L47.7013 43.5777L47.6914 43.5728L47.6964 43.6074Z" fill="#61362E"/>
<path d="M47.5519 43.4779C47.5519 43.5177 47.5419 43.5227 47.532 43.5327C47.5469 43.5476 47.5619 43.5526 47.5768 43.5476C47.5669 43.5177 47.5619 43.4679 47.5519 43.4779Z" fill="#61362E"/>
<path d="M47.6016 43.4878V43.4926C47.6016 43.4973 47.6063 43.4973 47.6016 43.4878Z" fill="#61362E"/>
<path d="M47.4172 43.5579L47.4226 43.5739V43.5579H47.4172Z" fill="#61362E"/>
<path d="M47.5819 43.5574C47.5967 43.5723 47.5967 43.5475 47.5967 43.5227C47.5918 43.5326 47.5868 43.5425 47.5769 43.5425C47.5769 43.5574 47.5769 43.5624 47.5819 43.5574Z" fill="#61362E"/>
<path d="M47.4774 43.4582C47.4875 43.4734 47.4925 43.4886 47.5027 43.4987C47.4925 43.4734 47.4723 43.4329 47.4774 43.4582Z" fill="#61362E"/>
<path d="M47.5921 43.4691C47.5814 43.4478 47.5868 43.4584 47.5921 43.4691V43.4691Z" fill="#61362E"/>
<path d="M47.5918 43.4683C47.5918 43.4832 47.5918 43.5031 47.5918 43.5231C47.5968 43.5131 47.5968 43.5031 47.6018 43.4932C47.5968 43.4882 47.5918 43.4782 47.5918 43.4683Z" fill="#61362E"/>
<path d="M47.4772 44.1009C47.4672 44.0212 47.4821 43.9464 47.522 44.0261C47.537 43.9614 47.4672 43.7123 47.4224 43.5728C47.4273 43.6076 47.4323 43.6375 47.4224 43.6873C47.4373 43.7272 47.4921 43.782 47.4871 43.8518C47.4622 43.8966 47.4572 43.8269 47.4323 43.787C47.4622 43.8817 47.4174 43.9315 47.4473 44.076L47.4672 44.0212C47.4722 44.0461 47.4672 44.081 47.4772 44.1009Z" fill="#61362E"/>
<path d="M47.467 43.5729L47.472 43.5629C47.4571 43.553 47.4471 43.5231 47.4222 43.4683C47.4172 43.5131 47.4172 43.538 47.4222 43.5629H47.467V43.5729Z" fill="#61362E"/>
<path d="M47.5117 43.5479C47.5266 43.6326 47.5117 43.6774 47.5416 43.7621C47.5665 43.7472 47.5466 43.6874 47.5515 43.6475C47.5117 43.6824 47.5515 43.5977 47.5117 43.5578C47.5167 43.5429 47.5216 43.5329 47.5266 43.5279C47.5167 43.518 47.5067 43.508 47.4967 43.498V43.503C47.5017 43.513 47.5017 43.518 47.5017 43.513C47.5067 43.5279 47.5117 43.5379 47.5117 43.5479C47.4967 43.5329 47.5067 43.5279 47.5067 43.513V43.498L47.4768 43.5578C47.4818 43.5678 47.4917 43.5628 47.5117 43.5479Z" fill="#61362E"/>
<path d="M47.8511 43.9027C47.846 43.8975 47.846 43.8872 47.8408 43.8821C47.846 43.8924 47.846 43.9027 47.8511 43.9027Z" fill="#61362E"/>
<path d="M47.816 43.8567C47.816 43.8467 47.806 43.8118 47.821 43.8168C47.8409 43.8367 47.8359 43.8567 47.8409 43.8816C47.8409 43.8567 47.8459 43.8168 47.811 43.7819V43.7919C47.7811 43.767 47.7263 43.6723 47.7263 43.6624C47.7612 43.7371 47.7811 43.7869 47.816 43.8567Z" fill="#61362E"/>
<path d="M47.6616 43.7271L47.6367 43.7769L47.6716 43.8416L47.6567 43.7968C47.6865 43.8118 47.6666 43.7569 47.6616 43.7271Z" fill="#61362E"/>
<path d="M47.4075 43.5177L47.3926 43.428L47.3976 43.5575L47.4075 43.5177Z" fill="#61362E"/>
<path d="M47.3626 43.5328L47.3526 43.4531L47.3477 43.5029L47.3626 43.5328Z" fill="#61362E"/>
<path d="M44.2543 43.6624L44.229 43.6725C44.2391 43.6725 44.2492 43.6674 44.2543 43.6624Z" fill="#61362E"/>
<path d="M44.3333 43.7178L44.3586 43.6875C44.3384 43.7026 44.3283 43.7178 44.3333 43.7178Z" fill="#61362E"/>
<path d="M46.2216 43.4928C46.2216 43.4181 46.2365 43.2985 46.2166 43.3882L46.2017 43.4729C46.2116 43.4629 46.2166 43.4729 46.2216 43.4928Z" fill="#61362E"/>
<path d="M45.2252 43.6874L45.2202 43.7123C45.2352 43.6874 45.2501 43.6625 45.2651 43.6426C45.2501 43.6575 45.2401 43.6725 45.2252 43.6874Z" fill="#61362E"/>
<path d="M43.7652 43.4331L43.7004 43.4929C43.7204 43.5078 43.7403 43.463 43.7652 43.4331Z" fill="#61362E"/>
<path d="M46.8939 43.5978C46.879 43.5629 46.869 43.548 46.864 43.543C46.874 43.5928 46.8889 43.6725 46.8939 43.5978Z" fill="#61362E"/>
<path d="M44.7815 42.9102C44.7667 42.9201 44.7567 42.9349 44.7468 42.9498C44.7567 42.9399 44.7716 42.93 44.7815 42.9102Z" fill="#61362E"/>
<path d="M46.825 43.5429C46.825 43.5529 46.8299 43.5579 46.8299 43.5629C46.8399 43.5479 46.8499 43.5379 46.8598 43.5429C46.8499 43.5081 46.8399 43.4831 46.825 43.5429Z" fill="#61362E"/>
<path d="M42.4549 42.0183C42.4549 42.0134 42.4597 42.0134 42.4597 42.0085C42.45 42.0183 42.45 42.0183 42.4549 42.0183Z" fill="#61362E"/>
<path d="M42.8984 41.1067C42.9038 41.1067 42.9091 41.1173 42.9144 41.1227C42.9198 41.112 42.9144 41.1067 42.8984 41.1067Z" fill="#61362E"/>
<path d="M47.1733 43.5188C47.1844 43.5077 47.1789 43.5077 47.1733 43.5188V43.5188Z" fill="#61362E"/>
<path d="M47.2632 43.8518C47.2632 43.8617 47.2632 43.8716 47.2632 43.8915C47.2583 43.8716 47.2583 43.8568 47.2632 43.8518Z" fill="#61362E"/>
<path d="M47.1934 43.5531C47.1883 43.543 47.1833 43.5329 47.1782 43.5278C47.1833 43.5379 47.1883 43.543 47.1934 43.5531Z" fill="#61362E"/>
<path d="M47.188 43.5135C47.1933 43.5189 47.1933 43.5189 47.1986 43.5189C47.1986 43.5082 47.1933 43.4975 47.188 43.5135Z" fill="#61362E"/>
<path d="M47.1633 43.5238C47.1687 43.5238 47.174 43.5238 47.1793 43.5292C47.1793 43.5238 47.174 43.5185 47.174 43.5132C47.174 43.5185 47.1687 43.5185 47.1633 43.5238Z" fill="#61362E"/>
<path d="M43.3022 42.6263C43.3022 42.6263 43.3022 42.6213 43.3072 42.6162C43.2719 42.6364 43.2769 42.6364 43.3022 42.6263Z" fill="#61362E"/>
<path d="M45.6938 44.2761L45.6997 44.2703H45.6938V44.2761Z" fill="#61362E"/>
<path d="M45.6289 44.3253C45.6787 44.2306 45.6887 44.2456 45.6937 44.2705L45.7535 44.0264L45.6289 44.3253Z" fill="#61362E"/>
<path d="M44.0442 43.5527L44.0242 43.6374C43.9196 43.7221 43.9196 43.6673 43.8847 43.7719C44.0442 43.5527 44.0043 43.8217 44.1588 43.6025L44.1438 43.6623C44.1388 43.6573 44.1289 43.6673 44.1289 43.6623C44.089 43.7919 44.2634 43.5178 44.2833 43.5726C44.2883 43.5975 44.2783 43.6374 44.2484 43.6573L44.3182 43.6225C44.3232 43.6324 44.2983 43.6723 44.2883 43.6623L44.3531 43.6773L44.3481 43.6822C44.378 43.6523 44.4278 43.6075 44.4527 43.5876C44.4477 43.6274 44.4328 43.6075 44.4179 43.6374L44.4826 43.5975C44.4577 43.6623 44.3979 43.7072 44.383 43.6872C44.2684 43.9363 44.4428 43.6424 44.4179 43.8168L44.373 43.8267C44.3132 43.9712 44.363 43.9363 44.3481 44.036C44.363 43.9862 44.4079 43.7919 44.4727 43.752C44.4727 43.7769 44.4776 43.7919 44.5225 43.752C44.4727 43.8367 44.5025 43.8267 44.5275 43.8317L44.4627 43.9413C44.5026 43.9214 44.5374 43.8666 44.5773 43.8267C44.5972 43.8516 44.5524 43.9413 44.5175 44.0161C44.5524 44.0559 44.5673 43.8616 44.6271 43.8666C44.6371 43.9264 44.6869 43.8965 44.7666 43.8516C44.7716 43.9015 44.7268 43.9164 44.7168 43.9563L44.7865 43.8766C44.7915 43.8815 44.7766 43.9064 44.7666 43.9214C44.8015 43.8965 44.8264 43.8118 44.8712 43.7919C44.941 43.6723 44.8364 44.0061 44.941 43.8815C44.936 43.9164 44.9011 43.9513 44.8812 43.9961C44.9759 43.9264 44.9559 43.9513 45.0556 43.8417V43.9363C45.0705 43.8367 45.1503 43.752 45.215 43.6822C45.225 43.6374 45.235 43.5975 45.2399 43.5776L45.3097 43.5378C45.3047 43.5577 45.2848 43.5975 45.2549 43.6424L45.2748 43.6175C45.2698 43.6673 45.235 43.7321 45.1901 43.7919C45.1951 43.7669 45.2001 43.737 45.21 43.7121C45.1652 43.7769 45.1204 43.8516 45.0905 43.9164C45.1004 43.9064 45.1104 43.8965 45.1204 43.8915C45.1104 43.9114 45.1004 43.9264 45.0954 43.9363C45.0905 43.9513 45.1104 43.9264 45.1303 43.9015L45.0805 44.036L45.1054 43.9862L45.1303 44.0908C45.235 43.9762 45.3545 43.8018 45.4392 43.7719C45.3844 43.8616 45.3695 43.9264 45.3246 44.041C45.3545 43.9114 45.2499 44.0709 45.225 44.031C45.2399 44.0509 45.21 44.1057 45.2001 44.1207L45.3097 44.036C45.2698 44.1307 45.2947 44.1107 45.2947 44.1556C45.3595 43.9662 45.3944 44.0509 45.4392 44.0061C45.4143 44.0709 45.3844 44.1307 45.3595 44.1008C45.3396 44.2552 45.4891 43.9015 45.4791 44.031C45.4691 44.031 45.4691 44.0161 45.4542 44.0509C45.494 44.0011 45.519 44.0659 45.4891 44.1157H45.4791C45.5189 44.1605 45.6385 44.1755 45.6983 44.0161C45.6883 44.036 45.6236 44.2054 45.6136 44.2403C45.6136 44.2403 45.6834 44.1107 45.7481 43.9812C45.8129 43.8516 45.8777 43.7221 45.8777 43.7221C45.8279 43.8566 45.7581 44.2004 45.6883 44.2652C45.6933 44.2901 45.7033 44.315 45.7481 44.2751C45.7432 44.2502 45.788 44.0659 45.8029 44.0559C45.788 44.2203 45.798 44.1456 45.8029 44.2901C45.798 44.2552 45.8777 44.041 45.8926 44.0559C45.8827 44.0858 45.8328 44.2751 45.8179 44.2951L45.9275 44.0958C45.9026 44.1307 45.8777 44.2801 45.8727 44.3449C45.8777 44.3001 45.9175 44.3598 45.9375 44.3449L45.9275 44.2901C45.9773 44.3399 46.062 44.0011 46.1119 44.026C46.0969 44.0709 46.0321 44.3001 46.0521 44.3349C46.0919 44.2253 46.2314 43.8068 46.2912 43.7271L46.2862 43.7919L46.3361 43.7221C46.2862 43.8865 46.1467 44.2353 46.077 44.3648C46.0869 44.4196 46.067 44.4396 46.1019 44.4396C46.1019 44.4993 46.062 44.5292 46.0521 44.5292L46.1268 44.584C46.1517 44.4495 46.2165 44.4645 46.2314 44.3499L46.1268 44.4794C46.1517 44.3499 46.2514 44.1157 46.2962 44.1456C46.3012 44.2004 46.2464 44.3798 46.2364 44.4246C46.2514 44.3798 46.3062 44.3449 46.3062 44.3798L46.2713 44.4445C46.2962 44.4993 46.351 44.2751 46.3709 44.4097C46.3809 44.4196 46.3859 44.589 46.4008 44.5093C46.4008 44.3549 46.4656 43.8865 46.4905 43.7719C46.4905 43.7819 46.5304 43.9264 46.5354 44.0061C46.5403 44.1307 46.4706 44.2851 46.4756 44.3897C46.4805 44.3549 46.4955 44.31 46.5055 44.2951C46.5154 44.3299 46.4855 44.4047 46.5154 44.3947C46.5353 44.2602 46.5752 44.4146 46.5403 44.2851C46.5702 44.2502 46.5652 44.32 46.6001 44.315C46.6001 44.2253 46.6549 44.0161 46.6848 43.9812C46.6798 44.0161 46.6848 44.0609 46.6848 44.0808C46.7396 44.0958 46.7645 44.1556 46.8193 44.1605C46.8243 44.1954 46.8492 44.2353 46.8343 44.2901C46.8443 44.2652 46.8492 44.2203 46.8692 44.2154C46.8991 44.3349 46.8293 44.2303 46.8542 44.3748C46.8592 44.2951 46.8991 44.2652 46.924 44.2203C46.919 44.0958 46.8692 44.1954 46.8443 44.2452C46.8492 44.0758 46.8891 43.9015 46.9389 43.8267C46.9788 43.7869 46.9588 43.9363 46.9638 43.9114C47.0435 43.9413 47.0186 43.6274 47.0834 43.737C47.1133 43.8417 47.0984 43.9513 47.1033 44.026C47.0734 44.0709 47.0485 43.9662 47.0236 43.9662L47.0535 44.0161C47.0435 44.0509 47.0236 44.0758 47.0087 44.046C47.0336 44.1506 47.1432 44.0559 47.2129 44.1356C47.2229 44.1008 47.2379 44.0609 47.2229 44.0161L47.203 44.031C47.1781 43.9463 47.2279 43.9064 47.198 43.8716C47.2179 43.8068 47.2329 43.7121 47.2727 43.757L47.2927 43.8766C47.2877 43.8417 47.2628 43.8068 47.2578 43.8467C47.2628 43.7919 47.3325 44.0061 47.3275 43.8467L47.2927 43.7669C47.3076 43.7022 47.3176 43.5726 47.3525 43.6075C47.3226 43.4879 47.3475 43.6225 47.3076 43.4829C47.3525 43.6523 47.2379 43.4829 47.2877 43.6623C47.2478 43.5029 47.2428 43.5975 47.203 43.463C47.208 43.5029 47.2229 43.5378 47.198 43.5228C47.198 43.5328 47.198 43.5477 47.198 43.5577V43.5527V43.5577C47.198 43.5627 47.198 43.5627 47.198 43.5577C47.203 43.5726 47.213 43.5975 47.2179 43.6175C47.2179 43.7121 47.1781 43.7121 47.1681 43.762C47.1532 43.747 47.1681 43.7171 47.1581 43.6723L47.1432 43.747C47.1332 43.6573 47.0984 43.6025 47.1233 43.5477H47.0934C47.0734 43.4979 47.0485 43.4829 47.0386 43.5228C47.0236 43.5029 47.0087 43.6225 47.0186 43.5527L46.9738 43.6075V43.5876C46.929 43.5726 46.8791 43.7321 46.8293 43.5676C46.8144 43.5876 46.7944 43.6175 46.7695 43.5926V43.5128C46.7496 43.5378 46.7197 43.4331 46.7048 43.5128C46.7048 43.3086 46.62 43.463 46.5852 43.4182L46.5702 43.5178C46.5453 43.5079 46.5204 43.5328 46.4855 43.5676L46.4756 43.6573C46.4357 43.7271 46.4158 43.5826 46.3759 43.5876C46.3859 43.5527 46.3958 43.5627 46.3958 43.5876C46.3859 43.3833 46.2613 43.7171 46.2464 43.5627C46.2264 43.5926 46.2215 43.5776 46.2215 43.5577C46.2215 43.5577 46.2215 43.5577 46.2264 43.5527H46.2215C46.2215 43.5378 46.2165 43.5178 46.2165 43.5029C46.2165 43.5278 46.2165 43.5427 46.2165 43.5527C46.2065 43.5527 46.1916 43.5577 46.1716 43.5776L46.1916 43.4829H46.1866C46.1816 43.4431 46.1667 43.5228 46.1567 43.5975C46.1467 43.6125 46.1368 43.6274 46.1268 43.6474C46.1567 43.4929 46.082 43.6872 46.1069 43.5228C46.077 43.5975 46.0272 43.5627 45.9723 43.7221C45.9773 43.7022 45.9773 43.6872 45.9823 43.6922C45.9723 43.6673 45.9624 43.6474 45.9375 43.6872L45.9674 43.5676L45.8876 43.7171C45.8876 43.6424 45.8926 43.5975 45.9425 43.5128C45.8528 43.6374 45.8876 43.5527 45.8029 43.6773L45.8279 43.6025C45.8129 43.6025 45.7581 43.6972 45.7681 43.6324C45.788 43.4829 45.6236 43.5527 45.5937 43.3933C45.5189 43.6125 45.5987 43.2837 45.5239 43.4481C45.5389 43.3933 45.5439 43.3634 45.5738 43.3235C45.514 43.3584 45.5488 43.2189 45.4641 43.3484C45.4841 43.2936 45.504 43.2787 45.514 43.2488C45.504 43.2587 45.4841 43.2886 45.494 43.2538C45.504 43.2239 45.5189 43.2139 45.5339 43.194C45.494 43.189 45.4193 43.3385 45.3496 43.4829C45.3595 43.4082 45.3446 43.4082 45.2898 43.4979C45.3047 43.4481 45.3147 43.3933 45.3496 43.3883C45.3396 43.3733 45.2997 43.2787 45.2399 43.3883C45.2499 43.3584 45.225 43.3684 45.215 43.3833C45.1851 43.3584 45.1901 43.3484 45.1552 43.3434V43.3684C45.0705 43.4979 45.1154 43.3833 45.0805 43.3883L45.0905 43.3733C45.0855 43.2438 45.0406 43.4082 45.0456 43.2687L45.0058 43.3434C44.9011 43.5228 45.0157 43.2139 44.946 43.2637L44.931 43.3185C44.8762 43.3684 45.0207 43.0445 45.0207 43.0146C45.0257 42.9947 45.0406 42.9947 45.0506 42.9847C45.0705 42.8552 44.9809 43.0893 44.936 43.0943C44.9659 43.0345 45.0307 42.9498 45.0157 42.9249C45.0357 42.8701 44.8414 43.0744 44.8762 42.9449C44.8563 42.9947 44.8364 43.0395 44.7965 43.0644C44.7616 43.0644 44.8364 42.8602 44.7317 42.9847C44.7367 42.9698 44.7417 42.9598 44.7517 42.9498C44.7118 42.9747 44.657 42.9747 44.5972 43.0395C44.7616 42.7555 44.3979 43.0943 44.5723 42.8452L44.5125 42.8203L44.5324 42.7954C44.5125 42.7555 44.4577 42.8053 44.4029 42.8552C44.4079 42.8303 44.4278 42.8153 44.4378 42.8004C44.4228 42.7157 44.4129 42.7206 44.2783 42.8153L44.3331 42.7356C44.2883 42.7705 44.3531 42.5612 44.2385 42.616C44.2435 42.6061 44.2584 42.5911 44.2684 42.5861C44.1438 42.631 44.3232 42.2722 44.0741 42.5313L43.9844 42.5712C44.0093 42.631 43.8748 42.6858 43.8548 42.7456C43.825 42.7456 43.8798 42.626 43.9146 42.631L43.9047 42.6459C44.0342 42.5114 43.8897 42.5463 43.9794 42.4516C43.8847 42.3868 43.8798 42.2274 43.81 42.1527L43.7153 42.2673L43.6954 42.2374C43.7104 42.2075 43.7652 42.1477 43.7801 42.1676C43.8299 42.0979 43.7004 42.1875 43.6755 42.2075C43.6805 42.1277 43.81 42.0979 43.8 42.0879L43.7751 42.0829L43.7652 42.0979C43.7104 42.1277 43.6655 42.1726 43.6456 42.1427C43.6506 42.1078 43.7004 42.0729 43.7004 42.063C43.7104 42.058 43.7104 42.053 43.6954 42.053L43.6755 42.0132L43.6057 42.1078C43.5509 42.1327 43.5808 42.0729 43.5011 42.1776C43.6257 42.0132 43.4363 41.9982 43.4662 41.9434C43.3865 41.9783 43.3666 41.9583 43.3466 41.9235C43.3367 41.9434 43.242 42.0381 43.2321 42.0032C43.4413 41.8338 43.2769 41.8836 43.4114 41.7391C43.3267 41.8388 43.3317 41.6943 43.2171 41.8338C43.2171 41.7989 43.2918 41.769 43.3267 41.7142C43.2071 41.7341 43.2968 41.5697 43.2221 41.5348C43.1922 41.5548 43.1573 41.5996 43.1075 41.6146L43.2221 41.48C43.1972 41.48 43.0527 41.5897 43.1324 41.495C43.1125 41.5149 43.0776 41.5448 43.0627 41.5448C43.1274 41.3306 42.7687 41.3754 42.9829 41.0864C42.9331 41.1363 42.9231 41.1313 42.9132 41.1163C42.9032 41.1313 42.8384 41.1612 42.7986 41.1861L42.8833 41.0715C42.7637 41.1263 42.8434 41.0217 42.7288 41.0715L42.7587 41.0765C42.6142 41.1213 42.4847 41.2608 42.3153 41.3455C42.4797 41.2907 42.1409 41.5448 42.3801 41.4751C42.3552 41.505 42.3203 41.495 42.2854 41.5249C42.3651 41.495 42.3851 41.5 42.3701 41.5498L42.3502 41.5598C42.41 41.6295 42.3651 41.6943 42.3751 41.8089L42.4498 41.7491C42.4498 41.774 42.4299 41.7939 42.4149 41.8139C42.5445 41.7541 42.39 41.7591 42.5295 41.6893C42.3851 41.8188 42.6093 41.8089 42.4448 41.9534C42.4648 41.9833 42.5295 41.8836 42.5445 41.9085L42.5046 41.9484L42.5694 41.9085C42.5694 41.9334 42.5196 41.9833 42.4797 42.0181C42.4797 42.0082 42.4598 42.0132 42.4548 42.0132C42.4149 42.0779 42.5246 42.058 42.5096 42.0829L42.5196 42.0381C42.6192 42.0729 42.6242 42.2075 42.7737 42.1975L42.8036 42.1626C42.9082 42.1576 42.7986 42.2374 42.8733 42.2623L42.8634 42.2673C42.9082 42.2473 42.9331 42.2473 42.9431 42.2623C42.8933 42.2822 42.8883 42.352 42.8285 42.3769C42.9431 42.3669 42.9032 42.3569 43.0577 42.2772L43.0078 42.332C43.0676 42.2971 43.0925 42.2772 43.1324 42.2872C43.0676 42.3071 43.0627 42.3818 42.9829 42.4117C42.9132 42.5762 43.1772 42.3818 43.0278 42.5662C43.1972 42.4466 43.0676 42.4416 43.1125 42.4267C43.1523 42.3719 43.242 42.342 43.242 42.3719C43.252 42.3918 43.0776 42.5811 43.1224 42.621C43.1175 42.616 43.1075 42.626 43.1025 42.621C43.0826 42.6708 43.1822 42.6011 43.1424 42.6808C43.242 42.6011 43.1623 42.7107 43.2769 42.6011L43.2121 42.5911C43.2619 42.5811 43.4114 42.4715 43.3865 42.5662C43.3616 42.5861 43.3217 42.6061 43.2968 42.616C43.2769 42.6609 43.3367 42.611 43.3168 42.6559C43.2022 42.7655 43.247 42.6359 43.1374 42.7007C43.1025 42.7605 43.2619 42.6609 43.1324 42.7705C43.3018 42.631 43.1573 42.8303 43.3018 42.7406L43.237 42.8053C43.252 42.8004 43.2918 42.7755 43.2968 42.7854L43.1972 42.8602C43.2918 42.8053 43.1822 42.9698 43.242 42.9498C43.1922 42.905 43.3068 42.8552 43.3367 42.7854C43.4812 42.7456 43.2022 42.9997 43.3018 43.0296C43.2819 43.0296 43.3068 42.9548 43.3516 42.9349C43.3516 42.9598 43.3417 43.0046 43.3168 43.0495C43.3765 43.0744 43.3765 42.9698 43.4313 42.9449C43.3716 43.0445 43.4861 42.9299 43.531 42.9199L43.4662 42.9947C43.4762 43.0844 43.6107 42.8552 43.6107 42.9498L43.5061 43.0345L43.5509 43.0296L43.4762 43.1093C43.5559 43.0694 43.5509 43.0943 43.5559 43.1392C43.5958 43.0844 43.6705 43.0096 43.6954 43.0246C43.6755 43.0794 43.6257 43.0893 43.6705 43.1043C43.6257 43.1441 43.5659 43.194 43.6107 43.1143L43.541 43.179C43.516 43.2438 43.5758 43.2288 43.5858 43.2338C43.5858 43.2288 43.5808 43.2189 43.5858 43.2039L43.7153 43.1392C43.7004 43.174 43.6755 43.189 43.6506 43.2089C43.6655 43.2089 43.7004 43.179 43.7203 43.184C43.6655 43.2438 43.6157 43.3036 43.5758 43.3185L43.6755 43.2886C43.6556 43.3185 43.6406 43.3833 43.6157 43.3982C43.6107 43.458 43.7751 43.3285 43.7701 43.4032C43.7801 43.3933 43.7951 43.3833 43.81 43.3783C43.8299 43.4182 43.805 43.5178 43.9097 43.458L43.8499 43.5876C43.8997 43.5826 43.9246 43.4232 44.0043 43.4182C44.0641 43.4082 43.9495 43.5228 43.9395 43.5676C43.9993 43.5228 44.1139 43.4281 44.079 43.5477C44.0591 43.5776 44.0641 43.5527 44.0442 43.5527ZM44.4776 43.757C44.4577 43.7719 44.4129 43.8118 44.4378 43.762C44.5026 43.6723 44.4776 43.7221 44.4776 43.757ZM45.21 43.8815C45.1901 43.9064 45.1901 43.8915 45.1901 43.8516C45.2001 43.8516 45.21 43.8566 45.21 43.8815ZM47.0734 43.6075C47.0585 43.5776 47.0635 43.5926 47.0734 43.6075V43.6075ZM47.1133 43.6474C47.1133 43.6324 47.1133 43.6225 47.1133 43.6075C47.1133 43.6324 47.1033 43.6324 47.0934 43.6274C47.0984 43.6523 47.1033 43.6673 47.1133 43.6474ZM43.6655 42.0829L43.6555 42.1078C43.6207 42.1128 43.6456 42.0979 43.6655 42.0829Z" fill="#61362E"/>
<path d="M45.0808 43.9715C45.0858 43.9565 45.0908 43.9416 45.1007 43.9216C45.0908 43.9366 45.0808 43.9515 45.0808 43.9715Z" fill="#61362E"/>
<path d="M43.7816 43.4182H43.7763L43.7656 43.4342L43.7816 43.4182Z" fill="#61362E"/>
<path d="M46.4858 44.4397C46.4809 44.4248 46.4759 44.4048 46.4759 44.3899C46.4709 44.4098 46.4709 44.4347 46.4858 44.4397Z" fill="#61362E"/>
<path d="M47.2681 43.4631L47.2532 43.488C47.2631 43.4831 47.2681 43.503 47.2731 43.5179C47.2731 43.498 47.2631 43.4631 47.2681 43.4631Z" fill="#61362E"/>
<path d="M47.5671 44.0212C47.5671 44.0063 47.5721 44.0162 47.5771 44.0063L47.5671 43.9614C47.5522 43.9664 47.5472 44.0063 47.5671 44.0212Z" fill="#61362E"/>
<path d="M47.3325 43.7771C47.3475 43.8568 47.3574 43.8269 47.3724 43.8119C47.3724 43.8119 47.3724 43.8119 47.3674 43.8119C47.3574 43.6974 47.3425 43.7372 47.3325 43.7771Z" fill="#61362E"/>
<path d="M47.3723 43.8075C47.3774 43.8024 47.3824 43.8024 47.3875 43.8024C47.3824 43.757 47.3824 43.7974 47.3723 43.8075Z" fill="#61362E"/>
<path d="M47.1485 43.5878C47.1584 43.6077 47.1435 43.4831 47.1485 43.518C47.1535 43.4134 47.1186 43.6476 47.1485 43.5878Z" fill="#61362E"/>
<path d="M47.3877 44.0361L47.3628 43.9414L47.3678 44.0211L47.3877 44.0361Z" fill="#61362E"/>
<path d="M47.238 43.9815L47.2678 44.0063C47.2678 43.9914 47.2678 43.9815 47.2727 43.9716C47.2579 43.9716 47.238 43.9517 47.238 43.9815Z" fill="#61362E"/>
<path d="M47.2732 43.972C47.2835 43.972 47.2938 43.972 47.2938 43.9514C47.2886 43.9514 47.2783 43.9566 47.2732 43.972Z" fill="#61362E"/>
<path d="M47.3526 44.0709L47.3377 44.0511L47.3179 44.0461L47.3526 44.0709Z" fill="#61362E"/>
<path d="M46.9443 43.9812L46.9144 44.0111C46.9094 44.046 46.9194 44.0659 46.9294 44.051C46.9393 44.026 46.9493 44.0111 46.9443 43.9812Z" fill="#61362E"/>
<path d="M47.0438 44.2554C47.0338 44.2355 47.0338 44.2106 47.0288 44.1807L47.0338 44.3052L47.0438 44.2554Z" fill="#61362E"/>
<path d="M46.9487 44.2803C46.9487 44.3151 46.8989 44.3799 46.9438 44.37C46.9438 44.3401 46.9786 44.3102 46.9487 44.2803Z" fill="#61362E"/>
<path d="M46.4756 44.0958H46.4856L46.5105 43.8965L46.4756 44.0958Z" fill="#61362E"/>
<path d="M45.9524 44.4943C45.9823 44.5541 45.9923 44.3748 46.0122 44.4445C46.0321 44.3997 45.9923 44.3897 46.0122 44.3499C45.9773 44.3897 45.9723 44.3598 45.9524 44.4943Z" fill="#61362E"/>
<path d="M46.0122 44.3502C46.0173 44.3451 46.0223 44.335 46.0324 44.325C46.0223 44.33 46.0173 44.3401 46.0122 44.3502Z" fill="#61362E"/>
<path d="M42.9581 40.987L42.983 40.9521L42.9282 40.997L42.9581 40.987Z" fill="#61362E"/>
<path d="M42.8037 41.0219L42.9183 40.9622L42.8087 41.002C42.8137 41.002 42.8286 41.007 42.8037 41.0219Z" fill="#61362E"/>
<path d="M44.4031 44.021L44.423 43.9961C44.438 43.9662 44.433 43.9612 44.423 43.9463L44.4031 44.021Z" fill="#61362E"/>
<path d="M44.1538 43.7522L44.1588 43.7572L44.2136 43.6526L44.1538 43.7522Z" fill="#61362E"/>
<path d="M43.8301 43.7074C43.8351 43.7174 43.865 43.7074 43.8699 43.7174C43.8351 43.7174 43.9098 43.5829 43.8301 43.7074Z" fill="#61362E"/>
<path d="M4.65887 27.4099C13.378 17.9982 47.0985 11.1326 47.0288 4.62064C46.9491 -3.24151 33.8505 1.13299 29.2219 1.94013C22.117 3.18074 16.7361 3.00635 10.2142 6.12531C8.25613 7.06199 3.2389 13.6038 1.46021 14.8594" fill="#FFDBE5"/>
<path d="M-14.5231 47.9819C-13.3074 49.1278 -12.1515 50.209 -11.0653 51.1855C-0.427982 60.7815 10.0748 70.7662 21.036 79.9138C21.036 79.9138 33.3673 90.1973 26.3771 101.104C19.3918 112.015 9.04346 128.138 -19.0919 99.32C-47.0777 70.6516 -53.4253 61.4392 -53.49 61.3445C-56.6488 56.7458 -59.8575 49.7855 -58.7912 43.8017C-53.6345 14.9489 -25.8181 37.3346 -14.5231 47.9819Z" fill="#82E155"/>
<path d="M19.7155 17.2059C5.79486 27.8134 -7.99131 39.3724 -22.0963 49.0631C-27.7065 52.9144 -36.4953 55.6597 -42.9325 51.5194C-53.8937 44.4644 -54.7457 32.3722 -45.2045 27.4995C-29.814 19.6323 -10.3729 14.8294 8.63479 7.70459L19.7155 17.2059Z" fill="#FFDBE5"/>
<path d="M103.479 107.541C103.469 107.531 77.0176 74.1992 77.0176 74.1992C77.0176 74.1992 68.5277 62.6502 58.4683 69.3863C48.399 76.1274 33.5217 86.1021 57.6512 112.399C81.4918 138.382 100.27 152.088 100.729 152.422C111.949 160.583 124.425 145.168 122.397 134.615C120.573 125.139 109.139 114.671 103.479 107.541Z" fill="#82E155"/>
<path d="M93.574 123.171C103.419 99.8036 115.95 71.155 118.899 64.2047C119.069 64.2844 119.233 64.3392 119.403 64.4139C121.62 57.4287 124.041 49.0434 130.737 47.3743C148.574 42.92 147.378 58.0664 143.881 66.7706C143.403 67.9564 142.899 69.0824 142.371 70.1835C139.048 83.7654 134.389 97.138 129.651 110.257C125.695 121.198 121.814 146.239 108.123 147.933C92.6772 149.836 88.6066 134.949 93.574 123.171Z" fill="#FFDBE5"/>
<path d="M118.71 37.1753C118.864 37.0159 119.034 36.8664 119.218 36.7319C122.591 34.2606 124.764 37.0657 123.169 40.6629C123.279 40.4088 127.873 30.1502 132.053 31.7196C136.288 33.314 135.401 34.5695 135.401 34.5695C135.401 34.5695 141.713 33.1545 142.286 36.8614C142.286 36.8614 146.736 36.8465 147.822 40.5882C149.137 41.5648 153.836 39.1782 153.571 46.3229C153.297 53.4726 141.918 68.0659 141.918 68.0659L121.754 63.8458C124.699 66.9548 120.763 54.5737 120.279 53.4776C118.835 50.1593 115.143 40.7875 118.71 37.1753Z" fill="#FFDBE5"/>
<path d="M123.334 42.3517C123.927 43.0841 123.663 40.9666 123.219 40.4634" stroke="#804D4D" stroke-width="1.5" stroke-miterlimit="10"/>
<path d="M135.7 33.9673C135.7 33.9673 135.281 36.1147 134.499 37.3503" stroke="#804D4D" stroke-width="1.5" stroke-miterlimit="10"/>
<path d="M142.277 37.031C142.277 37.031 141.853 39.1734 141.081 40.414" stroke="#804D4D" stroke-width="1.5" stroke-miterlimit="10"/>
<path d="M148.216 40.5935C148.216 40.5935 147.792 42.7359 147.02 43.9715" stroke="#804D4D" stroke-width="1.5" stroke-miterlimit="10"/>
<path d="M140.971 52.5661C140.971 59.6361 136.353 65.3708 130.643 65.3708C124.948 65.3708 120.319 59.6361 120.319 52.5661C120.319 45.4962 124.948 39.7615 130.643 39.7615C136.353 39.7615 140.971 45.4962 140.971 52.5661Z" fill="#808080"/>
<path d="M169.884 39.7615H131.056V65.3708H169.884V39.7615Z" fill="#808080"/>
<path d="M179.52 52.5661C179.52 59.6361 174.896 65.3708 169.196 65.3708C163.492 65.3708 158.868 59.6361 158.868 52.5661C158.868 45.4962 163.492 39.7615 169.196 39.7615C174.896 39.7615 179.52 45.4962 179.52 52.5661Z" fill="#707070"/>
<path d="M176.635 52.5659C176.635 57.6629 173.302 61.7933 169.196 61.7933C165.081 61.7933 161.752 57.6629 161.752 52.5659C161.752 47.474 165.086 43.3386 169.196 43.3386C173.302 43.3436 176.635 47.474 176.635 52.5659Z" fill="#A2CFCE"/>
<path d="M117.629 52.5661C117.629 59.636 113.005 63.1486 107.3 63.1486C101.6 63.1486 96.9768 59.636 96.9768 52.5661C96.9768 45.4961 101.6 41.9885 107.3 41.9885C113.005 41.9885 117.629 45.4961 117.629 52.5661Z" fill="#808080"/>
<path d="M146.536 65.3708L107.709 63.1486V41.9886L146.536 39.7615V65.3708Z" fill="#808080"/>
<path d="M156.172 52.5661C156.172 59.6361 151.549 65.3708 145.849 65.3708C140.144 65.3708 135.521 59.6361 135.521 52.5661C135.521 45.4962 140.144 39.7615 145.849 39.7615C151.554 39.7615 156.172 45.4962 156.172 52.5661Z" fill="#707070"/>
<path d="M153.282 52.5659C153.282 57.6629 149.954 61.7933 145.849 61.7933C141.738 61.7933 138.41 57.6629 138.41 52.5659C138.41 47.474 141.738 43.3386 145.849 43.3386C149.954 43.3436 153.282 47.474 153.282 52.5659Z" fill="#A2CFCE"/>
<path d="M144.758 39.6565C144.758 39.6565 140.109 45.0026 133.572 44.3997C127.036 43.7819 125.635 38.9191 126.463 37.6636" fill="#FFDBE5"/>
<path d="M70.5454 116.688L79.4489 134.5" stroke="#46130A" stroke-width="2" stroke-miterlimit="10"/>
<path d="M41.9467 37.0606C39.3061 36.4876 37.632 33.8818 38.2 31.2412C38.778 28.6005 41.3788 26.9265 44.0194 27.4945C46.6601 28.0674 48.3341 30.6732 47.7661 33.3188C47.1981 35.9595 44.5874 37.6335 41.9467 37.0606Z" stroke="white" stroke-width="1.5" stroke-miterlimit="10"/>
<path d="M55.987 35.9094C53.6004 36.0738 51.5328 34.2751 51.3683 31.8886C51.2039 29.507 53.0026 27.4394 55.3841 27.27C57.7657 27.1055 59.8334 28.9042 60.0028 31.2907C60.1672 33.6773 58.3735 35.7449 55.987 35.9094Z" stroke="white" stroke-width="1.5" stroke-miterlimit="10"/>
<path d="M47.9954 32.3119C47.9954 32.3119 50.2275 31.2955 51.2488 32.1076" stroke="white" stroke-width="1.5" stroke-miterlimit="10"/>
</svg>
