<svg width="170" height="420" viewBox="0 0 170 420" fill="none" xmlns="http://www.w3.org/2000/svg">
<path d="M157.1 89.0981L147.821 98.3764" stroke="#999999" stroke-width="0.2985" stroke-miterlimit="10"/>
<path d="M147.822 98.5571C147.822 98.5571 147.732 98.5571 147.732 98.467C147.642 98.3769 147.642 98.2869 147.732 98.2869L147.822 98.1968C147.822 98.1968 147.912 98.1968 147.912 98.2869C148.002 98.3769 148.002 98.467 147.912 98.467C147.912 98.5571 147.822 98.5571 147.822 98.5571Z" fill="#989898"/>
<path d="M147.821 97.9263C147.731 97.9263 147.641 97.9263 147.551 98.0163C147.371 98.1965 147.371 98.4668 147.551 98.6469C147.641 98.737 147.731 98.737 147.821 98.737C147.911 98.737 148.002 98.737 148.092 98.6469C148.272 98.4668 148.272 98.1965 148.092 98.0163C148.002 98.0163 147.911 97.9263 147.821 97.9263Z" fill="#999999"/>
<path d="M157.1 89.2788C157.1 89.2788 157.01 89.2788 157.01 89.1887L156.92 89.0986C156.92 89.0986 156.92 89.0085 157.01 89.0085L157.1 88.9185C157.1 88.9185 157.19 88.9185 157.19 89.0085C157.28 89.0986 157.28 89.1887 157.19 89.1887C157.19 89.2788 157.19 89.2788 157.1 89.2788Z" fill="#989898"/>
<path d="M157.1 88.6479C157.01 88.6479 156.92 88.6479 156.829 88.738C156.649 88.9182 156.649 89.1884 156.829 89.3686C156.92 89.4587 157.01 89.4587 157.1 89.4587C157.19 89.4587 157.28 89.4587 157.37 89.3686C157.55 89.1884 157.55 88.9182 157.37 88.738C157.37 88.738 157.28 88.6479 157.1 88.6479Z" fill="#999999"/>
<path d="M165.657 94.2328C161.874 90.4495 156.019 90.2693 152.595 93.6923C149.082 97.2055 149.353 103.061 153.136 106.754" stroke="#999999" stroke-width="0.5969" stroke-miterlimit="10"/>
<path d="M165.477 110.898L169.62 106.754C170.251 106.123 170.071 105.042 169.26 104.682L167.459 103.781L162.414 108.826L163.315 110.627C163.765 111.348 164.846 111.528 165.477 110.898Z" fill="#999999"/>
<path d="M157.28 106.033L153.947 97.6558C153.677 97.6558 153.316 97.5658 153.136 97.2054C152.956 96.9352 152.956 96.4848 153.136 96.2146C153.496 95.6741 154.127 95.6741 154.577 96.0344L160.252 101.709C159.982 102.07 159.982 102.52 160.343 102.79C160.703 103.151 161.153 103.151 161.514 102.79C161.874 102.43 161.874 101.98 161.514 101.619C161.243 101.349 160.793 101.259 160.433 101.529L154.758 95.8542C154.397 95.4939 154.397 94.7733 154.938 94.413C155.208 94.2328 155.658 94.2328 155.929 94.413C156.199 94.5931 156.379 94.8634 156.379 95.2237L164.756 98.5566C165.477 98.8269 165.927 99.3674 166.108 100.088L166.918 103.151L164.847 105.223L164.486 105.583L164.306 105.763L164.036 106.033L161.874 108.195L158.811 107.384C158.181 107.204 157.55 106.664 157.28 106.033Z" fill="#999999"/>
<path d="M165.657 94.5031C165.567 94.5031 165.477 94.5031 165.477 94.413C165.387 94.323 165.387 94.0527 165.477 93.9626C165.567 93.8726 165.657 93.8726 165.657 93.8726C165.747 93.8726 165.837 93.8726 165.837 93.9626C165.927 94.0527 165.927 94.1428 165.927 94.1428C165.927 94.1428 165.927 94.323 165.837 94.323C165.747 94.5031 165.747 94.5031 165.657 94.5031Z" fill="#989898"/>
<path d="M165.657 93.6025C165.477 93.6025 165.387 93.6926 165.207 93.7827C164.936 94.0529 164.936 94.4133 165.207 94.5934C165.297 94.6835 165.477 94.7736 165.657 94.7736C165.837 94.7736 165.927 94.6835 166.107 94.5934C166.378 94.3232 166.378 93.9629 166.107 93.7827C165.927 93.6926 165.747 93.6025 165.657 93.6025Z" fill="#999999"/>
<path d="M153.046 107.114C152.955 107.114 152.865 107.114 152.865 107.024C152.775 106.934 152.775 106.664 152.865 106.573C152.955 106.483 153.046 106.483 153.046 106.483C153.136 106.483 153.226 106.483 153.226 106.573C153.316 106.664 153.316 106.934 153.226 107.024C153.226 107.024 153.136 107.114 153.046 107.114Z" fill="#989898"/>
<path d="M153.046 106.213C152.865 106.213 152.775 106.303 152.595 106.394C152.325 106.664 152.325 107.024 152.595 107.204C152.685 107.294 152.865 107.384 153.046 107.384C153.226 107.384 153.316 107.294 153.496 107.204C153.766 106.934 153.766 106.574 153.496 106.394C153.316 106.303 153.226 106.213 153.046 106.213Z" fill="#999999"/>
<path d="M152.451 92.8098L151.495 93.7651L152.45 94.7207L153.406 93.7654L152.451 92.8098Z" fill="white"/>
<path d="M152.505 93.1523L153.046 93.6928L152.505 94.2332L151.965 93.6928L152.505 93.1523ZM152.505 92.4316L151.154 93.7828L152.505 95.134L153.857 93.7828L152.505 92.4316Z" fill="#999999"/>
<path d="M148.903 72.9739L150.074 74.1449C150.524 74.5953 151.155 74.5953 151.515 74.1449L161.244 64.4163L158.541 61.7139L148.813 71.4425C148.452 71.8929 148.452 72.5235 148.903 72.9739Z" fill="#999999"/>
<path d="M159.262 61.1734L161.964 63.8758L164.036 61.804C164.396 61.4436 164.396 60.9031 164.036 60.5428L162.685 59.1916C162.324 58.8313 161.784 58.8313 161.424 59.1916L159.262 61.1734Z" fill="#999999"/>
<path d="M165.298 69.3711C166.691 69.3711 167.82 68.2419 167.82 66.8489C167.82 65.4559 166.691 64.3267 165.298 64.3267C163.905 64.3267 162.775 65.4559 162.775 66.8489C162.775 68.2419 163.905 69.3711 165.298 69.3711Z" fill="#999999"/>
<path d="M167.008 60.2727C167.954 60.2727 168.72 59.5064 168.72 58.5611C168.72 57.6159 167.954 56.8496 167.008 56.8496C166.063 56.8496 165.297 57.6159 165.297 58.5611C165.297 59.5064 166.063 60.2727 167.008 60.2727Z" fill="#999999"/>
<path d="M158.992 58.2009C159.937 58.2009 160.703 57.4346 160.703 56.4894C160.703 55.5441 159.937 54.7778 158.992 54.7778C158.047 54.7778 157.28 55.5441 157.28 56.4894C157.28 57.4346 158.047 58.2009 158.992 58.2009Z" fill="#999999"/>
<path d="M141.156 134.499L136.742 138.913C136.652 139.003 136.562 139.093 136.562 139.183L135.03 142.516L138.363 140.985C138.453 140.895 138.543 140.895 138.633 140.805L143.047 136.391L141.156 134.499Z" fill="#999999"/>
<path d="M146.11 128.464L149.082 131.436C149.263 131.616 149.533 131.616 149.713 131.616L151.695 130.896C152.055 130.716 152.235 130.265 151.875 129.995L147.641 125.761C147.371 125.491 146.83 125.581 146.74 125.941L146.02 127.923C145.93 128.103 146.02 128.373 146.11 128.464Z" fill="#999999"/>
<path d="M147.371 138.372L148.722 132.607C148.812 132.427 148.722 132.157 148.542 132.067L145.479 129.004C145.299 128.824 145.119 128.824 144.939 128.824L139.174 130.175C138.723 130.265 138.543 130.805 138.904 131.166L146.38 138.642C146.741 139.003 147.281 138.823 147.371 138.372Z" fill="#999999"/>
<path d="M45.0402 60.2729L65.128 60.7233L66.2991 86.1259C66.9296 93.2423 61.3447 94.1431 54.2283 93.9629C47.112 93.7828 41.6171 92.6117 42.608 85.4954L45.0402 60.2729Z" fill="#FFDAE4"/>
<path d="M49.3643 72.3438C53.0575 75.4065 58.012 86.3963 58.9128 93.8729C63.0564 93.4225 66.0291 91.9812 66.3894 88.0177C66.3894 87.2971 66.3894 86.6665 66.3894 86.3062C66.3894 86.2161 66.3894 86.2161 66.3894 86.126L65.7588 73.3346L49.3643 72.3438Z" fill="#FFCDDC"/>
<path d="M83.414 47.1213C83.7744 33.9696 73.0548 23.16 59.813 23.4303C48.0125 23.7005 38.1938 33.1589 37.3831 44.9594C37.0228 50.3642 38.5541 55.4087 41.3466 59.5524C43.8689 63.1556 46.0308 67.029 48.2828 70.8124C51.886 76.8478 58.8222 80.7212 66.6591 79.8204C74.2259 78.9196 80.5315 73.3346 82.5132 66.0382C83.0537 63.8762 83.2339 61.8044 83.0537 59.8226C82.7835 56.0393 83.0537 52.346 83.414 48.5626C83.414 48.0221 83.414 47.5717 83.414 47.1213Z" fill="#FFE4EE"/>
<path d="M46.4813 45.5L35.7617 46.671C36.8427 56.1295 44.6797 64.6871 44.6797 64.6871L46.211 60.5434C48.1027 55.1386 46.3912 50.6346 46.4813 45.5Z" fill="#5A5A5A"/>
<path d="M68.731 36.7624C68.731 36.7624 63.8667 35.1409 60.7139 37.3929C58.4619 39.1044 64.8575 32.7988 64.8575 32.7988L76.3878 33.0691L76.9283 37.0326C76.8382 37.0326 72.154 33.9699 68.731 36.7624Z" fill="#5A5A5A"/>
<path d="M48.5532 49.1031C57.1108 48.8329 59.1827 40.8157 60.8041 37.3927C62.1553 34.4201 66.8395 33.9697 68.7312 36.6721L68.8212 36.7621C68.8212 36.7621 68.8212 36.7621 68.8212 36.6721C70.5328 34.0597 74.4062 33.9697 76.1177 36.582C77.2888 38.3836 78.3697 40.6356 79.2705 42.9777C80.1713 45.3198 80.892 46.761 82.8737 47.0313C83.2341 47.1214 83.4142 47.3916 83.4142 47.6618C83.3241 48.7428 83.144 50.5444 83.2341 50.5444C90.2603 49.8238 87.8282 19.5568 71.0732 17.7552C64.7676 17.0346 62.876 18.4759 62.2454 19.3767C62.0652 19.6469 61.7049 19.6469 61.5248 19.4668C60.8942 18.9263 59.543 18.1155 57.291 18.0255C52.2465 17.9354 44.5897 21.8989 41.0766 25.1418C35.0412 30.9069 33.5098 43.9685 35.2214 46.4908C37.2031 49.2833 40.6262 49.3734 48.5532 49.1031Z" fill="#333333"/>
<path d="M47.6524 54.5983C47.7424 52.1661 45.9408 50.1844 43.7789 50.2744C41.7971 50.3645 40.1757 52.076 40.0856 54.238C39.9955 55.2288 40.2658 56.1296 40.7162 56.9404C41.1666 57.5709 41.5269 58.2916 41.8872 59.0122C42.5178 60.0932 43.5987 60.8138 44.9499 60.6337C46.2111 60.4535 47.292 59.4626 47.5623 58.1114C47.6523 57.7511 47.6524 57.3007 47.6524 56.9404C47.5623 56.2197 47.6524 55.5892 47.7424 54.8685C47.6524 54.7784 47.6524 54.6884 47.6524 54.5983Z" fill="#FFE4EE"/>
<path d="M74.4959 55.8593C75.8889 55.8593 77.0181 54.2864 77.0181 52.3461C77.0181 50.4059 75.8889 48.833 74.4959 48.833C73.1029 48.833 71.9736 50.4059 71.9736 52.3461C71.9736 54.2864 73.1029 55.8593 74.4959 55.8593Z" fill="white"/>
<path d="M61.9754 55.8593C63.3684 55.8593 64.4976 54.2864 64.4976 52.3461C64.4976 50.4059 63.3684 48.833 61.9754 48.833C60.5824 48.833 59.4531 50.4059 59.4531 52.3461C59.4531 54.2864 60.5824 55.8593 61.9754 55.8593Z" fill="white"/>
<path d="M75.4874 54.5079C76.3332 54.5079 77.0188 53.54 77.0188 52.346C77.0188 51.152 76.3332 50.1841 75.4874 50.1841C74.6417 50.1841 73.9561 51.152 73.9561 52.346C73.9561 53.54 74.6417 54.5079 75.4874 54.5079Z" fill="#333333"/>
<path d="M63.0558 54.4176C63.9015 54.4176 64.5871 53.49 64.5871 52.3458C64.5871 51.2015 63.9015 50.2739 63.0558 50.2739C62.21 50.2739 61.5244 51.2015 61.5244 52.3458C61.5244 53.49 62.21 54.4176 63.0558 54.4176Z" fill="#333333"/>
<path d="M72.2443 60.8137C71.974 64.3268 70.1724 67.1193 68.2808 66.9391C66.3891 66.759 65.0379 63.7863 65.3982 60.1831L72.2443 60.8137Z" fill="#FF7BA4"/>
<path d="M68.5508 51.5356C68.5508 51.5356 68.0103 51.2654 68.5508 51.5356C69.0912 51.896 71.1631 52.7968 71.1631 54.238C71.1631 55.6793 69.902 56.8504 68.4607 56.8504" stroke="#FFBED2" stroke-width="1.2493" stroke-miterlimit="10" stroke-linecap="round" stroke-linejoin="round"/>
<path d="M43.9597 57.1204C44.5001 56.5799 44.5001 55.589 43.9597 55.0485L43.3291 54.418" stroke="#FFBED2" stroke-width="1.2493" stroke-miterlimit="10" stroke-linecap="round" stroke-linejoin="round"/>
<path d="M36.4824 333.666L25.7629 384.382C25.7629 386.814 26.6637 389.156 28.195 390.777C32.9693 395.822 33.4197 398.524 39.8154 398.614H46.8416C50.8952 398.614 54.2282 402.488 54.2282 407.262C54.2282 412.036 50.8952 415.82 46.8416 415.82L25.6728 415.729L8.01708 415.639C7.83692 415.639 1.35115 410.054 2.79243 404.56L2.25195 399.605C2.43211 398.794 2.61227 391.588 2.61227 390.687L13.4219 333.486L36.4824 333.666Z" fill="#FFE4EE"/>
<path d="M8.28722 359.879H30.8973L29.0957 368.347H6.75586L8.28722 359.879Z" fill="#FFCDDC"/>
<path d="M0.810644 409.874L1.71145 384.111C1.80153 383.481 2.25193 383.03 2.88249 383.03H25.7628C26.2132 383.03 26.5736 383.3 26.8438 383.661C28.2851 386.633 31.7081 398.254 44.9499 398.254C60.0834 398.254 57.1107 416.72 51.6158 416.72H6.57577C3.24281 416.63 0.540403 413.477 0.810644 409.874Z" fill="#FF820F"/>
<path d="M51.8862 416.18H36.8428V414.378C36.8428 398.434 44.95 398.074 44.95 398.074C60.6239 398.164 57.5612 416.18 51.8862 416.18Z" fill="#F2F2F2"/>
<path d="M54.1382 419.423H2.252C0.990882 419.423 0 418.432 0 417.171V417.081C0 415.819 0.990882 414.829 2.252 414.829H54.1382C55.3993 414.829 56.3902 415.819 56.3902 417.081V417.171C56.3902 418.432 55.3993 419.423 54.1382 419.423Z" fill="#E5E5E5"/>
<path d="M23.3302 393.389C24.1759 393.389 24.8616 392.663 24.8616 391.768C24.8616 390.872 24.1759 390.146 23.3302 390.146C22.4844 390.146 21.7988 390.872 21.7988 391.768C21.7988 392.663 22.4844 393.389 23.3302 393.389Z" fill="#E5E5E5"/>
<path d="M26.6632 398.164C27.5089 398.164 28.1946 397.438 28.1946 396.542C28.1946 395.647 27.5089 394.921 26.6632 394.921C25.8175 394.921 25.1318 395.647 25.1318 396.542C25.1318 397.438 25.8175 398.164 26.6632 398.164Z" fill="#E5E5E5"/>
<path d="M30.8077 402.037C31.6535 402.037 32.3391 401.311 32.3391 400.416C32.3391 399.52 31.6535 398.794 30.8077 398.794C29.962 398.794 29.2764 399.52 29.2764 400.416C29.2764 401.311 29.962 402.037 30.8077 402.037Z" fill="#E5E5E5"/>
<path d="M29.2758 395.281L32.2484 392.759C31.8881 392.399 31.6179 392.039 31.2576 391.678L28.375 394.11L29.2758 395.281Z" fill="#E5E5E5"/>
<path d="M32.9689 398.614L35.1308 395.461C34.6804 395.191 34.3201 394.921 33.9598 394.561L31.7979 397.713L32.9689 398.614Z" fill="#E5E5E5"/>
<path d="M26.2136 391.138L29.6366 389.426C29.3664 388.976 29.0961 388.525 28.916 388.165L25.583 389.786L26.2136 391.138Z" fill="#E5E5E5"/>
<path d="M86.7472 333.666L86.567 384.381C86.567 386.814 87.4678 389.156 88.9992 390.777C93.7734 395.822 94.2238 398.524 100.619 398.614H107.646C111.699 398.614 115.032 402.487 115.032 407.262C115.032 412.036 111.699 415.819 107.646 415.819L86.4769 415.729L68.8212 415.639C63.8668 415.639 60.3537 410.054 61.795 404.559L63.0561 399.605C63.2362 398.794 63.4164 397.983 63.4164 397.173L63.6866 333.576L86.7472 333.666Z" fill="#FFE4EE"/>
<path d="M63.416 366.546L63.5061 360.42H86.6567V367.807C78.009 367.357 69.9919 367.176 63.416 366.546Z" fill="#FFCDDC"/>
<path d="M59.7229 409.874L62.2451 384.111C62.3352 383.481 62.8757 383.03 63.5062 383.03H86.2064C86.6568 383.03 87.1072 383.3 87.2874 383.661C88.8187 386.633 92.512 398.254 106.474 398.254C122.509 398.254 119.356 416.72 113.591 416.72H65.8483C62.2451 416.63 59.3625 413.477 59.7229 409.874Z" fill="#FF820F"/>
<path d="M114.041 416.18H98.998V414.378C98.998 398.434 107.105 398.074 107.105 398.074C122.779 398.164 119.626 416.18 114.041 416.18Z" fill="#F2F2F2"/>
<path d="M116.293 419.422H61.1643C59.9032 419.422 58.8223 418.341 58.8223 417.08C58.8223 415.819 59.9032 414.738 61.1643 414.738H116.203C117.464 414.738 118.545 415.819 118.545 417.08C118.635 418.432 117.555 419.422 116.293 419.422Z" fill="#E5E5E5"/>
<path d="M83.5043 393.389C84.3997 393.389 85.1257 392.663 85.1257 391.768C85.1257 390.872 84.3997 390.146 83.5043 390.146C82.6088 390.146 81.8828 390.872 81.8828 391.768C81.8828 392.663 82.6088 393.389 83.5043 393.389Z" fill="#E5E5E5"/>
<path d="M87.1078 398.164C88.0033 398.164 88.7292 397.438 88.7292 396.542C88.7292 395.647 88.0033 394.921 87.1078 394.921C86.2123 394.921 85.4863 395.647 85.4863 396.542C85.4863 397.438 86.2123 398.164 87.1078 398.164Z" fill="#E5E5E5"/>
<path d="M91.5218 402.037C92.4173 402.037 93.1433 401.311 93.1433 400.416C93.1433 399.52 92.4173 398.794 91.5218 398.794C90.6263 398.794 89.9004 399.52 89.9004 400.416C89.9004 401.311 90.6263 402.037 91.5218 402.037Z" fill="#E5E5E5"/>
<path d="M89.8102 395.281L92.8729 392.759C92.5126 392.399 92.1523 392.039 91.8821 391.678L88.8193 394.11L89.8102 395.281Z" fill="#E5E5E5"/>
<path d="M93.7738 398.614L96.1159 395.461C95.6655 395.191 95.3052 394.921 94.8548 394.561L92.5127 397.713L93.7738 398.614Z" fill="#E5E5E5"/>
<path d="M86.5671 391.138L90.2604 389.426C89.9901 388.976 89.7199 388.525 89.4497 388.165L85.9365 389.786L86.5671 391.138Z" fill="#E5E5E5"/>
<path d="M45.7608 231.695C43.689 231.605 42.1576 229.714 42.0676 227.732L41.7973 220.706C41.7973 220.345 41.437 220.075 41.0767 220.075C40.7164 220.075 40.356 220.435 40.4461 220.796L40.8064 231.515L41.3469 245.658C41.437 247.82 39.7255 249.621 37.5636 249.711C35.4016 249.802 33.6 248.09 33.5099 245.928L32.9695 231.876C32.9695 231.515 32.6091 231.245 32.2488 231.245C31.8885 231.245 31.6183 231.605 31.6183 231.966L32.1587 248.18C32.2488 250.342 30.5373 252.144 28.3754 252.234C26.2135 252.324 24.4119 250.612 24.3218 248.45L23.6912 231.065C23.6912 230.705 23.3309 230.434 22.9706 230.434C22.6102 230.434 22.34 230.795 22.34 231.155L22.7904 243.406C22.8805 245.568 21.169 247.369 19.007 247.459C16.8451 247.55 15.0435 245.838 14.9534 243.676L14.503 231.966L14.2328 225.57L12.7915 186.385C12.7915 186.295 12.7915 186.295 12.7915 186.205C12.5213 178.008 14.413 154.497 16.3046 146.48L27.1143 107.385C28.7357 101.44 35.0413 98.0165 40.8965 99.9082L55.6697 104.592L43.5989 148.101C40.7164 158.46 38.6445 175.756 39.0949 186.565L39.2751 191.52C39.4552 196.924 41.2568 202.149 44.4096 206.563C47.5624 210.977 49.364 216.202 49.5442 221.606L49.7244 227.732C49.9946 229.984 48.1029 231.876 45.7608 231.695Z" fill="#FFE4EE"/>
<path d="M36.843 217.553C31.8886 216.742 29.8168 210.166 31.168 206.293" stroke="#CCCCCC" stroke-width="1.2493" stroke-miterlimit="10" stroke-linecap="round" stroke-linejoin="round"/>
<path d="M20.8989 243.856L23.0608 181.881H30.5375H81.9732H89.4499L101.971 239.533C103.683 247.28 104.493 255.116 104.493 263.044V357.628C104.493 360.961 101.791 363.663 98.4579 363.663H59.4532H45.5808H7.92735C4.14398 363.663 1.26142 360.15 1.98206 356.457L15.6742 288.086C18.6469 273.493 20.3584 258.72 20.8989 243.856Z" fill="#F5F5F7"/>
<path d="M45.6712 181.881L44.0497 251.243C43.7795 262.143 42.4283 272.952 39.906 283.582L23.2412 354.024" stroke="#CCCCCC" stroke-width="1.2493" stroke-miterlimit="10" stroke-linecap="round" stroke-dasharray="9.53 9.53"/>
<path d="M66.8397 192.061V199.357C66.8397 206.473 61.0746 212.329 53.8682 212.329" stroke="#CCCCCC" stroke-width="1.2493" stroke-miterlimit="10" stroke-linecap="round" stroke-linejoin="round"/>
<path d="M78.1897 204.671L76.5682 250.522C76.2079 262.413 74.9468 272.682 73.4154 281.51L60.9844 356.186" stroke="#CCCCCC" stroke-width="1.2493" stroke-miterlimit="10" stroke-linecap="round" stroke-linejoin="round"/>
<path d="M41.6171 86.4861C47.9227 83.4234 55.3092 83.1532 61.795 85.7655C72.0641 89.9092 79.5408 99.0073 81.5226 109.997L93.5933 178.098C94.0437 180.44 92.2421 182.602 89.8099 182.602H22.43C20.0879 182.602 18.2863 180.53 18.6466 178.278L27.7447 105.763C28.8257 97.3858 34.0503 90.1794 41.6171 86.4861Z" fill="#FF820F"/>
<path d="M53.9577 117.654L77.1984 154.497C77.1984 154.497 50.7148 151.974 50.7148 115.942L53.9577 117.654Z" fill="#FF820F"/>
<path d="M58.372 92.9725C49.5441 97.1162 46.3913 108.106 51.706 116.303L77.469 158.19C79.0904 160.713 81.2523 162.965 83.7746 164.676C94.3139 171.432 107.556 166.478 111.519 155.488L129.896 104.503L133.859 93.513L137.552 83.3339C138.273 81.2621 137.192 79.0101 135.12 78.2894C133.048 77.6589 130.886 78.8299 130.166 80.8117L126.563 90.8105C126.473 90.9907 126.292 91.0808 126.112 90.9907C125.932 90.9006 125.842 90.7205 125.932 90.5403L130.616 77.5688C131.337 75.4969 130.256 73.2449 128.184 72.5243C126.112 71.8937 123.95 73.0648 123.23 75.0465L119.536 85.3157C118.095 82.343 115.573 79.8208 112.24 78.6497C110.258 77.9291 108.096 77.7489 106.024 78.0192C104.403 78.2894 103.142 79.3704 102.691 80.9017C101.25 80.4513 99.5386 80.8117 98.3675 81.9827C97.1064 83.3339 96.2056 84.7752 95.5751 86.4867C93.6834 91.6213 95.3048 97.2062 99.1783 100.629C101.25 102.431 101.881 105.404 100.98 108.016L94.0437 127.383C93.7735 128.014 93.0528 128.104 92.6024 127.473L77.9194 100.809C73.8657 93.9634 65.8486 90.7205 58.372 92.9725ZM106.024 95.3146C103.592 94.4138 102.331 91.7114 103.142 89.2792C103.322 88.6486 103.682 88.1081 104.133 87.6577C104.583 87.2073 104.853 86.6669 105.033 86.0363C105.574 86.2165 106.205 86.3065 106.925 86.2165C107.736 86.1264 108.457 86.2165 109.177 86.4867C111.609 87.3875 112.87 90.0899 112.06 92.5221C111.249 94.9542 108.547 96.2154 106.024 95.3146Z" fill="#FFE4EE"/>
<path d="M102.962 81.8022C102.872 82.9733 103.502 84.2344 104.583 84.865" stroke="#FFBED2" stroke-width="1.2493" stroke-miterlimit="10" stroke-linecap="round" stroke-linejoin="round"/>
<path d="M93.2334 129.544L93.4136 132.877" stroke="#FFBED2" stroke-width="1.2493" stroke-miterlimit="10" stroke-linecap="round" stroke-linejoin="round"/>
<path d="M88.9089 121.167L63.6865 135.76L57.3809 125.581L83.1438 110.718L88.9089 121.167Z" fill="#FFCDDC"/>
<path d="M49.0938 102.971C50.445 98.287 53.6878 94.4136 58.1018 92.3417H58.1919C65.9387 89.9996 74.4063 93.4227 78.2797 100.449L87.7381 117.654C88.0084 118.195 87.8282 118.825 87.3778 119.096L62.6058 133.869C62.0653 134.139 61.4347 134.049 61.0744 133.508L51.1656 116.663C48.4632 112.61 47.7426 107.655 49.0938 102.971Z" fill="#FF820F"/>
<path d="M153.406 2.98193H153.316H100.439H100.349C99.1781 2.98193 98.2773 3.88274 98.2773 5.05378V5.14386V7.03554V46.4006V46.4906C98.2773 47.6617 99.1781 48.5625 100.349 48.5625H100.439H153.316H153.406C154.577 48.5625 155.478 47.6617 155.478 46.4906V46.4006V44.9593V31.8076V7.03554V5.14386V5.05378C155.478 3.88274 154.577 2.98193 153.406 2.98193Z" fill="#CBCBCB"/>
<path d="M155.478 1H102.42C101.249 1 100.349 1.9008 100.349 3.07184V44.5087C100.349 45.6797 101.249 46.5805 102.42 46.5805H155.478C156.649 46.5805 157.55 45.6797 157.55 44.5087V3.07184C157.55 1.9008 156.559 1 155.478 1Z" fill="white"/>
<path d="M157.55 29.7354H145.479V42.8871H157.55V29.7354Z" fill="#F1F1F1"/>
<path d="M155.388 1H102.511C101.34 1 100.349 1.99088 100.349 3.16192V44.4186C100.349 45.5897 101.34 46.5805 102.511 46.5805H155.388C156.559 46.5805 157.55 45.5897 157.55 44.4186V3.07184C157.55 1.9008 156.559 1 155.388 1Z" stroke="#E5E5E5" stroke-width="0.6082" stroke-miterlimit="10"/>
<path d="M155.388 1H102.511C101.34 1 100.349 1.99088 100.349 3.16192V5.05361H157.459V3.07184C157.55 1.9008 156.559 1 155.388 1Z" fill="#E5E5E5"/>
<path d="M103.232 3.7025C103.679 3.7025 104.042 3.33953 104.042 2.89178C104.042 2.44403 103.679 2.08105 103.232 2.08105C102.784 2.08105 102.421 2.44403 102.421 2.89178C102.421 3.33953 102.784 3.7025 103.232 3.7025Z" fill="#B2B2B2"/>
<path d="M106.114 2.08105H104.583V3.61242H106.114V2.08105Z" fill="#B2B2B2"/>
<path d="M107.465 2.08105L106.564 3.61242H108.366L107.465 2.08105Z" fill="#B2B2B2"/>
<path d="M109.628 2.08129C109.718 1.99121 109.808 1.99121 109.898 2.08129V2.17137C109.898 2.26145 109.988 2.26145 110.078 2.26145H110.168C110.258 2.26145 110.258 2.35153 110.258 2.44161V2.53169C110.258 2.62177 110.258 2.71185 110.348 2.71185L110.438 2.80193C110.529 2.80193 110.529 2.98209 110.438 2.98209L110.348 3.07217C110.258 3.07217 110.258 3.16225 110.258 3.25233V3.34241C110.258 3.43249 110.258 3.52257 110.168 3.52257H110.078C109.988 3.52257 109.898 3.61265 109.898 3.61265V3.70273C109.898 3.79281 109.808 3.79281 109.718 3.79281L109.628 3.70273C109.538 3.70273 109.448 3.70273 109.448 3.70273L109.358 3.79281C109.267 3.88289 109.177 3.79281 109.177 3.70273V3.61265C109.177 3.52257 109.087 3.52257 108.997 3.52257H108.907C108.817 3.52257 108.817 3.43249 108.817 3.34241V3.25233C108.817 3.16225 108.817 3.07217 108.727 3.07217L108.637 2.98209C108.547 2.98209 108.547 2.80193 108.637 2.80193L108.727 2.71185C108.817 2.71185 108.817 2.62177 108.817 2.53169V2.44161C108.817 2.35153 108.817 2.26145 108.907 2.26145H108.997C109.087 2.26145 109.177 2.17137 109.177 2.17137V2.08129C109.177 1.99121 109.267 1.99121 109.358 1.99121L109.448 2.08129C109.538 2.17137 109.628 2.17137 109.628 2.08129Z" fill="#B2B2B2"/>
<path opacity="0.6" d="M103.863 11.2693C104.758 11.2693 105.484 10.5433 105.484 9.64781C105.484 8.75231 104.758 8.02637 103.863 8.02637C102.967 8.02637 102.241 8.75231 102.241 9.64781C102.241 10.5433 102.967 11.2693 103.863 11.2693Z" fill="#F15956"/>
<path opacity="0.6" d="M105.338 21.1338V18.1611H102.365V21.1338H105.338Z" fill="#FFBE43"/>
<path opacity="0.6" d="M103.862 28.2041L102.15 31.1767H105.573L103.862 28.2041Z" fill="#5960D4"/>
<path opacity="0.6" d="M105.304 39.9148L105.394 40.0049C105.484 40.095 105.394 40.2751 105.304 40.3652L105.124 40.4553C104.943 40.4553 104.853 40.6355 104.853 40.8156V40.9958C104.853 41.1759 104.673 41.266 104.583 41.1759L104.403 41.0859C104.223 40.9958 104.133 41.0859 104.043 41.1759L103.953 41.266C103.862 41.3561 103.682 41.3561 103.592 41.266L103.502 41.1759C103.412 41.0859 103.232 40.9958 103.142 41.0859L102.962 41.1759C102.782 41.266 102.691 41.0859 102.691 40.9958V40.8156C102.691 40.6355 102.601 40.5454 102.421 40.4553L102.241 40.3652C102.061 40.3652 102.061 40.1851 102.151 40.0049L102.241 39.9148C102.331 39.8247 102.331 39.6446 102.241 39.5545L102.151 39.4644C102.061 39.3743 102.151 39.1942 102.241 39.1041L102.421 39.014C102.601 39.014 102.691 38.8339 102.691 38.6537V38.4735C102.691 38.2934 102.872 38.2033 102.962 38.2934L103.142 38.3835C103.322 38.4735 103.412 38.3835 103.502 38.2934L103.592 38.2033C103.682 38.1132 103.862 38.1132 103.953 38.2033L104.043 38.2934C104.133 38.3835 104.313 38.4735 104.403 38.3835L104.583 38.2934C104.763 38.2033 104.853 38.3835 104.853 38.4735V38.6537C104.853 38.8339 104.943 38.9239 105.124 39.014L105.304 39.1041C105.484 39.1041 105.484 39.2843 105.394 39.4644L105.304 39.5545C105.214 39.6446 105.214 39.8247 105.304 39.9148Z" fill="#7D6D60"/>
<path opacity="0.6" d="M138.273 25.4118H114.492C113.591 25.4118 112.87 24.6911 112.87 23.7903V9.10728C112.87 8.20648 113.591 7.48584 114.492 7.48584H138.273C139.174 7.48584 139.894 8.20648 139.894 9.10728V23.7003C139.984 24.6911 139.174 25.4118 138.273 25.4118Z" fill="#7D6D60"/>
<path opacity="0.6" d="M120.617 15.4128C121.158 15.7731 121.698 15.9533 122.419 16.0434L122.329 17.3045C122.239 17.3045 122.149 17.3946 122.059 17.3946C121.068 17.845 120.347 18.8358 120.167 19.9168L118.726 25.3216H131.967L133.949 19.8267L134.49 18.3854L134.94 17.0342C135.03 16.764 134.85 16.4037 134.58 16.3136C134.309 16.2235 134.039 16.4037 133.949 16.6739L133.499 18.0251C133.499 18.0251 133.499 18.0251 133.409 18.0251C133.409 18.0251 133.409 18.0251 133.409 17.935L134.039 16.2235C134.129 15.9533 133.949 15.593 133.679 15.5029C133.409 15.4128 133.138 15.593 133.048 15.8632L132.508 17.2144C132.328 16.8541 131.967 16.4938 131.517 16.3136C131.247 16.2235 130.976 16.2235 130.706 16.2235C130.526 16.2235 130.346 16.4037 130.256 16.5838C130.076 16.4938 129.805 16.5838 129.715 16.764C129.535 16.9442 129.445 17.1243 129.355 17.3946C129.085 18.1152 129.355 18.8358 129.805 19.2862C130.076 19.5565 130.166 19.9168 130.076 20.2771L129.175 22.8895C129.175 22.9795 129.085 22.9795 128.995 22.8895L128.364 21.7184L128.454 21.6283L127.103 19.1962C126.743 18.5656 126.292 18.0251 125.662 17.6648V17.5747C125.662 17.5747 125.662 17.5747 125.662 17.4846L125.572 16.6739H125.662C126.112 16.5838 126.563 16.4037 126.923 16.1334C127.644 16.1334 128.454 15.9533 129.265 15.7731C128.724 15.4128 128.184 13.431 128.004 11.6294C128.004 11.179 127.914 10.7286 127.734 10.2782C127.373 9.37743 126.653 8.29647 125.031 8.47663C124.941 8.47663 124.851 8.47663 124.851 8.56671C124.761 8.47663 124.671 8.47663 124.581 8.47663C123.5 8.29647 122.239 8.83695 121.608 10.3683C121.158 11.5394 120.617 13.1608 120.347 14.0616C119.987 14.6922 120.167 15.1426 120.617 15.4128ZM127.553 13.431C127.553 13.1608 127.553 12.8906 127.553 12.5302C127.553 12.5302 127.553 12.5302 127.553 12.4402V12.5302C127.553 12.6203 127.553 12.6203 127.553 12.7104C127.553 13.0707 127.553 13.2509 127.553 13.431ZM130.256 17.845C130.256 17.7549 130.346 17.6648 130.436 17.6648C130.526 17.5747 130.526 17.4846 130.526 17.4846C130.616 17.4846 130.706 17.4846 130.796 17.4846C130.886 17.4846 130.976 17.4846 131.067 17.4846C131.427 17.5747 131.607 17.935 131.427 18.2954C131.337 18.6557 130.976 18.8358 130.616 18.6557C130.256 18.5656 130.166 18.2053 130.256 17.845Z" fill="#F1F1F1"/>
<path d="M124.04 28.5645H113.05V30.9065H124.04V28.5645Z" fill="#F1F1F1"/>
<path d="M139.623 32.3481H113.05V33.2489H139.623V32.3481Z" fill="#F1F1F1"/>
<path d="M139.623 34.1494H113.05V35.0502H139.623V34.1494Z" fill="#F1F1F1"/>
<path d="M139.623 35.8608H113.05V36.7616H139.623V35.8608Z" fill="#F1F1F1"/>
<path d="M139.623 37.6626H113.05V38.5634H139.623V37.6626Z" fill="#F1F1F1"/>
<path d="M139.623 39.3745H113.05V40.2753H139.623V39.3745Z" fill="#F1F1F1"/>
<path d="M139.623 41.0854H113.05V41.9863H139.623V41.0854Z" fill="#F1F1F1"/>
<path d="M139.623 42.8872H113.05V43.788H139.623V42.8872Z" fill="#F1F1F1"/>
<path d="M145.479 4.96338V46.4903" stroke="#E5E5E5" stroke-width="0.6082" stroke-miterlimit="10"/>
<path d="M148.092 8.29667C148.739 8.29667 149.263 7.77238 149.263 7.12563C149.263 6.47888 148.739 5.95459 148.092 5.95459C147.445 5.95459 146.921 6.47888 146.921 7.12563C146.921 7.77238 147.445 8.29667 148.092 8.29667Z" fill="#B2B2B2"/>
<path d="M151.785 6.22461H149.713V6.76509H151.785V6.22461Z" fill="#CBCBCB"/>
<path d="M155.928 7.12549H149.713V7.39573H155.928V7.12549Z" fill="#E5E5E5"/>
<path d="M155.928 7.66553H149.713V7.93577H155.928V7.66553Z" fill="#E5E5E5"/>
<path d="M152.325 6.76509C152.474 6.76509 152.595 6.6441 152.595 6.49485C152.595 6.3456 152.474 6.22461 152.325 6.22461C152.176 6.22461 152.055 6.3456 152.055 6.49485C152.055 6.6441 152.176 6.76509 152.325 6.76509Z" fill="#4DA04C"/>
<path d="M148.092 11.99C148.739 11.99 149.263 11.4657 149.263 10.819C149.263 10.1722 148.739 9.64795 148.092 9.64795C147.445 9.64795 146.921 10.1722 146.921 10.819C146.921 11.4657 147.445 11.99 148.092 11.99Z" fill="#B2B2B2"/>
<path d="M151.785 9.91797H149.713V10.4584H151.785V9.91797Z" fill="#CBCBCB"/>
<path d="M155.928 10.8188H149.713V11.0891H155.928V10.8188Z" fill="#E5E5E5"/>
<path d="M155.928 11.3594H149.713V11.6296H155.928V11.3594Z" fill="#E5E5E5"/>
<path d="M152.325 10.4584C152.474 10.4584 152.595 10.3375 152.595 10.1882C152.595 10.039 152.474 9.91797 152.325 9.91797C152.176 9.91797 152.055 10.039 152.055 10.1882C152.055 10.3375 152.176 10.4584 152.325 10.4584Z" fill="#4DA04C"/>
<path d="M148.092 15.6829C148.739 15.6829 149.263 15.1586 149.263 14.5119C149.263 13.8651 148.739 13.3408 148.092 13.3408C147.445 13.3408 146.921 13.8651 146.921 14.5119C146.921 15.1586 147.445 15.6829 148.092 15.6829Z" fill="#B2B2B2"/>
<path d="M151.785 13.7012H149.713V14.2417H151.785V13.7012Z" fill="#CBCBCB"/>
<path d="M155.928 14.5122H149.713V14.7824H155.928V14.5122Z" fill="#E5E5E5"/>
<path d="M155.928 15.0527H149.713V15.323H155.928V15.0527Z" fill="#E5E5E5"/>
<path d="M152.325 14.2417C152.474 14.2417 152.595 14.1207 152.595 13.9714C152.595 13.8222 152.474 13.7012 152.325 13.7012C152.176 13.7012 152.055 13.8222 152.055 13.9714C152.055 14.1207 152.176 14.2417 152.325 14.2417Z" fill="#4DA04C"/>
<path d="M148.092 19.3763C148.739 19.3763 149.263 18.852 149.263 18.2052C149.263 17.5585 148.739 17.0342 148.092 17.0342C147.445 17.0342 146.921 17.5585 146.921 18.2052C146.921 18.852 147.445 19.3763 148.092 19.3763Z" fill="#B2B2B2"/>
<path d="M151.785 17.3945H149.713V17.935H151.785V17.3945Z" fill="#CBCBCB"/>
<path d="M155.928 18.2954H149.713V18.5656H155.928V18.2954Z" fill="#E5E5E5"/>
<path d="M155.928 18.7456H149.713V19.0158H155.928V18.7456Z" fill="#E5E5E5"/>
<path d="M152.325 17.935C152.474 17.935 152.595 17.814 152.595 17.6648C152.595 17.5155 152.474 17.3945 152.325 17.3945C152.176 17.3945 152.055 17.5155 152.055 17.6648C152.055 17.814 152.176 17.935 152.325 17.935Z" fill="#FF820F"/>
<path d="M148.092 23.0696C148.739 23.0696 149.263 22.5453 149.263 21.8986C149.263 21.2518 148.739 20.7275 148.092 20.7275C147.445 20.7275 146.921 21.2518 146.921 21.8986C146.921 22.5453 147.445 23.0696 148.092 23.0696Z" fill="#B2B2B2"/>
<path d="M151.785 21.0879H149.713V21.6284H151.785V21.0879Z" fill="#CBCBCB"/>
<path d="M155.928 21.9888H149.713V22.259H155.928V21.9888Z" fill="#E5E5E5"/>
<path d="M155.928 22.439H149.713V22.7092H155.928V22.439Z" fill="#E5E5E5"/>
<path d="M152.325 21.6284C152.474 21.6284 152.595 21.5074 152.595 21.3581C152.595 21.2089 152.474 21.0879 152.325 21.0879C152.176 21.0879 152.055 21.2089 152.055 21.3581C152.055 21.5074 152.176 21.6284 152.325 21.6284Z" fill="#4DA04C"/>
<path d="M148.092 26.763C148.739 26.763 149.263 26.2387 149.263 25.5919C149.263 24.9452 148.739 24.4209 148.092 24.4209C147.445 24.4209 146.921 24.9452 146.921 25.5919C146.921 26.2387 147.445 26.763 148.092 26.763Z" fill="#B2B2B2"/>
<path d="M151.785 24.7812H149.713V25.3217H151.785V24.7812Z" fill="#CBCBCB"/>
<path d="M155.928 25.6821H149.713V25.9524H155.928V25.6821Z" fill="#E5E5E5"/>
<path d="M155.928 26.2222H149.713V26.4924H155.928V26.2222Z" fill="#E5E5E5"/>
<path d="M152.325 25.3217C152.474 25.3217 152.595 25.2007 152.595 25.0515C152.595 24.9022 152.474 24.7812 152.325 24.7812C152.176 24.7812 152.055 24.9022 152.055 25.0515C152.055 25.2007 152.176 25.3217 152.325 25.3217Z" fill="#FF820F"/>
<path d="M155.929 45.0492H147.101C146.831 45.0492 146.561 44.779 146.561 44.5087C146.561 44.2385 146.831 43.9683 147.101 43.9683H155.929C156.199 43.9683 156.469 44.2385 156.469 44.5087C156.469 44.779 156.199 45.0492 155.929 45.0492Z" fill="#E5E5E5"/>
<path d="M107.466 4.96338V46.4903" stroke="#E5E5E5" stroke-width="0.6082" stroke-miterlimit="10"/>
<path d="M137.732 27.4835L137.823 41.8963C137.823 42.2566 138.273 42.4368 138.543 42.1666L142.146 38.3832C142.236 38.2931 142.327 38.203 142.507 38.2931L147.731 38.6534C148.092 38.6534 148.362 38.203 148.092 37.9328L138.453 27.3033C138.183 26.943 137.732 27.1232 137.732 27.4835Z" fill="#999999"/>
</svg>
