<svg width="1584" height="1008" viewBox="0 0 1584 1008" fill="none" xmlns="http://www.w3.org/2000/svg">
<path d="M621 64C632.046 64 641 55.0457 641 44C641 32.9543 632.046 24 621 24C609.954 24 601 32.9543 601 44C601 55.0457 609.954 64 621 64Z" fill="#EBEBEB"/>
<path d="M895.426 19.799L878.455 2.82843C876.893 1.26633 874.361 1.26633 872.799 2.82843L855.828 19.799C854.266 21.3611 854.266 23.8937 855.828 25.4558L872.799 42.4264C874.361 43.9885 876.893 43.9885 878.455 42.4264L895.426 25.4558C896.988 23.8937 896.988 21.3611 895.426 19.799Z" fill="#EBEBEB"/>
<path d="M700.426 433.799L683.455 416.828C681.893 415.266 679.361 415.266 677.799 416.828L660.828 433.799C659.266 435.361 659.266 437.894 660.828 439.456L677.799 456.426C679.361 457.989 681.893 457.989 683.455 456.426L700.426 439.456C701.988 437.894 701.988 435.361 700.426 433.799Z" fill="#EBEBEB"/>
<path d="M966.641 286.177L950.641 258.464C949.536 256.551 947.09 255.895 945.177 257L917.464 273C915.551 274.105 914.895 276.551 916 278.464L932 306.177C933.104 308.09 935.551 308.746 937.464 307.641L965.177 291.641C967.09 290.536 967.745 288.09 966.641 286.177Z" fill="#EBEBEB"/>
<path d="M575.06 179.695C578.016 178.889 579.005 175.196 576.849 173.02L553.98 149.946C551.807 147.753 548.074 148.745 547.275 151.727L538.802 183.349C538.003 186.331 540.74 189.056 543.718 188.244L575.06 179.695Z" fill="#EBEBEB"/>
<path d="M939.67 119.317C940.309 120.597 941.977 121.032 943.191 120.233C944.86 119.138 947.093 120.387 946.95 122.338C946.845 123.761 948.064 124.938 949.527 124.836C951.533 124.693 952.827 126.863 951.697 128.481C950.873 129.659 951.317 131.276 952.642 131.896C954.453 132.746 954.453 135.249 952.642 136.104C951.322 136.724 950.873 138.341 951.697 139.519C952.827 141.137 951.538 143.302 949.527 143.164C948.059 143.062 946.845 144.244 946.95 145.662C947.098 147.608 944.86 148.862 943.191 147.767C941.977 146.968 940.309 147.398 939.67 148.683C938.794 150.439 936.212 150.439 935.33 148.683C934.691 147.403 933.023 146.968 931.809 147.767C930.14 148.862 927.907 147.613 928.05 145.662C928.155 144.239 926.936 143.062 925.473 143.164C923.467 143.307 922.173 141.137 923.303 139.519C924.127 138.341 923.683 136.724 922.358 136.104C920.547 135.254 920.547 132.751 922.358 131.896C923.678 131.276 924.127 129.659 923.303 128.481C922.173 126.863 923.462 124.698 925.473 124.836C926.941 124.938 928.155 123.756 928.05 122.338C927.902 120.392 930.14 119.138 931.809 120.233C933.023 121.032 934.691 120.602 935.33 119.317C936.206 117.561 938.794 117.561 939.67 119.317Z" fill="#EBEBEB"/>
<path d="M579 307C587.837 307 595 299.837 595 291C595 282.163 587.837 275 579 275C570.163 275 563 282.163 563 291C563 299.837 570.163 307 579 307Z" fill="#EBEBEB"/>
<path d="M810.443 411.914C812.619 414.071 816.311 413.081 817.118 410.126L823.229 387.719C824.041 384.741 821.317 382.004 818.335 382.803L795.727 388.861C792.745 389.66 791.754 393.392 793.947 395.565L810.443 411.914Z" fill="#EBEBEB"/>
<path d="M84 64C95.0457 64 104 55.0457 104 44C104 32.9543 95.0457 24 84 24C72.9543 24 64 32.9543 64 44C64 55.0457 72.9543 64 84 64Z" fill="#EBEBEB"/>
<path d="M358.426 19.799L341.455 2.82843C339.893 1.26633 337.361 1.26633 335.799 2.82843L318.828 19.799C317.266 21.3611 317.266 23.8937 318.828 25.4558L335.799 42.4264C337.361 43.9885 339.893 43.9885 341.455 42.4264L358.426 25.4558C359.988 23.8937 359.988 21.3611 358.426 19.799Z" fill="#EBEBEB"/>
<path d="M163.426 433.799L146.455 416.828C144.893 415.266 142.361 415.266 140.799 416.828L123.828 433.799C122.266 435.361 122.266 437.894 123.828 439.456L140.799 456.426C142.361 457.989 144.893 457.989 146.455 456.426L163.426 439.456C164.988 437.894 164.988 435.361 163.426 433.799Z" fill="#EBEBEB"/>
<path d="M429.641 286.177L413.641 258.464C412.536 256.551 410.09 255.895 408.177 257L380.464 273C378.551 274.105 377.895 276.551 379 278.464L395 306.177C396.104 308.09 398.551 308.746 400.464 307.641L428.177 291.641C430.09 290.536 430.745 288.09 429.641 286.177Z" fill="#EBEBEB"/>
<path d="M38.0602 179.695C41.0156 178.889 42.0051 175.196 39.8488 173.02L16.9801 149.946C14.807 147.753 11.0744 148.745 10.2754 151.727L1.80205 183.349C1.00303 186.331 3.73994 189.056 6.7183 188.244L38.0602 179.695Z" fill="#EBEBEB"/>
<path d="M402.67 119.317C403.309 120.597 404.977 121.032 406.191 120.233C407.86 119.138 410.093 120.387 409.95 122.338C409.845 123.761 411.064 124.938 412.527 124.836C414.533 124.693 415.827 126.863 414.697 128.481C413.873 129.659 414.317 131.276 415.642 131.896C417.453 132.746 417.453 135.249 415.642 136.104C414.322 136.724 413.873 138.341 414.697 139.519C415.827 141.137 414.538 143.302 412.527 143.164C411.059 143.062 409.845 144.244 409.95 145.662C410.098 147.608 407.86 148.862 406.191 147.767C404.977 146.968 403.309 147.398 402.67 148.683C401.794 150.439 399.212 150.439 398.33 148.683C397.691 147.403 396.023 146.968 394.809 147.767C393.14 148.862 390.907 147.613 391.05 145.662C391.155 144.239 389.936 143.062 388.473 143.164C386.467 143.307 385.173 141.137 386.303 139.519C387.127 138.341 386.683 136.724 385.358 136.104C383.547 135.254 383.547 132.751 385.358 131.896C386.678 131.276 387.127 129.659 386.303 128.481C385.173 126.863 386.462 124.698 388.473 124.836C389.941 124.938 391.155 123.756 391.05 122.338C390.902 120.392 393.14 119.138 394.809 120.233C396.023 121.032 397.691 120.602 398.33 119.317C399.206 117.561 401.794 117.561 402.67 119.317Z" fill="#EBEBEB"/>
<path d="M42 307C50.8366 307 58 299.837 58 291C58 282.163 50.8366 275 42 275C33.1634 275 26 282.163 26 291C26 299.837 33.1634 307 42 307Z" fill="#EBEBEB"/>
<path d="M273.443 411.914C275.619 414.071 279.311 413.081 280.118 410.126L286.229 387.719C287.041 384.741 284.317 382.004 281.335 382.803L258.727 388.861C255.745 389.66 254.754 393.392 256.947 395.565L273.443 411.914Z" fill="#EBEBEB"/>
<path d="M1195 64C1206.05 64 1215 55.0457 1215 44C1215 32.9543 1206.05 24 1195 24C1183.95 24 1175 32.9543 1175 44C1175 55.0457 1183.95 64 1195 64Z" fill="#EBEBEB"/>
<path d="M1469.43 19.799L1452.46 2.82843C1450.89 1.26633 1448.36 1.26633 1446.8 2.82843L1429.83 19.799C1428.27 21.3611 1428.27 23.8937 1429.83 25.4558L1446.8 42.4264C1448.36 43.9885 1450.89 43.9885 1452.46 42.4264L1469.43 25.4558C1470.99 23.8937 1470.99 21.3611 1469.43 19.799Z" fill="#EBEBEB"/>
<path d="M1274.43 433.799L1257.46 416.828C1255.89 415.266 1253.36 415.266 1251.8 416.828L1234.83 433.799C1233.27 435.361 1233.27 437.894 1234.83 439.456L1251.8 456.426C1253.36 457.989 1255.89 457.989 1257.46 456.426L1274.43 439.456C1275.99 437.894 1275.99 435.361 1274.43 433.799Z" fill="#EBEBEB"/>
<path d="M1540.64 286.177L1524.64 258.464C1523.54 256.551 1521.09 255.895 1519.18 257L1491.46 273C1489.55 274.105 1488.9 276.551 1490 278.464L1506 306.177C1507.1 308.09 1509.55 308.746 1511.46 307.641L1539.18 291.641C1541.09 290.536 1541.75 288.09 1540.64 286.177Z" fill="#EBEBEB"/>
<path d="M1149.06 179.695C1152.02 178.889 1153.01 175.196 1150.85 173.02L1127.98 149.946C1125.81 147.753 1122.07 148.745 1121.28 151.727L1112.8 183.349C1112 186.331 1114.74 189.056 1117.72 188.244L1149.06 179.695Z" fill="#EBEBEB"/>
<path d="M1513.67 119.317C1514.31 120.597 1515.98 121.032 1517.19 120.233C1518.86 119.138 1521.09 120.387 1520.95 122.338C1520.84 123.761 1522.06 124.938 1523.53 124.836C1525.53 124.693 1526.83 126.863 1525.7 128.481C1524.87 129.659 1525.32 131.276 1526.64 131.896C1528.45 132.746 1528.45 135.249 1526.64 136.104C1525.32 136.724 1524.87 138.341 1525.7 139.519C1526.83 141.137 1525.54 143.302 1523.53 143.164C1522.06 143.062 1520.84 144.244 1520.95 145.662C1521.1 147.608 1518.86 148.862 1517.19 147.767C1515.98 146.968 1514.31 147.398 1513.67 148.683C1512.79 150.439 1510.21 150.439 1509.33 148.683C1508.69 147.403 1507.02 146.968 1505.81 147.767C1504.14 148.862 1501.91 147.613 1502.05 145.662C1502.16 144.239 1500.94 143.062 1499.47 143.164C1497.47 143.307 1496.17 141.137 1497.3 139.519C1498.13 138.341 1497.68 136.724 1496.36 136.104C1494.55 135.254 1494.55 132.751 1496.36 131.896C1497.68 131.276 1498.13 129.659 1497.3 128.481C1496.17 126.863 1497.46 124.698 1499.47 124.836C1500.94 124.938 1502.16 123.756 1502.05 122.338C1501.9 120.392 1504.14 119.138 1505.81 120.233C1507.02 121.032 1508.69 120.602 1509.33 119.317C1510.21 117.561 1512.79 117.561 1513.67 119.317Z" fill="#EBEBEB"/>
<path d="M1153 307C1161.84 307 1169 299.837 1169 291C1169 282.163 1161.84 275 1153 275C1144.16 275 1137 282.163 1137 291C1137 299.837 1144.16 307 1153 307Z" fill="#EBEBEB"/>
<path d="M1384.44 411.914C1386.62 414.071 1390.31 413.081 1391.12 410.126L1397.23 387.719C1398.04 384.741 1395.32 382.004 1392.33 382.803L1369.73 388.861C1366.75 389.66 1365.75 393.392 1367.95 395.565L1384.44 411.914Z" fill="#EBEBEB"/>
<path d="M622 602C633.046 602 642 593.046 642 582C642 570.954 633.046 562 622 562C610.954 562 602 570.954 602 582C602 593.046 610.954 602 622 602Z" fill="#EBEBEB"/>
<path d="M956.426 547.799L939.455 530.828C937.893 529.266 935.361 529.266 933.799 530.828L916.828 547.799C915.266 549.361 915.266 551.894 916.828 553.456L933.799 570.426C935.361 571.989 937.893 571.989 939.455 570.426L956.426 553.456C957.988 551.894 957.988 549.361 956.426 547.799Z" fill="#EBEBEB"/>
<path d="M795.67 618.317C796.309 619.597 797.977 620.032 799.191 619.233C800.86 618.138 803.093 619.387 802.95 621.338C802.845 622.761 804.064 623.938 805.527 623.836C807.533 623.693 808.827 625.863 807.697 627.481C806.873 628.659 807.317 630.276 808.642 630.896C810.453 631.746 810.453 634.249 808.642 635.104C807.322 635.724 806.873 637.341 807.697 638.519C808.827 640.137 807.538 642.302 805.527 642.164C804.059 642.062 802.845 643.244 802.95 644.662C803.098 646.608 800.86 647.862 799.191 646.767C797.977 645.968 796.309 646.398 795.67 647.683C794.794 649.439 792.212 649.439 791.33 647.683C790.691 646.403 789.023 645.968 787.809 646.767C786.14 647.862 783.907 646.613 784.05 644.662C784.155 643.239 782.936 642.062 781.473 642.164C779.467 642.307 778.173 640.137 779.303 638.519C780.127 637.341 779.683 635.724 778.358 635.104C776.547 634.254 776.547 631.751 778.358 630.896C779.678 630.276 780.127 628.659 779.303 627.481C778.173 625.863 779.462 623.698 781.473 623.836C782.941 623.938 784.155 622.756 784.05 621.338C783.902 619.392 786.14 618.138 787.809 619.233C789.023 620.032 790.691 619.602 791.33 618.317C792.206 616.561 794.794 616.561 795.67 618.317Z" fill="#EBEBEB"/>
<path d="M741.426 981.799L724.455 964.828C722.893 963.266 720.361 963.266 718.799 964.828L701.828 981.799C700.266 983.361 700.266 985.894 701.828 987.456L718.799 1004.43C720.361 1005.99 722.893 1005.99 724.455 1004.43L741.426 987.456C742.988 985.894 742.988 983.361 741.426 981.799Z" fill="#EBEBEB"/>
<path d="M616.06 727.695C619.016 726.889 620.005 723.196 617.849 721.02L594.98 697.946C592.807 695.753 589.074 696.745 588.275 699.727L579.802 731.349C579.003 734.331 581.74 737.056 584.718 736.244L616.06 727.695Z" fill="#EBEBEB"/>
<path d="M980.67 667.317C981.309 668.597 982.977 669.032 984.191 668.233C985.86 667.138 988.093 668.387 987.95 670.338C987.845 671.761 989.064 672.938 990.527 672.836C992.533 672.693 993.827 674.863 992.697 676.481C991.873 677.659 992.317 679.276 993.642 679.896C995.453 680.746 995.453 683.249 993.642 684.104C992.322 684.724 991.873 686.341 992.697 687.519C993.827 689.137 992.538 691.302 990.527 691.164C989.059 691.062 987.845 692.244 987.95 693.662C988.098 695.608 985.86 696.862 984.191 695.767C982.977 694.968 981.309 695.398 980.67 696.683C979.794 698.439 977.212 698.439 976.33 696.683C975.691 695.403 974.023 694.968 972.809 695.767C971.14 696.862 968.907 695.613 969.05 693.662C969.155 692.239 967.936 691.062 966.473 691.164C964.467 691.307 963.173 689.137 964.303 687.519C965.127 686.341 964.683 684.724 963.358 684.104C961.547 683.254 961.547 680.751 963.358 679.896C964.678 679.276 965.127 677.659 964.303 676.481C963.173 674.863 964.462 672.698 966.473 672.836C967.941 672.938 969.155 671.756 969.05 670.338C968.902 668.392 971.14 667.138 972.809 668.233C974.023 669.032 975.691 668.602 976.33 667.317C977.206 665.561 979.794 665.561 980.67 667.317Z" fill="#EBEBEB"/>
<path d="M851.443 959.914C853.619 962.071 857.311 961.081 858.118 958.126L864.229 935.719C865.041 932.741 862.317 930.004 859.335 930.803L836.727 936.861C833.745 937.66 832.754 941.392 834.947 943.565L851.443 959.914Z" fill="#EBEBEB"/>
<path d="M85 602C96.0457 602 105 593.046 105 582C105 570.954 96.0457 562 85 562C73.9543 562 65 570.954 65 582C65 593.046 73.9543 602 85 602Z" fill="#EBEBEB"/>
<path d="M419.426 547.799L402.455 530.828C400.893 529.266 398.361 529.266 396.799 530.828L379.828 547.799C378.266 549.361 378.266 551.894 379.828 553.456L396.799 570.426C398.361 571.989 400.893 571.989 402.455 570.426L419.426 553.456C420.988 551.894 420.988 549.361 419.426 547.799Z" fill="#EBEBEB"/>
<path d="M258.67 618.317C259.309 619.597 260.977 620.032 262.191 619.233C263.86 618.138 266.093 619.387 265.95 621.338C265.845 622.761 267.064 623.938 268.527 623.836C270.533 623.693 271.827 625.863 270.697 627.481C269.873 628.659 270.317 630.276 271.642 630.896C273.453 631.746 273.453 634.249 271.642 635.104C270.322 635.724 269.873 637.341 270.697 638.519C271.827 640.137 270.538 642.302 268.527 642.164C267.059 642.062 265.845 643.244 265.95 644.662C266.098 646.608 263.86 647.862 262.191 646.767C260.977 645.968 259.309 646.398 258.67 647.683C257.794 649.439 255.212 649.439 254.33 647.683C253.691 646.403 252.023 645.968 250.809 646.767C249.14 647.862 246.907 646.613 247.05 644.662C247.155 643.239 245.936 642.062 244.473 642.164C242.467 642.307 241.173 640.137 242.303 638.519C243.127 637.341 242.683 635.724 241.358 635.104C239.547 634.254 239.547 631.751 241.358 630.896C242.678 630.276 243.127 628.659 242.303 627.481C241.173 625.863 242.462 623.698 244.473 623.836C245.941 623.938 247.155 622.756 247.05 621.338C246.902 619.392 249.14 618.138 250.809 619.233C252.023 620.032 253.691 619.602 254.33 618.317C255.206 616.561 257.794 616.561 258.67 618.317Z" fill="#EBEBEB"/>
<path d="M204.426 981.799L187.455 964.828C185.893 963.266 183.361 963.266 181.799 964.828L164.828 981.799C163.266 983.361 163.266 985.894 164.828 987.456L181.799 1004.43C183.361 1005.99 185.893 1005.99 187.455 1004.43L204.426 987.456C205.988 985.894 205.988 983.361 204.426 981.799Z" fill="#EBEBEB"/>
<path d="M470.641 834.177L454.641 806.464C453.536 804.551 451.09 803.895 449.177 805L421.464 821C419.551 822.105 418.895 824.551 420 826.464L436 854.177C437.104 856.09 439.551 856.746 441.464 855.641L469.177 839.641C471.09 838.536 471.745 836.09 470.641 834.177Z" fill="#EBEBEB"/>
<path d="M79.0602 727.695C82.0156 726.889 83.0051 723.196 80.8488 721.02L57.9801 697.946C55.807 695.753 52.0744 696.745 51.2754 699.727L42.802 731.349C42.003 734.331 44.7399 737.056 47.7183 736.244L79.0602 727.695Z" fill="#EBEBEB"/>
<path d="M443.67 667.317C444.309 668.597 445.977 669.032 447.191 668.233C448.86 667.138 451.093 668.387 450.95 670.338C450.845 671.761 452.064 672.938 453.527 672.836C455.533 672.693 456.827 674.863 455.697 676.481C454.873 677.659 455.317 679.276 456.642 679.896C458.453 680.746 458.453 683.249 456.642 684.104C455.322 684.724 454.873 686.341 455.697 687.519C456.827 689.137 455.538 691.302 453.527 691.164C452.059 691.062 450.845 692.244 450.95 693.662C451.098 695.608 448.86 696.862 447.191 695.767C445.977 694.968 444.309 695.398 443.67 696.683C442.794 698.439 440.212 698.439 439.33 696.683C438.691 695.403 437.023 694.968 435.809 695.767C434.14 696.862 431.907 695.613 432.05 693.662C432.155 692.239 430.936 691.062 429.473 691.164C427.467 691.307 426.173 689.137 427.303 687.519C428.127 686.341 427.683 684.724 426.358 684.104C424.547 683.254 424.547 680.751 426.358 679.896C427.678 679.276 428.127 677.659 427.303 676.481C426.173 674.863 427.462 672.698 429.473 672.836C430.941 672.938 432.155 671.756 432.05 670.338C431.902 668.392 434.14 667.138 435.809 668.233C437.023 669.032 438.691 668.602 439.33 667.317C440.206 665.561 442.794 665.561 443.67 667.317Z" fill="#EBEBEB"/>
<path d="M83 855C91.8366 855 99 847.837 99 839C99 830.163 91.8366 823 83 823C74.1634 823 67 830.163 67 839C67 847.837 74.1634 855 83 855Z" fill="#EBEBEB"/>
<path d="M314.443 959.914C316.619 962.071 320.311 961.081 321.118 958.126L327.229 935.719C328.041 932.741 325.317 930.004 322.335 930.803L299.727 936.861C296.745 937.66 295.754 941.392 297.947 943.565L314.443 959.914Z" fill="#EBEBEB"/>
<path d="M1196 602C1207.05 602 1216 593.046 1216 582C1216 570.954 1207.05 562 1196 562C1184.95 562 1176 570.954 1176 582C1176 593.046 1184.95 602 1196 602Z" fill="#EBEBEB"/>
<path d="M1530.43 547.799L1513.46 530.828C1511.89 529.266 1509.36 529.266 1507.8 530.828L1490.83 547.799C1489.27 549.361 1489.27 551.894 1490.83 553.456L1507.8 570.426C1509.36 571.989 1511.89 571.989 1513.46 570.426L1530.43 553.456C1531.99 551.894 1531.99 549.361 1530.43 547.799Z" fill="#EBEBEB"/>
<path d="M1369.67 618.317C1370.31 619.597 1371.98 620.032 1373.19 619.233C1374.86 618.138 1377.09 619.387 1376.95 621.338C1376.84 622.761 1378.06 623.938 1379.53 623.836C1381.53 623.693 1382.83 625.863 1381.7 627.481C1380.87 628.659 1381.32 630.276 1382.64 630.896C1384.45 631.746 1384.45 634.249 1382.64 635.104C1381.32 635.724 1380.87 637.341 1381.7 638.519C1382.83 640.137 1381.54 642.302 1379.53 642.164C1378.06 642.062 1376.84 643.244 1376.95 644.662C1377.1 646.608 1374.86 647.862 1373.19 646.767C1371.98 645.968 1370.31 646.398 1369.67 647.683C1368.79 649.439 1366.21 649.439 1365.33 647.683C1364.69 646.403 1363.02 645.968 1361.81 646.767C1360.14 647.862 1357.91 646.613 1358.05 644.662C1358.16 643.239 1356.94 642.062 1355.47 642.164C1353.47 642.307 1352.17 640.137 1353.3 638.519C1354.13 637.341 1353.68 635.724 1352.36 635.104C1350.55 634.254 1350.55 631.751 1352.36 630.896C1353.68 630.276 1354.13 628.659 1353.3 627.481C1352.17 625.863 1353.46 623.698 1355.47 623.836C1356.94 623.938 1358.16 622.756 1358.05 621.338C1357.9 619.392 1360.14 618.138 1361.81 619.233C1363.02 620.032 1364.69 619.602 1365.33 618.317C1366.21 616.561 1368.79 616.561 1369.67 618.317Z" fill="#EBEBEB"/>
<path d="M1315.43 981.799L1298.46 964.828C1296.89 963.266 1294.36 963.266 1292.8 964.828L1275.83 981.799C1274.27 983.361 1274.27 985.894 1275.83 987.456L1292.8 1004.43C1294.36 1005.99 1296.89 1005.99 1298.46 1004.43L1315.43 987.456C1316.99 985.894 1316.99 983.361 1315.43 981.799Z" fill="#EBEBEB"/>
<path d="M1581.64 834.177L1565.64 806.464C1564.54 804.551 1562.09 803.895 1560.18 805L1532.46 821C1530.55 822.105 1529.9 824.551 1531 826.464L1547 854.177C1548.1 856.09 1550.55 856.746 1552.46 855.641L1580.18 839.641C1582.09 838.536 1582.75 836.09 1581.64 834.177Z" fill="#EBEBEB"/>
<path d="M1190.06 727.695C1193.02 726.889 1194.01 723.196 1191.85 721.02L1168.98 697.946C1166.81 695.753 1163.07 696.745 1162.28 699.727L1153.8 731.349C1153 734.331 1155.74 737.056 1158.72 736.244L1190.06 727.695Z" fill="#EBEBEB"/>
<path d="M1554.67 667.317C1555.31 668.597 1556.98 669.032 1558.19 668.233C1559.86 667.138 1562.09 668.387 1561.95 670.338C1561.84 671.761 1563.06 672.938 1564.53 672.836C1566.53 672.693 1567.83 674.863 1566.7 676.481C1565.87 677.659 1566.32 679.276 1567.64 679.896C1569.45 680.746 1569.45 683.249 1567.64 684.104C1566.32 684.724 1565.87 686.341 1566.7 687.519C1567.83 689.137 1566.54 691.302 1564.53 691.164C1563.06 691.062 1561.84 692.244 1561.95 693.662C1562.1 695.608 1559.86 696.862 1558.19 695.767C1556.98 694.968 1555.31 695.398 1554.67 696.683C1553.79 698.439 1551.21 698.439 1550.33 696.683C1549.69 695.403 1548.02 694.968 1546.81 695.767C1545.14 696.862 1542.91 695.613 1543.05 693.662C1543.16 692.239 1541.94 691.062 1540.47 691.164C1538.47 691.307 1537.17 689.137 1538.3 687.519C1539.13 686.341 1538.68 684.724 1537.36 684.104C1535.55 683.254 1535.55 680.751 1537.36 679.896C1538.68 679.276 1539.13 677.659 1538.3 676.481C1537.17 674.863 1538.46 672.698 1540.47 672.836C1541.94 672.938 1543.16 671.756 1543.05 670.338C1542.9 668.392 1545.14 667.138 1546.81 668.233C1548.02 669.032 1549.69 668.602 1550.33 667.317C1551.21 665.561 1553.79 665.561 1554.67 667.317Z" fill="#EBEBEB"/>
<path d="M1194 855C1202.84 855 1210 847.837 1210 839C1210 830.163 1202.84 823 1194 823C1185.16 823 1178 830.163 1178 839C1178 847.837 1185.16 855 1194 855Z" fill="#EBEBEB"/>
<path d="M1425.44 959.914C1427.62 962.071 1431.31 961.081 1432.12 958.126L1438.23 935.719C1439.04 932.741 1436.32 930.004 1433.33 930.803L1410.73 936.861C1407.75 937.66 1406.75 941.392 1408.95 943.565L1425.44 959.914Z" fill="#EBEBEB"/>
</svg>
