<svg width="414" height="566" viewBox="0 0 414 566" fill="none" xmlns="http://www.w3.org/2000/svg">
<path d="M71 64C82.0457 64 91 55.0457 91 44C91 32.9543 82.0457 24 71 24C59.9543 24 51 32.9543 51 44C51 55.0457 59.9543 64 71 64Z" fill="#F5F5F5"/>
<path d="M345.426 19.799L328.456 2.82843C326.894 1.26633 324.361 1.26633 322.799 2.82843L305.828 19.799C304.266 21.3611 304.266 23.8937 305.828 25.4558L322.799 42.4264C324.361 43.9885 326.894 43.9885 328.456 42.4264L345.426 25.4558C346.989 23.8937 346.989 21.3611 345.426 19.799Z" fill="#F5F5F5"/>
<path d="M150.426 433.799L133.456 416.828C131.894 415.266 129.361 415.266 127.799 416.828L110.828 433.799C109.266 435.361 109.266 437.894 110.828 439.456L127.799 456.426C129.361 457.989 131.894 457.989 133.456 456.426L150.426 439.456C151.989 437.894 151.989 435.361 150.426 433.799Z" fill="#F5F5F5"/>
<path d="M416.641 286.177L400.641 258.464C399.537 256.551 397.09 255.895 395.177 257L367.464 273C365.551 274.105 364.896 276.551 366 278.464L382 306.177C383.105 308.09 385.551 308.746 387.464 307.641L415.177 291.641C417.09 290.536 417.746 288.09 416.641 286.177Z" fill="#F5F5F5"/>
<path d="M25.0607 179.695C28.0161 178.889 29.0056 175.196 26.8492 173.02L3.98061 149.946C1.80745 147.753 -1.92514 148.745 -2.72415 151.727L-11.1975 183.349C-11.9965 186.331 -9.25957 189.056 -6.28121 188.244L25.0607 179.695Z" fill="#F5F5F5"/>
<path d="M389.67 119.317C390.309 120.597 391.977 121.032 393.191 120.233C394.86 119.138 397.093 120.387 396.95 122.338C396.845 123.761 398.064 124.938 399.527 124.836C401.533 124.693 402.827 126.863 401.697 128.481C400.873 129.659 401.317 131.276 402.642 131.896C404.453 132.746 404.453 135.249 402.642 136.104C401.322 136.724 400.873 138.341 401.697 139.519C402.827 141.137 401.538 143.302 399.527 143.164C398.059 143.062 396.845 144.244 396.95 145.662C397.098 147.608 394.86 148.862 393.191 147.767C391.977 146.968 390.309 147.398 389.67 148.683C388.794 150.439 386.212 150.439 385.33 148.683C384.691 147.403 383.023 146.968 381.809 147.767C380.14 148.862 377.907 147.613 378.05 145.662C378.155 144.239 376.936 143.062 375.473 143.164C373.467 143.307 372.173 141.137 373.303 139.519C374.127 138.341 373.683 136.724 372.358 136.104C370.547 135.254 370.547 132.751 372.358 131.896C373.678 131.276 374.127 129.659 373.303 128.481C372.173 126.863 373.462 124.698 375.473 124.836C376.941 124.938 378.155 123.756 378.05 122.338C377.902 120.392 380.14 119.138 381.809 120.233C383.023 121.032 384.691 120.602 385.33 119.317C386.206 117.561 388.794 117.561 389.67 119.317Z" fill="#F5F5F5"/>
<path d="M29 307C37.8366 307 45 299.837 45 291C45 282.163 37.8366 275 29 275C20.1634 275 13 282.163 13 291C13 299.837 20.1634 307 29 307Z" fill="#F5F5F5"/>
<path d="M260.443 411.914C262.618 414.071 266.311 413.081 267.117 410.126L273.229 387.719C274.041 384.741 271.316 382.004 268.334 382.803L245.727 388.861C242.745 389.66 241.754 393.392 243.946 395.565L260.443 411.914Z" fill="#F5F5F5"/>
<path d="M365.426 539.799L348.456 522.828C346.894 521.266 344.361 521.266 342.799 522.828L325.828 539.799C324.266 541.361 324.266 543.894 325.828 545.456L342.799 562.426C344.361 563.989 346.894 563.989 348.456 562.426L365.426 545.456C366.989 543.894 366.989 541.361 365.426 539.799Z" fill="#F5F5F5"/>
</svg>
