<svg width="166" height="43" viewBox="0 0 166 43" fill="none" xmlns="http://www.w3.org/2000/svg">
<mask id="path-1-inside-1" fill="white">
<path fill-rule="evenodd" clip-rule="evenodd" d="M4 0C1.79086 0 0 1.79086 0 4V32C0 34.2091 1.79086 36 4 36H80.1429L82.0583 41.3631C82.3743 42.248 83.6257 42.248 83.9417 41.3631L85.8571 36H162C164.209 36 166 34.2091 166 32V4C166 1.79086 164.209 0 162 0H4Z"/>
</mask>
<path fill-rule="evenodd" clip-rule="evenodd" d="M4 0C1.79086 0 0 1.79086 0 4V32C0 34.2091 1.79086 36 4 36H80.1429L82.0583 41.3631C82.3743 42.248 83.6257 42.248 83.9417 41.3631L85.8571 36H162C164.209 36 166 34.2091 166 32V4C166 1.79086 164.209 0 162 0H4Z" fill="white"/>
<path d="M80.1429 36L81.0846 35.6637L80.8476 35H80.1429V36ZM82.0583 41.3631L81.1165 41.6995L81.1165 41.6995L82.0583 41.3631ZM83.9417 41.3631L84.8835 41.6995L84.8835 41.6995L83.9417 41.3631ZM85.8571 36V35H85.1524L84.9154 35.6637L85.8571 36ZM1 4C1 2.34315 2.34315 1 4 1V-1C1.23858 -1 -1 1.23858 -1 4H1ZM1 32V4H-1V32H1ZM4 35C2.34314 35 1 33.6569 1 32H-1C-1 34.7614 1.23857 37 4 37V35ZM80.1429 35H4V37H80.1429V35ZM83 41.0268L81.0846 35.6637L79.2011 36.3363L81.1165 41.6995L83 41.0268ZM83 41.0268L83 41.0268L81.1165 41.6995C81.7486 43.4692 84.2514 43.4692 84.8835 41.6995L83 41.0268ZM84.9154 35.6637L83 41.0268L84.8835 41.6995L86.7989 36.3363L84.9154 35.6637ZM162 35H85.8571V37H162V35ZM165 32C165 33.6569 163.657 35 162 35V37C164.761 37 167 34.7614 167 32H165ZM165 4V32H167V4H165ZM162 1C163.657 1 165 2.34315 165 4H167C167 1.23858 164.761 -1 162 -1V1ZM4 1H162V-1H4V1Z" fill="#505050" mask="url(#path-1-inside-1)"/>
</svg>
