<svg width="166" height="42" viewBox="0 0 166 42" fill="none" xmlns="http://www.w3.org/2000/svg">
<mask id="path-1-inside-1_3372_46235" fill="white">
<path fill-rule="evenodd" clip-rule="evenodd" d="M4 0C1.79086 0 0 1.79086 0 4V32C0 34.2091 1.79086 36 4 36H125.857L124.384 40.1252C124.031 41.1123 125.242 41.9078 126.008 41.1926L131.571 36H162C164.209 36 166 34.2091 166 32V4C166 1.79086 164.209 0 162 0H4Z"/>
</mask>
<path fill-rule="evenodd" clip-rule="evenodd" d="M4 0C1.79086 0 0 1.79086 0 4V32C0 34.2091 1.79086 36 4 36H125.857L124.384 40.1252C124.031 41.1123 125.242 41.9078 126.008 41.1926L131.571 36H162C164.209 36 166 34.2091 166 32V4C166 1.79086 164.209 0 162 0H4Z" fill="white"/>
<path d="M125.857 36L126.799 36.3363L127.276 35H125.857V36ZM124.384 40.1252L125.326 40.4616L125.326 40.4616L124.384 40.1252ZM126.008 41.1926L126.69 41.9237L126.69 41.9237L126.008 41.1926ZM131.571 36V35H131.177L130.889 35.2689L131.571 36ZM1 4C1 2.34315 2.34315 1 4 1V-1C1.23858 -1 -1 1.23858 -1 4H1ZM1 32V4H-1V32H1ZM4 35C2.34314 35 1 33.6569 1 32H-1C-1 34.7614 1.23857 37 4 37V35ZM125.857 35H4V37H125.857V35ZM125.326 40.4616L126.799 36.3363L124.915 35.6637L123.442 39.7889L125.326 40.4616ZM125.326 40.4616L125.326 40.4616L123.442 39.7889C122.737 41.7629 125.158 43.3539 126.69 41.9237L125.326 40.4616ZM130.889 35.2689L125.326 40.4616L126.69 41.9237L132.254 36.7311L130.889 35.2689ZM162 35H131.571V37H162V35ZM165 32C165 33.6569 163.657 35 162 35V37C164.761 37 167 34.7614 167 32H165ZM165 4V32H167V4H165ZM162 1C163.657 1 165 2.34315 165 4H167C167 1.23858 164.761 -1 162 -1V1ZM4 1H162V-1H4V1Z" fill="#505050" mask="url(#path-1-inside-1_3372_46235)"/>
</svg>
