<svg width="358" height="377" viewBox="0 0 358 377" fill="none" xmlns="http://www.w3.org/2000/svg">
<g filter="url(#filter0_d)">
<mask id="path-1-inside-1" fill="white">
<path fill-rule="evenodd" clip-rule="evenodd" d="M248.345 322.556C303.69 296.501 342 240.224 342 175C342 84.9776 269.022 12 179 12C88.9776 12 16 84.9776 16 175C16 264.689 88.4378 337.459 178 337.997V352.423C178 355.421 181.177 357.354 183.84 355.974L248.345 322.556Z"/>
</mask>
<path fill-rule="evenodd" clip-rule="evenodd" d="M248.345 322.556C303.69 296.501 342 240.224 342 175C342 84.9776 269.022 12 179 12C88.9776 12 16 84.9776 16 175C16 264.689 88.4378 337.459 178 337.997V352.423C178 355.421 181.177 357.354 183.84 355.974L248.345 322.556Z" fill="white"/>
<path d="M248.345 322.556L247.493 320.747L247.458 320.763L247.425 320.781L248.345 322.556ZM178 337.997H180V336.009L178.012 335.997L178 337.997ZM183.84 355.974L184.76 357.75L184.76 357.75L183.84 355.974ZM249.197 324.366C305.217 297.993 344 241.028 344 175H340C340 239.421 302.164 295.009 247.493 320.747L249.197 324.366ZM344 175C344 83.873 270.127 10 179 10V14C267.918 14 340 86.0822 340 175H344ZM179 10C87.873 10 14 83.873 14 175H18C18 86.0822 90.0822 14 179 14V10ZM14 175C14 265.789 87.3266 339.452 177.988 339.997L178.012 335.997C89.549 335.466 18 263.588 18 175H14ZM180 352.423V337.997H176V352.423H180ZM182.92 354.199C181.589 354.888 180 353.922 180 352.423H176C176 356.921 180.766 359.819 184.76 357.75L182.92 354.199ZM247.425 320.781L182.92 354.199L184.76 357.75L249.265 324.332L247.425 320.781Z" fill="#FF820F" mask="url(#path-1-inside-1)"/>
</g>
<defs>
<filter id="filter0_d" x="0" y="0" width="358" height="376.428" filterUnits="userSpaceOnUse" color-interpolation-filters="sRGB">
<feFlood flood-opacity="0" result="BackgroundImageFix"/>
<feColorMatrix in="SourceAlpha" type="matrix" values="0 0 0 0 0 0 0 0 0 0 0 0 0 0 0 0 0 0 127 0"/>
<feOffset dy="4"/>
<feGaussianBlur stdDeviation="8"/>
<feColorMatrix type="matrix" values="0 0 0 0 0 0 0 0 0 0 0 0 0 0 0 0 0 0 0.04 0"/>
<feBlend mode="normal" in2="BackgroundImageFix" result="effect1_dropShadow"/>
<feBlend mode="normal" in="SourceGraphic" in2="effect1_dropShadow" result="shape"/>
</filter>
</defs>
</svg>
