<svg width="432" height="566" viewBox="0 0 432 566" fill="none" xmlns="http://www.w3.org/2000/svg">
<path d="M84 64C95.0457 64 104 55.0457 104 44C104 32.9543 95.0457 24 84 24C72.9543 24 64 32.9543 64 44C64 55.0457 72.9543 64 84 64Z" fill="#EBEBEB"/>
<path d="M358.426 19.799L341.456 2.82843C339.894 1.26633 337.361 1.26633 335.799 2.82843L318.828 19.799C317.266 21.3611 317.266 23.8937 318.828 25.4558L335.799 42.4264C337.361 43.9885 339.894 43.9885 341.456 42.4264L358.426 25.4558C359.989 23.8937 359.989 21.3611 358.426 19.799Z" fill="#EBEBEB"/>
<path d="M163.426 433.799L146.456 416.828C144.894 415.266 142.361 415.266 140.799 416.828L123.828 433.799C122.266 435.361 122.266 437.894 123.828 439.456L140.799 456.426C142.361 457.989 144.894 457.989 146.456 456.426L163.426 439.456C164.989 437.894 164.989 435.361 163.426 433.799Z" fill="#EBEBEB"/>
<path d="M429.641 286.177L413.641 258.464C412.537 256.551 410.09 255.895 408.177 257L380.464 273C378.551 274.105 377.896 276.551 379 278.464L395 306.177C396.105 308.09 398.551 308.746 400.464 307.641L428.177 291.641C430.09 290.536 430.746 288.09 429.641 286.177Z" fill="#EBEBEB"/>
<path d="M38.0607 179.695C41.0161 178.889 42.0056 175.196 39.8492 173.021L16.9806 149.946C14.8075 147.754 11.0749 148.745 10.2758 151.727L1.80253 183.35C1.00352 186.332 3.74043 189.056 6.71879 188.244L38.0607 179.695Z" fill="#EBEBEB"/>
<path d="M402.67 119.317C403.309 120.597 404.977 121.032 406.191 120.233C407.86 119.138 410.093 120.387 409.95 122.338C409.845 123.761 411.064 124.938 412.527 124.836C414.533 124.693 415.827 126.863 414.697 128.481C413.873 129.659 414.317 131.276 415.642 131.896C417.453 132.746 417.453 135.249 415.642 136.104C414.322 136.724 413.873 138.341 414.697 139.519C415.827 141.137 414.538 143.302 412.527 143.164C411.059 143.062 409.845 144.244 409.95 145.662C410.098 147.608 407.86 148.862 406.191 147.767C404.977 146.968 403.309 147.398 402.67 148.683C401.794 150.439 399.212 150.439 398.33 148.683C397.691 147.403 396.023 146.968 394.809 147.767C393.14 148.862 390.907 147.613 391.05 145.662C391.155 144.239 389.936 143.062 388.473 143.164C386.467 143.307 385.173 141.137 386.303 139.519C387.127 138.341 386.683 136.724 385.358 136.104C383.547 135.254 383.547 132.751 385.358 131.896C386.678 131.276 387.127 129.659 386.303 128.481C385.173 126.863 386.462 124.698 388.473 124.836C389.941 124.938 391.155 123.756 391.05 122.338C390.902 120.392 393.14 119.138 394.809 120.233C396.023 121.032 397.691 120.602 398.33 119.317C399.206 117.561 401.794 117.561 402.67 119.317Z" fill="#EBEBEB"/>
<path d="M42 307C50.8366 307 58 299.837 58 291C58 282.163 50.8366 275 42 275C33.1634 275 26 282.163 26 291C26 299.837 33.1634 307 42 307Z" fill="#EBEBEB"/>
<path d="M273.443 411.914C275.618 414.07 279.311 413.081 280.117 410.125L286.229 387.719C287.041 384.74 284.316 382.003 281.334 382.802L258.727 388.86C255.745 389.659 254.754 393.392 256.946 395.565L273.443 411.914Z" fill="#EBEBEB"/>
<path d="M378.426 539.799L361.456 522.828C359.894 521.266 357.361 521.266 355.799 522.828L338.828 539.799C337.266 541.361 337.266 543.894 338.828 545.456L355.799 562.426C357.361 563.989 359.894 563.989 361.456 562.426L378.426 545.456C379.989 543.894 379.989 541.361 378.426 539.799Z" fill="#EBEBEB"/>
</svg>
