<svg width="1920" height="1951" viewBox="0 0 1920 1951" fill="none" xmlns="http://www.w3.org/2000/svg">
<path d="M1213 863.571C1224.05 863.571 1233 854.616 1233 843.571C1233 832.525 1224.05 823.571 1213 823.571C1201.95 823.571 1193 832.525 1193 843.571C1193 854.616 1201.95 863.571 1213 863.571Z" fill="#FAFAFA"/>
<path d="M1340 1797.57C1340 1808.62 1348.95 1817.57 1360 1817.57C1371.05 1817.57 1380 1808.62 1380 1797.57C1380 1786.53 1371.05 1777.57 1360 1777.57C1348.95 1777.57 1340 1786.53 1340 1797.57Z" fill="#FAFAFA"/>
<path d="M1357.43 547.37L1340.46 530.399C1338.89 528.837 1336.36 528.837 1334.8 530.399L1317.83 547.37C1316.27 548.932 1316.27 551.465 1317.83 553.027L1334.8 569.997C1336.36 571.559 1338.89 571.559 1340.46 569.997L1357.43 553.027C1358.99 551.465 1358.99 548.932 1357.43 547.37Z" fill="#FAFAFA"/>
<path d="M1208.43 1206.37L1191.46 1189.4C1189.89 1187.84 1187.36 1187.84 1185.8 1189.4L1168.83 1206.37C1167.27 1207.93 1167.27 1210.46 1168.83 1212.03L1185.8 1229C1187.36 1230.56 1189.89 1230.56 1191.46 1229L1208.43 1212.03C1209.99 1210.46 1209.99 1207.93 1208.43 1206.37Z" fill="#FAFAFA"/>
<path d="M1098.46 1696L1115.43 1679.03C1116.99 1677.46 1116.99 1674.93 1115.43 1673.37L1098.46 1656.4C1096.89 1654.84 1094.36 1654.84 1092.8 1656.4L1075.83 1673.37C1074.27 1674.93 1074.27 1677.46 1075.83 1679.03L1092.8 1696C1094.36 1697.56 1096.89 1697.56 1098.46 1696Z" fill="#FAFAFA"/>
<path d="M1614.64 893.748L1598.64 866.035C1597.54 864.122 1595.09 863.466 1593.18 864.571L1565.46 880.571C1563.55 881.675 1562.9 884.122 1564 886.035L1580 913.748C1581.1 915.661 1583.55 916.316 1585.46 915.212L1613.18 899.212C1615.09 898.107 1615.75 895.661 1614.64 893.748Z" fill="#FAFAFA"/>
<path d="M1029.06 797.266C1032.02 796.46 1033.01 792.767 1030.85 790.591L1007.98 767.517C1005.81 765.324 1002.07 766.315 1001.28 769.297L992.802 800.92C992.003 803.902 994.74 806.627 997.718 805.815L1029.06 797.266Z" fill="#FAFAFA"/>
<path d="M1406.67 740.888C1407.31 742.168 1408.98 742.603 1410.19 741.804C1411.86 740.709 1414.09 741.958 1413.95 743.908C1413.84 745.332 1415.06 746.509 1416.53 746.407C1418.53 746.263 1419.83 748.434 1418.7 750.052C1417.87 751.229 1418.32 752.847 1419.64 753.467C1421.45 754.317 1421.45 756.82 1419.64 757.675C1418.32 758.294 1417.87 759.912 1418.7 761.09C1419.83 762.708 1418.54 764.873 1416.53 764.735C1415.06 764.632 1413.84 765.815 1413.95 767.233C1414.1 769.179 1411.86 770.433 1410.19 769.337C1408.98 768.539 1407.31 768.969 1406.67 770.254C1405.79 772.01 1403.21 772.01 1402.33 770.254C1401.69 768.974 1400.02 768.539 1398.81 769.337C1397.14 770.433 1394.91 769.184 1395.05 767.233C1395.16 765.81 1393.94 764.632 1392.47 764.735C1390.47 764.878 1389.17 762.708 1390.3 761.09C1391.13 759.912 1390.68 758.294 1389.36 757.675C1387.55 756.825 1387.55 754.322 1389.36 753.467C1390.68 752.847 1391.13 751.229 1390.3 750.052C1389.17 748.434 1390.46 746.269 1392.47 746.407C1393.94 746.509 1395.16 745.327 1395.05 743.908C1394.9 741.963 1397.14 740.709 1398.81 741.804C1400.02 742.603 1401.69 742.173 1402.33 740.888C1403.21 739.132 1405.79 739.132 1406.67 740.888Z" fill="#FAFAFA"/>
<path d="M1112 1018.57C1120.84 1018.57 1128 1011.41 1128 1002.57C1128 993.734 1120.84 986.571 1112 986.571C1103.16 986.571 1096 993.734 1096 1002.57C1096 1011.41 1103.16 1018.57 1112 1018.57Z" fill="#FAFAFA"/>
<path d="M1381.44 1073.49C1383.62 1075.64 1387.31 1074.65 1388.12 1071.7L1394.23 1049.29C1395.04 1046.31 1392.32 1043.57 1389.33 1044.37L1366.73 1050.43C1363.75 1051.23 1362.75 1054.96 1364.95 1057.14L1381.44 1073.49Z" fill="#FAFAFA"/>
<path d="M1107.66 1858.01C1105.5 1860.19 1106.49 1863.88 1109.45 1864.69L1131.85 1870.8C1134.83 1871.61 1137.57 1868.89 1136.77 1865.91L1130.71 1843.3C1129.91 1840.32 1126.18 1839.32 1124.01 1841.52L1107.66 1858.01Z" fill="#FAFAFA"/>
<path d="M1497.43 1316.37L1480.46 1299.4C1478.89 1297.84 1476.36 1297.84 1474.8 1299.4L1457.83 1316.37C1456.27 1317.93 1456.27 1320.46 1457.83 1322.03L1474.8 1339C1476.36 1340.56 1478.89 1340.56 1480.46 1339L1497.43 1322.03C1498.99 1320.46 1498.99 1317.93 1497.43 1316.37Z" fill="#FAFAFA"/>
<path d="M1270.67 1434.89C1271.31 1436.17 1272.98 1436.6 1274.19 1435.8C1275.86 1434.71 1278.09 1435.96 1277.95 1437.91C1277.84 1439.33 1279.06 1440.51 1280.53 1440.41C1282.53 1440.26 1283.83 1442.43 1282.7 1444.05C1281.87 1445.23 1282.32 1446.85 1283.64 1447.47C1285.45 1448.32 1285.45 1450.82 1283.64 1451.67C1282.32 1452.29 1281.87 1453.91 1282.7 1455.09C1283.83 1456.71 1282.54 1458.87 1280.53 1458.73C1279.06 1458.63 1277.84 1459.82 1277.95 1461.23C1278.1 1463.18 1275.86 1464.43 1274.19 1463.34C1272.98 1462.54 1271.31 1462.97 1270.67 1464.25C1269.79 1466.01 1267.21 1466.01 1266.33 1464.25C1265.69 1462.97 1264.02 1462.54 1262.81 1463.34C1261.14 1464.43 1258.91 1463.18 1259.05 1461.23C1259.16 1459.81 1257.94 1458.63 1256.47 1458.73C1254.47 1458.88 1253.17 1456.71 1254.3 1455.09C1255.13 1453.91 1254.68 1452.29 1253.36 1451.67C1251.55 1450.83 1251.55 1448.32 1253.36 1447.47C1254.68 1446.85 1255.13 1445.23 1254.3 1444.05C1253.17 1442.43 1254.46 1440.27 1256.47 1440.41C1257.94 1440.51 1259.16 1439.33 1259.05 1437.91C1258.9 1435.96 1261.14 1434.71 1262.81 1435.8C1264.02 1436.6 1265.69 1436.17 1266.33 1434.89C1267.21 1433.13 1269.79 1433.13 1270.67 1434.89Z" fill="#FAFAFA"/>
<path d="M543 854.571C554.046 854.571 563 845.616 563 834.571C563 823.525 554.046 814.571 543 814.571C531.954 814.571 523 823.525 523 834.571C523 845.616 531.954 854.571 543 854.571Z" fill="#FAFAFA"/>
<path d="M807.426 939.37L790.455 922.399C788.893 920.837 786.361 920.837 784.799 922.399L767.828 939.37C766.266 940.932 766.266 943.465 767.828 945.027L784.799 961.997C786.361 963.559 788.893 963.559 790.455 961.997L807.426 945.027C808.988 943.465 808.988 940.932 807.426 939.37Z" fill="#FAFAFA"/>
<path d="M383.828 96.0267L400.799 112.997C402.361 114.559 404.893 114.559 406.455 112.997L423.426 96.0267C424.988 94.4646 424.988 91.9319 423.426 90.3698L406.455 73.3993C404.893 71.8372 402.361 71.8372 400.799 73.3993L383.828 90.3698C382.266 91.9319 382.266 94.4646 383.828 96.0267Z" fill="#FAFAFA"/>
<path d="M612.426 1353.37L595.455 1336.4C593.893 1334.84 591.361 1334.84 589.799 1336.4L572.828 1353.37C571.266 1354.93 571.266 1357.46 572.828 1359.03L589.799 1376C591.361 1377.56 593.893 1377.56 595.455 1376L612.426 1359.03C613.988 1357.46 613.988 1354.93 612.426 1353.37Z" fill="#FAFAFA"/>
<path d="M945.641 1262.75L929.641 1235.03C928.536 1233.12 926.09 1232.47 924.177 1233.57L896.464 1249.57C894.551 1250.68 893.895 1253.12 895 1255.03L911 1282.75C912.104 1284.66 914.551 1285.32 916.464 1284.21L944.177 1268.21C946.09 1267.11 946.745 1264.66 945.641 1262.75Z" fill="#FAFAFA"/>
<path d="M419.06 1127.27C422.016 1126.46 423.005 1122.77 420.849 1120.59L397.98 1097.52C395.807 1095.32 392.074 1096.32 391.275 1099.3L382.802 1130.92C382.003 1133.9 384.74 1136.63 387.718 1135.81L419.06 1127.27Z" fill="#FAFAFA"/>
<path d="M627.655 29.3048C624.699 30.1109 623.71 33.8038 625.866 35.9796L648.735 59.0538C650.908 61.2465 654.64 60.2553 655.439 57.2734L663.913 25.6505C664.712 22.6686 661.975 19.9439 658.997 20.7562L627.655 29.3048Z" fill="#FAFAFA"/>
<path d="M851.67 1038.89C852.309 1040.17 853.977 1040.6 855.191 1039.8C856.86 1038.71 859.093 1039.96 858.95 1041.91C858.845 1043.33 860.064 1044.51 861.527 1044.41C863.533 1044.26 864.827 1046.43 863.697 1048.05C862.873 1049.23 863.317 1050.85 864.642 1051.47C866.453 1052.32 866.453 1054.82 864.642 1055.67C863.322 1056.29 862.873 1057.91 863.697 1059.09C864.827 1060.71 863.538 1062.87 861.527 1062.73C860.059 1062.63 858.845 1063.82 858.95 1065.23C859.098 1067.18 856.86 1068.43 855.191 1067.34C853.977 1066.54 852.309 1066.97 851.67 1068.25C850.794 1070.01 848.212 1070.01 847.33 1068.25C846.691 1066.97 845.023 1066.54 843.809 1067.34C842.14 1068.43 839.907 1067.18 840.05 1065.23C840.155 1063.81 838.936 1062.63 837.473 1062.73C835.467 1062.88 834.173 1060.71 835.303 1059.09C836.127 1057.91 835.683 1056.29 834.358 1055.67C832.547 1054.83 832.547 1052.32 834.358 1051.47C835.678 1050.85 836.127 1049.23 835.303 1048.05C834.173 1046.43 835.462 1044.27 837.473 1044.41C838.941 1044.51 840.155 1043.33 840.05 1041.91C839.902 1039.96 842.14 1038.71 843.809 1039.8C845.023 1040.6 846.691 1040.17 847.33 1038.89C848.206 1037.13 850.794 1037.13 851.67 1038.89Z" fill="#FAFAFA"/>
<path d="M64.33 62.683C63.6912 61.4031 62.0229 60.9679 60.8086 61.7666C59.1402 62.8622 56.907 61.613 57.0496 59.6624C57.1552 58.2392 55.9355 57.0617 54.4731 57.1641C52.4668 57.3074 51.1734 55.1367 52.3032 53.5189C53.1269 52.3414 52.6834 50.7236 51.3582 50.1041C49.5473 49.2543 49.5473 46.7508 51.3582 45.8958C52.6781 45.2764 53.1269 43.6586 52.3032 42.4811C51.1734 40.8633 52.4616 38.6977 54.4731 38.8359C55.9408 38.9383 57.1552 37.7557 57.0496 36.3376C56.9018 34.3921 59.1402 33.1378 60.8086 34.2334C62.0229 35.0321 63.6912 34.602 64.33 33.317C65.2064 31.561 67.7883 31.561 68.67 33.317C69.3088 34.5969 70.9771 35.0321 72.1914 34.2334C73.8598 33.1378 76.093 34.387 75.9504 36.3376C75.8448 37.7608 77.0645 38.9383 78.5269 38.8359C80.5332 38.6926 81.8266 40.8633 80.6968 42.4811C79.8731 43.6586 80.3167 45.2764 81.6418 45.8958C83.4527 46.7457 83.4527 49.2492 81.6418 50.1042C80.3219 50.7236 79.8731 52.3414 80.6968 53.5189C81.8266 55.1367 80.5384 57.3023 78.5269 57.1641C77.0592 57.0617 75.8448 58.2443 75.9504 59.6624C76.0982 61.6079 73.8598 62.8622 72.1914 61.7666C70.9771 60.9679 69.3088 61.398 68.67 62.683C67.7936 64.439 65.2064 64.439 64.33 62.683Z" fill="#FAFAFA"/>
<path d="M631 1101.57C639.837 1101.57 647 1094.41 647 1085.57C647 1076.73 639.837 1069.57 631 1069.57C622.163 1069.57 615 1076.73 615 1085.57C615 1094.41 622.163 1101.57 631 1101.57Z" fill="#FAFAFA"/>
<path d="M285 -1.39876e-06C276.163 -2.17128e-06 269 7.16344 269 16C269 24.8366 276.163 32 285 32C293.837 32 301 24.8366 301 16C301 7.16344 293.837 -6.26248e-07 285 -1.39876e-06Z" fill="#FAFAFA"/>
<path d="M722.443 1331.49C724.619 1333.64 728.311 1332.65 729.118 1329.7L735.229 1307.29C736.041 1304.31 733.317 1301.57 730.335 1302.37L707.727 1308.43C704.745 1309.23 703.754 1312.96 705.947 1315.14L722.443 1331.49Z" fill="#FAFAFA"/>
<path d="M1017.43 1541.37L1000.46 1524.4C998.893 1522.84 996.361 1522.84 994.799 1524.4L977.828 1541.37C976.266 1542.93 976.266 1545.46 977.828 1547.03L994.799 1564C996.361 1565.56 998.893 1565.56 1000.46 1564L1017.43 1547.03C1018.99 1545.46 1018.99 1542.93 1017.43 1541.37Z" fill="#FAFAFA"/>
<path d="M806.67 1491.89C807.309 1493.17 808.977 1493.6 810.191 1492.8C811.86 1491.71 814.093 1492.96 813.95 1494.91C813.845 1496.33 815.064 1497.51 816.527 1497.41C818.533 1497.26 819.827 1499.43 818.697 1501.05C817.873 1502.23 818.317 1503.85 819.642 1504.47C821.453 1505.32 821.453 1507.82 819.642 1508.67C818.322 1509.29 817.873 1510.91 818.697 1512.09C819.827 1513.71 818.538 1515.87 816.527 1515.73C815.059 1515.63 813.845 1516.82 813.95 1518.23C814.098 1520.18 811.86 1521.43 810.191 1520.34C808.977 1519.54 807.309 1519.97 806.67 1521.25C805.794 1523.01 803.212 1523.01 802.33 1521.25C801.691 1519.97 800.023 1519.54 798.809 1520.34C797.14 1521.43 794.907 1520.18 795.05 1518.23C795.155 1516.81 793.936 1515.63 792.473 1515.73C790.467 1515.88 789.173 1513.71 790.303 1512.09C791.127 1510.91 790.683 1509.29 789.358 1508.67C787.547 1507.83 787.547 1505.32 789.358 1504.47C790.678 1503.85 791.127 1502.23 790.303 1501.05C789.173 1499.43 790.462 1497.27 792.473 1497.41C793.941 1497.51 795.155 1496.33 795.05 1494.91C794.902 1492.96 797.14 1491.71 798.809 1492.8C800.023 1493.6 801.691 1493.17 802.33 1491.89C803.206 1490.13 805.794 1490.13 806.67 1491.89Z" fill="#FAFAFA"/>
<path d="M886 161.571C897.046 161.571 906 152.616 906 141.571C906 130.525 897.046 121.571 886 121.571C874.954 121.571 866 130.525 866 141.571C866 152.616 874.954 161.571 886 161.571Z" fill="#FAFAFA"/>
<path d="M1061.43 89.3698L1044.46 72.3992C1042.89 70.8371 1040.36 70.8371 1038.8 72.3992L1021.83 89.3698C1020.27 90.9319 1020.27 93.4645 1021.83 95.0266L1038.8 111.997C1040.36 113.559 1042.89 113.559 1044.46 111.997L1061.43 95.0266C1062.99 93.4645 1062.99 90.9319 1061.43 89.3698Z" fill="#FAFAFA"/>
<path d="M885.426 493.37L868.455 476.399C866.893 474.837 864.361 474.837 862.799 476.399L845.828 493.37C844.266 494.932 844.266 497.465 845.828 499.027L862.799 515.997C864.361 517.559 866.893 517.559 868.455 515.997L885.426 499.027C886.988 497.465 886.988 494.932 885.426 493.37Z" fill="#FAFAFA"/>
<path d="M1293.64 338.748L1277.64 311.035C1276.54 309.122 1274.09 308.466 1272.18 309.571L1244.46 325.571C1242.55 326.675 1241.9 329.122 1243 331.035L1259 358.748C1260.1 360.661 1262.55 361.316 1264.46 360.212L1292.18 344.212C1294.09 343.107 1294.75 340.661 1293.64 338.748Z" fill="#FAFAFA"/>
<path d="M758.06 178.266C761.016 177.46 762.005 173.767 759.849 171.591L736.98 148.517C734.807 146.324 731.074 147.315 730.275 150.297L721.802 181.92C721.003 184.902 723.74 187.627 726.718 186.815L758.06 178.266Z" fill="#FAFAFA"/>
<path d="M1168.67 191.888C1169.31 193.168 1170.98 193.603 1172.19 192.804C1173.86 191.709 1176.09 192.958 1175.95 194.908C1175.84 196.332 1177.06 197.509 1178.53 197.407C1180.53 197.263 1181.83 199.434 1180.7 201.052C1179.87 202.229 1180.32 203.847 1181.64 204.467C1183.45 205.317 1183.45 207.82 1181.64 208.675C1180.32 209.294 1179.87 210.912 1180.7 212.09C1181.83 213.708 1180.54 215.873 1178.53 215.735C1177.06 215.632 1175.84 216.815 1175.95 218.233C1176.1 220.179 1173.86 221.433 1172.19 220.337C1170.98 219.539 1169.31 219.969 1168.67 221.254C1167.79 223.01 1165.21 223.01 1164.33 221.254C1163.69 219.974 1162.02 219.539 1160.81 220.337C1159.14 221.433 1156.91 220.184 1157.05 218.233C1157.16 216.81 1155.94 215.632 1154.47 215.735C1152.47 215.878 1151.17 213.708 1152.3 212.09C1153.13 210.912 1152.68 209.294 1151.36 208.675C1149.55 207.825 1149.55 205.322 1151.36 204.467C1152.68 203.847 1153.13 202.229 1152.3 201.052C1151.17 199.434 1152.46 197.269 1154.47 197.407C1155.94 197.509 1157.16 196.327 1157.05 194.908C1156.9 192.963 1159.14 191.709 1160.81 192.804C1162.02 193.603 1163.69 193.173 1164.33 191.888C1165.21 190.132 1167.79 190.132 1168.67 191.888Z" fill="#FAFAFA"/>
<path d="M772 362.571C780.837 362.571 788 355.407 788 346.571C788 337.734 780.837 330.571 772 330.571C763.163 330.571 756 337.734 756 346.571C756 355.407 763.163 362.571 772 362.571Z" fill="#FAFAFA"/>
<path d="M1019.44 415.485C1021.62 417.641 1025.31 416.652 1026.12 413.696L1032.23 391.29C1033.04 388.311 1030.32 385.574 1027.33 386.373L1004.73 392.431C1001.75 393.23 1000.75 396.963 1002.95 399.136L1019.44 415.485Z" fill="#FAFAFA"/>
<path d="M1154.43 487.37L1137.46 470.399C1135.89 468.837 1133.36 468.837 1131.8 470.399L1114.83 487.37C1113.27 488.932 1113.27 491.465 1114.83 493.027L1131.8 509.997C1133.36 511.559 1135.89 511.559 1137.46 509.997L1154.43 493.027C1155.99 491.465 1155.99 488.932 1154.43 487.37Z" fill="#FAFAFA"/>
<path d="M878.67 681.888C879.309 683.168 880.977 683.603 882.191 682.804C883.86 681.709 886.093 682.958 885.95 684.908C885.845 686.332 887.064 687.509 888.527 687.407C890.533 687.263 891.827 689.434 890.697 691.052C889.873 692.229 890.317 693.847 891.642 694.467C893.453 695.317 893.453 697.82 891.642 698.675C890.322 699.294 889.873 700.912 890.697 702.09C891.827 703.708 890.538 705.873 888.527 705.735C887.059 705.632 885.845 706.815 885.95 708.233C886.098 710.179 883.86 711.433 882.191 710.337C880.977 709.539 879.309 709.969 878.67 711.254C877.794 713.01 875.212 713.01 874.33 711.254C873.691 709.974 872.023 709.539 870.809 710.337C869.14 711.433 866.907 710.184 867.05 708.233C867.155 706.81 865.936 705.632 864.473 705.735C862.467 705.878 861.173 703.708 862.303 702.09C863.127 700.912 862.683 699.294 861.358 698.675C859.547 697.825 859.547 695.322 861.358 694.467C862.678 693.847 863.127 692.229 862.303 691.052C861.173 689.434 862.462 687.269 864.473 687.407C865.941 687.509 867.155 686.327 867.05 684.908C866.902 682.963 869.14 681.709 870.809 682.804C872.023 683.603 873.691 683.173 874.33 681.888C875.206 680.132 877.794 680.132 878.67 681.888Z" fill="#FAFAFA"/>
<path d="M250 262.571C261.046 262.571 270 253.616 270 242.571C270 231.525 261.046 222.571 250 222.571C238.954 222.571 230 231.525 230 242.571C230 253.616 238.954 262.571 250 262.571Z" fill="#FAFAFA"/>
<path d="M524.426 218.37L507.455 201.399C505.893 199.837 503.361 199.837 501.799 201.399L484.828 218.37C483.266 219.932 483.266 222.465 484.828 224.027L501.799 240.997C503.361 242.559 505.893 242.559 507.455 240.997L524.426 224.027C525.988 222.465 525.988 219.932 524.426 218.37Z" fill="#FAFAFA"/>
<path d="M329.426 632.37L312.455 615.399C310.893 613.837 308.361 613.837 306.799 615.399L289.828 632.37C288.266 633.932 288.266 636.465 289.828 638.027L306.799 654.997C308.361 656.559 310.893 656.559 312.455 654.997L329.426 638.027C330.988 636.465 330.988 633.932 329.426 632.37Z" fill="#FAFAFA"/>
<path d="M595.641 484.748L579.641 457.035C578.536 455.122 576.09 454.466 574.177 455.571L546.464 471.571C544.551 472.675 543.895 475.122 545 477.035L561 504.748C562.104 506.661 564.551 507.316 566.464 506.212L594.177 490.212C596.09 489.107 596.745 486.661 595.641 484.748Z" fill="#FAFAFA"/>
<path d="M204.06 378.266C207.016 377.46 208.005 373.767 205.849 371.591L182.98 348.517C180.807 346.324 177.074 347.315 176.275 350.297L167.802 381.92C167.003 384.902 169.74 387.627 172.718 386.815L204.06 378.266Z" fill="#FAFAFA"/>
<path d="M436.67 369.888C437.309 371.168 438.977 371.603 440.191 370.804C441.86 369.709 444.093 370.958 443.95 372.908C443.845 374.332 445.064 375.509 446.527 375.407C448.533 375.263 449.827 377.434 448.697 379.052C447.873 380.229 448.317 381.847 449.642 382.467C451.453 383.317 451.453 385.82 449.642 386.675C448.322 387.294 447.873 388.912 448.697 390.09C449.827 391.708 448.538 393.873 446.527 393.735C445.059 393.632 443.845 394.815 443.95 396.233C444.098 398.179 441.86 399.433 440.191 398.337C438.977 397.539 437.309 397.969 436.67 399.254C435.794 401.01 433.212 401.01 432.33 399.254C431.691 397.974 430.023 397.539 428.809 398.337C427.14 399.433 424.907 398.184 425.05 396.233C425.155 394.81 423.936 393.632 422.473 393.735C420.467 393.878 419.173 391.708 420.303 390.09C421.127 388.912 420.683 387.294 419.358 386.675C417.547 385.825 417.547 383.322 419.358 382.467C420.678 381.847 421.127 380.229 420.303 379.052C419.173 377.434 420.462 375.269 422.473 375.407C423.941 375.509 425.155 374.327 425.05 372.908C424.902 370.963 427.14 369.709 428.809 370.804C430.023 371.603 431.691 371.173 432.33 369.888C433.206 368.132 435.794 368.132 436.67 369.888Z" fill="#FAFAFA"/>
<path d="M208 505.571C216.837 505.571 224 498.407 224 489.571C224 480.734 216.837 473.571 208 473.571C199.163 473.571 192 480.734 192 489.571C192 498.407 199.163 505.571 208 505.571Z" fill="#FAFAFA"/>
<path d="M439.443 610.485C441.619 612.642 445.311 611.652 446.118 608.697L452.229 586.29C453.041 583.312 450.317 580.575 447.335 581.374L424.727 587.431C421.745 588.23 420.754 591.963 422.947 594.136L439.443 610.485Z" fill="#FAFAFA"/>
<path d="M690.426 693.37L673.455 676.399C671.893 674.837 669.361 674.837 667.799 676.399L650.828 693.37C649.266 694.932 649.266 697.465 650.828 699.027L667.799 715.997C669.361 717.559 671.893 717.559 673.455 715.997L690.426 699.027C691.988 697.465 691.988 694.932 690.426 693.37Z" fill="#FAFAFA"/>
<path d="M383.67 808.888C384.309 810.168 385.977 810.603 387.191 809.804C388.86 808.709 391.093 809.958 390.95 811.908C390.845 813.332 392.064 814.509 393.527 814.407C395.533 814.263 396.827 816.434 395.697 818.052C394.873 819.229 395.317 820.847 396.642 821.467C398.453 822.317 398.453 824.82 396.642 825.675C395.322 826.294 394.873 827.912 395.697 829.09C396.827 830.708 395.538 832.873 393.527 832.735C392.059 832.632 390.845 833.815 390.95 835.233C391.098 837.179 388.86 838.433 387.191 837.337C385.977 836.539 384.309 836.969 383.67 838.254C382.794 840.01 380.212 840.01 379.33 838.254C378.691 836.974 377.023 836.539 375.809 837.337C374.14 838.433 371.907 837.184 372.05 835.233C372.155 833.81 370.936 832.632 369.473 832.735C367.467 832.878 366.173 830.708 367.303 829.09C368.127 827.912 367.683 826.294 366.358 825.675C364.547 824.825 364.547 822.322 366.358 821.467C367.678 820.847 368.127 819.229 367.303 818.052C366.173 816.434 367.462 814.269 369.473 814.407C370.941 814.509 372.155 813.327 372.05 811.908C371.902 809.963 374.14 808.709 375.809 809.804C377.023 810.603 378.691 810.173 379.33 808.888C380.206 807.132 382.794 807.132 383.67 808.888Z" fill="#FAFAFA"/>
<path d="M185 1449.57C196.046 1449.57 205 1440.62 205 1429.57C205 1418.53 196.046 1409.57 185 1409.57C173.954 1409.57 165 1418.53 165 1429.57C165 1440.62 173.954 1449.57 185 1449.57Z" fill="#FAFAFA"/>
<path d="M459.426 1405.37L442.455 1388.4C440.893 1386.84 438.361 1386.84 436.799 1388.4L419.828 1405.37C418.266 1406.93 418.266 1409.46 419.828 1411.03L436.799 1428C438.361 1429.56 440.893 1429.56 442.455 1428L459.426 1411.03C460.988 1409.46 460.988 1406.93 459.426 1405.37Z" fill="#FAFAFA"/>
<path d="M284.426 1857.37L267.455 1840.4C265.893 1838.84 263.361 1838.84 261.799 1840.4L244.828 1857.37C243.266 1858.93 243.266 1861.46 244.828 1863.03L261.799 1880C263.361 1881.56 265.893 1881.56 267.455 1880L284.426 1863.03C285.988 1861.46 285.988 1858.93 284.426 1857.37Z" fill="#FAFAFA"/>
<path d="M587.641 1696.75L571.641 1669.03C570.536 1667.12 568.09 1666.47 566.177 1667.57L538.464 1683.57C536.551 1684.68 535.895 1687.12 537 1689.03L553 1716.75C554.104 1718.66 556.551 1719.32 558.464 1718.21L586.177 1702.21C588.09 1701.11 588.745 1698.66 587.641 1696.75Z" fill="#FAFAFA"/>
<path d="M46.0602 1557.27C49.0156 1556.46 50.0051 1552.77 47.8488 1550.59L24.9801 1527.52C22.807 1525.32 19.0744 1526.32 18.2754 1529.3L9.80204 1560.92C9.00303 1563.9 11.7399 1566.63 14.7183 1565.81L46.0602 1557.27Z" fill="#FAFAFA"/>
<path d="M673.67 1609.89C674.309 1611.17 675.977 1611.6 677.191 1610.8C678.86 1609.71 681.093 1610.96 680.95 1612.91C680.845 1614.33 682.064 1615.51 683.527 1615.41C685.533 1615.26 686.827 1617.43 685.697 1619.05C684.873 1620.23 685.317 1621.85 686.642 1622.47C688.453 1623.32 688.453 1625.82 686.642 1626.67C685.322 1627.29 684.873 1628.91 685.697 1630.09C686.827 1631.71 685.538 1633.87 683.527 1633.73C682.059 1633.63 680.845 1634.82 680.95 1636.23C681.098 1638.18 678.86 1639.43 677.191 1638.34C675.977 1637.54 674.309 1637.97 673.67 1639.25C672.794 1641.01 670.212 1641.01 669.33 1639.25C668.691 1637.97 667.023 1637.54 665.809 1638.34C664.14 1639.43 661.907 1638.18 662.05 1636.23C662.155 1634.81 660.936 1633.63 659.473 1633.73C657.467 1633.88 656.173 1631.71 657.303 1630.09C658.127 1628.91 657.683 1627.29 656.358 1626.67C654.547 1625.83 654.547 1623.32 656.358 1622.47C657.678 1621.85 658.127 1620.23 657.303 1619.05C656.173 1617.43 657.462 1615.27 659.473 1615.41C660.941 1615.51 662.155 1614.33 662.05 1612.91C661.902 1610.96 664.14 1609.71 665.809 1610.8C667.023 1611.6 668.691 1611.17 669.33 1609.89C670.206 1608.13 672.794 1608.13 673.67 1609.89Z" fill="#FAFAFA"/>
<path d="M71 1777.57C79.8366 1777.57 87 1770.41 87 1761.57C87 1752.73 79.8366 1745.57 71 1745.57C62.1634 1745.57 55 1752.73 55 1761.57C55 1770.41 62.1634 1777.57 71 1777.57Z" fill="#FAFAFA"/>
<path d="M337.443 1676.48C339.619 1678.64 343.311 1677.65 344.118 1674.7L350.229 1652.29C351.041 1649.31 348.317 1646.57 345.335 1647.37L322.727 1653.43C319.745 1654.23 318.754 1657.96 320.947 1660.14L337.443 1676.48Z" fill="#FAFAFA"/>
<path d="M837.426 1797.37L820.455 1780.4C818.893 1778.84 816.361 1778.84 814.799 1780.4L797.828 1797.37C796.266 1798.93 796.266 1801.46 797.828 1803.03L814.799 1820C816.361 1821.56 818.893 1821.56 820.455 1820L837.426 1803.03C838.988 1801.46 838.988 1798.93 837.426 1797.37Z" fill="#FAFAFA"/>
<path d="M552.67 1845.89C553.309 1847.17 554.977 1847.6 556.191 1846.8C557.86 1845.71 560.093 1846.96 559.95 1848.91C559.845 1850.33 561.064 1851.51 562.527 1851.41C564.533 1851.26 565.827 1853.43 564.697 1855.05C563.873 1856.23 564.317 1857.85 565.642 1858.47C567.453 1859.32 567.453 1861.82 565.642 1862.67C564.322 1863.29 563.873 1864.91 564.697 1866.09C565.827 1867.71 564.538 1869.87 562.527 1869.73C561.059 1869.63 559.845 1870.82 559.95 1872.23C560.098 1874.18 557.86 1875.43 556.191 1874.34C554.977 1873.54 553.309 1873.97 552.67 1875.25C551.794 1877.01 549.212 1877.01 548.33 1875.25C547.691 1873.97 546.023 1873.54 544.809 1874.34C543.14 1875.43 540.907 1874.18 541.05 1872.23C541.155 1870.81 539.936 1869.63 538.473 1869.73C536.467 1869.88 535.173 1867.71 536.303 1866.09C537.127 1864.91 536.683 1863.29 535.358 1862.67C533.547 1861.83 533.547 1859.32 535.358 1858.47C536.678 1857.85 537.127 1856.23 536.303 1855.05C535.173 1853.43 536.462 1851.27 538.473 1851.41C539.941 1851.51 541.155 1850.33 541.05 1848.91C540.902 1846.96 543.14 1845.71 544.809 1846.8C546.023 1847.6 547.691 1847.17 548.33 1845.89C549.206 1844.13 551.794 1844.13 552.67 1845.89Z" fill="#FAFAFA"/>
<path d="M-9 811.571C2.04569 811.571 11 802.616 11 791.571C11 780.525 2.04569 771.571 -9 771.571C-20.0457 771.571 -29 780.525 -29 791.571C-29 802.616 -20.0457 811.571 -9 811.571Z" fill="#FAFAFA"/>
<path d="M129.426 640.37L112.455 623.399C110.893 621.837 108.361 621.837 106.799 623.399L89.828 640.37C88.2659 641.932 88.2659 644.465 89.828 646.027L106.799 662.997C108.361 664.559 110.893 664.559 112.455 662.997L129.426 646.027C130.988 644.465 130.988 641.932 129.426 640.37Z" fill="#FAFAFA"/>
<path d="M78.4259 1183.37L61.4554 1166.4C59.8933 1164.84 57.3606 1164.84 55.7985 1166.4L38.828 1183.37C37.2659 1184.93 37.2659 1187.46 38.828 1189.03L55.7985 1206C57.3606 1207.56 59.8933 1207.56 61.4554 1206L78.4259 1189.03C79.988 1187.46 79.988 1184.93 78.4259 1183.37Z" fill="#FAFAFA"/>
<path d="M225.641 1114.75L209.641 1087.03C208.536 1085.12 206.09 1084.47 204.177 1085.57L176.464 1101.57C174.551 1102.68 173.895 1105.12 175 1107.03L191 1134.75C192.104 1136.66 194.551 1137.32 196.464 1136.21L224.177 1120.21C226.09 1119.11 226.745 1116.66 225.641 1114.75Z" fill="#FAFAFA"/>
<path d="M59.0602 546.266C62.0156 545.46 63.0051 541.767 60.8488 539.591L37.9801 516.517C35.807 514.324 32.0744 515.315 31.2754 518.297L22.802 549.92C22.003 552.902 24.7399 555.627 27.7183 554.815L59.0602 546.266Z" fill="#FAFAFA"/>
<path d="M203.67 890.888C204.309 892.168 205.977 892.603 207.191 891.804C208.86 890.709 211.093 891.958 210.95 893.908C210.845 895.332 212.064 896.509 213.527 896.407C215.533 896.263 216.827 898.434 215.697 900.052C214.873 901.229 215.317 902.847 216.642 903.467C218.453 904.317 218.453 906.82 216.642 907.675C215.322 908.294 214.873 909.912 215.697 911.09C216.827 912.708 215.538 914.873 213.527 914.735C212.059 914.632 210.845 915.815 210.95 917.233C211.098 919.179 208.86 920.433 207.191 919.337C205.977 918.539 204.309 918.969 203.67 920.254C202.794 922.01 200.212 922.01 199.33 920.254C198.691 918.974 197.023 918.539 195.809 919.337C194.14 920.433 191.907 919.184 192.05 917.233C192.155 915.81 190.936 914.632 189.473 914.735C187.467 914.878 186.173 912.708 187.303 911.09C188.127 909.912 187.683 908.294 186.358 907.675C184.547 906.825 184.547 904.322 186.358 903.467C187.678 902.847 188.127 901.229 187.303 900.052C186.173 898.434 187.462 896.269 189.473 896.407C190.941 896.509 192.155 895.327 192.05 893.908C191.902 891.963 194.14 890.709 195.809 891.804C197.023 892.603 198.691 892.173 199.33 890.888C200.206 889.132 202.794 889.132 203.67 890.888Z" fill="#FAFAFA"/>
<path d="M87 319.571C95.8366 319.571 103 312.407 103 303.571C103 294.734 95.8366 287.571 87 287.571C78.1634 287.571 71 294.734 71 303.571C71 312.407 78.1634 319.571 87 319.571Z" fill="#FAFAFA"/>
<path d="M10.4428 999.485C12.6185 1001.64 16.3114 1000.65 17.1175 997.696L23.229 975.29C24.0414 972.311 21.3167 969.574 18.3347 970.373L-4.27284 976.431C-7.25481 977.23 -8.246 980.963 -6.0533 983.136L10.4428 999.485Z" fill="#FAFAFA"/>
<path d="M221.426 1283.37L204.455 1266.4C202.893 1264.84 200.361 1264.84 198.799 1266.4L181.828 1283.37C180.266 1284.93 180.266 1287.46 181.828 1289.03L198.799 1306C200.361 1307.56 202.893 1307.56 204.455 1306L221.426 1289.03C222.988 1287.46 222.988 1284.93 221.426 1283.37Z" fill="#FAFAFA"/>
<path d="M1747 1027.57C1758.05 1027.57 1767 1018.62 1767 1007.57C1767 996.525 1758.05 987.571 1747 987.571C1735.95 987.571 1727 996.525 1727 1007.57C1727 1018.62 1735.95 1027.57 1747 1027.57Z" fill="#FAFAFA"/>
<path d="M1959.43 859.37L1942.46 842.399C1940.89 840.837 1938.36 840.837 1936.8 842.399L1919.83 859.37C1918.27 860.932 1918.27 863.465 1919.83 865.027L1936.8 881.997C1938.36 883.559 1940.89 883.559 1942.46 881.997L1959.43 865.027C1960.99 863.465 1960.99 860.932 1959.43 859.37Z" fill="#FAFAFA"/>
<path d="M1524.43 1628.37L1507.46 1611.4C1505.89 1609.84 1503.36 1609.84 1501.8 1611.4L1484.83 1628.37C1483.27 1629.93 1483.27 1632.46 1484.83 1634.03L1501.8 1651C1503.36 1652.56 1505.89 1652.56 1507.46 1651L1524.43 1634.03C1525.99 1632.46 1525.99 1629.93 1524.43 1628.37Z" fill="#FAFAFA"/>
<path d="M1819.64 1555.75L1803.64 1528.03C1802.54 1526.12 1800.09 1525.47 1798.18 1526.57L1770.46 1542.57C1768.55 1543.68 1767.9 1546.12 1769 1548.03L1785 1575.75C1786.1 1577.66 1788.55 1578.32 1790.46 1577.21L1818.18 1561.21C1820.09 1560.11 1820.75 1557.66 1819.64 1555.75Z" fill="#FAFAFA"/>
<path d="M1701.06 1143.27C1704.02 1142.46 1705.01 1138.77 1702.85 1136.59L1679.98 1113.52C1677.81 1111.32 1674.07 1112.32 1673.28 1115.3L1664.8 1146.92C1664 1149.9 1666.74 1152.63 1669.72 1151.81L1701.06 1143.27Z" fill="#FAFAFA"/>
<path d="M1721 1352.57C1729.84 1352.57 1737 1345.41 1737 1336.57C1737 1327.73 1729.84 1320.57 1721 1320.57C1712.16 1320.57 1705 1327.73 1705 1336.57C1705 1345.41 1712.16 1352.57 1721 1352.57Z" fill="#FAFAFA"/>
<path d="M1894.44 1253.48C1896.62 1255.64 1900.31 1254.65 1901.12 1251.7L1907.23 1229.29C1908.04 1226.31 1905.32 1223.57 1902.33 1224.37L1879.73 1230.43C1876.75 1231.23 1875.75 1234.96 1877.95 1237.14L1894.44 1253.48Z" fill="#FAFAFA"/>
<path d="M1927.43 1430.37L1910.46 1413.4C1908.89 1411.84 1906.36 1411.84 1904.8 1413.4L1887.83 1430.37C1886.27 1431.93 1886.27 1434.46 1887.83 1436.03L1904.8 1453C1906.36 1454.56 1908.89 1454.56 1910.46 1453L1927.43 1436.03C1928.99 1434.46 1928.99 1431.93 1927.43 1430.37Z" fill="#FAFAFA"/>
<path d="M1580.67 1440.89C1581.31 1442.17 1582.98 1442.6 1584.19 1441.8C1585.86 1440.71 1588.09 1441.96 1587.95 1443.91C1587.84 1445.33 1589.06 1446.51 1590.53 1446.41C1592.53 1446.26 1593.83 1448.43 1592.7 1450.05C1591.87 1451.23 1592.32 1452.85 1593.64 1453.47C1595.45 1454.32 1595.45 1456.82 1593.64 1457.67C1592.32 1458.29 1591.87 1459.91 1592.7 1461.09C1593.83 1462.71 1592.54 1464.87 1590.53 1464.73C1589.06 1464.63 1587.84 1465.82 1587.95 1467.23C1588.1 1469.18 1585.86 1470.43 1584.19 1469.34C1582.98 1468.54 1581.31 1468.97 1580.67 1470.25C1579.79 1472.01 1577.21 1472.01 1576.33 1470.25C1575.69 1468.97 1574.02 1468.54 1572.81 1469.34C1571.14 1470.43 1568.91 1469.18 1569.05 1467.23C1569.16 1465.81 1567.94 1464.63 1566.47 1464.73C1564.47 1464.88 1563.17 1462.71 1564.3 1461.09C1565.13 1459.91 1564.68 1458.29 1563.36 1457.67C1561.55 1456.83 1561.55 1454.32 1563.36 1453.47C1564.68 1452.85 1565.13 1451.23 1564.3 1450.05C1563.17 1448.43 1564.46 1446.27 1566.47 1446.41C1567.94 1446.51 1569.16 1445.33 1569.05 1443.91C1568.9 1441.96 1571.14 1440.71 1572.81 1441.8C1574.02 1442.6 1575.69 1442.17 1576.33 1440.89C1577.21 1439.13 1579.79 1439.13 1580.67 1440.89Z" fill="#FAFAFA"/>
<path d="M1683 263.571C1694.05 263.571 1703 254.616 1703 243.571C1703 232.525 1694.05 223.571 1683 223.571C1671.95 223.571 1663 232.525 1663 243.571C1663 254.616 1671.95 263.571 1683 263.571Z" fill="#FAFAFA"/>
<path d="M1727 1718.57C1727 1729.62 1735.95 1738.57 1747 1738.57C1758.05 1738.57 1767 1729.62 1767 1718.57C1767 1707.53 1758.05 1698.57 1747 1698.57C1735.95 1698.57 1727 1707.53 1727 1718.57Z" fill="#FAFAFA"/>
<path d="M1859.43 122.37L1842.46 105.399C1840.89 103.837 1838.36 103.837 1836.8 105.399L1819.83 122.37C1818.27 123.932 1818.27 126.465 1819.83 128.027L1836.8 144.997C1838.36 146.559 1840.89 146.559 1842.46 144.997L1859.43 128.027C1860.99 126.465 1860.99 123.932 1859.43 122.37Z" fill="#FAFAFA"/>
<path d="M1920.46 1803L1937.43 1786.03C1938.99 1784.46 1938.99 1781.93 1937.43 1780.37L1920.46 1763.4C1918.89 1761.84 1916.36 1761.84 1914.8 1763.4L1897.83 1780.37C1896.27 1781.93 1896.27 1784.46 1897.83 1786.03L1914.8 1803C1916.36 1804.56 1918.89 1804.56 1920.46 1803Z" fill="#FAFAFA"/>
<path d="M1611.43 576.37L1594.46 559.399C1592.89 557.837 1590.36 557.837 1588.8 559.399L1571.83 576.37C1570.27 577.932 1570.27 580.465 1571.83 582.027L1588.8 598.997C1590.36 600.559 1592.89 600.559 1594.46 598.997L1611.43 582.027C1612.99 580.465 1612.99 577.932 1611.43 576.37Z" fill="#FAFAFA"/>
<path d="M1914.64 334.748L1898.64 307.035C1897.54 305.122 1895.09 304.466 1893.18 305.571L1865.46 321.571C1863.55 322.675 1862.9 325.122 1864 327.035L1880 354.748C1881.1 356.661 1883.55 357.316 1885.46 356.212L1913.18 340.212C1915.09 339.107 1915.75 336.661 1914.64 334.748Z" fill="#FAFAFA"/>
<path d="M1730.46 1948.21L1758.18 1932.21C1760.09 1931.11 1760.75 1928.66 1759.64 1926.75L1743.64 1899.04C1742.54 1897.12 1740.09 1896.47 1738.18 1897.57L1710.46 1913.57C1708.55 1914.68 1707.9 1917.12 1709 1919.03L1725 1946.75C1726.1 1948.66 1728.55 1949.32 1730.46 1948.21Z" fill="#FAFAFA"/>
<path d="M1381.06 127.266C1384.02 126.46 1385.01 122.767 1382.85 120.591L1359.98 97.517C1357.81 95.3243 1354.07 96.3155 1353.28 99.2974L1344.8 130.92C1344 133.902 1346.74 136.627 1349.72 135.815L1381.06 127.266Z" fill="#FAFAFA"/>
<path d="M1554.67 126.888C1555.31 128.168 1556.98 128.603 1558.19 127.804C1559.86 126.709 1562.09 127.958 1561.95 129.908C1561.84 131.332 1563.06 132.509 1564.53 132.407C1566.53 132.263 1567.83 134.434 1566.7 136.052C1565.87 137.229 1566.32 138.847 1567.64 139.467C1569.45 140.317 1569.45 142.82 1567.64 143.675C1566.32 144.294 1565.87 145.912 1566.7 147.09C1567.83 148.708 1566.54 150.873 1564.53 150.735C1563.06 150.632 1561.84 151.815 1561.95 153.233C1562.1 155.179 1559.86 156.433 1558.19 155.337C1556.98 154.539 1555.31 154.969 1554.67 156.254C1553.79 158.01 1551.21 158.01 1550.33 156.254C1549.69 154.974 1548.02 154.539 1546.81 155.337C1545.14 156.433 1542.91 155.184 1543.05 153.233C1543.16 151.81 1541.94 150.632 1540.47 150.735C1538.47 150.878 1537.17 148.708 1538.3 147.09C1539.13 145.912 1538.68 144.294 1537.36 143.675C1535.55 142.825 1535.55 140.322 1537.36 139.467C1538.68 138.847 1539.13 137.229 1538.3 136.052C1537.17 134.434 1538.46 132.269 1540.47 132.407C1541.94 132.509 1543.16 131.327 1543.05 129.908C1542.9 127.963 1545.14 126.709 1546.81 127.804C1548.02 128.603 1549.69 128.173 1550.33 126.888C1551.21 125.132 1553.79 125.132 1554.67 126.888Z" fill="#FAFAFA"/>
<path d="M1527 355.571C1535.84 355.571 1543 348.407 1543 339.571C1543 330.734 1535.84 323.571 1527 323.571C1518.16 323.571 1511 330.734 1511 339.571C1511 348.407 1518.16 355.571 1527 355.571Z" fill="#FAFAFA"/>
<path d="M1758.44 460.485C1760.62 462.642 1764.31 461.652 1765.12 458.697L1771.23 436.29C1772.04 433.312 1769.32 430.575 1766.33 431.374L1743.73 437.431C1740.75 438.23 1739.75 441.963 1741.95 444.136L1758.44 460.485Z" fill="#FAFAFA"/>
<path d="M1526.66 1819.01C1524.5 1821.19 1525.49 1824.88 1528.45 1825.69L1550.85 1831.8C1553.83 1832.61 1556.57 1829.89 1555.77 1826.91L1549.71 1804.3C1548.91 1801.32 1545.18 1800.32 1543.01 1802.52L1526.66 1819.01Z" fill="#FAFAFA"/>
<path d="M1892.43 621.37L1875.46 604.399C1873.89 602.837 1871.36 602.837 1869.8 604.399L1852.83 621.37C1851.27 622.932 1851.27 625.465 1852.83 627.027L1869.8 643.997C1871.36 645.559 1873.89 645.559 1875.46 643.997L1892.43 627.027C1893.99 625.465 1893.99 622.932 1892.43 621.37Z" fill="#FAFAFA"/>
<path d="M1745.67 776.888C1746.31 778.168 1747.98 778.603 1749.19 777.804C1750.86 776.709 1753.09 777.958 1752.95 779.908C1752.84 781.332 1754.06 782.509 1755.53 782.407C1757.53 782.263 1758.83 784.434 1757.7 786.052C1756.87 787.229 1757.32 788.847 1758.64 789.467C1760.45 790.317 1760.45 792.82 1758.64 793.675C1757.32 794.294 1756.87 795.912 1757.7 797.09C1758.83 798.708 1757.54 800.873 1755.53 800.735C1754.06 800.632 1752.84 801.815 1752.95 803.233C1753.1 805.179 1750.86 806.433 1749.19 805.337C1747.98 804.539 1746.31 804.969 1745.67 806.254C1744.79 808.01 1742.21 808.01 1741.33 806.254C1740.69 804.974 1739.02 804.539 1737.81 805.337C1736.14 806.433 1733.91 805.184 1734.05 803.233C1734.16 801.81 1732.94 800.632 1731.47 800.735C1729.47 800.878 1728.17 798.708 1729.3 797.09C1730.13 795.912 1729.68 794.294 1728.36 793.675C1726.55 792.825 1726.55 790.322 1728.36 789.467C1729.68 788.847 1730.13 787.229 1729.3 786.052C1728.17 784.434 1729.46 782.269 1731.47 782.407C1732.94 782.509 1734.16 781.327 1734.05 779.908C1733.9 777.963 1736.14 776.709 1737.81 777.804C1739.02 778.603 1740.69 778.173 1741.33 776.888C1742.21 775.132 1744.79 775.132 1745.67 776.888Z" fill="#FAFAFA"/>
</svg>
