<svg width="440" height="230" viewBox="0 0 440 230" fill="none" xmlns="http://www.w3.org/2000/svg">
<path d="M0 209.034C0 220.613 98.4985 230 220 230C341.502 230 440 220.613 440 209.034H0Z" fill="url(#paint0_radial)"/>
<path d="M321.498 124.38H258.402L263.78 58.9331C264.056 55.5605 266.607 52.8112 269.941 52.3057C287.877 49.5944 304.815 49.4525 320.708 52.0079C324.463 52.6104 327.114 56.0245 326.804 59.8265L321.498 124.38Z" fill="#41414B"/>
<path d="M318.757 124.38H255.381L260.783 58.6421C261.063 55.2556 263.621 52.4925 266.973 51.9869C284.988 49.2653 302.002 49.1199 317.963 51.6891C321.736 52.2951 324.401 55.7231 324.087 59.5423L318.757 124.38Z" fill="#5A5A6B"/>
<path d="M262.879 117.454L267.663 59.2098C267.677 59.0193 267.822 58.8601 268.001 58.8324C277.042 57.4646 285.889 56.7721 294.301 56.7721C302.054 56.7721 309.651 57.3607 316.872 58.5242C317.08 58.5588 317.225 58.7527 317.207 58.9709L312.402 117.454H262.879Z" fill="#787885"/>
<path d="M242.678 70.3597L237.915 98.1229C237.145 102.597 232.972 105.647 228.491 105.014C223.807 104.352 220.597 99.9339 221.401 95.2594L226.161 67.4961C226.934 63.0154 231.118 59.9614 235.605 60.6055C240.286 61.2807 243.483 65.692 242.678 70.3597Z" fill="#FFDAE4"/>
<path d="M231.236 61.163C228.661 62.2295 226.673 64.5494 226.165 67.4961L225.371 72.1048C230.352 73.1782 237.014 74.7814 241.619 76.5093L242.679 70.3597C242.738 70.0273 242.769 69.6983 242.786 69.3694C238.937 66.6304 234.74 63.6491 231.236 61.163Z" fill="#FFCDDC"/>
<path d="M283.041 70.3597L287.805 98.1229C288.574 102.597 292.748 105.647 297.228 105.014C301.912 104.352 305.122 99.9339 304.318 95.2594L299.558 67.4961C298.785 63.0154 294.601 59.9614 290.114 60.6055C285.437 61.2807 282.24 65.692 283.041 70.3597Z" fill="#FFDAE4"/>
<path d="M294.484 61.163C297.059 62.2295 299.047 64.5494 299.555 67.4961L300.349 72.1048C295.368 73.1782 288.706 74.7814 284.101 76.5093L283.041 70.3597C282.982 70.0273 282.951 69.6983 282.934 69.3694C286.786 66.6304 290.984 63.6491 294.484 61.163Z" fill="#FFCDDC"/>
<path d="M237.332 72.7417C238.354 73.0084 239.037 73.971 238.958 75.0271L236.486 108.268C236.39 109.581 237.422 110.695 238.733 110.695H287.159C288.492 110.695 289.534 109.542 289.403 108.209L286.103 75.0963C285.996 74.0091 286.7 73.0084 287.757 72.7487L299.448 69.8712C300.504 69.6115 301.236 68.6074 301.108 67.5236C299.879 57.0249 288.585 48.3511 273.5 45.5256C272.606 45.3593 271.899 44.6737 271.73 43.7804C271.585 43.0186 271.056 42.3746 270.325 42.1287C265.423 40.4736 260.525 40.4771 255.63 42.1287C254.898 42.3746 254.37 43.0221 254.229 43.7804C254.06 44.6772 253.349 45.3593 252.455 45.5256C237.356 48.3545 226.055 57.0422 224.843 67.5513C224.719 68.6247 225.43 69.6185 226.472 69.892L237.332 72.7417Z" fill="#FF915A"/>
<path d="M271.761 47.9666L268.516 52.3572C267.995 53.0601 266.98 53.1501 266.348 52.5441L264.015 50.3107C263.435 49.7533 262.52 49.7533 261.937 50.3107L259.603 52.5441C258.972 53.1501 257.953 53.0601 257.436 52.3572L254.191 47.9666" stroke="#FF7837" stroke-width="0.722313" stroke-miterlimit="10" stroke-linecap="round" stroke-linejoin="round"/>
<path d="M262.962 53.8011C263.336 53.8011 263.639 53.4972 263.639 53.1224C263.639 52.7476 263.336 52.4437 262.962 52.4437C262.589 52.4437 262.286 52.7476 262.286 53.1224C262.286 53.4972 262.589 53.8011 262.962 53.8011Z" fill="white"/>
<path d="M262.962 55.8753C263.336 55.8753 263.639 55.5714 263.639 55.1966C263.639 54.8218 263.336 54.5179 262.962 54.5179C262.589 54.5179 262.286 54.8218 262.286 55.1966C262.286 55.5714 262.589 55.8753 262.962 55.8753Z" fill="white"/>
<path d="M256.828 82.8424C253.38 82.8424 251.743 85.3182 251.743 87.4027V88.8778L259.662 93.0364L259.434 84.4491L256.828 82.8424Z" fill="#FFE4EE"/>
<path d="M256.827 88.2789H249.113C247.904 88.2789 246.783 89.0857 246.548 90.2768C246.248 91.7969 247.311 93.1369 248.733 93.2928C247.563 93.5178 246.676 94.5497 246.676 95.7893V95.8516C246.676 97.2575 247.811 98.3967 249.213 98.3967H250.145C249.023 98.646 248.187 99.6501 248.187 100.848C248.187 101.887 248.816 102.777 249.71 103.158C251.536 104.203 254.149 104.886 256.852 105.055C256.855 105.055 256.855 105.055 256.859 105.055C257.069 105.069 257.283 105.08 257.494 105.086C257.504 105.086 257.514 105.086 257.525 105.086C257.742 105.093 257.96 105.097 258.177 105.097C258.181 105.097 258.184 105.097 258.184 105.097H274.743H296.054C300.683 105.097 304.439 101.333 304.439 96.6861C304.439 92.0428 300.687 88.2754 296.054 88.2754H274.352C271.101 88.1404 267.942 87.4998 265.233 85.6715C262.74 83.9922 259.813 83.0538 256.827 82.8391V88.2789Z" fill="#FFE4EE"/>
<path d="M250.988 98.3513H252.31" stroke="#FFBED2" stroke-width="0.722313" stroke-miterlimit="10" stroke-linecap="round" stroke-linejoin="round"/>
<path d="M249.807 93.2338H251.129" stroke="#FFBED2" stroke-width="0.722313" stroke-miterlimit="10" stroke-linecap="round" stroke-linejoin="round"/>
<path d="M254.167 88.2786H258.184C257.277 88.2647 256.824 87.6657 256.824 86.478V87.1532C256.824 87.7765 256.32 88.2786 255.703 88.2786H255.25C255.299 88.2786 256.9 88.2786 256.9 88.2786V87.4337" stroke="#FFBED2" stroke-width="0.722313" stroke-miterlimit="10" stroke-linecap="round" stroke-linejoin="round"/>
<path d="M268.826 27.0214L256.155 27.333L255.395 42.2777C254.984 46.7756 258.498 47.3677 263 47.2569C267.501 47.1461 270.98 46.3809 270.349 41.9072L268.826 27.0214Z" fill="#FFDAE4"/>
<path d="M266.117 34.6737C263.766 36.6405 260.69 42.4092 260.1 47.1841C257.466 46.9279 255.592 46.0138 255.385 43.4514C255.381 42.9667 255.381 42.5719 255.392 42.3642C255.395 42.3365 255.395 42.3088 255.399 42.2776L255.771 35.3039L266.117 34.6737Z" fill="#FFCDDC"/>
<path d="M244.619 18.6973C244.415 10.394 251.163 3.53799 259.541 3.73536C266.973 3.91195 273.2 9.89536 273.704 17.3331C273.935 20.7507 272.982 23.9432 271.212 26.5436C269.644 28.8463 268.246 31.2528 266.814 33.642C264.522 37.4647 260.145 39.899 255.216 39.3138C250.452 38.7494 246.441 35.221 245.233 30.5672C244.884 29.2272 244.781 27.9148 244.874 26.6579C245.053 24.286 244.864 21.9037 244.667 19.5318C244.639 19.2583 244.625 18.9813 244.619 18.6973Z" fill="#FFE4EE"/>
<path d="M267.929 17.6898L274.701 18.417C274.035 24.4073 269.102 29.809 269.102 29.809L268.153 27.1843C266.942 23.7875 268.008 20.9551 267.929 17.6898Z" fill="#787885"/>
<path d="M253.911 12.1218C253.911 12.1218 256.959 11.0795 258.944 12.5373C260.386 13.5968 256.348 9.61829 256.348 9.61829L249.085 9.79834L248.771 12.3018C248.771 12.2984 251.729 10.3731 253.911 12.1218Z" fill="#787885"/>
<path d="M266.645 19.9577C261.239 19.7776 259.938 14.7084 258.944 12.5373C258.077 10.6467 255.16 10.3801 253.949 12.0664L253.911 12.1218C253.904 12.1114 253.897 12.1045 253.89 12.0941C252.786 10.4216 250.359 10.3801 249.272 12.0629C248.533 13.2056 247.867 14.6114 247.283 16.0865C246.69 17.5789 246.234 18.4757 245.002 18.6488C244.791 18.68 244.639 18.8635 244.656 19.0747C244.719 19.7049 244.822 20.8649 244.77 20.858C240.317 20.4286 241.895 1.27685 252.451 0.113413C256.41 -0.319415 257.635 0.587792 258.012 1.13489C258.119 1.2907 258.329 1.32187 258.471 1.19721C258.871 0.847488 259.703 0.328095 261.153 0.293469C264.342 0.258843 269.168 2.39528 271.37 4.46939C275.185 8.13976 276.403 15.9549 275.046 18.3025C273.959 20.1828 271.612 20.1239 266.645 19.9577Z" fill="#2D2D37"/>
<path d="M267.186 23.4307C267.149 21.9002 268.263 20.6433 269.655 20.6814C270.887 20.716 271.922 21.8206 272.009 23.1918C272.05 23.822 271.891 24.4072 271.601 24.885C271.343 25.3074 271.111 25.7507 270.877 26.1904C270.497 26.8933 269.772 27.34 268.957 27.2292C268.167 27.1219 267.501 26.4709 267.297 25.6156C267.238 25.3698 267.221 25.1274 267.235 24.8954C267.262 24.4591 267.231 24.0193 267.197 23.5831C267.19 23.5311 267.186 23.4826 267.186 23.4307Z" fill="#FFE4EE"/>
<path d="M269.534 25.0548C269.168 24.6877 269.168 24.0887 269.534 23.7217L269.938 23.3165" stroke="#FFBED2" stroke-width="0.700471" stroke-miterlimit="10" stroke-linecap="round" stroke-linejoin="round"/>
<path d="M254.042 21.5195C253.676 21.7377 252.371 22.3194 252.396 23.2578C252.42 24.1927 253.193 24.9337 254.125 24.9094" stroke="#FFBED2" stroke-width="0.700471" stroke-miterlimit="10" stroke-linecap="round" stroke-linejoin="round"/>
<path d="M250.249 24.2407C251.128 24.2407 251.84 23.2454 251.84 22.0177C251.84 20.7899 251.128 19.7947 250.249 19.7947C249.37 19.7947 248.657 20.7899 248.657 22.0177C248.657 23.2454 249.37 24.2407 250.249 24.2407Z" fill="white"/>
<path d="M249.638 23.3886C250.179 23.3886 250.618 22.7747 250.618 22.0174C250.618 21.2601 250.179 20.6462 249.638 20.6462C249.096 20.6462 248.657 21.2601 248.657 22.0174C248.657 22.7747 249.096 23.3886 249.638 23.3886Z" fill="#2D2D37"/>
<path d="M258.15 24.2407C259.029 24.2407 259.741 23.2454 259.741 22.0177C259.741 20.7899 259.029 19.7947 258.15 19.7947C257.271 19.7947 256.559 20.7899 256.559 22.0177C256.559 23.2454 257.271 24.2407 258.15 24.2407Z" fill="white"/>
<path d="M257.508 23.3438C258.032 23.3438 258.457 22.75 258.457 22.0176C258.457 21.2852 258.032 20.6914 257.508 20.6914C256.984 20.6914 256.559 21.2852 256.559 22.0176C256.559 22.75 256.984 23.3438 257.508 23.3438Z" fill="#2D2D37"/>
<path d="M253.666 32.0837C254.625 32.0837 255.402 30.9986 255.402 29.6599C255.402 28.3213 254.625 27.2361 253.666 27.2361C252.707 27.2361 251.929 28.3213 251.929 29.6599C251.929 30.9986 252.707 32.0837 253.666 32.0837Z" fill="#FF7BA4"/>
<path d="M215.012 145.796L214.473 187.292C214.48 188.802 213.938 190.246 212.982 191.26C210.058 194.37 209.734 196.087 205.778 196.101L201.415 196.122C198.899 196.132 196.866 198.528 196.879 201.475C196.893 204.422 198.944 206.801 201.46 206.79L214.553 206.735L225.471 206.69C228.526 206.676 230.701 203.224 229.81 199.806L229.016 196.759C228.885 196.264 228.819 195.748 228.816 195.228L229.32 145.741L215.012 145.796Z" fill="#FFE4EE"/>
<path d="M231.008 203.082L229.451 187.105C229.413 186.71 229.082 186.413 228.688 186.413H214.698C214.411 186.413 214.145 186.572 214.018 186.828C213.096 188.649 210.814 195.859 202.157 195.859C192.247 195.859 194.221 207.271 197.78 207.271H227.228C229.472 207.268 231.225 205.325 231.008 203.082Z" fill="#FD5768"/>
<path d="M214.629 175.142L214.542 181.977H228.954L229.023 175.142H214.629Z" fill="#FFCDDC"/>
<path d="M197.777 207.268H207.27V206.146C207.27 196.049 202.154 195.859 202.154 195.859C192.244 195.855 194.218 207.268 197.777 207.268Z" fill="#F5F5F9"/>
<path d="M196.117 209.03H230.124C230.918 209.03 231.564 208.383 231.564 207.586C231.564 206.79 230.918 206.142 230.124 206.142H196.117C195.323 206.142 194.677 206.79 194.677 207.586C194.677 208.386 195.319 209.03 196.117 209.03Z" fill="#E5E5EB"/>
<path d="M215.012 145.796L214.473 187.292C214.48 188.802 213.938 190.246 212.982 191.26C210.058 194.37 209.734 196.087 205.778 196.101L201.415 196.122C198.899 196.132 196.866 198.528 196.879 201.475C196.893 204.422 198.944 206.801 201.46 206.79L214.553 206.735L225.471 206.69C228.526 206.676 230.701 203.224 229.81 199.806L229.016 196.759C228.885 196.264 228.819 195.748 228.816 195.228L229.32 145.741L215.012 145.796Z" fill="#FFE4EE"/>
<path d="M214.629 175.142L214.542 181.977H228.954L229.023 175.142H214.629Z" fill="#FFCDDC"/>
<path d="M231.008 203.082L229.451 187.105C229.413 186.71 229.082 186.413 228.688 186.413H214.698C214.411 186.413 214.145 186.572 214.018 186.828C213.096 188.649 210.814 195.859 202.157 195.859C192.247 195.859 194.221 207.271 197.78 207.271H227.228C229.472 207.268 231.225 205.325 231.008 203.082Z" fill="#FF915A"/>
<path d="M197.777 207.268H207.27V206.146C207.27 196.049 202.154 195.859 202.154 195.859C192.244 195.855 194.218 207.268 197.777 207.268Z" fill="#F5F5F9"/>
<path d="M196.117 209.03H230.124C230.918 209.03 231.564 208.383 231.564 207.586C231.564 206.79 230.918 206.142 230.124 206.142H196.117C195.323 206.142 194.677 206.79 194.677 207.586C194.677 208.386 195.319 209.03 196.117 209.03Z" fill="#E5E5EB"/>
<path d="M216.331 192.926C216.897 192.926 217.356 192.465 217.356 191.897C217.356 191.329 216.897 190.869 216.331 190.869C215.765 190.869 215.306 191.329 215.306 191.897C215.306 192.465 215.765 192.926 216.331 192.926Z" fill="white"/>
<path d="M214.146 195.845C214.712 195.845 215.171 195.385 215.171 194.817C215.171 194.249 214.712 193.788 214.146 193.788C213.58 193.788 213.121 194.249 213.121 194.817C213.121 195.385 213.58 195.845 214.146 195.845Z" fill="white"/>
<path d="M211.401 198.258C211.967 198.258 212.426 197.798 212.426 197.23C212.426 196.662 211.967 196.201 211.401 196.201C210.835 196.201 210.376 196.662 210.376 197.23C210.376 197.798 210.835 198.258 211.401 198.258Z" fill="white"/>
<path d="M212.43 194.076L210.514 192.521C210.735 192.296 210.946 192.067 211.139 191.832L213.014 193.352L212.43 194.076Z" fill="white"/>
<path d="M209.986 196.101L208.55 194.131C208.816 193.961 209.065 193.778 209.306 193.594L210.735 195.55L209.986 196.101Z" fill="white"/>
<path d="M214.439 191.464L212.185 190.415C212.357 190.142 212.516 189.875 212.665 189.615L214.829 190.623L214.439 191.464Z" fill="white"/>
<path d="M245.36 145.796L244.822 187.292C244.829 188.802 244.287 190.245 243.331 191.26C240.407 194.369 240.082 196.087 236.127 196.101L231.764 196.118C229.247 196.128 227.214 198.525 227.228 201.471C227.242 204.418 229.292 206.797 231.808 206.786L244.901 206.731L255.819 206.686C258.874 206.672 261.049 203.22 260.158 199.802L259.364 196.755C259.233 196.26 259.168 195.744 259.164 195.225L259.668 145.737L245.36 145.796Z" fill="#FFE4EE"/>
<path d="M244.981 175.141L244.891 181.976H259.302L259.371 175.141H244.981Z" fill="#FFCDDC"/>
<path d="M261.36 203.081L259.803 187.105C259.765 186.71 259.433 186.412 259.04 186.412H245.046C244.76 186.412 244.494 186.572 244.366 186.828C243.445 188.649 241.163 195.858 232.506 195.858C222.595 195.858 224.57 207.271 228.129 207.271H257.576C259.82 207.268 261.577 205.325 261.36 203.081Z" fill="#FF915A"/>
<path d="M228.129 207.267H237.621V206.146C237.621 196.049 232.506 195.858 232.506 195.858C222.592 195.855 224.57 207.267 228.129 207.267Z" fill="#F5F5F9"/>
<path d="M226.465 209.03H260.473C261.267 209.03 261.912 208.383 261.912 207.586C261.912 206.79 261.267 206.142 260.473 206.142H226.465C225.671 206.142 225.026 206.79 225.026 207.586C225.026 208.386 225.671 209.03 226.465 209.03Z" fill="#E5E5EB"/>
<path d="M246.682 192.925C247.249 192.925 247.708 192.465 247.708 191.897C247.708 191.329 247.249 190.868 246.682 190.868C246.116 190.868 245.657 191.329 245.657 191.897C245.657 192.465 246.116 192.925 246.682 192.925Z" fill="white"/>
<path d="M244.497 195.845C245.064 195.845 245.523 195.384 245.523 194.816C245.523 194.248 245.064 193.788 244.497 193.788C243.931 193.788 243.472 194.248 243.472 194.816C243.472 195.384 243.931 195.845 244.497 195.845Z" fill="white"/>
<path d="M241.75 198.258C242.316 198.258 242.775 197.798 242.775 197.23C242.775 196.662 242.316 196.201 241.75 196.201C241.184 196.201 240.725 196.662 240.725 197.23C240.725 197.798 241.184 198.258 241.75 198.258Z" fill="white"/>
<path d="M242.782 194.075L240.866 192.521C241.087 192.296 241.297 192.067 241.491 191.832L243.365 193.352L242.782 194.075Z" fill="white"/>
<path d="M240.338 196.101L238.902 194.13C239.168 193.961 239.416 193.777 239.658 193.594L241.087 195.55L240.338 196.101Z" fill="white"/>
<path d="M244.787 191.464L242.533 190.415C242.706 190.141 242.865 189.875 243.013 189.615L245.178 190.623L244.787 191.464Z" fill="white"/>
<path d="M237.142 113.04V176.008C237.142 178.414 239.085 180.364 241.484 180.364H262.768C265.209 180.364 267.166 178.355 267.107 175.907C265.951 129.172 267.711 119.546 260.148 113.043" fill="#F5F5F9"/>
<path d="M237.142 113.04V176.007C237.142 178.414 235.198 180.363 232.799 180.363H211.515C209.075 180.363 207.118 178.355 207.176 175.907C208.333 129.172 206.572 119.546 214.135 113.043" fill="#F5F5F9"/>
<path d="M237.142 175.142V120.661" stroke="#CCCCD2" stroke-width="0.700471" stroke-miterlimit="10" stroke-linecap="round" stroke-linejoin="round"/>
<path d="M239.641 121.897V128.649C239.641 130.249 238.523 131.544 237.142 131.544" stroke="#CCCCD2" stroke-width="0.700471" stroke-miterlimit="10" stroke-linecap="round" stroke-linejoin="round"/>
<path d="M251.57 119.969L251.884 125.769C252.14 130.523 256.058 134.245 260.804 134.245" stroke="#CCCCD2" stroke-width="0.700471" stroke-miterlimit="10" stroke-linecap="round" stroke-linejoin="round"/>
<path d="M222.713 119.969L222.399 125.769C222.144 130.523 218.226 134.245 213.479 134.245" stroke="#CCCCD2" stroke-width="0.700471" stroke-miterlimit="10" stroke-linecap="round" stroke-linejoin="round"/>
<path d="M202.744 209.031C207.429 209.031 211.06 204.924 210.497 200.26L200.363 115.883C199.89 111.946 196.562 108.985 192.61 108.985H135.848C131.716 108.985 128.298 112.212 128.05 116.35L122.986 200.727C122.717 205.232 126.283 209.034 130.784 209.034H202.744V209.031Z" fill="#B4B4BE"/>
<g opacity="0.4">
<path opacity="0.4" d="M202.744 209.031C207.429 209.031 211.06 204.924 210.497 200.26L200.363 115.883C199.89 111.946 196.562 108.985 192.61 108.985H135.848C131.716 108.985 128.298 112.212 128.05 116.35L122.986 200.727C122.717 205.232 126.283 209.034 130.784 209.034H202.744V209.031Z" fill="#2D2D37"/>
</g>
<path d="M135.847 108.985C131.716 108.985 128.298 112.212 128.05 116.35L122.958 200.724C122.686 205.229 126.255 209.031 130.756 209.031H136.897H136.783C132.285 209.031 128.716 205.229 128.985 200.724L134.049 116.714C134.108 115.761 134.898 115.014 135.847 115.014H216.645V108.985H135.847Z" fill="#D5D5DE"/>
<path d="M168.781 209.03H141.201C139.824 209.03 138.709 207.912 138.709 206.53V203.587C138.709 202.206 139.824 201.087 141.201 201.087H168.781C170.159 201.087 171.273 202.206 171.273 203.587V206.53C171.273 207.912 170.155 209.03 168.781 209.03Z" fill="#D5D5DE"/>
<path d="M144.618 209.03H141.201C139.824 209.03 138.709 207.912 138.709 206.53V203.587C138.709 202.206 139.824 201.087 141.201 201.087H144.618C145.996 201.087 147.111 202.206 147.111 203.587V206.53C147.111 207.912 145.992 209.03 144.618 209.03Z" fill="#EEEEF5"/>
<g style="mix-blend-mode:overlay">
<path d="M171.27 204.816H138.709V205.305H171.27V204.816Z" fill="#2D2D37"/>
</g>
<path d="M148.481 198.421H147.059C146.148 198.421 145.412 199.162 145.412 200.073V201.087H150.131V200.073C150.131 199.162 149.392 198.421 148.481 198.421Z" fill="#41414B"/>
<path d="M148.505 198.421V198.103C148.505 197.777 148.243 197.514 147.919 197.514H147.625C147.301 197.514 147.038 197.777 147.038 198.103V198.421H147.063H148.485H148.505Z" fill="#2D2D37"/>
<path d="M147.77 197.514C147.756 197.441 147.259 194.024 151.315 195.789" stroke="#2D2D37" stroke-width="0.340478" stroke-miterlimit="10" stroke-linecap="round"/>
<path d="M155.298 198.421H153.876C152.965 198.421 152.229 199.162 152.229 200.073V201.087H156.948V200.073C156.948 199.162 156.209 198.421 155.298 198.421Z" fill="#41414B"/>
<path d="M155.322 198.421V198.103C155.322 197.777 155.06 197.514 154.735 197.514H154.442C154.118 197.514 153.855 197.777 153.855 198.103V198.421H153.879H155.302H155.322Z" fill="#2D2D37"/>
<path d="M154.587 197.514C154.573 197.441 154.076 194.024 158.132 195.789" stroke="#2D2D37" stroke-width="0.340478" stroke-miterlimit="10" stroke-linecap="round"/>
<path d="M162.116 198.421H160.694C159.782 198.421 159.047 199.162 159.047 200.073V201.087H163.766V200.073C163.766 199.162 163.027 198.421 162.116 198.421Z" fill="#41414B"/>
<path d="M162.14 198.421V198.103C162.14 197.777 161.878 197.514 161.553 197.514H161.26C160.935 197.514 160.673 197.777 160.673 198.103V198.421H160.697H162.119H162.14Z" fill="#2D2D37"/>
<path d="M161.405 197.514C161.391 197.441 160.894 194.024 164.95 195.789" stroke="#2D2D37" stroke-width="0.340478" stroke-miterlimit="10" stroke-linecap="round"/>
<path d="M220.335 209.03H154.695C152.827 209.03 151.315 207.514 151.315 205.641V148.84C151.315 146.966 152.827 145.45 154.695 145.45H220.331C222.199 145.45 223.711 146.966 223.711 148.84V205.644C223.714 207.514 222.202 209.03 220.335 209.03Z" fill="#5A5A6B"/>
<path d="M178.278 209.03H154.695C152.827 209.03 151.315 207.514 151.315 205.641V148.84C151.315 146.966 152.827 145.45 154.695 145.45H178.278C180.145 145.45 181.657 146.966 181.657 148.84V205.644C181.657 207.514 180.145 209.03 178.278 209.03Z" fill="#787885"/>
<path d="M155.903 206.018C154.84 206.018 153.977 205.153 153.977 204.086V150.395C153.977 149.328 154.84 148.463 155.903 148.463H176.379C177.442 148.463 178.305 149.328 178.305 150.395V204.086C178.305 205.153 177.442 206.018 176.379 206.018H155.903Z" fill="#41414B"/>
<path d="M157.069 206.018C156.006 206.018 155.143 205.153 155.143 204.086V150.395C155.143 149.328 156.006 148.463 157.069 148.463H176.383C177.446 148.463 178.309 149.328 178.309 150.395V204.086C178.309 205.153 177.446 206.018 176.383 206.018H157.069Z" fill="#B4B4BE"/>
<g style="mix-blend-mode:overlay" opacity="0.4">
<path d="M157.069 206.018C156.006 206.018 155.143 205.153 155.143 204.086V150.395C155.143 149.328 156.006 148.463 157.069 148.463H176.383C177.446 148.463 178.309 149.328 178.309 150.395V204.086C178.309 205.153 177.446 206.018 176.383 206.018H157.069Z" fill="#2D2D37"/>
</g>
<path d="M170.895 195.855C171.245 195.855 171.53 195.57 171.53 195.218C171.53 194.866 171.245 194.581 170.895 194.581C170.544 194.581 170.26 194.866 170.26 195.218C170.26 195.57 170.544 195.855 170.895 195.855Z" fill="#787885"/>
<path d="M170.894 197.628C171.194 197.628 171.436 197.385 171.436 197.084C171.436 196.784 171.194 196.541 170.894 196.541C170.595 196.541 170.352 196.784 170.352 197.084C170.352 197.385 170.595 197.628 170.894 197.628Z" fill="#787885"/>
<path d="M170.894 199.317C171.171 199.317 171.395 199.093 171.395 198.815C171.395 198.538 171.171 198.313 170.894 198.313C170.618 198.313 170.394 198.538 170.394 198.815C170.394 199.093 170.618 199.317 170.894 199.317Z" fill="#787885"/>
<path d="M170.894 201.091C171.194 201.091 171.436 200.847 171.436 200.547C171.436 200.247 171.194 200.003 170.894 200.003C170.595 200.003 170.352 200.247 170.352 200.547C170.352 200.847 170.595 201.091 170.894 201.091Z" fill="#787885"/>
<path d="M170.894 203.05C171.245 203.05 171.529 202.765 171.529 202.413C171.529 202.061 171.245 201.776 170.894 201.776C170.543 201.776 170.259 202.061 170.259 202.413C170.259 202.765 170.543 203.05 170.894 203.05Z" fill="#787885"/>
<path d="M168.357 196.907C168.708 196.907 168.992 196.622 168.992 196.27C168.992 195.918 168.708 195.633 168.357 195.633C168.007 195.633 167.722 195.918 167.722 196.27C167.722 196.622 168.007 196.907 168.357 196.907Z" fill="#787885"/>
<path d="M169.673 198.134C169.972 198.134 170.214 197.89 170.214 197.59C170.214 197.29 169.972 197.046 169.673 197.046C169.373 197.046 169.131 197.29 169.131 197.59C169.131 197.89 169.373 198.134 169.673 198.134Z" fill="#787885"/>
<path d="M170.895 199.318C171.171 199.318 171.395 199.093 171.395 198.816C171.395 198.538 171.171 198.314 170.895 198.314C170.618 198.314 170.394 198.538 170.394 198.816C170.394 199.093 170.618 199.318 170.895 199.318Z" fill="#787885"/>
<path d="M172.113 200.581C172.412 200.581 172.655 200.338 172.655 200.038C172.655 199.738 172.412 199.494 172.113 199.494C171.813 199.494 171.571 199.738 171.571 200.038C171.571 200.338 171.813 200.581 172.113 200.581Z" fill="#787885"/>
<path d="M173.428 201.994C173.779 201.994 174.063 201.709 174.063 201.357C174.063 201.005 173.779 200.72 173.428 200.72C173.077 200.72 172.793 201.005 172.793 201.357C172.793 201.709 173.077 201.994 173.428 201.994Z" fill="#787885"/>
<path d="M167.308 199.453C167.659 199.453 167.943 199.167 167.943 198.815C167.943 198.464 167.659 198.178 167.308 198.178C166.957 198.178 166.673 198.464 166.673 198.815C166.673 199.167 166.957 199.453 167.308 199.453Z" fill="#787885"/>
<path d="M169.169 199.359C169.468 199.359 169.71 199.115 169.71 198.815C169.71 198.515 169.468 198.271 169.169 198.271C168.869 198.271 168.627 198.515 168.627 198.815C168.627 199.115 168.869 199.359 169.169 199.359Z" fill="#787885"/>
<path d="M170.895 199.317C171.171 199.317 171.395 199.092 171.395 198.815C171.395 198.538 171.171 198.313 170.895 198.313C170.618 198.313 170.394 198.538 170.394 198.815C170.394 199.092 170.618 199.317 170.895 199.317Z" fill="#787885"/>
<path d="M172.617 199.359C172.917 199.359 173.159 199.115 173.159 198.815C173.159 198.515 172.917 198.271 172.617 198.271C172.318 198.271 172.075 198.515 172.075 198.815C172.075 199.115 172.318 199.359 172.617 199.359Z" fill="#787885"/>
<path d="M174.478 199.452C174.828 199.452 175.113 199.167 175.113 198.815C175.113 198.463 174.828 198.178 174.478 198.178C174.127 198.178 173.843 198.463 173.843 198.815C173.843 199.167 174.127 199.452 174.478 199.452Z" fill="#787885"/>
<path d="M168.358 201.994C168.708 201.994 168.993 201.709 168.993 201.357C168.993 201.005 168.708 200.72 168.358 200.72C168.007 200.72 167.722 201.005 167.722 201.357C167.722 201.709 168.007 201.994 168.358 201.994Z" fill="#787885"/>
<path d="M169.673 200.582C169.972 200.582 170.215 200.338 170.215 200.038C170.215 199.738 169.972 199.494 169.673 199.494C169.373 199.494 169.131 199.738 169.131 200.038C169.131 200.338 169.373 200.582 169.673 200.582Z" fill="#787885"/>
<path d="M170.895 199.318C171.171 199.318 171.395 199.093 171.395 198.816C171.395 198.538 171.171 198.313 170.895 198.313C170.618 198.313 170.394 198.538 170.394 198.816C170.394 199.093 170.618 199.318 170.895 199.318Z" fill="#787885"/>
<path d="M172.113 198.133C172.413 198.133 172.655 197.89 172.655 197.59C172.655 197.29 172.413 197.046 172.113 197.046C171.814 197.046 171.571 197.29 171.571 197.59C171.571 197.89 171.814 198.133 172.113 198.133Z" fill="#787885"/>
<path d="M173.428 196.908C173.779 196.908 174.064 196.623 174.064 196.271C174.064 195.919 173.779 195.634 173.428 195.634C173.078 195.634 172.793 195.919 172.793 196.271C172.793 196.623 173.078 196.908 173.428 196.908Z" fill="#787885"/>
<path d="M163.655 203.051H158.498C158.371 203.051 158.264 202.947 158.264 202.815V200.153C158.264 200.025 158.367 199.917 158.498 199.917H163.655C163.783 199.917 163.89 200.021 163.89 200.153V202.815C163.89 202.944 163.787 203.051 163.655 203.051Z" fill="#787885"/>
<path d="M163.117 203.051H157.96C157.832 203.051 157.725 202.947 157.725 202.815V200.153C157.725 200.025 157.829 199.917 157.96 199.917H163.117C163.245 199.917 163.352 200.021 163.352 200.153V202.815C163.352 202.944 163.245 203.051 163.117 203.051Z" fill="#5A5A6B"/>
<path d="M162.551 202.552H158.526C158.35 202.552 158.205 202.407 158.205 202.23V200.738C158.205 200.561 158.35 200.416 158.526 200.416H162.551C162.727 200.416 162.872 200.561 162.872 200.738V202.23C162.872 202.407 162.727 202.552 162.551 202.552Z" fill="#B4505A"/>
<path d="M161.66 202.552H158.436C158.309 202.552 158.205 202.448 158.205 202.32V200.648C158.205 200.52 158.309 200.416 158.436 200.416H161.66V202.552Z" fill="#96323C"/>
<path d="M176.952 192.722H156.714C156.538 192.722 156.396 192.58 156.396 192.403C156.396 192.226 156.538 192.084 156.714 192.084H176.952C177.128 192.084 177.27 192.226 177.27 192.403C177.27 192.58 177.128 192.722 176.952 192.722Z" fill="#787885"/>
<path d="M176.952 181.409H156.714C156.538 181.409 156.396 181.267 156.396 181.091C156.396 180.914 156.538 180.772 156.714 180.772H176.952C177.128 180.772 177.27 180.914 177.27 181.091C177.27 181.267 177.128 181.409 176.952 181.409Z" fill="#787885"/>
<path d="M163.89 195.007H157.725V198.386H163.89V195.007Z" fill="#787885"/>
<path d="M204.066 192.96H185.368V202.704H204.066V192.96Z" fill="#2D2D37"/>
<path d="M220.003 200.038H204.066V202.701H220.003V200.038Z" fill="#2D2D37"/>
<path d="M204.522 196.305H203.352C202.62 196.305 202.023 195.71 202.023 194.972C202.023 194.238 202.616 193.639 203.352 193.639H204.522C205.254 193.639 205.851 194.234 205.851 194.972C205.847 195.71 205.254 196.305 204.522 196.305Z" fill="#2D2D37"/>
<path d="M204.522 199.422H203.352C202.62 199.422 202.023 198.826 202.023 198.089C202.023 197.355 202.616 196.756 203.352 196.756H204.522C205.254 196.756 205.851 197.351 205.851 198.089C205.847 198.826 205.254 199.422 204.522 199.422Z" fill="#2D2D37"/>
<path d="M196.527 186.61H185.368V192.96H196.527V186.61Z" fill="#5A5A6B"/>
<path opacity="0.2" d="M220.459 150.872H185.012V203.051H220.459V150.872Z" fill="#7896FF"/>
<path d="M175.112 184.207H163.607V188.947H175.112V184.207Z" fill="#787885"/>
<path d="M159.99 188.947C161.24 188.947 162.254 187.887 162.254 186.579C162.254 185.271 161.24 184.21 159.99 184.21C158.739 184.21 157.725 185.271 157.725 186.579C157.725 187.887 158.739 188.947 159.99 188.947Z" fill="#787885"/>
<path d="M175.112 172.971H163.607V177.711H175.112V172.971Z" fill="#787885"/>
<path d="M159.99 177.708C161.24 177.708 162.254 176.647 162.254 175.339C162.254 174.031 161.24 172.971 159.99 172.971C158.739 172.971 157.725 174.031 157.725 175.339C157.725 176.647 158.739 177.708 159.99 177.708Z" fill="#787885"/>
<g style="mix-blend-mode:overlay" opacity="0.3">
<path d="M223.714 145.45H151.315V186.863H223.714V145.45Z" fill="#2D2D37"/>
</g>
<path d="M202.461 194.003C203.283 194.003 203.283 188.84 202.461 188.844H221.464C222.285 188.844 222.285 194.003 221.464 194.003H202.461Z" fill="#FFF8EE"/>
<path d="M215.351 193.373H204.015V193.321H215.351V193.373ZM217.477 189.796H206.466V189.744H217.477V189.796ZM221.371 190.07H218.454V190.018H221.371V190.07ZM221.371 190.897H209.486V190.845H221.371V190.897ZM221.371 191.721H207.598V191.669H221.371V191.721Z" fill="#FFF8EE"/>
<path d="M221.371 189.245H202.814C202.807 189.228 202.8 189.211 202.796 189.194H221.374V189.245H221.371Z" fill="#7D6D61"/>
<path d="M221.371 189.519H202.897C202.893 189.502 202.89 189.484 202.883 189.467H221.371V189.519V189.519Z" fill="#7D6D61"/>
<path d="M217.477 189.744H206.466V189.796H217.477V189.744Z" fill="#7D6D61"/>
<path d="M221.371 190.018H218.454V190.069H221.371V190.018Z" fill="#7D6D61"/>
<path d="M217.767 190.069H202.996C202.993 190.052 202.993 190.035 202.99 190.018H217.767V190.069V190.069Z" fill="#7D6D61"/>
<path d="M221.371 190.346H203.028C203.028 190.329 203.024 190.312 203.024 190.294H221.371V190.346Z" fill="#7D6D61"/>
<path d="M221.371 190.62H203.052C203.052 190.603 203.048 190.585 203.048 190.568H221.371V190.62Z" fill="#7D6D61"/>
<path d="M221.367 190.845H209.483V190.897H221.367V190.845Z" fill="#7D6D61"/>
<path d="M216.825 191.17H203.076C203.076 191.153 203.076 191.136 203.076 191.119H216.825V191.17Z" fill="#7D6D61"/>
<path d="M221.371 191.669H207.598V191.721H221.371V191.669Z" fill="#7D6D61"/>
<path d="M221.371 191.998H203.066C203.066 191.981 203.069 191.963 203.069 191.946H221.371V191.998Z" fill="#7D6D61"/>
<path d="M216.379 192.272H203.048C203.048 192.254 203.052 192.237 203.052 192.22H216.379V192.272V192.272Z" fill="#7D6D61"/>
<path d="M221.371 193.099H202.945C202.948 193.082 202.951 193.065 202.955 193.047H221.371V193.099Z" fill="#7D6D61"/>
<path d="M215.351 193.321H204.015V193.373H215.351V193.321Z" fill="#7D6D61"/>
<path d="M221.371 193.65H202.793C202.8 193.632 202.807 193.615 202.81 193.598H221.367V193.65H221.371Z" fill="#7D6D61"/>
<path d="M214.004 188.84H222.475C223.297 188.84 223.297 193.999 222.475 193.999H214.004C214.826 194.003 214.826 188.84 214.004 188.84Z" fill="#C49A6D"/>
<path d="M214.688 189.283C214.646 189.162 214.526 189.082 214.398 189.082H202.465C202.385 189.082 202.385 188.84 202.465 188.84H214.325H231.27H233.328C234.149 188.84 234.149 193.999 233.328 193.999H231.27H214.325H202.465C202.385 193.999 202.385 193.757 202.465 193.757H214.394C214.522 193.757 214.643 193.677 214.684 193.556C215.023 192.587 215.023 190.256 214.688 189.283Z" fill="#534741"/>
<path opacity="0.7" d="M231.661 188.84H232.158C232.979 188.84 232.979 193.999 232.158 193.999H231.661C232.486 194.003 232.486 188.84 231.661 188.84Z" fill="#736357"/>
<path opacity="0.7" d="M219.441 188.84H219.938C220.76 188.84 220.76 193.999 219.938 193.999H219.441C220.266 194.003 220.266 188.84 219.441 188.84Z" fill="#736357"/>
<path d="M232.972 188.833C232.261 188.833 232.261 183.67 232.972 183.674H216.545C215.834 183.674 215.834 188.833 216.545 188.833H232.972Z" fill="#FFF8EE"/>
<path d="M221.83 188.154H231.63V188.206H221.83V188.154ZM219.994 184.577H229.51V184.629H219.994V184.577ZM216.628 184.851H219.148V184.903H216.628V184.851ZM216.628 185.678H226.904V185.73H216.628V185.678ZM216.628 186.502H228.533V186.554H216.628V186.502Z" fill="#FFF8EE"/>
<path d="M216.628 184.079H232.672C232.679 184.061 232.683 184.044 232.689 184.027H216.628V184.079Z" fill="#7D6D61"/>
<path d="M216.628 184.352H232.6C232.603 184.335 232.607 184.318 232.61 184.3H216.628V184.352Z" fill="#7D6D61"/>
<path d="M229.51 184.577H219.993V184.629H229.51V184.577Z" fill="#7D6D61"/>
<path d="M219.148 184.851H216.628V184.903H219.148V184.851Z" fill="#7D6D61"/>
<path d="M219.741 184.903H232.51C232.513 184.886 232.513 184.868 232.517 184.851H219.741V184.903V184.903Z" fill="#7D6D61"/>
<path d="M216.628 185.18H232.482C232.482 185.162 232.485 185.145 232.485 185.128H216.624V185.18H216.628Z" fill="#7D6D61"/>
<path d="M216.628 185.453H232.465C232.465 185.436 232.469 185.419 232.469 185.401H216.628V185.453V185.453Z" fill="#7D6D61"/>
<path d="M226.904 185.678H216.628V185.73H226.904V185.678Z" fill="#7D6D61"/>
<path d="M220.556 186.004H232.441C232.441 185.987 232.441 185.969 232.441 185.952H220.552V186.004H220.556Z" fill="#7D6D61"/>
<path d="M228.533 186.503H216.628V186.554H228.533V186.503Z" fill="#7D6D61"/>
<path d="M216.628 186.832H232.451C232.451 186.814 232.451 186.797 232.447 186.78H216.624V186.832H216.628Z" fill="#7D6D61"/>
<path d="M220.942 187.105H232.468C232.468 187.088 232.465 187.07 232.465 187.053H220.942V187.105V187.105Z" fill="#7D6D61"/>
<path d="M216.628 187.933H232.558C232.555 187.916 232.551 187.898 232.551 187.881H216.631V187.933H216.628Z" fill="#7D6D61"/>
<path d="M231.629 188.154H221.829V188.206H231.629V188.154Z" fill="#7D6D61"/>
<path d="M216.628 188.479H232.689C232.683 188.462 232.679 188.445 232.672 188.428H216.628V188.479Z" fill="#7D6D61"/>
<path d="M222.996 183.674H215.671C214.96 183.674 214.96 188.833 215.671 188.833H222.996C222.282 188.833 222.282 183.674 222.996 183.674Z" fill="#C49A6D"/>
<path d="M222.403 184.113C222.44 183.992 222.541 183.913 222.654 183.913H232.972C233.041 183.913 233.041 183.67 232.972 183.67H222.717H208.067H206.289C205.578 183.67 205.578 188.829 206.289 188.829H208.067H222.717H232.972C233.041 188.829 233.041 188.587 232.972 188.587H222.654C222.544 188.587 222.44 188.507 222.403 188.386C222.113 187.417 222.113 185.09 222.403 184.113Z" fill="#998675"/>
<path opacity="0.7" d="M207.729 183.674H207.297C206.586 183.674 206.586 188.833 207.297 188.833H207.729C207.018 188.833 207.018 183.674 207.729 183.674Z" fill="#736357"/>
<path opacity="0.7" d="M218.295 183.674H217.864C217.152 183.674 217.152 188.833 217.864 188.833H218.295C217.58 188.833 217.58 183.674 218.295 183.674Z" fill="#736357"/>
<path d="M252.696 209.03H209.669V192.573H253.842V207.881C253.846 208.518 253.332 209.03 252.696 209.03Z" fill="#8C7869"/>
<path d="M225.396 209.03H200.387C199.752 209.03 199.241 208.514 199.241 207.881V192.573H226.545V207.881C226.542 208.518 226.027 209.03 225.396 209.03Z" fill="#B4A08C"/>
<path d="M220.104 199.577H192.8L199.238 192.573H226.542L220.104 199.577Z" fill="#C7B299"/>
<path d="M258.813 185.107H231.509L226.542 192.573H253.846L258.813 185.107Z" fill="#B4A08C"/>
<path d="M255.789 186.253H247.015C246.859 186.253 246.714 186.333 246.628 186.461L245.285 188.476C245.182 188.632 245.292 188.84 245.478 188.84H254.253C254.408 188.84 254.553 188.76 254.64 188.632L255.982 186.617C256.086 186.461 255.976 186.253 255.789 186.253Z" fill="#B4B4BE"/>
<path opacity="0.2" d="M213.449 199.577H209.997V209.034H213.449V199.577Z" fill="white"/>
<path d="M282.585 168.241H251.509C249.403 168.241 247.729 170.014 247.843 172.123L249.658 205.551C249.765 207.504 251.374 209.031 253.324 209.031H280.773C282.724 209.031 284.332 207.5 284.439 205.551L286.255 172.123C286.365 170.014 284.691 168.241 282.585 168.241Z" fill="#FAF0E6"/>
<g style="mix-blend-mode:overlay">
<path d="M282.585 168.241H251.509C249.403 168.241 247.729 170.014 247.843 172.123L248.778 189.328H285.316L286.251 172.123C286.365 170.014 284.691 168.241 282.585 168.241Z" fill="#2D2D37"/>
</g>
<path d="M284.187 175.973H139.803C137.542 175.973 135.733 174.082 135.827 171.814L138.043 118.836C138.133 116.7 139.886 115.014 142.019 115.014H275.751L284.187 175.973Z" fill="#828291"/>
<path d="M345.195 108.985C349.147 108.985 352.479 111.946 352.948 115.883L363.083 200.26C363.642 204.924 360.014 209.031 355.33 209.031H290.311C285.544 209.031 281.602 205.308 281.315 200.533L276.327 117.482C276.041 112.711 272.099 108.985 267.332 108.985H345.195V108.985Z" fill="#B4B4BE"/>
<g style="mix-blend-mode:overlay" opacity="0.4">
<path d="M345.195 108.985C349.147 108.985 352.479 111.946 352.948 115.883L363.083 200.26C363.642 204.924 360.014 209.031 355.33 209.031H290.311C285.544 209.031 281.602 205.308 281.315 200.533L276.327 117.482C276.041 112.711 272.099 108.985 267.332 108.985H345.195V108.985Z" fill="#2D2D37"/>
</g>
<path d="M267.332 115.014C268.919 115.014 270.235 116.257 270.331 117.846L275.319 200.897C275.385 201.974 275.561 203.023 275.84 204.024C276.669 207.001 279.42 209.031 282.502 209.031H290.311C285.544 209.031 281.602 205.308 281.315 200.533L276.327 117.482C276.041 112.711 272.099 108.985 267.332 108.985H209.593V115.014H267.332V115.014Z" fill="#D5D5DE"/>
<g style="mix-blend-mode:overlay" opacity="0.4">
<path d="M128.053 116.35L127.736 121.61H133.756L137.736 126.225H270.835L270.559 121.61H353.638L352.951 115.886C352.478 111.949 349.151 108.989 345.199 108.989H267.332H216.645H209.593H192.61H135.847C131.716 108.985 128.302 112.212 128.053 116.35Z" fill="#2D2D37"/>
</g>
<path d="M352.696 109.678H275.533C273.556 109.678 271.95 108.067 271.95 106.083C271.95 104.099 273.556 102.489 275.533 102.489H352.696C354.674 102.489 356.279 104.099 356.279 106.083C356.279 108.071 354.674 109.678 352.696 109.678Z" fill="#998675"/>
<path d="M282.306 109.678H123.134C121.156 109.678 119.551 108.067 119.551 106.083C119.551 104.099 121.156 102.489 123.134 102.489H282.302C284.28 102.489 285.885 104.099 285.885 106.083C285.889 108.071 284.283 109.678 282.306 109.678Z" fill="#C7B299"/>
<path d="M187.904 49.6565H169.72C169.195 49.6565 168.767 49.2306 168.767 48.7008C168.767 48.1745 169.192 47.7451 169.72 47.7451H187.904C188.429 47.7451 188.857 48.171 188.857 48.7008C188.854 49.2306 188.429 49.6565 187.904 49.6565Z" fill="#FAE0C8"/>
<path d="M182.05 49.6565H165.689C165.164 49.6565 164.736 49.2306 164.736 48.7008C164.736 48.1745 165.16 47.7451 165.689 47.7451H182.05C182.575 47.7451 183.003 48.171 183.003 48.7008C183.003 49.2306 182.575 49.6565 182.05 49.6565Z" fill="#FAF0DC"/>
<path d="M186.075 49.6565H164.895C164.37 49.6565 163.942 49.2306 163.942 48.7008C163.942 48.1745 164.366 47.7451 164.895 47.7451H186.075C186.6 47.7451 187.028 48.171 187.028 48.7008C187.028 49.2306 186.603 49.6565 186.075 49.6565Z" fill="#FAF0DC"/>
<path d="M189.979 48.7009H153.863V45.5015H189.979C190.859 45.5015 191.574 46.2182 191.574 47.1012C191.574 47.9842 190.859 48.7009 189.979 48.7009Z" fill="#D5D5DE"/>
<path d="M178.336 102.559H159.858V102.254C159.858 100.332 161.412 98.7775 163.324 98.7775H174.87C176.786 98.7775 178.336 100.336 178.336 102.254V102.559Z" fill="#D5D5DE"/>
<path d="M168.015 102.559H143.303V102.254C143.303 100.332 144.857 98.7775 146.769 98.7775H164.546C166.462 98.7775 168.012 100.336 168.012 102.254V102.559H168.015Z" fill="#EEEEF5"/>
<path d="M150.697 61.2355L156.424 48.7008H153.196L147.47 61.2355C145.768 64.9578 145.202 69.0991 145.837 73.14L149.869 98.7772H153.096L149.064 73.14C148.426 69.0991 148.995 64.9543 150.697 61.2355Z" fill="#EEEEF5"/>
<path d="M153.907 61.2355L159.634 48.7008H156.407L150.68 61.2355C148.978 64.9578 148.412 69.0991 149.047 73.14L153.079 98.7772H156.307L152.275 73.14C151.64 69.0991 152.209 64.9543 153.907 61.2355Z" fill="#D5D5DE"/>
<path d="M179.565 48.7009H148.495C147.615 48.7009 146.9 47.9842 146.9 47.1012C146.9 46.2182 147.615 45.5015 148.495 45.5015H179.565C180.445 45.5015 181.16 46.2182 181.16 47.1012C181.16 47.9842 180.445 48.7009 179.565 48.7009Z" fill="#EEEEF5"/>
<path d="M253.828 99.037H249.496C249.496 98.7496 249.727 98.5176 250.014 98.5176H253.31C253.597 98.5176 253.828 98.7496 253.828 99.037Z" fill="#989898"/>
<path d="M258.702 99.037H254.37C254.37 98.7496 254.601 98.5176 254.888 98.5176H258.184C258.471 98.5176 258.702 98.7496 258.702 99.037Z" fill="#5A5A6B"/>
<path d="M263.573 99.037H259.241C259.241 98.7496 259.472 98.5176 259.758 98.5176H263.055C263.342 98.5176 263.573 98.7496 263.573 99.037Z" fill="#5A5A6B"/>
<path d="M268.447 99.037H264.115C264.115 98.7496 264.346 98.5176 264.632 98.5176H267.929C268.215 98.5176 268.447 98.7496 268.447 99.037Z" fill="#5A5A6B"/>
<path d="M255.851 99.037H251.519C251.519 98.7496 251.75 98.5176 252.037 98.5176H255.333C255.616 98.5176 255.851 98.7496 255.851 99.037Z" fill="#787885"/>
<path d="M260.721 99.037H256.389C256.389 98.7496 256.62 98.5176 256.907 98.5176H260.203C260.49 98.5176 260.721 98.7496 260.721 99.037Z" fill="#787885"/>
<path d="M265.596 99.037H261.264C261.264 98.7496 261.495 98.5176 261.781 98.5176H265.078C265.364 98.5176 265.596 98.7496 265.596 99.037Z" fill="#787885"/>
<path d="M270.469 99.037H266.137C266.137 98.7496 266.368 98.5176 266.655 98.5176H269.951C270.238 98.5176 270.469 98.7496 270.469 99.037Z" fill="#787885"/>
<path d="M251.733 99.037H192.803C191.491 99.037 190.394 98.0398 190.263 96.7309L186.49 58.971C186.338 57.4613 187.518 56.1525 189.03 56.1525H247.96C249.272 56.1525 250.37 57.1497 250.501 58.4586L254.274 96.2184C254.426 97.7281 253.245 99.037 251.733 99.037Z" fill="#D5D5DE"/>
<path d="M277.781 102.558H217.228C216.258 102.558 215.471 101.769 215.471 100.796C215.471 99.8229 216.258 99.0334 217.228 99.0334H277.781C278.751 99.0334 279.538 99.8229 279.538 100.796C279.534 101.769 278.751 102.558 277.781 102.558Z" fill="#B4B4BE"/>
<path d="M251.091 99.037H192.161C190.849 99.037 189.751 98.0398 189.62 96.7309L185.847 58.971C185.696 57.4613 186.876 56.1525 188.388 56.1525H247.318C248.63 56.1525 249.727 57.1497 249.858 58.4586L253.631 96.2184C253.783 97.7281 252.603 99.037 251.091 99.037Z" fill="#EEEEF5"/>
<path d="M250.045 100.799C250.045 99.8263 250.832 99.0369 251.802 99.0369H191.605C190.635 99.0369 189.848 99.8263 189.848 100.799C189.848 101.772 190.635 102.562 191.605 102.562H251.799C250.832 102.558 250.045 101.769 250.045 100.799Z" fill="#D5D5DE"/>
<path d="M257.59 100.242H252.913V101.353H257.59V100.242Z" fill="#787885"/>
<path d="M255.851 100.242H252.913V101.353H255.851V100.242Z" fill="#5A5A6B"/>
<path d="M263.235 100.242H258.557V101.353H263.235V100.242Z" fill="#787885"/>
<path d="M261.495 100.242H258.557V101.353H261.495V100.242Z" fill="#5A5A6B"/>
<path d="M218.646 80.3516C220.011 80.2581 221.035 78.948 220.931 77.4255C220.827 75.9029 219.636 74.7445 218.271 74.838C216.905 74.9315 215.882 76.2416 215.985 77.7641C216.089 79.2867 217.28 80.4451 218.646 80.3516Z" fill="white"/>
<path d="M316.855 90.2002C316.855 87.9253 315.633 86.9107 314.608 86.464C313.907 86.1559 313.089 86.0139 312.24 85.9516C311.943 85.9273 311.719 85.6815 311.726 85.3837C311.736 85.0374 311.743 84.6912 311.75 84.3414C311.76 83.8463 311.363 83.4412 310.87 83.4412H301.923H293.756C293.262 83.4412 292.868 83.8463 292.875 84.3414C292.993 91.187 293.652 97.3713 294.625 101.506C294.77 102.122 295.316 102.555 295.944 102.555H301.919H308.674C309.306 102.555 309.848 102.119 309.993 101.502C310.159 100.803 310.314 100.044 310.459 99.2342C310.5 98.9987 310.687 98.8152 310.922 98.784C314.394 98.3443 316.855 93.5105 316.855 90.2002ZM310.98 95.8166C311.25 93.687 311.457 91.3359 311.591 88.8359C311.609 88.5208 311.881 88.2784 312.195 88.3061C314.135 88.4793 314.515 89.0264 314.515 90.1967C314.515 92.3228 313.089 95.1794 311.484 96.1351C311.243 96.284 310.946 96.0936 310.98 95.8166Z" fill="white"/>
<path d="M293.755 83.4412H301.923H310.87C311.363 83.4412 311.757 83.8463 311.75 84.3414C311.746 84.5908 311.74 84.8401 311.733 85.0859H292.889C292.882 84.8366 292.879 84.5908 292.875 84.3414C292.865 83.8498 293.262 83.4412 293.755 83.4412Z" fill="#EEEEF5"/>
<path opacity="0.1" d="M310.967 95.8167C310.932 96.0937 311.229 96.2842 311.467 96.1422C311.943 95.8583 312.406 95.4047 312.817 94.8541C312.61 96.1491 312.399 97.3853 312.192 98.4137C311.785 98.6007 311.357 98.7323 310.911 98.7877C310.708 98.8154 310.538 98.9573 310.473 99.1512L310.967 95.8167Z" fill="url(#paint1_linear)"/>
<path opacity="0.1" d="M311.712 85.3872C311.709 85.6815 311.933 85.9274 312.226 85.9481C312.855 85.9966 313.462 86.0867 314.021 86.2529C313.952 86.8034 313.845 87.6414 313.711 88.6455C313.362 88.4793 312.872 88.3685 312.178 88.3062C311.864 88.2785 311.591 88.5209 311.574 88.836" fill="url(#paint2_linear)"/>
<path d="M301.17 102.427L301.167 99.7954C301.167 99.7435 301.125 99.7019 301.07 99.7019H300.694C300.642 99.7019 300.601 99.7435 300.601 99.7989L300.604 102.43C300.604 102.482 300.646 102.524 300.701 102.524H301.077C301.126 102.52 301.17 102.479 301.17 102.427Z" fill="#CBCBCB"/>
<path d="M299.033 102.527L299.028 99.7046L280.83 99.738L280.835 102.56L299.033 102.527Z" fill="#F15956"/>
<path d="M299.032 102.527L299.031 101.585L280.832 101.619L280.834 102.56L299.032 102.527Z" fill="#FFAA00"/>
<path d="M299.032 101.588L299.03 100.646L280.832 100.68L280.834 101.621L299.032 101.588Z" fill="#FFB400"/>
<path d="M299.028 100.646L299.026 99.7045L280.828 99.7379L280.83 100.68L299.028 100.646Z" fill="#FFBE43"/>
<path d="M280.832 99.7365L277.725 100.955C277.546 101.025 277.546 101.277 277.725 101.347L280.836 102.555L280.832 99.7365Z" fill="#FFE4C5"/>
<path d="M280.832 99.7365L277.725 100.955C277.546 101.025 277.546 101.277 277.725 101.347L280.836 102.555L280.832 99.7365Z" fill="#FFC2A6"/>
<path d="M277.725 101.35L278.274 101.561V100.741L277.725 100.955C277.546 101.028 277.546 101.281 277.725 101.35Z" fill="#333333"/>
<path d="M299.778 102.527L299.773 99.7045L298.848 99.7062L298.853 102.528L299.778 102.527Z" fill="#CBCBCB"/>
<path d="M300.7 102.523L300.695 99.7008L299.769 99.7025L299.775 102.525L300.7 102.523Z" fill="#989898"/>
<path d="M302.092 102.039L302.089 100.183C302.089 99.975 301.92 99.8088 301.716 99.8088H301.167L301.17 102.416H301.719C301.926 102.413 302.092 102.243 302.092 102.039Z" fill="#FF5565"/>
<path d="M87.7146 175.755C87.7146 175.755 94.9876 175.059 97.6525 169.906C100.383 164.633 103.417 157.188 104.325 156.018C104.325 156.018 90.804 162.23 87.7146 175.755Z" fill="#5AD23C"/>
<path d="M85.6748 176.527C85.6748 176.527 94.5184 172.386 96.4515 165.492C98.3845 158.598 96.272 148.4 98.0117 146.728C98.0117 146.728 85.9164 159.484 85.6748 176.527Z" fill="#82E155"/>
<path opacity="0.5" d="M96.2584 166.111C96.3309 165.907 96.3964 165.703 96.4517 165.492C96.4827 165.384 96.5104 165.277 96.538 165.17C96.5483 165.135 96.5552 165.1 96.5621 165.069C96.5794 164.993 96.6001 164.92 96.6174 164.844C96.6277 164.799 96.6381 164.754 96.6484 164.709C96.6622 164.643 96.6795 164.577 96.6933 164.512C96.7037 164.467 96.7106 164.422 96.7209 164.377C96.7347 164.311 96.7485 164.245 96.7623 164.176C96.7727 164.127 96.7796 164.079 96.79 164.034C96.8038 163.968 96.8141 163.902 96.8279 163.836C96.8383 163.788 96.8452 163.736 96.8555 163.688C96.8659 163.622 96.8797 163.559 96.8901 163.494C96.897 163.442 96.9073 163.393 96.9142 163.341C96.9246 163.275 96.9349 163.213 96.9453 163.147C96.9522 163.099 96.9591 163.05 96.966 162.998C96.9764 162.933 96.9867 162.863 96.9971 162.798C97.004 162.749 97.0109 162.697 97.0178 162.649C97.0281 162.583 97.035 162.514 97.0454 162.448C97.0523 162.396 97.0592 162.344 97.0627 162.296C97.0696 162.23 97.0799 162.161 97.0868 162.095C97.0937 162.043 97.0972 161.994 97.1041 161.942C97.111 161.873 97.1179 161.804 97.1248 161.738C97.1282 161.69 97.1351 161.638 97.1386 161.589C97.1455 161.52 97.1524 161.451 97.1593 161.381C97.1628 161.329 97.1697 161.281 97.1731 161.229C97.18 161.16 97.1835 161.091 97.1904 161.021C97.1938 160.973 97.1973 160.921 97.2007 160.872C97.2076 160.8 97.2111 160.73 97.218 160.658C97.2214 160.609 97.2249 160.561 97.2283 160.512C97.2318 160.44 97.2387 160.367 97.2422 160.294C97.2456 160.246 97.2491 160.201 97.2491 160.152C97.2525 160.076 97.2594 160.003 97.2629 159.927C97.2663 159.882 97.2663 159.837 97.2698 159.792C97.2732 159.716 97.2767 159.64 97.2801 159.564C97.2836 159.519 97.2836 159.474 97.287 159.428C97.2905 159.352 97.2939 159.276 97.2974 159.2C97.2974 159.155 97.3008 159.113 97.3008 159.068C97.3043 158.989 97.3077 158.909 97.3077 158.833C97.3077 158.791 97.3112 158.753 97.3112 158.712C97.3146 158.632 97.3146 158.549 97.3181 158.469C97.3181 158.431 97.3181 158.393 97.3215 158.355C97.325 158.272 97.325 158.189 97.325 158.102C97.325 158.064 97.325 158.03 97.3285 157.992C97.3285 157.908 97.3319 157.825 97.3319 157.739C97.3319 157.701 97.3319 157.666 97.3319 157.628C97.3319 157.541 97.3319 157.455 97.3354 157.372C97.3354 157.341 97.3354 157.306 97.3354 157.275C97.3354 157.185 97.3354 157.095 97.3354 157.005C97.3354 156.977 97.3354 156.949 97.3354 156.925C97.3354 156.828 97.3354 156.731 97.3354 156.634C97.3354 156.617 97.3354 156.6 97.3354 156.582C97.3354 156.478 97.3354 156.371 97.3354 156.267C97.3354 156.257 97.3354 156.246 97.3354 156.236C97.3043 151.852 97.0005 147.967 97.9222 146.835C97.8946 146.863 97.8635 146.901 97.8255 146.942C97.8221 146.946 97.8221 146.946 97.8186 146.949C97.7806 146.991 97.7358 147.043 97.6874 147.098L97.684 147.102C97.3802 147.444 96.8797 148.03 96.2515 148.829C95.0744 150.363 93.9905 151.918 92.9964 153.48C92.8963 153.642 92.7927 153.805 92.6926 153.971C92.6823 153.985 92.6754 153.999 92.665 154.013C92.5718 154.165 92.4786 154.321 92.382 154.48C92.3681 154.501 92.3578 154.522 92.344 154.543C92.2508 154.699 92.1576 154.854 92.0678 155.014C92.0575 155.034 92.0437 155.055 92.0333 155.076C91.9367 155.242 91.84 155.412 91.7434 155.582C91.7365 155.595 91.7296 155.606 91.7226 155.62C91.198 156.551 90.6767 157.541 90.1693 158.591C90.1555 158.615 90.1452 158.642 90.1313 158.667C90.0451 158.847 89.9588 159.03 89.8725 159.214C89.8552 159.248 89.8379 159.287 89.8207 159.321C89.7378 159.498 89.6584 159.674 89.5791 159.854C89.5618 159.892 89.5445 159.934 89.5238 159.976C89.4444 160.156 89.365 160.336 89.2856 160.519C89.2684 160.557 89.2546 160.595 89.2373 160.63C89.1545 160.824 89.0716 161.018 88.9922 161.215C88.9819 161.243 88.9715 161.267 88.9577 161.295C88.5815 162.209 88.2225 163.154 87.8911 164.134C87.8117 164.373 87.7323 164.612 87.6529 164.854C87.6426 164.882 87.6357 164.91 87.6253 164.941C87.5563 165.156 87.4907 165.374 87.4251 165.589C87.4147 165.63 87.4009 165.668 87.3906 165.71C87.3284 165.917 87.2663 166.129 87.2076 166.34C87.1938 166.381 87.1835 166.426 87.1697 166.468C87.111 166.683 87.0523 166.897 86.9971 167.112C86.9867 167.154 86.9764 167.192 86.966 167.233C86.9073 167.462 86.8486 167.69 86.7934 167.922C86.7865 167.947 86.7796 167.974 86.7727 167.998C86.4586 169.307 86.1997 170.661 86.0133 172.05C86.0098 172.081 86.0064 172.112 85.9995 172.147C85.9684 172.389 85.9374 172.631 85.9097 172.874C85.9063 172.919 85.8994 172.964 85.8959 173.009C85.8718 173.241 85.8476 173.476 85.8269 173.708C85.8234 173.76 85.8165 173.809 85.8131 173.861C85.7924 174.096 85.7751 174.332 85.7579 174.567C85.7544 174.616 85.751 174.661 85.7475 174.709C85.7302 174.955 85.7199 175.204 85.7061 175.454C85.7061 175.488 85.7026 175.523 85.7026 175.557C85.6923 175.841 85.6819 176.125 85.6785 176.409H85.7268L85.782 176.482C85.8234 176.461 85.8856 176.43 85.9512 176.395C85.9822 176.378 86.0133 176.364 86.0513 176.343C86.072 176.333 86.0996 176.319 86.1203 176.305C86.1617 176.285 86.1997 176.264 86.248 176.24C86.2756 176.226 86.3067 176.208 86.3378 176.191C86.3826 176.167 86.4275 176.143 86.4793 176.115C86.5138 176.098 86.5518 176.077 86.5863 176.056C86.6381 176.028 86.6899 176.001 86.7451 175.969C86.7831 175.949 86.8245 175.924 86.8659 175.904C86.9246 175.872 86.9798 175.838 87.0419 175.803C87.0834 175.779 87.1282 175.751 87.1731 175.727C87.2352 175.692 87.2974 175.654 87.363 175.616C87.4113 175.589 87.4562 175.561 87.5045 175.53C87.5701 175.488 87.6391 175.447 87.7081 175.405C87.7599 175.374 87.8083 175.343 87.86 175.312C87.9325 175.267 88.005 175.222 88.0809 175.173C88.1327 175.138 88.1845 175.107 88.2397 175.073C88.3157 175.024 88.3951 174.972 88.4745 174.92C88.5297 174.886 88.5849 174.848 88.6401 174.813C88.7195 174.761 88.8024 174.706 88.8852 174.65C88.9405 174.612 88.9957 174.574 89.0544 174.536C89.1407 174.477 89.227 174.415 89.3133 174.356C89.3685 174.318 89.4237 174.28 89.4789 174.238C89.5721 174.172 89.6653 174.103 89.7585 174.034C89.8103 173.996 89.8621 173.958 89.9139 173.92C90.0174 173.843 90.1244 173.76 90.228 173.681C90.2694 173.646 90.3143 173.615 90.3557 173.584C90.4938 173.476 90.6353 173.366 90.7768 173.251C90.7872 173.244 90.7976 173.237 90.8045 173.227C90.9563 173.102 91.1082 172.978 91.2635 172.846C91.2877 172.825 91.3119 172.805 91.336 172.78C91.4603 172.673 91.588 172.566 91.7123 172.451C91.7606 172.41 91.8089 172.365 91.8573 172.32C91.9574 172.226 92.0609 172.136 92.161 172.039C92.2163 171.987 92.2715 171.932 92.3267 171.88C92.4199 171.79 92.5097 171.703 92.6029 171.613C92.6615 171.555 92.7202 171.496 92.7789 171.433C92.8652 171.343 92.9515 171.257 93.0378 171.167C93.0965 171.104 93.1586 171.039 93.2173 170.973C93.3001 170.883 93.383 170.793 93.4624 170.703C93.5211 170.634 93.5832 170.564 93.6419 170.498C93.7213 170.408 93.7972 170.315 93.8731 170.221C93.9318 170.149 93.9905 170.076 94.0492 170.003C94.1251 169.91 94.1976 169.816 94.2701 169.719C94.3253 169.643 94.384 169.571 94.4392 169.494C94.5117 169.397 94.5808 169.3 94.6498 169.203C94.705 169.127 94.7568 169.048 94.8086 168.971C94.8742 168.871 94.9398 168.771 95.0054 168.67C95.0571 168.591 95.1055 168.511 95.1572 168.431C95.2194 168.327 95.2815 168.224 95.3402 168.12C95.3851 168.04 95.4334 167.957 95.4783 167.877C95.5369 167.77 95.5922 167.659 95.6474 167.548C95.6888 167.469 95.7302 167.386 95.7717 167.306C95.8269 167.188 95.8787 167.071 95.9305 166.953C95.965 166.873 96.0029 166.797 96.034 166.717C96.0892 166.586 96.1376 166.451 96.1893 166.316C96.2066 166.243 96.2342 166.177 96.2584 166.111ZM95.2953 150.415C92.8825 154.525 90.8459 159.695 89.5238 163.31C89.0992 164.474 88.6609 165.609 88.2328 166.707C87.2456 169.245 86.3964 171.548 85.9477 173.604C86.7934 166.423 89.9311 158.002 95.2953 150.415ZM95.8269 149.906C94.5186 152.586 93.1931 156.385 92.2473 159.456C91.8089 160.883 91.3533 162.361 90.8769 163.736C90.0554 166.132 88.9163 168.334 87.9084 170.28C87.142 171.762 86.4379 173.12 86.0133 174.311C86.3964 172.105 87.3768 169.581 88.4676 166.769C88.8956 165.672 89.334 164.536 89.7585 163.369C91.1324 159.609 93.2553 154.124 95.8269 149.906ZM96.0961 149.789C95.247 151.935 94.5394 154.854 93.9284 157.573C93.4279 159.792 92.9101 162.088 92.2335 164.158C91.2187 167.292 89.3443 169.993 87.8359 172.161C87.1248 173.182 86.5 174.086 86.0927 174.854C86.4758 173.566 87.2663 172.043 88.1396 170.357C89.151 168.407 90.2936 166.198 91.1186 163.788C91.5949 162.41 92.0506 160.931 92.489 159.501C93.4969 156.222 94.6498 152.573 96.0961 149.789ZM96.4689 149.532C95.8925 151.395 95.5542 153.774 95.2056 156.236C94.8052 159.068 94.3875 161.998 93.5866 164.584C92.4061 168.417 89.5204 171.562 87.6115 173.646C86.9971 174.318 86.4689 174.889 86.1099 175.363C86.4793 174.529 87.2042 173.483 88.0533 172.261C89.5652 170.083 91.4499 167.368 92.4717 164.214C93.1517 162.136 93.6695 159.837 94.17 157.611C94.8397 154.633 95.4852 151.769 96.4689 149.532ZM96.79 149.449C96.4586 151.011 96.393 152.784 96.2549 155.038C96.0582 158.282 95.8373 161.96 94.9363 165.01C93.5659 169.685 89.3236 173.137 87.0419 174.99C86.6381 175.318 86.3274 175.575 86.0961 175.779C86.431 175.263 87.0627 174.571 87.8048 173.764C89.7275 171.669 92.6305 168.504 93.8214 164.636C94.6257 162.039 95.0433 159.103 95.4472 156.264C95.8269 153.608 96.1307 151.347 96.79 149.449ZM96.2929 165.436C94.6464 171.312 87.8117 175.204 86.0685 176.111C86.3205 175.862 86.7623 175.502 87.2249 175.128C89.5204 173.262 93.7938 169.785 95.1814 165.055C96.0858 161.984 96.3102 158.3 96.5069 155.045C96.6588 152.548 96.7244 151.136 97.1386 149.553C96.9867 150.845 97.0903 151.766 97.1317 153.798C97.1973 157.41 97.2836 161.897 96.2929 165.436Z" fill="white"/>
<path d="M85.6748 176.527C85.6748 176.527 94.5184 172.386 96.4515 165.492C98.3845 158.598 96.272 148.4 98.0117 146.728C98.0117 146.728 85.9164 159.484 85.6748 176.527Z" fill="#82E155"/>
<path opacity="0.5" d="M96.2584 166.111C96.3309 165.907 96.3964 165.703 96.4517 165.492C96.4827 165.384 96.5104 165.277 96.538 165.17C96.5483 165.135 96.5552 165.1 96.5621 165.069C96.5794 164.993 96.6001 164.92 96.6174 164.844C96.6277 164.799 96.6381 164.754 96.6484 164.709C96.6622 164.643 96.6795 164.577 96.6933 164.512C96.7037 164.467 96.7106 164.422 96.7209 164.377C96.7347 164.311 96.7485 164.245 96.7623 164.176C96.7727 164.127 96.7796 164.079 96.79 164.034C96.8038 163.968 96.8141 163.902 96.8279 163.836C96.8383 163.788 96.8452 163.736 96.8555 163.688C96.8659 163.622 96.8797 163.559 96.8901 163.494C96.897 163.442 96.9073 163.393 96.9142 163.341C96.9246 163.275 96.9349 163.213 96.9453 163.147C96.9522 163.099 96.9591 163.05 96.966 162.998C96.9764 162.933 96.9867 162.863 96.9971 162.798C97.004 162.749 97.0109 162.697 97.0178 162.649C97.0281 162.583 97.035 162.514 97.0454 162.448C97.0523 162.396 97.0592 162.344 97.0627 162.296C97.0696 162.23 97.0799 162.161 97.0868 162.095C97.0937 162.043 97.0972 161.994 97.1041 161.942C97.111 161.873 97.1179 161.804 97.1248 161.738C97.1282 161.69 97.1351 161.638 97.1386 161.589C97.1455 161.52 97.1524 161.451 97.1593 161.381C97.1628 161.329 97.1697 161.281 97.1731 161.229C97.18 161.16 97.1835 161.091 97.1904 161.021C97.1938 160.973 97.1973 160.921 97.2007 160.872C97.2076 160.8 97.2111 160.73 97.218 160.658C97.2214 160.609 97.2249 160.561 97.2283 160.512C97.2318 160.44 97.2387 160.367 97.2422 160.294C97.2456 160.246 97.2491 160.201 97.2491 160.152C97.2525 160.076 97.2594 160.003 97.2629 159.927C97.2663 159.882 97.2663 159.837 97.2698 159.792C97.2732 159.716 97.2767 159.64 97.2801 159.564C97.2836 159.519 97.2836 159.474 97.287 159.428C97.2905 159.352 97.2939 159.276 97.2974 159.2C97.2974 159.155 97.3008 159.113 97.3008 159.068C97.3043 158.989 97.3077 158.909 97.3077 158.833C97.3077 158.791 97.3112 158.753 97.3112 158.712C97.3146 158.632 97.3146 158.549 97.3181 158.469C97.3181 158.431 97.3181 158.393 97.3215 158.355C97.325 158.272 97.325 158.189 97.325 158.102C97.325 158.064 97.325 158.03 97.3285 157.992C97.3285 157.908 97.3319 157.825 97.3319 157.739C97.3319 157.701 97.3319 157.666 97.3319 157.628C97.3319 157.541 97.3319 157.455 97.3354 157.372C97.3354 157.341 97.3354 157.306 97.3354 157.275C97.3354 157.185 97.3354 157.095 97.3354 157.005C97.3354 156.977 97.3354 156.949 97.3354 156.925C97.3354 156.828 97.3354 156.731 97.3354 156.634C97.3354 156.617 97.3354 156.6 97.3354 156.582C97.3354 156.478 97.3354 156.371 97.3354 156.267C97.3354 156.257 97.3354 156.246 97.3354 156.236C97.3043 151.852 97.0005 147.967 97.9222 146.835C97.8946 146.863 97.8635 146.901 97.8255 146.942C97.8221 146.946 97.8221 146.946 97.8186 146.949C97.7806 146.991 97.7358 147.043 97.6874 147.098L97.684 147.102C97.3802 147.444 96.8797 148.03 96.2515 148.829C95.0744 150.363 93.9905 151.918 92.9964 153.48C92.8963 153.642 92.7927 153.805 92.6926 153.971C92.6823 153.985 92.6754 153.999 92.665 154.013C92.5718 154.165 92.4786 154.321 92.382 154.48C92.3681 154.501 92.3578 154.522 92.344 154.543C92.2508 154.699 92.1576 154.854 92.0678 155.014C92.0575 155.034 92.0437 155.055 92.0333 155.076C91.9367 155.242 91.84 155.412 91.7434 155.582C91.7365 155.595 91.7296 155.606 91.7226 155.62C91.198 156.551 90.6767 157.541 90.1693 158.591C90.1555 158.615 90.1452 158.642 90.1313 158.667C90.0451 158.847 89.9588 159.03 89.8725 159.214C89.8552 159.248 89.8379 159.287 89.8207 159.321C89.7378 159.498 89.6584 159.674 89.5791 159.854C89.5618 159.892 89.5445 159.934 89.5238 159.976C89.4444 160.156 89.365 160.336 89.2856 160.519C89.2684 160.557 89.2546 160.595 89.2373 160.63C89.1545 160.824 89.0716 161.018 88.9922 161.215C88.9819 161.243 88.9715 161.267 88.9577 161.295C88.5815 162.209 88.2225 163.154 87.8911 164.134C87.8117 164.373 87.7323 164.612 87.6529 164.854C87.6426 164.882 87.6357 164.91 87.6253 164.941C87.5563 165.156 87.4907 165.374 87.4251 165.589C87.4147 165.63 87.4009 165.668 87.3906 165.71C87.3284 165.917 87.2663 166.129 87.2076 166.34C87.1938 166.381 87.1835 166.426 87.1697 166.468C87.111 166.683 87.0523 166.897 86.9971 167.112C86.9867 167.154 86.9764 167.192 86.966 167.233C86.9073 167.462 86.8486 167.69 86.7934 167.922C86.7865 167.947 86.7796 167.974 86.7727 167.998C86.4586 169.307 86.1997 170.661 86.0133 172.05C86.0098 172.081 86.0064 172.112 85.9995 172.147C85.9684 172.389 85.9374 172.631 85.9097 172.874C85.9063 172.919 85.8994 172.964 85.8959 173.009C85.8718 173.241 85.8476 173.476 85.8269 173.708C85.8234 173.76 85.8165 173.809 85.8131 173.861C85.7924 174.096 85.7751 174.332 85.7579 174.567C85.7544 174.616 85.751 174.661 85.7475 174.709C85.7302 174.955 85.7199 175.204 85.7061 175.454C85.7061 175.488 85.7026 175.523 85.7026 175.557C85.6923 175.841 85.6819 176.125 85.6785 176.409H85.7268L85.782 176.482C85.8234 176.461 85.8856 176.43 85.9512 176.395C85.9822 176.378 86.0133 176.364 86.0513 176.343C86.072 176.333 86.0996 176.319 86.1203 176.305C86.1617 176.285 86.1997 176.264 86.248 176.24C86.2756 176.226 86.3067 176.208 86.3378 176.191C86.3826 176.167 86.4275 176.143 86.4793 176.115C86.5138 176.098 86.5518 176.077 86.5863 176.056C86.6381 176.028 86.6899 176.001 86.7451 175.969C86.7831 175.949 86.8245 175.924 86.8659 175.904C86.9246 175.872 86.9798 175.838 87.0419 175.803C87.0834 175.779 87.1282 175.751 87.1731 175.727C87.2352 175.692 87.2974 175.654 87.363 175.616C87.4113 175.589 87.4562 175.561 87.5045 175.53C87.5701 175.488 87.6391 175.447 87.7081 175.405C87.7599 175.374 87.8083 175.343 87.86 175.312C87.9325 175.267 88.005 175.222 88.0809 175.173C88.1327 175.138 88.1845 175.107 88.2397 175.073C88.3157 175.024 88.3951 174.972 88.4745 174.92C88.5297 174.886 88.5849 174.848 88.6401 174.813C88.7195 174.761 88.8024 174.706 88.8852 174.65C88.9405 174.612 88.9957 174.574 89.0544 174.536C89.1407 174.477 89.227 174.415 89.3133 174.356C89.3685 174.318 89.4237 174.28 89.4789 174.238C89.5721 174.172 89.6653 174.103 89.7585 174.034C89.8103 173.996 89.8621 173.958 89.9139 173.92C90.0174 173.843 90.1244 173.76 90.228 173.681C90.2694 173.646 90.3143 173.615 90.3557 173.584C90.4938 173.476 90.6353 173.366 90.7768 173.251C90.7872 173.244 90.7976 173.237 90.8045 173.227C90.9563 173.102 91.1082 172.978 91.2635 172.846C91.2877 172.825 91.3119 172.805 91.336 172.78C91.4603 172.673 91.588 172.566 91.7123 172.451C91.7606 172.41 91.8089 172.365 91.8573 172.32C91.9574 172.226 92.0609 172.136 92.161 172.039C92.2163 171.987 92.2715 171.932 92.3267 171.88C92.4199 171.79 92.5097 171.703 92.6029 171.613C92.6615 171.555 92.7202 171.496 92.7789 171.433C92.8652 171.343 92.9515 171.257 93.0378 171.167C93.0965 171.104 93.1586 171.039 93.2173 170.973C93.3001 170.883 93.383 170.793 93.4624 170.703C93.5211 170.634 93.5832 170.564 93.6419 170.498C93.7213 170.408 93.7972 170.315 93.8731 170.221C93.9318 170.149 93.9905 170.076 94.0492 170.003C94.1251 169.91 94.1976 169.816 94.2701 169.719C94.3253 169.643 94.384 169.571 94.4392 169.494C94.5117 169.397 94.5808 169.3 94.6498 169.203C94.705 169.127 94.7568 169.048 94.8086 168.971C94.8742 168.871 94.9398 168.771 95.0054 168.67C95.0571 168.591 95.1055 168.511 95.1572 168.431C95.2194 168.327 95.2815 168.224 95.3402 168.12C95.3851 168.04 95.4334 167.957 95.4783 167.877C95.5369 167.77 95.5922 167.659 95.6474 167.548C95.6888 167.469 95.7302 167.386 95.7717 167.306C95.8269 167.188 95.8787 167.071 95.9305 166.953C95.965 166.873 96.0029 166.797 96.034 166.717C96.0892 166.586 96.1376 166.451 96.1893 166.316C96.2066 166.243 96.2342 166.177 96.2584 166.111ZM95.2953 150.415C92.8825 154.525 90.8459 159.695 89.5238 163.31C89.0992 164.474 88.6609 165.609 88.2328 166.707C87.2456 169.245 86.3964 171.548 85.9477 173.604C86.7934 166.423 89.9311 158.002 95.2953 150.415ZM95.8269 149.906C94.5186 152.586 93.1931 156.385 92.2473 159.456C91.8089 160.883 91.3533 162.361 90.8769 163.736C90.0554 166.132 88.9163 168.334 87.9084 170.28C87.142 171.762 86.4379 173.12 86.0133 174.311C86.3964 172.105 87.3768 169.581 88.4676 166.769C88.8956 165.672 89.334 164.536 89.7585 163.369C91.1324 159.609 93.2553 154.124 95.8269 149.906ZM96.0961 149.789C95.247 151.935 94.5394 154.854 93.9284 157.573C93.4279 159.792 92.9101 162.088 92.2335 164.158C91.2187 167.292 89.3443 169.993 87.8359 172.161C87.1248 173.182 86.5 174.086 86.0927 174.854C86.4758 173.566 87.2663 172.043 88.1396 170.357C89.151 168.407 90.2936 166.198 91.1186 163.788C91.5949 162.41 92.0506 160.931 92.489 159.501C93.4969 156.222 94.6498 152.573 96.0961 149.789ZM96.4689 149.532C95.8925 151.395 95.5542 153.774 95.2056 156.236C94.8052 159.068 94.3875 161.998 93.5866 164.584C92.4061 168.417 89.5204 171.562 87.6115 173.646C86.9971 174.318 86.4689 174.889 86.1099 175.363C86.4793 174.529 87.2042 173.483 88.0533 172.261C89.5652 170.083 91.4499 167.368 92.4717 164.214C93.1517 162.136 93.6695 159.837 94.17 157.611C94.8397 154.633 95.4852 151.769 96.4689 149.532ZM96.79 149.449C96.4586 151.011 96.393 152.784 96.2549 155.038C96.0582 158.282 95.8373 161.96 94.9363 165.01C93.5659 169.685 89.3236 173.137 87.0419 174.99C86.6381 175.318 86.3274 175.575 86.0961 175.779C86.431 175.263 87.0627 174.571 87.8048 173.764C89.7275 171.669 92.6305 168.504 93.8214 164.636C94.6257 162.039 95.0433 159.103 95.4472 156.264C95.8269 153.608 96.1307 151.347 96.79 149.449ZM96.2929 165.436C94.6464 171.312 87.8117 175.204 86.0685 176.111C86.3205 175.862 86.7623 175.502 87.2249 175.128C89.5204 173.262 93.7938 169.785 95.1814 165.055C96.0858 161.984 96.3102 158.3 96.5069 155.045C96.6588 152.548 96.7244 151.136 97.1386 149.553C96.9867 150.845 97.0903 151.766 97.1317 153.798C97.1973 157.41 97.2836 161.897 96.2929 165.436Z" fill="white"/>
<path d="M84.5703 178.262C84.5703 178.262 92.589 171.177 93.3242 161.181C94.0595 151.188 90.2486 137.098 91.6777 134.494C91.6777 134.494 81.9159 154.186 84.5703 178.262Z" fill="#5AD23C"/>
<path d="M89.3267 177.711C89.3267 177.711 79.1058 171.16 77.1106 160.907C75.1189 150.658 78.0116 135.744 76.0371 133.192C76.0371 133.192 89.7306 152.597 89.3267 177.711Z" fill="#82E155"/>
<path opacity="0.5" d="M77.3973 162.129C77.449 162.33 77.5043 162.531 77.563 162.732C77.5975 162.849 77.6389 162.967 77.6769 163.081C77.7321 163.258 77.7908 163.435 77.8495 163.611C77.8909 163.736 77.9392 163.854 77.9841 163.975C78.0462 164.141 78.1049 164.304 78.1705 164.466C78.2188 164.591 78.2706 164.712 78.3224 164.834C78.388 164.993 78.457 165.149 78.526 165.304C78.5813 165.426 78.6365 165.547 78.6917 165.665C78.7642 165.817 78.8367 165.969 78.9092 166.118C78.9679 166.236 79.0265 166.354 79.0887 166.468C79.1646 166.617 79.244 166.762 79.3234 166.908C79.3855 167.022 79.4477 167.136 79.5133 167.247C79.5961 167.392 79.6755 167.534 79.7618 167.676C79.8274 167.787 79.893 167.894 79.9585 168.005C80.0448 168.147 80.1311 168.286 80.2209 168.424C80.2865 168.528 80.3555 168.632 80.4211 168.736C80.5108 168.874 80.604 169.013 80.6972 169.148C80.7628 169.245 80.8319 169.345 80.9009 169.442C80.9975 169.581 81.0942 169.716 81.1943 169.851C81.2599 169.941 81.3255 170.034 81.3945 170.124C81.4981 170.263 81.6016 170.398 81.7086 170.533C81.7708 170.616 81.8329 170.696 81.8985 170.779C82.0124 170.924 82.1298 171.066 82.2437 171.205C82.2989 171.271 82.3507 171.34 82.4059 171.406C82.5474 171.575 82.6924 171.741 82.8339 171.908C82.8615 171.939 82.8892 171.973 82.9168 172.005C83.0894 172.202 83.2654 172.399 83.438 172.586C83.4484 172.597 83.4587 172.611 83.4725 172.621C83.6348 172.794 83.7935 172.967 83.9523 173.133C84.0007 173.185 84.049 173.234 84.1008 173.286C84.2216 173.41 84.3424 173.535 84.4598 173.653C84.5184 173.712 84.5806 173.771 84.6392 173.829C84.7463 173.937 84.8533 174.041 84.9603 174.145C85.0224 174.207 85.088 174.266 85.1501 174.325C85.2502 174.418 85.3503 174.515 85.447 174.605C85.5126 174.664 85.5747 174.723 85.6403 174.782C85.7335 174.868 85.8301 174.955 85.9199 175.038C85.982 175.093 86.0442 175.149 86.1097 175.204C86.1995 175.284 86.2892 175.363 86.379 175.44C86.4411 175.491 86.4998 175.543 86.5619 175.595C86.6482 175.668 86.7311 175.741 86.8139 175.81C86.8726 175.859 86.9313 175.907 86.99 175.955C87.0694 176.021 87.1487 176.087 87.2247 176.149C87.2799 176.194 87.3351 176.239 87.3904 176.281C87.4663 176.34 87.5388 176.399 87.6113 176.454C87.6631 176.496 87.7148 176.534 87.7632 176.575C87.8322 176.631 87.8978 176.679 87.9668 176.731C88.0117 176.766 88.06 176.804 88.1049 176.835C88.167 176.883 88.2292 176.928 88.2878 176.973C88.3293 177.005 88.3707 177.036 88.4121 177.064C88.4708 177.105 88.5226 177.143 88.5744 177.181C88.6089 177.205 88.6468 177.233 88.6779 177.257C88.7297 177.296 88.778 177.327 88.8229 177.361C88.8505 177.379 88.8781 177.403 88.9023 177.42C88.9472 177.451 88.9817 177.476 89.0196 177.5C89.0956 177.552 89.1646 177.6 89.2164 177.635L89.282 177.531L89.3372 177.534C89.3441 177.112 89.3441 176.693 89.3407 176.277C89.3407 176.226 89.3407 176.174 89.3407 176.125C89.3372 175.758 89.3338 175.391 89.3234 175.024C89.3234 174.955 89.32 174.886 89.3165 174.816C89.3061 174.467 89.2958 174.12 89.282 173.774C89.2785 173.698 89.2751 173.625 89.2716 173.549C89.2578 173.203 89.2371 172.856 89.2164 172.514C89.2129 172.448 89.2095 172.379 89.206 172.313C89.1853 171.953 89.1577 171.593 89.1301 171.236C89.1267 171.187 89.1232 171.142 89.1197 171.094C88.9575 169.037 88.709 167.032 88.3914 165.09C88.3845 165.052 88.3776 165.014 88.3707 164.976C88.3155 164.633 88.2568 164.29 88.1947 163.954C88.1843 163.895 88.1739 163.836 88.1636 163.777C88.1049 163.455 88.0462 163.137 87.9841 162.822C87.9703 162.756 87.9599 162.694 87.9461 162.628C87.884 162.313 87.8219 161.998 87.7563 161.689C87.7425 161.631 87.7321 161.572 87.7183 161.509C87.6493 161.184 87.5802 160.862 87.5077 160.543C87.4974 160.502 87.4905 160.457 87.4801 160.415C87.3973 160.055 87.3144 159.698 87.2316 159.345C86.8795 157.888 86.4998 156.475 86.0925 155.107C86.0821 155.069 86.0683 155.027 86.058 154.989C85.9717 154.695 85.8819 154.404 85.7922 154.117C85.7749 154.061 85.7576 154.006 85.7404 153.951C85.6541 153.677 85.5678 153.407 85.4815 153.137C85.4608 153.078 85.4435 153.016 85.4228 152.957C85.3365 152.69 85.2468 152.424 85.157 152.16C85.1398 152.105 85.1191 152.053 85.1018 151.998C85.0086 151.721 84.9154 151.451 84.8187 151.177C84.8049 151.139 84.7911 151.101 84.7773 151.063C84.225 149.491 83.6486 148.005 83.0721 146.606C83.0652 146.586 83.0548 146.568 83.0479 146.551C82.9409 146.295 82.8339 146.042 82.7304 145.793C82.7166 145.761 82.7028 145.73 82.6924 145.699C82.5889 145.46 82.4887 145.221 82.3852 144.989C82.3714 144.958 82.3576 144.927 82.3438 144.892C82.2402 144.653 82.1367 144.421 82.0331 144.189C82.0227 144.169 82.0124 144.148 82.0055 144.124C81.8916 143.874 81.7811 143.625 81.6672 143.383C80.5626 141.031 79.3476 138.687 78.029 136.367C77.3213 135.155 76.7587 134.272 76.417 133.75C76.417 133.746 76.4135 133.746 76.4135 133.743C76.3583 133.66 76.3065 133.583 76.2651 133.518C76.2616 133.514 76.2616 133.511 76.2582 133.507C76.2167 133.445 76.1788 133.389 76.1477 133.344C77.1833 135.062 76.6689 140.768 76.4584 147.223C76.4584 147.24 76.4584 147.254 76.4584 147.271C76.4549 147.427 76.448 147.579 76.4446 147.735C76.4446 147.759 76.4446 147.787 76.4411 147.811C76.4377 147.953 76.4342 148.099 76.4273 148.241C76.4273 148.279 76.4239 148.32 76.4239 148.358C76.4204 148.49 76.4169 148.625 76.4135 148.757C76.4135 148.805 76.41 148.854 76.41 148.899C76.4066 149.023 76.4031 149.151 76.4031 149.276C76.4031 149.331 76.3997 149.383 76.3997 149.439C76.3962 149.563 76.3962 149.685 76.3928 149.809C76.3928 149.865 76.3928 149.917 76.3893 149.972C76.3893 150.097 76.3859 150.218 76.3859 150.342C76.3859 150.398 76.3859 150.457 76.3859 150.512C76.3859 150.633 76.3824 150.751 76.3824 150.872C76.3824 150.931 76.3824 150.99 76.3824 151.052C76.3824 151.17 76.3824 151.284 76.3824 151.402C76.3824 151.468 76.3824 151.53 76.3824 151.596C76.3824 151.71 76.3824 151.821 76.3824 151.935C76.3824 152.001 76.3824 152.067 76.3824 152.133C76.3824 152.247 76.3859 152.358 76.3859 152.472C76.3859 152.538 76.3859 152.604 76.3893 152.669C76.3893 152.78 76.3928 152.891 76.3962 153.002C76.3962 153.071 76.3997 153.14 76.3997 153.21C76.4031 153.317 76.4031 153.424 76.4066 153.528C76.41 153.601 76.41 153.67 76.4135 153.743C76.4169 153.847 76.4204 153.954 76.4239 154.058C76.4273 154.131 76.4273 154.203 76.4308 154.276C76.4342 154.38 76.4377 154.48 76.4446 154.584C76.448 154.66 76.4515 154.733 76.4549 154.809C76.4584 154.913 76.4653 155.014 76.4687 155.117C76.4722 155.19 76.4756 155.266 76.4791 155.339C76.486 155.439 76.4894 155.543 76.4963 155.644C76.4998 155.72 76.5032 155.793 76.5101 155.869C76.5171 155.969 76.524 156.066 76.5309 156.167C76.5378 156.243 76.5412 156.319 76.5481 156.392C76.555 156.492 76.5619 156.589 76.5723 156.689C76.5792 156.762 76.5826 156.838 76.5895 156.911C76.5964 157.011 76.6068 157.108 76.6172 157.209C76.6241 157.282 76.631 157.354 76.6379 157.427C76.6482 157.524 76.6586 157.617 76.6655 157.714C76.6724 157.791 76.6793 157.867 76.6896 157.939C76.7 158.036 76.7104 158.13 76.7207 158.223C76.7276 158.296 76.738 158.372 76.7449 158.445C76.7552 158.542 76.769 158.639 76.7828 158.736C76.7932 158.805 76.8001 158.878 76.8105 158.951C76.8243 159.051 76.8381 159.148 76.8519 159.248C76.8622 159.314 76.8691 159.383 76.8795 159.449C76.8933 159.55 76.9106 159.647 76.9244 159.743C76.9347 159.809 76.9451 159.875 76.9554 159.941C76.9727 160.052 76.9934 160.162 77.0107 160.277C77.0176 160.325 77.0279 160.377 77.0348 160.426C77.0624 160.588 77.0935 160.748 77.1246 160.907C77.1833 161.219 77.2523 161.523 77.3282 161.828C77.3386 161.932 77.3697 162.029 77.3973 162.129ZM89.1232 173.39C88.6779 170.339 87.7735 166.901 86.7173 163.113C86.2616 161.475 85.7887 159.782 85.34 158.043C83.9351 152.652 81.7501 144.934 79.0818 138.757C85.0742 150.207 88.419 162.773 89.1232 173.39ZM85.0569 158.12C85.5057 159.858 85.9786 161.554 86.4377 163.192C87.6078 167.389 88.6572 171.156 89.0162 174.428C88.5675 172.652 87.7977 170.616 86.9554 168.393C85.8509 165.478 84.5978 162.171 83.7314 158.604C83.2274 156.554 82.7545 154.356 82.2954 152.23C81.3082 147.659 79.9033 141.994 78.4742 137.984C81.3255 144.328 83.5968 152.514 85.0569 158.12ZM82.0124 152.292C82.4715 154.418 82.9444 156.62 83.4484 158.674C84.3182 162.261 85.5747 165.575 86.6827 168.497C87.6424 171.025 88.5053 173.313 88.9023 175.228C88.4535 174.075 87.7563 172.714 86.9623 171.174C85.2813 167.901 83.186 163.826 82.1229 159.162C81.4118 156.077 80.8974 152.669 80.3969 149.373C79.786 145.339 79.0714 141.007 78.1636 137.797C79.7514 141.97 80.9561 147.406 82.0124 152.292ZM80.1104 149.414C80.6075 152.714 81.1253 156.129 81.8398 159.224C82.9133 163.926 85.0155 168.016 86.7069 171.305C87.6527 173.147 88.4639 174.726 88.8643 175.976C88.4604 175.259 87.8667 174.39 87.1729 173.369C85.012 170.204 81.7501 165.422 80.5177 159.719C79.6789 155.872 79.3096 151.534 78.9541 147.344C78.6434 143.698 78.3431 140.176 77.739 137.403C78.8022 140.748 79.4442 144.996 80.1104 149.414ZM78.6607 147.368C79.0196 151.572 79.389 155.917 80.2312 159.782C81.4739 165.543 84.7566 170.353 86.9313 173.535C87.7666 174.761 88.4846 175.813 88.8574 176.589C88.5951 176.277 88.243 175.886 87.7804 175.381C85.1777 172.534 80.3348 167.233 78.9126 160.277C77.9772 155.734 77.8667 150.308 77.7666 145.519C77.6976 142.191 77.6907 139.577 77.3662 137.261C78.06 140.09 78.3258 143.435 78.6607 147.368ZM76.7898 143.656C76.9175 140.664 77.0797 139.314 76.952 137.403C77.3766 139.754 77.3938 141.842 77.4698 145.526C77.5699 150.325 77.6803 155.765 78.6192 160.336C80.0587 167.368 84.9361 172.708 87.5595 175.578C88.0842 176.153 88.5882 176.707 88.8781 177.084C86.8657 175.658 78.9955 169.574 77.2972 160.838C76.2789 155.571 76.5619 148.964 76.7898 143.656Z" fill="white"/>
<path d="M87.3147 174.785C87.3147 174.785 80.014 174.525 77.0454 169.542C74.0043 164.442 70.5318 157.195 69.5584 156.08C69.5549 156.08 83.4244 161.468 87.3147 174.785Z" fill="#5AD23C"/>
<path d="M74.6396 173.071C72.9137 187.237 68.6127 203.442 77.7429 209.031H97.3977C106.528 203.442 102.227 187.237 100.501 173.071C100.397 172.219 99.6759 171.586 98.8233 171.586H76.3172C75.4646 171.586 74.7432 172.223 74.6396 173.071Z" fill="#EEEEF5"/>
<g style="mix-blend-mode:overlay">
<path d="M100.501 173.071C100.397 172.219 99.6758 171.586 98.8232 171.586H90.3041C91.0255 171.586 91.6365 172.223 91.7262 173.071C93.1864 187.237 96.8281 203.442 89.0994 209.031H97.3976C106.528 203.442 102.227 187.237 100.501 173.071Z" fill="#2D2D37"/>
</g>
<defs>
<radialGradient id="paint0_radial" cx="0" cy="0" r="1" gradientUnits="userSpaceOnUse" gradientTransform="translate(220.691 206.027) scale(238.868 25.9741)">
<stop stop-color="#D5D5DE"/>
<stop offset="0.3041" stop-color="#D9D9E1" stop-opacity="0.6959"/>
<stop offset="0.6206" stop-color="#E6E6EB" stop-opacity="0.3794"/>
<stop offset="0.9418" stop-color="#FAFAFB" stop-opacity="0.058158"/>
<stop offset="1" stop-color="white" stop-opacity="0"/>
</radialGradient>
<linearGradient id="paint1_linear" x1="312.812" y1="97.0887" x2="308.419" y2="96.7578" gradientUnits="userSpaceOnUse">
<stop stop-color="#4D4D4D" stop-opacity="0"/>
<stop offset="1" stop-color="#1A1A1A"/>
</linearGradient>
<linearGradient id="paint2_linear" x1="313.552" y1="87.258" x2="309.16" y2="86.9271" gradientUnits="userSpaceOnUse">
<stop stop-color="#4D4D4D" stop-opacity="0"/>
<stop offset="1" stop-color="#1A1A1A"/>
</linearGradient>
</defs>
</svg>
