<svg width="174" height="360" viewBox="0 0 174 360" fill="none" xmlns="http://www.w3.org/2000/svg">
<path d="M150.382 13.603C153.884 23.4146 162.797 21.9461 167.875 29.52C173.771 38.3203 163.023 47.4327 166.735 55.7327C170.07 63.1937 175.013 60.2943 180.123 66.5341C183.867 71.0903 190.989 76.7815 189.687 87.5129L139.134 97.5021L143.604 29.6868" fill="#7C1C1C"/>
<path d="M125.444 13.603C121.948 23.4146 113.034 21.9461 107.956 29.52C102.061 38.3203 112.803 47.4327 109.097 55.7327C105.762 63.1937 100.818 60.2943 95.708 66.5341C91.9641 71.0903 84.8366 76.7815 86.1384 87.5129L136.687 97.5021L132.217 29.6868" fill="#7C1C1C"/>
<path d="M177.762 359.995L181.361 152.865L132.12 150.88L143.787 359.941" fill="#135656"/>
<path d="M170.532 166.043C161.221 172.66 169.075 174.419 170.306 181.783C171.162 186.866 162.614 188.916 171.259 196.984C172.151 199.518 171.259 200.691 169.65 202.105L166.444 359.156" stroke="#0E4442" stroke-width="1.8" stroke-miterlimit="10"/>
<path d="M97.757 360L92.5015 152.864L140.532 150.879L128.058 358.913" fill="#135656"/>
<path d="M125.234 220.739L120.995 359.161" stroke="#0E4442" stroke-width="1.8" stroke-miterlimit="10"/>
<path d="M104.417 64.9203C104.417 64.9203 120.576 58.8633 133.545 59.8154C156.272 61.4937 175.217 74.6351 180.812 97.7978C182.996 106.84 180.693 155.398 182.544 167.028L91.4043 165.204C91.4043 165.204 93.2278 86.8243 104.417 64.9203Z" fill="#FF5F87"/>
<path d="M67.9783 105.689C67.9837 105.678 95.0572 71.569 95.0572 71.569C95.0572 71.569 103.739 59.751 114.04 66.6417C124.341 73.5378 139.57 83.7475 114.874 110.66C90.4741 137.249 71.265 151.272 70.797 151.617C59.3178 159.965 46.5477 144.193 48.6241 133.392C50.4799 123.704 62.185 112.989 67.9783 105.689Z" fill="#FF5F87"/>
<path d="M100.388 98.863H144.137V160.837H100.388V98.863Z" fill="white"/>
<path d="M169.709 124.704L142.19 97.1251C142.19 97.1251 132.577 88.1903 139.769 79.745C146.961 71.3051 157.595 58.8308 178.967 83.5535C200.333 108.276 210.812 126.947 210.812 126.947C210.812 126.947 220.892 142.644 205.357 149.787C205.357 149.787 199.144 155.758 169.709 124.704Z" fill="#FF5F87"/>
<path d="M130.979 123.785L178.085 123.962L204.201 150.482C204.201 150.482 137.843 151.326 131.856 150.465L130.979 123.785Z" fill="#FF5F87"/>
<path d="M133.707 169.508V214.187C133.707 214.187 127.16 214.956 125.235 207.253C123.309 199.551 123.696 169.508 123.696 169.508" stroke="#0E4442" stroke-width="1.8" stroke-miterlimit="10"/>
<path d="M177.229 351.313H143.723" stroke="#9A8035" stroke-miterlimit="10"/>
<path d="M127.16 351.313H98.2689" stroke="#9A8035" stroke-miterlimit="10"/>
<path d="M132.743 274.278L122.345 266.763" stroke="#46130A" stroke-miterlimit="10"/>
<path d="M178.967 276.591L168.569 269.082" stroke="#46130A" stroke-miterlimit="10"/>
<path d="M133.061 132.709C134.686 131.913 128.096 129.148 126.956 128.341C124.148 126.356 122.055 126.716 118.693 126.926C115.552 127.125 112.459 127.276 109.328 127.523C105.052 127.862 104.197 127.776 100.716 125.173C98.5862 123.58 92.8681 115.829 90.8832 120.638C87.5481 128.717 93.3683 139.094 97.8761 141.305C104.81 144.699 114.928 143.193 122.341 144.414C124.568 144.785 130.716 147.464 132.954 147.41" fill="#FFDBE5"/>
<path d="M92.6203 120.477C92.6203 120.477 96.8215 127.432 100.313 129.422C103.798 131.407 107.063 130.713 107.063 130.713" stroke="#804D4D" stroke-width="1.5" stroke-miterlimit="10"/>
<path d="M90.6355 123.968C90.6355 123.968 93.4165 130.224 96.6117 132.16C99.8069 134.102 104.605 134.484 104.605 134.484" stroke="#804D4D" stroke-width="1.5" stroke-miterlimit="10"/>
<path d="M90.2808 127.115C90.2808 127.115 93.0617 133.366 96.2516 135.307C99.4468 137.244 104.25 137.631 104.25 137.631" stroke="#804D4D" stroke-width="1.5" stroke-miterlimit="10"/>
<path d="M124.826 127.636C118.053 124.64 113.406 116.119 110.028 120.541C108.166 122.978 113.68 125.812 114.799 128.965" fill="#FFDBE5"/>
<path d="M47.5479 61.4939L44.358 51.9244C44.358 51.9244 42.2333 47.6694 31.5986 47.6694C20.964 47.6694 14.5843 43.4145 9.27505 41.2897C3.96043 39.1596 -3.48978 40.2247 1.83022 47.6694C7.15023 55.1088 18.8446 59.3638 23.0995 60.4289C27.3544 61.4939 32.6691 66.8086 32.6691 66.8086L47.5479 61.4939Z" fill="#FFDBE5"/>
<path d="M46.752 132.634C38.893 108.917 25.2461 62.2524 26.8652 57.3896C33.3525 51.7253 41.8893 48.3795 45.4988 55.7704C54.0086 73.1882 82.6581 131.418 73.605 141.552C63.3845 152.994 50.7111 144.591 46.752 132.634Z" fill="#FFDBE5"/>
<path d="M146.611 123.483L170.876 124.059L161.054 110.772" stroke="#46130A" stroke-width="2" stroke-miterlimit="10"/>
<path d="M181.274 150.638H145.454" stroke="#46130A" stroke-width="2" stroke-miterlimit="10"/>
<path d="M123.679 45.8085C123.679 45.8085 125.385 57.363 125.804 63.7642C125.804 63.7642 129.882 73.8018 146.944 61.8815C146.944 61.8815 146.035 53.4254 144.701 42.6025" fill="#FFDBE5"/>
<path opacity="0.4" d="M124.088 47.2279C124.088 47.2279 127.95 49.6646 132.668 46.6899L124.976 57.3622L124.088 47.2279Z" fill="#807B63"/>
<path d="M133.551 46.2117C129.688 47.18 123.992 48.4656 120.727 46.3193C112.857 41.123 115.116 26.8628 115.218 22.4519C115.299 18.8855 115.627 14.0227 118.026 11.1126C119.99 8.74036 123.405 8.8856 126.187 8.46602C129.661 7.93886 133.217 7.44399 136.697 8.17017C140.323 8.92326 144.368 11.0104 147.214 13.3934C147.214 13.3934 144.217 28.0731 144.927 43.1779C144.927 43.194 135.067 45.8029 134.287 46.0181C134.045 46.0826 133.803 46.1472 133.551 46.2117Z" fill="#FFDBE5"/>
<path d="M143.266 25.5449C136.246 23.9473 123.992 18.595 122.104 11.0157C120.162 15.1416 118.07 20.1173 115.03 23.3663C115.471 22.893 110.098 15.4374 114.729 7.49775C117.688 2.80711 124.213 0.445648 129.49 0.0583472C137.338 -0.517225 159.376 2.80172 150.845 26.497" fill="#7C1C1C"/>
<path d="M130.716 26.5723C131.916 25.6041 132.448 28.1592 132.195 28.9176C131.582 30.7412 130.275 28.2936 130.592 26.9273L130.716 26.5723Z" fill="#46130A" stroke="#46130A" stroke-miterlimit="10"/>
<path d="M118.495 25.787C119.549 24.9371 120.028 27.1856 119.796 27.8526C119.264 29.461 118.097 27.2985 118.387 26.099L118.495 25.787Z" fill="#46130A" stroke="#46130A" stroke-miterlimit="10"/>
<path d="M124.304 36.6962C124.32 36.68 124.32 36.8527 124.325 36.8797C124.293 36.8473 124.304 36.653 124.304 36.6962Z" fill="#61362E"/>
<path d="M123.97 36.3252L123.981 36.3953L123.922 36.2334L123.97 36.3252Z" fill="#61362E"/>
<path d="M123.652 36.352C123.662 36.0605 123.77 36.3898 123.819 36.2818L123.824 36.217L123.868 36.4491C123.798 36.4168 123.695 36.271 123.652 36.352Z" fill="#61362E"/>
<path d="M123.523 36.9876C123.529 36.8735 123.48 36.8952 123.562 36.9496C123.562 36.9605 123.556 36.9713 123.556 36.9768C123.551 36.9768 123.54 36.9768 123.523 36.9876Z" fill="#61362E"/>
<path d="M123.556 36.9758C123.594 36.9813 123.54 37.0737 123.556 36.9758V36.9758Z" fill="#61362E"/>
<path d="M123.389 36.9221L123.443 37.0193C123.438 37.084 123.4 37.1056 123.416 37.1542C123.362 37.1002 123.373 37.0355 123.389 36.9221Z" fill="#61362E"/>
<path d="M123.335 36.7175L123.363 36.761C123.357 36.7882 123.352 36.7991 123.335 36.7175Z" fill="#61362E"/>
<path d="M123.416 36.8423L123.357 36.756C123.362 36.7074 123.357 36.6156 123.384 36.7883C123.373 36.7074 123.389 36.7883 123.416 36.8423Z" fill="#61362E"/>
<path d="M123.443 36.7996C123.464 36.7348 123.497 36.6916 123.443 36.5945C123.535 36.6323 123.535 36.832 123.443 36.7996Z" fill="#61362E"/>
<path d="M123.615 36.0561L123.642 35.9697L123.68 36.0615C123.663 36.0183 123.62 36.1479 123.615 36.0561Z" fill="#61362E"/>
<path d="M123.098 37.0901C123.093 37.0307 123.109 36.9281 123.109 36.8472L123.147 36.9173C123.131 36.9605 123.093 36.9983 123.098 37.0901Z" fill="#61362E"/>
<path d="M123.104 36.8483L123.044 36.7446C123.093 36.7283 123.104 36.7828 123.104 36.8483Z" fill="#61362E"/>
<path d="M123.303 36.4004L123.4 36.6163L123.287 36.395L123.303 36.4004Z" fill="#61362E"/>
<path d="M122.883 37.1056L122.921 37.2459L122.856 37.0354L122.883 37.1056Z" fill="#61362E"/>
<path d="M122.733 37.0835C122.76 37.2022 122.701 37.2832 122.728 37.3534C122.685 37.3318 122.647 37.2292 122.615 37.1375C122.652 37.1914 122.69 37.1807 122.733 37.0835Z" fill="#61362E"/>
<path d="M122.566 37.0081C122.582 37.035 122.598 37.089 122.62 37.143C122.598 37.116 122.582 37.0782 122.566 37.0081Z" fill="#61362E"/>
<path d="M122.954 36.7822C122.954 36.82 122.948 36.9172 122.916 36.9604L122.932 36.7876L122.954 36.7822Z" fill="#61362E"/>
<path d="M122.937 36.7769C122.916 36.7877 122.899 36.7932 122.888 36.7932C122.894 36.7932 122.905 36.7877 122.937 36.7769Z" fill="#61362E"/>
<path d="M123.179 36.5625C123.142 36.4653 123.071 36.3682 123.125 36.217C123.158 36.3358 123.125 36.4222 123.179 36.5625Z" fill="#61362E"/>
<path d="M122.98 36.5617L123.034 36.5186C123.034 36.5617 123.029 36.6319 123.045 36.6805L122.98 36.5617Z" fill="#61362E"/>
<path d="M122.948 36.5081L122.98 36.5632L122.959 36.5797L122.948 36.5081Z" fill="#61362E"/>
<path d="M122.674 36.8477C122.647 36.7721 122.62 36.7668 122.587 36.756C122.625 36.7236 122.657 36.702 122.695 36.7074C122.695 36.7613 122.712 36.8585 122.674 36.8477Z" fill="#61362E"/>
<path d="M122.803 36.8052L122.798 36.7938C122.803 36.7768 122.803 36.7711 122.803 36.8052Z" fill="#61362E"/>
<path d="M122.259 36.7478C122.259 36.7359 122.265 36.724 122.265 36.7122V36.7478H122.259Z" fill="#61362E"/>
<path d="M122.693 36.675C122.721 36.6418 122.738 36.6861 122.754 36.7414C122.732 36.7248 122.71 36.7137 122.688 36.7082C122.688 36.6805 122.688 36.6639 122.693 36.675Z" fill="#61362E"/>
<path d="M122.474 36.9287C122.49 36.8906 122.507 36.8633 122.523 36.8306C122.507 36.8906 122.479 36.9778 122.474 36.9287Z" fill="#61362E"/>
<path d="M122.792 36.8416L122.798 36.8475C122.786 36.8891 122.786 36.8713 122.792 36.8416Z" fill="#61362E"/>
<path d="M122.792 36.843C122.776 36.8157 122.765 36.7721 122.754 36.7339C122.77 36.7502 122.787 36.7666 122.798 36.7939C122.798 36.8048 122.792 36.8266 122.792 36.843Z" fill="#61362E"/>
<path d="M122.255 35.6367C122.233 35.7927 122.292 35.9487 122.351 35.782C122.394 35.9057 122.341 36.4275 122.265 36.7179C122.265 36.648 122.276 36.5834 122.206 36.4812C122.249 36.3952 122.362 36.2876 122.324 36.1424C122.255 36.0563 122.255 36.1908 122.201 36.2715C122.255 36.0778 122.131 35.9756 122.195 35.6851L122.238 35.7927C122.244 35.7497 122.233 35.6744 122.255 35.6367Z" fill="#61362E"/>
<path d="M122.389 36.7068L122.411 36.7284C122.384 36.7554 122.357 36.8201 122.308 36.9389C122.265 36.8579 122.265 36.7986 122.265 36.7446L122.394 36.7338L122.389 36.7068Z" fill="#61362E"/>
<path d="M122.523 36.7289C122.507 36.5568 122.453 36.4815 122.491 36.2932C122.561 36.304 122.534 36.4384 122.577 36.5138C122.464 36.4707 122.609 36.6106 122.523 36.7074C122.545 36.7343 122.566 36.7451 122.588 36.7558C122.566 36.7773 122.545 36.8042 122.523 36.8365V36.8257C122.529 36.8042 122.529 36.7881 122.523 36.8042V36.7988C122.523 36.772 122.523 36.7504 122.523 36.7289C122.491 36.7666 122.518 36.7773 122.529 36.7935V36.8204L122.416 36.7235C122.437 36.702 122.47 36.7074 122.523 36.7289Z" fill="#61362E"/>
<path d="M123.05 35.8464C123.05 35.8627 123.05 35.8736 123.05 35.8899C123.045 35.8682 123.039 35.8519 123.05 35.8464Z" fill="#61362E"/>
<path d="M123.018 35.9537C123.029 35.9752 123.034 36.0452 123.061 36.029C123.083 35.9752 123.056 35.943 123.056 35.8892C123.072 35.9322 123.115 36.0129 123.072 36.0989L123.061 36.0774C123.023 36.1366 122.975 36.3571 122.986 36.384C122.986 36.2227 122.996 36.1097 123.018 35.9537Z" fill="#61362E"/>
<path d="M122.781 36.3046L122.69 36.2183L122.733 36.0671V36.1589C122.781 36.1211 122.771 36.2345 122.781 36.3046Z" fill="#61362E"/>
<path d="M122.238 36.8312L122.244 37.0147C122.249 37.0147 122.184 36.7502 122.184 36.7502L122.238 36.8312Z" fill="#61362E"/>
<path d="M122.05 36.7932L122.034 36.9498L122.002 36.8472L122.05 36.7932Z" fill="#61362E"/>
<path d="M122.922 31.1126L122.976 31.1072C122.954 31.1126 122.938 31.1126 122.922 31.1126Z" fill="#61362E"/>
<path d="M122.857 31.2798L122.779 31.2522C122.824 31.2633 122.857 31.2743 122.857 31.2798Z" fill="#61362E"/>
<path d="M119.909 33.8564C119.763 33.8024 119.542 33.7376 119.72 33.7646L119.892 33.797C119.855 33.8186 119.876 33.8402 119.909 33.8564Z" fill="#61362E"/>
<path d="M121.415 32.2425L121.458 32.2749C121.399 32.2587 121.345 32.2479 121.296 32.2317C121.334 32.2371 121.372 32.2371 121.415 32.2425Z" fill="#61362E"/>
<path d="M122.093 32.502L122.006 32.415C122.039 32.4422 122.066 32.4694 122.093 32.502Z" fill="#61362E"/>
<path d="M123.502 30.2949L123.674 30.3435C123.653 30.3813 123.583 30.3273 123.502 30.2949Z" fill="#61362E"/>
<path d="M120.425 36.1265C120.339 36.1427 120.29 36.1373 120.258 36.1157C120.382 36.0887 120.522 36.0131 120.425 36.1265Z" fill="#61362E"/>
<path d="M121.199 30.4084C121.237 30.4084 121.27 30.4139 121.308 30.4357C121.275 30.4357 121.237 30.4303 121.199 30.4084Z" fill="#61362E"/>
<path d="M120.166 36.0077C120.188 36.0077 120.199 36.0022 120.215 36.0022C120.215 36.0458 120.22 36.0895 120.259 36.1167C120.171 36.1331 120.1 36.1222 120.166 36.0077Z" fill="#61362E"/>
<path d="M124.761 26.8481C124.755 26.8421 124.749 26.8362 124.743 26.8303C124.767 26.8362 124.767 26.8421 124.761 26.8481Z" fill="#61362E"/>
<path d="M123.352 25.3674C123.34 25.3734 123.334 25.3912 123.328 25.4031C123.316 25.3912 123.322 25.3793 123.352 25.3674Z" fill="#61362E"/>
<path d="M121.302 36.7122C121.335 36.7347 121.302 36.7347 121.302 36.7122V36.7122Z" fill="#61362E"/>
<path d="M121.732 36.1157C121.732 36.094 121.738 36.0722 121.754 36.0342C121.738 36.0722 121.732 36.0994 121.732 36.1157Z" fill="#61362E"/>
<path d="M120.908 35.1485C120.943 35.1312 120.937 35.1312 120.908 35.1485V35.1485Z" fill="#61362E"/>
<path d="M121.394 36.6538C121.372 36.6703 121.344 36.6814 121.322 36.6924C121.333 36.6814 121.36 36.6703 121.394 36.6538Z" fill="#61362E"/>
<path d="M121.35 36.7289C121.366 36.7234 121.377 36.7234 121.388 36.7234C121.383 36.751 121.372 36.7676 121.35 36.7289Z" fill="#61362E"/>
<path d="M121.252 36.6912C121.274 36.6967 121.296 36.6967 121.323 36.6912C121.312 36.7022 121.301 36.7077 121.301 36.7132C121.29 36.7077 121.279 36.7022 121.252 36.6912Z" fill="#61362E"/>
<path d="M123.615 28.5148C123.609 28.5093 123.609 28.5093 123.604 28.5039C123.675 28.5093 123.664 28.5148 123.615 28.5148Z" fill="#61362E"/>
<path d="M121.776 33.5337H121.765L121.759 33.5281L121.776 33.5337Z" fill="#61362E"/>
<path d="M121.905 33.5228C121.69 33.4906 121.717 33.5121 121.76 33.5336L121.265 33.4314C121.265 33.4314 121.426 33.4529 121.587 33.4744C121.749 33.4959 121.905 33.5228 121.905 33.5228Z" fill="#61362E"/>
<path d="M123.147 30.7427L123.266 30.861C123.529 30.904 123.47 30.818 123.648 30.9632C123.147 30.7427 123.502 31.1515 123.002 30.9309L123.094 31.0116C123.094 31.0009 123.126 31.0116 123.12 31.0008C123.33 31.1784 122.738 30.8879 122.765 31.0062C122.787 31.0546 122.851 31.1084 122.921 31.1138L122.765 31.1246C122.765 31.1515 122.857 31.1837 122.857 31.1622L122.771 31.2483L122.787 31.2537C122.701 31.2322 122.566 31.2106 122.507 31.2053C122.566 31.2644 122.566 31.216 122.626 31.2483L122.48 31.2537C122.599 31.3344 122.744 31.3451 122.744 31.2967C123.217 31.5764 122.593 31.2859 122.835 31.5334L122.921 31.5065C123.19 31.6679 123.067 31.6625 123.217 31.8077C123.131 31.7539 122.83 31.485 122.674 31.4904C122.706 31.5226 122.712 31.5549 122.593 31.5442C122.771 31.6248 122.712 31.6356 122.685 31.6732L122.921 31.7755C122.835 31.7916 122.717 31.7324 122.599 31.7109C122.599 31.7701 122.776 31.8615 122.927 31.9422C122.927 32.039 122.658 31.7593 122.572 31.8292C122.631 31.9368 122.513 31.9368 122.34 31.953C122.4 32.0337 122.486 32.0068 122.55 32.0552L122.346 32.0121C122.346 32.0229 122.405 32.0444 122.437 32.0605C122.351 32.0605 122.201 31.9583 122.115 31.9852C121.846 31.8884 122.448 32.265 122.12 32.2004C122.179 32.2488 122.27 32.2542 122.357 32.3026C122.12 32.308 122.179 32.3188 121.883 32.2811L122.012 32.4102C121.851 32.2865 121.62 32.2596 121.421 32.2381C121.34 32.1843 121.275 32.1359 121.243 32.1143L121.082 32.1466C121.114 32.1735 121.2 32.2004 121.308 32.2273C121.286 32.2273 121.265 32.2219 121.243 32.2219C121.318 32.2919 121.464 32.3295 121.604 32.3618C121.56 32.3349 121.512 32.3026 121.469 32.2703C121.625 32.308 121.792 32.3564 121.926 32.421C121.899 32.4156 121.867 32.4156 121.851 32.421C121.894 32.4317 121.926 32.4425 121.953 32.4532C121.975 32.4694 121.921 32.4532 121.856 32.4425L122.115 32.5716L122.007 32.5339L122.131 32.7114C121.835 32.6792 121.404 32.5877 121.243 32.6738C121.453 32.7168 121.566 32.7921 121.802 32.8782C121.566 32.7491 121.942 32.8244 121.921 32.7437C121.932 32.7867 122.045 32.8244 122.088 32.8298L121.819 32.8513C122.012 32.9212 121.953 32.932 122.023 32.9912C121.652 32.8244 121.738 32.9804 121.609 32.9804C121.733 33.0288 121.867 33.0665 121.862 33.0019C122.125 33.1687 121.388 32.9158 121.609 33.0665C121.614 33.0557 121.598 33.0396 121.668 33.0557C121.544 33.0503 121.604 33.1579 121.722 33.1794L121.727 33.1687C121.749 33.2655 121.657 33.4107 121.318 33.3462C121.361 33.3569 121.722 33.4322 121.792 33.4484C121.792 33.4484 121.507 33.4053 121.216 33.3838C120.926 33.3623 120.635 33.3838 120.635 33.3838C120.926 33.4161 121.62 33.5452 121.792 33.5237C121.829 33.5452 121.878 33.5613 121.77 33.5721C121.733 33.5613 121.351 33.5022 121.324 33.5129C121.501 33.556 121.534 33.5613 121.577 33.5775C121.609 33.5721 121.646 33.6044 121.77 33.6528C121.711 33.6205 121.248 33.6205 121.259 33.6635C121.329 33.6635 121.711 33.7012 121.765 33.6904C121.765 33.6904 121.652 33.712 121.534 33.7281C121.421 33.7442 121.302 33.7604 121.302 33.7604C121.388 33.7442 121.684 33.7926 121.808 33.8303C121.722 33.8088 121.808 33.9325 121.759 33.954L121.663 33.8948C121.716 34.0293 121.012 33.9325 121.023 34.0401C121.119 34.0347 121.598 34.0885 121.652 34.1262C121.421 34.1046 120.522 34.1208 120.323 34.2768L120.452 34.2983L120.291 34.4059C120.651 34.2929 121.421 34.1584 121.706 34.1638C121.808 34.1907 121.862 34.1799 121.846 34.2068C121.969 34.2176 122.039 34.2015 122.045 34.1961C122.045 34.2015 122.12 34.2391 122.12 34.2337C121.846 34.2391 121.835 34.2875 121.604 34.309C121.604 34.2983 121.899 34.2122 121.899 34.223C121.625 34.2068 121.109 34.2875 121.146 34.3844C121.254 34.3897 121.647 34.309 121.738 34.3037C121.641 34.3198 121.55 34.379 121.614 34.3736L121.765 34.3252C121.867 34.3252 121.388 34.4435 121.652 34.422C121.668 34.4328 122.012 34.3521 121.846 34.4005C121.517 34.4866 120.522 34.7286 120.312 34.8254C120.334 34.8362 120.614 34.8954 120.759 34.8631C120.996 34.8039 121.356 34.5941 121.571 34.5457C121.496 34.5726 121.399 34.621 121.367 34.6426C121.431 34.6318 121.603 34.5457 121.571 34.5888C121.286 34.7125 121.604 34.6479 121.329 34.7071C121.254 34.7824 121.388 34.7232 121.388 34.7663C121.205 34.8362 120.77 35.1321 120.748 35.2235C120.807 35.1859 120.888 35.1536 120.931 35.1321C121.001 35.2181 121.152 35.1805 121.216 35.2396C121.281 35.1966 121.383 35.1643 121.474 35.0621C121.437 35.1052 121.361 35.1859 121.378 35.202C121.62 35.046 121.367 35.1428 121.641 34.9438C121.501 35.0675 121.496 35.1482 121.442 35.2504C121.232 35.4441 121.329 35.2343 121.394 35.1374C121.071 35.4064 120.883 35.6754 120.883 35.8744C120.915 35.9927 121.071 35.7345 121.055 35.7776C121.248 35.8152 120.84 36.3209 121.152 36.1971C121.335 36.0411 121.388 35.8314 121.49 35.7076C121.469 35.6162 121.302 35.7829 121.259 35.756L121.383 35.6915C121.404 35.6269 121.394 35.5678 121.329 35.6108C121.496 35.4602 121.614 35.67 121.813 35.5355C121.797 35.6054 121.803 35.6861 121.749 35.7614L121.722 35.7238C121.604 35.8744 121.7 35.9605 121.609 36.025C121.614 36.1487 121.625 36.3478 121.759 36.2778L121.856 36.0465C121.835 36.1165 121.749 36.1702 121.749 36.0949C121.754 36.2079 121.985 35.8045 121.932 36.1218L121.819 36.2724C121.846 36.4069 121.883 36.6813 122.007 36.6167C121.91 36.848 121.991 36.5898 121.851 36.8588C121.996 36.5306 121.577 36.8157 121.781 36.4769C121.609 36.7781 121.62 36.5844 121.415 36.8211C121.447 36.7458 121.507 36.6866 121.404 36.7028C121.41 36.6813 121.41 36.649 121.415 36.6328L121.41 36.6382L121.421 36.6328C121.421 36.6221 121.421 36.6167 121.426 36.6328C121.458 36.606 121.49 36.5683 121.517 36.5306C121.55 36.3478 121.426 36.3262 121.431 36.2294C121.372 36.2509 121.405 36.3209 121.34 36.3908L121.351 36.2402C121.259 36.4015 121.082 36.4553 121.135 36.5952L121.033 36.5575C120.92 36.6221 120.807 36.6113 120.802 36.5306C120.727 36.5414 120.802 36.3155 120.759 36.45C120.754 36.45 120.673 36.2886 120.684 36.2832L120.651 36.3155C120.49 36.2348 120.603 35.9282 120.237 35.9927C120.232 35.9228 120.248 35.8475 120.151 35.7991L120.011 35.869C120.017 35.7829 119.764 35.7507 119.893 35.6431C119.484 35.7668 119.672 35.3365 119.592 35.2343L119.791 35.159C119.758 35.0783 119.812 34.9707 119.887 34.847L120.07 34.8093C120.216 34.6963 119.936 34.6157 119.974 34.4597C119.904 34.4758 119.92 34.5135 119.957 34.535C119.758 34.4704 119.839 34.3575 119.941 34.266C120.044 34.1692 120.156 34.0993 120.017 34.0078C120.086 33.9755 120.07 33.9486 120.027 33.9164C120.027 33.9217 120.022 33.9217 120.017 33.9271C120.017 33.9217 120.017 33.9164 120.017 33.911C119.99 33.8895 119.957 33.868 119.931 33.8464C119.974 33.868 120.006 33.8895 120.022 33.9056C120.033 33.868 120.06 33.8464 120.103 33.8303L119.909 33.7926C119.914 33.7926 119.909 33.7873 119.914 33.7873C119.844 33.755 120.006 33.7819 120.151 33.8142C120.183 33.8034 120.226 33.798 120.269 33.7926C119.963 33.7335 120.382 33.7389 120.054 33.6743C120.221 33.6743 120.189 33.5667 120.533 33.5829C120.49 33.5775 120.468 33.5721 120.463 33.5829C120.436 33.556 120.404 33.5452 120.442 33.5075C120.452 33.5022 120.468 33.4914 120.49 33.486L120.248 33.4484C120.248 33.4484 120.334 33.4322 120.42 33.4161C120.506 33.4053 120.592 33.3892 120.592 33.3892C120.452 33.3193 120.372 33.2709 120.173 33.3085C120.485 33.2063 120.296 33.1956 120.603 33.1525L120.447 33.1202C120.463 33.0826 120.689 33.088 120.565 33.0288C120.431 32.9481 120.452 32.8459 120.479 32.7329C120.512 32.6307 120.549 32.5124 120.452 32.3725C120.877 32.577 120.291 32.2112 120.63 32.3349C120.533 32.2865 120.485 32.2381 120.382 32.2273C120.522 32.1789 120.275 32.0283 120.587 32.0821C120.49 32.0283 120.431 32.039 120.372 32.0068C120.399 32.0068 120.474 32.0175 120.415 31.9799C120.355 31.9476 120.323 31.9583 120.269 31.953C120.323 31.8669 120.646 31.9906 120.947 32.109C120.823 32.0068 120.856 31.9906 121.06 32.039C120.969 31.9799 120.877 31.9153 120.823 31.953C120.823 31.9153 120.764 31.7001 121.001 31.8024C120.947 31.7647 121.001 31.7539 121.033 31.7539C121.049 31.6786 121.028 31.6625 121.082 31.6087L121.114 31.6464C121.41 31.7432 121.2 31.6195 121.259 31.5818L121.227 31.571C121.076 31.3559 121.351 31.5603 121.168 31.3344L121.34 31.4204C121.727 31.5764 121.162 31.2106 121.34 31.2053L121.431 31.2752C121.577 31.2967 120.963 30.9363 120.931 30.8771C120.904 30.8556 120.872 30.8664 120.84 30.8664C120.662 30.662 121.076 30.9578 121.162 30.904C121.044 30.8341 120.84 30.7803 120.84 30.7158C120.748 30.6458 121.313 30.7534 121.103 30.5759C121.195 30.6351 121.281 30.6942 121.367 30.6889C121.426 30.6512 121.071 30.3822 121.394 30.4683C121.372 30.4522 121.345 30.436 121.324 30.4253C121.421 30.4199 121.512 30.35 121.69 30.4038C121.098 30.0864 122.098 30.2854 121.539 30.0326L121.625 29.9196L121.566 29.8981C121.566 29.8013 121.711 29.8336 121.862 29.8658C121.835 29.8282 121.776 29.8174 121.743 29.8067C121.684 29.6399 121.711 29.6399 122.034 29.6668L121.856 29.5754C121.975 29.5969 121.646 29.2795 121.91 29.258C121.889 29.2472 121.851 29.2365 121.824 29.2365C122.093 29.2042 121.458 28.7039 122.141 28.9514L122.34 28.9406C122.346 29.0751 122.636 29.0536 122.728 29.145C122.787 29.1181 122.577 28.946 122.518 28.9837L122.545 29.0052C122.19 28.8707 122.48 28.8169 122.244 28.7147C122.357 28.5049 122.254 28.2144 122.324 28.0047L122.588 28.1445L122.604 28.0692C122.55 28.0208 122.4 27.9562 122.394 28.01C122.249 27.9186 122.561 27.9831 122.62 28.0047C122.55 27.8594 122.287 27.9078 122.292 27.8755L122.33 27.8433L122.357 27.8648C122.48 27.8809 122.599 27.924 122.615 27.8594C122.577 27.8002 122.453 27.768 122.453 27.7518C122.432 27.7465 122.426 27.7357 122.453 27.7249L122.469 27.6281L122.669 27.7518C122.792 27.7572 122.69 27.6658 122.916 27.8056C122.566 27.5905 122.916 27.4183 122.814 27.3323C122.991 27.3376 123.013 27.2838 123.024 27.2085C123.061 27.2408 123.303 27.3484 123.293 27.2785C122.782 27.1009 123.115 27.0848 122.771 26.9019C122.997 27.0364 122.895 26.7621 123.212 26.9557C123.19 26.8912 123.024 26.8804 122.916 26.7997C123.153 26.7567 122.889 26.4985 122.997 26.3855C123.067 26.407 123.158 26.4662 123.271 26.4716L122.959 26.2833C123.002 26.2672 123.357 26.3909 123.137 26.2618C123.19 26.2887 123.271 26.3263 123.298 26.3156C123.061 25.939 123.755 25.8099 123.185 25.385C123.314 25.4495 123.33 25.4334 123.341 25.4065C123.368 25.4334 123.513 25.4442 123.605 25.4711L123.368 25.3043C123.637 25.3366 123.411 25.186 123.664 25.2236L123.61 25.2505C123.917 25.2505 124.255 25.4442 124.632 25.5141C124.282 25.5087 125.089 25.7992 124.589 25.7992C124.659 25.8422 124.713 25.8099 124.799 25.8422C124.632 25.8315 124.589 25.8584 124.648 25.9337L124.691 25.939C124.605 26.095 124.745 26.208 124.793 26.4285L124.616 26.3586C124.627 26.407 124.686 26.4339 124.723 26.4662C124.433 26.4286 124.74 26.3479 124.422 26.2995C124.783 26.4716 124.341 26.5738 124.75 26.7459C124.734 26.8051 124.546 26.6599 124.53 26.719L124.637 26.7728L124.487 26.7405C124.497 26.789 124.632 26.8535 124.729 26.8912C124.723 26.875 124.766 26.875 124.777 26.8643C124.896 26.9611 124.686 26.9934 124.718 27.0256L124.67 26.945C124.514 27.0741 124.584 27.3215 124.298 27.3914L124.218 27.3484C124.019 27.4076 124.277 27.4775 124.153 27.5797H124.175C124.083 27.5743 124.024 27.5905 124.024 27.6281C124.137 27.6335 124.191 27.7626 124.315 27.7626C124.099 27.8218 124.159 27.7733 123.814 27.7303L123.943 27.8056C123.809 27.7841 123.739 27.7572 123.68 27.8056C123.82 27.8002 123.873 27.9293 124.056 27.9347C124.304 28.1875 123.674 28.0047 124.089 28.2467C123.68 28.1499 123.922 28.0477 123.825 28.0477C123.712 27.967 123.518 27.9778 123.54 28.0369C123.529 28.08 124.003 28.3113 123.949 28.4135C123.949 28.4027 123.981 28.4135 123.981 28.4027C124.062 28.4834 123.814 28.4242 123.954 28.5372C123.712 28.4673 123.943 28.6071 123.642 28.4888L123.75 28.4242C123.648 28.4457 123.282 28.3489 123.411 28.5103C123.475 28.5264 123.562 28.5372 123.615 28.5372C123.691 28.6017 123.535 28.5641 123.615 28.6286C123.911 28.747 123.728 28.5372 123.976 28.5748C124.089 28.6555 123.717 28.5964 124.046 28.6986C123.621 28.5695 124.051 28.8223 123.712 28.7631L123.89 28.833C123.857 28.833 123.766 28.8223 123.761 28.8438L124.003 28.903C123.782 28.8761 124.126 29.0859 123.997 29.0966C124.051 28.9837 123.798 28.9783 123.691 28.8761C123.395 28.9137 124.116 29.1558 123.96 29.2795C123.992 29.2688 123.89 29.1504 123.793 29.1504C123.814 29.1988 123.863 29.2634 123.949 29.3225C123.868 29.414 123.777 29.2257 123.648 29.2257C123.847 29.3548 123.54 29.2365 123.449 29.2526L123.626 29.3333C123.691 29.5001 123.239 29.1988 123.33 29.371L123.599 29.4355L123.513 29.4624L123.723 29.5431C123.545 29.5377 123.578 29.5754 123.605 29.6561C123.486 29.5861 123.276 29.5216 123.249 29.57C123.341 29.6507 123.427 29.6238 123.368 29.6883C123.486 29.7206 123.637 29.7636 123.486 29.6614C123.545 29.683 123.604 29.6991 123.664 29.7152C123.766 29.8067 123.647 29.8228 123.637 29.8497C123.637 29.8336 123.631 29.8174 123.61 29.8013L123.314 29.7959C123.373 29.8443 123.432 29.8551 123.492 29.8658C123.465 29.8766 123.373 29.8551 123.346 29.882C123.492 29.9412 123.642 30.0057 123.728 29.9949L123.524 30.0272C123.583 30.0649 123.674 30.1563 123.734 30.1671C123.793 30.2639 123.389 30.1778 123.47 30.3069C123.438 30.2962 123.411 30.2962 123.384 30.3016C123.384 30.3876 123.535 30.5275 123.298 30.5221L123.535 30.6889C123.448 30.7265 123.239 30.4791 123.094 30.5436C122.975 30.5813 123.298 30.6727 123.363 30.7319C123.217 30.7104 122.921 30.6566 123.099 30.8233C123.147 30.7911 123.12 30.7588 123.147 30.7427ZM122.669 31.4904C122.712 31.4904 122.841 31.5119 122.744 31.4527C122.529 31.3774 122.62 31.4366 122.669 31.4904ZM121.711 32.507C121.776 32.5178 121.754 32.4909 121.695 32.4425C121.673 32.4479 121.673 32.4694 121.711 32.507ZM121.001 36.4338V36.4231C120.904 36.4661 120.942 36.45 121.001 36.4338ZM121.152 36.4123C121.146 36.4392 121.135 36.4661 121.114 36.4876C121.13 36.4392 121.109 36.4284 121.071 36.4284C121.114 36.3854 121.146 36.3585 121.152 36.4123ZM122.502 27.7787L122.545 27.811C122.609 27.8002 122.561 27.7895 122.502 27.7787Z" fill="#61362E"/>
<path d="M122.012 32.4742C121.985 32.4579 121.953 32.4416 121.915 32.4253C121.953 32.4307 121.985 32.447 122.012 32.4742Z" fill="#61362E"/>
<path d="M123.469 30.2848L123.464 30.2793L123.502 30.2959L123.469 30.2848Z" fill="#61362E"/>
<path d="M121.646 34.5393C121.619 34.5447 121.581 34.5502 121.537 34.5611C121.592 34.5447 121.63 34.5338 121.646 34.5393Z" fill="#61362E"/>
<path d="M121.668 36.8968L121.597 36.8259C121.635 36.8477 121.662 36.8095 121.689 36.7822C121.679 36.8313 121.646 36.8859 121.668 36.8968Z" fill="#61362E"/>
<path d="M122.437 35.7815C122.442 35.8033 122.453 35.7815 122.459 35.8088L122.453 35.9015C122.421 35.8906 122.404 35.8197 122.437 35.7815Z" fill="#61362E"/>
<path d="M121.91 36.2878C121.958 36.1313 121.98 36.1907 122.023 36.223C122.023 36.223 122.018 36.223 122.012 36.223C121.985 36.4498 121.942 36.3688 121.91 36.2878Z" fill="#61362E"/>
<path d="M122.033 36.2334C122.044 36.2443 122.061 36.2497 122.077 36.2443C122.066 36.3312 122.055 36.2551 122.033 36.2334Z" fill="#61362E"/>
<path d="M121.243 36.5624C121.286 36.53 121.162 36.7567 121.211 36.6973C121.135 36.9024 121.157 36.4112 121.243 36.5624Z" fill="#61362E"/>
<path d="M122.077 35.771L122.012 35.9653L122.034 35.8034L122.077 35.771Z" fill="#61362E"/>
<path d="M121.743 35.8574L121.824 35.8193C121.813 35.8519 121.813 35.8737 121.813 35.89C121.775 35.8846 121.716 35.9117 121.743 35.8574Z" fill="#61362E"/>
<path d="M121.813 35.884C121.834 35.884 121.851 35.8895 121.851 35.9275C121.84 35.9221 121.818 35.9112 121.813 35.884Z" fill="#61362E"/>
<path d="M122.018 35.6958L121.99 35.74L121.94 35.7456L122.018 35.6958Z" fill="#61362E"/>
<path d="M121.097 35.664L121.081 35.5885C121.124 35.5345 121.168 35.5183 121.173 35.5453C121.146 35.5885 121.151 35.6209 121.097 35.664Z" fill="#61362E"/>
<path d="M121.641 35.2819C121.598 35.3143 121.571 35.3521 121.517 35.4115L121.689 35.1902L121.641 35.2819Z" fill="#61362E"/>
<path d="M121.56 35.1797C121.608 35.1203 121.668 34.9908 121.695 35.0232C121.646 35.0826 121.641 35.1473 121.56 35.1797Z" fill="#61362E"/>
<path d="M120.926 34.7222V34.7383L120.517 34.8728L120.926 34.7222Z" fill="#61362E"/>
<path d="M121.99 34.093C122.077 34.1848 121.731 34.093 121.85 34.1524C121.753 34.1524 121.753 34.1038 121.672 34.1038C121.78 34.066 121.726 34.0337 121.99 34.093Z" fill="#61362E"/>
<path d="M121.673 34.1033C121.657 34.1087 121.635 34.1141 121.608 34.1141C121.635 34.1087 121.657 34.1033 121.673 34.1033Z" fill="#61362E"/>
<path d="M123.163 25.18L123.088 25.126L123.217 25.1746L123.163 25.18Z" fill="#61362E"/>
<path d="M123.481 25.1582L123.222 25.1042L123.459 25.1204C123.448 25.1258 123.427 25.142 123.481 25.1582Z" fill="#61362E"/>
<path d="M123.099 31.8244L123.039 31.8026C122.979 31.7699 122.979 31.7535 122.979 31.7317L123.099 31.8244Z" fill="#61362E"/>
<path d="M123.179 31.1673V31.1781L122.974 31.0593L123.179 31.1673Z" fill="#61362E"/>
<path d="M123.68 30.8006C123.68 30.8222 123.62 30.8276 123.62 30.8492C123.68 30.8276 123.41 30.6765 123.68 30.8006Z" fill="#61362E"/>
<path d="M129.155 36.2385L121.21 39.7888C121.21 39.7888 123.722 43.2207 126.891 42.4084C130.059 41.5962 129.155 36.2385 129.155 36.2385Z" fill="white"/>
<path d="M141.367 25.6738C141.367 25.6738 144.099 20.4076 148.037 23.1241C151.974 25.8405 150.678 32.6398 141.049 33.7641" fill="#FFDBE5"/>
<path d="M145.778 26.3408L143.475 28.4764" stroke="#46130A" stroke-width="1.5" stroke-miterlimit="10" stroke-linecap="round" stroke-linejoin="round"/>
</svg>
