<svg width="180" height="420" viewBox="0 0 180 420" fill="none" xmlns="http://www.w3.org/2000/svg">
<path d="M80.0793 322.559L79.2713 386.299C79.2713 388.633 78.4633 390.878 76.9372 392.404C72.4484 397.162 71.9097 399.855 65.805 399.855H59.0718C55.2115 399.855 52.0693 403.536 52.0693 408.115C52.0693 412.603 55.2115 416.284 59.1616 416.284L79.3611 416.194L96.1491 416.105C100.817 416.105 104.229 410.808 102.792 405.511L101.536 400.843C101.356 400.125 101.266 399.317 101.266 398.509L102.074 322.469L80.0793 322.559Z" fill="#FFE4EE"/>
<path d="M104.768 410.628L102.344 386.119C102.254 385.491 101.805 385.042 101.177 385.042H79.6308C79.1819 385.042 78.8228 385.311 78.5535 385.67C77.1171 388.453 73.6159 399.586 60.2393 399.586C44.9775 399.586 48.0298 417.092 53.5061 417.092H98.8428C102.434 417.002 105.127 414.039 104.768 410.628Z" fill="#FF820F"/>
<path opacity="0.5" d="M79.5409 367.626L79.3613 378.13H101.626L101.715 367.626H79.5409Z" fill="#FFBED2"/>
<path d="M53.596 417.002H68.2294V415.297C68.2294 399.765 60.3291 399.496 60.3291 399.496C45.0673 399.496 48.1197 417.002 53.596 417.002Z" fill="#F1F1F1"/>
<path d="M50.9924 419.695H103.421C104.678 419.695 105.666 418.708 105.666 417.451C105.666 416.194 104.678 415.207 103.421 415.207H50.9924C49.7356 415.207 48.748 416.194 48.748 417.451C48.748 418.708 49.7356 419.695 50.9924 419.695Z" fill="#E4E4E4"/>
<path d="M148.668 322.559L149.476 386.299C149.476 388.633 150.284 390.878 151.81 392.404C156.299 397.162 156.838 399.855 162.943 399.855H169.676C173.536 399.855 176.678 403.536 176.678 408.115C176.678 412.603 173.536 416.284 169.586 416.284L149.386 416.194L132.598 416.105C127.93 416.105 124.519 410.808 125.955 405.511L127.212 400.843C127.391 400.125 127.481 399.317 127.481 398.509L126.673 322.469L148.668 322.559Z" fill="#FFE4EE"/>
<path opacity="0.5" d="M149.297 367.626L149.386 378.13H127.212L127.032 367.626H149.297Z" fill="#FFBED2"/>
<path d="M123.98 410.628L126.403 386.119C126.493 385.491 126.942 385.042 127.571 385.042H149.117C149.566 385.042 149.925 385.311 150.194 385.67C151.63 388.453 155.132 399.586 168.508 399.586C183.77 399.586 180.718 417.092 175.241 417.092H129.815C126.403 417.002 123.71 414.039 123.98 410.628Z" fill="#FF820F"/>
<path d="M175.242 417.002H160.608V415.297C160.608 399.765 168.509 399.496 168.509 399.496C183.77 399.496 180.718 417.002 175.242 417.002Z" fill="#F1F1F1"/>
<path d="M177.755 419.695H125.326C124.07 419.695 123.082 418.708 123.082 417.451C123.082 416.194 124.07 415.207 125.326 415.207H177.755C179.012 415.207 180 416.194 180 417.451C180 418.708 179.012 419.695 177.755 419.695Z" fill="#E4E4E4"/>
<path d="M146.603 395.007C147.496 395.007 148.219 394.284 148.219 393.391C148.219 392.499 147.496 391.775 146.603 391.775C145.711 391.775 144.987 392.499 144.987 393.391C144.987 394.284 145.711 395.007 146.603 395.007Z" fill="#E4E4E4"/>
<path d="M150.014 399.496C150.907 399.496 151.63 398.773 151.63 397.88C151.63 396.988 150.907 396.264 150.014 396.264C149.122 396.264 148.398 396.988 148.398 397.88C148.398 398.773 149.122 399.496 150.014 399.496Z" fill="#E4E4E4"/>
<path d="M154.234 403.177C155.127 403.177 155.85 402.453 155.85 401.561C155.85 400.668 155.127 399.945 154.234 399.945C153.342 399.945 152.618 400.668 152.618 401.561C152.618 402.453 153.342 403.177 154.234 403.177Z" fill="#E4E4E4"/>
<path d="M152.618 396.713L155.581 394.289C155.222 393.93 154.953 393.571 154.594 393.212L151.721 395.546L152.618 396.713Z" fill="#E4E4E4"/>
<path d="M156.389 399.855L158.633 396.803C158.184 396.534 157.825 396.264 157.466 395.995L155.222 398.958L156.389 399.855Z" fill="#E4E4E4"/>
<path d="M149.566 392.763L153.067 391.147C152.798 390.698 152.529 390.339 152.349 389.89L149.027 391.416L149.566 392.763Z" fill="#E4E4E4"/>
<path d="M80.0793 322.559L79.2713 386.299C79.2713 388.633 78.4633 390.878 76.9372 392.404C72.4484 397.162 71.9097 399.855 65.805 399.855H59.0718C55.2115 399.855 52.0693 403.536 52.0693 408.115C52.0693 412.603 55.2115 416.284 59.1616 416.284L79.3611 416.194L96.1491 416.105C100.817 416.105 104.229 410.808 102.792 405.511L101.536 400.843C101.356 400.125 101.266 399.317 101.266 398.509L102.074 322.469L80.0793 322.559Z" fill="#FFE4EE"/>
<path opacity="0.5" d="M79.5409 367.626L79.3613 378.13H101.626L101.715 367.626H79.5409Z" fill="#FFBED2"/>
<path d="M104.768 410.628L102.344 386.119C102.254 385.491 101.805 385.042 101.177 385.042H79.6308C79.1819 385.042 78.8228 385.311 78.5535 385.67C77.1171 388.453 73.6159 399.586 60.2393 399.586C44.9775 399.586 48.0298 417.092 53.5061 417.092H98.8428C102.434 417.002 105.127 414.039 104.768 410.628Z" fill="#FF820F"/>
<path d="M53.596 417.002H68.2294V415.297C68.2294 399.765 60.3291 399.496 60.3291 399.496C45.0673 399.496 48.1197 417.002 53.596 417.002Z" fill="#F1F1F1"/>
<path d="M50.9924 419.695H103.421C104.678 419.695 105.666 418.708 105.666 417.451C105.666 416.194 104.678 415.207 103.421 415.207H50.9924C49.7356 415.207 48.748 416.194 48.748 417.451C48.748 418.708 49.7356 419.695 50.9924 419.695Z" fill="#E4E4E4"/>
<path d="M82.1443 395.007C83.0367 395.007 83.7602 394.284 83.7602 393.391C83.7602 392.499 83.0367 391.775 82.1443 391.775C81.2518 391.775 80.5283 392.499 80.5283 393.391C80.5283 394.284 81.2518 395.007 82.1443 395.007Z" fill="#E4E4E4"/>
<path d="M78.823 399.496C79.7155 399.496 80.439 398.773 80.439 397.88C80.439 396.988 79.7155 396.264 78.823 396.264C77.9305 396.264 77.207 396.988 77.207 397.88C77.207 398.773 77.9305 399.496 78.823 399.496Z" fill="#E4E4E4"/>
<path d="M74.5134 403.177C75.4059 403.177 76.1294 402.453 76.1294 401.561C76.1294 400.668 75.4059 399.945 74.5134 399.945C73.6209 399.945 72.8975 400.668 72.8975 401.561C72.8975 402.453 73.6209 403.177 74.5134 403.177Z" fill="#E4E4E4"/>
<path d="M76.1296 396.713L73.167 394.289C73.5261 393.93 73.7954 393.571 74.1545 393.212L77.0274 395.546L76.1296 396.713Z" fill="#E4E4E4"/>
<path d="M72.3586 399.855L70.1143 396.803C70.5631 396.534 70.9222 396.264 71.2813 395.995L73.5257 398.958L72.3586 399.855Z" fill="#E4E4E4"/>
<path d="M79.2718 392.763L75.7705 391.147C76.0398 390.698 76.3092 390.339 76.4887 389.89L79.8104 391.416L79.2718 392.763Z" fill="#E4E4E4"/>
<path d="M78.7331 186.279C66.7031 198.848 69.6657 296.703 68.0498 367.985C67.96 371.755 71.0124 374.808 74.6932 374.808H107.461C111.142 374.808 114.194 371.845 114.194 368.075V197.771V368.075C114.194 371.755 117.157 374.808 120.928 374.808H153.696C157.466 374.808 160.519 371.755 160.339 367.985C158.543 296.165 161.237 196.334 149.656 186.279" fill="#F4F4F6"/>
<path d="M114.194 367.626V198.848" stroke="#CBCBCB" stroke-width="1.2185" stroke-miterlimit="10" stroke-linecap="round" stroke-linejoin="round"/>
<path d="M118.055 200.733V211.147C118.055 213.571 116.349 215.636 114.194 215.636" stroke="#CBCBCB" stroke-width="1.2185" stroke-miterlimit="10" stroke-linecap="round" stroke-linejoin="round"/>
<path d="M136.459 197.771L136.908 206.658C137.267 213.93 143.372 219.676 150.644 219.676" stroke="#CBCBCB" stroke-width="1.2185" stroke-miterlimit="10" stroke-linecap="round" stroke-linejoin="round"/>
<path d="M92.0195 197.771L91.5706 206.658C91.2115 213.93 85.1068 219.676 77.835 219.676" stroke="#CBCBCB" stroke-width="1.2185" stroke-miterlimit="10" stroke-linecap="round" stroke-linejoin="round"/>
<path d="M18.404 111.227L3.77058 110.958C1.61597 110.958 0 109.162 0 107.008C0 104.853 1.7955 103.237 3.95012 103.237L21.995 103.596C25.2269 103.686 28.2793 104.224 31.2419 105.212C33.1272 105.84 35.0125 104.045 34.2943 102.16L32.4987 96.7731C31.9601 94.7083 33.1272 92.6435 35.192 92.015C37.2568 91.3866 39.3217 92.6435 39.9501 94.7083L55.3017 145.611C55.4813 146.239 56.379 146.15 56.4688 145.431L58.803 122.718L82.6833 126.399L79.5411 154.768C78.1945 166.439 68.2294 175.147 56.5586 174.968C46.8628 174.788 38.2444 168.683 34.8329 159.616L26.6633 132.863C25.9451 130.708 23.9701 129.272 21.7257 129.272C19.9302 129.272 18.3142 128.374 17.3267 126.848L15.1721 123.526L19.8404 120.564L18.404 111.227Z" fill="#FFE4EE"/>
<path d="M12.6585 65.1721C10.863 58.3492 5.83558 58.7981 5.83558 55.207C3.32187 58.6185 1.25704 63.3766 2.33434 67.7756C3.50143 72.1746 5.83559 73.0724 9.60617 74.8679C12.1199 71.4564 13.8256 69.5711 12.6585 65.1721Z" fill="#FCF6E5"/>
<path d="M3.68063 68.4042C1.88512 63.9154 2.42378 60.0551 5.02727 56.105" stroke="#EBDCC8" stroke-width="0.3074" stroke-miterlimit="10" stroke-linecap="round"/>
<path d="M9.42676 74.2393C7.18237 73.3415 5.38688 71.9051 4.30957 69.7505" stroke="#EBDCC8" stroke-width="0.3074" stroke-miterlimit="10" stroke-linecap="round"/>
<path d="M4.66816 66.878C3.41131 63.0176 3.0522 59.6959 5.02726 56.0151" stroke="#EBDCC8" stroke-width="0.3074" stroke-miterlimit="10" stroke-linecap="round"/>
<path d="M9.42604 74.3294C7.89986 73.2521 6.64301 71.9054 5.9248 70.1997" stroke="#EBDCC8" stroke-width="0.3074" stroke-miterlimit="10" stroke-linecap="round"/>
<path d="M4.57821 61.3119C4.21911 59.5164 4.30888 57.7209 5.02709 56.0151" stroke="#EBDCC8" stroke-width="0.3074" stroke-miterlimit="10" stroke-linecap="round"/>
<path d="M6.3741 67.3267C6.015 66.0699 5.56613 64.813 5.20703 63.5562" stroke="#EBDCC8" stroke-width="0.3074" stroke-miterlimit="10" stroke-linecap="round"/>
<path d="M9.42581 74.3293C8.25873 72.8928 7.54054 71.1871 6.91211 69.3916" stroke="#EBDCC8" stroke-width="0.3074" stroke-miterlimit="10" stroke-linecap="round"/>
<path d="M5.38657 60.7732C4.66836 59.2471 4.39904 57.7209 4.93769 56.0151" stroke="#EBDCC8" stroke-width="0.3074" stroke-miterlimit="10" stroke-linecap="round"/>
<path d="M9.4266 74.3293C8.34929 70.828 7.99019 67.1472 6.64355 63.646" stroke="#EBDCC8" stroke-width="0.3074" stroke-miterlimit="10" stroke-linecap="round"/>
<path d="M9.4267 74.3293C9.60625 71.5463 10.1449 69.661 8.88804 65.5313C7.18231 59.8755 4.3095 59.3368 4.93792 56.0151" stroke="#EBDCC8" stroke-width="0.3074" stroke-miterlimit="10" stroke-linecap="round"/>
<path d="M9.24691 62.6585C8.07983 60.5937 4.75812 58.6186 4.93767 56.0151" stroke="#EBDCC8" stroke-width="0.3074" stroke-miterlimit="10" stroke-linecap="round"/>
<path d="M10.9526 69.2119C11.0424 67.6857 10.773 66.1596 10.2344 64.7231" stroke="#EBDCC8" stroke-width="0.3074" stroke-miterlimit="10" stroke-linecap="round"/>
<path d="M9.42676 74.3293C9.69608 73.6111 10.0552 72.8032 10.3245 72.085" stroke="#EBDCC8" stroke-width="0.3074" stroke-miterlimit="10" stroke-linecap="round"/>
<path d="M12.1195 69.2121C12.748 66.07 11.2218 62.479 8.88762 60.3244C7.45121 59.0675 5.02728 58.1697 4.9375 56.0151" stroke="#EBDCC8" stroke-width="0.3074" stroke-miterlimit="10" stroke-linecap="round"/>
<path d="M9.42676 74.3292C9.78586 73.7008 10.2348 73.1621 10.5939 72.5337" stroke="#EBDCC8" stroke-width="0.3074" stroke-miterlimit="10" stroke-linecap="round"/>
<path d="M28.5486 151.357C28.8179 152.255 30.1645 151.895 29.985 150.998C26.1246 129.811 21.4563 108.803 15.8902 88.065L15.6209 86.8979H15.5312L10.3242 88.2446H10.2344L10.5935 89.4117C15.7107 110.24 21.7257 130.978 28.5486 151.357Z" fill="#998675"/>
<path d="M6.73298 73.701L11.6706 72.4442C12.1195 72.3544 12.5684 72.6237 12.6582 72.9828L16.7878 88.9629C16.8776 89.4117 16.6083 89.8606 16.2492 89.9504L11.3115 91.2072C10.8627 91.297 10.4138 91.0277 10.324 90.6686L6.19432 74.6885C6.10454 74.2397 6.2841 73.7908 6.73298 73.701Z" fill="#CCCCCC"/>
<path d="M6.5534 76.9327L13.3763 75.227C13.7354 75.1372 14.0945 75.3168 14.1843 75.6759C14.2741 76.035 14.0945 76.3941 13.7354 76.4838L6.9125 78.1896C6.5534 78.2793 6.1943 78.0998 6.10452 77.7407C6.01475 77.3816 6.28407 77.0225 6.5534 76.9327Z" fill="#E6E6E6"/>
<path d="M1.7059 64.4541C1.79568 64.5438 1.97523 64.6336 2.15478 64.6336C3.23209 64.6336 4.21963 64.9029 5.11739 65.0825C5.83559 65.262 6.464 65.4416 7.09243 65.4416C9.7857 65.6211 11.5812 63.5563 11.7608 61.671C11.7608 61.5812 11.7608 61.4017 11.671 61.3119C10.6835 59.7857 9.51638 58.888 8.52885 58.1698C7.27199 57.1822 6.46402 56.5538 6.46402 55.297C6.46402 55.0276 6.28447 54.8481 6.10492 54.7583C6.01515 54.7583 5.92535 54.7583 5.7458 54.7583C5.65602 54.7583 5.47648 54.8481 5.3867 54.9379C3.86052 57.0925 1.97524 60.3244 1.52637 64.095C1.52637 64.1847 1.61613 64.3643 1.7059 64.4541Z" fill="#FF678D"/>
<path d="M21.6355 118.858L13.5557 118.679C11.4011 118.679 9.78516 116.883 9.78516 114.729C9.78516 112.574 11.5807 110.958 13.7353 110.958L21.8151 111.138C23.9697 111.138 25.5857 112.933 25.5857 115.088C25.5857 117.242 23.7901 118.858 21.6355 118.858Z" fill="#FFE4EE"/>
<path d="M23.6111 126.578L15.5313 126.399C13.3767 126.399 11.7607 124.603 11.7607 122.449C11.7607 120.294 13.5562 118.678 15.7109 118.678L23.7907 118.858C25.9453 118.858 27.5612 120.653 27.5612 122.808C27.4715 124.963 25.7657 126.578 23.6111 126.578Z" fill="#FFE4EE"/>
<path d="M13.7354 111.047L21.8151 111.227C23.9698 111.227 25.5857 113.022 25.5857 115.177C25.5857 117.332 23.7902 118.948 21.6356 118.948" stroke="#FFBED2" stroke-width="1.2351" stroke-miterlimit="10" stroke-linecap="round" stroke-linejoin="round"/>
<path d="M16.7881 118.768L23.7008 118.948C25.8554 118.948 27.4714 120.743 27.4714 122.898C27.4714 125.052 25.6759 126.668 23.5212 126.668H19.212" stroke="#FFBED2" stroke-width="1.2351" stroke-miterlimit="10" stroke-linecap="round" stroke-linejoin="round"/>
<path d="M34.3843 109.97C34.3843 109.97 31.4217 122.359 36.5389 125.322" stroke="#FFBED2" stroke-width="1.2351" stroke-miterlimit="10" stroke-linecap="round" stroke-linejoin="round"/>
<path d="M56.2891 147.945L56.4686 151.177" stroke="#FFBED2" stroke-width="1.2351" stroke-miterlimit="10" stroke-linecap="round" stroke-linejoin="round"/>
<path opacity="0.5" d="M57.8154 132.504C65.4463 134.479 73.1671 137.621 81.0673 141.033L82.5935 127.656L58.8927 122.808L57.8154 132.504Z" fill="#FFBED2"/>
<path d="M75.1417 134.12C76.6679 134.569 77.7452 136.005 77.6554 137.621L73.8848 188.165C73.7053 190.05 75.2315 191.756 77.2065 191.756H151.092C153.067 191.756 154.593 190.05 154.413 188.075L149.386 137.711C149.206 136.095 150.284 134.569 151.9 134.12L169.675 129.721C171.201 129.362 172.369 127.746 172.189 126.13C170.304 110.24 153.067 97.0428 130.084 92.8233C128.738 92.554 127.75 91.4767 127.481 90.2199C127.211 89.0528 126.403 88.0652 125.236 87.7061C117.875 85.2822 110.423 85.2822 103.062 87.7061C101.895 88.0652 101.087 89.0528 100.817 90.2199C100.548 91.5665 99.5606 92.6438 98.214 92.8233C74.8724 97.1326 57.4559 110.689 56.0195 127.028C55.9297 128.195 56.7377 129.362 57.9048 129.631L75.1417 134.12Z" fill="#FF820F"/>
<path d="M127.482 96.5039L122.544 103.147C121.736 104.225 120.21 104.314 119.222 103.417L115.721 100.005C114.823 99.1972 113.477 99.1972 112.579 100.005L109.078 103.417C108.09 104.314 106.564 104.225 105.756 103.147L100.818 96.5039" stroke="#FF6900" stroke-width="1.1424" stroke-miterlimit="10" stroke-linecap="round" stroke-linejoin="round"/>
<path d="M114.105 105.302C114.65 105.302 115.092 104.86 115.092 104.314C115.092 103.769 114.65 103.327 114.105 103.327C113.559 103.327 113.117 103.769 113.117 104.314C113.117 104.86 113.559 105.302 114.105 105.302Z" fill="#E4E4E4"/>
<path d="M114.105 108.354C114.65 108.354 115.092 107.912 115.092 107.367C115.092 106.822 114.65 106.379 114.105 106.379C113.559 106.379 113.117 106.822 113.117 107.367C113.117 107.912 113.559 108.354 114.105 108.354Z" fill="#E4E4E4"/>
<path d="M123.799 61.8506H104.228L102.433 87.8855C101.625 94.7982 107.011 95.8755 114.014 95.8755C120.927 95.8755 126.313 94.7982 125.595 87.8855L123.799 61.8506Z" fill="#FFDAE4"/>
<path d="M119.311 73.5215C115.631 76.4841 110.603 88.3344 109.526 95.696C105.486 95.1574 102.613 93.721 102.434 89.7708C102.434 89.0526 102.434 88.4242 102.523 88.0651V87.9753L103.421 74.1499L119.311 73.5215Z" fill="#FFCDDC"/>
<path d="M86.9023 49.9106C86.9023 37.1625 97.5856 26.8383 110.513 27.4667C122.005 28.0054 131.341 37.4318 131.88 48.923C132.149 54.2198 130.533 59.0677 127.66 63.0178C125.147 66.519 122.364 69.0328 120.029 72.6238C116.349 78.3694 108.179 81.332 101.626 79.8956C95.0719 78.4592 90.3138 72.8033 89.057 68.2248C88.5183 66.1599 88.5183 63.5565 88.4285 61.5814C88.249 58.0801 87.1717 54.8482 86.9023 51.2572C86.9023 50.8083 86.9023 50.3595 86.9023 49.9106Z" fill="#FFE4EE"/>
<path d="M124.518 71.3671C124.518 71.3671 137.895 64.5442 135.201 48.7437C132.598 32.9432 124.428 28.634 120.748 27.4669C117.157 26.2998 99.2913 19.9258 90.9422 33.2125C82.593 46.4993 85.017 52.1552 87.5307 55.7462C87.5307 55.7462 90.2239 39.8559 96.8673 37.8809C97.4957 37.7013 98.214 38.0604 98.4833 38.6888C99.1117 40.3946 101.087 43.806 107.551 45.0629C116.169 46.7686 116.977 53.412 120.478 54.3098C124.069 55.2075 123.8 66.4295 124.518 71.3671Z" fill="#333333"/>
<path d="M122.453 58.08C122.453 55.7459 124.249 53.8606 126.403 53.9503C128.289 54.0401 129.815 55.7459 129.905 57.9005C129.905 58.888 129.635 59.7858 129.186 60.504C128.737 61.1324 128.378 61.8506 128.019 62.479C127.391 63.5563 126.313 64.1848 125.057 64.0052C123.8 63.8257 122.812 62.7483 122.543 61.4915C122.453 61.1324 122.453 60.7733 122.453 60.4142C122.543 59.7858 122.453 59.0675 122.453 58.4391C122.453 58.2596 122.453 58.1698 122.453 58.08Z" fill="#FFE4EE"/>
<path d="M139.156 37.7251C142.487 34.3945 142.032 28.5397 138.141 24.6481C134.249 20.7566 128.394 20.3018 125.064 23.6325C121.733 26.9631 122.188 32.8178 126.08 36.7094C129.971 40.601 135.826 41.0557 139.156 37.7251Z" fill="#333333"/>
<path d="M95.9698 58.1701C97.3085 58.1701 98.3938 56.6427 98.3938 54.7586C98.3938 52.8745 97.3085 51.3472 95.9698 51.3472C94.6311 51.3472 93.5459 52.8745 93.5459 54.7586C93.5459 56.6427 94.6311 58.1701 95.9698 58.1701Z" fill="white"/>
<path d="M108.089 58.1701C109.428 58.1701 110.513 56.6427 110.513 54.7586C110.513 52.8745 109.428 51.3472 108.089 51.3472C106.75 51.3472 105.665 52.8745 105.665 54.7586C105.665 56.6427 106.75 58.1701 108.089 58.1701Z" fill="white"/>
<path d="M95.0721 56.8235C95.915 56.8235 96.5983 55.8991 96.5983 54.7587C96.5983 53.6183 95.915 52.6938 95.0721 52.6938C94.2292 52.6938 93.5459 53.6183 93.5459 54.7587C93.5459 55.8991 94.2292 56.8235 95.0721 56.8235Z" fill="#333333"/>
<path d="M107.101 56.8235C107.895 56.8235 108.538 55.8991 108.538 54.7587C108.538 53.6183 107.895 52.6938 107.101 52.6938C106.308 52.6938 105.665 53.6183 105.665 54.7587C105.665 55.8991 106.308 56.8235 107.101 56.8235Z" fill="#333333"/>
<path d="M106.832 64.4544C104.947 65.442 99.1111 65.442 97.2259 64.4544C96.9565 64.3647 96.6872 64.8135 96.8667 65.2624C97.4952 67.3272 99.56 68.8534 101.984 68.8534C104.408 68.8534 106.473 67.3272 107.101 65.2624C107.37 64.8135 107.101 64.3647 106.832 64.4544Z" fill="#FF7BA4"/>
<path d="M126.943 57.9902L126.404 58.5289C125.776 59.1573 125.776 60.0551 126.404 60.6835" stroke="#FFBED2" stroke-width="1.2139" stroke-miterlimit="10" stroke-linecap="round" stroke-linejoin="round"/>
<path d="M101.984 60.594C100.548 60.594 99.3808 59.5167 99.291 58.0802C99.291 57.1825 100.009 56.5541 100.638 56.1052C101.356 55.6563 101.805 54.7586 101.805 53.8608V51.8857" stroke="#FFBED2" stroke-width="1.2139" stroke-miterlimit="10" stroke-linecap="round" stroke-linejoin="round"/>
<path d="M65.1769 5.38227L60.2393 3.31743C44.6183 -3.1464 26.6632 4.30497 20.1096 19.9259C15.0822 32.0456 20.8278 45.9608 33.0373 50.9882L38.7829 53.4122C43.541 55.3872 48.2991 50.6291 46.324 45.871C44.349 41.1129 49.1071 36.3548 53.8652 38.3299L58.1744 40.1254C65.2667 43.088 73.4362 39.6765 76.3988 32.5842C80.7978 21.9907 75.7704 9.78127 65.1769 5.38227ZM35.4612 40.1254C33.2168 40.1254 31.4213 38.3299 31.4213 36.0855C31.4213 33.8411 33.2168 32.0456 35.4612 32.0456C37.7056 32.0456 39.5011 33.8411 39.5011 36.0855C39.5011 38.2401 37.7056 40.1254 35.4612 40.1254Z" fill="#998675"/>
<path d="M64.0998 4.39448L59.1621 2.32964C43.631 -4.1342 25.6759 3.31717 19.1223 18.9381C14.0949 31.0578 19.8405 44.973 32.05 50.0004L37.7956 52.4244C42.5537 54.3994 47.3118 49.6413 45.3367 44.8832C43.3617 40.1251 48.1198 35.367 52.8779 37.3421L57.1871 39.1376C64.2794 42.1002 72.4489 38.6887 75.4115 31.5965C79.8105 21.0029 74.7831 8.79348 64.0998 4.39448ZM34.4739 39.0478C32.2295 39.0478 30.434 37.2523 30.434 35.0079C30.434 32.7635 32.2295 30.968 34.4739 30.968C36.7183 30.968 38.5138 32.7635 38.5138 35.0079C38.5138 37.2523 36.7183 39.0478 34.4739 39.0478Z" fill="#D2BEAA"/>
<path d="M42.8229 11.7561C43.0024 12.205 42.9127 12.7436 42.7331 13.2823C42.5536 13.9107 42.374 14.5391 42.1047 15.0778C41.8354 15.4369 41.566 15.796 41.1172 16.0653C40.6683 16.3346 40.1296 16.4244 39.6808 16.5142C39.1421 16.604 38.6034 16.7835 38.0648 16.9631C37.6159 17.1426 37.167 17.3222 36.7181 17.3222C35.9102 17.3222 35.2818 17.0528 34.6533 16.604C34.0249 16.2449 33.4862 15.796 32.9476 15.3471C32.4987 14.8982 32.2294 14.2698 32.0498 13.6414C31.6907 11.8459 32.9476 10.1401 34.6533 9.24238C36.3591 8.25485 38.6034 8.16508 40.3989 8.7935C41.2069 9.06283 41.9251 9.69126 42.1945 10.4992C42.2842 10.6788 42.2843 10.9481 42.4638 11.1277C42.4638 11.3072 42.6433 11.397 42.8229 11.7561C42.8229 11.6663 42.8229 11.6663 42.8229 11.7561Z" fill="#5F8CFF"/>
<path d="M50.6336 12.8333C50.1847 12.7435 49.8256 12.5639 49.4665 12.2946C49.0176 12.0253 48.5687 11.756 48.2096 11.3969C47.9403 11.1275 47.7607 10.8582 47.671 10.5889C47.5812 10.2298 47.671 10.0502 47.7608 9.69112C47.8505 9.33201 47.8505 9.06269 47.8505 8.70359C47.8505 8.43426 47.8505 8.16493 47.9403 7.89561C48.1198 7.44673 48.5687 7.26718 49.1074 7.08763C49.5563 6.90808 50.0949 6.8183 50.6336 6.63875C51.0824 6.54897 51.7109 6.63875 52.2495 6.72852C53.8655 7.1774 54.853 8.34448 55.0326 9.42179C55.3019 10.5889 54.7633 11.756 53.6859 12.3844C53.1473 12.6537 52.5189 12.8333 51.7109 12.7435C51.5313 12.7435 51.3518 12.6537 51.1722 12.6537C51.0824 12.8333 50.9029 12.923 50.6336 12.8333C50.7233 12.8333 50.6336 12.8333 50.6336 12.8333Z" fill="#FFE5E0"/>
<path d="M28.0994 22.0805C27.8301 22.26 27.471 22.4396 27.1119 22.5293C26.663 22.6191 26.3039 22.7089 25.9448 22.7987C25.6754 22.7987 25.4061 22.7987 25.2266 22.6191C24.9573 22.5293 24.8675 22.26 24.7777 22.0805C24.5981 21.9009 24.4186 21.7214 24.239 21.452C24.0595 21.2725 23.9697 21.1827 23.8799 20.9134C23.7902 20.5543 23.88 20.1952 24.0595 19.7463C24.2391 19.3872 24.4186 19.0281 24.6879 18.669C24.8675 18.3099 25.3164 18.0406 25.6755 17.7712C26.7528 17.053 28.0096 17.1428 28.8176 17.5917C29.6256 18.0406 29.9847 19.0281 29.8051 20.0156C29.7154 20.4645 29.446 20.9134 28.9972 21.2725C28.9074 21.3623 28.7278 21.452 28.638 21.5418C28.3687 21.8111 28.279 21.9907 28.0994 22.0805C28.1892 22.0805 28.0994 22.0805 28.0994 22.0805Z" fill="#D3E0FA"/>
<path d="M71.8207 24.7736C72.09 25.3123 72.1798 25.9407 72.0003 26.5691C71.7309 27.7362 70.8332 28.7237 69.6661 29.2624C68.5888 29.801 67.3319 29.8908 66.0751 30.0704C65.2671 30.1601 64.3693 30.3397 63.5614 30.1601C62.9329 29.9806 62.3943 29.7113 61.9454 29.3522C60.9579 28.4544 60.7783 27.2873 60.7783 26.0305C60.8681 24.8634 61.4067 23.8759 61.8556 22.7986C62.3045 21.9008 62.7534 21.0928 63.4716 20.4644C64.4591 19.6564 66.2546 19.5666 67.3319 20.2848C68.1399 20.8235 68.7683 21.6315 69.3968 22.4395C70.0252 23.1577 70.8332 23.5168 71.3718 24.3247C71.6411 24.3247 71.7309 24.5941 71.8207 24.7736Z" fill="#FF678D"/>
<path d="M60.1494 17.5914C59.7006 17.6812 59.2517 17.8607 58.8028 17.9505C58.5335 18.0403 58.5335 18.2198 58.6233 18.3994C57.6357 18.938 56.6482 19.4767 55.6607 20.0153C54.9425 20.3744 54.2243 20.7335 53.5958 21.0926C54.1345 20.8233 54.6731 20.4642 55.2118 20.1051C56.5584 19.2971 57.8153 18.3994 59.0721 17.5914C59.3415 17.4118 59.0721 16.8732 58.713 17.0527C56.1993 18.2198 53.7754 19.5665 51.3514 20.9131C50.9923 21.0926 51.1719 21.5415 51.4412 21.5415C51.1719 21.7211 50.9026 21.9006 50.6332 22.0802C50.3639 22.2597 50.5435 22.6188 50.8128 22.7086C51.3514 22.7984 51.9799 22.529 52.4287 22.3495C53.3265 21.9904 54.2242 21.5415 55.122 21.0926C56.8277 20.1949 58.5335 19.1176 60.329 18.2198C60.7779 17.9505 60.5085 17.4118 60.1494 17.5914Z" fill="#FF678D"/>
<path d="M60.7777 17.4122C60.8675 17.1429 60.688 16.7838 60.4186 16.9634C58.8027 17.7713 57.0969 18.5793 55.481 19.4771C54.7628 19.8362 54.1343 20.2851 53.4161 20.7339C52.6979 21.1828 51.8899 21.5419 51.2615 22.0806C50.9922 22.2601 51.1717 22.709 51.5308 22.6192H51.4411C51.082 22.7988 51.3513 23.4272 51.7104 23.2477C53.2366 22.3499 54.8525 21.5419 56.3787 20.6442C57.0072 20.2851 57.6356 19.926 58.264 19.5669C58.7129 19.3873 59.1617 19.118 59.6106 18.8487C60.1493 18.5793 60.5982 18.3998 61.047 17.9509C61.047 17.7713 60.9573 17.502 60.7777 17.4122Z" fill="#FF4682"/>
<path d="M58.8921 17.8606C58.8023 17.8606 58.8023 17.8606 58.8921 17.8606C58.8023 17.8606 58.8023 17.8606 58.8921 17.8606C58.8023 17.8606 58.8023 17.8606 58.8921 17.8606C57.9046 17.2322 56.6477 17.1424 55.5704 16.9629C55.5704 16.9629 55.5704 16.9629 55.4806 16.9629C54.4931 16.6935 53.326 16.514 52.4283 16.3344C52.2487 16.2447 52.0692 16.4242 52.0692 16.6038C51.9794 16.6038 51.8896 16.6038 51.7101 16.6038C51.6203 16.6038 51.5305 16.6038 51.5305 16.6935C51.3509 16.6935 51.1714 16.9629 51.2612 17.1424C51.7101 17.9504 53.1465 18.1299 53.9544 18.3095C55.5704 18.6686 57.1864 18.9379 58.8023 19.297C59.0716 19.3868 59.341 18.8481 59.0717 18.6686C58.8921 18.5788 58.8023 18.489 58.6228 18.3993C58.8921 18.489 59.1614 18.0402 58.8921 17.8606Z" fill="#FF4682"/>
<path d="M59.1618 18.0404C59.5209 18.0404 59.6106 17.412 59.2515 17.412C57.9049 17.2324 56.4685 16.9631 55.1219 16.604C54.9423 16.604 54.8525 16.6938 54.7628 16.7836C54.5832 16.7836 54.4934 16.6938 54.3139 16.6938C53.9548 16.604 53.6855 17.1427 54.0446 17.3222C54.1344 17.3222 54.2241 17.412 54.3139 17.412C54.8525 17.9506 55.7503 18.22 56.5583 18.4893C57.456 18.7586 58.4436 19.0279 59.3413 19.4768C59.7004 19.6564 59.9698 19.1177 59.7004 18.9382H59.6106C59.3413 18.7586 59.072 18.6688 58.8027 18.4893C58.9822 18.3097 59.1618 18.22 59.1618 18.0404Z" fill="#FF678D"/>
<path d="M58.8927 15.0779C57.546 15.7063 56.3789 16.5143 55.1221 17.3223C53.8652 18.22 52.6084 19.2973 51.172 19.836C50.8129 20.0155 50.9924 20.4644 51.3515 20.4644C51.3515 20.5542 51.3515 20.644 51.4413 20.7337C51.2618 20.8235 51.0822 21.0031 50.9027 21.0928C50.5436 21.2724 50.9026 21.8111 51.2617 21.6315C52.5186 21.0928 53.6857 20.2849 54.8528 19.5667C54.9425 19.4769 55.0323 19.3871 55.0323 19.2973C56.4687 18.4894 57.9051 17.5916 59.3415 16.7836C59.7006 16.6041 59.5211 15.9756 59.0722 16.1552C58.354 16.4245 57.7256 16.7836 57.0074 17.1427C57.8154 16.6041 58.6233 16.0654 59.4313 15.5268C59.5211 15.437 59.2518 14.8983 58.8927 15.0779Z" fill="#FF678D"/>
<path d="M60.3287 16.2447C60.2389 16.3344 60.1491 16.3344 59.9696 16.4242C60.0594 16.2447 59.8798 16.0651 59.79 15.9753C59.8798 15.706 59.6105 15.4367 59.3412 15.6162C59.0718 15.706 58.7127 15.8856 58.4434 16.0651C58.2639 16.1549 57.9945 16.2447 57.815 16.4242C57.7252 16.4242 57.6354 16.514 57.6354 16.6038C57.2763 16.8731 56.9172 17.1424 56.5581 17.4118C54.7626 18.3993 53.0569 19.5664 51.1716 20.4641C50.8125 20.6437 51.0818 21.2721 51.4409 21.0925C51.5307 21.0028 51.6205 21.0028 51.7102 20.913C51.1716 21.1823 50.5432 21.4517 50.0045 21.6312C49.6454 21.8108 49.825 22.3494 50.2738 22.2596C51.0818 21.9903 51.8 21.6312 52.608 21.2721C52.6978 21.4517 52.8773 21.6312 53.0569 21.5414C54.4035 20.8232 55.6604 19.9255 56.9172 19.1175C57.5456 18.7584 58.1741 18.3993 58.7127 18.0402C58.8025 17.9504 58.8923 17.8606 58.8025 17.6811C59.3412 17.322 59.9696 16.9629 60.5082 16.6935C60.9571 16.6038 60.6878 16.0651 60.3287 16.2447Z" fill="#FF4682"/>
<path d="M59.521 16.3344C59.4313 16.3344 59.4313 16.3344 59.3415 16.3344C57.9949 16.8731 56.738 17.5015 55.4811 18.3095C54.8527 18.7584 54.1345 19.297 53.4163 19.7459C52.8776 20.0152 52.2492 20.2846 51.7106 20.6437C51.3515 20.8232 51.531 21.3619 51.9799 21.2721C52.6083 21.0925 53.147 20.8232 53.6856 20.4641C55.8403 19.3868 57.9051 18.2197 59.8801 16.9629C60.1495 16.6935 59.8801 16.2447 59.521 16.3344Z" fill="#FF678D"/>
<path d="M169.137 129.901L151.811 134.12C150.285 134.479 149.207 136.006 149.387 137.622L151.272 159.437V159.347C151.452 160.514 150.464 161.681 149.207 161.681L134.574 161.322C129.636 160.963 124.788 159.257 120.748 156.385C116.439 153.332 111.322 151.716 106.025 151.627C102.793 151.537 100.19 154.05 100.1 157.282L100.01 159.527C100.01 159.527 97.5863 159.706 95.701 160.155C93.8157 160.604 91.9305 162.041 91.8407 164.105C91.7509 166.08 93.2771 167.786 95.2521 167.966C93.3669 168.235 91.9304 169.761 91.9304 171.736V171.826C91.8407 173.981 93.5464 175.776 95.701 175.776H97.1374C95.4317 176.135 94.0851 177.572 93.9953 179.457C93.9953 181.073 94.893 182.42 96.2397 183.048C99.4716 185.023 104.319 186.19 109.167 186.37L154.235 186.908C166.354 187.088 175.691 176.315 173.985 164.375L169.137 129.901Z" fill="#FFE4EE"/>
<path d="M151.811 134.12C150.284 134.479 149.207 136.006 149.387 137.622L149.656 140.405C153.247 138.34 160.07 134.928 169.586 132.774L169.137 129.991L151.811 134.12Z" fill="#FFCDDC"/>
<path d="M101.268 159.976L110.155 160.245C110.155 160.245 106.834 159.976 106.834 157.821L106.744 160.155" stroke="#FFBED2" stroke-width="1.1719" stroke-miterlimit="10" stroke-linecap="round" stroke-linejoin="round"/>
<path d="M98.5732 175.776H100.099" stroke="#FFBED2" stroke-width="1.1719" stroke-miterlimit="10" stroke-linecap="round" stroke-linejoin="round"/>
<path d="M96.8682 167.966L98.3944 168.056" stroke="#FFBED2" stroke-width="1.1719" stroke-miterlimit="10" stroke-linecap="round" stroke-linejoin="round"/>
<path d="M152.888 162.31L155.76 163.657" stroke="#FFBED2" stroke-width="1.1719" stroke-miterlimit="10" stroke-linecap="round" stroke-linejoin="round"/>
</svg>
