<svg width="414" height="415" viewBox="0 0 414 415" fill="none" xmlns="http://www.w3.org/2000/svg">
<g filter="url(#filter0_d)">
<rect x="16" y="33" width="382" height="362" rx="16" fill="white"/>
<rect x="50" y="12" width="16" height="40" rx="8" fill="#EBEBEB"/>
<rect x="347" y="12" width="16" height="40" rx="8" fill="#EBEBEB"/>
<rect x="314" y="12" width="16" height="40" rx="8" fill="#EBEBEB"/>
<rect x="281" y="12" width="16" height="40" rx="8" fill="#EBEBEB"/>
<rect x="248" y="12" width="16" height="40" rx="8" fill="#EBEBEB"/>
<rect x="215" y="12" width="16" height="40" rx="8" fill="#EBEBEB"/>
<rect x="182" y="12" width="16" height="40" rx="8" fill="#EBEBEB"/>
<rect x="149" y="12" width="16" height="40" rx="8" fill="#EBEBEB"/>
<rect x="116" y="12" width="16" height="40" rx="8" fill="#EBEBEB"/>
<rect x="83" y="12" width="16" height="40" rx="8" fill="#EBEBEB"/>
</g>
<rect x="48" y="127" width="314" height="2" fill="#F5F5F5"/>
<rect x="48" y="267" width="314" height="2" fill="#F5F5F5"/>
<rect x="48" y="197" width="314" height="2" fill="#F5F5F5"/>
<rect x="48" y="337" width="314" height="2" fill="#F5F5F5"/>
<rect x="48" y="162" width="314" height="2" fill="#F5F5F5"/>
<rect x="48" y="302" width="314" height="2" fill="#F5F5F5"/>
<rect x="48" y="232" width="314" height="2" fill="#F5F5F5"/>
<defs>
<filter id="filter0_d" x="0" y="0" width="414" height="415" filterUnits="userSpaceOnUse" color-interpolation-filters="sRGB">
<feFlood flood-opacity="0" result="BackgroundImageFix"/>
<feColorMatrix in="SourceAlpha" type="matrix" values="0 0 0 0 0 0 0 0 0 0 0 0 0 0 0 0 0 0 127 0"/>
<feOffset dy="4"/>
<feGaussianBlur stdDeviation="8"/>
<feColorMatrix type="matrix" values="0 0 0 0 0 0 0 0 0 0 0 0 0 0 0 0 0 0 0.16 0"/>
<feBlend mode="normal" in2="BackgroundImageFix" result="effect1_dropShadow"/>
<feBlend mode="normal" in="SourceGraphic" in2="effect1_dropShadow" result="shape"/>
</filter>
</defs>
</svg>
