<svg width="872" height="352" viewBox="0 0 872 352" fill="none" xmlns="http://www.w3.org/2000/svg">
<g filter="url(#filter0_d)">
<rect x="16" y="32" width="840" height="300" rx="16" fill="white"/>
<rect x="124" y="12" width="16" height="40" rx="8" fill="#EBEBEB"/>
<rect x="92" y="12" width="16" height="40" rx="8" fill="#EBEBEB"/>
<rect x="60" y="12" width="16" height="40" rx="8" fill="#EBEBEB"/>
<rect x="412" y="12" width="16" height="40" rx="8" fill="#EBEBEB"/>
<rect x="380" y="12" width="16" height="40" rx="8" fill="#EBEBEB"/>
<rect x="348" y="12" width="16" height="40" rx="8" fill="#EBEBEB"/>
<rect x="316" y="12" width="16" height="40" rx="8" fill="#EBEBEB"/>
<rect x="284" y="12" width="16" height="40" rx="8" fill="#EBEBEB"/>
<rect x="252" y="12" width="16" height="40" rx="8" fill="#EBEBEB"/>
<rect x="220" y="12" width="16" height="40" rx="8" fill="#EBEBEB"/>
<rect x="188" y="12" width="16" height="40" rx="8" fill="#EBEBEB"/>
<rect x="156" y="12" width="16" height="40" rx="8" fill="#EBEBEB"/>
<rect x="444" y="12" width="16" height="40" rx="8" fill="#EBEBEB"/>
<rect x="732" y="12" width="16" height="40" rx="8" fill="#EBEBEB"/>
<rect x="764" y="12" width="16" height="40" rx="8" fill="#EBEBEB"/>
<rect x="796" y="12" width="16" height="40" rx="8" fill="#EBEBEB"/>
<rect x="700" y="12" width="16" height="40" rx="8" fill="#EBEBEB"/>
<rect x="668" y="12" width="16" height="40" rx="8" fill="#EBEBEB"/>
<rect x="636" y="12" width="16" height="40" rx="8" fill="#EBEBEB"/>
<rect x="604" y="12" width="16" height="40" rx="8" fill="#EBEBEB"/>
<rect x="572" y="12" width="16" height="40" rx="8" fill="#EBEBEB"/>
<rect x="540" y="12" width="16" height="40" rx="8" fill="#EBEBEB"/>
<rect x="508" y="12" width="16" height="40" rx="8" fill="#EBEBEB"/>
<rect x="476" y="12" width="16" height="40" rx="8" fill="#EBEBEB"/>
</g>
<rect x="93" y="149" width="677" height="2" fill="#F5F5F5"/>
<rect x="93" y="259" width="677" height="2" fill="#F5F5F5"/>
<rect x="93" y="204" width="677" height="2" fill="#F5F5F5"/>
<defs>
<filter id="filter0_d" x="0" y="0" width="872" height="352" filterUnits="userSpaceOnUse" color-interpolation-filters="sRGB">
<feFlood flood-opacity="0" result="BackgroundImageFix"/>
<feColorMatrix in="SourceAlpha" type="matrix" values="0 0 0 0 0 0 0 0 0 0 0 0 0 0 0 0 0 0 127 0"/>
<feOffset dy="4"/>
<feGaussianBlur stdDeviation="8"/>
<feColorMatrix type="matrix" values="0 0 0 0 0 0 0 0 0 0 0 0 0 0 0 0 0 0 0.16 0"/>
<feBlend mode="normal" in2="BackgroundImageFix" result="effect1_dropShadow"/>
<feBlend mode="normal" in="SourceGraphic" in2="effect1_dropShadow" result="shape"/>
</filter>
</defs>
</svg>
