<svg width="120" height="242" viewBox="0 0 120 242" fill="none" xmlns="http://www.w3.org/2000/svg">
<path d="M43.4272 182.116L31.7478 215.553C31.3028 216.762 31.3161 218.077 31.7877 219.173C33.2323 222.524 32.9932 223.995 36.1679 225.164L39.6747 226.456C41.6971 227.203 42.6302 229.717 41.7602 232.078C40.8901 234.436 38.5456 235.744 36.5232 234.997L26.0061 231.118L17.2358 227.884C14.7817 226.98 14.0411 223.573 15.7547 221.093L17.2856 218.881C17.5346 218.519 17.7405 218.127 17.8933 217.712L31.9338 177.875L43.4272 182.116Z" fill="#FFE4EE"/>
<path d="M13.8389 223.374L19.7566 211.017C19.9027 210.711 20.2547 210.569 20.5735 210.685L31.8279 214.783C32.057 214.866 32.2264 215.072 32.2529 215.314C32.4622 217.044 32.1932 223.493 39.1603 226.027C47.1336 228.93 42.2121 237.504 39.3496 236.461L15.662 227.84C13.8521 227.18 13.0054 225.107 13.8389 223.374Z" fill="#FD5768"/>
<path d="M35.1689 205.76L33.2462 211.27L21.6531 207.049L23.5925 201.546L35.1689 205.76Z" fill="#FFCDDC"/>
<path d="M39.3496 236.461L31.7116 233.682L32.0404 232.782C34.9893 224.686 39.1603 226.027 39.1603 226.027C47.1336 228.93 42.2121 237.501 39.3496 236.461Z" fill="#F5F5F9"/>
<path d="M40.1694 238.361L12.8123 228.405C12.1714 228.173 11.8426 227.466 12.0751 226.828C12.3075 226.187 13.0148 225.858 13.6525 226.091L41.0129 236.047C41.6538 236.279 41.9826 236.986 41.7501 237.624C41.5177 238.265 40.8103 238.594 40.1694 238.361Z" fill="#E5E5EB"/>
<path d="M43.4272 182.116L31.7478 215.553C31.3028 216.762 31.3161 218.077 31.7877 219.173C33.2323 222.524 32.9932 223.995 36.1679 225.164L39.6747 226.456C41.6971 227.203 42.6302 229.717 41.7602 232.078C40.8901 234.436 38.5456 235.744 36.5232 234.997L26.0061 231.118L17.2358 227.884C14.7817 226.98 14.0411 223.573 15.7547 221.093L17.2856 218.881C17.5346 218.519 17.7405 218.127 17.8933 217.712L31.9338 177.875L43.4272 182.116Z" fill="#FFE4EE"/>
<path d="M35.1689 205.76L33.2462 211.27L21.6531 207.049L23.5925 201.546L35.1689 205.76Z" fill="#FFCDDC"/>
<path d="M13.8389 223.374L19.7566 211.017C19.9027 210.711 20.2547 210.569 20.5735 210.685L31.8279 214.783C32.057 214.866 32.2264 215.072 32.2529 215.314C32.4622 217.044 32.1932 223.493 39.1603 226.027C47.1336 228.93 42.2121 237.504 39.3496 236.461L15.662 227.84C13.8521 227.18 13.0054 225.107 13.8389 223.374Z" fill="#FF915A"/>
<path d="M39.3496 236.461L31.7116 233.682L32.0404 232.782C34.9893 224.686 39.1603 226.027 39.1603 226.027C47.1336 228.93 42.2121 237.501 39.3496 236.461Z" fill="#F5F5F9"/>
<path d="M40.1694 238.361L12.8123 228.405C12.1714 228.173 11.8426 227.466 12.0751 226.828C12.3075 226.187 13.0148 225.858 13.6525 226.091L41.0129 236.047C41.6538 236.279 41.9826 236.986 41.7501 237.624C41.5177 238.265 40.8103 238.594 40.1694 238.361Z" fill="#E5E5EB"/>
<path d="M28.909 219.582C28.423 219.582 28.029 219.188 28.029 218.702C28.029 218.216 28.423 217.822 28.909 217.822C29.3951 217.822 29.7891 218.216 29.7891 218.702C29.7891 219.188 29.3951 219.582 28.909 219.582Z" fill="white"/>
<path d="M29.8148 222.564C29.3288 222.564 28.9348 222.17 28.9348 221.684C28.9348 221.198 29.3288 220.804 29.8148 220.804C30.3008 220.804 30.6948 221.198 30.6948 221.684C30.6948 222.17 30.3008 222.564 29.8148 222.564Z" fill="white"/>
<path d="M31.3207 225.3C30.8346 225.3 30.4406 224.906 30.4406 224.42C30.4406 223.934 30.8346 223.54 31.3207 223.54C31.8067 223.54 32.2007 223.934 32.2007 224.42C32.2007 224.906 31.8067 225.3 31.3207 225.3Z" fill="white"/>
<path d="M31.4104 221.591L33.4062 220.903C33.2933 220.658 33.1937 220.412 33.1041 220.169L31.1514 220.84L31.4104 221.591Z" fill="white"/>
<path d="M32.7845 223.929L34.5146 222.77C34.3486 222.557 34.2025 222.338 34.063 222.119L32.3428 223.268L32.7845 223.929Z" fill="white"/>
<path d="M30.56 218.908L32.6787 218.725C32.6189 218.456 32.5691 218.197 32.5259 217.941L30.4903 218.114L30.56 218.908Z" fill="white"/>
<path d="M83.083 171.609L65.7748 202.509C65.1272 203.622 64.9114 204.92 65.187 206.079C66.0272 209.629 65.5357 211.037 68.4614 212.741L71.6892 214.624C73.5522 215.71 74.0337 218.35 72.7685 220.522C71.5032 222.693 68.9661 223.573 67.1031 222.488L57.4196 216.842L49.3433 212.133C47.0851 210.815 46.9456 207.331 49.0643 205.189L50.9539 203.276C51.2627 202.964 51.5317 202.612 51.7542 202.23L72.4962 165.439L83.083 171.609Z" fill="#FFE4EE"/>
<path d="M46.7766 207.102L54.75 195.961C54.9459 195.685 55.3178 195.606 55.6134 195.775L65.9877 201.762C66.2002 201.885 66.3297 202.114 66.3165 202.36C66.2202 204.1 64.8387 210.407 71.2579 214.113C78.6069 218.353 72.2707 225.945 69.634 224.42L47.8028 211.815C46.1324 210.855 45.6575 208.666 46.7766 207.102Z" fill="#FD5768"/>
<path d="M70.8428 193.464L67.9935 198.554L57.307 192.384L60.1729 187.303L70.8428 193.464Z" fill="#FFCDDC"/>
<path d="M69.6296 224.42L62.5927 220.356L63.0709 219.525C67.3781 212.064 71.2535 214.112 71.2535 214.112C78.6025 218.356 72.2663 225.945 69.6296 224.42Z" fill="#F5F5F9"/>
<path d="M70.1078 226.436L44.896 211.878C44.3082 211.539 44.1056 210.785 44.4443 210.194C44.783 209.606 45.5369 209.404 46.128 209.742L71.3398 224.301C71.9276 224.64 72.1302 225.394 71.7915 225.985C71.4494 226.576 70.6989 226.778 70.1078 226.436Z" fill="#E5E5EB"/>
<path d="M83.083 171.609L65.7748 202.509C65.1272 203.622 64.9114 204.92 65.187 206.079C66.0272 209.629 65.5357 211.037 68.4614 212.741L71.6892 214.624C73.5522 215.71 74.0337 218.35 72.7685 220.522C71.5032 222.693 68.9661 223.573 67.1031 222.488L57.4196 216.842L49.3433 212.133C47.0851 210.815 46.9456 207.331 49.0643 205.189L50.9539 203.276C51.2627 202.964 51.5317 202.612 51.7542 202.23L72.4962 165.439L83.083 171.609Z" fill="#FFE4EE"/>
<path d="M70.8428 193.464L67.9935 198.554L57.307 192.384L60.1729 187.303L70.8428 193.464Z" fill="#FFCDDC"/>
<path d="M46.7766 207.102L54.75 195.961C54.9459 195.685 55.3178 195.606 55.6134 195.775L65.9877 201.762C66.2002 201.885 66.3297 202.114 66.3165 202.36C66.2202 204.1 64.8387 210.407 71.2579 214.113C78.6069 218.353 72.2707 225.945 69.634 224.42L47.8028 211.815C46.1324 210.855 45.6575 208.666 46.7766 207.102Z" fill="#FF915A"/>
<path d="M69.6296 224.42L62.5927 220.356L63.0709 219.525C67.3781 212.064 71.2535 214.112 71.2535 214.112C78.6025 218.356 72.2663 225.945 69.6296 224.42Z" fill="#F5F5F9"/>
<path d="M70.1078 226.436L44.896 211.878C44.3082 211.539 44.1056 210.785 44.4443 210.194C44.783 209.606 45.5369 209.404 46.128 209.742L71.3398 224.301C71.9276 224.64 72.1302 225.394 71.7915 225.985C71.4494 226.576 70.6989 226.778 70.1078 226.436Z" fill="#E5E5EB"/>
<path d="M62.431 206C61.945 206 61.551 205.606 61.551 205.12C61.551 204.634 61.945 204.24 62.431 204.24C62.917 204.24 63.311 204.634 63.311 205.12C63.311 205.606 62.917 206 62.431 206Z" fill="white"/>
<path d="M62.806 209.095C62.32 209.095 61.926 208.701 61.926 208.215C61.926 207.729 62.32 207.335 62.806 207.335C63.292 207.335 63.686 207.729 63.686 208.215C63.686 208.701 63.292 209.095 62.806 209.095Z" fill="white"/>
<path d="M63.8124 212.05C63.3263 212.05 62.9323 211.656 62.9323 211.17C62.9323 210.684 63.3263 210.29 63.8124 210.29C64.2984 210.29 64.6924 210.684 64.6924 211.17C64.6924 211.656 64.2984 212.05 63.8124 212.05Z" fill="white"/>
<path d="M64.3935 208.397L66.479 208.069C66.4126 207.806 66.3528 207.547 66.3097 207.292L64.2706 207.614L64.3935 208.397Z" fill="white"/>
<path d="M65.3429 210.941L67.249 210.101C67.1228 209.862 67.0166 209.62 66.9169 209.38L65.0241 210.214L65.3429 210.941Z" fill="white"/>
<path d="M64.0219 205.608L66.1406 205.797C66.1273 205.521 66.124 205.256 66.1273 205L64.0917 204.817L64.0219 205.608Z" fill="white"/>
<path d="M73.8567 200.022L58.076 190.909C56.2994 189.883 55.6884 187.612 56.7145 185.832L71.6749 159.916C74.0493 155.805 74.0493 150.744 71.6749 146.632L65.1494 135.332L62.5027 150.339C60.7892 160.059 58.2288 169.609 54.8548 178.881L43.7599 209.363C43.0592 211.293 40.9239 212.286 38.9978 211.585L21.8722 205.352C19.9428 204.651 18.9499 202.516 19.6506 200.59L31.9676 166.747C34.0199 161.108 35.5774 155.3 36.6168 149.389L43.5208 110.279L79.6449 109.12L95.5517 136.673C101.483 146.948 101.483 159.607 95.5517 169.882L78.9342 198.66C77.9081 200.437 75.6367 201.048 73.8567 200.022Z" fill="#F5F5F9"/>
<path d="M71.0743 134.857L77.1282 145.347C79.941 150.219 79.941 156.223 77.1282 161.098L62.1047 187.12" stroke="#CCCCD2" stroke-width="0.652635" stroke-miterlimit="10" stroke-linecap="round" stroke-dasharray="4.42 4.42"/>
<path d="M66.8662 118.08C67.2481 122.321 66.8662 126.485 66.0028 130.6" stroke="#CCCCD2" stroke-width="0.652635" stroke-miterlimit="10" stroke-linecap="round" stroke-linejoin="round"/>
<path d="M66.6972 126.396C68.0056 125.253 68.8955 123.689 69.1346 121.969C69.2675 121.029 69.2974 119.933 69.0882 118.764" stroke="#CCCCD2" stroke-width="0.652635" stroke-miterlimit="10" stroke-linecap="round" stroke-linejoin="round"/>
<path d="M25.0401 199.275L35.2351 171.257C37.6593 164.595 39.4991 157.731 40.7311 150.75L46.6289 117.31" stroke="#CCCCD2" stroke-width="0.652635" stroke-miterlimit="10" stroke-linecap="round" stroke-dasharray="4.42 4.42"/>
<path d="M94.8773 56.0899L80.6707 64.2924L73.1855 51.3278L87.3921 43.1254C90.9719 41.0598 95.5514 42.2852 97.6169 45.8651C99.6858 49.4449 98.4604 54.021 94.8773 56.0899Z" fill="#FFE4EE"/>
<path d="M75.8146 49.8103L83.2998 62.7749L82.3999 63.2929L74.9147 50.3284L75.8146 49.8103Z" fill="#FFCDDC"/>
<path d="M68.5388 71.7843L82.2572 63.8641C82.4864 63.7313 82.5628 63.4424 82.4299 63.2132L74.958 50.2719C74.8252 50.0428 74.5363 49.9664 74.3072 50.0992L60.5888 58.0195C56.7864 60.2145 55.4846 65.0762 57.6797 68.8753C59.8748 72.6776 64.7365 73.9794 68.5388 71.7843Z" fill="#FF915A"/>
<path d="M68.539 71.7844C64.7366 73.9794 59.8782 72.6777 57.6832 68.8753C55.4881 65.0729 56.7899 60.2112 60.5922 58.0195C68.8445 55.6883 72.5008 62.217 75.1143 67.9886L68.539 71.7844Z" fill="#FF7837"/>
<path d="M74.5467 12.7829C75.6957 12.6966 76.6953 13.5865 76.8979 14.7223L77.582 18.5944C77.6185 18.8003 77.8111 18.9364 78.017 18.9065C78.2295 18.8733 78.3723 18.6741 78.3358 18.4615L77.2831 12.5006L75.8983 4.64352C75.6858 3.4447 76.4861 2.30233 77.6882 2.08979C78.887 1.87726 80.0294 2.67758 80.2419 3.87973L81.6201 11.6903C81.6566 11.8996 81.8559 12.0357 82.0618 11.9992C82.271 11.9627 82.4071 11.7634 82.3706 11.5575L80.7899 2.58792C80.5773 1.38909 81.3777 0.246723 82.5798 0.0341894C83.7787 -0.178344 84.921 0.621979 85.1336 1.82412L86.8305 11.4479C86.867 11.6571 87.0663 11.7933 87.2722 11.7568C87.4814 11.7202 87.6175 11.521 87.581 11.3151L86.3855 4.52729C86.173 3.32847 86.9733 2.1861 88.1754 1.97356C89.3743 1.76103 90.5166 2.56135 90.7292 3.7635L91.8782 10.2723L92.4992 13.7924L98.5464 48.12C99.2538 52.1316 96.5738 55.9605 92.5623 56.6678C88.5507 57.3752 84.7218 54.6952 84.0144 50.6837L81.205 34.7436C80.6737 31.7383 79.2689 28.9554 77.1669 26.7404C75.0648 24.5287 73.66 21.7459 73.1287 18.7372L72.5343 15.3632C72.3085 14.0946 73.225 12.8825 74.5467 12.7829Z" fill="#FFE4EE"/>
<path d="M89.6333 16.9671C87.4017 17.6146 83.7919 17.7873 81.6135 16.4125" stroke="#FFBED2" stroke-width="0.710047" stroke-miterlimit="10" stroke-linecap="round" stroke-linejoin="round"/>
<path d="M80.587 19.9626C83.4164 20.0025 85.0901 23.5359 84.6152 25.7974" stroke="#FFBED2" stroke-width="0.710047" stroke-miterlimit="10" stroke-linecap="round" stroke-linejoin="round"/>
<path d="M61.6781 55.1203L63.1592 58.5043C63.1592 58.5043 45.665 60.5167 45.6218 60.0385C45.5886 59.6699 46.4686 56.3989 46.8705 54.9178C46.9867 54.4894 47.3785 54.2038 47.8202 54.2138L58.6096 54.4894L60.818 54.5458C61.1932 54.5525 61.5286 54.7783 61.6781 55.1203Z" fill="#FF915A"/>
<path d="M48.0723 42.1156L59.2535 41.4149L61.1564 55.4654C61.8637 59.3807 58.8152 60.1743 54.8435 60.4234C50.8717 60.6725 47.7501 60.2706 47.9594 56.2956L48.0723 42.1156Z" fill="#FFDAE4"/>
<path d="M57.377 60.1347C56.3475 55.781 53.0399 49.8998 50.7519 48.3058L60.1532 48.0568L61.1561 55.4656C61.7007 58.4908 60.0037 59.6465 57.377 60.1347Z" fill="#FFCDDC"/>
<path d="M68.749 32.9437C68.2907 25.6379 61.8217 20.1419 54.4627 20.9622C47.934 21.6894 42.9095 27.4212 43.039 33.9865C43.0988 37.0051 44.1814 39.7349 45.9414 41.8768C47.4989 43.7763 48.9136 45.7821 50.3582 47.768C52.6695 50.946 56.7109 52.7459 61.0048 51.8526C65.1558 50.9925 68.4169 47.5853 69.1209 43.4044C69.3235 42.2023 69.3169 41.0433 69.1375 39.9474C68.7988 37.8785 68.7822 35.7764 68.7722 33.6777C68.7722 33.4386 68.7656 33.1928 68.749 32.9437Z" fill="#FFE4EE"/>
<path d="M48.1498 33.8535L42.242 35.0158C43.2881 40.2229 48.0469 44.5831 48.0469 44.5831L48.6811 42.2054C49.4848 39.1336 48.3291 36.726 48.1498 33.8535Z" fill="#787885"/>
<path d="M60.061 27.8891C60.061 27.8891 57.2981 27.2083 55.6609 28.6429C54.472 29.6823 57.7231 25.88 57.7231 25.88L64.1324 25.4781L64.6006 27.65C64.6006 27.6467 61.8509 26.1855 60.061 27.8891Z" fill="#787885"/>
<path d="M49.4537 35.7465C54.1992 35.172 54.9563 30.6225 55.6637 28.6399C56.2814 26.9131 58.8284 26.4548 60.0239 27.8429L60.0638 27.8894C60.0671 27.8795 60.0738 27.8728 60.0771 27.8629C60.9206 26.312 63.0526 26.0862 64.1418 27.481C64.879 28.4274 65.5731 29.6096 66.204 30.8583C66.8416 32.1235 67.3099 32.874 68.4091 32.9338C68.5984 32.9438 68.7478 33.0932 68.7445 33.2825C68.7378 33.8404 68.7345 34.8665 68.781 34.8566C72.673 34.1326 69.8138 17.4487 60.4291 17.2362C56.909 17.1598 55.9028 18.0498 55.6139 18.5612C55.5309 18.7073 55.3482 18.7505 55.2154 18.6509C54.8368 18.3752 54.063 17.9834 52.7845 18.0631C49.9751 18.2756 45.9104 20.8227 44.1304 22.8152C41.0553 26.332 40.8228 33.6411 41.9353 34.9429C43.174 36.3974 45.0934 36.2746 49.4537 35.7465Z" fill="#2D2D37"/>
<path d="M49.2426 38.8347C49.1596 37.4898 48.0803 36.4703 46.8583 36.6131C45.7757 36.7393 44.9488 37.7887 44.9787 38.9975C44.9919 39.552 45.1746 40.0568 45.4702 40.452C45.7292 40.804 45.9683 41.1726 46.2107 41.5412C46.5959 42.129 47.27 42.4644 47.9807 42.305C48.6681 42.1522 49.2061 41.5279 49.3157 40.7608C49.3489 40.5383 49.3456 40.3258 49.3157 40.1232C49.2559 39.7413 49.2526 39.3561 49.2493 38.9676C49.2493 38.9277 49.2459 38.8812 49.2426 38.8347Z" fill="#FFE4EE"/>
<path d="M62.645 36.4122C62.5506 35.3343 63.1022 34.4054 63.8769 34.3377C64.6516 34.2699 65.356 35.0888 65.4503 36.1668C65.5446 37.2448 64.9931 38.1736 64.2184 38.2414C63.4437 38.3091 62.7393 37.4902 62.645 36.4122Z" fill="white"/>
<path d="M55.6874 37.0233C55.5931 35.9453 56.1447 35.0165 56.9194 34.9487C57.694 34.881 58.3985 35.6999 58.4928 36.7779C58.5871 37.8559 58.0356 38.7847 57.2609 38.8525C56.4862 38.9202 55.7817 38.1013 55.6874 37.0233Z" fill="white"/>
<path d="M63.7224 36.3182C63.6643 35.6532 64.0037 35.0802 64.4805 35.0385C64.9574 34.9968 65.3911 35.5021 65.4493 36.1671C65.5075 36.8322 65.1681 37.4052 64.6912 37.4469C64.2144 37.4886 63.7806 36.9833 63.7224 36.3182Z" fill="#2D2D37"/>
<path d="M56.8179 36.924C56.7616 36.2808 57.0908 35.7267 57.553 35.6863C58.0153 35.6458 58.4356 36.1344 58.4919 36.7775C58.5481 37.4207 58.219 37.9748 57.7568 38.0152C57.2945 38.0557 56.8742 37.5671 56.8179 36.924Z" fill="#2D2D37"/>
<path d="M62.8231 41.1362C63.0489 41.1362 63.2249 41.3255 63.2149 41.5513C63.112 43.5837 62.1987 45.1744 61.0829 45.1777C59.9671 45.181 59.0406 43.6003 58.9244 41.5679C58.9111 41.3421 59.0871 41.1528 59.3129 41.1495L62.8231 41.1362Z" fill="#FF7BA4"/>
<path d="M60.6687 36.1449C61.0074 36.3076 62.2029 36.7194 62.2527 37.543C62.3059 38.3665 61.6782 39.0772 60.8546 39.127" stroke="#FFBED2" stroke-width="0.710047" stroke-miterlimit="10" stroke-linecap="round" stroke-linejoin="round"/>
<path d="M47.2986 40.4419C47.5941 40.0899 47.5476 39.5652 47.1956 39.2697L46.8104 38.9442" stroke="#FFBED2" stroke-width="0.710047" stroke-miterlimit="10" stroke-linecap="round" stroke-linejoin="round"/>
<path d="M82.154 111.757L40.6933 115.384C39.5542 115.483 38.5712 114.587 38.5712 113.441L38.4916 64.3789C38.4849 60.9717 40.6434 57.9132 43.8779 56.8373C44.8177 56.5251 45.7708 56.276 46.7272 56.0569C46.7837 55.8443 46.8401 55.6285 46.8933 55.4392C46.8999 55.4159 46.9066 55.396 46.9099 55.3728C46.9398 55.2598 46.9697 55.1503 46.9962 55.0473C47.0029 55.0241 47.0095 54.9975 47.0161 54.9743C47.0261 54.9444 47.0328 54.9178 47.0394 54.8879C47.1257 54.5691 47.3715 54.33 47.6737 54.2404L55.4677 55.3229C56.3012 55.3728 57.1348 55.4558 57.965 55.572C59.0808 55.5355 60.1766 55.22 61.1463 54.6455C61.329 54.7451 61.4784 54.8946 61.5648 55.0905L62.1824 56.4886C62.219 56.4985 63.0027 56.6579 64.0919 56.8738C68.3658 57.7272 71.7664 60.9684 72.8224 65.1925L83.8775 109.333C84.1697 110.502 83.3528 111.651 82.154 111.757Z" fill="#FF915A"/>
<path d="M38.4946 66.8794L49.0449 71.5551C49.0449 71.5551 46.7868 78.6485 38.5278 85.6189L38.4946 66.8794Z" fill="#FF7837"/>
<path d="M59.3734 60.9483C59.0525 60.9483 58.7923 60.6881 58.7923 60.3672C58.7923 60.0462 59.0525 59.786 59.3734 59.786C59.6944 59.786 59.9546 60.0462 59.9546 60.3672C59.9546 60.6881 59.6944 60.9483 59.3734 60.9483Z" fill="white"/>
<path d="M59.7055 62.8913C59.3845 62.8913 59.1243 62.6311 59.1243 62.3101C59.1243 61.9892 59.3845 61.729 59.7055 61.729C60.0264 61.729 60.2866 61.9892 60.2866 62.3101C60.2866 62.6311 60.0264 62.8913 59.7055 62.8913Z" fill="white"/>
<path d="M48.5149 57.1759L56.113 59.8193C56.6078 59.992 57.159 59.8658 57.5276 59.4905L58.6501 58.3548C58.9058 58.0958 59.3209 58.0725 59.6032 58.3017L60.5098 59.0389C60.8651 59.3278 61.3997 59.1916 61.5757 58.7699L61.8613 58.0858" stroke="#FF7837" stroke-width="0.695846" stroke-miterlimit="10" stroke-linecap="round" stroke-linejoin="round"/>
<path d="M37.4227 83.7227C37.1139 83.9718 37.2401 84.4699 37.6286 84.5396L46.7012 86.2266C49.5903 86.6417 52.5425 86.2532 55.2324 85.0909C58.0883 83.8588 61.2697 83.5865 64.3249 84.1644C66.1381 84.5064 67.317 86.2764 66.9782 88.0929L66.7358 89.3914C66.7358 89.3914 68.0808 89.7799 69.1135 90.2714C70.1496 90.7596 71.0728 91.7923 70.847 93.0144C70.6312 94.1734 69.5585 94.9471 68.4062 94.8276C69.4356 95.1995 70.0766 96.2655 69.8707 97.3747L69.8607 97.4278C69.6316 98.6632 68.4427 99.4768 67.2074 99.2476L66.3772 99.0915C67.3269 99.4934 67.9047 100.513 67.7088 101.569C67.5394 102.482 66.8388 103.16 65.9886 103.349C63.9164 104.069 60.9808 104.182 58.1946 103.661L26.9787 97.8064C21.8679 96.8467 17.8862 92.8218 16.983 87.7011C16.2291 83.4205 17.7534 79.0536 21.0145 76.1744L39.4186 59.9156C43.4966 56.1132 49.9921 56.7873 53.2067 61.3435C55.2258 65.3153 54.1897 70.1604 50.7227 72.9598L37.4227 83.7227Z" fill="#FFE4EE"/>
<path d="M36.1006 84.576L34.2708 84.9779" stroke="#FFBED2" stroke-width="0.707807" stroke-miterlimit="10" stroke-linecap="round" stroke-linejoin="round"/>
<path d="M65.938 89.5372L60.8073 88.5808C60.8073 88.5808 62.76 88.81 62.9858 87.5879L62.7334 88.9395" stroke="#FFBED2" stroke-width="0.707807" stroke-miterlimit="10" stroke-linecap="round" stroke-linejoin="round"/>
<path d="M65.5522 98.8954L64.6722 98.7294" stroke="#FFBED2" stroke-width="0.707807" stroke-miterlimit="10" stroke-linecap="round" stroke-linejoin="round"/>
<path d="M67.502 94.648L66.6219 94.4819" stroke="#FFBED2" stroke-width="0.707807" stroke-miterlimit="10" stroke-linecap="round" stroke-linejoin="round"/>
<path d="M32.1602 66.3348L43.8296 78.5422L40.8043 80.9864L29.9053 68.3273L32.1602 66.3348Z" fill="#FFCDDC"/>
<path d="M46.8308 57.2256C49.5838 57.5112 52.0777 58.9723 53.6717 61.2338L53.6983 61.2803C55.7871 65.3915 54.7012 70.4724 51.1147 73.3649L42.2846 80.498C42.0853 80.6574 41.7931 80.6342 41.627 80.4383L30.6716 67.7427C30.4989 67.5434 30.5222 67.2412 30.7214 67.0719L39.3058 59.7461C41.3381 57.8599 44.0778 56.94 46.8308 57.2256Z" fill="#FF915A"/>
<path d="M55.7178 117.307L54.8942 121.77C54.3728 124.599 52.8353 127.14 50.5705 128.91L49.3949 129.829" stroke="#CCCCD2" stroke-width="0.652635" stroke-miterlimit="10" stroke-linecap="round" stroke-linejoin="round"/>
<path d="M77.6363 115.729L78.5894 117.728C79.6654 119.986 81.3391 121.906 83.4246 123.287L84.3345 123.888" stroke="#CCCCD2" stroke-width="0.652635" stroke-miterlimit="10" stroke-linecap="round" stroke-linejoin="round"/>
</svg>
