<svg width="150" height="152" viewBox="0 0 150 152" fill="none" xmlns="http://www.w3.org/2000/svg">
<path d="M123.28 15.4829L118.549 26.923C108.4 25.1167 97.9056 30.5357 93.7768 40.5136C89.0459 51.9537 94.4649 65.2002 105.991 69.931C117.517 74.6619 130.678 69.2429 135.409 57.7168C139.537 47.7389 135.925 36.4708 127.409 30.5357L132.14 19.0956L135.409 29.2455L143.408 26.665L134.806 0L109.862 12.7304L113.733 20.2138L123.28 15.4829ZM126.549 54.1041C123.796 60.7273 116.227 63.8239 109.604 61.0714C102.98 58.3189 99.8839 50.7495 102.636 44.1262C105.389 37.503 112.958 34.4064 119.582 37.1589C126.119 39.9114 129.301 47.4809 126.549 54.1041Z" fill="#5A87FA"/>
<path d="M139.107 127.218C142.978 126.014 146.677 123.949 148.827 121.713L138.763 115.692L142.118 108.036C142.978 106.144 141.171 104.166 139.193 104.768C138.505 104.94 137.817 104.424 137.817 103.735L137.559 95.564C137.473 94.0157 136.527 92.6394 134.978 92.3814C132.828 91.9513 131.022 93.7576 131.108 95.736L131.194 99.1767C131.194 100.123 131.194 100.983 130.936 101.843C130.075 105.542 127.409 108.208 124.054 109.241L103.324 115.434C102.98 115.52 102.636 115.348 102.55 115.004L95.841 92.8115L75.0251 98.2305L85.089 131.605C86.8954 137.54 93.1745 140.894 99.1096 139.088L139.107 127.218Z" fill="#FFE4EE"/>
<path d="M102.034 116.552L100.744 118.014" stroke="#FFBED2" stroke-width="0.8363" stroke-miterlimit="10" stroke-linecap="round" stroke-linejoin="round"/>
<path d="M95.841 92.8975L75.0251 98.3165L79.412 112.423C80.7882 110.961 82.2505 109.757 84.2289 108.38C86.8954 106.574 96.2711 104.166 99.0236 103.391L95.841 92.8975Z" fill="#FFCDDC"/>
<path d="M84.4873 104.939C83.197 105.283 82.3369 106.488 82.5089 107.778L85.6055 148.893C85.6915 150.442 84.4873 151.818 82.939 151.818H22.7277C21.0934 151.818 19.8892 150.442 20.0612 148.807L24.19 107.864C24.362 106.488 23.4159 105.283 22.1256 104.939L7.67493 101.413C6.38469 101.069 5.43852 99.8643 5.61055 98.4881C7.15884 85.4997 21.0934 74.8337 39.7589 71.307C40.8771 71.135 41.7373 70.2748 41.9953 69.1566C42.1674 68.2104 42.8555 67.4363 43.7157 67.0922C49.8228 65.0278 55.8439 65.0278 61.865 67.0922C62.8112 67.4363 63.4133 68.2104 63.5854 69.1566C63.7574 70.2748 64.7036 71.135 65.8218 71.307C84.4873 74.8337 98.5079 85.4997 99.9701 98.4881C100.142 99.7783 99.282 101.069 97.9918 101.413L84.4873 104.939Z" fill="#FF7D5F"/>
<path d="M41.9092 74.3176L45.8659 79.7366C46.468 80.5968 47.7583 80.6828 48.5324 79.9947L51.3709 77.2422C52.0591 76.554 53.1773 76.554 53.9514 77.2422L56.79 79.9947C57.5641 80.7688 58.8543 80.5968 59.4564 79.7366L63.4132 74.3176" stroke="#FF5A46" stroke-width="1.0213" stroke-miterlimit="10" stroke-linecap="round" stroke-linejoin="round"/>
<path d="M52.7474 81.5433C53.2224 81.5433 53.6075 81.1582 53.6075 80.6832C53.6075 80.2081 53.2224 79.823 52.7474 79.823C52.2723 79.823 51.8872 80.2081 51.8872 80.6832C51.8872 81.1582 52.2723 81.5433 52.7474 81.5433Z" fill="#E5E5E5"/>
<path d="M52.7474 84.0375C53.2224 84.0375 53.6075 83.6524 53.6075 83.1773C53.6075 82.7022 53.2224 82.3171 52.7474 82.3171C52.2723 82.3171 51.8872 82.7022 51.8872 83.1773C51.8872 83.6524 52.2723 84.0375 52.7474 84.0375Z" fill="#E5E5E5"/>
<path d="M45.5217 49.1152L61.1767 49.4593L62.1228 67.9527C62.6389 73.5438 58.2521 74.2319 52.7471 74.0599C47.156 73.8879 42.8552 72.9417 43.6294 67.4367L45.5217 49.1152Z" fill="#FFDAE4"/>
<path d="M48.8765 58.5767C51.801 60.9851 55.5857 68.1244 56.3599 73.9735C59.6285 73.6295 61.9509 72.5113 62.209 69.3287C62.209 68.7266 62.209 68.2105 62.209 67.9524V67.8664L61.7789 59.2648L48.8765 58.5767Z" fill="#FFCDDC"/>
<path d="M75.4556 38.8793C75.7136 28.6434 67.3701 20.2139 56.9621 20.3859C47.8444 20.6439 40.103 27.9553 39.5009 37.159C39.2428 41.3738 40.361 45.3305 42.5974 48.5131C44.5758 51.3517 46.2961 54.3622 48.0164 57.2868C50.855 62.0176 56.274 65.0282 62.3811 64.2541C68.3162 63.5659 73.2191 59.1791 74.7674 53.5021C75.1975 51.8678 75.3695 50.2335 75.1975 48.6852C74.9395 45.7606 75.1975 42.8361 75.4556 39.9115C75.4556 39.5675 75.4556 39.2234 75.4556 38.8793Z" fill="#FFE4EE"/>
<path d="M46.6402 37.5891L38.2966 38.4493C39.1568 45.8467 45.2639 52.4699 45.2639 52.4699L46.4682 49.2013C47.8444 45.1585 46.5542 41.6319 46.6402 37.5891Z" fill="#5A5A5A"/>
<path d="M64.0152 30.7079C64.0152 30.7079 60.2305 29.4177 57.8221 31.224C56.0157 32.5142 61.0047 27.6113 61.0047 27.6113L69.9503 27.8694L70.3804 30.966C70.2944 30.966 66.6817 28.5575 64.0152 30.7079Z" fill="#5A5A5A"/>
<path d="M48.1883 40.4273C54.8975 40.1693 56.4458 33.9761 57.7361 31.3096C58.7683 28.9872 62.3809 28.6431 63.9292 30.7075L64.0152 30.7935C65.3915 28.7291 68.4021 28.6431 69.6923 30.7935C70.6385 32.1698 71.4126 33.9761 72.1868 35.7824C72.9609 37.5888 73.477 38.707 75.0253 38.965C75.2833 38.965 75.4554 39.2231 75.4554 39.4811C75.3693 40.2553 75.2833 41.7176 75.2833 41.7176C80.7884 41.2015 78.81 17.547 65.8216 16.0848C60.9187 15.5687 59.3704 16.6869 58.9403 17.375C58.7683 17.547 58.5102 17.6331 58.3382 17.461C57.8221 17.031 56.7899 16.4288 54.9836 16.3428C51.0268 16.2568 45.0917 19.3534 42.3392 21.9339C37.6083 26.4927 36.4041 36.6426 37.7803 38.621C39.4146 40.5133 42.0811 40.5993 48.1883 40.4273Z" fill="#333333"/>
<path d="M47.5861 44.6427C47.6721 42.7504 46.2098 41.2021 44.5755 41.2881C43.0272 41.3741 41.737 42.6643 41.6509 44.3847C41.5649 45.1588 41.823 45.8469 42.167 46.449C42.5111 46.9651 42.7692 47.4812 43.0272 48.0834C43.4573 48.9435 44.4035 49.4596 45.4357 49.3736C46.3818 49.2016 47.242 48.4274 47.5 47.3952C47.5861 47.0512 47.5861 46.7931 47.5861 46.5351C47.5861 46.019 47.5861 45.4169 47.6721 44.9008C47.5 44.8147 47.5861 44.7287 47.5861 44.6427Z" fill="#FFE4EE"/>
<path d="M68.4881 45.6745C69.5808 45.6745 70.4665 44.4421 70.4665 42.9219C70.4665 41.4018 69.5808 40.1694 68.4881 40.1694C67.3955 40.1694 66.5098 41.4018 66.5098 42.9219C66.5098 44.4421 67.3955 45.6745 68.4881 45.6745Z" fill="white"/>
<path d="M58.7679 45.6745C59.8605 45.6745 60.7463 44.4421 60.7463 42.9219C60.7463 41.4018 59.8605 40.1694 58.7679 40.1694C57.6753 40.1694 56.7896 41.4018 56.7896 42.9219C56.7896 44.4421 57.6753 45.6745 58.7679 45.6745Z" fill="white"/>
<path d="M69.2621 44.6423C69.9272 44.6423 70.4663 43.8721 70.4663 42.922C70.4663 41.9719 69.9272 41.2017 69.2621 41.2017C68.597 41.2017 68.0579 41.9719 68.0579 42.922C68.0579 43.8721 68.597 44.6423 69.2621 44.6423Z" fill="#333333"/>
<path d="M59.5426 44.5562C60.2077 44.5562 60.7468 43.8245 60.7468 42.9219C60.7468 42.0193 60.2077 41.2876 59.5426 41.2876C58.8775 41.2876 58.3384 42.0193 58.3384 42.9219C58.3384 43.8245 58.8775 44.5562 59.5426 44.5562Z" fill="#333333"/>
<path d="M66.7679 49.5453C66.5098 52.2978 65.1336 54.4482 63.6713 54.3622C62.209 54.2762 61.1768 51.8677 61.4349 49.1152L66.7679 49.5453Z" fill="#FF7BA4"/>
<path d="M63.8433 42.3198C64.2734 42.5779 65.9077 43.266 65.9077 44.4702C65.9077 45.5884 64.9615 46.5346 63.7573 46.5346" stroke="#FFBED2" stroke-width="1.0213" stroke-miterlimit="10" stroke-linecap="round" stroke-linejoin="round"/>
<path d="M44.6619 46.7068C45.0919 46.2767 45.0919 45.5026 44.6619 45.0725L44.1458 44.5564" stroke="#FFBED2" stroke-width="1.0213" stroke-miterlimit="10" stroke-linecap="round" stroke-linejoin="round"/>
<path d="M139.795 124.723L147.709 122.315C149.429 121.799 150.375 119.993 149.859 118.272C149.343 116.552 147.537 115.606 145.816 116.122L137.903 118.53C136.183 119.046 135.236 120.853 135.752 122.573C136.269 124.293 138.075 125.24 139.795 124.723Z" fill="#FFE4EE"/>
<path d="M139.881 118.1L147.623 115.777C149.343 115.261 150.289 113.455 149.773 111.735C149.257 110.014 147.451 109.068 145.73 109.584L137.989 111.907C136.269 112.423 135.323 114.229 135.839 115.949C136.269 117.584 138.161 118.616 139.881 118.1Z" fill="#FFE4EE"/>
<path d="M138.161 111.821L146.074 109.412C147.795 108.896 148.741 107.09 148.225 105.369C147.709 103.649 145.902 102.703 144.182 103.219L136.269 105.627C134.548 106.144 133.602 107.95 134.118 109.67C134.634 111.391 136.441 112.337 138.161 111.821Z" fill="#FFE4EE"/>
<path d="M134.893 106.488C134.118 107.262 133.774 108.466 134.118 109.67C134.635 111.391 136.441 112.337 138.161 111.821L143.494 110.186L137.903 111.907C136.183 112.423 135.237 114.229 135.753 115.95C136.269 117.67 138.075 118.616 139.796 118.1L144.87 116.552L137.903 118.616C136.183 119.132 135.237 120.938 135.753 122.659C136.269 124.379 138.075 125.325 139.796 124.809L142.29 124.035" stroke="#FFBED2" stroke-width="1.0977" stroke-miterlimit="10" stroke-linecap="round" stroke-linejoin="round"/>
<path d="M0.449393 127.734L6.81458 101.069C7.07263 101.241 7.33068 101.327 7.58872 101.413L22.0394 104.94C23.3297 105.284 24.1898 106.488 24.1038 107.864L22.4695 123.863C22.3835 124.293 22.8136 124.723 23.2436 124.465L33.6516 119.734C36.9202 118.1 39.5867 115.606 41.5651 112.509C43.6294 109.24 46.64 106.66 50.1667 105.112C52.231 104.165 54.7255 105.112 55.6717 107.176L56.3598 108.638C56.3598 108.638 57.9941 108.036 59.3704 107.864C60.7466 107.606 62.467 108.036 63.0691 109.412C63.6712 110.789 63.1551 112.337 61.8648 113.025C63.1551 112.681 64.6174 113.283 65.1334 114.573V114.659C65.8216 116.122 65.1335 117.756 63.7572 118.444L62.811 118.874C64.1013 118.616 65.3915 119.218 65.9076 120.422C66.4237 121.455 66.1656 122.659 65.3915 123.433C63.7572 125.669 60.9187 127.82 57.6501 129.282L21.6954 145.539C15.8463 148.206 8.87896 146.915 4.32011 142.357C0.707441 138.486 -0.840847 132.981 0.449393 127.734Z" fill="#FFE4EE"/>
<path d="M55.7576 109.327L49.8225 111.993C49.8225 111.993 51.9729 110.875 51.3708 109.413L52.0589 110.961" stroke="#FFBED2" stroke-width="0.8363" stroke-miterlimit="10" stroke-linecap="round" stroke-linejoin="round"/>
<path d="M62.0366 119.132L61.0044 119.562" stroke="#FFBED2" stroke-width="0.8363" stroke-miterlimit="10" stroke-linecap="round" stroke-linejoin="round"/>
<path d="M60.9186 113.369L59.9724 113.885" stroke="#FFBED2" stroke-width="0.8363" stroke-miterlimit="10" stroke-linecap="round" stroke-linejoin="round"/>
<path d="M21.7814 125.497L20.2332 127.217" stroke="#FFBED2" stroke-width="0.8363" stroke-miterlimit="10" stroke-linecap="round" stroke-linejoin="round"/>
<path d="M6.21216 103.993L6.90029 101.069C7.15833 101.241 7.41638 101.327 7.67443 101.413L22.1251 104.94C23.4154 105.284 24.2755 106.488 24.1895 107.864L24.0175 109.67C22.5552 108.552 19.8027 106.918 16.104 106.058C10.1689 104.682 6.21216 103.993 6.21216 103.993Z" fill="#FFCDDC"/>
</svg>
