<svg width="120" height="242" viewBox="0 0 120 242" fill="none" xmlns="http://www.w3.org/2000/svg">
<path d="M63.8693 72.0131L46.5079 70.4936C40.0838 69.931 35.9326 63.4229 38.1408 57.3642C38.3089 56.9019 38.49 56.4557 38.6775 56.0257C40.3263 52.2981 39.5084 49.4982 40.1032 46.1165V46.1133C40.1517 45.832 40.2099 45.5475 40.281 45.2565C41.2122 41.4674 42.8449 40.2453 42.667 35.8128C42.5959 34.0605 42.3955 31.8491 42.6735 30.1065C43.0097 28.0083 43.8212 23.8021 44.8299 21.9366C44.8364 21.9269 44.8429 21.9172 44.8461 21.9075C45.8419 19.8933 47.7009 17.9665 50.9824 17.0062C52.7509 16.489 54.5711 16.1042 56.4139 16.0169C59.4206 15.8715 62.4435 16.67 65.059 18.1475C66.2714 18.8329 67.3836 19.6347 68.305 20.6725C69.2264 21.7103 69.9538 22.9098 70.4808 24.1933C71.5639 26.8347 71.7837 29.7476 71.3473 32.5701C70.8591 35.7384 71.4572 38.6256 72.6017 41.3704C73.6201 43.5107 73.9402 45.9872 73.1513 49.0036V49.0068C73.1449 49.0295 73.1416 49.0521 73.1352 49.0747C72.0779 53.4361 73.2418 55.9482 74.2215 59.7728C74.2312 59.8149 74.2409 59.8537 74.2538 59.8957C75.8994 66.4135 70.5649 72.5983 63.8693 72.0131Z" fill="#2D2D37"/>
<path d="M64.9263 38.0535L54.1603 37.1127L52.0329 50.2776C51.2602 54.0376 54.1797 54.8717 58.0043 55.208C61.829 55.5442 64.8487 55.2274 64.7388 51.3898L64.9263 38.0535Z" fill="#FFDAE4"/>
<path d="M61.6514 42.2531L53.2358 42.8285L52.0331 50.2775C52.0299 50.2871 52.0299 50.2936 52.0299 50.3033L52.0137 50.4035C52.0137 50.4068 52.0137 50.4068 52.0137 50.41C51.9975 50.4973 51.9878 50.5814 51.9749 50.6654C51.962 50.7753 51.9458 50.9079 51.9264 51.0598C51.7647 53.2712 53.1291 54.2832 55.2176 54.7908C55.2791 54.8069 55.3405 54.8231 55.4019 54.836C55.4472 54.8457 55.4957 54.8554 55.5409 54.8651C56.4947 50.8853 59.4755 43.6885 61.6514 42.2531Z" fill="#FFCDDC"/>
<path d="M45.2058 28.7195C45.82 21.6844 52.1891 16.5374 59.2695 17.5009C65.548 18.3576 70.2585 24.0025 69.9805 30.336C69.8512 33.2457 68.7422 35.8516 66.9964 37.8787C65.4478 39.673 64.0349 41.574 62.5962 43.4557C60.2911 46.4656 56.35 48.1048 52.2311 47.1445C48.248 46.2167 45.1863 42.8511 44.6012 38.8066C44.4331 37.6427 44.4686 36.524 44.6691 35.4701C45.0441 33.4817 45.112 31.4546 45.1702 29.4308C45.1702 29.1947 45.1831 28.9555 45.2058 28.7195Z" fill="#FFE4EE"/>
<path d="M56.401 39.2658C53.9794 39.7637 51.726 40.087 49.8444 40.0191C49.6278 40.0127 49.4823 40.2422 49.5922 40.4265C49.867 40.8985 50.6429 41.2865 51.5838 41.3673C53.7402 41.5548 55.7802 40.5235 56.6467 39.7346C56.8536 39.5503 56.6758 39.2109 56.401 39.2658Z" fill="#FF7BA4"/>
<path d="M48.9462 36.0711C48.2045 36.0062 47.6765 35.1158 47.7669 34.0823C47.8573 33.0488 48.5319 32.2636 49.2736 32.3285C50.0154 32.3934 50.5434 33.2838 50.453 34.3173C50.3626 35.3508 49.688 36.1359 48.9462 36.0711Z" fill="white"/>
<path d="M55.6196 36.6566C54.8778 36.5917 54.3498 35.7013 54.4402 34.6679C54.5306 33.6344 55.2052 32.8492 55.947 32.9141C56.6887 32.979 57.2167 33.8694 57.1263 34.9029C57.0359 35.9363 56.3613 36.7215 55.6196 36.6566Z" fill="white"/>
<path d="M55.2052 35.9574C54.7232 35.9153 54.38 35.3374 54.4387 34.6669C54.4973 33.9963 54.9357 33.4868 55.4177 33.529C55.8997 33.5712 56.243 34.149 56.1843 34.8196C56.1256 35.4902 55.6873 35.9996 55.2052 35.9574Z" fill="#2D2D37"/>
<path d="M48.5314 35.3721C48.0494 35.3299 47.7062 34.7521 47.7648 34.0815C47.8235 33.4109 48.2618 32.9015 48.7439 32.9437C49.2259 32.9858 49.5691 33.5636 49.5105 34.2342C49.4518 34.9048 49.0135 35.4143 48.5314 35.3721Z" fill="#2D2D37"/>
<path d="M52.1727 36.9185C51.3838 36.8701 50.7825 36.1879 50.8342 35.399C50.8536 35.0822 51.0508 34.83 51.2965 34.6328C51.9528 34.1058 52.4119 33.3784 52.4863 32.541L52.5024 32.3406" stroke="#FFBED2" stroke-width="0.710047" stroke-miterlimit="10" stroke-linecap="round" stroke-linejoin="round"/>
<path d="M71.2595 33.22C71.2659 33.1585 71.2821 33.0809 71.295 32.9969C71.3112 32.8546 71.3209 32.7188 71.3435 32.5733C71.7768 29.7509 71.5602 26.8379 70.4771 24.1965C69.9501 22.913 69.2227 21.7136 68.3013 20.6758C67.3798 19.6347 66.2677 18.8329 65.0553 18.1508C62.4398 16.6733 59.4169 15.878 56.4101 16.0202C54.5673 16.1075 52.7471 16.4922 50.9787 17.0095C47.7004 17.973 45.8414 19.8966 44.8424 21.9108C44.8359 21.9205 44.8294 21.9302 44.8262 21.9399C44.3703 22.7837 43.9565 24.1028 43.6073 25.493C43.2 27.1127 44.06 28.8457 45.6441 29.3662C45.6538 29.3694 45.6635 29.3726 45.67 29.3759C46.6529 29.7832 47.917 30.0677 49.0388 30.252C49.1908 30.2779 49.3233 30.1712 49.346 30.0192C49.4818 29.0267 49.9085 27.3617 50.3935 26.9026C50.0605 27.6947 49.9344 28.92 49.9312 29.7703C49.9312 30.113 50.1833 30.4072 50.5228 30.4492C50.7265 30.4751 50.9108 30.4977 51.0659 30.5139C51.4248 30.5495 51.6996 30.2423 51.6673 29.8802C51.4992 28.0827 52.385 25.9521 53.8722 25.3313C56.0416 30.0225 59.6852 33.5206 64.4151 34.4905C66.2289 34.8623 64.8904 40.4781 64.8904 40.4781L64.8516 43.1906C69.7464 43.64 71.0687 34.6748 71.2595 33.22Z" fill="#2D2D37"/>
<path d="M64.3773 34.9108C64.4904 33.6143 65.5541 32.6573 66.7277 32.8255C67.7687 32.9742 68.5414 34.0055 68.4832 35.1694C68.4574 35.7061 68.2699 36.1878 67.9757 36.5628C67.717 36.8958 67.4778 37.2482 67.2353 37.5974C66.8473 38.1535 66.191 38.4639 65.5089 38.2925C64.8493 38.1276 64.3482 37.5134 64.2577 36.7698C64.2318 36.5564 64.2383 36.3495 64.2738 36.1555C64.3385 35.7901 64.3547 35.4151 64.3676 35.0433C64.3708 34.9981 64.3708 34.956 64.3773 34.9108Z" fill="#FFE4EE"/>
<path d="M66.8667 35.0754L66.5175 35.3664C66.1651 35.6639 66.1199 36.1876 66.4141 36.54" stroke="#FFBED2" stroke-width="0.710047" stroke-miterlimit="10" stroke-linecap="round" stroke-linejoin="round"/>
<path d="M23.657 71.379L39.3857 68.605L36.8543 54.2504L21.1256 57.0243C17.1618 57.7226 14.514 61.5021 15.2123 65.4658C15.9139 69.4327 19.6933 72.0773 23.657 71.379Z" fill="#FFE4EE"/>
<path d="M33.9444 54.7647L36.4759 69.1193L37.4717 68.9448L34.9402 54.5901L33.9444 54.7647Z" fill="#FFCDDC"/>
<path d="M53.1226 66.6007L37.9338 69.2776C37.6816 69.3229 37.4424 69.1548 37.3971 68.9026L34.8721 54.5738C34.8269 54.3216 34.995 54.0824 35.2472 54.0371L50.436 51.3602C54.6454 50.6166 58.6576 53.4293 59.4012 57.6355C60.1415 61.8449 57.332 65.8603 53.1226 66.6007Z" fill="#FF915A"/>
<path d="M37.1707 67.6126L36.6858 64.8646C37.1966 62.97 44.9106 53.6136 50.4359 51.3602C54.3802 50.6651 58.1563 53.0898 59.2232 56.866C59.2944 57.1182 59.3526 57.3736 59.4011 57.6387C59.4237 57.7713 59.4431 57.9006 59.4593 58.0332C59.9636 62.0971 57.1994 65.883 53.1225 66.6039L37.8917 69.2841C37.7979 69.2906 37.7106 69.2712 37.633 69.2292C37.5781 68.9446 37.3776 68.3207 37.1707 67.6126Z" fill="#FF7837"/>
<path d="M24.9602 27.523C23.9321 27.8108 23.3437 28.9035 23.5312 29.9543L24.1649 33.5397C24.1972 33.7304 24.0744 33.9115 23.8869 33.9471C23.6929 33.9859 23.5021 33.8565 23.4698 33.6625L22.4967 28.1438L21.2131 20.8694C21.0159 19.7605 19.9587 19.0169 18.8498 19.2141C17.7409 19.4113 16.9973 20.4685 17.1945 21.5775L18.4683 28.8065C18.5006 28.9973 18.3745 29.1816 18.1806 29.2171C17.9898 29.2495 17.8055 29.1234 17.77 28.9294L16.3054 20.627C16.1082 19.518 15.051 18.7744 13.942 18.9716C12.8331 19.1689 12.0895 20.2261 12.2867 21.335L13.858 30.2452C13.8903 30.436 13.7642 30.6203 13.5702 30.6558C13.3795 30.6882 13.1952 30.5621 13.1596 30.3681L12.0507 24.0831C11.8535 22.9741 10.7963 22.2305 9.68737 22.4278C8.57844 22.625 7.83484 23.6822 8.03205 24.7911L9.09573 30.8175L9.67121 34.0764L15.2773 65.8636C15.9336 69.5783 19.4738 72.0613 23.1918 71.405C26.9065 70.7487 29.3895 67.2085 28.7332 63.4905L26.1306 48.7317C25.6392 45.9481 25.9819 43.0836 27.1102 40.4907C28.2385 37.9011 28.5812 35.0334 28.0898 32.2497L27.5402 29.1266C27.3236 27.953 26.1435 27.19 24.9602 27.523Z" fill="#FFE4EE"/>
<path d="M13.1625 35.9416C15.3093 35.7994 18.5035 34.8036 19.9648 32.922" stroke="#FFBED2" stroke-width="0.675236" stroke-miterlimit="10" stroke-linecap="round" stroke-linejoin="round"/>
<path d="M21.979 35.6829C19.5284 36.614 19.1921 40.2156 20.3237 42.0325" stroke="#FFBED2" stroke-width="0.675236" stroke-miterlimit="10" stroke-linecap="round" stroke-linejoin="round"/>
<path d="M41.4441 174.368L46.992 208.402C47.2151 209.637 46.979 210.895 46.3421 211.865C44.3926 214.833 44.37 216.284 41.1272 216.87L37.5483 217.516C35.4824 217.888 34.1633 220.145 34.5965 222.553C35.033 224.962 37.0601 226.611 39.1228 226.239L49.8629 224.299L58.8184 222.683C61.324 222.23 62.6108 219.091 61.3854 216.42L60.2927 214.041C60.1149 213.653 59.9855 213.239 59.908 212.815L53.1832 172.247L41.4441 174.368Z" fill="#FFE4EE"/>
<path d="M62.8398 218.929L59.2543 206.081C59.167 205.764 58.8502 205.567 58.5269 205.622L47.0432 207.646C46.8071 207.688 46.6132 207.856 46.5453 208.082C46.0506 209.709 45.2197 215.935 38.1135 217.187C29.9792 218.622 33.2478 227.671 36.1672 227.157L60.3374 222.896C62.1835 222.576 63.3441 220.733 62.8398 218.929Z" fill="#FD5768"/>
<path d="M45.3651 198.438L46.28 204.044L58.1064 201.959L57.1786 196.353L45.3651 198.438Z" fill="#FFCDDC"/>
<path d="M36.1674 227.164L43.959 225.79L43.7973 224.872C42.3392 216.611 38.1137 217.193 38.1137 217.193C29.9793 218.629 33.2479 227.678 36.1674 227.164Z" fill="#F5F5F9"/>
<path d="M35.0584 228.848L62.9724 223.927C63.6255 223.811 64.062 223.19 63.9456 222.537C63.8292 221.884 63.2084 221.448 62.5554 221.564L34.6413 226.485C33.9883 226.601 33.5518 227.222 33.6682 227.875C33.7846 228.528 34.4053 228.961 35.0584 228.848Z" fill="#E5E5EB"/>
<path d="M41.4441 174.368L46.992 208.402C47.2151 209.637 46.979 210.895 46.3421 211.865C44.3926 214.833 44.37 216.284 41.1272 216.87L37.5483 217.516C35.4824 217.888 34.1633 220.145 34.5965 222.553C35.033 224.962 37.0601 226.611 39.1228 226.239L49.8629 224.299L58.8184 222.683C61.324 222.23 62.6108 219.091 61.3854 216.42L60.2927 214.041C60.1149 213.653 59.9855 213.239 59.908 212.815L53.1832 172.247L41.4441 174.368Z" fill="#FFE4EE"/>
<path d="M45.3651 198.438L46.28 204.044L58.1064 201.959L57.1786 196.353L45.3651 198.438Z" fill="#FFCDDC"/>
<path d="M62.8398 218.929L59.2543 206.081C59.167 205.764 58.8502 205.567 58.5269 205.622L47.0432 207.646C46.8071 207.688 46.6132 207.856 46.5453 208.082C46.0506 209.709 45.2197 215.935 38.1135 217.187C29.9792 218.622 33.2478 227.671 36.1672 227.157L60.3374 222.896C62.1835 222.576 63.3441 220.733 62.8398 218.929Z" fill="#FF915A"/>
<path d="M36.1674 227.164L43.959 225.79L43.7973 224.872C42.3392 216.611 38.1137 217.193 38.1137 217.193C29.9793 218.629 33.2479 227.678 36.1674 227.164Z" fill="#F5F5F9"/>
<path d="M35.0584 228.848L62.9724 223.927C63.6255 223.811 64.062 223.19 63.9456 222.537C63.8292 221.884 63.2084 221.448 62.5554 221.564L34.6413 226.485C33.9883 226.601 33.5518 227.222 33.6682 227.875C33.7846 228.528 34.4053 228.961 35.0584 228.848Z" fill="#E5E5EB"/>
<path d="M49.1804 212.76C48.7072 212.76 48.3236 212.377 48.3236 211.904C48.3236 211.43 48.7072 211.047 49.1804 211.047C49.6535 211.047 50.0371 211.43 50.0371 211.904C50.0371 212.377 49.6535 212.76 49.1804 212.76Z" fill="white"/>
<path d="M47.8063 215.463C47.3332 215.463 46.9496 215.08 46.9496 214.606C46.9496 214.133 47.3332 213.75 47.8063 213.75C48.2795 213.75 48.6631 214.133 48.6631 214.606C48.6631 215.08 48.2795 215.463 47.8063 215.463Z" fill="white"/>
<path d="M45.902 217.836C45.4289 217.836 45.0453 217.453 45.0453 216.98C45.0453 216.506 45.4289 216.123 45.902 216.123C46.3752 216.123 46.7588 216.506 46.7588 216.98C46.7588 217.453 46.3752 217.836 45.902 217.836Z" fill="white"/>
<path d="M46.2924 214.248L44.4949 213.252C44.6436 213.035 44.7826 212.819 44.9087 212.599L46.6675 213.572L46.2924 214.248Z" fill="white"/>
<path d="M44.5793 216.259L43.1148 214.855C43.3088 214.678 43.4866 214.493 43.6579 214.306L45.1128 215.699L44.5793 216.259Z" fill="white"/>
<path d="M47.5647 211.82L45.5634 211.286C45.6669 211.037 45.7574 210.798 45.8415 210.562L47.7651 211.073L47.5647 211.82Z" fill="white"/>
<path d="M49.5515 152.785L81.7978 164.999C82.9778 165.423 83.951 166.257 84.4715 167.295C86.0654 170.469 87.3133 171.21 86.1979 174.31L84.9694 177.734C84.2613 179.709 85.5513 181.982 87.8565 182.81C90.1584 183.638 92.6026 182.706 93.3106 180.731L96.9995 170.46L100.077 161.895C100.937 159.5 98.8617 156.813 95.9391 156.541L93.3332 156.299C92.9097 156.26 92.4862 156.166 92.0821 156.018L53.5863 141.56L49.5515 152.785Z" fill="#FFE4EE"/>
<path d="M98.8392 156.535L85.92 153.215C85.6 153.134 85.2734 153.305 85.1603 153.616L81.1707 164.572C81.0899 164.795 81.1384 165.048 81.3 165.222C82.4607 166.46 87.4363 170.298 84.9695 177.078C82.1438 184.84 91.6166 186.534 92.6318 183.747L101.025 160.686C101.668 158.931 100.653 157.004 98.8392 156.535Z" fill="#FD5768"/>
<path d="M72.3543 161.423L77.6662 163.434L81.7754 152.148L76.457 150.153L72.3543 161.423Z" fill="#FFCDDC"/>
<path d="M92.6348 183.751L95.3408 176.315L94.4647 175.995C86.5825 173.124 84.9725 177.078 84.9725 177.078C82.1468 184.843 91.6196 186.538 92.6348 183.751Z" fill="#F5F5F9"/>
<path d="M93.537 185.555L103.23 158.921C103.456 158.297 103.136 157.612 102.512 157.385C101.888 157.159 101.203 157.479 100.976 158.103L91.2836 184.737C91.0573 185.361 91.3773 186.046 92.0013 186.272C92.622 186.499 93.3107 186.179 93.537 185.555Z" fill="#E5E5EB"/>
<path d="M49.5515 152.785L81.7978 164.999C82.9778 165.423 83.951 166.257 84.4715 167.295C86.0654 170.469 87.3133 171.21 86.1979 174.31L84.9694 177.734C84.2613 179.709 85.5513 181.982 87.8565 182.81C90.1584 183.638 92.6026 182.706 93.3106 180.731L96.9995 170.46L100.077 161.895C100.937 159.5 98.8617 156.813 95.9391 156.541L93.3332 156.299C92.9097 156.26 92.4862 156.166 92.0821 156.018L53.5863 141.56L49.5515 152.785Z" fill="#FFE4EE"/>
<path d="M72.3543 161.423L77.6662 163.434L81.7754 152.148L76.457 150.153L72.3543 161.423Z" fill="#FFCDDC"/>
<path d="M98.8392 156.535L85.92 153.215C85.6 153.134 85.2734 153.305 85.1603 153.616L81.1707 164.572C81.0899 164.795 81.1384 165.048 81.3 165.222C82.4607 166.46 87.4363 170.298 84.9695 177.078C82.1438 184.84 91.6166 186.534 92.6318 183.747L101.025 160.686C101.668 158.931 100.653 157.004 98.8392 156.535Z" fill="#FF915A"/>
<path d="M92.6348 183.751L95.3408 176.315L94.4647 175.995C86.5825 173.124 84.9725 177.078 84.9725 177.078C82.1468 184.843 91.6196 186.538 92.6348 183.751Z" fill="#F5F5F9"/>
<path d="M93.537 185.555L103.23 158.921C103.456 158.297 103.136 157.612 102.512 157.385C101.888 157.159 101.203 157.479 100.976 158.103L91.2836 184.737C91.0573 185.361 91.3773 186.046 92.0013 186.272C92.622 186.499 93.3107 186.179 93.537 185.555Z" fill="#E5E5EB"/>
<path d="M85.9235 165.71C85.4503 165.71 85.0668 165.327 85.0668 164.854C85.0668 164.38 85.4503 163.997 85.9235 163.997C86.3967 163.997 86.7803 164.38 86.7803 164.854C86.7803 165.327 86.3967 165.71 85.9235 165.71Z" fill="white"/>
<path d="M87.5788 168.251C87.1056 168.251 86.722 167.868 86.722 167.395C86.722 166.922 87.1056 166.538 87.5788 166.538C88.052 166.538 88.4355 166.922 88.4355 167.395C88.4355 167.868 88.052 168.251 87.5788 168.251Z" fill="white"/>
<path d="M88.6818 171.087C88.2086 171.087 87.8251 170.703 87.8251 170.23C87.8251 169.757 88.2086 169.373 88.6818 169.373C89.155 169.373 89.5386 169.757 89.5386 170.23C89.5386 170.703 89.155 171.087 88.6818 171.087Z" fill="white"/>
<path d="M86.5112 168.526L84.7492 169.587C84.6361 169.351 84.5165 169.121 84.3904 168.901L86.1136 167.867L86.5112 168.526Z" fill="white"/>
<path d="M87.3975 171.016L85.4512 171.582C85.3962 171.323 85.3219 171.077 85.2475 170.838L87.1808 170.275L87.3975 171.016Z" fill="white"/>
<path d="M85.0439 166.211L83.5826 167.679C83.421 167.466 83.2561 167.265 83.0944 167.078L84.4976 165.668L85.0439 166.211Z" fill="white"/>
<path d="M17.3699 130.34L27.7124 101.922L51.1843 110.464L43.8517 130.609C43.2407 132.287 44.1071 134.143 45.7851 134.754L78.3708 146.612C80.2492 147.295 81.2159 149.373 80.5337 151.249L74.4653 167.918C73.7832 169.796 71.7043 170.763 69.8292 170.081L28.9636 155.203C18.8927 151.54 13.7037 140.408 17.3699 130.34Z" fill="#F5F5F9"/>
<path d="M35.2122 123.39C35.2122 123.39 25.6424 142.115 27.8474 154.76L59.0332 166.153C57.6592 163.405 56.7765 159.884 56.6472 150.269C56.5599 143.787 57.407 138.995 57.407 138.995L35.2122 123.39Z" fill="#E5E5EB"/>
<path d="M33.9643 122.164L31.0157 130.263C29.2214 135.197 31.7626 140.651 36.6962 142.448L72.1108 155.338" stroke="#CCCCD2" stroke-width="0.652635" stroke-miterlimit="10" stroke-linecap="round" stroke-dasharray="4.42 4.42"/>
<path d="M37.8342 106.161L62.4312 110.5L55.5674 149.432C54.9111 153.147 54.9111 156.945 55.5674 160.66L61.8039 196.033C62.1499 198.002 60.8373 199.877 58.8683 200.223L41.397 203.304C39.4281 203.65 37.553 202.337 37.207 200.368L31.1968 166.273C29.8874 158.843 29.8874 151.246 31.1968 143.816L37.8342 106.161Z" fill="#F5F5F9"/>
<path d="M53.0332 112.918L47.398 144.87C45.9626 153.004 45.9626 161.326 47.398 169.457L51.4426 192.392" stroke="#CCCCD2" stroke-width="0.652635" stroke-miterlimit="10" stroke-linecap="round" stroke-dasharray="4.42 4.42"/>
<path d="M44.2005 112.362L43.8384 114.667C43.4019 117.451 44.2587 120.279 46.163 122.355L46.7837 123.034" stroke="#CCCCD2" stroke-width="0.652635" stroke-miterlimit="10" stroke-linecap="round" stroke-linejoin="round"/>
<path d="M29.6777 107.683L29.2898 109.141C28.821 110.9 27.5763 112.352 25.9048 113.082L25.3584 113.322" stroke="#CCCCD2" stroke-width="0.652635" stroke-miterlimit="10" stroke-linecap="round" stroke-linejoin="round"/>
<path d="M37.4502 109.559C37.4437 109.585 34.8832 118.99 34.8832 118.99" stroke="#CCCCD2" stroke-width="0.652635" stroke-miterlimit="10" stroke-linecap="round" stroke-linejoin="round"/>
<path d="M35.7622 109.403L34.8052 113.124C34.5433 114.139 34.6727 115.213 35.1609 116.141L35.4906 116.765" stroke="#CCCCD2" stroke-width="0.652635" stroke-miterlimit="10" stroke-linecap="round" stroke-linejoin="round"/>
<path d="M67.0023 52.712C63.543 49.8831 58.9973 48.758 54.6166 49.6438C49.9254 50.5943 45.9747 53.7433 44.0025 58.1047L25.1539 99.7882C24.6593 100.878 25.2639 102.152 26.4181 102.462L63.737 112.462C64.8588 112.762 65.9904 112.019 66.1585 110.868L72.5696 67.0699C73.3649 61.6384 71.2538 56.1875 67.0023 52.712Z" fill="#FF915A"/>
<path d="M58.186 66.9662C62.279 63.0963 65.5735 60.8784 65.5735 60.8784L72.6538 66.3455C72.6312 66.588 72.6085 66.8272 72.573 67.0697L70.5071 81.1754C70.5071 81.1754 65.4215 71.3664 58.186 66.9662Z" fill="#FF7837"/>
<path d="M101.576 110.602C102.43 109.788 102.436 108.417 101.712 107.486L99.2385 104.314C99.1092 104.146 99.1351 103.907 99.3 103.771C99.4713 103.632 99.7203 103.661 99.8561 103.833L103.665 108.714L108.685 115.151C109.452 116.134 110.868 116.309 111.851 115.543C112.833 114.776 113.008 113.36 112.242 112.377L107.253 105.979C107.121 105.808 107.15 105.562 107.321 105.43C107.492 105.297 107.738 105.326 107.871 105.498L113.603 112.843C114.369 113.826 115.785 114 116.768 113.234C117.751 112.468 117.925 111.052 117.159 110.069L111.01 102.187C110.877 102.016 110.907 101.77 111.078 101.637C111.249 101.505 111.495 101.534 111.628 101.705L115.966 107.266C116.733 108.249 118.149 108.423 119.131 107.657C120.114 106.891 120.289 105.475 119.523 104.492L115.365 99.1608L113.115 96.2769L99.2418 78.492C99.2224 78.4661 99.203 78.4403 99.1836 78.4176C96.2609 74.6835 89.5524 69.2455 85.76 66.4037L67.7811 54.0179C64.1924 51.5479 59.2718 52.5404 56.9278 56.2131C54.6906 59.7145 55.6346 64.3572 59.0584 66.7076L71.9776 75.5758C78.379 79.9695 84.6867 84.3761 89.4619 90.4962C91.3823 92.9598 92.5365 95.931 92.7757 99.0476C93.015 102.161 94.1691 105.135 96.0896 107.596L98.246 110.36C99.0478 111.408 100.596 111.54 101.576 110.602Z" fill="#FFE4EE"/>
<path d="M67.7725 54.0242C65.3478 52.3527 62.3152 52.2718 59.8807 53.5263L55.7748 59.3878C55.4224 62.1649 56.5927 65.0294 59.0466 66.7138L71.6102 75.4365L80.4331 62.8342L67.7725 54.0242Z" fill="#FFCDDC"/>
<path d="M55.8478 55.4436C58.4245 51.412 63.8269 50.3225 67.7647 53.035L80.435 61.8483C80.8553 62.1425 80.9749 62.7115 80.7066 63.1479L72.9053 75.8344C72.6143 76.3064 71.9903 76.4389 71.5344 76.1253L58.1853 66.9629C54.4252 64.383 53.3907 59.2877 55.8478 55.4436Z" fill="#FF915A"/>
</svg>
