<svg width="145" height="152" viewBox="0 0 145 152" fill="none" xmlns="http://www.w3.org/2000/svg">
<path d="M52.2302 13.7684C47.5519 2.37039 34.4527 -2.98837 23.1398 1.68991C11.8269 6.36819 6.38306 19.4674 11.0613 30.7803C15.1442 40.6472 25.5215 46.006 35.5585 44.1347L38.8758 52.2153L28.8388 56.3833L32.4964 65.1444L42.5334 60.9765L46.5312 70.6733L55.2924 67.0157L51.2945 57.404L61.3316 53.236L57.674 44.4749L47.637 48.6428L44.3196 40.5622C52.7405 34.693 56.3131 23.5502 52.2302 13.7684ZM19.8225 27.1227C17.1006 20.5731 20.2478 13.0879 26.7123 10.366C33.1768 7.64408 40.7471 10.7913 43.469 17.2558C46.191 23.7204 43.0438 31.2907 36.5792 34.0126C30.0296 36.8195 22.5444 33.6723 19.8225 27.1227Z" fill="#FF678D"/>
<path d="M15.0593 87.4305L3.06593 87.1753C1.27968 87.1753 -0.0812806 85.7293 0.003779 83.943C0.003779 82.1568 1.4498 80.7958 3.23605 80.8809L18.1215 81.1361C20.7583 81.2211 23.3101 81.6464 25.7768 82.497C27.3079 83.0074 28.839 81.5613 28.3286 79.9452L26.8826 75.5221C26.3723 73.8209 27.393 72.1197 29.0942 71.6094C30.7954 71.099 32.4966 72.1197 33.0069 73.8209L45.6808 115.755C45.8509 116.266 46.6165 116.181 46.6165 115.67L48.5728 96.9571L68.2216 100.019L65.5847 123.326C64.479 132.937 56.3133 140.082 46.6165 139.912C38.6209 139.742 31.5609 134.724 28.7539 127.238L22.0342 105.208C21.4388 103.422 19.8227 102.231 17.9514 102.231C16.5054 102.231 15.1444 101.465 14.3789 100.274L12.5926 97.5526L16.5054 95.0858L15.0593 87.4305Z" fill="#FFE4EE"/>
<path d="M17.7815 93.7249L11.1469 93.5548C9.36061 93.5548 7.99965 92.1088 8.08471 90.3225C8.08471 88.5363 9.53073 87.1753 11.317 87.2604L17.9516 87.4305C19.7379 87.4305 21.0988 88.8765 21.0138 90.6628C21.0138 92.3639 19.5678 93.81 17.7815 93.7249Z" fill="#FFE4EE"/>
<path d="M19.3975 100.105L12.7628 99.9344C10.9766 99.9344 9.61562 98.4884 9.70068 96.7022C9.70068 94.9159 11.1467 93.5549 12.9329 93.64L19.5676 93.8101C21.3538 93.8101 22.7148 95.2561 22.6297 97.0424C22.5447 98.7436 21.1837 100.105 19.3975 100.105Z" fill="#FFE4EE"/>
<path d="M11.3168 87.2605L17.9514 87.4306C19.7377 87.4306 21.0986 88.8766 21.0136 90.6629C21.0136 92.4491 19.5676 93.8101 17.7813 93.725" stroke="#FFBED2" stroke-width="1.0733" stroke-miterlimit="10" stroke-linecap="round" stroke-linejoin="round"/>
<path d="M13.7833 93.6399L19.4823 93.725C21.2686 93.725 22.6295 95.171 22.5445 96.9572C22.5445 98.7435 21.0985 100.104 19.3122 100.019" stroke="#FFBED2" stroke-width="1.0733" stroke-miterlimit="10" stroke-linecap="round" stroke-linejoin="round"/>
<path d="M28.2435 86.4097C28.2435 86.4097 25.7768 96.6168 30.0298 99.0836" stroke="#FFBED2" stroke-width="1.0733" stroke-miterlimit="10" stroke-linecap="round" stroke-linejoin="round"/>
<path d="M46.3613 117.712L46.4464 120.349" stroke="#FFBED2" stroke-width="1.0733" stroke-miterlimit="10" stroke-linecap="round" stroke-linejoin="round"/>
<path d="M47.5522 104.953C53.8467 106.569 60.2261 109.206 66.6907 112.012L67.8815 101.04L48.3178 97.042L47.5522 104.953Z" fill="#FFCDDC"/>
<path d="M61.2465 105.463C62.5224 105.803 63.373 106.994 63.2029 108.27L60.1407 148.928C60.0557 150.459 61.2465 151.82 62.7776 151.82H122.234C123.85 151.82 125.041 150.459 124.871 148.843L120.788 108.355C120.618 106.994 121.554 105.803 122.83 105.463L137.12 101.975C138.396 101.635 139.331 100.444 139.161 99.0832C137.63 86.2392 123.85 75.6918 105.392 72.2044C104.287 72.0342 103.436 71.1837 103.181 70.0779C103.011 69.1422 102.33 68.3767 101.48 68.0364C95.4405 65.995 89.4863 65.995 83.5321 68.0364C82.5965 68.3767 82.0011 69.1422 81.8309 70.0779C81.6608 71.1837 80.7252 72.0342 79.6194 72.2044C61.1614 75.6918 47.2967 86.2392 45.8507 99.0832C45.6806 100.359 46.5312 101.635 47.8071 101.975L61.2465 105.463Z" fill="#FF7D5F"/>
<path d="M103.266 75.1816L99.3533 80.5404C98.7578 81.391 97.4819 81.4761 96.7164 80.7956L93.9094 78.0737C93.229 77.3932 92.1232 77.3932 91.3577 78.0737L88.5507 80.7956C87.7851 81.5611 86.5093 81.391 85.9138 80.5404L82.0011 75.1816" stroke="#FF5A46" stroke-width="1.0213" stroke-miterlimit="10" stroke-linecap="round" stroke-linejoin="round"/>
<path d="M92.5484 82.3264C93.0181 82.3264 93.3989 81.9456 93.3989 81.4758C93.3989 81.0061 93.0181 80.6252 92.5484 80.6252C92.0786 80.6252 91.6978 81.0061 91.6978 81.4758C91.6978 81.9456 92.0786 82.3264 92.5484 82.3264Z" fill="#E5E5E5"/>
<path d="M92.5484 84.7932C93.0181 84.7932 93.3989 84.4124 93.3989 83.9426C93.3989 83.4729 93.0181 83.092 92.5484 83.092C92.0786 83.092 91.6978 83.4729 91.6978 83.9426C91.6978 84.4124 92.0786 84.7932 92.5484 84.7932Z" fill="#E5E5E5"/>
<path d="M100.204 47.7927H84.6382L83.1921 68.5473C82.5117 74.0762 86.8497 74.8417 92.3786 74.8417C97.9075 74.8417 102.246 73.9911 101.565 68.5473L100.204 47.7927Z" fill="#FFDAE4"/>
<path d="M96.6317 57.1489C93.6546 59.5306 89.7418 68.9722 88.8062 74.7563C85.5739 74.331 83.2773 73.2252 83.1072 70.078C83.1072 69.4826 83.1072 68.9722 83.1072 68.717V68.632L83.7877 57.5742L96.6317 57.1489Z" fill="#FFCDDC"/>
<path d="M70.8585 38.3505C70.8585 28.1434 79.3645 19.9777 89.6567 20.488C98.7581 20.9133 106.243 28.4836 106.669 37.585C106.839 41.7529 105.563 45.6657 103.351 48.8129C101.395 51.6198 99.0983 53.5762 97.3121 56.4682C94.42 61.0615 87.8704 63.4431 82.6818 62.2523C77.4932 61.0615 73.6655 56.6384 72.6448 52.9808C72.2195 51.3647 72.2195 49.2382 72.1344 47.7071C71.9643 44.9852 71.1137 42.3483 70.9436 39.4563C70.8585 39.031 70.8585 38.6908 70.8585 38.3505Z" fill="#FFE4EE"/>
<path d="M100.799 55.4477C100.799 55.4477 111.432 50.0038 109.305 37.415C107.179 24.8262 100.714 21.3387 97.8223 20.4031C94.9303 19.4674 80.7253 14.4489 74.0907 24.9963C67.456 35.5437 69.3274 40.1369 71.3688 42.9439C71.3688 42.9439 73.5803 30.27 78.854 28.7389C79.3644 28.5688 79.9598 28.824 80.1299 29.3343C80.6403 30.6953 82.2564 33.4172 87.36 34.4379C94.2498 35.7989 94.8452 41.0726 97.6522 41.8381C100.459 42.5186 100.204 51.4499 100.799 55.4477Z" fill="#333333"/>
<path d="M99.1831 44.8151C99.1831 42.9438 100.629 41.4127 102.33 41.4978C103.861 41.5828 105.052 42.9438 105.137 44.645C105.137 45.4105 104.967 46.091 104.542 46.6864C104.202 47.1968 103.946 47.7071 103.606 48.3025C103.096 49.1531 102.245 49.6635 101.225 49.4934C100.289 49.3233 99.4383 48.5577 99.2682 47.4519C99.1831 47.1117 99.1831 46.8565 99.1831 46.6013C99.2682 46.091 99.1831 45.4956 99.1831 44.9852C99.1831 44.9002 99.1831 44.9002 99.1831 44.8151Z" fill="#FFE4EE"/>
<path d="M112.449 28.6604C115.106 26.003 114.756 21.3444 111.667 18.2552C108.577 15.1659 103.919 14.8159 101.261 17.4733C98.6041 20.1307 98.9541 24.7892 102.043 27.8785C105.133 30.9677 109.791 31.3178 112.449 28.6604Z" fill="#333333"/>
<path d="M78.0882 44.9004C79.1687 44.9004 80.0446 43.6817 80.0446 42.1784C80.0446 40.6752 79.1687 39.4565 78.0882 39.4565C77.0077 39.4565 76.1318 40.6752 76.1318 42.1784C76.1318 43.6817 77.0077 44.9004 78.0882 44.9004Z" fill="white"/>
<path d="M87.7855 44.9004C88.8659 44.9004 89.7419 43.6817 89.7419 42.1784C89.7419 40.6752 88.8659 39.4565 87.7855 39.4565C86.705 39.4565 85.8291 40.6752 85.8291 42.1784C85.8291 43.6817 86.705 44.9004 87.7855 44.9004Z" fill="white"/>
<path d="M77.3227 43.8794C77.9803 43.8794 78.5135 43.1178 78.5135 42.1782C78.5135 41.2387 77.9803 40.4771 77.3227 40.4771C76.665 40.4771 76.1318 41.2387 76.1318 42.1782C76.1318 43.1178 76.665 43.8794 77.3227 43.8794Z" fill="#333333"/>
<path d="M87.0199 43.7948C87.6776 43.7948 88.2108 43.0712 88.2108 42.1786C88.2108 41.2861 87.6776 40.5625 87.0199 40.5625C86.3623 40.5625 85.8291 41.2861 85.8291 42.1786C85.8291 43.0712 86.3623 43.7948 87.0199 43.7948Z" fill="#333333"/>
<path d="M86.765 49.919C85.2339 50.6845 80.6407 50.6845 79.1096 49.919C78.9395 49.8339 78.6843 50.1742 78.8544 50.5144C79.3648 52.2156 80.9809 53.4064 82.9373 53.4064C84.8937 53.4064 86.5098 52.2156 87.0202 50.5144C87.1903 50.1742 86.9351 49.8339 86.765 49.919Z" fill="#FF7BA4"/>
<path d="M102.756 44.7302L102.331 45.1555C101.82 45.6659 101.82 46.3464 102.331 46.8567" stroke="#FFBED2" stroke-width="1.0213" stroke-miterlimit="10" stroke-linecap="round" stroke-linejoin="round"/>
<path d="M82.8518 46.8569C81.7461 46.8569 80.7253 46.0063 80.7253 44.8154C80.7253 44.135 81.2357 43.6246 81.8311 43.1993C82.4265 42.774 82.7668 42.0935 82.7668 41.4131V39.967" stroke="#FFBED2" stroke-width="1.0213" stroke-miterlimit="10" stroke-linecap="round" stroke-linejoin="round"/>
<path d="M144.265 128.004L137.885 101.635C137.63 101.805 137.46 101.89 137.205 101.975L122.915 105.463C121.639 105.803 120.788 106.994 120.874 108.355L122.49 124.176C122.575 124.601 122.149 125.027 121.724 124.771L111.432 120.093C108.2 118.477 105.563 116.01 103.606 112.948C101.565 109.716 98.5879 107.164 95.1005 105.633C93.059 104.697 90.5923 105.633 89.6567 107.674L88.9762 109.121C88.9762 109.121 87.36 108.525 85.9991 108.355C84.6381 108.1 82.9369 108.525 82.3415 109.886C81.7461 111.247 82.2565 112.778 83.5324 113.459C82.2565 113.118 80.8105 113.714 80.3001 114.99V115.075C79.6196 116.521 80.3001 118.137 81.6611 118.817L82.5967 119.243C81.3208 118.987 80.0449 119.583 79.5346 120.774C79.0242 121.794 79.2794 122.985 80.0449 123.751C81.661 125.962 84.468 128.089 87.7003 129.535L123.255 145.611C129.039 148.248 135.929 146.972 140.437 142.464C144.01 138.636 145.541 133.192 144.265 128.004Z" fill="#FFE4EE"/>
<path d="M89.6567 109.801L95.5258 112.438C95.5258 112.438 93.3994 111.332 93.9948 109.886L93.3143 111.417" stroke="#FFBED2" stroke-width="0.8363" stroke-miterlimit="10" stroke-linecap="round" stroke-linejoin="round"/>
<path d="M83.4474 119.498L84.4681 119.923" stroke="#FFBED2" stroke-width="0.8363" stroke-miterlimit="10" stroke-linecap="round" stroke-linejoin="round"/>
<path d="M84.468 113.799L85.4887 114.309" stroke="#FFBED2" stroke-width="0.8363" stroke-miterlimit="10" stroke-linecap="round" stroke-linejoin="round"/>
<path d="M123.17 125.792L124.786 127.493" stroke="#FFBED2" stroke-width="0.8363" stroke-miterlimit="10" stroke-linecap="round" stroke-linejoin="round"/>
<path d="M138.651 104.527L137.971 101.635C137.715 101.805 137.545 101.89 137.29 101.975L123 105.463C121.724 105.803 120.874 106.994 120.959 108.355L121.129 110.141C122.575 109.035 125.297 107.419 128.954 106.569C134.653 105.208 138.651 104.527 138.651 104.527Z" fill="#FFCDDC"/>
</svg>
