<svg width="168" height="22" viewBox="0 0 168 22" fill="none" xmlns="http://www.w3.org/2000/svg">
<path fill-rule="evenodd" clip-rule="evenodd" d="M11 22H2.74451C1.22954 22 0 20.7705 0 19.2555V2.74451C0 1.22954 1.22954 0 2.74451 0H11C17.0599 0 22 4.94012 22 11C22 17.0599 17.0599 22 11 22ZM5.48902 16.511H11C14.0299 16.511 16.511 14.0299 16.511 11C16.511 7.97006 14.0299 5.48902 11 5.48902H5.48902V16.511ZM156.92 22C150.86 22 145.92 17.0599 145.92 11C145.92 4.94012 150.86 0 156.92 0C162.98 0 167.92 4.94012 167.92 11C167.92 17.0599 163.002 22 156.92 22ZM156.92 5.48902C153.89 5.48902 151.409 7.97006 151.409 11C151.409 14.0299 153.89 16.511 156.92 16.511C159.95 16.511 162.431 14.0299 162.431 11C162.431 7.97006 159.972 5.48902 156.92 5.48902ZM24.3932 19.2555C24.3932 20.7705 25.6227 22 27.1377 22C28.6527 22 29.8822 20.7705 29.8822 19.2555V2.74451C29.8822 1.22954 28.6527 0 27.1377 0C25.6227 0 24.3932 1.22954 24.3932 2.74451V19.2555ZM92.0398 22H83.7844C82.2694 22 81.0399 20.7705 81.0399 19.2555V2.74451C81.0399 1.22954 82.2694 0 83.7844 0H92.0398C98.0997 0 103.04 4.94012 103.04 11C103.04 17.0599 98.0997 22 92.0398 22ZM86.5289 16.511H92.0398C95.0698 16.511 97.5508 14.0299 97.5508 11C97.5508 7.97006 95.0698 5.48902 92.0398 5.48902H86.5289V16.511ZM138.06 19.2555C138.06 20.7705 139.289 22 140.804 22C142.319 22 143.549 20.7705 143.549 19.2555V6.87226C143.549 3.07385 140.475 0 136.676 0C135.118 0 133.69 0.526946 132.549 1.38323C131.407 0.50499 129.958 0 128.421 0C124.623 0 121.549 3.07385 121.549 6.87226V19.2555C121.549 20.7705 122.778 22 124.293 22C125.808 22 127.038 20.7705 127.038 19.2555V6.87226C127.038 6.10379 127.653 5.48902 128.421 5.48902C129.189 5.48902 129.804 6.10379 129.804 6.87226V19.2555C129.804 20.7705 131.034 22 132.549 22C134.064 22 135.293 20.7705 135.293 19.2555V6.87226C135.293 6.10379 135.908 5.48902 136.676 5.48902C137.445 5.48902 138.06 6.10379 138.06 6.87226V19.2555ZM67.6466 22C61.5868 22 56.6467 17.0599 56.6467 11C56.6467 4.94012 61.5868 0 67.6466 0C73.7065 0 78.6466 4.94012 78.6466 11C78.6466 17.0599 73.7065 22 67.6466 22ZM67.6466 5.48902C64.6167 5.48902 62.1357 7.97006 62.1357 11C62.1357 14.0299 64.6167 16.511 67.6466 16.511C70.6766 16.511 73.1576 14.0299 73.1576 11C73.1576 7.97006 70.6766 5.48902 67.6466 5.48902ZM48.7645 19.2555C48.7645 20.7705 49.994 22 51.509 22C53.0239 22 54.2535 20.7705 54.2535 19.2555V6.87226C54.2535 3.07385 51.1796 0 47.3812 0C45.8223 0 44.3952 0.526946 43.2535 1.38323C42.1118 0.50499 40.6627 0 39.1257 0C35.3493 0 32.2754 3.07385 32.2754 6.87226V19.2555C32.2754 20.7705 33.483 22 34.998 22C36.5129 22 37.7425 20.7705 37.7425 19.2555V6.87226C37.7425 6.10379 38.3573 5.48902 39.1257 5.48902C39.8942 5.48902 40.509 6.10379 40.509 6.87226V19.2555C40.509 20.7705 41.7385 22 43.2535 22C44.7684 22 45.998 20.7705 45.998 19.2555V6.87226C45.998 6.10379 46.6128 5.48902 47.3812 5.48902C48.1497 5.48902 48.7645 6.10379 48.7645 6.87226V19.2555ZM116.411 22C114.896 22 113.667 20.7705 113.667 19.2555V13.7446H110.9V19.2555C110.9 20.7705 109.671 22 108.156 22C106.641 22 105.411 20.7705 105.411 19.2555V11.0001V6.87226C105.411 3.07385 108.485 0 112.283 0C116.082 0 119.156 3.07385 119.156 6.87226V11.0001V19.2555C119.156 20.7705 117.926 22 116.411 22ZM113.667 8.25555V6.87226C113.667 6.10379 113.052 5.48902 112.283 5.48902C111.515 5.48902 110.9 6.10379 110.9 6.87226V8.25555H113.667Z" fill="#FF7D5F"/>
</svg>
