<svg width="180" height="177" viewBox="0 0 180 177" fill="none" xmlns="http://www.w3.org/2000/svg">
<path d="M15.728 73C13.76 73 12.248 72.472 11.192 71.416C10.136 70.36 9.608 68.848 9.608 66.88V28.36C9.608 26.392 10.136 24.88 11.192 23.824C12.248 22.768 13.76 22.24 15.728 22.24H30.272C35.888 22.24 40.712 23.272 44.744 25.336C48.824 27.352 51.944 30.256 54.104 34.048C56.264 37.84 57.344 42.352 57.344 47.584C57.344 52.864 56.264 57.424 54.104 61.264C51.992 65.056 48.896 67.96 44.816 69.976C40.784 71.992 35.936 73 30.272 73H15.728ZM29.336 62.344C34.28 62.344 37.976 61.144 40.424 58.744C42.92 56.296 44.168 52.576 44.168 47.584C44.168 42.592 42.92 38.896 40.424 36.496C37.976 34.096 34.28 32.896 29.336 32.896H22.856V62.344H29.336ZM71.1275 73.432C69.1115 73.432 67.5035 72.856 66.3035 71.704C65.1515 70.504 64.5755 68.896 64.5755 66.88V28.36C64.5755 26.392 65.1035 24.88 66.1595 23.824C67.2155 22.768 68.7275 22.24 70.6955 22.24H89.1275C94.7435 22.24 99.1115 23.68 102.231 26.56C105.351 29.392 106.911 33.352 106.911 38.44C106.911 43.48 105.327 47.44 102.16 50.32C99.0395 53.2 94.6955 54.64 89.1275 54.64H77.8235V66.88C77.8235 68.896 77.2235 70.504 76.0235 71.704C74.8235 72.856 73.1915 73.432 71.1275 73.432ZM87.3275 44.704C89.7755 44.704 91.5755 44.2 92.7275 43.192C93.9275 42.184 94.5275 40.624 94.5275 38.512C94.5275 34.336 92.1275 32.248 87.3275 32.248H77.8235V44.704H87.3275ZM129.742 73.36C127.726 73.36 126.094 72.784 124.846 71.632C123.646 70.432 123.046 68.848 123.046 66.88V32.968H112.894C110.782 32.968 109.198 32.536 108.142 31.672C107.134 30.76 106.63 29.392 106.63 27.568C106.63 25.744 107.134 24.4 108.142 23.536C109.198 22.672 110.782 22.24 112.894 22.24H146.59C148.702 22.24 150.262 22.672 151.27 23.536C152.326 24.4 152.854 25.744 152.854 27.568C152.854 29.392 152.326 30.76 151.27 31.672C150.262 32.536 148.702 32.968 146.59 32.968H136.438V66.88C136.438 68.848 135.814 70.432 134.566 71.632C133.366 72.784 131.758 73.36 129.742 73.36ZM162.922 73.432C160.906 73.432 159.298 72.856 158.098 71.704C156.946 70.504 156.37 68.896 156.37 66.88V28.36C156.37 26.392 156.946 24.832 158.098 23.68C159.298 22.48 160.906 21.88 162.922 21.88C164.986 21.88 166.618 22.48 167.818 23.68C169.018 24.832 169.618 26.392 169.618 28.36V66.88C169.618 68.896 169.018 70.504 167.818 71.704C166.618 72.856 164.986 73.432 162.922 73.432Z" fill="#FF7D5F"/>
<path d="M23.752 152.36C21.736 152.36 20.104 151.784 18.856 150.632C17.656 149.432 17.056 147.848 17.056 145.88V111.968H6.904C4.792 111.968 3.208 111.536 2.152 110.672C1.144 109.76 0.64 108.392 0.64 106.568C0.64 104.744 1.144 103.4 2.152 102.536C3.208 101.672 4.792 101.24 6.904 101.24H40.6C42.712 101.24 44.272 101.672 45.28 102.536C46.336 103.4 46.864 104.744 46.864 106.568C46.864 108.392 46.336 109.76 45.28 110.672C44.272 111.536 42.712 111.968 40.6 111.968H30.448V145.88C30.448 147.848 29.824 149.432 28.576 150.632C27.376 151.784 25.768 152.36 23.752 152.36ZM56.5002 152C54.5322 152 53.0202 151.472 51.9642 150.416C50.9082 149.36 50.3802 147.848 50.3802 145.88V107.36C50.3802 105.392 50.9082 103.88 51.9642 102.824C53.0202 101.768 54.5322 101.24 56.5002 101.24H81.4122C83.4762 101.24 85.0362 101.672 86.0922 102.536C87.1482 103.4 87.6762 104.648 87.6762 106.28C87.6762 109.736 85.5882 111.464 81.4122 111.464H63.2682V121.112H79.9722C84.1482 121.112 86.2362 122.816 86.2362 126.224C86.2362 127.856 85.7082 129.104 84.6522 129.968C83.5962 130.832 82.0362 131.264 79.9722 131.264H63.2682V141.776H81.4122C85.5882 141.776 87.6762 143.504 87.6762 146.96C87.6762 148.592 87.1482 149.84 86.0922 150.704C85.0362 151.568 83.4762 152 81.4122 152H56.5002ZM110.998 152.648C107.158 152.648 103.582 152.24 100.27 151.424C97.006 150.56 94.318 149.384 92.206 147.896C91.39 147.272 90.79 146.624 90.406 145.952C90.07 145.28 89.902 144.416 89.902 143.36C89.902 141.92 90.334 140.672 91.198 139.616C92.062 138.56 93.07 138.032 94.222 138.032C94.846 138.032 95.446 138.128 96.022 138.32C96.598 138.512 97.318 138.872 98.182 139.4C100.15 140.504 102.094 141.296 104.014 141.776C105.982 142.256 108.19 142.496 110.638 142.496C113.47 142.496 115.606 142.088 117.046 141.272C118.534 140.408 119.278 139.16 119.278 137.528C119.278 136.424 118.582 135.488 117.19 134.72C115.846 133.904 113.254 133.112 109.414 132.344C104.662 131.336 100.942 130.136 98.254 128.744C95.566 127.352 93.67 125.72 92.566 123.848C91.51 121.928 90.982 119.624 90.982 116.936C90.982 113.864 91.894 111.08 93.718 108.584C95.542 106.088 98.038 104.144 101.206 102.752C104.422 101.312 108.022 100.592 112.006 100.592C115.51 100.592 118.63 100.976 121.366 101.744C124.102 102.512 126.598 103.712 128.854 105.344C129.718 105.968 130.318 106.64 130.654 107.36C131.038 108.032 131.23 108.872 131.23 109.88C131.23 111.32 130.798 112.568 129.934 113.624C129.118 114.68 128.134 115.208 126.982 115.208C126.358 115.208 125.782 115.136 125.254 114.992C124.726 114.8 123.982 114.416 123.022 113.84C122.782 113.696 122.086 113.336 120.934 112.76C119.83 112.136 118.51 111.656 116.974 111.32C115.486 110.936 113.854 110.744 112.078 110.744C109.63 110.744 107.662 111.224 106.174 112.184C104.686 113.096 103.942 114.32 103.942 115.856C103.942 116.768 104.206 117.512 104.734 118.088C105.262 118.664 106.246 119.24 107.686 119.816C109.126 120.344 111.262 120.896 114.094 121.472C118.702 122.48 122.326 123.704 124.966 125.144C127.606 126.536 129.478 128.168 130.582 130.04C131.686 131.912 132.238 134.12 132.238 136.664C132.238 139.832 131.35 142.64 129.574 145.088C127.798 147.488 125.302 149.36 122.086 150.704C118.918 152 115.222 152.648 110.998 152.648ZM156.1 152.36C154.084 152.36 152.452 151.784 151.204 150.632C150.004 149.432 149.404 147.848 149.404 145.88V111.968H139.252C137.14 111.968 135.556 111.536 134.5 110.672C133.492 109.76 132.988 108.392 132.988 106.568C132.988 104.744 133.492 103.4 134.5 102.536C135.556 101.672 137.14 101.24 139.252 101.24H172.948C175.06 101.24 176.62 101.672 177.628 102.536C178.684 103.4 179.212 104.744 179.212 106.568C179.212 108.392 178.684 109.76 177.628 110.672C176.62 111.536 175.06 111.968 172.948 111.968H162.796V145.88C162.796 147.848 162.172 149.432 160.924 150.632C159.724 151.784 158.116 152.36 156.1 152.36Z" fill="#FF7D5F"/>
</svg>
