<svg width="375" height="327" viewBox="0 0 375 327" fill="none" xmlns="http://www.w3.org/2000/svg">
<path d="M22.5139 1.6378C23.2842 3.22945 25.296 3.7706 26.7603 2.77741C28.7722 1.41496 31.4652 2.96842 31.2933 5.39409C31.1659 7.164 32.6367 8.62831 34.4002 8.50098C36.8195 8.32272 38.3793 11.0221 37.0168 13.034C36.0236 14.4983 36.5584 16.5102 38.1565 17.2805C40.3402 18.3374 40.3402 21.4506 38.1565 22.5138C36.5648 23.2842 36.0236 25.296 37.0168 26.7603C38.3793 28.7722 36.8259 31.4652 34.4002 31.2933C32.6303 31.166 31.1659 32.6367 31.2933 34.4002C31.4715 36.8195 28.7722 38.3794 26.7603 37.0169C25.296 36.0237 23.2842 36.5585 22.5139 38.1565C21.457 40.3403 18.3436 40.3403 17.2804 38.1565C16.51 36.5649 14.4982 36.0237 13.0339 37.0169C11.0221 38.3794 8.3291 36.8259 8.501 34.4002C8.62833 32.6303 7.15757 31.166 5.39403 31.2933C2.97473 31.4716 1.415 28.7722 2.77745 26.7603C3.77064 25.296 3.23582 23.2842 1.6378 22.5138C-0.545935 21.457 -0.545935 18.3437 1.6378 17.2805C3.22945 16.5102 3.77064 14.4983 2.77745 13.034C1.415 11.0221 2.96836 8.32908 5.39403 8.50098C7.16394 8.62831 8.62833 7.15763 8.501 5.39409C8.32274 2.97478 11.0221 1.41496 13.0339 2.77741C14.4982 3.7706 16.51 3.23582 17.2804 1.6378C18.3372 -0.545935 21.457 -0.545935 22.5139 1.6378Z" fill="#28BEC8"/>
<path d="M68.9516 10.7672C69.34 11.563 70.3395 11.8304 71.078 11.3338C72.0839 10.6526 73.4337 11.4293 73.3445 12.639C73.2809 13.5239 74.013 14.2561 74.8979 14.1924C76.1076 14.1033 76.8843 15.453 76.2031 16.4589C75.7065 17.1911 75.974 18.197 76.7698 18.5854C77.8649 19.1138 77.8649 20.6736 76.7698 21.202C75.974 21.5904 75.7065 22.59 76.2031 23.3285C76.8843 24.3344 76.1076 25.6841 74.8979 25.595C74.013 25.5313 73.2809 26.2635 73.3445 27.1484C73.4337 28.3581 72.0839 29.1348 71.078 28.4536C70.3458 27.957 69.34 28.2244 68.9516 29.0202C68.4232 30.1152 66.8633 30.1152 66.3349 29.0202C65.9465 28.2244 64.9471 27.957 64.2086 28.4536C63.2026 29.1348 61.8529 28.3581 61.942 27.1484C62.0057 26.2635 61.2736 25.5313 60.3886 25.595C59.179 25.6841 58.4022 24.3344 59.0834 23.3285C59.58 22.5963 59.3125 21.5904 58.5167 21.202C57.4217 20.6736 57.4217 19.1138 58.5167 18.5854C59.3125 18.197 59.58 17.1975 59.0834 16.4589C58.4022 15.453 59.179 14.1033 60.3886 14.1924C61.2736 14.2561 62.0057 13.5239 61.942 12.639C61.8529 11.4293 63.2026 10.6526 64.2086 11.3338C64.9407 11.8304 65.9465 11.563 66.3349 10.7672C66.8697 9.67851 68.4232 9.67851 68.9516 10.7672Z" fill="#28BEC8"/>
<path d="M118.013 1.6378C118.783 3.22945 120.795 3.7706 122.259 2.77741C124.271 1.41496 126.964 2.96842 126.792 5.39409C126.665 7.164 128.135 8.62831 129.899 8.50098C132.318 8.32272 133.878 11.0221 132.516 13.034C131.522 14.4983 132.057 16.5102 133.655 17.2805C135.839 18.3374 135.839 21.4506 133.655 22.5138C132.064 23.2842 131.522 25.296 132.516 26.7603C133.878 28.7722 132.325 31.4652 129.899 31.2933C128.129 31.166 126.665 32.6367 126.792 34.4002C126.97 36.8195 124.271 38.3794 122.259 37.0169C120.795 36.0237 118.783 36.5585 118.013 38.1565C116.956 40.3403 113.842 40.3403 112.779 38.1565C112.009 36.5649 109.997 36.0237 108.533 37.0169C106.521 38.3794 103.828 36.8259 104 34.4002C104.127 32.6303 102.656 31.166 100.893 31.2933C98.4735 31.4716 96.9138 28.7722 98.2762 26.7603C99.2694 25.296 98.7346 23.2842 97.1366 22.5138C94.9528 21.457 94.9528 18.3437 97.1366 17.2805C98.7282 16.5102 99.2694 14.4983 98.2762 13.034C96.9138 11.0221 98.4671 8.32908 100.893 8.50098C102.663 8.62831 104.127 7.15763 104 5.39409C103.822 2.97478 106.521 1.41496 108.533 2.77741C109.997 3.7706 112.009 3.23582 112.779 1.6378C113.836 -0.545935 116.956 -0.545935 118.013 1.6378Z" fill="#28BEC8"/>
<path d="M164.45 10.7672C164.839 11.563 165.838 11.8304 166.577 11.3338C167.583 10.6526 168.932 11.4293 168.843 12.639C168.78 13.5239 169.512 14.2561 170.397 14.1924C171.606 14.1033 172.383 15.453 171.702 16.4589C171.205 17.1911 171.473 18.197 172.269 18.5854C173.364 19.1138 173.364 20.6736 172.269 21.202C171.473 21.5904 171.205 22.59 171.702 23.3285C172.383 24.3344 171.606 25.6841 170.397 25.595C169.512 25.5313 168.78 26.2635 168.843 27.1484C168.932 28.3581 167.583 29.1348 166.577 28.4536C165.845 27.957 164.839 28.2244 164.45 29.0202C163.922 30.1152 162.362 30.1152 161.834 29.0202C161.445 28.2244 160.446 27.957 159.707 28.4536C158.701 29.1348 157.352 28.3581 157.441 27.1484C157.504 26.2635 156.772 25.5313 155.887 25.595C154.678 25.6841 153.901 24.3344 154.582 23.3285C155.079 22.5963 154.811 21.5904 154.016 21.202C152.92 20.6736 152.92 19.1138 154.016 18.5854C154.811 18.197 155.079 17.1975 154.582 16.4589C153.901 15.453 154.678 14.1033 155.887 14.1924C156.772 14.2561 157.504 13.5239 157.441 12.639C157.352 11.4293 158.701 10.6526 159.707 11.3338C160.44 11.8304 161.445 11.563 161.834 10.7672C162.368 9.67851 163.922 9.67851 164.45 10.7672Z" fill="#28BEC8"/>
<path d="M21.2023 58.5167C21.5906 59.3125 22.5901 59.5799 23.3286 59.0833C24.3345 58.4021 25.6843 59.1788 25.5951 60.3885C25.5315 61.2734 26.2636 62.0056 27.1485 61.9419C28.3582 61.8528 29.135 63.2025 28.4537 64.2084C27.9571 64.9406 28.2246 65.9465 29.0204 66.3349C30.1155 66.8633 30.1155 68.4231 29.0204 68.9515C28.2246 69.3399 27.9571 70.3395 28.4537 71.078C29.135 72.0839 28.3582 73.4336 27.1485 73.3445C26.2636 73.2808 25.5315 74.013 25.5951 74.8979C25.6843 76.1076 24.3345 76.8843 23.3286 76.2031C22.5964 75.7065 21.5906 75.9739 21.2023 76.7697C20.6738 77.8648 19.1139 77.8648 18.5855 76.7697C18.1972 75.9739 17.1977 75.7065 16.4592 76.2031C15.4533 76.8843 14.1035 76.1076 14.1926 74.8979C14.2563 74.013 13.5242 73.2808 12.6392 73.3445C11.4296 73.4336 10.6528 72.0839 11.334 71.078C11.8306 70.3458 11.5632 69.3399 10.7673 68.9515C9.67228 68.4231 9.67228 66.8633 10.7673 66.3349C11.5632 65.9465 11.8306 64.947 11.334 64.2084C10.6528 63.2025 11.4296 61.8528 12.6392 61.9419C13.5242 62.0056 14.2563 61.2734 14.1926 60.3885C14.1035 59.1788 15.4533 58.4021 16.4592 59.0833C17.1913 59.5799 18.1972 59.3125 18.5855 58.5167C19.1203 57.428 20.6738 57.428 21.2023 58.5167Z" fill="#28BEC8"/>
<path d="M70.2633 49.3873C71.0336 50.979 73.0454 51.5201 74.5097 50.5269C76.5216 49.1645 79.2145 50.7179 79.0426 53.1436C78.9153 54.9135 80.3861 56.3778 82.1496 56.2505C84.5689 56.0722 86.1286 58.7717 84.7662 60.7835C83.773 62.2478 84.3078 64.2597 85.9058 65.03C88.0896 66.0869 88.0896 69.2001 85.9058 70.2633C84.3142 71.0337 83.773 73.0455 84.7662 74.5099C86.1286 76.5217 84.5753 79.2148 82.1496 79.0429C80.3797 78.9155 78.9153 80.3862 79.0426 82.1498C79.2209 84.5691 76.5216 86.1289 74.5097 84.7664C73.0454 83.7732 71.0336 84.308 70.2633 85.906C69.2064 88.0898 66.093 88.0898 65.0298 85.906C64.2594 84.3144 62.2476 83.7732 60.7833 84.7664C58.7715 86.1289 56.0785 84.5754 56.2504 82.1498C56.3777 80.3798 54.907 78.9155 53.1434 79.0429C50.7241 79.2211 49.1644 76.5217 50.5268 74.5099C51.52 73.0455 50.9852 71.0337 49.3872 70.2633C47.2035 69.2065 47.2035 66.0932 49.3872 65.03C50.9788 64.2597 51.52 62.2478 50.5268 60.7835C49.1644 58.7717 50.7177 56.0786 53.1434 56.2505C54.9133 56.3778 56.3777 54.9071 56.2504 53.1436C56.0721 50.7243 58.7715 49.1645 60.7833 50.5269C62.2476 51.5201 64.2594 50.9853 65.0298 49.3873C66.0866 47.2036 69.2064 47.2036 70.2633 49.3873Z" fill="#28BEC8"/>
<path d="M116.701 58.5167C117.089 59.3125 118.089 59.5799 118.827 59.0833C119.833 58.4021 121.183 59.1788 121.094 60.3885C121.03 61.2734 121.762 62.0056 122.647 61.9419C123.857 61.8528 124.634 63.2025 123.953 64.2084C123.456 64.9406 123.723 65.9465 124.519 66.3349C125.614 66.8633 125.614 68.4231 124.519 68.9515C123.723 69.3399 123.456 70.3395 123.953 71.078C124.634 72.0839 123.857 73.4336 122.647 73.3445C121.762 73.2808 121.03 74.013 121.094 74.8979C121.183 76.1076 119.833 76.8843 118.827 76.2031C118.095 75.7065 117.089 75.9739 116.701 76.7697C116.173 77.8648 114.613 77.8648 114.084 76.7697C113.696 75.9739 112.696 75.7065 111.958 76.2031C110.952 76.8843 109.602 76.1076 109.691 74.8979C109.755 74.013 109.023 73.2808 108.138 73.3445C106.928 73.4336 106.152 72.0839 106.833 71.078C107.329 70.3458 107.062 69.3399 106.266 68.9515C105.171 68.4231 105.171 66.8633 106.266 66.3349C107.062 65.9465 107.329 64.947 106.833 64.2084C106.152 63.2025 106.928 61.8528 108.138 61.9419C109.023 62.0056 109.755 61.2734 109.691 60.3885C109.602 59.1788 110.952 58.4021 111.958 59.0833C112.69 59.5799 113.696 59.3125 114.084 58.5167C114.619 57.428 116.173 57.428 116.701 58.5167Z" fill="#28BEC8"/>
<path d="M165.762 49.3873C166.532 50.979 168.544 51.5201 170.008 50.5269C172.02 49.1645 174.713 50.7179 174.541 53.1436C174.414 54.9135 175.885 56.3778 177.648 56.2505C180.068 56.0722 181.627 58.7717 180.265 60.7835C179.272 62.2478 179.807 64.2597 181.405 65.03C183.588 66.0869 183.588 69.2001 181.405 70.2633C179.813 71.0337 179.272 73.0455 180.265 74.5099C181.627 76.5217 180.074 79.2148 177.648 79.0429C175.878 78.9155 174.414 80.3862 174.541 82.1498C174.72 84.5691 172.02 86.1289 170.008 84.7664C168.544 83.7732 166.532 84.308 165.762 85.906C164.705 88.0898 161.592 88.0898 160.529 85.906C159.758 84.3144 157.746 83.7732 156.282 84.7664C154.27 86.1289 151.577 84.5754 151.749 82.1498C151.877 80.3798 150.406 78.9155 148.642 79.0429C146.223 79.2211 144.663 76.5217 146.026 74.5099C147.019 73.0455 146.484 71.0337 144.886 70.2633C142.702 69.2065 142.702 66.0932 144.886 65.03C146.478 64.2597 147.019 62.2478 146.026 60.7835C144.663 58.7717 146.217 56.0786 148.642 56.2505C150.412 56.3778 151.877 54.9071 151.749 53.1436C151.571 50.7243 154.27 49.1645 156.282 50.5269C157.746 51.5201 159.758 50.9853 160.529 49.3873C161.585 47.2036 164.705 47.2036 165.762 49.3873Z" fill="#28BEC8"/>
<path d="M22.5139 97.1368C23.2842 98.7285 25.296 99.2696 26.7603 98.2764C28.7722 96.914 31.4652 98.4674 31.2933 100.893C31.1659 102.663 32.6367 104.127 34.4002 104C36.8195 103.822 38.3793 106.521 37.0168 108.533C36.0236 109.997 36.5584 112.009 38.1565 112.78C40.3402 113.836 40.3402 116.95 38.1565 118.013C36.5648 118.783 36.0236 120.795 37.0168 122.259C38.3793 124.271 36.8259 126.964 34.4002 126.792C32.6303 126.665 31.1659 128.136 31.2933 129.899C31.4715 132.319 28.7722 133.878 26.7603 132.516C25.296 131.523 23.2842 132.058 22.5139 133.656C21.457 135.839 18.3436 135.839 17.2804 133.656C16.51 132.064 14.4982 131.523 13.0339 132.516C11.0221 133.878 8.3291 132.325 8.501 129.899C8.62833 128.129 7.15757 126.665 5.39403 126.792C2.97473 126.971 1.415 124.271 2.77745 122.259C3.77064 120.795 3.23582 118.783 1.6378 118.013C-0.545935 116.956 -0.545935 113.843 1.6378 112.78C3.22945 112.009 3.77064 109.997 2.77745 108.533C1.415 106.521 2.96836 103.828 5.39403 104C7.16394 104.127 8.62833 102.657 8.501 100.893C8.32274 98.4738 11.0221 96.914 13.0339 98.2764C14.4982 99.2696 16.51 98.7348 17.2804 97.1368C18.3372 94.9531 21.457 94.9531 22.5139 97.1368Z" fill="#28BEC8"/>
<path d="M68.9516 106.266C69.34 107.062 70.3395 107.329 71.078 106.833C72.0839 106.152 73.4337 106.928 73.3445 108.138C73.2809 109.023 74.013 109.755 74.8979 109.691C76.1076 109.602 76.8843 110.952 76.2031 111.958C75.7065 112.69 75.974 113.696 76.7698 114.084C77.8649 114.613 77.8649 116.173 76.7698 116.701C75.974 117.089 75.7065 118.089 76.2031 118.828C76.8843 119.833 76.1076 121.183 74.8979 121.094C74.013 121.03 73.2809 121.762 73.3445 122.647C73.4337 123.857 72.0839 124.634 71.078 123.953C70.3458 123.456 69.34 123.723 68.9516 124.519C68.4232 125.614 66.8633 125.614 66.3349 124.519C65.9465 123.723 64.9471 123.456 64.2086 123.953C63.2026 124.634 61.8529 123.857 61.942 122.647C62.0057 121.762 61.2736 121.03 60.3886 121.094C59.179 121.183 58.4022 119.833 59.0834 118.828C59.58 118.095 59.3125 117.089 58.5167 116.701C57.4217 116.173 57.4217 114.613 58.5167 114.084C59.3125 113.696 59.58 112.696 59.0834 111.958C58.4022 110.952 59.179 109.602 60.3886 109.691C61.2736 109.755 62.0057 109.023 61.942 108.138C61.8529 106.928 63.2026 106.152 64.2086 106.833C64.9407 107.329 65.9465 107.062 66.3349 106.266C66.8697 105.178 68.4232 105.178 68.9516 106.266Z" fill="#28BEC8"/>
<path d="M118.013 97.1368C118.783 98.7285 120.795 99.2696 122.259 98.2764C124.271 96.914 126.964 98.4674 126.792 100.893C126.665 102.663 128.135 104.127 129.899 104C132.318 103.822 133.878 106.521 132.516 108.533C131.522 109.997 132.057 112.009 133.655 112.78C135.839 113.836 135.839 116.95 133.655 118.013C132.064 118.783 131.522 120.795 132.516 122.259C133.878 124.271 132.325 126.964 129.899 126.792C128.129 126.665 126.665 128.136 126.792 129.899C126.97 132.319 124.271 133.878 122.259 132.516C120.795 131.523 118.783 132.058 118.013 133.656C116.956 135.839 113.842 135.839 112.779 133.656C112.009 132.064 109.997 131.523 108.533 132.516C106.521 133.878 103.828 132.325 104 129.899C104.127 128.129 102.656 126.665 100.893 126.792C98.4735 126.971 96.9138 124.271 98.2762 122.259C99.2694 120.795 98.7346 118.783 97.1366 118.013C94.9528 116.956 94.9528 113.843 97.1366 112.78C98.7282 112.009 99.2694 109.997 98.2762 108.533C96.9138 106.521 98.4671 103.828 100.893 104C102.663 104.127 104.127 102.657 104 100.893C103.822 98.4738 106.521 96.914 108.533 98.2764C109.997 99.2696 112.009 98.7348 112.779 97.1368C113.836 94.9531 116.956 94.9531 118.013 97.1368Z" fill="#28BEC8"/>
<path d="M164.45 106.266C164.839 107.062 165.838 107.329 166.577 106.833C167.583 106.152 168.932 106.928 168.843 108.138C168.78 109.023 169.512 109.755 170.397 109.691C171.606 109.602 172.383 110.952 171.702 111.958C171.205 112.69 171.473 113.696 172.269 114.084C173.364 114.613 173.364 116.173 172.269 116.701C171.473 117.089 171.205 118.089 171.702 118.828C172.383 119.833 171.606 121.183 170.397 121.094C169.512 121.03 168.78 121.762 168.843 122.647C168.932 123.857 167.583 124.634 166.577 123.953C165.845 123.456 164.839 123.723 164.45 124.519C163.922 125.614 162.362 125.614 161.834 124.519C161.445 123.723 160.446 123.456 159.707 123.953C158.701 124.634 157.352 123.857 157.441 122.647C157.504 121.762 156.772 121.03 155.887 121.094C154.678 121.183 153.901 119.833 154.582 118.828C155.079 118.095 154.811 117.089 154.016 116.701C152.92 116.173 152.92 114.613 154.016 114.084C154.811 113.696 155.079 112.696 154.582 111.958C153.901 110.952 154.678 109.602 155.887 109.691C156.772 109.755 157.504 109.023 157.441 108.138C157.352 106.928 158.701 106.152 159.707 106.833C160.44 107.329 161.445 107.062 161.834 106.266C162.368 105.178 163.922 105.178 164.45 106.266Z" fill="#28BEC8"/>
<path d="M21.2023 154.016C21.5906 154.812 22.5901 155.079 23.3286 154.583C24.3345 153.902 25.6843 154.678 25.5951 155.888C25.5315 156.773 26.2636 157.505 27.1485 157.441C28.3582 157.352 29.135 158.702 28.4537 159.708C27.9571 160.44 28.2246 161.446 29.0204 161.834C30.1155 162.363 30.1155 163.923 29.0204 164.451C28.2246 164.839 27.9571 165.839 28.4537 166.578C29.135 167.583 28.3582 168.933 27.1485 168.844C26.2636 168.78 25.5315 169.513 25.5951 170.397C25.6843 171.607 24.3345 172.384 23.3286 171.703C22.5964 171.206 21.5906 171.473 21.2023 172.269C20.6738 173.364 19.1139 173.364 18.5855 172.269C18.1972 171.473 17.1977 171.206 16.4592 171.703C15.4533 172.384 14.1035 171.607 14.1926 170.397C14.2563 169.513 13.5242 168.78 12.6392 168.844C11.4296 168.933 10.6528 167.583 11.334 166.578C11.8306 165.845 11.5632 164.839 10.7673 164.451C9.67228 163.923 9.67228 162.363 10.7673 161.834C11.5632 161.446 11.8306 160.446 11.334 159.708C10.6528 158.702 11.4296 157.352 12.6392 157.441C13.5242 157.505 14.2563 156.773 14.1926 155.888C14.1035 154.678 15.4533 153.902 16.4592 154.583C17.1913 155.079 18.1972 154.812 18.5855 154.016C19.1203 152.928 20.6738 152.928 21.2023 154.016Z" fill="#28BEC8"/>
<path d="M70.2633 144.886C71.0336 146.477 73.0454 147.019 74.5097 146.025C76.5216 144.663 79.2145 146.216 79.0426 148.642C78.9153 150.412 80.3861 151.876 82.1496 151.749C84.5689 151.571 86.1286 154.27 84.7662 156.282C83.773 157.746 84.3078 159.758 85.9058 160.529C88.0896 161.585 88.0896 164.699 85.9058 165.762C84.3142 166.532 83.773 168.544 84.7662 170.008C86.1286 172.02 84.5753 174.713 82.1496 174.541C80.3797 174.414 78.9153 175.885 79.0426 177.648C79.2209 180.068 76.5216 181.627 74.5097 180.265C73.0454 179.272 71.0336 179.807 70.2633 181.405C69.2064 183.588 66.093 183.588 65.0298 181.405C64.2594 179.813 62.2476 179.272 60.7833 180.265C58.7715 181.627 56.0785 180.074 56.2504 177.648C56.3777 175.878 54.907 174.414 53.1434 174.541C50.7241 174.72 49.1644 172.02 50.5268 170.008C51.52 168.544 50.9852 166.532 49.3872 165.762C47.2035 164.705 47.2035 161.592 49.3872 160.529C50.9788 159.758 51.52 157.746 50.5268 156.282C49.1644 154.27 50.7177 151.577 53.1434 151.749C54.9133 151.876 56.3777 150.406 56.2504 148.642C56.0721 146.223 58.7715 144.663 60.7833 146.025C62.2476 147.019 64.2594 146.484 65.0298 144.886C66.0866 142.702 69.2064 142.702 70.2633 144.886Z" fill="#28BEC8"/>
<path d="M116.701 154.016C117.089 154.812 118.089 155.079 118.827 154.583C119.833 153.902 121.183 154.678 121.094 155.888C121.03 156.773 121.762 157.505 122.647 157.441C123.857 157.352 124.634 158.702 123.953 159.708C123.456 160.44 123.723 161.446 124.519 161.834C125.614 162.363 125.614 163.923 124.519 164.451C123.723 164.839 123.456 165.839 123.953 166.578C124.634 167.583 123.857 168.933 122.647 168.844C121.762 168.78 121.03 169.513 121.094 170.397C121.183 171.607 119.833 172.384 118.827 171.703C118.095 171.206 117.089 171.473 116.701 172.269C116.173 173.364 114.613 173.364 114.084 172.269C113.696 171.473 112.696 171.206 111.958 171.703C110.952 172.384 109.602 171.607 109.691 170.397C109.755 169.513 109.023 168.78 108.138 168.844C106.928 168.933 106.152 167.583 106.833 166.578C107.329 165.845 107.062 164.839 106.266 164.451C105.171 163.923 105.171 162.363 106.266 161.834C107.062 161.446 107.329 160.446 106.833 159.708C106.152 158.702 106.928 157.352 108.138 157.441C109.023 157.505 109.755 156.773 109.691 155.888C109.602 154.678 110.952 153.902 111.958 154.583C112.69 155.079 113.696 154.812 114.084 154.016C114.619 152.928 116.173 152.928 116.701 154.016Z" fill="#28BEC8"/>
<path d="M165.762 144.886C166.532 146.477 168.544 147.019 170.008 146.025C172.02 144.663 174.713 146.216 174.541 148.642C174.414 150.412 175.885 151.876 177.648 151.749C180.068 151.571 181.627 154.27 180.265 156.282C179.272 157.746 179.807 159.758 181.405 160.529C183.588 161.585 183.588 164.699 181.405 165.762C179.813 166.532 179.272 168.544 180.265 170.008C181.627 172.02 180.074 174.713 177.648 174.541C175.878 174.414 174.414 175.885 174.541 177.648C174.72 180.068 172.02 181.627 170.008 180.265C168.544 179.272 166.532 179.807 165.762 181.405C164.705 183.588 161.592 183.588 160.529 181.405C159.758 179.813 157.746 179.272 156.282 180.265C154.27 181.627 151.577 180.074 151.749 177.648C151.877 175.878 150.406 174.414 148.642 174.541C146.223 174.72 144.663 172.02 146.026 170.008C147.019 168.544 146.484 166.532 144.886 165.762C142.702 164.705 142.702 161.592 144.886 160.529C146.478 159.758 147.019 157.746 146.026 156.282C144.663 154.27 146.217 151.577 148.642 151.749C150.412 151.876 151.877 150.406 151.749 148.642C151.571 146.223 154.27 144.663 156.282 146.025C157.746 147.019 159.758 146.484 160.529 144.886C161.585 142.702 164.705 142.702 165.762 144.886Z" fill="#28BEC8"/>
<path d="M22.5139 192.635C23.2842 194.227 25.296 194.768 26.7603 193.775C28.7722 192.413 31.4652 193.966 31.2933 196.392C31.1659 198.162 32.6367 199.626 34.4002 199.499C36.8195 199.32 38.3793 202.02 37.0168 204.032C36.0236 205.496 36.5584 207.508 38.1565 208.278C40.3402 209.335 40.3402 212.448 38.1565 213.511C36.5648 214.282 36.0236 216.294 37.0168 217.758C38.3793 219.77 36.8259 222.463 34.4002 222.291C32.6303 222.164 31.1659 223.634 31.2933 225.398C31.4715 227.817 28.7722 229.377 26.7603 228.014C25.296 227.021 23.2842 227.556 22.5139 229.154C21.457 231.338 18.3436 231.338 17.2804 229.154C16.51 227.562 14.4982 227.021 13.0339 228.014C11.0221 229.377 8.3291 227.823 8.501 225.398C8.62833 223.628 7.15757 222.164 5.39403 222.291C2.97473 222.469 1.415 219.77 2.77745 217.758C3.77064 216.294 3.23582 214.282 1.6378 213.511C-0.545935 212.455 -0.545935 209.341 1.6378 208.278C3.22945 207.508 3.77064 205.496 2.77745 204.032C1.415 202.02 2.96836 199.327 5.39403 199.499C7.16394 199.626 8.62833 198.155 8.501 196.392C8.32274 193.972 11.0221 192.413 13.0339 193.775C14.4982 194.768 16.51 194.233 17.2804 192.635C18.3372 190.452 21.457 190.452 22.5139 192.635Z" fill="#28BEC8"/>
<path d="M68.9516 201.765C69.34 202.561 70.3395 202.828 71.078 202.331C72.0839 201.65 73.4337 202.427 73.3445 203.637C73.2809 204.521 74.013 205.254 74.8979 205.19C76.1076 205.101 76.8843 206.451 76.2031 207.456C75.7065 208.189 75.974 209.195 76.7698 209.583C77.8649 210.111 77.8649 211.671 76.7698 212.2C75.974 212.588 75.7065 213.588 76.2031 214.326C76.8843 215.332 76.1076 216.682 74.8979 216.593C74.013 216.529 73.2809 217.261 73.3445 218.146C73.4337 219.356 72.0839 220.132 71.078 219.451C70.3458 218.955 69.34 219.222 68.9516 220.018C68.4232 221.113 66.8633 221.113 66.3349 220.018C65.9465 219.222 64.9471 218.955 64.2086 219.451C63.2026 220.132 61.8529 219.356 61.942 218.146C62.0057 217.261 61.2736 216.529 60.3886 216.593C59.179 216.682 58.4022 215.332 59.0834 214.326C59.58 213.594 59.3125 212.588 58.5167 212.2C57.4217 211.671 57.4217 210.111 58.5167 209.583C59.3125 209.195 59.58 208.195 59.0834 207.456C58.4022 206.451 59.179 205.101 60.3886 205.19C61.2736 205.254 62.0057 204.521 61.942 203.637C61.8529 202.427 63.2026 201.65 64.2086 202.331C64.9407 202.828 65.9465 202.561 66.3349 201.765C66.8697 200.676 68.4232 200.676 68.9516 201.765Z" fill="#28BEC8"/>
<path d="M118.013 192.635C118.783 194.227 120.795 194.768 122.259 193.775C124.271 192.413 126.964 193.966 126.792 196.392C126.665 198.162 128.135 199.626 129.899 199.499C132.318 199.32 133.878 202.02 132.516 204.032C131.522 205.496 132.057 207.508 133.655 208.278C135.839 209.335 135.839 212.448 133.655 213.511C132.064 214.282 131.522 216.294 132.516 217.758C133.878 219.77 132.325 222.463 129.899 222.291C128.129 222.164 126.665 223.634 126.792 225.398C126.97 227.817 124.271 229.377 122.259 228.014C120.795 227.021 118.783 227.556 118.013 229.154C116.956 231.338 113.842 231.338 112.779 229.154C112.009 227.562 109.997 227.021 108.533 228.014C106.521 229.377 103.828 227.823 104 225.398C104.127 223.628 102.656 222.164 100.893 222.291C98.4735 222.469 96.9138 219.77 98.2762 217.758C99.2694 216.294 98.7346 214.282 97.1366 213.511C94.9528 212.455 94.9528 209.341 97.1366 208.278C98.7282 207.508 99.2694 205.496 98.2762 204.032C96.9138 202.02 98.4671 199.327 100.893 199.499C102.663 199.626 104.127 198.155 104 196.392C103.822 193.972 106.521 192.413 108.533 193.775C109.997 194.768 112.009 194.233 112.779 192.635C113.836 190.452 116.956 190.452 118.013 192.635Z" fill="#28BEC8"/>
<path d="M164.45 201.765C164.839 202.561 165.838 202.828 166.577 202.331C167.583 201.65 168.932 202.427 168.843 203.637C168.78 204.521 169.512 205.254 170.397 205.19C171.606 205.101 172.383 206.451 171.702 207.456C171.205 208.189 171.473 209.195 172.269 209.583C173.364 210.111 173.364 211.671 172.269 212.2C171.473 212.588 171.205 213.588 171.702 214.326C172.383 215.332 171.606 216.682 170.397 216.593C169.512 216.529 168.78 217.261 168.843 218.146C168.932 219.356 167.583 220.132 166.577 219.451C165.845 218.955 164.839 219.222 164.45 220.018C163.922 221.113 162.362 221.113 161.834 220.018C161.445 219.222 160.446 218.955 159.707 219.451C158.701 220.132 157.352 219.356 157.441 218.146C157.504 217.261 156.772 216.529 155.887 216.593C154.678 216.682 153.901 215.332 154.582 214.326C155.079 213.594 154.811 212.588 154.016 212.2C152.92 211.671 152.92 210.111 154.016 209.583C154.811 209.195 155.079 208.195 154.582 207.456C153.901 206.451 154.678 205.101 155.887 205.19C156.772 205.254 157.504 204.521 157.441 203.637C157.352 202.427 158.701 201.65 159.707 202.331C160.44 202.828 161.445 202.561 161.834 201.765C162.368 200.676 163.922 200.676 164.45 201.765Z" fill="#28BEC8"/>
<path d="M21.2023 249.514C21.5906 250.31 22.5901 250.577 23.3286 250.081C24.3345 249.4 25.6843 250.176 25.5951 251.386C25.5315 252.271 26.2636 253.003 27.1485 252.939C28.3582 252.85 29.135 254.2 28.4537 255.206C27.9571 255.938 28.2246 256.944 29.0204 257.332C30.1155 257.861 30.1155 259.421 29.0204 259.949C28.2246 260.337 27.9571 261.337 28.4537 262.076C29.135 263.081 28.3582 264.431 27.1485 264.342C26.2636 264.278 25.5315 265.011 25.5951 265.895C25.6843 267.105 24.3345 267.882 23.3286 267.201C22.5964 266.704 21.5906 266.971 21.2023 267.767C20.6738 268.862 19.1139 268.862 18.5855 267.767C18.1972 266.971 17.1977 266.704 16.4592 267.201C15.4533 267.882 14.1035 267.105 14.1926 265.895C14.2563 265.011 13.5242 264.278 12.6392 264.342C11.4296 264.431 10.6528 263.081 11.334 262.076C11.8306 261.343 11.5632 260.337 10.7673 259.949C9.67228 259.421 9.67228 257.861 10.7673 257.332C11.5632 256.944 11.8306 255.945 11.334 255.206C10.6528 254.2 11.4296 252.85 12.6392 252.939C13.5242 253.003 14.2563 252.271 14.1926 251.386C14.1035 250.176 15.4533 249.4 16.4592 250.081C17.1913 250.577 18.1972 250.31 18.5855 249.514C19.1203 248.426 20.6738 248.426 21.2023 249.514Z" fill="#28BEC8"/>
<path d="M70.2633 240.385C71.0336 241.977 73.0454 242.518 74.5097 241.524C76.5216 240.162 79.2145 241.715 79.0426 244.141C78.9153 245.911 80.3861 247.375 82.1496 247.248C84.5689 247.07 86.1286 249.769 84.7662 251.781C83.773 253.245 84.3078 255.257 85.9058 256.028C88.0896 257.084 88.0896 260.198 85.9058 261.261C84.3142 262.031 83.773 264.043 84.7662 265.507C86.1286 267.519 84.5753 270.212 82.1496 270.04C80.3797 269.913 78.9153 271.384 79.0426 273.147C79.2209 275.567 76.5216 277.126 74.5097 275.764C73.0454 274.771 71.0336 275.306 70.2633 276.904C69.2064 279.087 66.093 279.087 65.0298 276.904C64.2594 275.312 62.2476 274.771 60.7833 275.764C58.7715 277.126 56.0785 275.573 56.2504 273.147C56.3777 271.377 54.907 269.913 53.1434 270.04C50.7241 270.219 49.1644 267.519 50.5268 265.507C51.52 264.043 50.9852 262.031 49.3872 261.261C47.2035 260.204 47.2035 257.091 49.3872 256.028C50.9788 255.257 51.52 253.245 50.5268 251.781C49.1644 249.769 50.7177 247.076 53.1434 247.248C54.9133 247.375 56.3777 245.905 56.2504 244.141C56.0721 241.722 58.7715 240.162 60.7833 241.524C62.2476 242.518 64.2594 241.983 65.0298 240.385C66.0866 238.201 69.2064 238.201 70.2633 240.385Z" fill="#28BEC8"/>
<path d="M116.701 249.514C117.089 250.31 118.089 250.577 118.827 250.081C119.833 249.4 121.183 250.176 121.094 251.386C121.03 252.271 121.762 253.003 122.647 252.939C123.857 252.85 124.634 254.2 123.953 255.206C123.456 255.938 123.723 256.944 124.519 257.332C125.614 257.861 125.614 259.421 124.519 259.949C123.723 260.337 123.456 261.337 123.953 262.076C124.634 263.081 123.857 264.431 122.647 264.342C121.762 264.278 121.03 265.011 121.094 265.895C121.183 267.105 119.833 267.882 118.827 267.201C118.095 266.704 117.089 266.971 116.701 267.767C116.173 268.862 114.613 268.862 114.084 267.767C113.696 266.971 112.696 266.704 111.958 267.201C110.952 267.882 109.602 267.105 109.691 265.895C109.755 265.011 109.023 264.278 108.138 264.342C106.928 264.431 106.152 263.081 106.833 262.076C107.329 261.343 107.062 260.337 106.266 259.949C105.171 259.421 105.171 257.861 106.266 257.332C107.062 256.944 107.329 255.945 106.833 255.206C106.152 254.2 106.928 252.85 108.138 252.939C109.023 253.003 109.755 252.271 109.691 251.386C109.602 250.176 110.952 249.4 111.958 250.081C112.69 250.577 113.696 250.31 114.084 249.514C114.619 248.426 116.173 248.426 116.701 249.514Z" fill="#28BEC8"/>
<path d="M165.762 240.385C166.532 241.977 168.544 242.518 170.008 241.524C172.02 240.162 174.713 241.715 174.541 244.141C174.414 245.911 175.885 247.375 177.648 247.248C180.068 247.07 181.627 249.769 180.265 251.781C179.272 253.245 179.807 255.257 181.405 256.028C183.588 257.084 183.588 260.198 181.405 261.261C179.813 262.031 179.272 264.043 180.265 265.507C181.627 267.519 180.074 270.212 177.648 270.04C175.878 269.913 174.414 271.384 174.541 273.147C174.72 275.567 172.02 277.126 170.008 275.764C168.544 274.771 166.532 275.306 165.762 276.904C164.705 279.087 161.592 279.087 160.529 276.904C159.758 275.312 157.746 274.771 156.282 275.764C154.27 277.126 151.577 275.573 151.749 273.147C151.877 271.377 150.406 269.913 148.642 270.04C146.223 270.219 144.663 267.519 146.026 265.507C147.019 264.043 146.484 262.031 144.886 261.261C142.702 260.204 142.702 257.091 144.886 256.028C146.478 255.257 147.019 253.245 146.026 251.781C144.663 249.769 146.217 247.076 148.642 247.248C150.412 247.375 151.877 245.905 151.749 244.141C151.571 241.722 154.27 240.162 156.282 241.524C157.746 242.518 159.758 241.983 160.529 240.385C161.585 238.201 164.705 238.201 165.762 240.385Z" fill="#28BEC8"/>
<path d="M22.5139 288.134C23.2842 289.726 25.296 290.267 26.7603 289.274C28.7722 287.911 31.4652 289.465 31.2933 291.89C31.1659 293.66 32.6367 295.124 34.4002 294.997C36.8195 294.819 38.3793 297.518 37.0168 299.53C36.0236 300.994 36.5584 303.006 38.1565 303.777C40.3402 304.833 40.3402 307.947 38.1565 309.01C36.5648 309.78 36.0236 311.792 37.0168 313.256C38.3793 315.268 36.8259 317.961 34.4002 317.789C32.6303 317.662 31.1659 319.133 31.2933 320.896C31.4715 323.316 28.7722 324.875 26.7603 323.513C25.296 322.52 23.2842 323.055 22.5139 324.653C21.457 326.836 18.3436 326.836 17.2804 324.653C16.51 323.061 14.4982 322.52 13.0339 323.513C11.0221 324.875 8.3291 323.322 8.501 320.896C8.62833 319.126 7.15757 317.662 5.39403 317.789C2.97473 317.968 1.415 315.268 2.77745 313.256C3.77064 311.792 3.23582 309.78 1.6378 309.01C-0.545935 307.953 -0.545935 304.84 1.6378 303.777C3.22945 303.006 3.77064 300.994 2.77745 299.53C1.415 297.518 2.96836 294.825 5.39403 294.997C7.16394 295.124 8.62833 293.654 8.501 291.89C8.32274 289.471 11.0221 287.911 13.0339 289.274C14.4982 290.267 16.51 289.732 17.2804 288.134C18.3372 285.95 21.457 285.95 22.5139 288.134Z" fill="#28BEC8"/>
<path d="M68.9516 297.264C69.34 298.06 70.3395 298.327 71.078 297.83C72.0839 297.149 73.4337 297.926 73.3445 299.136C73.2809 300.021 74.013 300.753 74.8979 300.689C76.1076 300.6 76.8843 301.95 76.2031 302.956C75.7065 303.688 75.974 304.694 76.7698 305.082C77.8649 305.61 77.8649 307.17 76.7698 307.699C75.974 308.087 75.7065 309.087 76.2031 309.825C76.8843 310.831 76.1076 312.181 74.8979 312.092C74.013 312.028 73.2809 312.76 73.3445 313.645C73.4337 314.855 72.0839 315.631 71.078 314.95C70.3458 314.454 69.34 314.721 68.9516 315.517C68.4232 316.612 66.8633 316.612 66.3349 315.517C65.9465 314.721 64.9471 314.454 64.2086 314.95C63.2026 315.631 61.8529 314.855 61.942 313.645C62.0057 312.76 61.2736 312.028 60.3886 312.092C59.179 312.181 58.4022 310.831 59.0834 309.825C59.58 309.093 59.3125 308.087 58.5167 307.699C57.4217 307.17 57.4217 305.61 58.5167 305.082C59.3125 304.694 59.58 303.694 59.0834 302.956C58.4022 301.95 59.179 300.6 60.3886 300.689C61.2736 300.753 62.0057 300.021 61.942 299.136C61.8529 297.926 63.2026 297.149 64.2086 297.83C64.9407 298.327 65.9465 298.06 66.3349 297.264C66.8697 296.175 68.4232 296.175 68.9516 297.264Z" fill="#28BEC8"/>
<path d="M118.013 288.134C118.783 289.726 120.795 290.267 122.259 289.274C124.271 287.911 126.964 289.465 126.792 291.89C126.665 293.66 128.135 295.124 129.899 294.997C132.318 294.819 133.878 297.518 132.516 299.53C131.522 300.994 132.057 303.006 133.655 303.777C135.839 304.833 135.839 307.947 133.655 309.01C132.064 309.78 131.522 311.792 132.516 313.256C133.878 315.268 132.325 317.961 129.899 317.789C128.129 317.662 126.665 319.133 126.792 320.896C126.97 323.316 124.271 324.875 122.259 323.513C120.795 322.52 118.783 323.055 118.013 324.653C116.956 326.836 113.842 326.836 112.779 324.653C112.009 323.061 109.997 322.52 108.533 323.513C106.521 324.875 103.828 323.322 104 320.896C104.127 319.126 102.656 317.662 100.893 317.789C98.4735 317.968 96.9138 315.268 98.2762 313.256C99.2694 311.792 98.7346 309.78 97.1366 309.01C94.9528 307.953 94.9528 304.84 97.1366 303.777C98.7282 303.006 99.2694 300.994 98.2762 299.53C96.9138 297.518 98.4671 294.825 100.893 294.997C102.663 295.124 104.127 293.654 104 291.89C103.822 289.471 106.521 287.911 108.533 289.274C109.997 290.267 112.009 289.732 112.779 288.134C113.836 285.95 116.956 285.95 118.013 288.134Z" fill="#28BEC8"/>
<path d="M164.45 297.264C164.839 298.06 165.838 298.327 166.577 297.83C167.583 297.149 168.932 297.926 168.843 299.136C168.78 300.021 169.512 300.753 170.397 300.689C171.606 300.6 172.383 301.95 171.702 302.956C171.205 303.688 171.473 304.694 172.269 305.082C173.364 305.61 173.364 307.17 172.269 307.699C171.473 308.087 171.205 309.087 171.702 309.825C172.383 310.831 171.606 312.181 170.397 312.092C169.512 312.028 168.78 312.76 168.843 313.645C168.932 314.855 167.583 315.631 166.577 314.95C165.845 314.454 164.839 314.721 164.45 315.517C163.922 316.612 162.362 316.612 161.834 315.517C161.445 314.721 160.446 314.454 159.707 314.95C158.701 315.631 157.352 314.855 157.441 313.645C157.504 312.76 156.772 312.028 155.887 312.092C154.678 312.181 153.901 310.831 154.582 309.825C155.079 309.093 154.811 308.087 154.016 307.699C152.92 307.17 152.92 305.61 154.016 305.082C154.811 304.694 155.079 303.694 154.582 302.956C153.901 301.95 154.678 300.6 155.887 300.689C156.772 300.753 157.504 300.021 157.441 299.136C157.352 297.926 158.701 297.149 159.707 297.83C160.44 298.327 161.445 298.06 161.834 297.264C162.368 296.175 163.922 296.175 164.45 297.264Z" fill="#28BEC8"/>
<path d="M213.511 1.6378C214.282 3.22945 216.294 3.7706 217.758 2.77741C219.77 1.41496 222.463 2.96842 222.291 5.39409C222.163 7.164 223.634 8.62831 225.398 8.50098C227.817 8.32272 229.377 11.0221 228.014 13.034C227.021 14.4983 227.556 16.5102 229.154 17.2805C231.338 18.3374 231.338 21.4506 229.154 22.5138C227.562 23.2842 227.021 25.296 228.014 26.7603C229.377 28.7722 227.823 31.4652 225.398 31.2933C223.628 31.166 222.163 32.6367 222.291 34.4002C222.469 36.8195 219.77 38.3794 217.758 37.0169C216.294 36.0237 214.282 36.5585 213.511 38.1565C212.455 40.3403 209.341 40.3403 208.278 38.1565C207.508 36.5649 205.496 36.0237 204.031 37.0169C202.02 38.3794 199.327 36.8259 199.499 34.4002C199.626 32.6303 198.155 31.166 196.392 31.2933C193.972 31.4716 192.413 28.7722 193.775 26.7603C194.768 25.296 194.233 23.2842 192.635 22.5138C190.452 21.457 190.452 18.3437 192.635 17.2805C194.227 16.5102 194.768 14.4983 193.775 13.034C192.413 11.0221 193.966 8.32908 196.392 8.50098C198.161 8.62831 199.626 7.15763 199.499 5.39409C199.32 2.97478 202.02 1.41496 204.031 2.77741C205.496 3.7706 207.508 3.23582 208.278 1.6378C209.335 -0.545935 212.455 -0.545935 213.511 1.6378Z" fill="#28BEC8"/>
<path d="M259.949 10.7672C260.338 11.563 261.337 11.8304 262.076 11.3338C263.082 10.6526 264.431 11.4293 264.342 12.639C264.278 13.5239 265.011 14.2561 265.896 14.1924C267.105 14.1033 267.882 15.453 267.201 16.4589C266.704 17.1911 266.972 18.197 267.767 18.5854C268.863 19.1138 268.863 20.6736 267.767 21.202C266.972 21.5904 266.704 22.59 267.201 23.3285C267.882 24.3344 267.105 25.6841 265.896 25.595C265.011 25.5313 264.278 26.2635 264.342 27.1484C264.431 28.3581 263.082 29.1348 262.076 28.4536C261.343 27.957 260.338 28.2244 259.949 29.0202C259.421 30.1152 257.861 30.1152 257.333 29.0202C256.944 28.2244 255.945 27.957 255.206 28.4536C254.2 29.1348 252.851 28.3581 252.94 27.1484C253.003 26.2635 252.271 25.5313 251.386 25.595C250.177 25.6841 249.4 24.3344 250.081 23.3285C250.578 22.5963 250.31 21.5904 249.514 21.202C248.419 20.6736 248.419 19.1138 249.514 18.5854C250.31 18.197 250.578 17.1975 250.081 16.4589C249.4 15.453 250.177 14.1033 251.386 14.1924C252.271 14.2561 253.003 13.5239 252.94 12.639C252.851 11.4293 254.2 10.6526 255.206 11.3338C255.938 11.8304 256.944 11.563 257.333 10.7672C257.867 9.67851 259.421 9.67851 259.949 10.7672Z" fill="#28BEC8"/>
<path d="M309.01 1.6378C309.781 3.22945 311.792 3.7706 313.257 2.77741C315.269 1.41496 317.961 2.96842 317.79 5.39409C317.662 7.164 319.133 8.62831 320.897 8.50098C323.316 8.32272 324.876 11.0221 323.513 13.034C322.52 14.4983 323.055 16.5102 324.653 17.2805C326.837 18.3374 326.837 21.4506 324.653 22.5138C323.061 23.2842 322.52 25.296 323.513 26.7603C324.876 28.7722 323.322 31.4652 320.897 31.2933C319.127 31.166 317.662 32.6367 317.79 34.4002C317.968 36.8195 315.269 38.3794 313.257 37.0169C311.792 36.0237 309.781 36.5585 309.01 38.1565C307.953 40.3403 304.84 40.3403 303.777 38.1565C303.006 36.5649 300.995 36.0237 299.53 37.0169C297.518 38.3794 294.825 36.8259 294.997 34.4002C295.125 32.6303 293.654 31.166 291.89 31.2933C289.471 31.4716 287.911 28.7722 289.274 26.7603C290.267 25.296 289.732 23.2842 288.134 22.5138C285.95 21.457 285.95 18.3437 288.134 17.2805C289.726 16.5102 290.267 14.4983 289.274 13.034C287.911 11.0221 289.465 8.32908 291.89 8.50098C293.66 8.62831 295.125 7.15763 294.997 5.39409C294.819 2.97478 297.518 1.41496 299.53 2.77741C300.995 3.7706 303.006 3.23582 303.777 1.6378C304.834 -0.545935 307.953 -0.545935 309.01 1.6378Z" fill="#28BEC8"/>
<path d="M355.448 10.7672C355.836 11.563 356.836 11.8304 357.574 11.3338C358.58 10.6526 359.93 11.4293 359.841 12.639C359.777 13.5239 360.509 14.2561 361.394 14.1924C362.604 14.1033 363.381 15.453 362.699 16.4589C362.203 17.1911 362.47 18.197 363.266 18.5854C364.361 19.1138 364.361 20.6736 363.266 21.202C362.47 21.5904 362.203 22.59 362.699 23.3285C363.381 24.3344 362.604 25.6841 361.394 25.595C360.509 25.5313 359.777 26.2635 359.841 27.1484C359.93 28.3581 358.58 29.1348 357.574 28.4536C356.842 27.957 355.836 28.2244 355.448 29.0202C354.92 30.1152 353.36 30.1152 352.831 29.0202C352.443 28.2244 351.443 27.957 350.705 28.4536C349.699 29.1348 348.349 28.3581 348.438 27.1484C348.502 26.2635 347.77 25.5313 346.885 25.595C345.675 25.6841 344.899 24.3344 345.58 23.3285C346.076 22.5963 345.809 21.5904 345.013 21.202C343.918 20.6736 343.918 19.1138 345.013 18.5854C345.809 18.197 346.076 17.1975 345.58 16.4589C344.899 15.453 345.675 14.1033 346.885 14.1924C347.77 14.2561 348.502 13.5239 348.438 12.639C348.349 11.4293 349.699 10.6526 350.705 11.3338C351.437 11.8304 352.443 11.563 352.831 10.7672C353.366 9.67851 354.92 9.67851 355.448 10.7672Z" fill="#28BEC8"/>
<path d="M212.2 58.5167C212.588 59.3125 213.588 59.5799 214.326 59.0833C215.332 58.4021 216.682 59.1788 216.593 60.3885C216.529 61.2734 217.261 62.0056 218.146 61.9419C219.356 61.8528 220.133 63.2025 219.451 64.2084C218.955 64.9406 219.222 65.9465 220.018 66.3349C221.113 66.8633 221.113 68.4231 220.018 68.9515C219.222 69.3399 218.955 70.3395 219.451 71.078C220.133 72.0839 219.356 73.4336 218.146 73.3445C217.261 73.2808 216.529 74.013 216.593 74.8979C216.682 76.1076 215.332 76.8843 214.326 76.2031C213.594 75.7065 212.588 75.9739 212.2 76.7697C211.671 77.8648 210.112 77.8648 209.583 76.7697C209.195 75.9739 208.195 75.7065 207.457 76.2031C206.451 76.8843 205.101 76.1076 205.19 74.8979C205.254 74.013 204.522 73.2808 203.637 73.3445C202.427 73.4336 201.65 72.0839 202.332 71.078C202.828 70.3458 202.561 69.3399 201.765 68.9515C200.67 68.4231 200.67 66.8633 201.765 66.3349C202.561 65.9465 202.828 64.947 202.332 64.2084C201.65 63.2025 202.427 61.8528 203.637 61.9419C204.522 62.0056 205.254 61.2734 205.19 60.3885C205.101 59.1788 206.451 58.4021 207.457 59.0833C208.189 59.5799 209.195 59.3125 209.583 58.5167C210.118 57.428 211.671 57.428 212.2 58.5167Z" fill="#28BEC8"/>
<path d="M261.261 49.3873C262.031 50.979 264.043 51.5201 265.507 50.5269C267.519 49.1645 270.212 50.7179 270.04 53.1436C269.913 54.9135 271.384 56.3778 273.147 56.2505C275.566 56.0722 277.126 58.7717 275.764 60.7835C274.771 62.2478 275.305 64.2597 276.903 65.03C279.087 66.0869 279.087 69.2001 276.903 70.2633C275.312 71.0337 274.771 73.0455 275.764 74.5099C277.126 76.5217 275.573 79.2148 273.147 79.0429C271.377 78.9155 269.913 80.3862 270.04 82.1498C270.218 84.5691 267.519 86.1289 265.507 84.7664C264.043 83.7732 262.031 84.308 261.261 85.906C260.204 88.0898 257.091 88.0898 256.027 85.906C255.257 84.3144 253.245 83.7732 251.781 84.7664C249.769 86.1289 247.076 84.5754 247.248 82.1498C247.375 80.3798 245.905 78.9155 244.141 79.0429C241.722 79.2211 240.162 76.5217 241.524 74.5099C242.518 73.0455 241.983 71.0337 240.385 70.2633C238.201 69.2065 238.201 66.0932 240.385 65.03C241.976 64.2597 242.518 62.2478 241.524 60.7835C240.162 58.7717 241.715 56.0786 244.141 56.2505C245.911 56.3778 247.375 54.9071 247.248 53.1436C247.07 50.7243 249.769 49.1645 251.781 50.5269C253.245 51.5201 255.257 50.9853 256.027 49.3873C257.084 47.2036 260.204 47.2036 261.261 49.3873Z" fill="#28BEC8"/>
<path d="M307.699 58.5167C308.087 59.3125 309.086 59.5799 309.825 59.0833C310.831 58.4021 312.181 59.1788 312.091 60.3885C312.028 61.2734 312.76 62.0056 313.645 61.9419C314.855 61.8528 315.631 63.2025 314.95 64.2084C314.453 64.9406 314.721 65.9465 315.517 66.3349C316.612 66.8633 316.612 68.4231 315.517 68.9515C314.721 69.3399 314.453 70.3395 314.95 71.078C315.631 72.0839 314.855 73.4336 313.645 73.3445C312.76 73.2808 312.028 74.013 312.091 74.8979C312.181 76.1076 310.831 76.8843 309.825 76.2031C309.093 75.7065 308.087 75.9739 307.699 76.7697C307.17 77.8648 305.61 77.8648 305.082 76.7697C304.693 75.9739 303.694 75.7065 302.956 76.2031C301.95 76.8843 300.6 76.1076 300.689 74.8979C300.753 74.013 300.021 73.2808 299.136 73.3445C297.926 73.4336 297.149 72.0839 297.83 71.078C298.327 70.3458 298.059 69.3399 297.264 68.9515C296.169 68.4231 296.169 66.8633 297.264 66.3349C298.059 65.9465 298.327 64.947 297.83 64.2084C297.149 63.2025 297.926 61.8528 299.136 61.9419C300.021 62.0056 300.753 61.2734 300.689 60.3885C300.6 59.1788 301.95 58.4021 302.956 59.0833C303.688 59.5799 304.693 59.3125 305.082 58.5167C305.617 57.428 307.17 57.428 307.699 58.5167Z" fill="#28BEC8"/>
<path d="M356.76 49.3873C357.53 50.979 359.542 51.5201 361.006 50.5269C363.018 49.1645 365.711 50.7179 365.539 53.1436C365.412 54.9135 366.882 56.3778 368.646 56.2505C371.065 56.0722 372.625 58.7717 371.263 60.7835C370.269 62.2478 370.804 64.2597 372.402 65.03C374.586 66.0869 374.586 69.2001 372.402 70.2633C370.811 71.0337 370.269 73.0455 371.263 74.5099C372.625 76.5217 371.072 79.2148 368.646 79.0429C366.876 78.9155 365.412 80.3862 365.539 82.1498C365.717 84.5691 363.018 86.1289 361.006 84.7664C359.542 83.7732 357.53 84.308 356.76 85.906C355.703 88.0898 352.589 88.0898 351.526 85.906C350.756 84.3144 348.744 83.7732 347.28 84.7664C345.268 86.1289 342.575 84.5754 342.747 82.1498C342.874 80.3798 341.403 78.9155 339.64 79.0429C337.22 79.2211 335.661 76.5217 337.023 74.5099C338.016 73.0455 337.482 71.0337 335.884 70.2633C333.7 69.2065 333.7 66.0932 335.884 65.03C337.475 64.2597 338.016 62.2478 337.023 60.7835C335.661 58.7717 337.214 56.0786 339.64 56.2505C341.41 56.3778 342.874 54.9071 342.747 53.1436C342.568 50.7243 345.268 49.1645 347.28 50.5269C348.744 51.5201 350.756 50.9853 351.526 49.3873C352.583 47.2036 355.703 47.2036 356.76 49.3873Z" fill="#28BEC8"/>
<path d="M213.511 97.1368C214.282 98.7285 216.294 99.2696 217.758 98.2764C219.77 96.914 222.463 98.4674 222.291 100.893C222.163 102.663 223.634 104.127 225.398 104C227.817 103.822 229.377 106.521 228.014 108.533C227.021 109.997 227.556 112.009 229.154 112.78C231.338 113.836 231.338 116.95 229.154 118.013C227.562 118.783 227.021 120.795 228.014 122.259C229.377 124.271 227.823 126.964 225.398 126.792C223.628 126.665 222.163 128.136 222.291 129.899C222.469 132.319 219.77 133.878 217.758 132.516C216.294 131.523 214.282 132.058 213.511 133.656C212.455 135.839 209.341 135.839 208.278 133.656C207.508 132.064 205.496 131.523 204.031 132.516C202.02 133.878 199.327 132.325 199.499 129.899C199.626 128.129 198.155 126.665 196.392 126.792C193.972 126.971 192.413 124.271 193.775 122.259C194.768 120.795 194.233 118.783 192.635 118.013C190.452 116.956 190.452 113.843 192.635 112.78C194.227 112.009 194.768 109.997 193.775 108.533C192.413 106.521 193.966 103.828 196.392 104C198.161 104.127 199.626 102.657 199.499 100.893C199.32 98.4738 202.02 96.914 204.031 98.2764C205.496 99.2696 207.508 98.7348 208.278 97.1368C209.335 94.9531 212.455 94.9531 213.511 97.1368Z" fill="#28BEC8"/>
<path d="M259.949 106.266C260.338 107.062 261.337 107.329 262.076 106.833C263.082 106.152 264.431 106.928 264.342 108.138C264.278 109.023 265.011 109.755 265.896 109.691C267.105 109.602 267.882 110.952 267.201 111.958C266.704 112.69 266.972 113.696 267.767 114.084C268.863 114.613 268.863 116.173 267.767 116.701C266.972 117.089 266.704 118.089 267.201 118.828C267.882 119.833 267.105 121.183 265.896 121.094C265.011 121.03 264.278 121.762 264.342 122.647C264.431 123.857 263.082 124.634 262.076 123.953C261.343 123.456 260.338 123.723 259.949 124.519C259.421 125.614 257.861 125.614 257.333 124.519C256.944 123.723 255.945 123.456 255.206 123.953C254.2 124.634 252.851 123.857 252.94 122.647C253.003 121.762 252.271 121.03 251.386 121.094C250.177 121.183 249.4 119.833 250.081 118.828C250.578 118.095 250.31 117.089 249.514 116.701C248.419 116.173 248.419 114.613 249.514 114.084C250.31 113.696 250.578 112.696 250.081 111.958C249.4 110.952 250.177 109.602 251.386 109.691C252.271 109.755 253.003 109.023 252.94 108.138C252.851 106.928 254.2 106.152 255.206 106.833C255.938 107.329 256.944 107.062 257.333 106.266C257.867 105.178 259.421 105.178 259.949 106.266Z" fill="#28BEC8"/>
<path d="M309.01 97.1368C309.781 98.7285 311.792 99.2696 313.257 98.2764C315.269 96.914 317.961 98.4674 317.79 100.893C317.662 102.663 319.133 104.127 320.897 104C323.316 103.822 324.876 106.521 323.513 108.533C322.52 109.997 323.055 112.009 324.653 112.78C326.837 113.836 326.837 116.95 324.653 118.013C323.061 118.783 322.52 120.795 323.513 122.259C324.876 124.271 323.322 126.964 320.897 126.792C319.127 126.665 317.662 128.136 317.79 129.899C317.968 132.319 315.269 133.878 313.257 132.516C311.792 131.523 309.781 132.058 309.01 133.656C307.953 135.839 304.84 135.839 303.777 133.656C303.006 132.064 300.995 131.523 299.53 132.516C297.518 133.878 294.825 132.325 294.997 129.899C295.125 128.129 293.654 126.665 291.89 126.792C289.471 126.971 287.911 124.271 289.274 122.259C290.267 120.795 289.732 118.783 288.134 118.013C285.95 116.956 285.95 113.843 288.134 112.78C289.726 112.009 290.267 109.997 289.274 108.533C287.911 106.521 289.465 103.828 291.89 104C293.66 104.127 295.125 102.657 294.997 100.893C294.819 98.4738 297.518 96.914 299.53 98.2764C300.995 99.2696 303.006 98.7348 303.777 97.1368C304.834 94.9531 307.953 94.9531 309.01 97.1368Z" fill="#28BEC8"/>
<path d="M355.448 106.266C355.836 107.062 356.836 107.329 357.574 106.833C358.58 106.152 359.93 106.928 359.841 108.138C359.777 109.023 360.509 109.755 361.394 109.691C362.604 109.602 363.381 110.952 362.699 111.958C362.203 112.69 362.47 113.696 363.266 114.084C364.361 114.613 364.361 116.173 363.266 116.701C362.47 117.089 362.203 118.089 362.699 118.828C363.381 119.833 362.604 121.183 361.394 121.094C360.509 121.03 359.777 121.762 359.841 122.647C359.93 123.857 358.58 124.634 357.574 123.953C356.842 123.456 355.836 123.723 355.448 124.519C354.92 125.614 353.36 125.614 352.831 124.519C352.443 123.723 351.443 123.456 350.705 123.953C349.699 124.634 348.349 123.857 348.438 122.647C348.502 121.762 347.77 121.03 346.885 121.094C345.675 121.183 344.899 119.833 345.58 118.828C346.076 118.095 345.809 117.089 345.013 116.701C343.918 116.173 343.918 114.613 345.013 114.084C345.809 113.696 346.076 112.696 345.58 111.958C344.899 110.952 345.675 109.602 346.885 109.691C347.77 109.755 348.502 109.023 348.438 108.138C348.349 106.928 349.699 106.152 350.705 106.833C351.437 107.329 352.443 107.062 352.831 106.266C353.366 105.178 354.92 105.178 355.448 106.266Z" fill="#28BEC8"/>
<path d="M212.2 154.016C212.588 154.812 213.588 155.079 214.326 154.583C215.332 153.902 216.682 154.678 216.593 155.888C216.529 156.773 217.261 157.505 218.146 157.441C219.356 157.352 220.133 158.702 219.451 159.708C218.955 160.44 219.222 161.446 220.018 161.834C221.113 162.363 221.113 163.923 220.018 164.451C219.222 164.839 218.955 165.839 219.451 166.578C220.133 167.583 219.356 168.933 218.146 168.844C217.261 168.78 216.529 169.513 216.593 170.397C216.682 171.607 215.332 172.384 214.326 171.703C213.594 171.206 212.588 171.473 212.2 172.269C211.671 173.364 210.112 173.364 209.583 172.269C209.195 171.473 208.195 171.206 207.457 171.703C206.451 172.384 205.101 171.607 205.19 170.397C205.254 169.513 204.522 168.78 203.637 168.844C202.427 168.933 201.65 167.583 202.332 166.578C202.828 165.845 202.561 164.839 201.765 164.451C200.67 163.923 200.67 162.363 201.765 161.834C202.561 161.446 202.828 160.446 202.332 159.708C201.65 158.702 202.427 157.352 203.637 157.441C204.522 157.505 205.254 156.773 205.19 155.888C205.101 154.678 206.451 153.902 207.457 154.583C208.189 155.079 209.195 154.812 209.583 154.016C210.118 152.928 211.671 152.928 212.2 154.016Z" fill="#28BEC8"/>
<path d="M261.261 144.886C262.031 146.477 264.043 147.019 265.507 146.025C267.519 144.663 270.212 146.216 270.04 148.642C269.913 150.412 271.384 151.876 273.147 151.749C275.566 151.571 277.126 154.27 275.764 156.282C274.771 157.746 275.305 159.758 276.903 160.529C279.087 161.585 279.087 164.699 276.903 165.762C275.312 166.532 274.771 168.544 275.764 170.008C277.126 172.02 275.573 174.713 273.147 174.541C271.377 174.414 269.913 175.885 270.04 177.648C270.218 180.068 267.519 181.627 265.507 180.265C264.043 179.272 262.031 179.807 261.261 181.405C260.204 183.588 257.091 183.588 256.027 181.405C255.257 179.813 253.245 179.272 251.781 180.265C249.769 181.627 247.076 180.074 247.248 177.648C247.375 175.878 245.905 174.414 244.141 174.541C241.722 174.72 240.162 172.02 241.524 170.008C242.518 168.544 241.983 166.532 240.385 165.762C238.201 164.705 238.201 161.592 240.385 160.529C241.976 159.758 242.518 157.746 241.524 156.282C240.162 154.27 241.715 151.577 244.141 151.749C245.911 151.876 247.375 150.406 247.248 148.642C247.07 146.223 249.769 144.663 251.781 146.025C253.245 147.019 255.257 146.484 256.027 144.886C257.084 142.702 260.204 142.702 261.261 144.886Z" fill="#28BEC8"/>
<path d="M307.699 154.016C308.087 154.812 309.086 155.079 309.825 154.583C310.831 153.902 312.181 154.678 312.091 155.888C312.028 156.773 312.76 157.505 313.645 157.441C314.855 157.352 315.631 158.702 314.95 159.708C314.453 160.44 314.721 161.446 315.517 161.834C316.612 162.363 316.612 163.923 315.517 164.451C314.721 164.839 314.453 165.839 314.95 166.578C315.631 167.583 314.855 168.933 313.645 168.844C312.76 168.78 312.028 169.513 312.091 170.397C312.181 171.607 310.831 172.384 309.825 171.703C309.093 171.206 308.087 171.473 307.699 172.269C307.17 173.364 305.61 173.364 305.082 172.269C304.693 171.473 303.694 171.206 302.956 171.703C301.95 172.384 300.6 171.607 300.689 170.397C300.753 169.513 300.021 168.78 299.136 168.844C297.926 168.933 297.149 167.583 297.83 166.578C298.327 165.845 298.059 164.839 297.264 164.451C296.169 163.923 296.169 162.363 297.264 161.834C298.059 161.446 298.327 160.446 297.83 159.708C297.149 158.702 297.926 157.352 299.136 157.441C300.021 157.505 300.753 156.773 300.689 155.888C300.6 154.678 301.95 153.902 302.956 154.583C303.688 155.079 304.693 154.812 305.082 154.016C305.617 152.928 307.17 152.928 307.699 154.016Z" fill="#28BEC8"/>
<path d="M356.76 144.886C357.53 146.477 359.542 147.019 361.006 146.025C363.018 144.663 365.711 146.216 365.539 148.642C365.412 150.412 366.882 151.876 368.646 151.749C371.065 151.571 372.625 154.27 371.263 156.282C370.269 157.746 370.804 159.758 372.402 160.529C374.586 161.585 374.586 164.699 372.402 165.762C370.811 166.532 370.269 168.544 371.263 170.008C372.625 172.02 371.072 174.713 368.646 174.541C366.876 174.414 365.412 175.885 365.539 177.648C365.717 180.068 363.018 181.627 361.006 180.265C359.542 179.272 357.53 179.807 356.76 181.405C355.703 183.588 352.589 183.588 351.526 181.405C350.756 179.813 348.744 179.272 347.28 180.265C345.268 181.627 342.575 180.074 342.747 177.648C342.874 175.878 341.403 174.414 339.64 174.541C337.22 174.72 335.661 172.02 337.023 170.008C338.016 168.544 337.482 166.532 335.884 165.762C333.7 164.705 333.7 161.592 335.884 160.529C337.475 159.758 338.016 157.746 337.023 156.282C335.661 154.27 337.214 151.577 339.64 151.749C341.41 151.876 342.874 150.406 342.747 148.642C342.568 146.223 345.268 144.663 347.28 146.025C348.744 147.019 350.756 146.484 351.526 144.886C352.583 142.702 355.703 142.702 356.76 144.886Z" fill="#28BEC8"/>
<path d="M213.511 192.455C214.282 194.047 216.294 194.588 217.758 193.595C219.77 192.232 222.463 193.786 222.291 196.211C222.163 197.981 223.634 199.446 225.398 199.318C227.817 199.14 229.377 201.84 228.014 203.851C227.021 205.316 227.556 207.328 229.154 208.098C231.338 209.155 231.338 212.268 229.154 213.331C227.562 214.102 227.021 216.113 228.014 217.578C229.377 219.59 227.823 222.283 225.398 222.111C223.628 221.983 222.163 223.454 222.291 225.218C222.469 227.637 219.77 229.197 217.758 227.834C216.294 226.841 214.282 227.376 213.511 228.974C212.455 231.158 209.341 231.158 208.278 228.974C207.508 227.382 205.496 226.841 204.031 227.834C202.02 229.197 199.327 227.643 199.499 225.218C199.626 223.448 198.155 221.983 196.392 222.111C193.972 222.289 192.413 219.59 193.775 217.578C194.768 216.113 194.233 214.102 192.635 213.331C190.452 212.274 190.452 209.161 192.635 208.098C194.227 207.328 194.768 205.316 193.775 203.851C192.413 201.84 193.966 199.146 196.392 199.318C198.161 199.446 199.626 197.975 199.499 196.211C199.32 193.792 202.02 192.232 204.031 193.595C205.496 194.588 207.508 194.053 208.278 192.455C209.335 190.271 212.455 190.271 213.511 192.455Z" fill="#28BEC8"/>
<path d="M259.949 201.585C260.338 202.38 261.337 202.648 262.076 202.151C263.082 201.47 264.431 202.247 264.342 203.456C264.278 204.341 265.011 205.073 265.896 205.01C267.105 204.921 267.882 206.27 267.201 207.276C266.704 208.008 266.972 209.014 267.767 209.403C268.863 209.931 268.863 211.491 267.767 212.019C266.972 212.408 266.704 213.407 267.201 214.146C267.882 215.152 267.105 216.501 265.896 216.412C265.011 216.349 264.278 217.081 264.342 217.966C264.431 219.175 263.082 219.952 262.076 219.271C261.343 218.774 260.338 219.042 259.949 219.838C259.421 220.933 257.861 220.933 257.333 219.838C256.944 219.042 255.945 218.774 255.206 219.271C254.2 219.952 252.851 219.175 252.94 217.966C253.003 217.081 252.271 216.349 251.386 216.412C250.177 216.501 249.4 215.152 250.081 214.146C250.578 213.414 250.31 212.408 249.514 212.019C248.419 211.491 248.419 209.931 249.514 209.403C250.31 209.014 250.578 208.015 250.081 207.276C249.4 206.27 250.177 204.921 251.386 205.01C252.271 205.073 253.003 204.341 252.94 203.456C252.851 202.247 254.2 201.47 255.206 202.151C255.938 202.648 256.944 202.38 257.333 201.585C257.867 200.496 259.421 200.496 259.949 201.585Z" fill="#28BEC8"/>
<path d="M309.01 192.455C309.781 194.047 311.792 194.588 313.257 193.595C315.269 192.232 317.961 193.786 317.79 196.211C317.662 197.981 319.133 199.446 320.897 199.318C323.316 199.14 324.876 201.84 323.513 203.851C322.52 205.316 323.055 207.328 324.653 208.098C326.837 209.155 326.837 212.268 324.653 213.331C323.061 214.102 322.52 216.113 323.513 217.578C324.876 219.59 323.322 222.283 320.897 222.111C319.127 221.983 317.662 223.454 317.79 225.218C317.968 227.637 315.269 229.197 313.257 227.834C311.792 226.841 309.781 227.376 309.01 228.974C307.953 231.158 304.84 231.158 303.777 228.974C303.006 227.382 300.995 226.841 299.53 227.834C297.518 229.197 294.825 227.643 294.997 225.218C295.125 223.448 293.654 221.983 291.89 222.111C289.471 222.289 287.911 219.59 289.274 217.578C290.267 216.113 289.732 214.102 288.134 213.331C285.95 212.274 285.95 209.161 288.134 208.098C289.726 207.328 290.267 205.316 289.274 203.851C287.911 201.84 289.465 199.146 291.89 199.318C293.66 199.446 295.125 197.975 294.997 196.211C294.819 193.792 297.518 192.232 299.53 193.595C300.995 194.588 303.006 194.053 303.777 192.455C304.834 190.271 307.953 190.271 309.01 192.455Z" fill="#28BEC8"/>
<path d="M355.448 201.585C355.836 202.38 356.836 202.648 357.574 202.151C358.58 201.47 359.93 202.247 359.841 203.456C359.777 204.341 360.509 205.073 361.394 205.01C362.604 204.921 363.381 206.27 362.699 207.276C362.203 208.008 362.47 209.014 363.266 209.403C364.361 209.931 364.361 211.491 363.266 212.019C362.47 212.408 362.203 213.407 362.699 214.146C363.381 215.152 362.604 216.501 361.394 216.412C360.509 216.349 359.777 217.081 359.841 217.966C359.93 219.175 358.58 219.952 357.574 219.271C356.842 218.774 355.836 219.042 355.448 219.838C354.92 220.933 353.36 220.933 352.831 219.838C352.443 219.042 351.443 218.774 350.705 219.271C349.699 219.952 348.349 219.175 348.438 217.966C348.502 217.081 347.77 216.349 346.885 216.412C345.675 216.501 344.899 215.152 345.58 214.146C346.076 213.414 345.809 212.408 345.013 212.019C343.918 211.491 343.918 209.931 345.013 209.403C345.809 209.014 346.076 208.015 345.58 207.276C344.899 206.27 345.675 204.921 346.885 205.01C347.77 205.073 348.502 204.341 348.438 203.456C348.349 202.247 349.699 201.47 350.705 202.151C351.437 202.648 352.443 202.38 352.831 201.585C353.366 200.496 354.92 200.496 355.448 201.585Z" fill="#28BEC8"/>
<path d="M212.2 249.334C212.588 250.13 213.588 250.397 214.326 249.901C215.332 249.219 216.682 249.996 216.593 251.206C216.529 252.091 217.261 252.823 218.146 252.759C219.356 252.67 220.133 254.02 219.451 255.026C218.955 255.758 219.222 256.764 220.018 257.152C221.113 257.681 221.113 259.24 220.018 259.769C219.222 260.157 218.955 261.157 219.451 261.895C220.133 262.901 219.356 264.251 218.146 264.162C217.261 264.098 216.529 264.83 216.593 265.715C216.682 266.925 215.332 267.702 214.326 267.02C213.594 266.524 212.588 266.791 212.2 267.587C211.671 268.682 210.112 268.682 209.583 267.587C209.195 266.791 208.195 266.524 207.457 267.02C206.451 267.702 205.101 266.925 205.19 265.715C205.254 264.83 204.522 264.098 203.637 264.162C202.427 264.251 201.65 262.901 202.332 261.895C202.828 261.163 202.561 260.157 201.765 259.769C200.67 259.24 200.67 257.681 201.765 257.152C202.561 256.764 202.828 255.764 202.332 255.026C201.65 254.02 202.427 252.67 203.637 252.759C204.522 252.823 205.254 252.091 205.19 251.206C205.101 249.996 206.451 249.219 207.457 249.901C208.189 250.397 209.195 250.13 209.583 249.334C210.118 248.245 211.671 248.245 212.2 249.334Z" fill="#28BEC8"/>
<path d="M261.261 240.204C262.031 241.796 264.043 242.337 265.507 241.344C267.519 239.981 270.212 241.535 270.04 243.96C269.913 245.73 271.384 247.195 273.147 247.067C275.566 246.889 277.126 249.589 275.764 251.6C274.771 253.065 275.305 255.077 276.903 255.847C279.087 256.904 279.087 260.017 276.903 261.08C275.312 261.851 274.771 263.862 275.764 265.327C277.126 267.339 275.573 270.032 273.147 269.86C271.377 269.732 269.913 271.203 270.04 272.967C270.218 275.386 267.519 276.946 265.507 275.583C264.043 274.59 262.031 275.125 261.261 276.723C260.204 278.907 257.091 278.907 256.027 276.723C255.257 275.131 253.245 274.59 251.781 275.583C249.769 276.946 247.076 275.392 247.248 272.967C247.375 271.197 245.905 269.732 244.141 269.86C241.722 270.038 240.162 267.339 241.524 265.327C242.518 263.862 241.983 261.851 240.385 261.08C238.201 260.023 238.201 256.91 240.385 255.847C241.976 255.077 242.518 253.065 241.524 251.6C240.162 249.589 241.715 246.895 244.141 247.067C245.911 247.195 247.375 245.724 247.248 243.96C247.07 241.541 249.769 239.981 251.781 241.344C253.245 242.337 255.257 241.802 256.027 240.204C257.084 238.02 260.204 238.02 261.261 240.204Z" fill="#28BEC8"/>
<path d="M307.699 249.334C308.087 250.13 309.086 250.397 309.825 249.901C310.831 249.219 312.181 249.996 312.091 251.206C312.028 252.091 312.76 252.823 313.645 252.759C314.855 252.67 315.631 254.02 314.95 255.026C314.453 255.758 314.721 256.764 315.517 257.152C316.612 257.681 316.612 259.24 315.517 259.769C314.721 260.157 314.453 261.157 314.95 261.895C315.631 262.901 314.855 264.251 313.645 264.162C312.76 264.098 312.028 264.83 312.091 265.715C312.181 266.925 310.831 267.702 309.825 267.02C309.093 266.524 308.087 266.791 307.699 267.587C307.17 268.682 305.61 268.682 305.082 267.587C304.693 266.791 303.694 266.524 302.956 267.02C301.95 267.702 300.6 266.925 300.689 265.715C300.753 264.83 300.021 264.098 299.136 264.162C297.926 264.251 297.149 262.901 297.83 261.895C298.327 261.163 298.059 260.157 297.264 259.769C296.169 259.24 296.169 257.681 297.264 257.152C298.059 256.764 298.327 255.764 297.83 255.026C297.149 254.02 297.926 252.67 299.136 252.759C300.021 252.823 300.753 252.091 300.689 251.206C300.6 249.996 301.95 249.219 302.956 249.901C303.688 250.397 304.693 250.13 305.082 249.334C305.617 248.245 307.17 248.245 307.699 249.334Z" fill="#28BEC8"/>
<path d="M356.76 240.204C357.53 241.796 359.542 242.337 361.006 241.344C363.018 239.981 365.711 241.535 365.539 243.96C365.412 245.73 366.882 247.195 368.646 247.067C371.065 246.889 372.625 249.589 371.263 251.6C370.269 253.065 370.804 255.077 372.402 255.847C374.586 256.904 374.586 260.017 372.402 261.08C370.811 261.851 370.269 263.862 371.263 265.327C372.625 267.339 371.072 270.032 368.646 269.86C366.876 269.732 365.412 271.203 365.539 272.967C365.717 275.386 363.018 276.946 361.006 275.583C359.542 274.59 357.53 275.125 356.76 276.723C355.703 278.907 352.589 278.907 351.526 276.723C350.756 275.131 348.744 274.59 347.28 275.583C345.268 276.946 342.575 275.392 342.747 272.967C342.874 271.197 341.403 269.732 339.64 269.86C337.22 270.038 335.661 267.339 337.023 265.327C338.016 263.862 337.482 261.851 335.884 261.08C333.7 260.023 333.7 256.91 335.884 255.847C337.475 255.077 338.016 253.065 337.023 251.6C335.661 249.589 337.214 246.895 339.64 247.067C341.41 247.195 342.874 245.724 342.747 243.96C342.568 241.541 345.268 239.981 347.28 241.344C348.744 242.337 350.756 241.802 351.526 240.204C352.583 238.02 355.703 238.02 356.76 240.204Z" fill="#28BEC8"/>
<path d="M213.511 287.954C214.282 289.545 216.294 290.087 217.758 289.093C219.77 287.731 222.463 289.284 222.291 291.71C222.163 293.48 223.634 294.944 225.398 294.817C227.817 294.639 229.377 297.338 228.014 299.35C227.021 300.814 227.556 302.826 229.154 303.596C231.338 304.653 231.338 307.767 229.154 308.83C227.562 309.6 227.021 311.612 228.014 313.076C229.377 315.088 227.823 317.781 225.398 317.609C223.628 317.482 222.163 318.953 222.291 320.716C222.469 323.135 219.77 324.695 217.758 323.333C216.294 322.34 214.282 322.874 213.511 324.472C212.455 326.656 209.341 326.656 208.278 324.472C207.508 322.881 205.496 322.34 204.031 323.333C202.02 324.695 199.327 323.142 199.499 320.716C199.626 318.946 198.155 317.482 196.392 317.609C193.972 317.788 192.413 315.088 193.775 313.076C194.768 311.612 194.233 309.6 192.635 308.83C190.452 307.773 190.452 304.66 192.635 303.596C194.227 302.826 194.768 300.814 193.775 299.35C192.413 297.338 193.966 294.645 196.392 294.817C198.161 294.944 199.626 293.474 199.499 291.71C199.32 289.291 202.02 287.731 204.031 289.093C205.496 290.087 207.508 289.552 208.278 287.954C209.335 285.77 212.455 285.77 213.511 287.954Z" fill="#28BEC8"/>
<path d="M259.949 297.084C260.338 297.879 261.337 298.147 262.076 297.65C263.082 296.969 264.431 297.746 264.342 298.955C264.278 299.84 265.011 300.572 265.896 300.509C267.105 300.42 267.882 301.769 267.201 302.775C266.704 303.507 266.972 304.513 267.767 304.902C268.863 305.43 268.863 306.99 267.767 307.518C266.972 307.907 266.704 308.906 267.201 309.645C267.882 310.651 267.105 312.001 265.896 311.911C265.011 311.848 264.278 312.58 264.342 313.465C264.431 314.674 263.082 315.451 262.076 314.77C261.343 314.273 260.338 314.541 259.949 315.337C259.421 316.432 257.861 316.432 257.333 315.337C256.944 314.541 255.945 314.273 255.206 314.77C254.2 315.451 252.851 314.674 252.94 313.465C253.003 312.58 252.271 311.848 251.386 311.911C250.177 312.001 249.4 310.651 250.081 309.645C250.578 308.913 250.31 307.907 249.514 307.518C248.419 306.99 248.419 305.43 249.514 304.902C250.31 304.513 250.578 303.514 250.081 302.775C249.4 301.769 250.177 300.42 251.386 300.509C252.271 300.572 253.003 299.84 252.94 298.955C252.851 297.746 254.2 296.969 255.206 297.65C255.938 298.147 256.944 297.879 257.333 297.084C257.867 295.995 259.421 295.995 259.949 297.084Z" fill="#28BEC8"/>
<path d="M309.01 287.954C309.781 289.545 311.792 290.087 313.257 289.093C315.269 287.731 317.961 289.284 317.79 291.71C317.662 293.48 319.133 294.944 320.897 294.817C323.316 294.639 324.876 297.338 323.513 299.35C322.52 300.814 323.055 302.826 324.653 303.596C326.837 304.653 326.837 307.767 324.653 308.83C323.061 309.6 322.52 311.612 323.513 313.076C324.876 315.088 323.322 317.781 320.897 317.609C319.127 317.482 317.662 318.953 317.79 320.716C317.968 323.135 315.269 324.695 313.257 323.333C311.792 322.34 309.781 322.874 309.01 324.472C307.953 326.656 304.84 326.656 303.777 324.472C303.006 322.881 300.995 322.34 299.53 323.333C297.518 324.695 294.825 323.142 294.997 320.716C295.125 318.946 293.654 317.482 291.89 317.609C289.471 317.788 287.911 315.088 289.274 313.076C290.267 311.612 289.732 309.6 288.134 308.83C285.95 307.773 285.95 304.66 288.134 303.596C289.726 302.826 290.267 300.814 289.274 299.35C287.911 297.338 289.465 294.645 291.89 294.817C293.66 294.944 295.125 293.474 294.997 291.71C294.819 289.291 297.518 287.731 299.53 289.093C300.995 290.087 303.006 289.552 303.777 287.954C304.834 285.77 307.953 285.77 309.01 287.954Z" fill="#28BEC8"/>
<path d="M355.448 297.084C355.836 297.879 356.836 298.147 357.574 297.65C358.58 296.969 359.93 297.746 359.841 298.955C359.777 299.84 360.509 300.572 361.394 300.509C362.604 300.42 363.381 301.769 362.699 302.775C362.203 303.507 362.47 304.513 363.266 304.902C364.361 305.43 364.361 306.99 363.266 307.518C362.47 307.907 362.203 308.906 362.699 309.645C363.381 310.651 362.604 312.001 361.394 311.911C360.509 311.848 359.777 312.58 359.841 313.465C359.93 314.674 358.58 315.451 357.574 314.77C356.842 314.273 355.836 314.541 355.448 315.337C354.92 316.432 353.36 316.432 352.831 315.337C352.443 314.541 351.443 314.273 350.705 314.77C349.699 315.451 348.349 314.674 348.438 313.465C348.502 312.58 347.77 311.848 346.885 311.911C345.675 312.001 344.899 310.651 345.58 309.645C346.076 308.913 345.809 307.907 345.013 307.518C343.918 306.99 343.918 305.43 345.013 304.902C345.809 304.513 346.076 303.514 345.58 302.775C344.899 301.769 345.675 300.42 346.885 300.509C347.77 300.572 348.502 299.84 348.438 298.955C348.349 297.746 349.699 296.969 350.705 297.65C351.437 298.147 352.443 297.879 352.831 297.084C353.366 295.995 354.92 295.995 355.448 297.084Z" fill="#28BEC8"/>
</svg>
