<svg width="382" height="348" viewBox="0 0 382 348" fill="none" xmlns="http://www.w3.org/2000/svg">
<mask id="mask0" mask-type="alpha" maskUnits="userSpaceOnUse" x="0" y="0" width="382" height="348">
<path d="M382 324C382 337.255 371.255 348 358 348L24 348C10.7452 348 2.95782e-05 337.255 2.84194e-05 324L2.19259e-06 24C1.03382e-06 10.7452 10.7452 2.02057e-06 24 8.61793e-07L358 -2.83374e-05C371.255 -2.94962e-05 382 10.7451 382 24L382 324Z" fill="#FFB428"/>
</mask>
<g mask="url(#mask0)">
<g opacity="0.2">
<path d="M332.106 62.4772L327.366 64.9199C323.622 66.8408 319.247 63.7341 319.952 59.6789L320.851 54.5091C321.143 52.8965 320.584 51.2365 319.393 50.0982L315.552 46.4461C312.514 43.5766 314.191 38.5491 318.372 37.9562L323.695 37.1973C325.348 36.9602 326.807 35.9405 327.536 34.4701L329.918 29.7746C331.79 26.0751 337.21 26.0751 339.082 29.7746L341.464 34.4701C342.218 35.9405 343.652 36.9602 345.305 37.1973L350.628 37.9562C354.809 38.5491 356.486 43.5766 353.448 46.4461L349.607 50.0982C348.416 51.2365 347.857 52.8965 348.149 54.5091L349.048 59.6789C349.753 63.7578 345.378 66.8408 341.634 64.9199L336.894 62.4772C335.363 61.7184 333.588 61.7184 332.106 62.4772Z" fill="white"/>
<path d="M274.706 30.0281L269.966 27.5855C266.222 25.6646 261.847 28.7712 262.552 32.8265L263.451 37.9963C263.743 39.6089 263.184 41.2689 261.993 42.4072L258.152 46.0593C255.114 48.9288 256.791 53.9563 260.972 54.5492L266.295 55.308C267.948 55.5452 269.407 56.5649 270.136 58.0352L272.518 62.7307C274.39 66.4302 279.81 66.4302 281.682 62.7307L284.064 58.0352C284.818 56.5649 286.252 55.5452 287.905 55.308L293.228 54.5492C297.409 53.9563 299.086 48.9288 296.048 46.0593L292.207 42.4072C291.016 41.2689 290.457 39.6089 290.749 37.9963L291.648 32.8265C292.353 28.7475 287.978 25.6646 284.234 27.5855L279.494 30.0281C277.963 30.787 276.188 30.787 274.706 30.0281Z" fill="white"/>
<path d="M217.306 62.4772L212.566 64.9199C208.822 66.8408 204.447 63.7341 205.152 59.6789L206.051 54.5091C206.343 52.8965 205.784 51.2365 204.593 50.0982L200.752 46.4461C197.714 43.5766 199.391 38.5491 203.572 37.9562L208.895 37.1973C210.548 36.9602 212.007 35.9405 212.736 34.4701L215.118 29.7746C216.99 26.0751 222.41 26.0751 224.282 29.7746L226.664 34.4701C227.418 35.9405 228.852 36.9602 230.505 37.1973L235.828 37.9562C240.009 38.5491 241.686 43.5766 238.648 46.4461L234.807 50.0982C233.616 51.2365 233.057 52.8965 233.349 54.5091L234.248 59.6789C234.953 63.7578 230.578 66.8408 226.834 64.9199L222.094 62.4772C220.563 61.7184 218.789 61.7184 217.306 62.4772Z" fill="white"/>
<path d="M159.906 30.0281L155.166 27.5855C151.422 25.6646 147.047 28.7712 147.752 32.8265L148.651 37.9963C148.943 39.6089 148.384 41.2689 147.193 42.4072L143.352 46.0593C140.314 48.9288 141.991 53.9563 146.172 54.5492L151.495 55.308C153.148 55.5452 154.607 56.5649 155.336 58.0352L157.718 62.7307C159.59 66.4302 165.01 66.4302 166.882 62.7307L169.264 58.0352C170.018 56.5649 171.452 55.5452 173.105 55.308L178.428 54.5492C182.609 53.9563 184.286 48.9288 181.248 46.0593L177.407 42.4072C176.216 41.2689 175.657 39.6089 175.949 37.9963L176.848 32.8265C177.553 28.7475 173.178 25.6646 169.434 27.5855L164.694 30.0281C163.163 30.787 161.388 30.787 159.906 30.0281Z" fill="white"/>
<path d="M102.506 62.4772L97.7657 64.9199C94.0223 66.8408 89.6469 63.7341 90.3519 59.6789L91.2512 54.5091C91.5429 52.8965 90.9839 51.2365 89.7928 50.0982L85.9522 46.4461C82.9137 43.5766 84.5909 38.5491 88.7719 37.9562L94.0952 37.1973C95.7481 36.9602 97.2066 35.9405 97.9358 34.4701L100.318 29.7746C102.19 26.0751 107.61 26.0751 109.482 29.7746L111.864 34.4701C112.618 35.9405 114.052 36.9602 115.705 37.1973L121.028 37.9562C125.209 38.5491 126.886 43.5766 123.848 46.4461L120.007 50.0982C118.816 51.2365 118.257 52.8965 118.549 54.5091L119.448 59.6789C120.153 63.7578 115.778 66.8408 112.034 64.9199L107.294 62.4772C105.763 61.7184 103.988 61.7184 102.506 62.4772Z" fill="white"/>
<path d="M45.1057 30.0281L40.3657 27.5855C36.6223 25.6646 32.247 28.7712 32.9519 32.8265L33.8513 37.9963C34.143 39.6089 33.5839 41.2689 32.3928 42.4072L28.5522 46.0593C25.5138 48.9288 27.191 53.9563 31.3719 54.5492L36.6953 55.308C38.3482 55.5452 39.8066 56.5649 40.5359 58.0352L42.918 62.7307C44.7897 66.4302 50.2103 66.4302 52.082 62.7307L54.4641 58.0352C55.2177 56.5649 56.6518 55.5452 58.3047 55.308L63.6281 54.5492C67.809 53.9563 69.4862 48.9288 66.4478 46.0593L62.6072 42.4072C61.4161 41.2689 60.857 39.6089 61.1487 37.9963L62.0481 32.8265C62.753 28.7475 58.3777 25.6646 54.6343 27.5855L49.8943 30.0281C48.3629 30.787 46.5885 30.787 45.1057 30.0281Z" fill="white"/>
</g>
<g opacity="0.12">
<path d="M332.585 176.887L328.793 178.841C325.798 180.378 322.298 177.893 322.862 174.649L323.581 170.513C323.814 169.223 323.367 167.895 322.414 166.984L319.342 164.062C316.911 161.767 318.253 157.745 321.598 157.27L325.856 156.663C327.179 156.474 328.345 155.658 328.929 154.481L330.834 150.725C332.332 147.765 336.668 147.765 338.166 150.725L340.071 154.481C340.674 155.658 341.821 156.474 343.144 156.663L347.403 157.27C350.747 157.745 352.089 161.767 349.658 164.062L346.586 166.984C345.633 167.895 345.186 169.223 345.419 170.513L346.139 174.649C346.702 177.912 343.202 180.378 340.207 178.841L336.415 176.887C335.19 176.28 333.771 176.28 332.585 176.887Z" fill="white"/>
<path d="M275.185 151.124L271.393 149.169C268.398 147.633 264.898 150.118 265.462 153.362L266.181 157.498C266.414 158.788 265.967 160.116 265.014 161.027L261.942 163.948C259.511 166.244 260.853 170.266 264.198 170.74L268.456 171.347C269.779 171.537 270.945 172.353 271.529 173.529L273.434 177.286C274.932 180.245 279.268 180.245 280.766 177.286L282.671 173.529C283.274 172.353 284.422 171.537 285.744 171.347L290.003 170.74C293.347 170.266 294.689 166.244 292.258 163.948L289.186 161.027C288.233 160.116 287.786 158.788 288.019 157.498L288.739 153.362C289.302 150.099 285.802 147.633 282.807 149.169L279.016 151.124C277.79 151.731 276.371 151.731 275.185 151.124Z" fill="white"/>
<path d="M217.784 176.887L213.992 178.841C210.998 180.378 207.498 177.893 208.061 174.649L208.781 170.513C209.014 169.223 208.567 167.895 207.614 166.984L204.542 164.062C202.111 161.767 203.453 157.745 206.797 157.27L211.056 156.663C212.378 156.474 213.545 155.658 214.129 154.481L216.034 150.725C217.532 147.765 221.868 147.765 223.366 150.725L225.271 154.481C225.874 155.658 227.021 156.474 228.344 156.663L232.602 157.27C235.947 157.745 237.289 161.767 234.858 164.062L231.786 166.984C230.833 167.895 230.386 169.223 230.619 170.513L231.338 174.649C231.902 177.912 228.402 180.378 225.407 178.841L221.615 176.887C220.39 176.28 218.971 176.28 217.784 176.887Z" fill="white"/>
<path d="M160.385 151.124L156.593 149.169C153.598 147.633 150.098 150.118 150.661 153.362L151.381 157.498C151.614 158.788 151.167 160.116 150.214 161.027L147.142 163.948C144.711 166.244 146.053 170.266 149.397 170.74L153.656 171.347C154.979 171.537 156.145 172.353 156.729 173.529L158.634 177.286C160.132 180.245 164.468 180.245 165.966 177.286L167.871 173.529C168.474 172.353 169.621 171.537 170.944 171.347L175.202 170.74C178.547 170.266 179.889 166.244 177.458 163.948L174.386 161.027C173.433 160.116 172.986 158.788 173.219 157.498L173.938 153.362C174.502 150.099 171.002 147.633 168.007 149.169L164.215 151.124C162.99 151.731 161.571 151.731 160.385 151.124Z" fill="white"/>
<path d="M102.985 176.887L99.1926 178.841C96.1979 180.378 92.6976 177.893 93.2615 174.649L93.981 170.513C94.2144 169.223 93.7671 167.895 92.8143 166.984L89.7418 164.062C87.311 161.767 88.6528 157.745 91.9975 157.27L96.2562 156.663C97.5785 156.474 98.7453 155.658 99.3287 154.481L101.234 150.725C102.732 147.765 107.068 147.765 108.566 150.725L110.471 154.481C111.074 155.658 112.221 156.474 113.544 156.663L117.802 157.27C121.147 157.745 122.489 161.767 120.058 164.062L116.986 166.984C116.033 167.895 115.586 169.223 115.819 170.513L116.538 174.649C117.102 177.912 113.602 180.378 110.607 178.841L106.815 176.887C105.59 176.28 104.171 176.28 102.985 176.887Z" fill="white"/>
<path d="M45.5847 151.124L41.7927 149.169C38.798 147.633 35.2977 150.118 35.8616 153.362L36.5811 157.498C36.8145 158.788 36.3672 160.116 35.4144 161.027L32.3419 163.948C29.9111 166.244 31.2529 170.266 34.5976 170.74L38.8563 171.347C40.1786 171.537 41.3454 172.353 41.9288 173.529L43.8345 177.286C45.3319 180.245 49.6683 180.245 51.1657 177.286L53.0714 173.529C53.6742 172.353 54.8216 171.537 56.1439 171.347L60.4026 170.74C63.7473 170.266 65.0891 166.244 62.6583 163.948L59.5858 161.027C58.633 160.116 58.1857 158.788 58.4191 157.498L59.1386 153.362C59.7025 150.099 56.2022 147.633 53.2075 149.169L49.4155 151.124C48.1904 151.731 46.7709 151.731 45.5847 151.124Z" fill="white"/>
</g>
<g opacity="0.04">
<path d="M333.063 275.895L330.219 277.36C327.973 278.513 325.348 276.649 325.771 274.216L326.311 271.114C326.486 270.146 326.15 269.15 325.436 268.467L323.131 266.276C321.308 264.554 322.315 261.538 324.823 261.182L328.017 260.727C329.009 260.585 329.884 259.973 330.322 259.09L331.751 256.273C332.874 254.053 336.126 254.053 337.249 256.273L338.679 259.09C339.131 259.973 339.991 260.585 340.983 260.727L344.177 261.182C346.685 261.538 347.692 264.554 345.869 266.276L343.564 268.467C342.85 269.15 342.514 270.146 342.689 271.114L343.229 274.216C343.652 276.663 341.027 278.513 338.781 277.36L335.937 275.895C335.018 275.439 333.953 275.439 333.063 275.895Z" fill="white"/>
<path d="M275.663 256.322L272.819 254.856C270.573 253.704 267.948 255.568 268.371 258.001L268.911 261.103C269.086 262.07 268.75 263.067 268.036 263.75L265.731 265.941C263.908 267.662 264.915 270.679 267.423 271.035L270.617 271.49C271.609 271.632 272.484 272.244 272.921 273.126L274.351 275.944C275.474 278.163 278.726 278.163 279.849 275.944L281.278 273.126C281.731 272.244 282.591 271.632 283.583 271.49L286.777 271.035C289.285 270.679 290.292 267.662 288.469 265.941L286.164 263.75C285.45 263.067 285.114 262.07 285.289 261.103L285.829 258.001C286.252 255.554 283.627 253.704 281.38 254.856L278.537 256.322C277.618 256.777 276.553 256.777 275.663 256.322Z" fill="white"/>
<path d="M218.263 275.895L215.419 277.36C213.173 278.513 210.548 276.649 210.971 274.216L211.511 271.114C211.686 270.146 211.35 269.15 210.636 268.467L208.331 266.276C206.508 264.554 207.515 261.538 210.023 261.182L213.217 260.727C214.209 260.585 215.084 259.973 215.521 259.09L216.951 256.273C218.074 254.053 221.326 254.053 222.449 256.273L223.878 259.09C224.331 259.973 225.191 260.585 226.183 260.727L229.377 261.182C231.885 261.538 232.892 264.554 231.069 266.276L228.764 268.467C228.05 269.15 227.714 270.146 227.889 271.114L228.429 274.216C228.852 276.663 226.227 278.513 223.981 277.36L221.137 275.895C220.218 275.439 219.153 275.439 218.263 275.895Z" fill="white"/>
<path d="M160.863 256.322L158.019 254.856C155.773 253.704 153.148 255.568 153.571 258.001L154.111 261.103C154.286 262.07 153.95 263.067 153.236 263.75L150.931 265.941C149.108 267.662 150.115 270.679 152.623 271.035L155.817 271.49C156.809 271.632 157.684 272.244 158.122 273.126L159.551 275.944C160.674 278.163 163.926 278.163 165.049 275.944L166.478 273.126C166.931 272.244 167.791 271.632 168.783 271.49L171.977 271.035C174.485 270.679 175.492 267.662 173.669 265.941L171.364 263.75C170.65 263.067 170.314 262.07 170.489 261.103L171.029 258.001C171.452 255.554 168.827 253.704 166.581 254.856L163.737 256.322C162.818 256.777 161.753 256.777 160.863 256.322Z" fill="white"/>
<path d="M103.463 275.895L100.619 277.36C98.3734 278.513 95.7482 276.649 96.1712 274.216L96.7108 271.114C96.8858 270.146 96.5504 269.15 95.8357 268.467L93.5314 266.276C91.7083 264.554 92.7146 261.538 95.2232 261.182L98.4172 260.727C99.4089 260.585 100.284 259.973 100.722 259.09L102.151 256.273C103.274 254.053 106.526 254.053 107.649 256.273L109.079 259.09C109.531 259.973 110.391 260.585 111.383 260.727L114.577 261.182C117.085 261.538 118.092 264.554 116.269 266.276L113.964 268.467C113.25 269.15 112.914 270.146 113.089 271.114L113.629 274.216C114.052 276.663 111.427 278.513 109.181 277.36L106.337 275.895C105.418 275.439 104.353 275.439 103.463 275.895Z" fill="white"/>
<path d="M46.0636 256.322L43.2196 254.856C40.9736 253.704 38.3484 255.568 38.7713 258.001L39.311 261.103C39.486 262.07 39.1505 263.067 38.4359 263.75L36.1315 265.941C34.3085 267.662 35.3148 270.679 37.8233 271.035L41.0174 271.49C42.0091 271.632 42.8842 272.244 43.3217 273.126L44.751 275.944C45.874 278.163 49.1264 278.163 50.2494 275.944L51.6787 273.126C52.1308 272.244 52.9913 271.632 53.983 271.49L57.1771 271.035C59.6856 270.679 60.6919 267.662 58.8689 265.941L56.5645 263.75C55.8499 263.067 55.5144 262.07 55.6894 261.103L56.2291 258.001C56.652 255.554 54.0268 253.704 51.7808 254.856L48.9368 256.322C48.0179 256.777 46.9533 256.777 46.0636 256.322Z" fill="white"/>
</g>
<g opacity="0.16">
<path d="M332.345 92.5758L328.079 90.3775C324.71 88.6487 320.772 91.4446 321.407 95.0943L322.216 99.7472C322.479 101.199 321.975 102.693 320.903 103.717L317.447 107.004C314.712 109.586 316.222 114.111 319.985 114.645L324.776 115.328C326.263 115.541 327.576 116.459 328.232 117.782L330.376 122.008C332.061 125.338 336.939 125.338 338.624 122.008L340.768 117.782C341.446 116.459 342.737 115.541 344.224 115.328L349.015 114.645C352.778 114.111 354.288 109.586 351.553 107.004L348.096 103.717C347.024 102.693 346.521 101.199 346.784 99.7472L347.593 95.0943C348.228 91.4233 344.29 88.6487 340.921 90.3775L336.655 92.5758C335.277 93.2588 333.68 93.2588 332.345 92.5758Z" fill="white"/>
<path d="M274.945 121.435L270.679 123.633C267.31 125.362 263.372 122.566 264.007 118.916L264.816 114.264C265.079 112.812 264.575 111.318 263.503 110.294L260.047 107.007C257.312 104.424 258.822 99.8995 262.585 99.366L267.376 98.683C268.863 98.4695 270.176 97.5518 270.832 96.2285L272.976 92.0025C274.661 88.673 279.539 88.673 281.224 92.0025L283.368 96.2285C284.046 97.5518 285.337 98.4695 286.824 98.683L291.615 99.366C295.378 99.8995 296.888 104.424 294.153 107.007L290.696 110.294C289.624 111.318 289.121 112.812 289.384 114.264L290.193 118.916C290.828 122.587 286.89 125.362 283.521 123.633L279.255 121.435C277.877 120.752 276.28 120.752 274.945 121.435Z" fill="white"/>
<path d="M217.545 92.5758L213.279 90.3775C209.91 88.6487 205.972 91.4446 206.607 95.0943L207.416 99.7472C207.679 101.199 207.176 102.693 206.104 103.717L202.647 107.004C199.912 109.586 201.422 114.111 205.185 114.645L209.976 115.328C211.463 115.541 212.776 116.459 213.432 117.782L215.576 122.008C217.261 125.338 222.139 125.338 223.824 122.008L225.968 117.782C226.646 116.459 227.937 115.541 229.424 115.328L234.215 114.645C237.978 114.111 239.488 109.586 236.753 107.004L233.296 103.717C232.224 102.693 231.721 101.199 231.984 99.7472L232.793 95.0943C233.428 91.4233 229.49 88.6487 226.121 90.3775L221.855 92.5758C220.477 93.2588 218.88 93.2588 217.545 92.5758Z" fill="white"/>
<path d="M160.145 121.435L155.879 123.633C152.51 125.362 148.572 122.566 149.207 118.916L150.016 114.264C150.279 112.812 149.776 111.318 148.704 110.294L145.247 107.007C142.512 104.424 144.022 99.8995 147.785 99.366L152.576 98.683C154.063 98.4695 155.376 97.5518 156.032 96.2285L158.176 92.0025C159.861 88.673 164.739 88.673 166.424 92.0025L168.568 96.2285C169.246 97.5518 170.537 98.4695 172.024 98.683L176.815 99.366C180.578 99.8995 182.088 104.424 179.353 107.007L175.896 110.294C174.825 111.318 174.321 112.812 174.584 114.264L175.393 118.916C176.028 122.587 172.09 125.362 168.721 123.633L164.455 121.435C163.077 120.752 161.48 120.752 160.145 121.435Z" fill="white"/>
<path d="M102.745 92.5758L98.4792 90.3775C95.1102 88.6487 91.1724 91.4446 91.8068 95.0943L92.6162 99.7472C92.8788 101.199 92.3756 102.693 91.3036 103.717L87.8471 107.004C85.1125 109.586 86.622 114.111 90.3848 114.645L95.1758 115.328C96.6635 115.541 97.9761 116.459 98.6324 117.782L100.776 122.008C102.461 125.338 107.339 125.338 109.024 122.008L111.168 117.782C111.846 116.459 113.137 115.541 114.624 115.328L119.415 114.645C123.178 114.111 124.688 109.586 121.953 107.004L118.497 103.717C117.425 102.693 116.921 101.199 117.184 99.7472L117.993 95.0943C118.628 91.4233 114.69 88.6487 111.321 90.3775L107.055 92.5758C105.677 93.2588 104.08 93.2588 102.745 92.5758Z" fill="white"/>
<path d="M45.3449 121.435L41.0789 123.633C37.7099 125.362 33.7721 122.566 34.4065 118.916L35.216 114.264C35.4785 112.812 34.9753 111.318 33.9033 110.294L30.4468 107.007C27.7122 104.424 29.2217 99.8995 32.9845 99.366L37.7755 98.683C39.2632 98.4695 40.5758 97.5518 41.2321 96.2285L43.376 92.0025C45.0605 88.673 49.9391 88.673 51.6236 92.0025L53.7675 96.2285C54.4457 97.5518 55.7364 98.4695 57.2241 98.683L62.0151 99.366C65.7779 99.8995 67.2874 104.424 64.5528 107.007L61.0963 110.294C60.0243 111.318 59.5211 112.812 59.7837 114.264L60.5931 118.916C61.2275 122.587 57.2897 125.362 53.9207 123.633L49.6547 121.435C48.2764 120.752 46.6794 120.752 45.3449 121.435Z" fill="white"/>
</g>
<g opacity="0.08">
<path d="M332.824 205.671L329.506 203.961C326.886 202.617 323.823 204.791 324.316 207.63L324.946 211.249C325.15 212.378 324.759 213.54 323.925 214.337L321.237 216.893C319.11 218.902 320.284 222.421 323.21 222.836L326.937 223.367C328.094 223.533 329.115 224.247 329.625 225.276L331.293 228.563C332.603 231.153 336.397 231.153 337.707 228.563L339.375 225.276C339.902 224.247 340.906 223.533 342.063 223.367L345.79 222.836C348.716 222.421 349.89 218.902 347.763 216.893L345.075 214.337C344.241 213.54 343.85 212.378 344.054 211.249L344.684 207.63C345.177 204.775 342.114 202.617 339.494 203.961L336.176 205.671C335.104 206.203 333.862 206.203 332.824 205.671Z" fill="white"/>
<path d="M275.424 228.339L272.106 230.049C269.486 231.394 266.423 229.219 266.916 226.381L267.546 222.762C267.75 221.633 267.359 220.471 266.525 219.674L263.837 217.118C261.71 215.109 262.884 211.59 265.81 211.175L269.537 210.644C270.694 210.478 271.715 209.764 272.225 208.734L273.893 205.448C275.203 202.858 278.997 202.858 280.307 205.448L281.975 208.734C282.502 209.764 283.506 210.478 284.663 210.644L288.39 211.175C291.316 211.59 292.49 215.109 290.363 217.118L287.675 219.674C286.841 220.471 286.45 221.633 286.654 222.762L287.284 226.381C287.777 229.236 284.714 231.394 282.094 230.049L278.776 228.339C277.704 227.808 276.462 227.808 275.424 228.339Z" fill="white"/>
<path d="M218.024 205.671L214.706 203.961C212.086 202.617 209.023 204.791 209.516 207.63L210.146 211.249C210.35 212.378 209.959 213.54 209.125 214.337L206.437 216.893C204.31 218.902 205.484 222.421 208.41 222.836L212.137 223.367C213.294 223.533 214.315 224.247 214.825 225.276L216.493 228.563C217.803 231.153 221.597 231.153 222.907 228.563L224.575 225.276C225.102 224.247 226.106 223.533 227.263 223.367L230.99 222.836C233.916 222.421 235.09 218.902 232.963 216.893L230.275 214.337C229.441 213.54 229.05 212.378 229.254 211.249L229.884 207.63C230.377 204.775 227.314 202.617 224.694 203.961L221.376 205.671C220.304 206.203 219.062 206.203 218.024 205.671Z" fill="white"/>
<path d="M160.624 228.339L157.306 230.049C154.686 231.394 151.623 229.219 152.116 226.381L152.746 222.762C152.95 221.633 152.559 220.471 151.725 219.674L149.037 217.118C146.91 215.109 148.084 211.59 151.01 211.175L154.737 210.644C155.894 210.478 156.915 209.764 157.425 208.734L159.093 205.448C160.403 202.858 164.197 202.858 165.507 205.448L167.175 208.734C167.702 209.764 168.706 210.478 169.863 210.644L173.59 211.175C176.516 211.59 177.69 215.109 175.564 217.118L172.875 219.674C172.041 220.471 171.65 221.633 171.854 222.762L172.484 226.381C172.977 229.236 169.914 231.394 167.294 230.049L163.976 228.339C162.904 227.808 161.662 227.808 160.624 228.339Z" fill="white"/>
<path d="M103.224 205.671L99.9059 203.961C97.2855 202.617 94.2228 204.791 94.7162 207.63L95.3458 211.249C95.55 212.378 95.1586 213.54 94.3249 214.337L91.6364 216.893C89.5095 218.902 90.6836 222.421 93.6102 222.836L97.3366 223.367C98.4936 223.533 99.5145 224.247 100.025 225.276L101.693 228.563C103.003 231.153 106.797 231.153 108.107 228.563L109.775 225.276C110.302 224.247 111.306 223.533 112.463 223.367L116.19 222.836C119.116 222.421 120.29 218.902 118.163 216.893L115.475 214.337C114.641 213.54 114.25 212.378 114.454 211.249L115.084 207.63C115.577 204.775 112.514 202.617 109.894 203.961L106.576 205.671C105.504 206.203 104.262 206.203 103.224 205.671Z" fill="white"/>
<path d="M45.8239 228.339L42.5059 230.049C39.8855 231.394 36.8228 229.219 37.3162 226.381L37.9458 222.762C38.15 221.633 37.7586 220.471 36.9249 219.674L34.2365 217.118C32.1095 215.109 33.2836 211.59 36.2102 211.175L39.9366 210.644C41.0936 210.478 42.1145 209.764 42.625 208.734L44.2925 205.448C45.6027 202.858 49.3971 202.858 50.7073 205.448L52.3748 208.734C52.9023 209.764 53.9062 210.478 55.0632 210.644L58.7896 211.175C61.7162 211.59 62.8903 215.109 60.7634 217.118L58.0749 219.674C57.2412 220.471 56.8498 221.633 57.054 222.762L57.6836 226.381C58.177 229.236 55.1143 231.394 52.4939 230.049L49.1759 228.339C48.1039 227.808 46.8618 227.808 45.8239 228.339Z" fill="white"/>
</g>
</g>
</svg>
