<svg width="375" height="327" viewBox="0 0 375 327" fill="none" xmlns="http://www.w3.org/2000/svg">
<path d="M39.7915 0H0V39.7915H39.7915V0Z" fill="#6E78E6"/>
<path d="M77.5965 9.95117H57.7007V29.8469H77.5965V9.95117Z" fill="#6E78E6"/>
<path d="M135.291 0H95.4996V39.7915H135.291V0Z" fill="#6E78E6"/>
<path d="M173.096 9.95117H153.2V29.8469H173.096V9.95117Z" fill="#6E78E6"/>
<path d="M29.8467 57.7007H9.95099V77.5964H29.8467V57.7007Z" fill="#6E78E6"/>
<path d="M87.5412 47.75H47.7498V87.5415H87.5412V47.75Z" fill="#6E78E6"/>
<path d="M125.346 57.7007H105.451V77.5964H125.346V57.7007Z" fill="#6E78E6"/>
<path d="M183.041 47.75H143.249V87.5415H183.041V47.75Z" fill="#6E78E6"/>
<path d="M39.7915 95.4995H0V135.291H39.7915V95.4995Z" fill="#6E78E6"/>
<path d="M77.5965 105.451H57.7007V125.346H77.5965V105.451Z" fill="#6E78E6"/>
<path d="M135.291 95.4995H95.4996V135.291H135.291V95.4995Z" fill="#6E78E6"/>
<path d="M173.096 105.451H153.2V125.346H173.096V105.451Z" fill="#6E78E6"/>
<path d="M29.8467 153.2H9.95099V173.096H29.8467V153.2Z" fill="#6E78E6"/>
<path d="M87.5412 143.25H47.7498V183.041H87.5412V143.25Z" fill="#6E78E6"/>
<path d="M125.346 153.2H105.451V173.096H125.346V153.2Z" fill="#6E78E6"/>
<path d="M183.041 143.25H143.249V183.041H183.041V143.25Z" fill="#6E78E6"/>
<path d="M39.7915 190.819H0V230.61H39.7915V190.819Z" fill="#6E78E6"/>
<path d="M77.5965 200.77H57.7007V220.666H77.5965V200.77Z" fill="#6E78E6"/>
<path d="M135.291 190.819H95.4996V230.61H135.291V190.819Z" fill="#6E78E6"/>
<path d="M173.096 200.77H153.2V220.666H173.096V200.77Z" fill="#6E78E6"/>
<path d="M29.8467 248.52H9.95099V268.415H29.8467V248.52Z" fill="#6E78E6"/>
<path d="M87.5412 238.569H47.7498V278.36H87.5412V238.569Z" fill="#6E78E6"/>
<path d="M125.346 248.52H105.451V268.415H125.346V248.52Z" fill="#6E78E6"/>
<path d="M183.041 238.569H143.249V278.36H183.041V238.569Z" fill="#6E78E6"/>
<path d="M39.7915 286.318H0V326.11H39.7915V286.318Z" fill="#6E78E6"/>
<path d="M77.5965 296.27H57.7007V316.165H77.5965V296.27Z" fill="#6E78E6"/>
<path d="M135.291 286.318H95.4996V326.11H135.291V286.318Z" fill="#6E78E6"/>
<path d="M173.096 296.27H153.2V316.165H173.096V296.27Z" fill="#6E78E6"/>
<path d="M230.791 0H190.999V39.7915H230.791V0Z" fill="#6E78E6"/>
<path d="M268.596 9.95117H248.7V29.8469H268.596V9.95117Z" fill="#6E78E6"/>
<path d="M326.29 0H286.499V39.7915H326.29V0Z" fill="#6E78E6"/>
<path d="M364.095 9.95117H344.199V29.8469H364.095V9.95117Z" fill="#6E78E6"/>
<path d="M220.846 57.7007H200.95V77.5964H220.846V57.7007Z" fill="#6E78E6"/>
<path d="M278.54 47.75H238.749V87.5415H278.54V47.75Z" fill="#6E78E6"/>
<path d="M316.345 57.7007H296.45V77.5964H316.345V57.7007Z" fill="#6E78E6"/>
<path d="M374.04 47.75H334.249V87.5415H374.04V47.75Z" fill="#6E78E6"/>
<path d="M230.791 95.4995H190.999V135.291H230.791V95.4995Z" fill="#6E78E6"/>
<path d="M268.596 105.451H248.7V125.346H268.596V105.451Z" fill="#6E78E6"/>
<path d="M326.29 95.4995H286.499V135.291H326.29V95.4995Z" fill="#6E78E6"/>
<path d="M364.095 105.451H344.199V125.346H364.095V105.451Z" fill="#6E78E6"/>
<path d="M220.846 153.2H200.95V173.096H220.846V153.2Z" fill="#6E78E6"/>
<path d="M278.54 143.25H238.749V183.041H278.54V143.25Z" fill="#6E78E6"/>
<path d="M316.345 153.2H296.45V173.096H316.345V153.2Z" fill="#6E78E6"/>
<path d="M374.04 143.25H334.249V183.041H374.04V143.25Z" fill="#6E78E6"/>
<path d="M230.791 190.819H190.999V230.61H230.791V190.819Z" fill="#6E78E6"/>
<path d="M268.596 200.77H248.7V220.666H268.596V200.77Z" fill="#6E78E6"/>
<path d="M326.29 190.819H286.499V230.61H326.29V190.819Z" fill="#6E78E6"/>
<path d="M364.095 200.77H344.199V220.666H364.095V200.77Z" fill="#6E78E6"/>
<path d="M220.846 248.52H200.95V268.415H220.846V248.52Z" fill="#6E78E6"/>
<path d="M278.54 238.569H238.749V278.36H278.54V238.569Z" fill="#6E78E6"/>
<path d="M316.345 248.52H296.45V268.415H316.345V248.52Z" fill="#6E78E6"/>
<path d="M374.04 238.569H334.249V278.36H374.04V238.569Z" fill="#6E78E6"/>
<path d="M230.791 286.318H190.999V326.11H230.791V286.318Z" fill="#6E78E6"/>
<path d="M268.596 296.27H248.7V316.165H268.596V296.27Z" fill="#6E78E6"/>
<path d="M326.29 286.318H286.499V326.11H326.29V286.318Z" fill="#6E78E6"/>
<path d="M364.095 296.27H344.199V316.165H364.095V296.27Z" fill="#6E78E6"/>
</svg>
