<svg width="375" height="321" viewBox="0 0 375 321" fill="none" xmlns="http://www.w3.org/2000/svg">
<path d="M354.144 320.775L374.04 286.319L334.249 286.319L354.144 320.775Z" fill="#6E78E6"/>
<path d="M306.395 312.161L316.339 294.933L296.45 294.933L306.395 312.161Z" fill="#6E78E6"/>
<path d="M258.645 320.775L278.541 286.319L238.749 286.319L258.645 320.775Z" fill="#6E78E6"/>
<path d="M210.895 312.161L220.84 294.933L200.95 294.933L210.895 312.161Z" fill="#6E78E6"/>
<path d="M354.144 264.411L364.089 247.183L344.2 247.183L354.144 264.411Z" fill="#6E78E6"/>
<path d="M306.395 273.025L326.29 238.569L286.499 238.569L306.395 273.025Z" fill="#6E78E6"/>
<path d="M258.645 264.411L268.59 247.183L248.7 247.183L258.645 264.411Z" fill="#6E78E6"/>
<path d="M210.895 273.025L230.791 238.569L190.999 238.569L210.895 273.025Z" fill="#6E78E6"/>
<path d="M354.144 225.275L374.04 190.819L334.249 190.819L354.144 225.275Z" fill="#6E78E6"/>
<path d="M306.395 216.661L316.339 199.433L296.45 199.433L306.395 216.661Z" fill="#6E78E6"/>
<path d="M258.645 225.275L278.541 190.819L238.749 190.819L258.645 225.275Z" fill="#6E78E6"/>
<path d="M210.895 216.661L220.84 199.433L200.95 199.433L210.895 216.661Z" fill="#6E78E6"/>
<path d="M354.144 168.911L364.089 151.683L344.2 151.683L354.144 168.911Z" fill="#6E78E6"/>
<path d="M306.395 177.525L326.29 143.069L286.499 143.069L306.395 177.525Z" fill="#6E78E6"/>
<path d="M258.645 168.911L268.59 151.683L248.7 151.683L258.645 168.911Z" fill="#6E78E6"/>
<path d="M210.895 177.525L230.791 143.069L190.999 143.069L210.895 177.525Z" fill="#6E78E6"/>
<path d="M354.144 129.956L374.04 95.4998L334.249 95.4998L354.144 129.956Z" fill="#6E78E6"/>
<path d="M306.395 121.342L316.339 104.114L296.45 104.114L306.395 121.342Z" fill="#6E78E6"/>
<path d="M258.645 129.956L278.541 95.4998L238.749 95.4998L258.645 129.956Z" fill="#6E78E6"/>
<path d="M210.895 121.342L220.84 104.114L200.95 104.114L210.895 121.342Z" fill="#6E78E6"/>
<path d="M354.144 73.5918L364.089 56.3637L344.2 56.3637L354.144 73.5918Z" fill="#6E78E6"/>
<path d="M306.395 82.2061L326.29 47.7498L286.499 47.7498L306.395 82.2061Z" fill="#6E78E6"/>
<path d="M258.645 73.5918L268.59 56.3637L248.7 56.3637L258.645 73.5918Z" fill="#6E78E6"/>
<path d="M210.895 82.2061L230.791 47.7498L190.999 47.7498L210.895 82.2061Z" fill="#6E78E6"/>
<path d="M354.144 34.4565L374.04 0.000301518L334.249 0.000298039L354.144 34.4565Z" fill="#6E78E6"/>
<path d="M306.395 25.8423L316.339 8.61416L296.45 8.61416L306.395 25.8423Z" fill="#6E78E6"/>
<path d="M258.645 34.4565L278.541 0.000301518L238.749 0.000298039L258.645 34.4565Z" fill="#6E78E6"/>
<path d="M210.895 25.8423L220.84 8.61416L200.95 8.61416L210.895 25.8423Z" fill="#6E78E6"/>
<path d="M163.145 320.775L183.041 286.319L143.25 286.319L163.145 320.775Z" fill="#6E78E6"/>
<path d="M115.395 312.161L125.34 294.933L105.451 294.933L115.395 312.161Z" fill="#6E78E6"/>
<path d="M67.6455 320.775L87.5413 286.319L47.7498 286.319L67.6455 320.775Z" fill="#6E78E6"/>
<path d="M19.8958 312.161L29.8406 294.933L9.95105 294.933L19.8958 312.161Z" fill="#6E78E6"/>
<path d="M163.145 264.411L173.09 247.183L153.2 247.183L163.145 264.411Z" fill="#6E78E6"/>
<path d="M115.395 273.025L135.291 238.569L95.4995 238.569L115.395 273.025Z" fill="#6E78E6"/>
<path d="M67.6456 264.411L77.5903 247.183L57.7008 247.183L67.6456 264.411Z" fill="#6E78E6"/>
<path d="M19.8958 273.025L39.7915 238.569L1.97612e-05 238.569L19.8958 273.025Z" fill="#6E78E6"/>
<path d="M163.145 225.275L183.041 190.819L143.25 190.819L163.145 225.275Z" fill="#6E78E6"/>
<path d="M115.395 216.661L125.34 199.433L105.451 199.433L115.395 216.661Z" fill="#6E78E6"/>
<path d="M67.6455 225.275L87.5413 190.819L47.7498 190.819L67.6455 225.275Z" fill="#6E78E6"/>
<path d="M19.8958 216.661L29.8406 199.433L9.95105 199.433L19.8958 216.661Z" fill="#6E78E6"/>
<path d="M163.145 168.911L173.09 151.683L153.2 151.683L163.145 168.911Z" fill="#6E78E6"/>
<path d="M115.395 177.525L135.291 143.069L95.4995 143.069L115.395 177.525Z" fill="#6E78E6"/>
<path d="M67.6456 168.911L77.5903 151.683L57.7008 151.683L67.6456 168.911Z" fill="#6E78E6"/>
<path d="M19.8958 177.525L39.7915 143.069L1.97612e-05 143.069L19.8958 177.525Z" fill="#6E78E6"/>
<path d="M163.145 129.956L183.041 95.4998L143.25 95.4998L163.145 129.956Z" fill="#6E78E6"/>
<path d="M115.395 121.342L125.34 104.114L105.451 104.114L115.395 121.342Z" fill="#6E78E6"/>
<path d="M67.6455 129.956L87.5413 95.4998L47.7498 95.4998L67.6455 129.956Z" fill="#6E78E6"/>
<path d="M19.8958 121.342L29.8406 104.114L9.95105 104.114L19.8958 121.342Z" fill="#6E78E6"/>
<path d="M163.145 73.5918L173.09 56.3637L153.2 56.3637L163.145 73.5918Z" fill="#6E78E6"/>
<path d="M115.395 82.2061L135.291 47.7498L95.4995 47.7498L115.395 82.2061Z" fill="#6E78E6"/>
<path d="M67.6456 73.5918L77.5903 56.3637L57.7008 56.3637L67.6456 73.5918Z" fill="#6E78E6"/>
<path d="M19.8958 82.2061L39.7915 47.7498L1.97612e-05 47.7498L19.8958 82.2061Z" fill="#6E78E6"/>
<path d="M163.145 34.4565L183.041 0.000301518L143.25 0.000298039L163.145 34.4565Z" fill="#6E78E6"/>
<path d="M115.395 25.8423L125.34 8.61416L105.451 8.61416L115.395 25.8423Z" fill="#6E78E6"/>
<path d="M67.6455 34.4565L87.5413 0.000301518L47.7498 0.000298039L67.6455 34.4565Z" fill="#6E78E6"/>
<path d="M19.8958 25.8423L29.8406 8.61416L9.95105 8.61416L19.8958 25.8423Z" fill="#6E78E6"/>
</svg>
