<svg width="382" height="348" viewBox="0 0 382 348" fill="none" xmlns="http://www.w3.org/2000/svg">
<mask id="mask0" mask-type="alpha" maskUnits="userSpaceOnUse" x="0" y="0" width="382" height="348">
<path d="M382 324C382 337.255 371.255 348 358 348L24 348C10.7452 348 2.95782e-05 337.255 2.84194e-05 324L2.19259e-06 24C1.03382e-06 10.7452 10.7452 2.02057e-06 24 8.61793e-07L358 -2.83374e-05C371.255 -2.94962e-05 382 10.7451 382 24L382 324Z" fill="#FFB428"/>
</mask>
<g mask="url(#mask0)">
<g opacity="0.2">
<path d="M71 44C71 55.052 62.052 64 51 64C39.948 64 31 55.052 31 44C31 32.948 39.948 24 51 24C62.052 24.0253 71 32.9734 71 44Z" fill="white"/>
<path d="M127 44C127 55.052 118.052 64 107 64C95.948 64 87 55.052 87 44C87 32.948 95.948 24 107 24C118.052 24.0253 127 32.9734 127 44Z" fill="white"/>
<path d="M183 44C183 55.052 174.052 64 163 64C151.948 64 143 55.052 143 44C143 32.948 151.948 24 163 24C174.052 24.0253 183 32.9734 183 44Z" fill="white"/>
<path d="M239 44C239 55.052 230.052 64 219 64C207.948 64 199 55.052 199 44C199 32.948 207.948 24 219 24C230.052 24.0253 239 32.9734 239 44Z" fill="white"/>
<path d="M295 44C295 55.052 286.052 64 275 64C263.948 64 255 55.052 255 44C255 32.948 263.948 24 275 24C286.052 24.0253 295 32.9734 295 44Z" fill="white"/>
<path d="M351 44C351 55.052 342.052 64 331 64C319.948 64 311 55.052 311 44C311 32.948 319.948 24 331 24C342.052 24.0253 351 32.9734 351 44Z" fill="white"/>
</g>
<g opacity="0.16">
<path d="M69 106C69 115.947 60.9468 124 51 124C41.0532 124 33 115.947 33 106C33 96.0532 41.0532 88 51 88C60.9468 88.0228 69 96.076 69 106Z" fill="white"/>
<path d="M125 106C125 115.947 116.947 124 107 124C97.0532 124 89 115.947 89 106C89 96.0532 97.0532 88 107 88C116.947 88.0228 125 96.076 125 106Z" fill="white"/>
<path d="M181 106C181 115.947 172.947 124 163 124C153.053 124 145 115.947 145 106C145 96.0532 153.053 88 163 88C172.947 88.0228 181 96.076 181 106Z" fill="white"/>
<path d="M237 106C237 115.947 228.947 124 219 124C209.053 124 201 115.947 201 106C201 96.0532 209.053 88 219 88C228.947 88.0228 237 96.076 237 106Z" fill="white"/>
<path d="M293 106C293 115.947 284.947 124 275 124C265.053 124 257 115.947 257 106C257 96.0532 265.053 88 275 88C284.947 88.0228 293 96.076 293 106Z" fill="white"/>
<path d="M349 106C349 115.947 340.947 124 331 124C321.053 124 313 115.947 313 106C313 96.0532 321.053 88 331 88C340.947 88.0228 349 96.076 349 106Z" fill="white"/>
</g>
<g opacity="0.12">
<path d="M67 164C67 172.842 59.8416 180 51 180C42.1584 180 35 172.842 35 164C35 155.158 42.1584 148 51 148C59.8416 148.02 67 155.179 67 164Z" fill="white"/>
<path d="M123 164C123 172.842 115.842 180 107 180C98.1584 180 91 172.842 91 164C91 155.158 98.1584 148 107 148C115.842 148.02 123 155.179 123 164Z" fill="white"/>
<path d="M179 164C179 172.842 171.842 180 163 180C154.158 180 147 172.842 147 164C147 155.158 154.158 148 163 148C171.842 148.02 179 155.179 179 164Z" fill="white"/>
<path d="M235 164C235 172.842 227.842 180 219 180C210.158 180 203 172.842 203 164C203 155.158 210.158 148 219 148C227.842 148.02 235 155.179 235 164Z" fill="white"/>
<path d="M291 164C291 172.842 283.842 180 275 180C266.158 180 259 172.842 259 164C259 155.158 266.158 148 275 148C283.842 148.02 291 155.179 291 164Z" fill="white"/>
<path d="M347 164C347 172.842 339.842 180 331 180C322.158 180 315 172.842 315 164C315 155.158 322.158 148 331 148C339.842 148.02 347 155.179 347 164Z" fill="white"/>
</g>
<g opacity="0.08">
<path d="M65 218C65 225.736 58.7364 232 51 232C43.2636 232 37 225.736 37 218C37 210.264 43.2636 204 51 204C58.7364 204.018 65 210.281 65 218Z" fill="white"/>
<path d="M121 218C121 225.736 114.736 232 107 232C99.2636 232 93 225.736 93 218C93 210.264 99.2636 204 107 204C114.736 204.018 121 210.281 121 218Z" fill="white"/>
<path d="M177 218C177 225.736 170.736 232 163 232C155.264 232 149 225.736 149 218C149 210.264 155.264 204 163 204C170.736 204.018 177 210.281 177 218Z" fill="white"/>
<path d="M233 218C233 225.736 226.736 232 219 232C211.264 232 205 225.736 205 218C205 210.264 211.264 204 219 204C226.736 204.018 233 210.281 233 218Z" fill="white"/>
<path d="M289 218C289 225.736 282.736 232 275 232C267.264 232 261 225.736 261 218C261 210.264 267.264 204 275 204C282.736 204.018 289 210.281 289 218Z" fill="white"/>
<path d="M345 218C345 225.736 338.736 232 331 232C323.264 232 317 225.736 317 218C317 210.264 323.264 204 331 204C338.736 204.018 345 210.281 345 218Z" fill="white"/>
</g>
<g opacity="0.04">
<path d="M63 268C63 274.631 57.6312 280 51 280C44.3688 280 39 274.631 39 268C39 261.369 44.3688 256 51 256C57.6312 256.015 63 261.384 63 268Z" fill="white"/>
<path d="M119 268C119 274.631 113.631 280 107 280C100.369 280 95 274.631 95 268C95 261.369 100.369 256 107 256C113.631 256.015 119 261.384 119 268Z" fill="white"/>
<path d="M175 268C175 274.631 169.631 280 163 280C156.369 280 151 274.631 151 268C151 261.369 156.369 256 163 256C169.631 256.015 175 261.384 175 268Z" fill="white"/>
<path d="M231 268C231 274.631 225.631 280 219 280C212.369 280 207 274.631 207 268C207 261.369 212.369 256 219 256C225.631 256.015 231 261.384 231 268Z" fill="white"/>
<path d="M287 268C287 274.631 281.631 280 275 280C268.369 280 263 274.631 263 268C263 261.369 268.369 256 275 256C281.631 256.015 287 261.384 287 268Z" fill="white"/>
<path d="M343 268C343 274.631 337.631 280 331 280C324.369 280 319 274.631 319 268C319 261.369 324.369 256 331 256C337.631 256.015 343 261.384 343 268Z" fill="white"/>
</g>
</g>
</svg>
