<svg width="375" height="321" viewBox="0 0 375 321" fill="none" xmlns="http://www.w3.org/2000/svg">
<path d="M354.144 321L374.04 286.544L334.249 286.544L354.144 321Z" fill="#82D773"/>
<path d="M306.395 312.386L316.339 295.158L296.45 295.158L306.395 312.386Z" fill="#82D773"/>
<path d="M258.645 321L278.541 286.544L238.749 286.544L258.645 321Z" fill="#82D773"/>
<path d="M210.895 312.386L220.84 295.158L200.95 295.158L210.895 312.386Z" fill="#82D773"/>
<path d="M354.144 264.636L364.089 247.408L344.2 247.408L354.144 264.636Z" fill="#82D773"/>
<path d="M306.395 273.25L326.29 238.794L286.499 238.794L306.395 273.25Z" fill="#82D773"/>
<path d="M258.645 264.636L268.59 247.408L248.7 247.408L258.645 264.636Z" fill="#82D773"/>
<path d="M210.895 273.25L230.791 238.794L190.999 238.794L210.895 273.25Z" fill="#82D773"/>
<path d="M354.144 225.5L374.04 191.044L334.249 191.044L354.144 225.5Z" fill="#82D773"/>
<path d="M306.395 216.886L316.339 199.658L296.45 199.658L306.395 216.886Z" fill="#82D773"/>
<path d="M258.645 225.5L278.541 191.044L238.749 191.044L258.645 225.5Z" fill="#82D773"/>
<path d="M210.895 216.886L220.84 199.658L200.95 199.658L210.895 216.886Z" fill="#82D773"/>
<path d="M354.144 169.136L364.089 151.908L344.2 151.908L354.144 169.136Z" fill="#82D773"/>
<path d="M306.395 177.75L326.29 143.294L286.499 143.294L306.395 177.75Z" fill="#82D773"/>
<path d="M258.645 169.136L268.59 151.908L248.7 151.908L258.645 169.136Z" fill="#82D773"/>
<path d="M210.895 177.75L230.791 143.294L190.999 143.294L210.895 177.75Z" fill="#82D773"/>
<path d="M354.144 130.181L374.04 95.7249L334.249 95.7249L354.144 130.181Z" fill="#82D773"/>
<path d="M306.395 121.567L316.339 104.339L296.45 104.339L306.395 121.567Z" fill="#82D773"/>
<path d="M258.645 130.181L278.541 95.7249L238.749 95.7249L258.645 130.181Z" fill="#82D773"/>
<path d="M210.895 121.567L220.84 104.339L200.95 104.339L210.895 121.567Z" fill="#82D773"/>
<path d="M354.144 73.8169L364.089 56.5888L344.2 56.5888L354.144 73.8169Z" fill="#82D773"/>
<path d="M306.395 82.4312L326.29 47.9749L286.499 47.9749L306.395 82.4312Z" fill="#82D773"/>
<path d="M258.645 73.8169L268.59 56.5888L248.7 56.5888L258.645 73.8169Z" fill="#82D773"/>
<path d="M210.895 82.4312L230.791 47.9749L190.999 47.9749L210.895 82.4312Z" fill="#82D773"/>
<path d="M354.144 34.6816L374.04 0.225399L334.249 0.225396L354.144 34.6816Z" fill="#82D773"/>
<path d="M306.395 26.0674L316.339 8.83926L296.45 8.83926L306.395 26.0674Z" fill="#82D773"/>
<path d="M258.645 34.6816L278.541 0.225399L238.749 0.225396L258.645 34.6816Z" fill="#82D773"/>
<path d="M210.895 26.0674L220.84 8.83926L200.95 8.83926L210.895 26.0674Z" fill="#82D773"/>
<path d="M163.145 321L183.041 286.544L143.25 286.544L163.145 321Z" fill="#82D773"/>
<path d="M115.395 312.386L125.34 295.158L105.451 295.158L115.395 312.386Z" fill="#82D773"/>
<path d="M67.6455 321L87.5413 286.544L47.7498 286.544L67.6455 321Z" fill="#82D773"/>
<path d="M19.8958 312.386L29.8406 295.158L9.95105 295.158L19.8958 312.386Z" fill="#82D773"/>
<path d="M163.145 264.636L173.09 247.408L153.2 247.408L163.145 264.636Z" fill="#82D773"/>
<path d="M115.395 273.25L135.291 238.794L95.4995 238.794L115.395 273.25Z" fill="#82D773"/>
<path d="M67.6456 264.636L77.5903 247.408L57.7008 247.408L67.6456 264.636Z" fill="#82D773"/>
<path d="M19.8958 273.25L39.7915 238.794L1.97612e-05 238.794L19.8958 273.25Z" fill="#82D773"/>
<path d="M163.145 225.5L183.041 191.044L143.25 191.044L163.145 225.5Z" fill="#82D773"/>
<path d="M115.395 216.886L125.34 199.658L105.451 199.658L115.395 216.886Z" fill="#82D773"/>
<path d="M67.6455 225.5L87.5413 191.044L47.7498 191.044L67.6455 225.5Z" fill="#82D773"/>
<path d="M19.8958 216.886L29.8406 199.658L9.95105 199.658L19.8958 216.886Z" fill="#82D773"/>
<path d="M163.145 169.136L173.09 151.908L153.2 151.908L163.145 169.136Z" fill="#82D773"/>
<path d="M115.395 177.75L135.291 143.294L95.4995 143.294L115.395 177.75Z" fill="#82D773"/>
<path d="M67.6456 169.136L77.5903 151.908L57.7008 151.908L67.6456 169.136Z" fill="#82D773"/>
<path d="M19.8958 177.75L39.7915 143.294L1.97612e-05 143.294L19.8958 177.75Z" fill="#82D773"/>
<path d="M163.145 130.181L183.041 95.7249L143.25 95.7249L163.145 130.181Z" fill="#82D773"/>
<path d="M115.395 121.567L125.34 104.339L105.451 104.339L115.395 121.567Z" fill="#82D773"/>
<path d="M67.6455 130.181L87.5413 95.7249L47.7498 95.7249L67.6455 130.181Z" fill="#82D773"/>
<path d="M19.8958 121.567L29.8406 104.339L9.95105 104.339L19.8958 121.567Z" fill="#82D773"/>
<path d="M163.145 73.8169L173.09 56.5888L153.2 56.5888L163.145 73.8169Z" fill="#82D773"/>
<path d="M115.395 82.4312L135.291 47.9749L95.4995 47.9749L115.395 82.4312Z" fill="#82D773"/>
<path d="M67.6456 73.8169L77.5903 56.5888L57.7008 56.5888L67.6456 73.8169Z" fill="#82D773"/>
<path d="M19.8958 82.4312L39.7915 47.9749L1.97612e-05 47.9749L19.8958 82.4312Z" fill="#82D773"/>
<path d="M163.145 34.6816L183.041 0.225399L143.25 0.225396L163.145 34.6816Z" fill="#82D773"/>
<path d="M115.395 26.0674L125.34 8.83926L105.451 8.83926L115.395 26.0674Z" fill="#82D773"/>
<path d="M67.6455 34.6816L87.5413 0.225399L47.7498 0.225396L67.6455 34.6816Z" fill="#82D773"/>
<path d="M19.8958 26.0674L29.8406 8.83926L9.95105 8.83926L19.8958 26.0674Z" fill="#82D773"/>
</svg>
