<svg width="374" height="348" viewBox="0 0 374 348" fill="none" xmlns="http://www.w3.org/2000/svg">
<mask id="mask0" mask-type="alpha" maskUnits="userSpaceOnUse" x="0" y="0" width="374" height="348">
<path d="M374 324C374 337.255 363.255 348 350 348L24 348C10.7452 348 -9.39372e-07 337.255 -2.09815e-06 324L-2.8325e-05 24C-2.94838e-05 10.7451 10.7451 1.23917e-06 24 8.03936e-08L350 -2.84194e-05C363.255 -2.95782e-05 374 10.7451 374 24L374 324Z" fill="#FABE41"/>
</mask>
<g mask="url(#mask0)">
<path opacity="0.04" d="M123 44C123 55.052 114.052 64 103 64C91.948 64 83 55.052 83 44C83 32.948 91.948 24 103 24C114.052 24.0253 123 32.9734 123 44Z" fill="white"/>
<path opacity="0.08" d="M179 44C179 55.052 170.052 64 159 64C147.948 64 139 55.052 139 44C139 32.948 147.948 24 159 24C170.052 24.0253 179 32.9734 179 44Z" fill="white"/>
<path opacity="0.12" d="M235 44C235 55.052 226.052 64 215 64C203.948 64 195 55.052 195 44C195 32.948 203.948 24 215 24C226.052 24.0253 235 32.9734 235 44Z" fill="white"/>
<path opacity="0.16" d="M291 44C291 55.052 282.052 64 271 64C259.948 64 251 55.052 251 44C251 32.948 259.948 24 271 24C282.052 24.0253 291 32.9734 291 44Z" fill="white"/>
<path opacity="0.2" d="M347 44C347 55.052 338.052 64 327 64C315.948 64 307 55.052 307 44C307 32.948 315.948 24 327 24C338.052 24.0253 347 32.9734 347 44Z" fill="white"/>
<path opacity="0.04" d="M121 106C121 115.947 112.947 124 103 124C93.0532 124 85 115.947 85 106C85 96.0532 93.0532 88 103 88C112.947 88.0228 121 96.076 121 106Z" fill="white"/>
<path opacity="0.08" d="M177 106C177 115.947 168.947 124 159 124C149.053 124 141 115.947 141 106C141 96.0532 149.053 88 159 88C168.947 88.0228 177 96.076 177 106Z" fill="white"/>
<path opacity="0.12" d="M233 106C233 115.947 224.947 124 215 124C205.053 124 197 115.947 197 106C197 96.0532 205.053 88 215 88C224.947 88.0228 233 96.076 233 106Z" fill="white"/>
<path opacity="0.16" d="M289 106C289 115.947 280.947 124 271 124C261.053 124 253 115.947 253 106C253 96.0532 261.053 88 271 88C280.947 88.0228 289 96.076 289 106Z" fill="white"/>
<path opacity="0.16" d="M345 106C345 115.947 336.947 124 327 124C317.053 124 309 115.947 309 106C309 96.0532 317.053 88 327 88C336.947 88.0228 345 96.076 345 106Z" fill="white"/>
<path opacity="0.04" d="M119 164C119 172.842 111.842 180 103 180C94.1584 180 87 172.842 87 164C87 155.158 94.1584 148 103 148C111.842 148.02 119 155.179 119 164Z" fill="white"/>
<path opacity="0.08" d="M175 164C175 172.842 167.842 180 159 180C150.158 180 143 172.842 143 164C143 155.158 150.158 148 159 148C167.842 148.02 175 155.179 175 164Z" fill="white"/>
<path opacity="0.12" d="M231 164C231 172.842 223.842 180 215 180C206.158 180 199 172.842 199 164C199 155.158 206.158 148 215 148C223.842 148.02 231 155.179 231 164Z" fill="white"/>
<path opacity="0.12" d="M287 164C287 172.842 279.842 180 271 180C262.158 180 255 172.842 255 164C255 155.158 262.158 148 271 148C279.842 148.02 287 155.179 287 164Z" fill="white"/>
<path opacity="0.12" d="M343 164C343 172.842 335.842 180 327 180C318.158 180 311 172.842 311 164C311 155.158 318.158 148 327 148C335.842 148.02 343 155.179 343 164Z" fill="white"/>
<path opacity="0.04" d="M117 218C117 225.736 110.736 232 103 232C95.2636 232 89 225.736 89 218C89 210.264 95.2636 204 103 204C110.736 204.018 117 210.281 117 218Z" fill="white"/>
<path opacity="0.08" d="M173 218C173 225.736 166.736 232 159 232C151.264 232 145 225.736 145 218C145 210.264 151.264 204 159 204C166.736 204.018 173 210.281 173 218Z" fill="white"/>
<path opacity="0.08" d="M229 218C229 225.736 222.736 232 215 232C207.264 232 201 225.736 201 218C201 210.264 207.264 204 215 204C222.736 204.018 229 210.281 229 218Z" fill="white"/>
<path opacity="0.08" d="M285 218C285 225.736 278.736 232 271 232C263.264 232 257 225.736 257 218C257 210.264 263.264 204 271 204C278.736 204.018 285 210.281 285 218Z" fill="white"/>
<path opacity="0.08" d="M341 218C341 225.736 334.736 232 327 232C319.264 232 313 225.736 313 218C313 210.264 319.264 204 327 204C334.736 204.018 341 210.281 341 218Z" fill="white"/>
<path opacity="0.04" d="M115 268C115 274.631 109.631 280 103 280C96.3688 280 91 274.631 91 268C91 261.369 96.3688 256 103 256C109.631 256.015 115 261.384 115 268Z" fill="white"/>
<path opacity="0.04" d="M171 268C171 274.631 165.631 280 159 280C152.369 280 147 274.631 147 268C147 261.369 152.369 256 159 256C165.631 256.015 171 261.384 171 268Z" fill="white"/>
<path opacity="0.04" d="M227 268C227 274.631 221.631 280 215 280C208.369 280 203 274.631 203 268C203 261.369 208.369 256 215 256C221.631 256.015 227 261.384 227 268Z" fill="white"/>
<path opacity="0.04" d="M283 268C283 274.631 277.631 280 271 280C264.369 280 259 274.631 259 268C259 261.369 264.369 256 271 256C277.631 256.015 283 261.384 283 268Z" fill="white"/>
<path opacity="0.04" d="M339 268C339 274.631 333.631 280 327 280C320.369 280 315 274.631 315 268C315 261.369 320.369 256 327 256C333.631 256.015 339 261.384 339 268Z" fill="white"/>
</g>
</svg>
