<svg width="374" height="348" viewBox="0 0 374 348" fill="none" xmlns="http://www.w3.org/2000/svg">
<mask id="mask0" mask-type="alpha" maskUnits="userSpaceOnUse" x="0" y="0" width="374" height="348">
<path d="M374 324C374 337.255 363.255 348 350 348L24 348C10.7452 348 -9.39372e-07 337.255 -2.09815e-06 324L-2.8325e-05 24C-2.94838e-05 10.7451 10.7451 1.23917e-06 24 8.03936e-08L350 -2.84194e-05C363.255 -2.95782e-05 374 10.7451 374 24L374 324Z" fill="#FABE41"/>
</mask>
<g mask="url(#mask0)">
<path opacity="0.2" d="M323.934 25.768C325.301 23.4107 328.696 23.4107 330.063 25.768L338.29 40.0062L346.517 54.2444C347.884 56.6018 346.187 59.5484 343.453 59.5484H326.998H310.544C307.833 59.5484 306.113 56.6018 307.48 54.2444L315.707 40.0062L323.934 25.768Z" fill="white"/>
<path opacity="0.16" d="M267.934 57.7803C269.301 60.1377 272.696 60.1377 274.063 57.7803L282.29 43.5421L290.517 29.3039C291.884 26.9466 290.187 23.9999 287.453 23.9999H270.998H254.544C251.833 23.9999 250.113 26.9466 251.48 29.3039L259.707 43.5421L267.934 57.7803Z" fill="white"/>
<path opacity="0.12" d="M211.934 25.768C213.301 23.4107 216.696 23.4107 218.063 25.768L226.29 40.0062L234.517 54.2444C235.884 56.6018 234.187 59.5484 231.453 59.5484H214.998H198.544C195.833 59.5484 194.113 56.6018 195.48 54.2444L203.707 40.0062L211.934 25.768Z" fill="white"/>
<path opacity="0.08" d="M155.934 57.7803C157.301 60.1377 160.696 60.1377 162.063 57.7803L170.29 43.5421L178.517 29.3039C179.884 26.9466 178.187 23.9999 175.453 23.9999H158.998H142.544C139.833 23.9999 138.113 26.9466 139.48 29.3039L147.707 43.5421L155.934 57.7803Z" fill="white"/>
<path opacity="0.04" d="M99.9339 25.768C101.301 23.4107 104.696 23.4107 106.063 25.768L114.29 40.0062L122.517 54.2444C123.884 56.6018 122.187 59.5484 119.453 59.5484H102.998H86.5443C83.8334 59.5484 82.1126 56.6018 83.4798 54.2444L91.7069 40.0062L99.9339 25.768Z" fill="white"/>
<path opacity="0.12" d="M324.547 148.956C325.641 147.071 328.357 147.071 329.45 148.956L336.032 160.347L342.614 171.738C343.707 173.623 342.35 175.981 340.162 175.981H326.999H313.835C311.667 175.981 310.29 173.623 311.384 171.738L317.965 160.347L324.547 148.956Z" fill="white"/>
<path opacity="0.12" d="M268.547 174.567C269.641 176.452 272.357 176.452 273.45 174.567L280.032 163.176L286.614 151.785C287.707 149.9 286.35 147.542 284.162 147.542H270.999H257.835C255.667 147.542 254.29 149.9 255.384 151.785L261.965 163.176L268.547 174.567Z" fill="white"/>
<path opacity="0.12" d="M212.547 148.956C213.641 147.071 216.357 147.071 217.45 148.956L224.032 160.347L230.614 171.738C231.707 173.623 230.35 175.981 228.162 175.981H214.999H201.835C199.667 175.981 198.29 173.623 199.384 171.738L205.965 160.347L212.547 148.956Z" fill="white"/>
<path opacity="0.08" d="M156.547 174.567C157.641 176.452 160.357 176.452 161.45 174.567L168.032 163.176L174.614 151.785C175.707 149.9 174.35 147.542 172.162 147.542H158.999H145.835C143.667 147.542 142.29 149.9 143.384 151.785L149.965 163.176L156.547 174.567Z" fill="white"/>
<path opacity="0.04" d="M100.547 148.956C101.641 147.071 104.357 147.071 105.45 148.956L112.032 160.347L118.614 171.738C119.707 173.623 118.35 175.981 116.162 175.981H102.999H89.8355C87.6667 175.981 86.29 173.623 87.3838 171.738L93.9655 160.347L100.547 148.956Z" fill="white"/>
<path opacity="0.04" d="M325.16 257.926C325.981 256.511 328.017 256.511 328.838 257.926L333.774 266.468L338.71 275.011C339.531 276.426 338.512 278.194 336.872 278.194H326.999H317.127C315.5 278.194 314.468 276.426 315.288 275.011L320.224 266.468L325.16 257.926Z" fill="white"/>
<path opacity="0.04" d="M269.16 277.133C269.981 278.547 272.017 278.547 272.838 277.133L277.774 268.59L282.71 260.047C283.531 258.633 282.512 256.865 280.872 256.865H270.999H261.127C259.5 256.865 258.468 258.633 259.288 260.047L264.224 268.59L269.16 277.133Z" fill="white"/>
<path opacity="0.04" d="M213.16 257.926C213.981 256.511 216.017 256.511 216.838 257.926L221.774 266.468L226.71 275.011C227.531 276.426 226.512 278.194 224.872 278.194H214.999H205.127C203.5 278.194 202.468 276.426 203.288 275.011L208.224 266.468L213.16 257.926Z" fill="white"/>
<path opacity="0.04" d="M157.16 277.133C157.981 278.547 160.017 278.547 160.838 277.133L165.774 268.59L170.71 260.047C171.531 258.633 170.512 256.865 168.872 256.865H158.999H149.127C147.5 256.865 146.468 258.633 147.288 260.047L152.224 268.59L157.16 277.133Z" fill="white"/>
<path opacity="0.04" d="M101.16 257.926C101.981 256.511 104.017 256.511 104.838 257.926L109.774 266.468L114.71 275.011C115.531 276.426 114.512 278.194 112.872 278.194H102.999H93.1266C91.5 278.194 90.4675 276.426 91.2879 275.011L96.2241 266.468L101.16 257.926Z" fill="white"/>
<path opacity="0.16" d="M324.241 117.951C325.471 120.072 328.526 120.072 329.757 117.951L337.161 105.136L344.565 92.322C345.796 90.2004 344.268 87.5484 341.807 87.5484H326.999H312.19C309.75 87.5484 308.201 90.2004 309.432 92.322L316.836 105.136L324.241 117.951Z" fill="white"/>
<path opacity="0.16" d="M268.241 89.1395C269.471 87.0179 272.526 87.0179 273.757 89.1395L281.161 101.954L288.565 114.768C289.796 116.89 288.268 119.542 285.807 119.542H270.999H256.19C253.75 119.542 252.201 116.89 253.432 114.768L260.836 101.954L268.241 89.1395Z" fill="white"/>
<path opacity="0.12" d="M212.241 117.951C213.471 120.072 216.526 120.072 217.757 117.951L225.161 105.136L232.565 92.322C233.796 90.2004 232.268 87.5484 229.807 87.5484H214.999H200.19C197.75 87.5484 196.201 90.2004 197.432 92.322L204.836 105.136L212.241 117.951Z" fill="white"/>
<path opacity="0.08" d="M156.241 89.1395C157.471 87.0179 160.526 87.0179 161.757 89.1395L169.161 101.954L176.565 114.768C177.796 116.89 176.268 119.542 173.807 119.542H158.999H144.19C141.75 119.542 140.201 116.89 141.432 114.768L148.836 101.954L156.241 89.1395Z" fill="white"/>
<path opacity="0.04" d="M100.241 117.951C101.471 120.072 104.526 120.072 105.757 117.951L113.161 105.136L120.565 92.322C121.796 90.2004 120.268 87.5484 117.807 87.5484H102.999H88.1899C85.7501 87.5484 84.2013 90.2004 85.4318 92.322L92.8362 105.136L100.241 117.951Z" fill="white"/>
<path opacity="0.08" d="M324.854 227.627C325.811 229.277 328.187 229.277 329.144 227.627L334.903 217.66L340.662 207.694C341.619 206.044 340.431 203.981 338.517 203.981H326.999H315.481C313.583 203.981 312.379 206.044 313.336 207.694L319.095 217.66L324.854 227.627Z" fill="white"/>
<path opacity="0.08" d="M268.854 205.219C269.811 203.568 272.187 203.568 273.144 205.219L278.903 215.185L284.662 225.152C285.619 226.802 284.431 228.865 282.517 228.865H270.999H259.481C257.583 228.865 256.379 226.802 257.336 225.152L263.095 215.185L268.854 205.219Z" fill="white"/>
<path opacity="0.08" d="M212.854 227.627C213.811 229.277 216.187 229.277 217.144 227.627L222.903 217.66L228.662 207.694C229.619 206.044 228.431 203.981 226.517 203.981H214.999H203.481C201.583 203.981 200.379 206.044 201.336 207.694L207.095 217.66L212.854 227.627Z" fill="white"/>
<path opacity="0.08" d="M156.854 205.219C157.811 203.568 160.187 203.568 161.144 205.219L166.903 215.185L172.662 225.152C173.619 226.802 172.431 228.865 170.517 228.865H158.999H147.481C145.583 228.865 144.379 226.802 145.336 225.152L151.095 215.185L156.854 205.219Z" fill="white"/>
<path opacity="0.04" d="M100.854 227.627C101.811 229.277 104.187 229.277 105.144 227.627L110.903 217.66L116.662 207.694C117.619 206.044 116.431 203.981 114.517 203.981H102.999H91.481C89.5834 203.981 88.3788 206.044 89.3359 207.694L95.0948 217.66L100.854 227.627Z" fill="white"/>
</g>
</svg>
