<svg width="375" height="327" viewBox="0 0 375 327" fill="none" xmlns="http://www.w3.org/2000/svg">
<mask id="mask0" mask-type="alpha" maskUnits="userSpaceOnUse" x="0" y="0" width="375" height="327">
<path d="M19.8958 39.7916C30.884 39.7916 39.7917 30.884 39.7917 19.8958C39.7917 8.90766 30.884 0 19.8958 0C8.90767 0 0 8.90766 0 19.8958C0 30.884 8.90767 39.7916 19.8958 39.7916Z" fill="#82D773"/>
<path d="M67.6457 29.8407C73.138 29.8407 77.5904 25.3883 77.5904 19.8959C77.5904 14.4036 73.138 9.95117 67.6457 9.95117C62.1533 9.95117 57.7009 14.4036 57.7009 19.8959C57.7009 25.3883 62.1533 29.8407 67.6457 29.8407Z" fill="#82D773"/>
<path d="M115.396 39.7916C126.384 39.7916 135.292 30.884 135.292 19.8958C135.292 8.90766 126.384 0 115.396 0C104.408 0 95.5 8.90766 95.5 19.8958C95.5 30.884 104.408 39.7916 115.396 39.7916Z" fill="#82D773"/>
<path d="M163.146 29.8407C168.638 29.8407 173.09 25.3883 173.09 19.8959C173.09 14.4036 168.638 9.95117 163.146 9.95117C157.653 9.95117 153.201 14.4036 153.201 19.8959C153.201 25.3883 157.653 29.8407 163.146 29.8407Z" fill="#82D773"/>
<path d="M19.8957 77.5906C25.388 77.5906 29.8404 73.1382 29.8404 67.6459C29.8404 62.1536 25.388 57.7012 19.8957 57.7012C14.4033 57.7012 9.95093 62.1536 9.95093 67.6459C9.95093 73.1382 14.4033 77.5906 19.8957 77.5906Z" fill="#82D773"/>
<path d="M67.6458 87.5417C78.634 87.5417 87.5417 78.634 87.5417 67.6458C87.5417 56.6577 78.634 47.75 67.6458 47.75C56.6577 47.75 47.75 56.6577 47.75 67.6458C47.75 78.634 56.6577 87.5417 67.6458 87.5417Z" fill="#82D773"/>
<path d="M115.396 77.5906C120.888 77.5906 125.34 73.1382 125.34 67.6459C125.34 62.1536 120.888 57.7012 115.396 57.7012C109.903 57.7012 105.451 62.1536 105.451 67.6459C105.451 73.1382 109.903 77.5906 115.396 77.5906Z" fill="#82D773"/>
<path d="M163.146 87.5417C174.134 87.5417 183.042 78.634 183.042 67.6458C183.042 56.6577 174.134 47.75 163.146 47.75C152.158 47.75 143.25 56.6577 143.25 67.6458C143.25 78.634 152.158 87.5417 163.146 87.5417Z" fill="#82D773"/>
<path d="M19.8958 135.291C30.884 135.291 39.7917 126.384 39.7917 115.395C39.7917 104.407 30.884 95.4995 19.8958 95.4995C8.90767 95.4995 0 104.407 0 115.395C0 126.384 8.90767 135.291 19.8958 135.291Z" fill="#82D773"/>
<path d="M67.6457 125.34C73.138 125.34 77.5904 120.888 77.5904 115.395C77.5904 109.903 73.138 105.451 67.6457 105.451C62.1533 105.451 57.7009 109.903 57.7009 115.395C57.7009 120.888 62.1533 125.34 67.6457 125.34Z" fill="#82D773"/>
<path d="M115.396 135.291C126.384 135.291 135.292 126.384 135.292 115.395C135.292 104.407 126.384 95.4995 115.396 95.4995C104.408 95.4995 95.5 104.407 95.5 115.395C95.5 126.384 104.408 135.291 115.396 135.291Z" fill="#82D773"/>
<path d="M163.146 125.34C168.638 125.34 173.09 120.888 173.09 115.395C173.09 109.903 168.638 105.451 163.146 105.451C157.653 105.451 153.201 109.903 153.201 115.395C153.201 120.888 157.653 125.34 163.146 125.34Z" fill="#82D773"/>
<path d="M19.8957 173.09C25.388 173.09 29.8404 168.638 29.8404 163.145C29.8404 157.653 25.388 153.201 19.8957 153.201C14.4033 153.201 9.95093 157.653 9.95093 163.145C9.95093 168.638 14.4033 173.09 19.8957 173.09Z" fill="#82D773"/>
<path d="M67.6458 183.041C78.634 183.041 87.5417 174.133 87.5417 163.145C87.5417 152.157 78.634 143.25 67.6458 143.25C56.6577 143.25 47.75 152.157 47.75 163.145C47.75 174.133 56.6577 183.041 67.6458 183.041Z" fill="#82D773"/>
<path d="M115.396 173.09C120.888 173.09 125.34 168.638 125.34 163.145C125.34 157.653 120.888 153.201 115.396 153.201C109.903 153.201 105.451 157.653 105.451 163.145C105.451 168.638 109.903 173.09 115.396 173.09Z" fill="#82D773"/>
<path d="M163.146 183.041C174.134 183.041 183.042 174.133 183.042 163.145C183.042 152.157 174.134 143.25 163.146 143.25C152.158 143.25 143.25 152.157 143.25 163.145C143.25 174.133 152.158 183.041 163.146 183.041Z" fill="#82D773"/>
<path d="M19.8958 230.792C30.884 230.792 39.7917 221.884 39.7917 210.896C39.7917 199.908 30.884 191 19.8958 191C8.90767 191 0 199.908 0 210.896C0 221.884 8.90767 230.792 19.8958 230.792Z" fill="#82D773"/>
<path d="M67.6457 220.84C73.138 220.84 77.5904 216.388 77.5904 210.895C77.5904 205.403 73.138 200.951 67.6457 200.951C62.1533 200.951 57.7009 205.403 57.7009 210.895C57.7009 216.388 62.1533 220.84 67.6457 220.84Z" fill="#82D773"/>
<path d="M115.396 230.792C126.384 230.792 135.292 221.884 135.292 210.896C135.292 199.908 126.384 191 115.396 191C104.408 191 95.5 199.908 95.5 210.896C95.5 221.884 104.408 230.792 115.396 230.792Z" fill="#82D773"/>
<path d="M163.146 220.84C168.638 220.84 173.09 216.388 173.09 210.895C173.09 205.403 168.638 200.951 163.146 200.951C157.653 200.951 153.201 205.403 153.201 210.895C153.201 216.388 157.653 220.84 163.146 220.84Z" fill="#82D773"/>
<path d="M19.8957 268.59C25.388 268.59 29.8404 264.138 29.8404 258.645C29.8404 253.153 25.388 248.701 19.8957 248.701C14.4033 248.701 9.95093 253.153 9.95093 258.645C9.95093 264.138 14.4033 268.59 19.8957 268.59Z" fill="#82D773"/>
<path d="M67.6458 278.542C78.634 278.542 87.5417 269.634 87.5417 258.646C87.5417 247.658 78.634 238.75 67.6458 238.75C56.6577 238.75 47.75 247.658 47.75 258.646C47.75 269.634 56.6577 278.542 67.6458 278.542Z" fill="#82D773"/>
<path d="M115.396 268.59C120.888 268.59 125.34 264.138 125.34 258.645C125.34 253.153 120.888 248.701 115.396 248.701C109.903 248.701 105.451 253.153 105.451 258.645C105.451 264.138 109.903 268.59 115.396 268.59Z" fill="#82D773"/>
<path d="M163.146 278.542C174.134 278.542 183.042 269.634 183.042 258.646C183.042 247.658 174.134 238.75 163.146 238.75C152.158 238.75 143.25 247.658 143.25 258.646C143.25 269.634 152.158 278.542 163.146 278.542Z" fill="#82D773"/>
<path d="M19.8958 326.291C30.884 326.291 39.7917 317.384 39.7917 306.395C39.7917 295.407 30.884 286.5 19.8958 286.5C8.90767 286.5 0 295.407 0 306.395C0 317.384 8.90767 326.291 19.8958 326.291Z" fill="#82D773"/>
<path d="M67.6457 316.341C73.138 316.341 77.5904 311.888 77.5904 306.396C77.5904 300.904 73.138 296.451 67.6457 296.451C62.1533 296.451 57.7009 300.904 57.7009 306.396C57.7009 311.888 62.1533 316.341 67.6457 316.341Z" fill="#82D773"/>
<path d="M115.396 326.291C126.384 326.291 135.292 317.384 135.292 306.395C135.292 295.407 126.384 286.5 115.396 286.5C104.408 286.5 95.5 295.407 95.5 306.395C95.5 317.384 104.408 326.291 115.396 326.291Z" fill="#82D773"/>
<path d="M163.146 316.341C168.638 316.341 173.09 311.888 173.09 306.396C173.09 300.904 168.638 296.451 163.146 296.451C157.653 296.451 153.201 300.904 153.201 306.396C153.201 311.888 157.653 316.341 163.146 316.341Z" fill="#82D773"/>
<path d="M210.896 39.7916C221.884 39.7916 230.792 30.884 230.792 19.8958C230.792 8.90766 221.884 0 210.896 0C199.908 0 191 8.90766 191 19.8958C191 30.884 199.908 39.7916 210.896 39.7916Z" fill="#82D773"/>
<path d="M258.646 29.8407C264.138 29.8407 268.59 25.3883 268.59 19.8959C268.59 14.4036 264.138 9.95117 258.646 9.95117C253.153 9.95117 248.701 14.4036 248.701 19.8959C248.701 25.3883 253.153 29.8407 258.646 29.8407Z" fill="#82D773"/>
<path d="M306.396 39.7916C317.384 39.7916 326.292 30.884 326.292 19.8958C326.292 8.90766 317.384 0 306.396 0C295.408 0 286.5 8.90766 286.5 19.8958C286.5 30.884 295.408 39.7916 306.396 39.7916Z" fill="#82D773"/>
<path d="M354.146 29.8407C359.638 29.8407 364.09 25.3883 364.09 19.8959C364.09 14.4036 359.638 9.95117 354.146 9.95117C348.653 9.95117 344.201 14.4036 344.201 19.8959C344.201 25.3883 348.653 29.8407 354.146 29.8407Z" fill="#82D773"/>
<path d="M210.896 77.5906C216.388 77.5906 220.84 73.1382 220.84 67.6459C220.84 62.1536 216.388 57.7012 210.896 57.7012C205.403 57.7012 200.951 62.1536 200.951 67.6459C200.951 73.1382 205.403 77.5906 210.896 77.5906Z" fill="#82D773"/>
<path d="M258.646 87.5417C269.634 87.5417 278.542 78.634 278.542 67.6458C278.542 56.6577 269.634 47.75 258.646 47.75C247.658 47.75 238.75 56.6577 238.75 67.6458C238.75 78.634 247.658 87.5417 258.646 87.5417Z" fill="#82D773"/>
<path d="M306.396 77.5906C311.888 77.5906 316.34 73.1382 316.34 67.6459C316.34 62.1536 311.888 57.7012 306.396 57.7012C300.903 57.7012 296.451 62.1536 296.451 67.6459C296.451 73.1382 300.903 77.5906 306.396 77.5906Z" fill="#82D773"/>
<path d="M354.146 87.5417C365.134 87.5417 374.042 78.634 374.042 67.6458C374.042 56.6577 365.134 47.75 354.146 47.75C343.158 47.75 334.25 56.6577 334.25 67.6458C334.25 78.634 343.158 87.5417 354.146 87.5417Z" fill="#82D773"/>
<path d="M210.896 135.291C221.884 135.291 230.792 126.384 230.792 115.395C230.792 104.407 221.884 95.4995 210.896 95.4995C199.908 95.4995 191 104.407 191 115.395C191 126.384 199.908 135.291 210.896 135.291Z" fill="#82D773"/>
<path d="M258.646 125.34C264.138 125.34 268.59 120.888 268.59 115.395C268.59 109.903 264.138 105.451 258.646 105.451C253.153 105.451 248.701 109.903 248.701 115.395C248.701 120.888 253.153 125.34 258.646 125.34Z" fill="#82D773"/>
<path d="M306.396 135.291C317.384 135.291 326.292 126.384 326.292 115.395C326.292 104.407 317.384 95.4995 306.396 95.4995C295.408 95.4995 286.5 104.407 286.5 115.395C286.5 126.384 295.408 135.291 306.396 135.291Z" fill="#82D773"/>
<path d="M354.146 125.34C359.638 125.34 364.09 120.888 364.09 115.395C364.09 109.903 359.638 105.451 354.146 105.451C348.653 105.451 344.201 109.903 344.201 115.395C344.201 120.888 348.653 125.34 354.146 125.34Z" fill="#82D773"/>
<path d="M210.896 173.09C216.388 173.09 220.84 168.638 220.84 163.145C220.84 157.653 216.388 153.201 210.896 153.201C205.403 153.201 200.951 157.653 200.951 163.145C200.951 168.638 205.403 173.09 210.896 173.09Z" fill="#82D773"/>
<path d="M258.646 183.041C269.634 183.041 278.542 174.133 278.542 163.145C278.542 152.157 269.634 143.25 258.646 143.25C247.658 143.25 238.75 152.157 238.75 163.145C238.75 174.133 247.658 183.041 258.646 183.041Z" fill="#82D773"/>
<path d="M306.396 173.09C311.888 173.09 316.34 168.638 316.34 163.145C316.34 157.653 311.888 153.201 306.396 153.201C300.903 153.201 296.451 157.653 296.451 163.145C296.451 168.638 300.903 173.09 306.396 173.09Z" fill="#82D773"/>
<path d="M354.146 183.041C365.134 183.041 374.042 174.133 374.042 163.145C374.042 152.157 365.134 143.25 354.146 143.25C343.158 143.25 334.25 152.157 334.25 163.145C334.25 174.133 343.158 183.041 354.146 183.041Z" fill="#82D773"/>
<path d="M210.896 230.792C221.884 230.792 230.792 221.884 230.792 210.896C230.792 199.908 221.884 191 210.896 191C199.908 191 191 199.908 191 210.896C191 221.884 199.908 230.792 210.896 230.792Z" fill="#82D773"/>
<path d="M258.646 220.84C264.138 220.84 268.59 216.388 268.59 210.895C268.59 205.403 264.138 200.951 258.646 200.951C253.153 200.951 248.701 205.403 248.701 210.895C248.701 216.388 253.153 220.84 258.646 220.84Z" fill="#82D773"/>
<path d="M306.396 230.792C317.384 230.792 326.292 221.884 326.292 210.896C326.292 199.908 317.384 191 306.396 191C295.408 191 286.5 199.908 286.5 210.896C286.5 221.884 295.408 230.792 306.396 230.792Z" fill="#82D773"/>
<path d="M354.146 220.84C359.638 220.84 364.09 216.388 364.09 210.895C364.09 205.403 359.638 200.951 354.146 200.951C348.653 200.951 344.201 205.403 344.201 210.895C344.201 216.388 348.653 220.84 354.146 220.84Z" fill="#82D773"/>
<path d="M210.896 268.59C216.388 268.59 220.84 264.138 220.84 258.645C220.84 253.153 216.388 248.701 210.896 248.701C205.403 248.701 200.951 253.153 200.951 258.645C200.951 264.138 205.403 268.59 210.896 268.59Z" fill="#82D773"/>
<path d="M258.646 278.542C269.634 278.542 278.542 269.634 278.542 258.646C278.542 247.658 269.634 238.75 258.646 238.75C247.658 238.75 238.75 247.658 238.75 258.646C238.75 269.634 247.658 278.542 258.646 278.542Z" fill="#82D773"/>
<path d="M306.396 268.59C311.888 268.59 316.34 264.138 316.34 258.645C316.34 253.153 311.888 248.701 306.396 248.701C300.903 248.701 296.451 253.153 296.451 258.645C296.451 264.138 300.903 268.59 306.396 268.59Z" fill="#82D773"/>
<path d="M354.146 278.542C365.134 278.542 374.042 269.634 374.042 258.646C374.042 247.658 365.134 238.75 354.146 238.75C343.158 238.75 334.25 247.658 334.25 258.646C334.25 269.634 343.158 278.542 354.146 278.542Z" fill="#82D773"/>
<path d="M210.896 326.291C221.884 326.291 230.792 317.384 230.792 306.395C230.792 295.407 221.884 286.5 210.896 286.5C199.908 286.5 191 295.407 191 306.395C191 317.384 199.908 326.291 210.896 326.291Z" fill="#82D773"/>
<path d="M258.646 316.341C264.138 316.341 268.59 311.888 268.59 306.396C268.59 300.904 264.138 296.451 258.646 296.451C253.153 296.451 248.701 300.904 248.701 306.396C248.701 311.888 253.153 316.341 258.646 316.341Z" fill="#82D773"/>
<path d="M306.396 326.291C317.384 326.291 326.292 317.384 326.292 306.395C326.292 295.407 317.384 286.5 306.396 286.5C295.408 286.5 286.5 295.407 286.5 306.395C286.5 317.384 295.408 326.291 306.396 326.291Z" fill="#82D773"/>
<path d="M354.146 316.341C359.638 316.341 364.09 311.888 364.09 306.396C364.09 300.904 359.638 296.451 354.146 296.451C348.653 296.451 344.201 300.904 344.201 306.396C344.201 311.888 348.653 316.341 354.146 316.341Z" fill="#82D773"/>
</mask>
<g mask="url(#mask0)">
<path d="M378 333L-3.99997 333L-4 17C-4 3.74512 6.74517 -7.00005 20 -7.00005L354 -7.00008C367.255 -7.00009 378 3.74508 378 16.9999L378 333Z" fill="#28BEC8"/>
</g>
</svg>
