<svg width="374" height="348" viewBox="0 0 374 348" fill="none" xmlns="http://www.w3.org/2000/svg">
<mask id="mask0" mask-type="alpha" maskUnits="userSpaceOnUse" x="0" y="0" width="374" height="348">
<path d="M374 324C374 337.255 363.255 348 350 348L24 348C10.7452 348 -9.39372e-07 337.255 -2.09815e-06 324L-2.8325e-05 24C-2.94838e-05 10.7451 10.7451 1.23917e-06 24 8.03936e-08L350 -2.84194e-05C363.255 -2.95782e-05 374 10.7451 374 24L374 324Z" fill="#FABE41"/>
</mask>
<g mask="url(#mask0)">
<path opacity="0.2" d="M328.106 62.4772L323.366 64.9199C319.622 66.8408 315.247 63.7341 315.952 59.6789L316.851 54.5091C317.143 52.8965 316.584 51.2365 315.393 50.0982L311.552 46.4461C308.514 43.5766 310.191 38.5491 314.372 37.9562L319.695 37.1973C321.348 36.9602 322.807 35.9405 323.536 34.4701L325.918 29.7746C327.79 26.0751 333.21 26.0751 335.082 29.7746L337.464 34.4701C338.218 35.9405 339.652 36.9602 341.305 37.1973L346.628 37.9562C350.809 38.5491 352.486 43.5766 349.448 46.4461L345.607 50.0982C344.416 51.2365 343.857 52.8965 344.149 54.5091L345.048 59.6789C345.753 63.7579 341.378 66.8408 337.634 64.9199L332.894 62.4772C331.363 61.7184 329.588 61.7184 328.106 62.4772Z" fill="white"/>
<path opacity="0.16" d="M270.706 30.0281L265.966 27.5855C262.222 25.6646 257.847 28.7712 258.552 32.8265L259.451 37.9963C259.743 39.6089 259.184 41.2689 257.993 42.4072L254.152 46.0593C251.114 48.9288 252.791 53.9563 256.972 54.5492L262.295 55.308C263.948 55.5452 265.407 56.5649 266.136 58.0352L268.518 62.7307C270.39 66.4302 275.81 66.4302 277.682 62.7307L280.064 58.0352C280.818 56.5649 282.252 55.5452 283.905 55.308L289.228 54.5492C293.409 53.9563 295.086 48.9288 292.048 46.0593L288.207 42.4072C287.016 41.2689 286.457 39.6089 286.749 37.9963L287.648 32.8265C288.353 28.7475 283.978 25.6646 280.234 27.5855L275.494 30.0281C273.963 30.787 272.189 30.787 270.706 30.0281Z" fill="white"/>
<path opacity="0.12" d="M213.306 62.4772L208.566 64.9199C204.822 66.8408 200.447 63.7341 201.152 59.6789L202.051 54.5091C202.343 52.8965 201.784 51.2365 200.593 50.0982L196.752 46.4461C193.714 43.5766 195.391 38.5491 199.572 37.9562L204.895 37.1973C206.548 36.9602 208.007 35.9405 208.736 34.4701L211.118 29.7746C212.99 26.0751 218.41 26.0751 220.282 29.7746L222.664 34.4701C223.418 35.9405 224.852 36.9602 226.505 37.1973L231.828 37.9562C236.009 38.5491 237.686 43.5766 234.648 46.4461L230.807 50.0982C229.616 51.2365 229.057 52.8965 229.349 54.5091L230.248 59.6789C230.953 63.7579 226.578 66.8408 222.834 64.9199L218.094 62.4772C216.563 61.7184 214.789 61.7184 213.306 62.4772Z" fill="white"/>
<path opacity="0.08" d="M155.906 30.0281L151.166 27.5855C147.422 25.6646 143.047 28.7712 143.752 32.8265L144.651 37.9963C144.943 39.6089 144.384 41.2689 143.193 42.4072L139.352 46.0593C136.314 48.9288 137.991 53.9563 142.172 54.5492L147.495 55.308C149.148 55.5452 150.607 56.5649 151.336 58.0352L153.718 62.7307C155.59 66.4302 161.01 66.4302 162.882 62.7307L165.264 58.0352C166.018 56.5649 167.452 55.5452 169.105 55.308L174.428 54.5492C178.609 53.9563 180.286 48.9288 177.248 46.0593L173.407 42.4072C172.216 41.2689 171.657 39.6089 171.949 37.9963L172.848 32.8265C173.553 28.7475 169.178 25.6646 165.434 27.5855L160.694 30.0281C159.163 30.787 157.388 30.787 155.906 30.0281Z" fill="white"/>
<path opacity="0.04" d="M98.5057 62.4772L93.7657 64.9199C90.0223 66.8408 85.647 63.7341 86.3519 59.6789L87.2513 54.5091C87.543 52.8965 86.9839 51.2365 85.7928 50.0982L81.9522 46.4461C78.9138 43.5766 80.591 38.5491 84.7719 37.9562L90.0953 37.1973C91.7482 36.9602 93.2066 35.9405 93.9359 34.4701L96.318 29.7746C98.1897 26.0751 103.61 26.0751 105.482 29.7746L107.864 34.4701C108.618 35.9405 110.052 36.9602 111.705 37.1973L117.028 37.9562C121.209 38.5491 122.886 43.5766 119.848 46.4461L116.007 50.0982C114.816 51.2365 114.257 52.8965 114.549 54.5091L115.448 59.6789C116.153 63.7579 111.778 66.8408 108.034 64.9199L103.294 62.4772C101.763 61.7184 99.9885 61.7184 98.5057 62.4772Z" fill="white"/>
<path opacity="0.12" d="M328.585 176.887L324.793 178.841C321.798 180.378 318.298 177.893 318.862 174.649L319.581 170.513C319.814 169.223 319.367 167.895 318.414 166.984L315.342 164.062C312.911 161.767 314.253 157.745 317.598 157.27L321.856 156.663C323.179 156.474 324.345 155.658 324.929 154.481L326.835 150.725C328.332 147.765 332.668 147.765 334.166 150.725L336.071 154.481C336.674 155.658 337.822 156.474 339.144 156.663L343.403 157.27C346.747 157.745 348.089 161.767 345.658 164.062L342.586 166.984C341.633 167.895 341.186 169.223 341.419 170.513L342.139 174.649C342.703 177.912 339.202 180.378 336.208 178.841L332.416 176.887C331.19 176.28 329.771 176.28 328.585 176.887Z" fill="white"/>
<path opacity="0.12" d="M271.185 151.124L267.393 149.169C264.398 147.633 260.898 150.118 261.462 153.362L262.181 157.498C262.414 158.788 261.967 160.116 261.014 161.027L257.942 163.948C255.511 166.244 256.853 170.266 260.198 170.74L264.456 171.347C265.779 171.537 266.945 172.353 267.529 173.529L269.434 177.286C270.932 180.245 275.268 180.245 276.766 177.286L278.671 173.529C279.274 172.353 280.422 171.537 281.744 171.347L286.003 170.74C289.347 170.266 290.689 166.244 288.258 163.948L285.186 161.027C284.233 160.116 283.786 158.788 284.019 157.498L284.739 153.362C285.302 150.099 281.802 147.633 278.807 149.169L275.016 151.124C273.79 151.731 272.371 151.731 271.185 151.124Z" fill="white"/>
<path opacity="0.12" d="M213.784 176.887L209.992 178.841C206.998 180.378 203.498 177.893 204.061 174.649L204.781 170.513C205.014 169.223 204.567 167.895 203.614 166.984L200.542 164.062C198.111 161.767 199.453 157.745 202.797 157.27L207.056 156.663C208.378 156.474 209.545 155.658 210.129 154.481L212.034 150.725C213.532 147.765 217.868 147.765 219.366 150.725L221.271 154.481C221.874 155.658 223.021 156.474 224.344 156.663L228.602 157.27C231.947 157.745 233.289 161.767 230.858 164.062L227.786 166.984C226.833 167.895 226.386 169.223 226.619 170.513L227.338 174.649C227.902 177.912 224.402 180.378 221.407 178.841L217.615 176.887C216.39 176.28 214.971 176.28 213.784 176.887Z" fill="white"/>
<path opacity="0.08" d="M156.385 151.124L152.593 149.169C149.598 147.633 146.098 150.118 146.662 153.362L147.381 157.498C147.614 158.788 147.167 160.116 146.214 161.027L143.142 163.948C140.711 166.244 142.053 170.266 145.398 170.74L149.656 171.347C150.979 171.537 152.145 172.353 152.729 173.529L154.634 177.286C156.132 180.245 160.468 180.245 161.966 177.286L163.871 173.529C164.474 172.353 165.621 171.537 166.944 171.347L171.202 170.74C174.547 170.266 175.889 166.244 173.458 163.948L170.386 161.027C169.433 160.116 168.986 158.788 169.219 157.498L169.938 153.362C170.502 150.099 167.002 147.633 164.007 149.169L160.215 151.124C158.99 151.731 157.571 151.731 156.385 151.124Z" fill="white"/>
<path opacity="0.04" d="M98.9846 176.887L95.1926 178.841C92.1979 180.378 88.6976 177.893 89.2615 174.649L89.981 170.513C90.2144 169.223 89.7671 167.895 88.8143 166.984L85.7418 164.062C83.311 161.767 84.6528 157.745 87.9975 157.27L92.2562 156.663C93.5786 156.474 94.7453 155.658 95.3287 154.481L97.2344 150.725C98.7318 147.765 103.068 147.765 104.566 150.725L106.471 154.481C107.074 155.658 108.221 156.474 109.544 156.663L113.803 157.27C117.147 157.745 118.489 161.767 116.058 164.062L112.986 166.984C112.033 167.895 111.586 169.223 111.819 170.513L112.539 174.649C113.102 177.912 109.602 180.378 106.607 178.841L102.815 176.887C101.59 176.28 100.171 176.28 98.9846 176.887Z" fill="white"/>
<path opacity="0.04" d="M329.063 275.895L326.219 277.36C323.973 278.513 321.348 276.649 321.771 274.216L322.311 271.114C322.486 270.146 322.15 269.15 321.436 268.467L319.131 266.276C317.308 264.554 318.315 261.538 320.823 261.182L324.017 260.727C325.009 260.585 325.884 259.973 326.322 259.09L327.751 256.273C328.874 254.053 332.126 254.053 333.249 256.273L334.679 259.09C335.131 259.973 335.991 260.585 336.983 260.727L340.177 261.182C342.685 261.538 343.692 264.554 341.869 266.276L339.564 268.467C338.85 269.15 338.514 270.146 338.689 271.114L339.229 274.216C339.652 276.663 337.027 278.513 334.781 277.36L331.937 275.895C331.018 275.439 329.953 275.439 329.063 275.895Z" fill="white"/>
<path opacity="0.04" d="M271.663 256.322L268.819 254.856C266.573 253.704 263.948 255.568 264.371 258.001L264.911 261.103C265.086 262.07 264.75 263.067 264.036 263.75L261.731 265.941C259.908 267.662 260.915 270.679 263.423 271.035L266.617 271.49C267.609 271.632 268.484 272.244 268.921 273.126L270.351 275.944C271.474 278.163 274.726 278.163 275.849 275.944L277.278 273.126C277.731 272.244 278.591 271.632 279.583 271.49L282.777 271.035C285.285 270.679 286.292 267.662 284.469 265.941L282.164 263.75C281.45 263.067 281.114 262.07 281.289 261.103L281.829 258.001C282.252 255.554 279.627 253.704 277.38 254.856L274.537 256.322C273.618 256.777 272.553 256.777 271.663 256.322Z" fill="white"/>
<path opacity="0.04" d="M214.263 275.895L211.419 277.36C209.173 278.513 206.548 276.649 206.971 274.216L207.511 271.114C207.686 270.146 207.35 269.15 206.636 268.467L204.331 266.276C202.508 264.554 203.515 261.538 206.023 261.182L209.217 260.727C210.209 260.585 211.084 259.973 211.522 259.09L212.951 256.273C214.074 254.053 217.326 254.053 218.449 256.273L219.878 259.09C220.331 259.973 221.191 260.585 222.183 260.727L225.377 261.182C227.885 261.538 228.892 264.554 227.069 266.276L224.764 268.467C224.05 269.15 223.714 270.146 223.889 271.114L224.429 274.216C224.852 276.663 222.227 278.513 219.981 277.36L217.137 275.895C216.218 275.439 215.153 275.439 214.263 275.895Z" fill="white"/>
<path opacity="0.04" d="M156.863 256.322L154.019 254.856C151.773 253.704 149.148 255.568 149.571 258.001L150.111 261.103C150.286 262.07 149.95 263.067 149.236 263.75L146.931 265.941C145.108 267.662 146.115 270.679 148.623 271.035L151.817 271.49C152.809 271.632 153.684 272.244 154.122 273.126L155.551 275.944C156.674 278.163 159.926 278.163 161.049 275.944L162.479 273.126C162.931 272.244 163.791 271.632 164.783 271.49L167.977 271.035C170.485 270.679 171.492 267.662 169.669 265.941L167.364 263.75C166.65 263.067 166.314 262.07 166.489 261.103L167.029 258.001C167.452 255.554 164.827 253.704 162.581 254.856L159.737 256.322C158.818 256.777 157.753 256.777 156.863 256.322Z" fill="white"/>
<path opacity="0.04" d="M99.4635 275.895L96.6195 277.36C94.3735 278.513 91.7482 276.649 92.1712 274.216L92.7108 271.114C92.8858 270.146 92.5504 269.15 91.8358 268.467L89.5314 266.276C87.7083 264.554 88.7147 261.538 91.2232 261.182L94.4172 260.727C95.409 260.585 96.284 259.973 96.7216 259.09L98.1509 256.273C99.2739 254.053 102.526 254.053 103.649 256.273L105.079 259.09C105.531 259.973 106.391 260.585 107.383 260.727L110.577 261.182C113.085 261.538 114.092 264.554 112.269 266.276L109.964 268.467C109.25 269.15 108.914 270.146 109.089 271.114L109.629 274.216C110.052 276.663 107.427 278.513 105.181 277.36L102.337 275.895C101.418 275.439 100.353 275.439 99.4635 275.895Z" fill="white"/>
<path opacity="0.16" d="M328.345 92.5758L324.079 90.3775C320.71 88.6487 316.772 91.4446 317.407 95.0943L318.216 99.7472C318.479 101.199 317.975 102.693 316.903 103.717L313.447 107.004C310.712 109.586 312.222 114.111 315.985 114.645L320.776 115.328C322.263 115.541 323.576 116.459 324.232 117.782L326.376 122.008C328.061 125.338 332.939 125.338 334.624 122.008L336.768 117.782C337.446 116.459 338.737 115.541 340.224 115.328L345.015 114.645C348.778 114.111 350.288 109.586 347.553 107.004L344.096 103.717C343.024 102.693 342.521 101.199 342.784 99.7472L343.593 95.0943C344.228 91.4233 340.29 88.6487 336.921 90.3775L332.655 92.5758C331.277 93.2588 329.68 93.2588 328.345 92.5758Z" fill="white"/>
<path opacity="0.16" d="M270.945 121.435L266.679 123.633C263.31 125.362 259.372 122.566 260.007 118.916L260.816 114.264C261.079 112.812 260.576 111.318 259.504 110.294L256.047 107.007C253.312 104.424 254.822 99.8995 258.585 99.366L263.376 98.683C264.863 98.4695 266.176 97.5518 266.832 96.2285L268.976 92.0025C270.661 88.673 275.539 88.673 277.224 92.0025L279.368 96.2285C280.046 97.5518 281.337 98.4695 282.824 98.683L287.615 99.366C291.378 99.8995 292.888 104.424 290.153 107.007L286.696 110.294C285.625 111.318 285.121 112.812 285.384 114.264L286.193 118.916C286.828 122.587 282.89 125.362 279.521 123.633L275.255 121.435C273.877 120.752 272.28 120.752 270.945 121.435Z" fill="white"/>
<path opacity="0.12" d="M213.545 92.5758L209.279 90.3775C205.91 88.6487 201.972 91.4446 202.607 95.0943L203.416 99.7472C203.679 101.199 203.176 102.693 202.104 103.717L198.647 107.004C195.912 109.586 197.422 114.111 201.185 114.645L205.976 115.328C207.463 115.541 208.776 116.459 209.432 117.782L211.576 122.008C213.261 125.338 218.139 125.338 219.824 122.008L221.968 117.782C222.646 116.459 223.937 115.541 225.424 115.328L230.215 114.645C233.978 114.111 235.488 109.586 232.753 107.004L229.296 103.717C228.224 102.693 227.721 101.199 227.984 99.7472L228.793 95.0943C229.428 91.4233 225.49 88.6487 222.121 90.3775L217.855 92.5758C216.477 93.2588 214.88 93.2588 213.545 92.5758Z" fill="white"/>
<path opacity="0.08" d="M156.145 121.435L151.879 123.633C148.51 125.362 144.572 122.566 145.207 118.916L146.016 114.264C146.279 112.812 145.776 111.318 144.704 110.294L141.247 107.007C138.512 104.424 140.022 99.8995 143.785 99.366L148.576 98.683C150.063 98.4695 151.376 97.5518 152.032 96.2285L154.176 92.0025C155.861 88.673 160.739 88.673 162.424 92.0025L164.568 96.2285C165.246 97.5518 166.537 98.4695 168.024 98.683L172.815 99.366C176.578 99.8995 178.088 104.424 175.353 107.007L171.897 110.294C170.825 111.318 170.321 112.812 170.584 114.264L171.393 118.916C172.028 122.587 168.09 125.362 164.721 123.633L160.455 121.435C159.077 120.752 157.48 120.752 156.145 121.435Z" fill="white"/>
<path opacity="0.04" d="M98.7453 92.5758L94.4793 90.3775C91.1102 88.6487 87.1724 91.4446 87.8068 95.0943L88.6163 99.7472C88.8788 101.199 88.3756 102.693 87.3037 103.717L83.8471 107.004C81.1125 109.586 82.622 114.111 86.3848 114.645L91.1759 115.328C92.6635 115.541 93.9761 116.459 94.6324 117.782L96.7763 122.008C98.4609 125.338 103.339 125.338 105.024 122.008L107.168 117.782C107.846 116.459 109.137 115.541 110.624 115.328L115.415 114.645C119.178 114.111 120.688 109.586 117.953 107.004L114.497 103.717C113.425 102.693 112.921 101.199 113.184 99.7472L113.993 95.0943C114.628 91.4233 110.69 88.6487 107.321 90.3775L103.055 92.5758C101.677 93.2588 100.08 93.2588 98.7453 92.5758Z" fill="white"/>
<path opacity="0.08" d="M328.824 205.671L325.506 203.961C322.886 202.617 319.823 204.791 320.316 207.63L320.946 211.249C321.15 212.378 320.759 213.54 319.925 214.337L317.237 216.893C315.11 218.902 316.284 222.421 319.21 222.836L322.937 223.367C324.094 223.533 325.115 224.247 325.625 225.276L327.293 228.563C328.603 231.153 332.397 231.153 333.707 228.563L335.375 225.276C335.902 224.247 336.906 223.533 338.063 223.367L341.79 222.836C344.716 222.421 345.89 218.902 343.763 216.893L341.075 214.337C340.241 213.54 339.85 212.378 340.054 211.249L340.684 207.63C341.177 204.775 338.114 202.617 335.494 203.961L332.176 205.671C331.104 206.203 329.862 206.203 328.824 205.671Z" fill="white"/>
<path opacity="0.08" d="M271.424 228.339L268.106 230.049C265.486 231.394 262.423 229.219 262.916 226.381L263.546 222.762C263.75 221.633 263.359 220.471 262.525 219.674L259.837 217.118C257.71 215.109 258.884 211.59 261.81 211.175L265.537 210.644C266.694 210.478 267.715 209.764 268.225 208.734L269.893 205.448C271.203 202.858 274.997 202.858 276.307 205.448L277.975 208.734C278.502 209.764 279.506 210.478 280.663 210.644L284.39 211.175C287.316 211.59 288.49 215.109 286.363 217.118L283.675 219.674C282.841 220.471 282.45 221.633 282.654 222.762L283.284 226.381C283.777 229.236 280.714 231.394 278.094 230.049L274.776 228.339C273.704 227.808 272.462 227.808 271.424 228.339Z" fill="white"/>
<path opacity="0.08" d="M214.024 205.671L210.706 203.961C208.086 202.617 205.023 204.791 205.516 207.63L206.146 211.249C206.35 212.378 205.959 213.54 205.125 214.337L202.437 216.893C200.31 218.902 201.484 222.421 204.41 222.836L208.137 223.367C209.294 223.533 210.315 224.247 210.825 225.276L212.493 228.563C213.803 231.153 217.597 231.153 218.907 228.563L220.575 225.276C221.102 224.247 222.106 223.533 223.263 223.367L226.99 222.836C229.916 222.421 231.09 218.902 228.964 216.893L226.275 214.337C225.441 213.54 225.05 212.378 225.254 211.249L225.884 207.63C226.377 204.775 223.314 202.617 220.694 203.961L217.376 205.671C216.304 206.203 215.062 206.203 214.024 205.671Z" fill="white"/>
<path opacity="0.08" d="M156.624 228.339L153.306 230.049C150.686 231.394 147.623 229.219 148.116 226.381L148.746 222.762C148.95 221.633 148.559 220.471 147.725 219.674L145.037 217.118C142.91 215.109 144.084 211.59 147.01 211.175L150.737 210.644C151.894 210.478 152.915 209.764 153.425 208.734L155.093 205.448C156.403 202.858 160.197 202.858 161.508 205.448L163.175 208.734C163.702 209.764 164.706 210.478 165.863 210.644L169.59 211.175C172.516 211.59 173.691 215.109 171.564 217.118L168.875 219.674C168.041 220.471 167.65 221.633 167.854 222.762L168.484 226.381C168.977 229.236 165.914 231.394 163.294 230.049L159.976 228.339C158.904 227.808 157.662 227.808 156.624 228.339Z" fill="white"/>
<path opacity="0.04" d="M99.2239 205.671L95.9059 203.961C93.2856 202.617 90.2228 204.791 90.7162 207.63L91.3458 211.249C91.55 212.378 91.1586 213.54 90.3249 214.337L87.6365 216.893C85.5096 218.902 86.6836 222.421 89.6103 222.836L93.3366 223.367C94.4937 223.533 95.5146 224.247 96.025 225.276L97.6925 228.563C99.0027 231.153 102.797 231.153 104.107 228.563L105.775 225.276C106.302 224.247 107.306 223.533 108.463 223.367L112.19 222.836C115.116 222.421 116.29 218.902 114.163 216.893L111.475 214.337C110.641 213.54 110.25 212.378 110.454 211.249L111.084 207.63C111.577 204.775 108.514 202.617 105.894 203.961L102.576 205.671C101.504 206.203 100.262 206.203 99.2239 205.671Z" fill="white"/>
</g>
</svg>
