<svg width="382" height="348" viewBox="0 0 382 348" fill="none" xmlns="http://www.w3.org/2000/svg">
<mask id="mask0" mask-type="alpha" maskUnits="userSpaceOnUse" x="0" y="0" width="382" height="348">
<path d="M382 324C382 337.255 371.255 348 358 348L24 348C10.7452 348 2.95782e-05 337.255 2.84194e-05 324L2.19259e-06 24C1.03382e-06 10.7452 10.7452 2.02057e-06 24 8.61793e-07L358 -2.83374e-05C371.255 -2.94962e-05 382 10.7451 382 24L382 324Z" fill="#FFB428"/>
</mask>
<g mask="url(#mask0)">
<g opacity="0.2">
<path d="M75 30.0364V57.9636C75 60.7336 72.7336 63 69.9635 63H42.0364C39.2664 63 37 60.7336 37 57.9636V30.0364C37 27.2664 39.2664 25 42.0364 25H69.9635C72.7336 25 75 27.2412 75 30.0364Z" fill="white"/>
<path d="M183 30.0364V57.9636C183 60.7336 180.734 63 177.964 63H150.037C147.267 63 145 60.7336 145 57.9636V30.0364C145 27.2664 147.267 25 150.037 25H177.964C180.734 25 183 27.2412 183 30.0364Z" fill="white"/>
<path d="M291 30.0364V57.9636C291 60.7336 288.734 63 285.964 63H258.036C255.266 63 253 60.7336 253 57.9636V30.0364C253 27.2664 255.266 25 258.036 25H285.964C288.734 25 291 27.2412 291 30.0364Z" fill="white"/>
<path d="M129 30.0364V57.9636C129 60.7336 126.734 63 123.964 63H96.0364C93.2664 63 91 60.7336 91 57.9636V30.0364C91 27.2664 93.2664 25 96.0364 25H123.964C126.734 25 129 27.2412 129 30.0364Z" fill="white"/>
<path d="M237 30.0364V57.9636C237 60.7336 234.734 63 231.964 63H204.036C201.266 63 199 60.7336 199 57.9636V30.0364C199 27.2664 201.266 25 204.036 25H231.964C234.734 25 237 27.2412 237 30.0364Z" fill="white"/>
<path d="M345 30.0364V57.9636C345 60.7336 342.734 63 339.964 63H312.036C309.266 63 307 60.7336 307 57.9636V30.0364C307 27.2664 309.266 25 312.036 25H339.964C342.734 25 345 27.2412 345 30.0364Z" fill="white"/>
</g>
<g opacity="0.16">
<path d="M73.0001 93.5063V118.494C73.0001 120.972 70.9723 123 68.4938 123H43.5064C41.028 123 39.0001 120.972 39.0001 118.494V93.5063C39.0001 91.0278 41.028 89 43.5064 89H68.4938C70.9723 89 73.0001 91.0053 73.0001 93.5063Z" fill="white"/>
<path d="M181 93.5063V118.494C181 120.972 178.972 123 176.494 123H151.506C149.028 123 147 120.972 147 118.494V93.5063C147 91.0278 149.028 89 151.506 89H176.494C178.972 89 181 91.0053 181 93.5063Z" fill="white"/>
<path d="M289 93.5063V118.494C289 120.972 286.972 123 284.494 123H259.506C257.028 123 255 120.972 255 118.494V93.5063C255 91.0278 257.028 89 259.506 89H284.494C286.972 89 289 91.0053 289 93.5063Z" fill="white"/>
<path d="M127 93.5063V118.494C127 120.972 124.972 123 122.494 123H97.5064C95.028 123 93.0001 120.972 93.0001 118.494V93.5063C93.0001 91.0278 95.028 89 97.5064 89H122.494C124.972 89 127 91.0053 127 93.5063Z" fill="white"/>
<path d="M235 93.5063V118.494C235 120.972 232.972 123 230.494 123H205.506C203.028 123 201 120.972 201 118.494V93.5063C201 91.0278 203.028 89 205.506 89H230.494C232.972 89 235 91.0053 235 93.5063Z" fill="white"/>
<path d="M343 93.5063V118.494C343 120.972 340.972 123 338.494 123H313.506C311.028 123 309 120.972 309 118.494V93.5063C309 91.0278 311.028 89 313.506 89H338.494C340.972 89 343 91.0053 343 93.5063Z" fill="white"/>
</g>
<g opacity="0.12">
<path d="M71 152.976V175.024C71 177.211 69.2107 179 67.0239 179H44.9761C42.7893 179 41 177.211 41 175.024V152.976C41 150.789 42.7893 149 44.9761 149H67.0239C69.2107 149 71 150.769 71 152.976Z" fill="white"/>
<path d="M179 152.976V175.024C179 177.211 177.211 179 175.024 179H152.976C150.789 179 149 177.211 149 175.024V152.976C149 150.789 150.789 149 152.976 149H175.024C177.211 149 179 150.769 179 152.976Z" fill="white"/>
<path d="M287 152.976V175.024C287 177.211 285.211 179 283.024 179H260.976C258.789 179 257 177.211 257 175.024V152.976C257 150.789 258.789 149 260.976 149H283.024C285.211 149 287 150.769 287 152.976Z" fill="white"/>
<path d="M125 152.976V175.024C125 177.211 123.211 179 121.024 179H98.9761C96.7893 179 95 177.211 95 175.024V152.976C95 150.789 96.7893 149 98.9761 149H121.024C123.211 149 125 150.769 125 152.976Z" fill="white"/>
<path d="M233 152.976V175.024C233 177.211 231.211 179 229.024 179H206.976C204.789 179 203 177.211 203 175.024V152.976C203 150.789 204.789 149 206.976 149H229.024C231.211 149 233 150.769 233 152.976Z" fill="white"/>
<path d="M341 152.976V175.024C341 177.211 339.211 179 337.024 179H314.976C312.789 179 311 177.211 311 175.024V152.976C311 150.789 312.789 149 314.976 149H337.024C339.211 149 341 150.769 341 152.976Z" fill="white"/>
</g>
<g opacity="0.08">
<path d="M69.0001 208.446V227.554C69.0001 229.449 67.4494 231 65.5541 231H46.4461C44.5508 231 43.0001 229.449 43.0001 227.554V208.446C43.0001 206.551 44.5508 205 46.4461 205H65.5541C67.4494 205 69.0001 206.533 69.0001 208.446Z" fill="white"/>
<path d="M177 208.446V227.554C177 229.449 175.449 231 173.554 231H154.446C152.551 231 151 229.449 151 227.554V208.446C151 206.551 152.551 205 154.446 205H173.554C175.449 205 177 206.533 177 208.446Z" fill="white"/>
<path d="M285 208.446V227.554C285 229.449 283.449 231 281.554 231H262.446C260.551 231 259 229.449 259 227.554V208.446C259 206.551 260.551 205 262.446 205H281.554C283.449 205 285 206.533 285 208.446Z" fill="white"/>
<path d="M123 208.446V227.554C123 229.449 121.449 231 119.554 231H100.446C98.5508 231 97.0001 229.449 97.0001 227.554V208.446C97.0001 206.551 98.5508 205 100.446 205H119.554C121.449 205 123 206.533 123 208.446Z" fill="white"/>
<path d="M231 208.446V227.554C231 229.449 229.449 231 227.554 231H208.446C206.551 231 205 229.449 205 227.554V208.446C205 206.551 206.551 205 208.446 205H227.554C229.449 205 231 206.533 231 208.446Z" fill="white"/>
<path d="M339 208.446V227.554C339 229.449 337.449 231 335.554 231H316.446C314.551 231 313 229.449 313 227.554V208.446C313 206.551 314.551 205 316.446 205H335.554C337.449 205 339 206.533 339 208.446Z" fill="white"/>
</g>
<g opacity="0.04">
<path d="M67.0001 259.916V276.084C67.0001 277.688 65.688 279 64.0843 279H47.916C46.3122 279 45.0001 277.688 45.0001 276.084V259.916C45.0001 258.312 46.3122 257 47.916 257H64.0843C65.688 257 67.0001 258.298 67.0001 259.916Z" fill="white"/>
<path d="M175 259.916V276.084C175 277.688 173.688 279 172.084 279H155.916C154.312 279 153 277.688 153 276.084V259.916C153 258.312 154.312 257 155.916 257H172.084C173.688 257 175 258.298 175 259.916Z" fill="white"/>
<path d="M283 259.916V276.084C283 277.688 281.688 279 280.084 279H263.916C262.312 279 261 277.688 261 276.084V259.916C261 258.312 262.312 257 263.916 257H280.084C281.688 257 283 258.298 283 259.916Z" fill="white"/>
<path d="M121 259.916V276.084C121 277.688 119.688 279 118.084 279H101.916C100.312 279 99.0001 277.688 99.0001 276.084V259.916C99.0001 258.312 100.312 257 101.916 257H118.084C119.688 257 121 258.298 121 259.916Z" fill="white"/>
<path d="M229 259.916V276.084C229 277.688 227.688 279 226.084 279H209.916C208.312 279 207 277.688 207 276.084V259.916C207 258.312 208.312 257 209.916 257H226.084C227.688 257 229 258.298 229 259.916Z" fill="white"/>
<path d="M337 259.916V276.084C337 277.688 335.688 279 334.084 279H317.916C316.312 279 315 277.688 315 276.084V259.916C315 258.312 316.312 257 317.916 257H334.084C335.688 257 337 258.298 337 259.916Z" fill="white"/>
</g>
</g>
</svg>
