<svg width="374" height="348" viewBox="0 0 374 348" fill="none" xmlns="http://www.w3.org/2000/svg">
<mask id="mask0" mask-type="alpha" maskUnits="userSpaceOnUse" x="0" y="0" width="374" height="348">
<path d="M374 324C374 337.255 363.255 348 350 348L24 348C10.7452 348 -9.39372e-07 337.255 -2.09815e-06 324L-2.8325e-05 24C-2.94838e-05 10.7451 10.7451 1.23917e-06 24 8.03936e-08L350 -2.84194e-05C363.255 -2.95782e-05 374 10.7451 374 24L374 324Z" fill="#FABE41"/>
</mask>
<g mask="url(#mask0)">
<path opacity="0.08" d="M179 30.0364V57.9636C179 60.7336 176.734 63 173.964 63H146.036C143.266 63 141 60.7336 141 57.9636V30.0364C141 27.2664 143.266 25 146.036 25H173.964C176.734 25 179 27.2412 179 30.0364Z" fill="white"/>
<path opacity="0.16" d="M287 30.0364V57.9636C287 60.7336 284.734 63 281.964 63H254.036C251.266 63 249 60.7336 249 57.9636V30.0364C249 27.2664 251.266 25 254.036 25H281.964C284.734 25 287 27.2412 287 30.0364Z" fill="white"/>
<path opacity="0.04" d="M125 30.0364V57.9636C125 60.7336 122.734 63 119.964 63H92.0364C89.2664 63 87 60.7336 87 57.9636V30.0364C87 27.2664 89.2664 25 92.0364 25H119.964C122.734 25 125 27.2412 125 30.0364Z" fill="white"/>
<path opacity="0.12" d="M233 30.0364V57.9636C233 60.7336 230.734 63 227.964 63H200.036C197.266 63 195 60.7336 195 57.9636V30.0364C195 27.2664 197.266 25 200.036 25H227.964C230.734 25 233 27.2412 233 30.0364Z" fill="white"/>
<path opacity="0.2" d="M341 30.0364V57.9636C341 60.7336 338.734 63 335.964 63H308.036C305.266 63 303 60.7336 303 57.9636V30.0364C303 27.2664 305.266 25 308.036 25H335.964C338.734 25 341 27.2412 341 30.0364Z" fill="white"/>
<path opacity="0.08" d="M177 93.5063V118.494C177 120.972 174.972 123 172.494 123H147.506C145.028 123 143 120.972 143 118.494V93.5063C143 91.0278 145.028 89 147.506 89H172.494C174.972 89 177 91.0053 177 93.5063Z" fill="white"/>
<path opacity="0.16" d="M285 93.5063V118.494C285 120.972 282.972 123 280.494 123H255.506C253.028 123 251 120.972 251 118.494V93.5063C251 91.0278 253.028 89 255.506 89H280.494C282.972 89 285 91.0053 285 93.5063Z" fill="white"/>
<path opacity="0.04" d="M123 93.5063V118.494C123 120.972 120.972 123 118.494 123H93.5063C91.0278 123 89 120.972 89 118.494V93.5063C89 91.0278 91.0278 89 93.5063 89H118.494C120.972 89 123 91.0053 123 93.5063Z" fill="white"/>
<path opacity="0.12" d="M231 93.5063V118.494C231 120.972 228.972 123 226.494 123H201.506C199.028 123 197 120.972 197 118.494V93.5063C197 91.0278 199.028 89 201.506 89H226.494C228.972 89 231 91.0053 231 93.5063Z" fill="white"/>
<path opacity="0.16" d="M339 93.5063V118.494C339 120.972 336.972 123 334.494 123H309.506C307.028 123 305 120.972 305 118.494V93.5063C305 91.0278 307.028 89 309.506 89H334.494C336.972 89 339 91.0053 339 93.5063Z" fill="white"/>
<path opacity="0.08" d="M175 152.976V175.024C175 177.211 173.211 179 171.024 179H148.976C146.789 179 145 177.211 145 175.024V152.976C145 150.789 146.789 149 148.976 149H171.024C173.211 149 175 150.769 175 152.976Z" fill="white"/>
<path opacity="0.12" d="M283 152.976V175.024C283 177.211 281.211 179 279.024 179H256.976C254.789 179 253 177.211 253 175.024V152.976C253 150.789 254.789 149 256.976 149H279.024C281.211 149 283 150.769 283 152.976Z" fill="white"/>
<path opacity="0.04" d="M121 152.976V175.024C121 177.211 119.211 179 117.024 179H94.9761C92.7893 179 91 177.211 91 175.024V152.976C91 150.789 92.7893 149 94.9761 149H117.024C119.211 149 121 150.769 121 152.976Z" fill="white"/>
<path opacity="0.12" d="M229 152.976V175.024C229 177.211 227.211 179 225.024 179H202.976C200.789 179 199 177.211 199 175.024V152.976C199 150.789 200.789 149 202.976 149H225.024C227.211 149 229 150.769 229 152.976Z" fill="white"/>
<path opacity="0.12" d="M337 152.976V175.024C337 177.211 335.211 179 333.024 179H310.976C308.789 179 307 177.211 307 175.024V152.976C307 150.789 308.789 149 310.976 149H333.024C335.211 149 337 150.769 337 152.976Z" fill="white"/>
<path opacity="0.08" d="M173 208.446V227.555C173 229.45 171.449 231 169.554 231H150.446C148.551 231 147 229.45 147 227.555V208.446C147 206.551 148.551 205 150.446 205H169.554C171.449 205 173 206.534 173 208.446Z" fill="white"/>
<path opacity="0.08" d="M281 208.446V227.555C281 229.45 279.449 231 277.554 231H258.446C256.551 231 255 229.45 255 227.555V208.446C255 206.551 256.551 205 258.446 205H277.554C279.449 205 281 206.534 281 208.446Z" fill="white"/>
<path opacity="0.04" d="M119 208.446V227.555C119 229.45 117.449 231 115.554 231H96.446C94.5507 231 93 229.45 93 227.555V208.446C93 206.551 94.5507 205 96.446 205H115.554C117.449 205 119 206.534 119 208.446Z" fill="white"/>
<path opacity="0.08" d="M227 208.446V227.555C227 229.45 225.449 231 223.554 231H204.446C202.551 231 201 229.45 201 227.555V208.446C201 206.551 202.551 205 204.446 205H223.554C225.449 205 227 206.534 227 208.446Z" fill="white"/>
<path opacity="0.08" d="M335 208.446V227.555C335 229.45 333.449 231 331.554 231H312.446C310.551 231 309 229.45 309 227.555V208.446C309 206.551 310.551 205 312.446 205H331.554C333.449 205 335 206.534 335 208.446Z" fill="white"/>
<path opacity="0.04" d="M171 259.916V276.084C171 277.688 169.688 279 168.084 279H151.916C150.312 279 149 277.688 149 276.084V259.916C149 258.312 150.312 257 151.916 257H168.084C169.688 257 171 258.298 171 259.916Z" fill="white"/>
<path opacity="0.04" d="M279 259.916V276.084C279 277.688 277.688 279 276.084 279H259.916C258.312 279 257 277.688 257 276.084V259.916C257 258.312 258.312 257 259.916 257H276.084C277.688 257 279 258.298 279 259.916Z" fill="white"/>
<path opacity="0.04" d="M117 259.916V276.084C117 277.688 115.688 279 114.084 279H97.9158C96.3121 279 95 277.688 95 276.084V259.916C95 258.312 96.3121 257 97.9158 257H114.084C115.688 257 117 258.298 117 259.916Z" fill="white"/>
<path opacity="0.04" d="M225 259.916V276.084C225 277.688 223.688 279 222.084 279H205.916C204.312 279 203 277.688 203 276.084V259.916C203 258.312 204.312 257 205.916 257H222.084C223.688 257 225 258.298 225 259.916Z" fill="white"/>
<path opacity="0.04" d="M333 259.916V276.084C333 277.688 331.688 279 330.084 279H313.916C312.312 279 311 277.688 311 276.084V259.916C311 258.312 312.312 257 313.916 257H330.084C331.688 257 333 258.298 333 259.916Z" fill="white"/>
</g>
</svg>
