<svg width="382" height="348" viewBox="0 0 382 348" fill="none" xmlns="http://www.w3.org/2000/svg">
<mask id="mask0" mask-type="alpha" maskUnits="userSpaceOnUse" x="0" y="0" width="382" height="348">
<path d="M382 324C382 337.255 371.255 348 358 348L24 348C10.7452 348 2.95782e-05 337.255 2.84194e-05 324L2.19259e-06 24C1.03382e-06 10.7452 10.7452 2.02057e-06 24 8.61793e-07L358 -2.83374e-05C371.255 -2.94962e-05 382 10.7451 382 24L382 324Z" fill="#FFB428"/>
</mask>
<g mask="url(#mask0)">
<g opacity="0.2">
<path d="M327.934 25.768C329.301 23.4107 332.696 23.4107 334.063 25.768L342.29 40.0062L350.517 54.2444C351.884 56.6018 350.187 59.5484 347.453 59.5484H330.998H314.544C311.833 59.5484 310.113 56.6018 311.48 54.2444L319.707 40.0062L327.934 25.768Z" fill="white"/>
<path d="M271.934 57.7803C273.301 60.1377 276.696 60.1377 278.063 57.7803L286.29 43.5421L294.517 29.3039C295.884 26.9466 294.187 23.9999 291.453 23.9999H274.998H258.544C255.833 23.9999 254.113 26.9466 255.48 29.3039L263.707 43.5421L271.934 57.7803Z" fill="white"/>
<path d="M215.934 25.768C217.301 23.4107 220.696 23.4107 222.063 25.768L230.29 40.0062L238.517 54.2444C239.884 56.6018 238.187 59.5484 235.453 59.5484H218.998H202.544C199.833 59.5484 198.113 56.6018 199.48 54.2444L207.707 40.0062L215.934 25.768Z" fill="white"/>
<path d="M159.934 57.7803C161.301 60.1377 164.696 60.1377 166.063 57.7803L174.29 43.5421L182.517 29.3039C183.884 26.9466 182.187 23.9999 179.453 23.9999H162.998H146.544C143.833 23.9999 142.113 26.9466 143.48 29.3039L151.707 43.5421L159.934 57.7803Z" fill="white"/>
<path d="M103.934 25.768C105.301 23.4107 108.696 23.4107 110.063 25.768L118.29 40.0062L126.517 54.2444C127.884 56.6018 126.187 59.5484 123.453 59.5484H106.998H90.5443C87.8334 59.5484 86.1126 56.6018 87.4798 54.2444L95.7069 40.0062L103.934 25.768Z" fill="white"/>
<path d="M47.9339 57.7803C49.3012 60.1377 52.6957 60.1377 54.0629 57.7803L62.29 43.5421L70.5171 29.3039C71.8843 26.9466 70.187 23.9999 67.4525 23.9999H50.9984H34.5443C31.8334 23.9999 30.1126 26.9466 31.4798 29.3039L39.7069 43.5421L47.9339 57.7803Z" fill="white"/>
</g>
<g opacity="0.12">
<path d="M328.547 148.956C329.641 147.071 332.357 147.071 333.45 148.956L340.032 160.347L346.614 171.738C347.707 173.623 346.35 175.981 344.162 175.981H330.999H317.835C315.667 175.981 314.29 173.623 315.384 171.738L321.965 160.347L328.547 148.956Z" fill="white"/>
<path d="M272.547 174.567C273.641 176.452 276.357 176.452 277.45 174.567L284.032 163.176L290.614 151.785C291.707 149.9 290.35 147.542 288.162 147.542H274.999H261.835C259.667 147.542 258.29 149.9 259.384 151.785L265.965 163.176L272.547 174.567Z" fill="white"/>
<path d="M216.547 148.956C217.641 147.071 220.357 147.071 221.45 148.956L228.032 160.347L234.614 171.738C235.707 173.623 234.35 175.981 232.162 175.981H218.999H205.835C203.667 175.981 202.29 173.623 203.384 171.738L209.965 160.347L216.547 148.956Z" fill="white"/>
<path d="M160.547 174.567C161.641 176.452 164.357 176.452 165.45 174.567L172.032 163.176L178.614 151.785C179.707 149.9 178.35 147.542 176.162 147.542H162.999H149.835C147.667 147.542 146.29 149.9 147.384 151.785L153.965 163.176L160.547 174.567Z" fill="white"/>
<path d="M104.547 148.956C105.641 147.071 108.357 147.071 109.45 148.956L116.032 160.347L122.614 171.738C123.707 173.623 122.35 175.981 120.162 175.981H106.999H93.8355C91.6667 175.981 90.29 173.623 91.3838 171.738L97.9655 160.347L104.547 148.956Z" fill="white"/>
<path d="M48.5471 174.567C49.6409 176.452 52.3566 176.452 53.4504 174.567L60.032 163.176L66.6136 151.785C67.7074 149.9 66.3496 147.542 64.162 147.542H50.9987H37.8355C35.6667 147.542 34.29 149.9 35.3838 151.785L41.9655 163.176L48.5471 174.567Z" fill="white"/>
</g>
<g opacity="0.04">
<path d="M329.16 257.925C329.981 256.511 332.017 256.511 332.838 257.925L337.774 266.468L342.71 275.011C343.531 276.425 342.512 278.193 340.872 278.193H330.999H321.127C319.5 278.193 318.468 276.425 319.288 275.011L324.224 266.468L329.16 257.925Z" fill="white"/>
<path d="M273.16 277.133C273.981 278.547 276.017 278.547 276.838 277.133L281.774 268.59L286.71 260.047C287.531 258.632 286.512 256.864 284.872 256.864H274.999H265.127C263.5 256.864 262.468 258.632 263.288 260.047L268.224 268.59L273.16 277.133Z" fill="white"/>
<path d="M217.16 257.925C217.981 256.511 220.017 256.511 220.838 257.925L225.774 266.468L230.71 275.011C231.531 276.425 230.512 278.193 228.872 278.193H218.999H209.127C207.5 278.193 206.468 276.425 207.288 275.011L212.224 266.468L217.16 257.925Z" fill="white"/>
<path d="M161.16 277.133C161.981 278.547 164.017 278.547 164.838 277.133L169.774 268.59L174.71 260.047C175.531 258.632 174.512 256.864 172.872 256.864H162.999H153.127C151.5 256.864 150.468 258.632 151.288 260.047L156.224 268.59L161.16 277.133Z" fill="white"/>
<path d="M105.16 257.925C105.981 256.511 108.017 256.511 108.838 257.925L113.774 266.468L118.71 275.011C119.531 276.425 118.512 278.193 116.872 278.193H106.999H97.1266C95.5 278.193 94.4675 276.425 95.2879 275.011L100.224 266.468L105.16 257.925Z" fill="white"/>
<path d="M49.1603 277.133C49.9807 278.547 52.0174 278.547 52.8378 277.133L57.774 268.59L62.7102 260.047C63.5306 258.632 62.5122 256.864 60.8715 256.864H50.9991H41.1266C39.5 256.864 38.4675 258.632 39.2879 260.047L44.2241 268.59L49.1603 277.133Z" fill="white"/>
</g>
<g opacity="0.16">
<path d="M328.241 117.951C329.471 120.072 332.526 120.072 333.757 117.951L341.161 105.136L348.565 92.322C349.796 90.2004 348.268 87.5484 345.807 87.5484H330.999H316.19C313.75 87.5484 312.201 90.2004 313.432 92.322L320.836 105.136L328.241 117.951Z" fill="white"/>
<path d="M272.241 89.1395C273.471 87.0179 276.526 87.0179 277.757 89.1395L285.161 101.954L292.565 114.768C293.796 116.89 292.268 119.542 289.807 119.542H274.999H260.19C257.75 119.542 256.201 116.89 257.432 114.768L264.836 101.954L272.241 89.1395Z" fill="white"/>
<path d="M216.241 117.951C217.471 120.072 220.526 120.072 221.757 117.951L229.161 105.136L236.565 92.322C237.796 90.2004 236.268 87.5484 233.807 87.5484H218.999H204.19C201.75 87.5484 200.201 90.2004 201.432 92.322L208.836 105.136L216.241 117.951Z" fill="white"/>
<path d="M160.241 89.1395C161.471 87.0179 164.526 87.0179 165.757 89.1395L173.161 101.954L180.565 114.768C181.796 116.89 180.268 119.542 177.807 119.542H162.999H148.19C145.75 119.542 144.201 116.89 145.432 114.768L152.836 101.954L160.241 89.1395Z" fill="white"/>
<path d="M104.241 117.951C105.471 120.072 108.526 120.072 109.757 117.951L117.161 105.136L124.565 92.322C125.796 90.2004 124.268 87.5484 121.807 87.5484H106.999H92.1899C89.7501 87.5484 88.2013 90.2004 89.4318 92.322L96.8362 105.136L104.241 117.951Z" fill="white"/>
<path d="M48.2405 89.1395C49.471 87.0179 52.5261 87.0179 53.7567 89.1395L61.161 101.954L68.5654 114.768C69.7959 116.89 68.2683 119.542 65.8073 119.542H50.9986H36.1899C33.7501 119.542 32.2013 116.89 33.4318 114.768L40.8362 101.954L48.2405 89.1395Z" fill="white"/>
</g>
<g opacity="0.08">
<path d="M328.854 227.627C329.811 229.277 332.187 229.277 333.144 227.627L338.903 217.66L344.662 207.693C345.619 206.043 344.431 203.98 342.517 203.98H330.999H319.481C317.583 203.98 316.379 206.043 317.336 207.693L323.095 217.66L328.854 227.627Z" fill="white"/>
<path d="M272.854 205.218C273.811 203.568 276.187 203.568 277.144 205.218L282.903 215.185L288.662 225.152C289.619 226.802 288.431 228.864 286.517 228.864H274.999H263.481C261.583 228.864 260.379 226.802 261.336 225.152L267.095 215.185L272.854 205.218Z" fill="white"/>
<path d="M216.854 227.627C217.811 229.277 220.187 229.277 221.144 227.627L226.903 217.66L232.662 207.693C233.619 206.043 232.431 203.98 230.517 203.98H218.999H207.481C205.583 203.98 204.379 206.043 205.336 207.693L211.095 217.66L216.854 227.627Z" fill="white"/>
<path d="M160.854 205.218C161.811 203.568 164.187 203.568 165.144 205.218L170.903 215.185L176.662 225.152C177.619 226.802 176.431 228.864 174.517 228.864H162.999H151.481C149.583 228.864 148.379 226.802 149.336 225.152L155.095 215.185L160.854 205.218Z" fill="white"/>
<path d="M104.854 227.627C105.811 229.277 108.187 229.277 109.144 227.627L114.903 217.66L120.662 207.693C121.619 206.043 120.431 203.98 118.517 203.98H106.999H95.481C93.5834 203.98 92.3788 206.043 93.3359 207.693L99.0948 217.66L104.854 227.627Z" fill="white"/>
<path d="M48.8537 205.218C49.8108 203.568 52.187 203.568 53.1441 205.218L58.903 215.185L64.6619 225.152C65.619 226.802 64.4309 228.864 62.5168 228.864H50.9989H39.481C37.5834 228.864 36.3788 226.802 37.3359 225.152L43.0948 215.185L48.8537 205.218Z" fill="white"/>
</g>
</g>
</svg>
