<svg width="382" height="348" viewBox="0 0 382 348" fill="none" xmlns="http://www.w3.org/2000/svg">
<mask id="mask0" mask-type="alpha" maskUnits="userSpaceOnUse" x="0" y="0" width="382" height="348">
<path d="M382 324C382 337.255 371.255 348 358 348L24 348C10.7452 348 2.95782e-05 337.255 2.84194e-05 324L2.19259e-06 24C1.03382e-06 10.7452 10.7452 1.93855e-06 24 7.79773e-07L358 -2.84194e-05C371.255 -2.95782e-05 382 10.7451 382 24L382 324Z" fill="#3C6EE6"/>
</mask>
<g mask="url(#mask0)">
<path d="M335.594 287.646L316.397 218.104C314.252 210.305 306.037 205.829 298.308 208.252L269.513 217.273L287.579 282.27C292.447 299.783 296.185 326.663 297.039 348.306H341.547C341.224 331.416 338.363 299.506 335.594 287.646Z" fill="#FFE4EE"/>
<path d="M287.44 144.546H253.499L250.454 186.308C249.069 198.283 258.414 200.083 270.481 200.083C282.525 200.083 291.893 198.26 290.508 186.308L287.44 144.546Z" fill="#FFDAE4"/>
<path d="M250.339 188.799C250.454 196.136 255.484 198.836 262.752 199.713C264.76 186.999 273.297 166.764 279.642 161.734L252.185 162.727L250.454 186.33C250.454 186.353 250.454 186.376 250.454 186.4L250.431 186.723V186.746C250.408 187.023 250.385 187.276 250.385 187.553C250.362 187.876 250.339 188.315 250.339 188.799Z" fill="#FFCDDC"/>
<path d="M223.204 120.757C223.204 98.5842 241.709 80.7487 264.113 81.8331C283.979 82.8022 300.268 99.161 301.122 119.05C301.514 128.187 298.746 136.632 293.854 143.461C289.516 149.507 285.617 155.829 281.625 162.105C275.234 172.141 263.375 178.348 250.223 176.479C237.51 174.656 227.011 164.989 224.081 152.483C223.227 148.884 223.043 145.377 223.366 142.031C223.989 135.709 223.642 129.341 223.273 123.019C223.227 122.257 223.204 121.519 223.204 120.757Z" fill="#FFE4EE"/>
<path d="M284.855 134.878C284.855 130.794 287.924 127.517 291.639 127.702C294.939 127.886 297.638 130.886 297.776 134.554C297.846 136.239 297.384 137.785 296.577 139.054C295.861 140.161 295.215 141.338 294.546 142.492C293.485 144.338 291.524 145.491 289.332 145.145C287.232 144.822 285.478 143.022 284.994 140.738C284.855 140.069 284.832 139.423 284.878 138.823C284.994 137.669 284.925 136.493 284.855 135.316C284.855 135.154 284.855 135.016 284.855 134.878Z" fill="#FFE4EE"/>
<path d="M236.91 139.747C239.254 139.747 241.155 137.103 241.155 133.84C241.155 130.578 239.254 127.934 236.91 127.934C234.565 127.934 232.664 130.578 232.664 133.84C232.664 137.103 234.565 139.747 236.91 139.747Z" fill="white"/>
<path d="M257.93 139.747C260.275 139.747 262.175 137.103 262.175 133.84C262.175 130.578 260.275 127.934 257.93 127.934C255.585 127.934 253.685 130.578 253.685 133.84C253.685 137.103 255.585 139.747 257.93 139.747Z" fill="white"/>
<path d="M235.295 137.485C236.735 137.485 237.902 135.853 237.902 133.84C237.902 131.827 236.735 130.194 235.295 130.194C233.855 130.194 232.688 131.827 232.688 133.84C232.688 135.853 233.855 137.485 235.295 137.485Z" fill="#2D2D37"/>
<path d="M256.223 137.37C257.624 137.37 258.761 135.789 258.761 133.84C258.761 131.89 257.624 130.31 256.223 130.31C254.821 130.31 253.685 131.89 253.685 133.84C253.685 135.789 254.821 137.37 256.223 137.37Z" fill="#2D2D37"/>
<path d="M292.677 134.717L291.662 135.732C290.647 136.747 290.647 138.409 291.662 139.424" stroke="#FFBED2" stroke-width="1.88969" stroke-miterlimit="10" stroke-linecap="round" stroke-linejoin="round"/>
<path d="M247.224 141.5C244.732 141.569 242.679 139.608 242.609 137.116C242.54 134.624 246.024 133.078 246.993 132.501V127.079" stroke="#FFBED2" stroke-width="1.88969" stroke-miterlimit="10" stroke-linecap="round" stroke-linejoin="round"/>
<path d="M224.196 105.852C235.548 95.2158 245.769 86.0096 246.069 95.3081C246.323 102.945 233.863 122.304 223.665 127.564" fill="#2D2D37"/>
<path d="M284.855 133.564C267.366 129.295 245.839 111.391 243.37 100.2C241.039 89.6328 255.668 81.6494 270.85 81.6494" fill="#2D2D37"/>
<path d="M242.978 104.352C242.978 104.352 241.27 108.182 249.207 119.396C249.923 120.411 251.03 121.126 252.253 121.426C256.337 122.372 259.383 122.88 258.183 121.611C258.183 121.611 245.908 111.136 245.031 98.3301" fill="#2D2D37"/>
<path d="M243.601 106.545C243.601 106.545 245.908 109.383 239.194 119.72C238.502 120.781 237.441 121.566 236.218 121.935C234.118 122.604 232.549 122.881 233.034 122.212C233.034 122.212 241.778 112.175 242.032 100.431L245.839 101.031" fill="#2D2D37"/>
<path d="M316.535 164.782L309.959 118.751C305.368 91.3398 288.247 83.8871 281.948 81.8798C278.787 80.8646 269.443 78.1189 259.083 78.0035C257.883 77.9805 256.66 78.0727 255.46 78.2112C254.145 78.3727 252.876 78.6495 251.63 79.1802C250.638 79.5955 249.646 80.1724 248.977 81.0261C248.815 81.2107 248.677 81.4183 248.585 81.649C247.616 81.0491 246.347 81.0953 245.262 81.2799C244.016 81.5106 242.839 82.0413 241.732 82.6412C239.609 83.7949 237.625 85.2485 235.802 86.8175C234.026 88.3403 232.387 90.0477 230.911 91.8705C229.411 93.6932 228.096 95.6545 226.919 97.708C226.55 98.331 226.227 98.977 225.881 99.6231C225.719 99.9461 225.558 100.269 225.396 100.569C225.327 100.731 225.235 100.892 225.165 101.054C225.119 101.169 224.935 101.4 224.935 101.538C221.404 109.314 219.535 116.49 219.166 120.666C218.636 126.78 218.013 136.725 217.897 141.455C217.667 150.569 216.421 161.459 215.359 173.042C215.129 175.511 216.79 177.749 219.213 178.233C227.542 179.848 238.363 180.471 250.846 180.425L251.123 176.595C250.8 176.549 250.477 176.549 250.154 176.503C237.44 174.68 226.942 165.082 224.012 152.599C223.158 149 222.973 145.493 223.297 142.147C223.62 138.801 223.689 135.456 223.619 132.11C223.573 127.195 224.496 122.304 226.388 117.759C229.641 109.96 234.671 101.446 240.624 99.8538C241.686 99.5769 242.793 100.2 243.162 101.215C244.201 104.145 247.662 110.214 258.829 112.383C270.273 114.598 273.527 131.326 284.786 133.61C286.332 140.163 285.202 157.398 281.579 173.757C280.887 176.826 283.264 179.733 286.425 179.618C291.754 179.456 301.93 177.818 309.429 175.695C314.228 174.288 317.227 169.65 316.535 164.782Z" fill="#2D2D37"/>
<path d="M261.713 149.206C257.306 151.537 243.416 151.814 238.917 149.645C238.271 149.345 237.763 150.521 238.086 151.514C239.748 156.451 244.708 159.981 250.5 159.889C256.291 159.774 261.113 156.059 262.59 151.052C262.89 150.037 262.336 148.86 261.713 149.206Z" fill="#FF7BA4"/>
<path d="M293.462 186.978C282.848 181.81 270.527 181.372 259.567 185.756C242.263 192.678 229.78 208.067 226.527 226.41L206.291 340.761C205.599 344.706 208.622 348.329 212.637 348.329H325.626C329.502 348.329 332.502 344.937 332.017 341.084L316.673 219.396C314.92 205.368 306.175 193.185 293.462 186.978Z" fill="#FFD25F"/>
<path d="M272.766 239.354L233.772 301.213C233.772 301.213 278.211 296.968 278.211 236.562L272.766 239.354Z" fill="#FFB428"/>
<path d="M265.336 197.96C252.784 194.13 239.287 199.622 232.941 211.089L208.23 255.805C207.469 256.958 206.246 256.774 205.854 255.689L194.156 223.202C192.587 218.818 193.671 213.858 197.132 210.743C203.592 204.975 206.246 195.653 203.154 187.047C202.139 184.209 200.547 181.648 198.47 179.456C196.578 177.448 193.74 176.825 191.294 177.61C190.51 175.141 188.364 173.203 185.642 172.834C182.134 172.349 178.535 172.718 175.236 173.918C169.606 175.949 165.314 180.079 162.914 185.109L156.731 167.942C155.508 164.55 151.839 162.543 148.401 163.651C144.848 164.804 143.002 168.657 144.248 172.142L152.07 193.853C152.185 194.176 152.024 194.522 151.701 194.638C151.378 194.753 151.032 194.592 150.916 194.269C150.916 194.269 150.916 194.269 150.916 194.246L144.871 177.471C143.648 174.08 139.98 172.072 136.542 173.18C132.989 174.333 131.143 178.187 132.389 181.671L138.526 198.722L145.194 217.226L176.043 302.851C182.688 321.309 204.977 329.639 222.605 318.264C226.896 315.495 230.427 311.734 233.218 307.442L276.55 237.162C285.456 223.41 280.172 204.928 265.336 197.96ZM175.12 197.13C173.644 193 175.789 188.454 179.896 186.978C181.119 186.539 182.388 186.401 183.68 186.585C184.765 186.747 185.826 186.631 186.795 186.308C187.095 187.277 187.626 188.2 188.364 188.985C189.126 189.792 189.702 190.715 190.072 191.754C191.548 195.884 189.402 200.429 185.295 201.906C181.188 203.383 176.597 201.26 175.12 197.13Z" fill="#FFE4EE"/>
<path d="M190.533 179.18C190.648 181.21 189.61 183.217 187.856 184.256" stroke="#FFBED2" stroke-width="1.88969" stroke-miterlimit="10" stroke-linecap="round" stroke-linejoin="round"/>
<path d="M206.777 259.382L206.546 264.896" stroke="#FFBED2" stroke-width="1.88969" stroke-miterlimit="10" stroke-linecap="round" stroke-linejoin="round"/>
<path d="M213.999 245.399L256.361 269.88L266.86 252.875L223.644 227.933L213.999 245.399Z" fill="#FFCDDC"/>
<path d="M280.934 214.712C278.696 206.891 273.181 200.407 265.821 196.946L265.683 196.9C252.716 192.954 238.526 198.7 231.973 210.559L215.799 239.839C215.452 240.462 215.66 241.27 216.283 241.639L258.784 266.95C259.43 267.319 260.237 267.111 260.63 266.489L277.496 237.809C281.903 230.956 283.149 222.534 280.934 214.712Z" fill="#FFD25F"/>
</g>
</svg>
