<svg width="382" height="348" viewBox="0 0 382 348" fill="none" xmlns="http://www.w3.org/2000/svg">
<path fill-rule="evenodd" clip-rule="evenodd" d="M284.801 137.262C279.392 146.599 274.668 154.046 274.668 154.046L274.662 153.985L276.483 178.85C276.498 178.979 276.511 179.107 276.523 179.233C278.162 179.904 279.321 181.413 279.651 183.167L279.799 183.945C280.133 185.686 281.503 187.001 283.245 187.316C321.294 194.207 349.73 216.103 352.175 242.52C352.379 244.613 351.008 246.558 348.952 247.058L346.905 247.561C347.248 249.264 347.584 250.978 347.915 252.708L347.905 252.71C352.209 275.633 355.023 301.536 358.548 345.072C358.548 345.924 358.604 346.758 358.678 347.591H319.709C319.525 347.616 319.337 347.629 319.146 347.629H196.901C196.663 347.629 196.429 347.609 196.202 347.571L196.198 347.61H157C157.056 346.776 157.111 345.924 157.13 345.091C160.641 301.546 163.461 275.631 167.761 252.712L167.744 252.708C168.078 250.96 168.417 249.228 168.765 247.508L167.114 247.077C165.094 246.558 163.761 244.631 163.946 242.557C166.354 216.122 194.808 194.207 232.895 187.316C234.636 187.001 236.007 185.686 236.34 183.945L236.488 183.167C236.813 181.529 237.847 180.118 239.304 179.382C239.32 179.207 239.338 179.03 239.359 178.85L239.997 170.144C239.674 170.112 239.351 170.075 239.026 170.033C227.226 168.495 217.389 159.64 214.518 148.099C213.703 144.783 213.481 141.523 213.74 138.429C213.904 136.571 213.975 134.71 213.983 132.849C213.971 133.019 213.958 133.194 213.944 133.372C213.938 133.068 213.878 132.898 213.67 132.316C213.271 131.198 212.328 128.558 210.184 120.516C206.423 106.456 207.979 96.7305 217.594 86.1899C226.956 75.9258 244.135 75.9904 246.911 76.0009L246.911 76.0009C246.986 76.0011 247.05 76.0014 247.104 76.0014C248.118 76.0014 248.628 76.2585 249.116 76.5053C249.61 76.7542 250.082 76.9926 251.031 76.9461C251.574 76.9197 251.923 76.7565 252.312 76.5738C253.29 76.1153 254.529 75.5344 259.774 76.6868C267.11 78.2984 275.187 83.2445 279.022 86.9865C282.856 90.747 290.136 99.9167 290.729 109.753C291.322 119.608 289.84 128.593 284.801 137.262ZM213.568 122.603C213.527 122 213.485 121.397 213.444 120.794C213.388 120.127 213.351 119.442 213.351 118.738C213.349 118.595 213.348 118.452 213.348 118.31C213.337 118.426 213.332 118.544 213.333 118.664V118.701C213.352 119.405 213.37 120.09 213.426 120.776C213.471 121.441 213.519 122.046 213.568 122.603Z" fill="#F5F5F5"/>
</svg>
