<svg width="393" height="349" viewBox="0 0 393 349" fill="none" xmlns="http://www.w3.org/2000/svg">
<mask id="mask0" mask-type="alpha" maskUnits="userSpaceOnUse" x="0" y="0" width="382" height="348">
<path d="M382 324C382 337.255 371.255 348 358 348L24 348C10.7452 348 2.95782e-05 337.255 2.84194e-05 324L2.19259e-06 24C1.03382e-06 10.7452 10.7452 1.93855e-06 24 7.79773e-07L358 -2.84194e-05C371.255 -2.95782e-05 382 10.7451 382 24L382 324Z" fill="#FFB428"/>
</mask>
<g mask="url(#mask0)">
<path d="M106.67 226.882L81.91 228.337C78.3215 228.557 75.2315 225.806 75.0123 222.217C74.793 218.629 77.544 215.539 81.1324 215.319L111.794 213.505C117.236 213.186 122.599 213.744 127.683 215.08C130.992 215.937 133.843 212.588 132.507 209.438L128.779 200.587C127.543 197.198 129.278 193.469 132.667 192.233C136.056 190.997 139.784 192.732 141.02 196.121L159.5 239.98C159.959 240.817 160.398 241.674 160.816 242.552L165.94 254.055L180.553 291.414C180.991 292.391 182.467 292.112 182.487 291.036L183.483 252.28L224.332 255.41L222.737 303.835C222.079 323.751 206.37 339.879 186.474 341.055C170.027 342.032 154.676 332.861 147.698 317.949L123.656 262.567C122.121 259.059 118.572 256.866 114.744 257.085C111.754 257.264 108.883 255.969 107.029 253.616L102.883 248.333L110.458 242.691L106.67 226.882Z" fill="#FFE4EE"/>
<path d="M113.289 239.401L99.6131 240.199C96.0247 240.418 92.9347 237.667 92.7154 234.079C92.4961 230.49 95.2473 227.4 98.8357 227.181L112.512 226.383C116.1 226.164 119.19 228.915 119.409 232.504C119.629 236.092 116.878 239.182 113.289 239.401Z" fill="#FFE4EE"/>
<path d="M117.595 252.201L103.919 252.999C100.331 253.218 97.2403 250.467 97.021 246.878C96.8017 243.29 99.5529 240.2 103.141 239.981L116.817 239.183C120.406 238.964 123.496 241.715 123.715 245.304C123.935 248.912 121.183 252.002 117.595 252.201Z" fill="#FFE4EE"/>
<path d="M98.8359 227.181L112.512 226.383C116.1 226.164 119.19 228.915 119.41 232.504C119.629 236.092 116.878 239.182 113.289 239.401" stroke="#FFBED2" stroke-width="1.88394" stroke-miterlimit="10" stroke-linecap="round" stroke-linejoin="round"/>
<path d="M105.056 239.881L116.818 239.183C120.406 238.964 123.496 241.715 123.716 245.304C123.935 248.892 121.184 251.982 117.595 252.201" stroke="#FFBED2" stroke-width="1.88394" stroke-miterlimit="10" stroke-linecap="round" stroke-linejoin="round"/>
<path d="M133.604 222.715C133.604 222.715 130.235 244.166 139.266 248.432" stroke="#FFBED2" stroke-width="1.88394" stroke-miterlimit="10" stroke-linecap="round" stroke-linejoin="round"/>
<path d="M183.503 252.28L224.352 255.41L223.595 278.317C213.746 271.937 198.615 266.634 183.185 264.022L183.503 252.28Z" fill="#FFCDDC"/>
<path d="M182.566 295.202L183.204 300.665" stroke="#FFBED2" stroke-width="1.88394" stroke-miterlimit="10" stroke-linecap="round" stroke-linejoin="round"/>
<path d="M223.435 272.595C223.375 270.501 221.88 268.727 219.826 268.309L181.37 260.534C179.217 260.095 177.682 258.161 177.762 255.968C178.739 228.676 213.926 204.115 255.193 195.283L256.389 190.798C256.668 188.724 258.482 187.13 260.695 186.99L298.793 184.737C301.006 184.598 302.979 185.973 303.517 188.007L305.391 192.751C346.36 197.277 382.683 217.233 386.75 243.668C387.089 245.821 385.793 247.914 383.719 248.612L353.018 258.839C351.344 259.397 350.187 260.872 349.988 262.567L349.649 265.657C344.545 298.133 352.281 326.641 349.151 342.769C349.39 345.002 351.862 348.371 347.337 348.092H223.834C222.02 348.092 220.564 346.577 220.624 344.763L223.435 272.595Z" fill="#FFD25F"/>
<path d="M277.421 216.136C278.346 216.136 279.095 215.387 279.095 214.462C279.095 213.537 278.346 212.787 277.421 212.787C276.496 212.787 275.746 213.537 275.746 214.462C275.746 215.387 276.496 216.136 277.421 216.136Z" fill="white"/>
<path d="M277.421 221.32C278.346 221.32 279.095 220.57 279.095 219.645C279.095 218.72 278.346 217.971 277.421 217.971C276.496 217.971 275.746 218.72 275.746 219.645C275.746 220.57 276.496 221.32 277.421 221.32Z" fill="white"/>
<path d="M255.87 202.68L263.565 218.489" stroke="#FFB428" stroke-width="1.88394" stroke-miterlimit="10" stroke-linecap="round" stroke-linejoin="round"/>
<path d="M269.188 216.136L272.557 212.289C274.769 209.777 278.597 209.518 281.109 211.73L288.545 218.249C289.363 218.987 290.639 218.887 291.316 218.03L304.474 201.822" stroke="#FFB428" stroke-width="1.88394" stroke-miterlimit="10" stroke-linecap="round" stroke-linejoin="round"/>
<path d="M296.68 144.985H263.327L260.317 186.033C258.941 197.796 268.152 199.59 279.994 199.59C291.835 199.59 301.046 197.815 299.67 186.033L296.68 144.985Z" fill="#FFDAE4"/>
<path d="M289.064 164.861C282.764 169.865 274.232 186.691 272.378 199.191C265.46 198.354 260.596 195.822 260.217 189.103C260.237 187.827 260.257 186.791 260.316 186.252C260.316 186.173 260.336 186.113 260.336 186.033L261.812 165.858L289.064 164.861Z" fill="#FFCDDC"/>
<path d="M233.542 121.58C233.542 99.7901 251.743 82.2466 273.753 83.3032C293.29 84.2401 309.278 100.328 310.136 119.886C310.534 128.857 307.803 137.17 302.979 143.868C298.712 149.809 294.865 156.029 290.957 162.209C284.677 172.078 273.015 178.178 260.077 176.344C247.577 174.55 237.25 165.04 234.379 152.76C233.542 149.231 233.362 145.782 233.681 142.493C234.299 136.273 233.961 130.033 233.602 123.793C233.562 123.055 233.542 122.318 233.542 121.58Z" fill="#FFE4EE"/>
<path d="M267.893 140.799C270.073 140.799 271.84 138.344 271.84 135.316C271.84 132.289 270.073 129.834 267.893 129.834C265.713 129.834 263.945 132.289 263.945 135.316C263.945 138.344 265.713 140.799 267.893 140.799Z" fill="white"/>
<path d="M266.637 139.444C268.123 139.444 269.328 137.641 269.328 135.417C269.328 133.193 268.123 131.39 266.637 131.39C265.15 131.39 263.945 133.193 263.945 135.417C263.945 137.641 265.15 139.444 266.637 139.444Z" fill="#2D2D37"/>
<path d="M246.102 140.799C248.282 140.799 250.049 138.344 250.049 135.316C250.049 132.289 248.282 129.834 246.102 129.834C243.922 129.834 242.154 132.289 242.154 135.316C242.154 138.344 243.922 140.799 246.102 140.799Z" fill="white"/>
<path d="M244.827 139.444C246.313 139.444 247.518 137.641 247.518 135.417C247.518 133.193 246.313 131.39 244.827 131.39C243.341 131.39 242.136 133.193 242.136 135.417C242.136 137.641 243.341 139.444 244.827 139.444Z" fill="#2D2D37"/>
<path d="M244.448 169.188C235.676 169.128 225.887 166.835 215.222 164.543C221.402 160.376 229.177 135.855 230.572 112.849C230.911 107.167 232.047 101.545 234.141 96.2422C238.407 85.3572 247.797 72.1597 267.992 74.213C269.069 74.3725 269.886 74.7513 270.524 75.3693C271.381 74.8111 272.358 74.4523 273.375 74.3127C286.792 72.5783 302.242 78.7186 310.176 97.9367C316.137 112.39 322.716 132.187 325.886 143.65C327.52 149.531 325.407 155.87 320.443 159.419C310.715 166.377 298.673 167.991 282.884 169.646C287.37 163.885 288.107 141.556 282.665 119.428C278.159 120.484 269.308 121.461 265.859 121.481C265.101 118.57 263.905 114.045 265.6 111.334C265.6 111.334 262.589 116.477 262.709 121.74C260.436 121.88 258.144 121.88 255.851 121.76C255.153 118.889 255.353 113.487 256.967 110.915C256.967 110.915 253.1 116.657 252.821 121.541C250.787 121.342 248.754 121.023 246.7 120.624C245.863 117.693 246.621 113.447 248.415 110.556C248.415 110.556 243.929 114.882 243.87 119.986C242.992 119.966 241.716 119.647 240.899 119.408C239.304 118.949 237.012 117.095 235.576 115.181C234.28 119.029 233.563 120.285 233.563 124.571C233.563 125.309 233.583 126.046 233.622 126.764C233.981 133.004 234.34 136.254 233.702 142.474C233.363 145.763 233.563 149.212 234.4 152.741C235.895 159.26 239.523 164.961 244.448 169.188Z" fill="#2D2D37"/>
<path d="M348.472 274.528L349.489 282.762C349.708 283.819 348.353 284.437 347.695 283.579L324.788 250.645L317.133 240.637C316.535 239.88 315.897 239.162 315.239 238.445L287.07 200.088C285.076 197.078 281.029 196.26 278.039 198.254C275.028 200.247 274.211 204.294 276.205 207.285L281.886 215.02C283.92 217.771 281.926 221.698 278.497 221.639C273.234 221.519 267.891 222.237 262.668 223.812L242.413 229.932C238.964 230.969 237.011 234.617 238.067 238.066C239.104 241.515 242.752 243.468 246.201 242.412L265.36 236.61C265.958 236.431 266.595 236.77 266.775 237.368C266.954 237.966 266.615 238.604 266.017 238.783L244.108 245.402C240.659 246.439 238.705 250.087 239.762 253.536C240.798 256.985 244.447 258.939 247.896 257.882L269.805 251.263C270.403 251.084 271.041 251.423 271.221 252.021C271.4 252.619 271.061 253.257 270.463 253.436L254.973 258.121C251.524 259.158 249.57 262.806 250.627 266.255C251.663 269.704 255.312 271.658 258.761 270.601L275.347 265.577L281.826 263.624L321.938 316.992C332.185 329.89 349.27 335.213 365.019 330.449C384.078 324.687 395.62 305.349 391.633 285.832L383.719 248.612L353.018 258.839C353.018 258.839 350.366 259.357 349.947 262.786C349.529 266.215 348.472 274.528 348.472 274.528Z" fill="#FFE4EE"/>
<path d="M350.666 285.992L354.075 290.298" stroke="#FFBED2" stroke-width="1.88394" stroke-miterlimit="10" stroke-linecap="round" stroke-linejoin="round"/>
<path d="M255.452 164.204C257.467 164.204 259.1 161.151 259.1 157.385C259.1 153.62 257.467 150.567 255.452 150.567C253.437 150.567 251.804 153.62 251.804 157.385C251.804 161.151 253.437 164.204 255.452 164.204Z" fill="#FF7BA4"/>
<path d="M257.525 145.982H255.292C252.84 145.982 250.847 143.989 250.847 141.537C250.847 139.085 252.681 136.872 255.292 136.114V131.987" stroke="#FFBED2" stroke-width="1.88394" stroke-miterlimit="10" stroke-linecap="round" stroke-linejoin="round"/>
<path d="M383.699 248.592L352.958 258.839C352.958 258.839 350.286 259.357 349.888 262.786C349.808 263.524 349.688 264.501 349.549 265.577L384.696 253.277L383.699 248.592Z" fill="#FFCDDC"/>
</g>
</svg>
