<svg width="382" height="348" viewBox="0 0 382 348" fill="none" xmlns="http://www.w3.org/2000/svg">
<mask id="mask0" mask-type="alpha" maskUnits="userSpaceOnUse" x="0" y="0" width="382" height="348">
<path d="M382 348L3.05176e-05 348L2.19259e-06 24C1.03382e-06 10.7452 10.7452 2.02057e-06 24 8.61793e-07L358 -2.83374e-05C371.255 -2.94962e-05 382 10.7451 382 24L382 348Z" fill="#1EB4BE"/>
</mask>
<g mask="url(#mask0)">
<g filter="url(#filter0_d)">
<path d="M332 40H192C180.954 40 172 48.9543 172 60V200C172 211.046 180.954 220 192 220H332C343.046 220 352 211.046 352 200V60C352 48.9543 343.046 40 332 40Z" fill="#D2DCFF"/>
<path d="M292.627 142.502H258.585L255.518 184.211C253.985 196.172 263.492 198.012 275.452 198.012C287.413 198.012 296.92 196.172 295.387 184.211L292.627 142.502Z" fill="#FFDBE5"/>
<path d="M284.653 162.742C278.213 167.955 269.626 184.823 267.786 197.704C260.732 196.784 255.825 194.33 255.519 187.583C255.519 186.356 255.519 185.13 255.519 184.823C255.519 184.823 255.519 184.823 255.519 184.516L257.052 163.969L284.653 162.742Z" fill="#FFD0DD"/>
<path d="M228.224 118.58C228.224 96.499 246.625 78.4047 269.013 79.6314C288.947 80.5515 305.201 97.1123 306.122 116.74C306.428 125.94 303.668 134.221 298.761 141.275C294.468 147.408 290.481 153.542 286.494 159.982C280.053 170.103 268.093 176.236 255.212 174.396C242.638 172.556 231.904 162.742 229.144 150.475C228.224 146.795 228.224 143.421 228.531 140.048C229.144 133.608 228.837 127.474 228.531 121.034C228.224 120.114 228.224 119.5 228.224 118.58Z" fill="#FFE5EF"/>
<path d="M265.946 133.3C268.148 133.3 269.933 130.828 269.933 127.78C269.933 124.731 268.148 122.259 265.946 122.259C263.744 122.259 261.959 124.731 261.959 127.78C261.959 130.828 263.744 133.3 265.946 133.3Z" fill="white"/>
<path d="M264.719 131.767C266.244 131.767 267.48 129.982 267.48 127.78C267.48 125.578 266.244 123.793 264.719 123.793C263.195 123.793 261.959 125.578 261.959 127.78C261.959 129.982 263.195 131.767 264.719 131.767Z" fill="black"/>
<path d="M243.864 133.3C246.066 133.3 247.851 130.828 247.851 127.78C247.851 124.731 246.066 122.259 243.864 122.259C241.662 122.259 239.877 124.731 239.877 127.78C239.877 130.828 241.662 133.3 243.864 133.3Z" fill="white"/>
<path d="M242.637 131.767C244.162 131.767 245.398 129.982 245.398 127.78C245.398 125.578 244.162 123.793 242.637 123.793C241.113 123.793 239.877 125.578 239.877 127.78C239.877 129.982 241.113 131.767 242.637 131.767Z" fill="black"/>
<path d="M230.678 120.42L228.224 120.727C228.531 123.487 228.531 126.247 228.531 128.701C230.371 129.008 228.224 120.727 230.678 120.42Z" fill="#666666"/>
<path d="M280.667 125.326C284.041 125.326 281.894 131.46 287.107 131.46C296.308 131.46 286.494 146.181 295.695 146.181C296.615 144.647 297.841 143.114 298.761 141.581C301.828 137.287 303.975 132.687 305.202 127.473C299.068 127.78 290.174 126.553 280.667 125.326Z" fill="#666666"/>
<path d="M228.224 118.579C228.224 96.1917 246.931 78.404 269.626 79.6308C289.56 80.8575 305.508 97.4182 306.121 117.659C306.121 121.033 305.814 124.1 305.201 127.167C305.814 124.1 306.734 121.033 306.428 117.659C305.814 97.7249 289.56 79.6307 269.626 78.404C246.931 76.8705 227.917 93.4314 227.917 115.819C227.917 116.433 228.224 120.113 228.224 120.726C228.224 120.113 228.224 119.5 228.224 118.579Z" fill="#333333"/>
<path d="M274.84 109.381C271.774 107.541 263.8 104.781 252.453 104.781C236.505 104.781 234.972 109.381 234.972 109.381C234.972 109.381 234.972 109.381 234.972 109.687C237.118 108.461 242.026 106.314 252.759 106.314C264.107 106.314 273.614 109.381 276.681 110.914C276.067 110.301 275.454 109.688 274.84 109.381Z" fill="#333333"/>
<path d="M278.52 113.98C278.827 117.66 278.214 125.021 280.974 125.021C290.481 126.554 299.375 127.474 305.508 126.861C306.122 123.794 306.428 120.727 306.428 117.354C305.815 97.4193 289.868 80.5516 269.933 79.3249C247.239 77.7915 228.531 95.8858 228.531 118.274C228.531 118.887 228.531 119.807 228.531 120.42L230.985 120.114C233.131 120.114 233.745 109.993 233.745 109.993C233.745 109.993 234.051 109.38 234.971 108.767V108.46C234.971 108.46 236.505 103.86 252.452 103.86C263.8 103.86 271.773 106.926 274.84 108.46C275.453 108.766 276.067 109.38 276.373 109.993C277.6 111.527 278.214 112.753 278.52 113.98Z" fill="#333333"/>
<path d="M233.438 110.607C233.438 110.607 236.505 106.006 252.452 106.006C263.799 106.006 273.306 109.073 276.373 110.607C277.6 111.22 278.213 112.447 278.52 113.98C278.827 117.661 278.213 125.021 280.973 125.021C290.48 126.554 299.374 127.474 305.508 126.861C306.121 123.794 307.041 120.727 306.735 117.354C306.121 97.4194 289.867 79.3251 269.933 78.0984C247.238 76.565 228.224 93.1259 228.224 115.514C228.224 116.127 228.531 119.807 228.531 120.421L230.984 120.114C232.824 120.421 233.438 110.607 233.438 110.607Z" fill="#333333"/>
<path d="M285.573 129.314C285.573 125.328 288.64 121.954 292.32 122.261C295.694 122.567 298.454 125.327 298.454 129.008C298.454 130.541 298.147 132.381 297.227 133.608C296.614 134.835 296 135.755 295.08 136.982C294.16 138.822 292.013 140.048 289.866 139.742C287.72 139.435 285.88 137.595 285.573 135.448C285.573 134.835 285.266 134.221 285.573 133.608C285.573 132.381 285.573 131.155 285.573 130.234C285.573 129.314 285.573 129.314 285.573 129.314Z" fill="#FFE5EF"/>
<path d="M349.119 347.693V348H303.73C304.343 331.746 300.601 304.737 296.307 289.096L275.453 214.573L319.308 200.772L342.923 286.336C346.297 299.83 349.732 333.586 349.119 347.693Z" fill="#FFE5EF"/>
<path d="M299.681 182.983C288.947 177.769 276.373 177.156 265.026 181.756C247.238 188.81 234.664 204.451 231.291 223.465L210.743 340.311C210.13 344.298 213.196 347.978 217.183 347.978H332.802C336.789 347.978 339.856 344.605 339.243 340.618L323.602 216.105C321.455 201.691 312.562 189.423 299.681 182.983Z" fill="#5A87FA"/>
<path d="M278.52 236.654L238.651 299.831C238.651 299.831 284.04 295.538 284.04 233.588L278.52 236.654Z" fill="#646EDC"/>
<path d="M251.531 144.649C249.385 144.649 247.851 147.716 247.851 151.703C247.851 155.69 249.385 158.757 251.531 158.757C253.678 158.757 255.212 155.69 255.212 151.703C255.212 147.716 253.678 144.649 251.531 144.649Z" fill="#FF97BF"/>
<path d="M253.678 136.982C251.225 136.982 249.078 135.142 249.078 132.688C249.078 130.235 252.451 128.702 253.371 128.088V122.568" stroke="#FFBED7" stroke-width="0.6298" stroke-miterlimit="10" stroke-linecap="round" stroke-linejoin="round"/>
<path d="M293.547 129.007L292.627 129.927C291.707 130.847 291.707 132.687 292.627 133.607" stroke="#FFBED7" stroke-width="0.6298" stroke-miterlimit="10" stroke-linecap="round" stroke-linejoin="round"/>
<path d="M270.852 194.023C257.972 190.036 244.171 195.863 237.73 207.517L212.583 253.213C211.662 254.439 210.436 254.133 210.129 253.213L198.168 220.091C196.635 215.491 197.555 210.584 201.235 207.21C207.982 201.383 210.436 191.876 207.369 182.983C206.449 180.222 204.609 177.462 202.462 175.315C200.622 173.169 197.555 172.555 195.101 173.475C194.181 171.022 192.035 168.875 189.275 168.568C185.595 167.955 181.914 168.568 178.541 169.795C172.714 171.942 168.42 176.235 165.967 181.142L159.526 163.661C158.3 160.288 154.62 158.141 150.939 159.368C147.259 160.595 145.419 164.581 146.646 167.955L154.619 190.036C154.619 190.343 154.62 190.65 154.313 190.956C154.006 190.956 153.699 190.956 153.393 190.65L147.259 173.475C146.032 170.102 142.352 167.955 138.672 169.182C134.992 170.409 133.152 174.395 134.378 177.769L140.512 195.25L147.259 214.264L178.847 301.669C185.594 320.683 208.289 328.963 226.383 317.309C230.677 314.549 234.357 310.562 237.117 306.269L281.28 234.505C291.4 220.091 285.88 201.383 270.852 194.023ZM178.541 193.41C177.007 189.116 179.154 184.516 183.448 182.983C184.674 182.676 185.901 182.369 187.434 182.676C188.661 182.982 189.581 182.676 190.501 182.369C190.808 183.289 191.421 184.209 192.035 185.129C192.955 186.049 193.262 186.969 193.875 187.889C195.408 192.183 193.261 196.783 188.968 198.317C184.674 199.85 180.074 197.396 178.541 193.41Z" fill="#FFE5EF"/>
<path d="M194.182 175.01C194.182 177.156 193.262 178.996 191.422 180.223" stroke="#FFBED7" stroke-width="0.6298" stroke-miterlimit="10" stroke-linecap="round" stroke-linejoin="round"/>
<path d="M211.049 256.894L210.743 262.721" stroke="#FFBED7" stroke-width="0.6298" stroke-miterlimit="10" stroke-linecap="round" stroke-linejoin="round"/>
<path d="M218.41 242.787L261.652 267.628L272.386 250.454L228.223 224.692L218.41 242.787Z" fill="#FFD0DD"/>
<path d="M286.8 211.198C284.653 203.224 278.826 196.477 271.465 193.103C258.278 189.117 243.557 194.943 237.117 207.211L219.943 238.186L265.638 265.48L283.733 235.119C287.72 228.065 288.946 219.171 286.8 211.198Z" fill="#5A87FA"/>
</g>
</g>
<defs>
<filter id="filter0_d" x="118" y="28" width="250" height="340" filterUnits="userSpaceOnUse" color-interpolation-filters="sRGB">
<feFlood flood-opacity="0" result="BackgroundImageFix"/>
<feColorMatrix in="SourceAlpha" type="matrix" values="0 0 0 0 0 0 0 0 0 0 0 0 0 0 0 0 0 0 127 0"/>
<feOffset dy="4"/>
<feGaussianBlur stdDeviation="8"/>
<feColorMatrix type="matrix" values="0 0 0 0 0 0 0 0 0 0 0 0 0 0 0 0 0 0 0.08 0"/>
<feBlend mode="normal" in2="BackgroundImageFix" result="effect1_dropShadow"/>
<feBlend mode="normal" in="SourceGraphic" in2="effect1_dropShadow" result="shape"/>
</filter>
</defs>
</svg>
