<svg width="382" height="348" viewBox="0 0 382 348" fill="none" xmlns="http://www.w3.org/2000/svg">
<mask id="mask0" mask-type="alpha" maskUnits="userSpaceOnUse" x="0" y="0" width="382" height="349">
<path d="M382 348L3.05176e-05 348L2.19259e-06 24.0001C1.03382e-06 10.7453 10.7452 0.000124091 24 0.000122932L358 9.37329e-05C371.255 9.25741e-05 382 10.7453 382 24.0001L382 348Z" fill="#78CD69"/>
</mask>
<g mask="url(#mask0)">
<g filter="url(#filter0_d)">
<path d="M272 210C321.706 210 362 169.706 362 120C362 70.2945 321.706 30.0001 272 30.0001C222.294 30.0001 182 70.2945 182 120C182 169.706 222.294 210 272 210Z" fill="#D2DCFF"/>
<path d="M371.828 253.287L374.696 287.14C374.696 288 376.131 288.287 376.418 287.426L387.319 253.861L391.336 243.533C391.623 242.672 391.909 242.099 392.483 241.238L406.541 201.648C407.401 198.492 410.557 196.771 413.713 197.918C416.868 199.066 418.59 201.935 417.442 205.09L414.573 213.123C413.713 215.992 416.295 218.861 419.164 217.713C423.467 216.279 428.344 215.418 432.934 215.418H451.582C454.737 215.418 457.319 218 457.319 221.156C457.319 224.312 454.737 226.894 451.582 226.894H434.081C433.508 226.894 433.221 227.467 433.221 227.754C433.221 228.328 433.795 228.615 434.081 228.615H454.163C457.319 228.615 459.901 231.197 459.901 234.353C459.901 237.508 457.319 240.09 454.163 240.09H434.081C433.508 240.09 433.221 240.664 433.221 240.951C433.221 241.525 433.795 241.812 434.081 241.812H448.426C451.581 241.812 454.163 244.394 454.163 247.549C454.163 250.705 451.581 253.287 448.426 253.287H433.221H427.196L407.115 308.369C401.664 321.853 388.754 330.746 374.41 330.746C356.91 330.746 342.278 317.262 340.557 300.049L336.541 257.59L371.828 253.287Z" fill="#FFE5EF"/>
<path d="M371.827 253.287L336.254 258.164L337.688 272.508C349.45 267.344 361.213 262.467 372.688 259.885L371.827 253.287Z" fill="#FFD0DD"/>
<path d="M187.074 253.287L184.205 287.14C184.205 288 182.77 288.287 182.483 287.426L171.582 253.861L167.566 243.533C167.279 242.672 166.992 242.099 166.418 241.238L152.361 201.648C151.5 198.492 148.344 196.771 145.188 197.918C142.033 198.779 140.311 201.935 141.459 205.09L144.328 213.123C145.188 215.992 142.606 218.861 139.738 217.713C135.434 216.279 130.557 215.418 125.967 215.418H107.32C104.164 215.418 101.582 218 101.582 221.156C101.582 224.312 104.164 226.894 107.32 226.894H124.82C125.393 226.894 125.68 227.467 125.68 227.754C125.68 228.328 125.107 228.615 124.82 228.615H104.738C101.582 228.615 99 231.197 99 234.353C99 237.508 101.582 240.09 104.738 240.09H124.82C125.393 240.09 125.68 240.664 125.68 240.951C125.68 241.525 125.107 241.812 124.82 241.812H110.475C107.32 241.812 104.738 244.394 104.738 247.549C104.738 250.705 107.32 253.287 110.475 253.287H125.68H131.705L151.787 308.369C157.238 321.853 170.147 330.746 184.492 330.746C201.991 330.746 216.623 317.262 218.344 300.049L222.361 257.59L187.074 253.287Z" fill="#FFE5EF"/>
<path d="M140.024 246.976C141.746 242.099 139.737 231.197 137.156 226.32" stroke="#333333" stroke-width="0.3384" stroke-miterlimit="10" stroke-linecap="round" stroke-linejoin="round"/>
<path d="M145.189 224.6C144.902 230.911 149.492 235.214 154.656 234.354" stroke="#333333" stroke-width="0.3384" stroke-miterlimit="10" stroke-linecap="round" stroke-linejoin="round"/>
<path d="M145.189 224.6C144.902 230.911 149.492 235.214 154.656 234.354" stroke="#FFBED7" stroke-width="0.6709" stroke-miterlimit="10" stroke-linecap="round" stroke-linejoin="round"/>
<path d="M140.024 246.976C141.746 242.099 139.737 231.197 137.156 226.32" stroke="#FFBED7" stroke-width="0.6709" stroke-miterlimit="10" stroke-linecap="round" stroke-linejoin="round"/>
<path d="M187.074 253.287L222.647 258.164L221.213 272.508C209.451 267.344 197.689 262.467 186.213 259.885L187.074 253.287Z" fill="#FFD0DD"/>
<path d="M377.278 248.123C374.123 221.443 345.147 199.353 306.705 191.894C304.41 191.607 302.688 189.599 302.114 187.304C301.827 185.295 300.393 183.574 298.385 183C285.762 178.697 273.426 178.697 260.803 183C258.795 183.574 257.647 185.295 257.074 187.304C256.5 189.599 254.779 191.32 252.483 191.894C211.459 199.64 181.623 224.025 181.623 253L213.754 261.32C216.336 261.894 218.057 264.476 218.057 267.058L211.746 351.976C211.459 355.131 214.041 358 217.196 358H341.418C344.86 358 347.442 355.131 346.869 351.976L338.549 267.344C338.262 264.476 339.983 261.894 342.852 261.32L372.688 253.861C375.557 253.574 377.565 250.992 377.278 248.123Z" fill="#5A87FA"/>
<path opacity="0.5" d="M301.827 198.205L293.508 209.394C292.073 211.115 289.492 211.402 288.057 209.968L282.032 204.23C280.598 202.796 278.303 202.796 276.868 204.23L270.844 209.968C269.123 211.402 266.541 211.402 265.393 209.394L257.073 198.205" stroke="white" stroke-width="0.6298" stroke-miterlimit="10" stroke-linecap="round" stroke-linejoin="round"/>
<path d="M279.451 212.837C280.401 212.837 281.172 212.066 281.172 211.115C281.172 210.165 280.401 209.394 279.451 209.394C278.5 209.394 277.729 210.165 277.729 211.115C277.729 212.066 278.5 212.837 279.451 212.837Z" fill="#E5E5E5"/>
<path d="M279.451 218.289C280.401 218.289 281.172 217.518 281.172 216.567C281.172 215.617 280.401 214.846 279.451 214.846C278.5 214.846 277.729 215.617 277.729 216.567C277.729 217.518 278.5 218.289 279.451 218.289Z" fill="#E5E5E5"/>
<path d="M296.09 142.262H263.672L260.803 182.139C259.369 193.614 268.549 195.336 280.024 195.336C291.5 195.336 300.393 193.614 299.245 182.139L296.09 142.262Z" fill="#FFDBE5"/>
<path d="M260.516 184.434C260.516 191.32 265.393 193.902 272.279 194.762C274.287 182.713 282.32 163.205 288.344 158.328L261.95 159.189L260.229 181.852V182.139C260.229 182.426 260.229 182.713 260.229 183C260.516 183.574 260.516 184.148 260.516 184.434Z" fill="#FFD0DD"/>
<path d="M234.41 119.312C234.41 98.0824 252.196 81.1562 273.426 82.0168C292.36 82.8775 308.139 98.6562 308.713 117.591C309 126.197 306.418 134.517 301.828 140.828C297.811 146.566 294.082 152.591 290.065 158.615C284.041 168.082 272.565 174.107 259.942 172.386C247.893 170.664 237.852 161.484 234.984 149.435C234.123 145.992 234.123 142.55 234.41 139.394C234.983 133.369 234.696 127.345 234.41 121.32C234.696 120.746 234.41 120.173 234.41 119.312Z" fill="#FFE5EF"/>
<path d="M261.377 172.672C261.09 172.672 260.803 172.672 260.516 172.672C248.467 170.951 238.426 161.771 235.557 149.721C234.697 146.279 234.697 142.836 234.984 139.68C235.271 136.525 235.27 133.369 235.27 130.213C235.27 125.623 236.131 120.746 237.853 116.443C241.008 108.984 245.885 100.951 251.336 99.2296C252.484 98.9427 253.344 99.5165 253.918 100.664C255.066 103.533 258.221 109.271 268.836 111.279C279.738 113.287 282.893 129.353 293.795 131.648C299.533 133.082 296.664 149.434 296.664 149.434L298.672 175.828C304.697 176.115 311.869 175.254 319.041 173.82C321.623 173.533 323.344 170.951 322.77 168.369C321.91 164.352 321.049 160.049 320.188 156.033L315.598 126.771C315.598 125.91 315.311 125.049 315.311 124.475C315.311 122.467 315.024 120.172 314.737 117.59C310.434 91.4837 296.951 84.3116 290.926 82.3034C287.771 81.4427 278.877 78.287 269.123 78.0001C259.369 78.0001 248.467 83.1641 241.295 91.7706C234.697 102.385 231.254 113.574 230.68 119.312C230.107 125.049 229.533 134.803 229.533 139.107C229.246 147.713 228.098 158.328 227.238 169.23C226.951 171.525 228.672 173.82 230.967 174.107C239 175.541 249.328 176.115 261.09 176.115L261.377 172.672Z" fill="#333333"/>
<path d="M293.508 133.081C293.508 129.065 296.377 125.909 300.106 126.196C303.262 126.483 305.844 129.352 305.844 132.795C305.844 134.516 305.557 135.95 304.696 137.098C304.123 138.245 303.262 139.393 302.688 140.254C301.541 141.975 299.819 143.122 297.811 142.835C295.803 142.549 294.082 140.827 293.795 138.532C293.795 137.958 293.508 137.385 293.795 136.811C293.795 135.663 293.795 134.516 293.795 133.368C293.508 133.081 293.508 133.081 293.508 133.081Z" fill="#FFE5EF"/>
<path d="M247.606 137.672C249.824 137.672 251.623 135.103 251.623 131.934C251.623 128.765 249.824 126.196 247.606 126.196C245.388 126.196 243.59 128.765 243.59 131.934C243.59 135.103 245.388 137.672 247.606 137.672Z" fill="white"/>
<path d="M267.688 137.672C269.906 137.672 271.705 135.103 271.705 131.934C271.705 128.765 269.906 126.196 267.688 126.196C265.47 126.196 263.672 128.765 263.672 131.934C263.672 135.103 265.47 137.672 267.688 137.672Z" fill="white"/>
<path d="M246.172 135.377C247.598 135.377 248.754 133.836 248.754 131.935C248.754 130.033 247.598 128.492 246.172 128.492C244.746 128.492 243.59 130.033 243.59 131.935C243.59 133.836 244.746 135.377 246.172 135.377Z" fill="#333333"/>
<path d="M266.254 135.377C267.521 135.377 268.549 133.836 268.549 131.935C268.549 130.033 267.521 128.492 266.254 128.492C264.986 128.492 263.959 130.033 263.959 131.935C263.959 133.836 264.986 135.377 266.254 135.377Z" fill="#333333"/>
<path d="M270.844 146.279C263.672 148.287 257.073 150.009 251.336 150.295C250.762 150.295 250.188 151.156 250.762 151.443C251.623 152.877 254.205 153.738 257.073 153.738C263.672 153.738 269.409 150.009 271.704 147.427C272.278 147.14 271.705 145.992 270.844 146.279Z" fill="#FF97BF"/>
<path d="M300.967 132.795L300.106 133.656C299.246 134.517 299.246 136.238 300.106 137.099" stroke="#FFBED7" stroke-width="0.6298" stroke-miterlimit="10" stroke-linecap="round" stroke-linejoin="round"/>
<path d="M257.647 139.394C255.352 139.394 253.344 137.672 253.344 135.09C253.344 132.795 256.5 131.361 257.647 130.787V125.623" stroke="#FFBED7" stroke-width="0.6298" stroke-miterlimit="10" stroke-linecap="round" stroke-linejoin="round"/>
</g>
</g>
<defs>
<filter id="filter0_d" x="83" y="18.0001" width="392.901" height="360" filterUnits="userSpaceOnUse" color-interpolation-filters="sRGB">
<feFlood flood-opacity="0" result="BackgroundImageFix"/>
<feColorMatrix in="SourceAlpha" type="matrix" values="0 0 0 0 0 0 0 0 0 0 0 0 0 0 0 0 0 0 127 0"/>
<feOffset dy="4"/>
<feGaussianBlur stdDeviation="8"/>
<feColorMatrix type="matrix" values="0 0 0 0 0 0 0 0 0 0 0 0 0 0 0 0 0 0 0.08 0"/>
<feBlend mode="normal" in2="BackgroundImageFix" result="effect1_dropShadow"/>
<feBlend mode="normal" in="SourceGraphic" in2="effect1_dropShadow" result="shape"/>
</filter>
</defs>
</svg>
