<svg width="382" height="348" viewBox="0 0 382 348" fill="none" xmlns="http://www.w3.org/2000/svg">
<mask id="mask0" mask-type="alpha" maskUnits="userSpaceOnUse" x="0" y="0" width="382" height="348">
<path d="M382 348L3.05176e-05 348L2.19259e-06 24C1.03382e-06 10.7452 10.7452 2.02057e-06 24 8.61793e-07L358 -2.83374e-05C371.255 -2.94962e-05 382 10.7451 382 24L382 348Z" fill="#1EB4BE"/>
</mask>
<g mask="url(#mask0)">
<g filter="url(#filter0_d)">
<path d="M332 40H192C180.954 40 172 48.9543 172 60V200C172 211.046 180.954 220 192 220H332C343.046 220 352 211.046 352 200V60C352 48.9543 343.046 40 332 40Z" fill="#FFDCE6"/>
<path d="M335.62 347.713V348H293.104C293.966 330.764 290.344 309.15 285.748 292.488L266.213 222.68L298.675 212.626C303.559 211.189 308.443 213.775 309.879 218.658L329.701 290.189C332.861 302.829 336.195 334.498 335.62 347.713Z" fill="#FFE5EF"/>
<path d="M283.737 151.151H251.275L248.403 194.529C246.966 206.02 256.159 207.744 267.65 207.744C279.141 207.744 288.046 206.02 286.897 194.529L283.737 151.151Z" fill="#FFDBE5"/>
<path d="M276.268 170.396C270.235 175.28 261.904 195.102 259.893 207.167C253.286 206.305 248.402 204.007 248.115 197.4C248.115 196.251 248.115 195.102 248.115 194.527V194.24L249.551 171.258L276.268 170.396Z" fill="#FFD0DD"/>
<path d="M222.548 131.329C222.548 110.07 240.359 93.1212 261.617 93.983C280.577 94.8448 296.09 110.645 296.952 129.605C297.239 138.223 294.654 146.554 290.057 152.874C286.035 158.62 281.152 162.929 277.417 168.962C271.384 178.442 257.595 183.325 246.966 181.027C236.05 178.729 228.006 169.249 226.282 161.492C225.421 158.045 225.421 153.736 225.133 150.576C224.846 144.831 223.122 139.372 222.548 133.34C222.548 132.765 222.548 132.19 222.548 131.329Z" fill="#FFE5EF"/>
<path d="M284.886 166.949C284.886 166.949 307.006 155.745 302.697 129.316C298.388 103.174 284.886 95.9919 278.853 93.981C272.82 91.9701 243.231 81.6282 229.442 103.461C215.653 125.294 219.675 135.061 223.697 140.807C223.697 140.807 228.293 114.377 239.209 111.217C240.358 110.93 241.508 111.505 241.795 112.654C242.944 115.527 246.104 121.272 256.733 123.283C271.097 126.156 272.246 137.072 278.279 138.796C284.311 140.232 283.737 158.618 284.886 166.949Z" fill="#333333"/>
<path d="M281.439 144.831C281.439 140.809 284.312 137.649 288.046 137.936C291.206 138.223 293.792 141.096 293.792 144.543C293.792 146.267 293.504 147.703 292.643 148.853C292.068 150.002 291.206 151.151 290.632 152.012C289.483 153.736 287.759 154.885 285.748 154.598C283.737 154.311 282.014 152.587 281.726 150.289C281.726 149.714 281.439 149.14 281.726 148.565C281.726 147.416 281.726 146.267 281.726 145.118C281.439 145.118 281.439 145.118 281.439 144.831Z" fill="#FFE5EF"/>
<path d="M309.056 111.11C314.553 105.613 313.826 95.9731 307.431 89.5785C301.037 83.1839 291.396 82.4563 285.899 87.9534C280.402 93.4505 281.13 103.091 287.524 109.485C293.919 115.88 303.559 116.608 309.056 111.11Z" fill="#333333"/>
<path d="M237.773 145.116C239.994 145.116 241.795 142.544 241.795 139.371C241.795 136.198 239.994 133.625 237.773 133.625C235.552 133.625 233.751 136.198 233.751 139.371C233.751 142.544 235.552 145.116 237.773 145.116Z" fill="white"/>
<path d="M257.882 145.116C260.103 145.116 261.904 142.544 261.904 139.371C261.904 136.198 260.103 133.625 257.882 133.625C255.661 133.625 253.86 136.198 253.86 139.371C253.86 142.544 255.661 145.116 257.882 145.116Z" fill="white"/>
<path d="M236.05 142.817C237.478 142.817 238.635 141.274 238.635 139.37C238.635 137.466 237.478 135.923 236.05 135.923C234.622 135.923 233.464 137.466 233.464 139.37C233.464 141.274 234.622 142.817 236.05 142.817Z" fill="#333333"/>
<path d="M256.159 142.817C257.428 142.817 258.457 141.274 258.457 139.37C258.457 137.466 257.428 135.923 256.159 135.923C254.889 135.923 253.86 137.466 253.86 139.37C253.86 141.274 254.889 142.817 256.159 142.817Z" fill="#333333"/>
<path d="M289.195 193.379C279.14 188.495 267.362 187.921 256.733 192.23C240.071 198.837 228.293 213.488 225.133 231.299L205.886 340.75C205.311 344.485 208.184 347.932 211.918 347.932H320.221C323.955 347.932 326.828 344.772 326.253 341.037L311.602 224.404C309.879 210.902 301.548 199.412 289.195 193.379Z" fill="#FF5F87"/>
<path d="M269.374 243.654L232.028 302.832C232.028 302.832 274.545 298.81 274.545 240.781L269.374 243.654Z" fill="#F05078"/>
<path d="M255.872 155.46C252.712 156.897 242.945 156.897 240.072 155.46C239.497 155.173 239.21 156.035 239.497 156.897C240.646 160.344 244.094 162.929 248.115 162.929C252.137 162.929 255.585 160.344 256.734 156.897C256.446 156.035 256.159 155.46 255.872 155.46Z" fill="#FF97BF"/>
<path d="M289.195 144.83L288.334 145.692C287.472 146.554 287.472 148.277 288.334 149.139" stroke="#FFBED7" stroke-width="0.6298" stroke-miterlimit="10" stroke-linecap="round" stroke-linejoin="round"/>
<path d="M247.541 149.139C245.242 149.139 243.231 147.416 243.231 144.83C243.231 143.394 244.381 142.245 245.53 141.67C246.679 140.808 247.541 139.372 247.541 137.936V134.776" stroke="#FFBED7" stroke-width="0.6298" stroke-miterlimit="10" stroke-linecap="round" stroke-linejoin="round"/>
<path d="M262.191 203.72C250.126 199.986 237.199 205.444 231.166 216.36L207.609 259.164C206.748 260.313 205.598 260.026 205.311 259.164L194.107 228.139C192.671 223.829 193.533 219.233 196.98 216.073C203.3 210.615 205.598 201.709 202.726 193.378C201.864 190.793 200.14 188.208 198.129 186.197C196.406 184.186 193.533 183.611 191.235 184.473C190.373 182.175 188.362 180.164 185.777 179.877C182.329 179.302 178.882 179.876 175.722 181.026C170.264 183.036 166.242 187.058 163.944 191.655L157.911 175.28C156.762 172.12 153.315 170.109 149.867 171.258C146.42 172.407 144.696 176.142 145.845 179.302L153.315 199.986C153.315 200.273 153.315 200.56 153.027 200.847C152.74 201.135 152.453 200.848 152.165 200.56L146.42 184.473C145.271 181.313 141.824 179.302 138.376 180.451C134.929 181.6 133.205 185.335 134.355 188.495L140.1 204.869L146.42 222.68L176.009 304.553C182.329 322.364 203.588 330.121 220.537 319.204C224.559 316.619 228.006 312.884 230.591 308.862L271.959 241.64C281.726 228.139 276.555 210.615 262.191 203.72ZM176.009 203.146C174.573 199.124 176.584 194.815 180.606 193.378C181.755 193.091 182.904 192.804 184.34 193.091C185.489 193.378 186.351 193.091 187.213 192.804C187.5 193.666 188.075 194.527 188.649 195.389C189.511 196.251 189.798 197.113 190.373 197.975C191.809 201.997 189.798 206.306 185.777 207.742C181.755 209.178 177.446 206.88 176.009 203.146Z" fill="#FFE5EF"/>
<path d="M190.66 185.91C190.66 187.921 189.799 189.645 188.075 190.794" stroke="#FFBED7" stroke-width="0.6298" stroke-miterlimit="10" stroke-linecap="round" stroke-linejoin="round"/>
<path d="M206.173 262.613L205.886 268.071" stroke="#FFBED7" stroke-width="0.6298" stroke-miterlimit="10" stroke-linecap="round" stroke-linejoin="round"/>
<path d="M213.068 249.397L253.573 272.953L263.628 256.579L222.26 232.735L213.068 249.397Z" fill="#FFD0DD"/>
<path d="M277.13 219.808C275.119 212.339 269.661 206.019 262.766 202.859C250.413 199.125 236.624 204.583 230.592 216.074L214.504 245.089L257.308 270.656L274.257 242.216C278.279 235.608 279.428 227.277 277.13 219.808Z" fill="#FF5F87"/>
</g>
</g>
<defs>
<filter id="filter0_d" x="118" y="28" width="250" height="340" filterUnits="userSpaceOnUse" color-interpolation-filters="sRGB">
<feFlood flood-opacity="0" result="BackgroundImageFix"/>
<feColorMatrix in="SourceAlpha" type="matrix" values="0 0 0 0 0 0 0 0 0 0 0 0 0 0 0 0 0 0 127 0"/>
<feOffset dy="4"/>
<feGaussianBlur stdDeviation="8"/>
<feColorMatrix type="matrix" values="0 0 0 0 0 0 0 0 0 0 0 0 0 0 0 0 0 0 0.08 0"/>
<feBlend mode="normal" in2="BackgroundImageFix" result="effect1_dropShadow"/>
<feBlend mode="normal" in="SourceGraphic" in2="effect1_dropShadow" result="shape"/>
</filter>
</defs>
</svg>
