<svg width="382" height="348" viewBox="0 0 382 348" fill="none" xmlns="http://www.w3.org/2000/svg">
<mask id="mask0" mask-type="alpha" maskUnits="userSpaceOnUse" x="0" y="0" width="382" height="348">
<path d="M382 324C382 337.255 371.255 348 358 348L24 348C10.7452 348 2.95782e-05 337.255 2.84194e-05 324L2.19259e-06 24C1.03382e-06 10.7452 10.7452 1.93855e-06 24 7.79773e-07L358 -2.84194e-05C371.255 -2.95782e-05 382 10.7451 382 24L382 324Z" fill="#F04682"/>
</mask>
<g mask="url(#mask0)">
<path d="M317.451 142.78H284.782L281.832 182.962C280.495 194.487 289.503 196.238 301.107 196.238C312.711 196.238 321.719 194.487 320.382 182.962L317.451 142.78Z" fill="#FFDAE4"/>
<path d="M309.996 162.251C303.821 167.148 295.481 183.63 293.652 195.864C286.886 195.038 282.107 192.579 281.733 185.99C281.753 184.751 281.773 183.729 281.812 183.198C281.812 183.119 281.832 183.06 281.832 182.981L283.267 163.234L309.996 162.251Z" fill="#FFCDDC"/>
<path d="M255.615 119.885C255.615 98.5455 273.434 81.3752 294.99 82.4176C314.127 83.342 329.783 99.0962 330.609 118.233C330.983 127.025 328.328 135.168 323.607 141.717C319.418 147.519 315.661 153.616 311.826 159.674C305.69 169.351 294.243 175.31 281.596 173.501C269.362 171.75 259.253 162.428 256.441 150.41C255.634 146.949 255.437 143.566 255.772 140.36C256.382 134.283 256.047 128.166 255.693 122.049C255.634 121.321 255.615 120.593 255.615 119.885Z" fill="#FFE4EE"/>
<path d="M291.922 133.988C294.062 133.988 295.796 131.549 295.796 128.54C295.796 125.531 294.062 123.092 291.922 123.092C289.782 123.092 288.047 125.531 288.047 128.54C288.047 131.549 289.782 133.988 291.922 133.988Z" fill="white"/>
<path d="M290.683 132.572C292.138 132.572 293.318 130.811 293.318 128.638C293.318 126.466 292.138 124.705 290.683 124.705C289.227 124.705 288.047 126.466 288.047 128.638C288.047 130.811 289.227 132.572 290.683 132.572Z" fill="#2D2D37"/>
<path d="M270.583 133.988C272.723 133.988 274.458 131.549 274.458 128.54C274.458 125.531 272.723 123.092 270.583 123.092C268.443 123.092 266.708 125.531 266.708 128.54C266.708 131.549 268.443 133.988 270.583 133.988Z" fill="white"/>
<path d="M269.344 132.572C270.8 132.572 271.98 130.811 271.98 128.638C271.98 126.466 270.8 124.705 269.344 124.705C267.889 124.705 266.709 126.466 266.709 128.638C266.709 130.811 267.889 132.572 269.344 132.572Z" fill="#2D2D37"/>
<path d="M258.092 121.715L255.673 122.03C255.831 124.626 255.968 127.222 256.047 129.838C257.64 129.779 255.732 121.892 258.092 121.755" fill="#787885"/>
<path d="M306.142 126.239C309.466 126.239 307.401 132.12 312.259 132.12C321.189 132.12 311.551 146.163 320.539 146.163C321.543 144.668 322.585 143.174 323.627 141.718C326.519 137.706 328.643 133.084 329.764 128.088C323.863 128.659 315.288 127.616 306.142 126.22" fill="#787885"/>
<path d="M255.614 119.887C255.614 98.3696 273.728 81.0813 295.521 82.4384C314.736 83.6382 330.156 99.6677 330.628 118.923C330.707 122.07 330.392 125.138 329.724 128.088C330.392 125.158 331.1 122.089 331.022 118.923C330.55 99.6677 314.736 82.3008 295.521 81.101C273.709 79.7439 255.339 95.6948 255.339 117.212C255.339 117.939 255.634 121.303 255.673 122.011C255.673 122.011 255.673 122.011 255.673 122.03C255.673 122.03 255.673 122.03 255.673 122.011C255.634 121.322 255.614 120.595 255.614 119.887Z" fill="#2D2D37"/>
<path d="M300.595 111.015C297.665 109.304 289.857 106.472 279.059 106.472C263.6 106.472 262.105 110.799 262.105 110.799C262.105 110.799 262.085 110.877 262.066 110.995C264.032 109.717 268.713 107.789 279.059 107.789C289.857 107.789 299.002 110.622 301.933 112.333C301.953 112.352 301.972 112.352 301.972 112.372C301.618 111.802 301.166 111.349 300.595 111.015Z" fill="#2D2D37"/>
<path d="M303.88 115.46C304.135 118.98 303.624 126.218 306.122 126.218C315.268 127.615 323.843 128.657 329.743 128.087C330.392 125.156 330.727 122.088 330.648 118.921C330.176 99.6664 314.756 83.6172 295.541 82.4371C273.729 81.08 255.634 98.3683 255.634 119.885C255.634 120.613 255.654 121.321 255.693 122.029C255.693 122.029 255.693 122.029 255.693 122.049L258.112 121.734C260.118 121.616 260.767 112.097 260.767 112.097C260.767 112.097 261.082 111.625 262.065 110.995C262.085 110.877 262.105 110.799 262.105 110.799C262.105 110.799 263.6 106.472 279.059 106.472C289.857 106.472 297.665 109.304 300.595 111.015C301.166 111.349 301.638 111.802 301.972 112.352C303.074 113.021 303.781 114.162 303.88 115.46Z" fill="#2D2D37"/>
<path d="M260.769 112.078C260.769 112.078 263.601 107.751 279.06 107.751C289.858 107.751 299.004 110.583 301.934 112.294C303.075 112.963 303.803 114.123 303.901 115.441C304.157 118.961 303.645 126.199 306.143 126.199C315.289 127.596 323.864 128.638 329.765 128.068C330.433 125.137 331.141 122.069 331.063 118.902C330.59 99.6472 314.777 82.2803 295.562 81.0805C273.75 79.7234 255.38 95.6743 255.38 117.191C255.38 117.919 255.675 121.282 255.714 121.99C255.714 121.99 255.714 121.99 255.714 122.01L258.133 121.695C260.1 121.597 260.769 112.078 260.769 112.078Z" fill="#2D2D37"/>
<path d="M310.921 129.995C310.921 126.062 313.871 122.895 317.451 123.092C320.617 123.269 323.213 126.16 323.351 129.681C323.41 131.293 322.978 132.788 322.191 134.008C321.502 135.07 320.873 136.191 320.244 137.312C319.221 139.102 317.333 140.183 315.228 139.869C313.202 139.554 311.531 137.823 311.059 135.62C310.921 134.991 310.901 134.361 310.941 133.771C311.039 132.65 310.98 131.529 310.921 130.408C310.921 130.271 310.921 130.133 310.921 129.995Z" fill="#FFE4EE"/>
<path d="M278.155 158.141C280.121 158.141 281.715 155.156 281.715 151.473C281.715 147.791 280.121 144.806 278.155 144.806C276.189 144.806 274.595 147.791 274.595 151.473C274.595 155.156 276.189 158.141 278.155 158.141Z" fill="#FF7BA4"/>
<path d="M280.022 137.627C277.603 137.686 275.597 135.778 275.538 133.359C275.479 130.94 278.861 129.425 279.806 128.875V123.584" stroke="#FFBED2" stroke-width="1.85864" stroke-miterlimit="10" stroke-linecap="round" stroke-linejoin="round"/>
<path d="M318.453 129.838L317.49 130.802C316.506 131.786 316.506 133.379 317.49 134.362" stroke="#FFBED2" stroke-width="1.85864" stroke-miterlimit="10" stroke-linecap="round" stroke-linejoin="round"/>
<path d="M98.0359 187.192L98.1342 200.763C98.1539 204.402 101.124 207.332 104.762 207.293C104.821 207.293 104.861 207.293 104.92 207.293L110.604 213.823L104.408 231.681C110.014 234.828 118.412 236.677 126.732 236.618H232.055V192.306H159.4C150.196 192.365 141.168 189.69 133.478 184.596C125.925 179.58 116.937 177.161 107.87 177.22C102.383 177.26 97.9966 181.724 98.0359 187.192Z" fill="#FFE4EE"/>
<path d="M109.305 205.817L67.6283 206.112C63.9897 206.132 61.0198 203.221 61.0001 199.582C60.9804 195.944 63.8914 192.974 67.53 192.954L109.207 192.659C112.845 192.64 115.815 195.551 115.835 199.189C115.874 202.828 112.944 205.798 109.305 205.817Z" fill="#FFE4EE"/>
<path d="M114.517 232.114L97.721 232.232C94.0627 232.251 91.0731 229.321 91.0534 225.662V225.584C91.0338 221.926 93.9644 218.936 97.6227 218.916L114.419 218.798C118.077 218.779 121.067 221.709 121.087 225.367V225.446C121.106 229.104 118.176 232.094 114.517 232.114Z" fill="#FFE4EE"/>
<path d="M109.875 218.996L93.0002 219.113C89.3616 219.133 86.3917 216.222 86.372 212.584C86.3524 208.945 89.2633 205.975 92.9019 205.956L109.777 205.838C113.416 205.818 116.386 208.729 116.405 212.367C116.425 215.986 113.514 218.956 109.875 218.996Z" fill="#FFE4EE"/>
<path d="M112.315 206.309C114.695 207.292 116.386 209.613 116.406 212.367C116.426 216.005 113.515 218.975 109.876 218.995L100.947 219.054L114.478 218.956C118.117 218.936 121.087 221.847 121.107 225.485C121.126 228.062 119.671 230.304 117.527 231.386" stroke="#FFBED2" stroke-width="1.85864" stroke-miterlimit="10" stroke-linecap="round" stroke-linejoin="round"/>
<path d="M129.111 205.306C114.478 205.405 111.233 192.66 111.233 192.66L111.292 200.665C111.312 204.303 108.401 207.273 104.762 207.293C101.123 207.312 98.1535 204.402 98.1339 200.763L98.0945 195.925" stroke="#FFBED2" stroke-width="1.85864" stroke-miterlimit="10" stroke-linecap="round" stroke-linejoin="round"/>
<path d="M280.358 237.838H233.45C232.663 237.838 232.034 237.208 232.034 236.421V192.168C232.034 191.381 232.663 190.752 233.45 190.752H280.358C293.359 190.752 303.901 201.294 303.901 214.295C303.901 227.315 293.359 237.838 280.358 237.838Z" fill="#FF6991"/>
<path d="M240.728 237.837H261.518L274.145 195.865C274.145 195.865 251.428 206.958 240.728 237.837Z" fill="#F04682"/>
<path d="M228.966 192.306V236.599H232.035V192.306H228.966Z" fill="#FFCDDC"/>
<path d="M343.985 195.02L323.392 185.009C312.673 179.797 300.243 179.344 289.17 183.77C271.704 190.772 259.078 206.29 255.813 224.817L235.377 340.269C234.669 344.262 237.738 347.92 241.789 347.92H355.864C359.778 347.92 362.807 344.478 362.316 340.603L343.985 195.02Z" fill="#FF6991"/>
<path d="M351.714 256.286L301.993 224.955C301.993 224.955 308.07 259.138 354.074 275.049L351.714 256.286Z" fill="#F04682"/>
<path d="M360.249 263.229C361.272 263.8 361.173 265.314 360.072 265.727L334.405 275.345C326.164 278.059 317.333 278.433 308.856 276.427C299.868 274.283 290.427 275.129 281.773 278.413C276.64 280.36 274.103 286.143 276.03 291.276L277.407 294.954C277.407 294.954 273.67 296.783 270.897 298.75C268.124 300.717 265.94 304.218 267.238 307.66C268.477 310.944 271.998 312.655 275.302 311.711C272.49 313.324 271.152 316.786 272.332 319.913L272.391 320.07C273.709 323.571 277.604 325.341 281.085 324.024L283.425 323.139C280.849 324.81 279.688 328.075 280.809 331.065C281.773 333.641 284.173 335.274 286.769 335.392C293.2 336.434 301.854 335.254 309.741 332.284L398.031 299.045C412.487 293.597 422.066 279.77 422.066 264.331C422.066 251.409 415.339 239.431 404.325 232.685L342.095 194.607C328.21 185.599 309.544 190.91 302.503 205.897C298.648 218.563 304.175 232.193 315.76 238.605L360.249 263.229Z" fill="#FFE4EE"/>
<path d="M364.556 265.038L370.122 265.274" stroke="#FFBED2" stroke-width="1.85864" stroke-miterlimit="10" stroke-linecap="round" stroke-linejoin="round"/>
<path d="M279.825 294.953L294.34 289.505C294.34 289.505 288.754 291.176 287.456 287.734L288.892 291.55" stroke="#FFBED2" stroke-width="1.85864" stroke-miterlimit="10" stroke-linecap="round" stroke-linejoin="round"/>
<path d="M285.766 322.134L288.263 321.19" stroke="#FFBED2" stroke-width="1.85864" stroke-miterlimit="10" stroke-linecap="round" stroke-linejoin="round"/>
<path d="M277.879 310.707L280.376 309.763" stroke="#FFBED2" stroke-width="1.85864" stroke-miterlimit="10" stroke-linecap="round" stroke-linejoin="round"/>
<path d="M366.68 209.652L338.83 251.368L348.939 256.974L374.292 214.314L366.68 209.652Z" fill="#FFCDDC"/>
<path d="M319.044 190.574C311.137 192.836 304.587 198.383 301.106 205.837L301.047 205.994C297.055 219.093 302.857 233.411 314.835 240.02L344.337 256.325C345.005 256.699 345.832 256.463 346.225 255.814L371.715 213.016C372.108 212.347 371.892 211.482 371.223 211.088L342.331 194.075C335.447 189.591 326.97 188.313 319.044 190.574Z" fill="#FF6991"/>
</g>
</svg>
