<svg width="382" height="348" viewBox="0 0 382 348" fill="none" xmlns="http://www.w3.org/2000/svg">
<mask id="mask0" mask-type="alpha" maskUnits="userSpaceOnUse" x="0" y="0" width="382" height="348">
<path d="M382 324C382 337.255 371.255 348 358 348L24 348C10.7452 348 2.95782e-05 337.255 2.84194e-05 324L2.19259e-06 24C1.03382e-06 10.7452 10.7452 1.93855e-06 24 7.79773e-07L358 -2.84194e-05C371.255 -2.95782e-05 382 10.7451 382 24L382 324Z" fill="#32BECD"/>
</mask>
<g mask="url(#mask0)">
<path d="M315.218 212.242C313.962 207.657 309.138 205.045 304.612 206.461L270.104 217.286L288.106 282.078C292.95 299.541 296.678 326.355 297.535 347.926H341.893C341.574 331.04 338.723 299.222 335.952 287.42L315.218 212.242Z" fill="#FFE4EE"/>
<path d="M289.162 145.04H255.31L252.26 186.686C250.865 198.628 260.215 200.442 272.236 200.442C284.257 200.442 293.587 198.628 292.212 186.686L289.162 145.04Z" fill="#FFDAE4"/>
<path d="M281.426 165.235C275.027 170.319 266.374 187.384 264.5 200.063C257.483 199.206 252.539 196.654 252.16 189.816C252.18 188.521 252.2 187.484 252.26 186.926C252.26 186.846 252.28 186.766 252.28 186.706L253.775 166.252L281.426 165.235Z" fill="#FFCDDC"/>
<path d="M224.25 121.994C223.971 99.8848 242.212 81.8628 264.58 82.6602C284.416 83.3779 300.843 99.506 301.96 119.302C302.458 128.413 299.827 136.866 295.002 143.724C290.736 149.804 286.928 156.164 283.021 162.484C276.781 172.571 264.999 178.911 251.881 177.196C239.182 175.541 228.596 166.012 225.506 153.592C224.628 150.024 224.389 146.515 224.668 143.186C225.227 136.866 224.788 130.526 224.349 124.207C224.29 123.489 224.27 122.751 224.25 121.994Z" fill="#FFE4EE"/>
<path d="M290.258 159.991C290.258 159.991 295.342 151.977 301.163 141.929C306.586 132.599 308.181 122.931 307.543 112.325C306.905 101.739 299.07 91.8704 294.943 87.8234C290.817 83.7964 282.125 78.4735 274.23 76.7391C266.335 75.0046 266.874 76.9185 264.82 77.0181C262.787 77.1178 262.787 76.0015 260.594 76.0015C258.401 76.0015 239.183 75.6227 228.836 86.9662C218.489 98.3097 216.815 108.776 220.862 123.907C224.37 137.065 224.889 136.786 224.909 137.743C225.387 131.623 224.769 130.307 224.35 124.186C224.291 123.449 224.271 122.711 224.251 121.954C224.251 121.934 224.251 121.914 224.251 121.914C224.231 119.382 226.703 117.548 229.135 118.305L238.325 121.116C239.262 121.376 240.02 120.359 239.522 119.541L238.684 118.166L251.005 121.615C251.942 121.874 252.699 120.857 252.201 120.04L251.364 118.664L263.684 122.113C264.621 122.372 265.378 121.356 264.88 120.538L264.043 119.163L264.501 119.282C276.224 122.472 285.593 122.871 288.644 145" fill="#2D2D37"/>
<path d="M285.932 135.312C285.872 131.245 288.902 127.916 292.611 128.075C295.9 128.215 298.631 131.185 298.811 134.834C298.89 136.508 298.452 138.063 297.654 139.339C296.957 140.456 296.319 141.632 295.681 142.788C294.644 144.642 292.69 145.818 290.517 145.499C288.404 145.2 286.65 143.426 286.131 141.153C285.992 140.495 285.952 139.857 285.992 139.239C286.091 138.083 286.012 136.907 285.932 135.751C285.932 135.591 285.932 135.452 285.932 135.312Z" fill="#FFE4EE"/>
<path d="M237.986 138.482C240.32 138.482 242.213 135.849 242.213 132.601C242.213 129.353 240.32 126.72 237.986 126.72C235.652 126.72 233.76 129.353 233.76 132.601C233.76 135.849 235.652 138.482 237.986 138.482Z" fill="white"/>
<path d="M258.958 138.482C261.292 138.482 263.185 135.849 263.185 132.601C263.185 129.353 261.292 126.72 258.958 126.72C256.624 126.72 254.732 129.353 254.732 132.601C254.732 135.849 256.624 138.482 258.958 138.482Z" fill="white"/>
<path d="M236.371 136.229C237.814 136.229 238.983 134.604 238.983 132.601C238.983 130.597 237.814 128.972 236.371 128.972C234.929 128.972 233.76 130.597 233.76 132.601C233.76 134.604 234.929 136.229 236.371 136.229Z" fill="#2D2D37"/>
<path d="M257.264 136.109C258.652 136.109 259.776 134.538 259.776 132.601C259.776 130.663 258.652 129.092 257.264 129.092C255.877 129.092 254.752 130.663 254.752 132.601C254.752 134.538 255.877 136.109 257.264 136.109Z" fill="#2D2D37"/>
<path d="M248.096 158.43C250.132 158.405 251.745 155.287 251.698 151.467C251.65 147.647 249.961 144.571 247.924 144.596C245.887 144.621 244.275 147.739 244.322 151.559C244.369 155.379 246.059 158.455 248.096 158.43Z" fill="#FF7BA4"/>
<path d="M293.727 135.053L292.73 136.069C291.714 137.106 291.753 138.761 292.77 139.758" stroke="#FFBED2" stroke-width="1.88394" stroke-miterlimit="10" stroke-linecap="round" stroke-linejoin="round"/>
<path d="M248.293 140.255C245.821 140.315 243.768 138.361 243.708 135.889C243.648 133.417 247.117 131.882 248.074 131.304V128.254" stroke="#FFBED2" stroke-width="1.88394" stroke-miterlimit="10" stroke-linecap="round" stroke-linejoin="round"/>
<path d="M293.986 187.045C283.4 181.901 271.12 181.443 260.195 185.828C242.95 192.726 230.49 208.057 227.261 226.358L207.086 340.371C206.388 344.299 209.418 347.927 213.405 347.927H326.043C329.911 347.927 332.901 344.538 332.423 340.69L317.132 219.361C315.377 205.386 306.665 193.225 293.986 187.045Z" fill="#32D7E1"/>
<path d="M273.373 239.256L234.498 300.938C234.498 300.938 278.796 296.692 278.796 236.485L273.373 239.256Z" fill="#32BECD"/>
<path d="M265.957 197.99C253.457 194.182 239.98 199.645 233.66 211.088L209.02 255.665C208.262 256.821 207.026 256.641 206.647 255.545L194.965 223.149C193.39 218.783 194.467 213.819 197.935 210.729C204.375 204.988 207.026 195.697 203.936 187.105C202.919 184.274 201.344 181.722 199.271 179.529C197.377 177.516 194.566 176.898 192.114 177.695C191.337 175.223 189.204 173.309 186.472 172.931C182.984 172.452 179.395 172.811 176.086 174.007C170.464 176.041 166.197 180.147 163.805 185.171L157.645 168.046C156.429 164.657 152.761 162.664 149.352 163.78C145.823 164.936 143.969 168.764 145.205 172.233L153 193.883C153.119 194.202 152.94 194.561 152.621 194.661C152.302 194.78 151.943 194.601 151.844 194.282V194.262L145.823 177.536C144.607 174.147 140.939 172.153 137.53 173.27C134.001 174.426 132.147 178.254 133.383 181.722L139.503 198.728L146.142 217.188L176.903 302.554C183.542 320.955 205.75 329.248 223.334 317.924C227.6 315.173 231.149 311.405 233.9 307.139L277.101 237.084C285.992 223.368 280.749 204.948 265.957 197.99ZM176.006 197.173C174.531 193.066 176.664 188.521 180.771 187.045C181.987 186.607 183.263 186.467 184.538 186.647C185.615 186.806 186.672 186.686 187.629 186.387C187.928 187.364 188.466 188.281 189.203 189.059C189.961 189.856 190.519 190.773 190.898 191.81C192.373 195.917 190.24 200.462 186.133 201.937C182.027 203.413 177.481 201.279 176.006 197.173Z" fill="#FFE4EE"/>
<path d="M191.357 179.27C191.476 181.303 190.439 183.297 188.685 184.333" stroke="#FFBED2" stroke-width="1.88394" stroke-miterlimit="10" stroke-linecap="round" stroke-linejoin="round"/>
<path d="M207.565 259.232L207.326 264.735" stroke="#FFBED2" stroke-width="1.88394" stroke-miterlimit="10" stroke-linecap="round" stroke-linejoin="round"/>
<path d="M214.722 245.297L256.986 269.679L267.433 252.733L224.351 227.873L214.722 245.297Z" fill="#FFCDDC"/>
<path d="M281.486 214.695C279.253 206.88 273.771 200.421 266.415 196.972L266.275 196.912C253.337 192.985 239.202 198.706 232.683 210.528L216.555 239.715C216.216 240.353 216.416 241.13 217.034 241.509L259.397 266.748C260.035 267.126 260.853 266.907 261.231 266.269L278.057 237.681C282.463 230.883 283.719 222.51 281.486 214.695Z" fill="#32D7E1"/>
</g>
</svg>
