<svg width="382" height="348" viewBox="0 0 382 348" fill="none" xmlns="http://www.w3.org/2000/svg">
<mask id="mask0" mask-type="alpha" maskUnits="userSpaceOnUse" x="0" y="0" width="382" height="349">
<path d="M382 348L3.05176e-05 348L2.19259e-06 24.0001C1.03382e-06 10.7453 10.7452 0.000124091 24 0.000122932L358 9.37329e-05C371.255 9.25741e-05 382 10.7453 382 24.0001L382 348Z" fill="#646EDC"/>
</mask>
<g mask="url(#mask0)">
<g filter="url(#filter0_d)">
<path d="M264.857 44.0572C268.083 38.6477 275.917 38.6477 279.143 44.0572V44.0572C281.803 48.5177 287.856 49.4763 291.764 46.0561V46.0561C296.504 41.9083 303.955 44.3293 305.352 50.471V50.471C306.503 55.5352 311.963 58.3171 316.737 56.272V56.272C322.526 53.7919 328.865 58.397 328.295 64.6696V64.6696C327.825 69.8418 332.158 74.1748 337.33 73.705V73.705C343.603 73.1353 348.208 79.4737 345.728 85.2632V85.2632C343.683 90.0371 346.465 95.497 351.529 96.6485V96.6485C357.671 98.045 360.092 105.496 355.944 110.236V110.236C352.524 114.144 353.482 120.197 357.943 122.857V122.857C363.352 126.083 363.352 133.917 357.943 137.143V137.143C353.482 139.804 352.524 145.856 355.944 149.764V149.764C360.092 154.504 357.671 161.955 351.529 163.352V163.352C346.465 164.503 343.683 169.963 345.728 174.737V174.737C348.208 180.526 343.603 186.865 337.33 186.295V186.295C332.158 185.825 327.825 190.158 328.295 195.331V195.331C328.865 201.603 322.526 206.208 316.737 203.728V203.728C311.963 201.683 306.503 204.465 305.352 209.529V209.529C303.955 215.671 296.504 218.092 291.764 213.944V213.944C287.856 210.524 281.803 211.482 279.143 215.943V215.943C275.917 221.352 268.083 221.352 264.857 215.943V215.943C262.197 211.482 256.144 210.524 252.236 213.944V213.944C247.496 218.092 240.045 215.671 238.648 209.529V209.529C237.497 204.465 232.037 201.683 227.263 203.728V203.728C221.474 206.208 215.135 201.603 215.705 195.331V195.331C216.175 190.158 211.842 185.825 206.67 186.295V186.295C200.397 186.865 195.792 180.526 198.272 174.737V174.737C200.317 169.963 197.535 164.503 192.471 163.352V163.352C186.329 161.955 183.908 154.504 188.056 149.764V149.764C191.476 145.856 190.518 139.804 186.057 137.143V137.143C180.648 133.917 180.648 126.083 186.057 122.857V122.857C190.518 120.197 191.476 114.144 188.056 110.236V110.236C183.908 105.496 186.329 98.045 192.471 96.6485V96.6485C197.535 95.497 200.317 90.0371 198.272 85.2632V85.2632C195.792 79.4737 200.397 73.1353 206.67 73.705V73.705C211.842 74.1748 216.175 69.8418 215.705 64.6696V64.6696C215.135 58.397 221.474 53.7919 227.263 56.2721V56.2721C232.037 58.3171 237.497 55.5352 238.648 50.471V50.471C240.045 44.3293 247.496 41.9083 252.236 46.0561V46.0561C256.144 49.4763 262.197 48.5177 264.857 44.0572V44.0572Z" fill="#CDFFB9"/>
<path d="M106.142 224.961L80.9924 226.476C77.3563 226.779 74.326 224.052 74.023 220.415C73.72 216.779 76.4471 213.749 80.0832 213.446L111.293 211.628C116.748 211.325 122.202 211.931 127.353 213.143C130.686 214.052 133.716 210.719 132.201 207.386L128.565 198.296C127.353 194.963 129.171 191.023 132.504 189.811C135.837 188.599 139.776 190.417 140.989 193.751L159.775 238.293C160.381 239.202 160.684 240.111 160.987 241.02L166.138 252.535L180.986 290.411C181.289 291.32 182.804 291.017 182.804 290.108L183.713 250.716L225.225 253.747L223.71 302.834C223.104 323.136 207.045 339.498 187.046 340.407C170.38 341.316 154.927 332.226 147.655 317.076L123.414 261.019C121.899 257.383 118.263 255.262 114.323 255.565C111.293 255.868 108.263 254.353 106.445 251.928L102.203 246.474L109.778 240.717L106.142 224.961Z" fill="#FFE5EF"/>
<path d="M113.111 237.687L99.173 238.596C95.5369 238.899 92.5067 236.172 92.2037 232.536C91.9007 228.9 94.6277 225.869 98.2639 225.566L112.203 224.657C115.839 224.354 118.869 227.081 119.172 230.718C119.475 234.354 116.748 237.384 113.111 237.687Z" fill="#FFE5EF"/>
<path d="M117.353 250.716L103.415 251.625C99.7786 251.928 96.7484 249.201 96.4454 245.564C96.1424 241.928 98.8694 238.898 102.506 238.595L116.444 237.686C120.08 237.383 123.11 240.11 123.413 243.746C123.716 247.383 120.989 250.413 117.353 250.716Z" fill="#FFE5EF"/>
<path d="M98.2644 225.263L112.203 224.354C115.839 224.051 118.869 226.778 119.172 230.414C119.475 234.05 116.748 237.08 113.112 237.383" stroke="#FFBED7" stroke-width="0.6298" stroke-miterlimit="10" stroke-linecap="round" stroke-linejoin="round"/>
<path d="M104.626 237.989L116.444 237.383C120.08 237.08 123.11 239.807 123.413 243.443C123.716 247.079 120.989 250.109 117.353 250.412" stroke="#FFBED7" stroke-width="0.6298" stroke-miterlimit="10" stroke-linecap="round" stroke-linejoin="round"/>
<path d="M133.716 220.718C133.716 220.718 130.383 242.535 139.473 246.777" stroke="#FFBED7" stroke-width="0.6298" stroke-miterlimit="10" stroke-linecap="round" stroke-linejoin="round"/>
<path d="M184.015 250.716L225.528 253.746L224.619 277.078C214.619 270.714 199.166 265.26 183.712 262.533L184.015 250.716Z" fill="#FFD0DD"/>
<path d="M257.345 193.75L258.557 189.205C258.86 187.084 260.678 185.569 262.799 185.266L301.281 182.842C303.402 182.842 305.523 184.054 306.13 186.175L307.947 191.023C349.46 195.568 386.427 215.87 390.366 242.535C390.669 244.656 389.457 246.777 387.336 247.383L356.126 257.685C354.308 258.291 353.399 259.806 353.096 261.321L352.793 264.351C347.642 297.38 355.52 326.166 352.187 342.528C352.49 344.649 354.914 348.285 350.369 347.982H241.891C239.132 347.982 234.632 347.982 231.892 347.982C231.589 347.982 231.286 347.982 231.286 347.982C227.65 347.073 228.559 345.558 228.862 344.043C228.862 342.831 230.074 336.468 230.074 335.559C230.074 330.711 230.983 303.44 224.923 271.927C224.923 269.806 223.408 267.988 221.287 267.685L182.198 259.806C180.077 259.503 178.562 257.382 178.562 255.261C179.774 227.384 215.529 202.537 257.345 193.75Z" fill="#82E155"/>
<path d="M279.767 214.961C280.771 214.961 281.585 214.147 281.585 213.143C281.585 212.138 280.771 211.324 279.767 211.324C278.763 211.324 277.949 212.138 277.949 213.143C277.949 214.147 278.763 214.961 279.767 214.961Z" fill="#E5E5E5"/>
<path d="M279.767 220.112C280.771 220.112 281.585 219.298 281.585 218.294C281.585 217.29 280.771 216.476 279.767 216.476C278.763 216.476 277.949 217.29 277.949 218.294C277.949 219.298 278.763 220.112 279.767 220.112Z" fill="#E5E5E5"/>
<path opacity="0.5" d="M257.95 201.022L265.828 217.082" stroke="white" stroke-width="0.6298" stroke-miterlimit="10" stroke-linecap="round" stroke-linejoin="round"/>
<path opacity="0.5" d="M271.585 214.658L274.918 210.719C277.039 208.295 280.979 207.992 283.706 210.113L291.281 216.78C292.19 217.386 293.402 217.386 294.008 216.477L307.34 200.114" stroke="white" stroke-width="0.6298" stroke-miterlimit="10" stroke-linecap="round" stroke-linejoin="round"/>
<path d="M299.766 145.874H265.526L262.496 187.992C260.981 200.113 270.677 201.931 282.797 201.931C294.918 201.931 304.311 200.113 303.099 187.992L299.766 145.874Z" fill="#FFDBE5"/>
<path d="M262.193 190.417C262.193 197.689 267.344 200.416 274.617 201.325C276.738 188.599 285.222 167.994 291.585 162.843L263.708 163.752L261.89 187.69V187.993C261.89 188.296 261.89 188.599 261.89 188.902C262.193 189.508 262.193 190.114 262.193 190.417Z" fill="#FFD0DD"/>
<path d="M234.922 121.634C234.922 99.2111 253.708 81.3335 276.131 82.2425C296.129 83.1516 312.795 99.8171 313.401 119.816C313.704 128.906 310.977 137.693 306.129 144.36C301.887 150.42 297.947 156.783 293.705 163.146C287.342 173.146 275.222 179.509 261.889 177.691C249.163 175.873 238.557 166.176 235.527 153.45C234.618 149.814 234.618 146.178 234.922 142.845C235.528 136.481 235.225 130.118 234.922 123.755C234.922 123.149 234.922 122.543 234.922 121.634Z" fill="#FFE5EF"/>
<path d="M263.101 177.993C262.798 177.993 262.495 177.993 262.192 177.993C249.466 176.175 238.86 166.479 235.83 153.753C234.921 150.116 234.921 146.48 235.224 143.147C235.527 139.814 235.527 136.481 235.527 133.148C235.527 128.3 236.436 123.149 238.254 118.603C241.588 110.725 246.739 102.241 252.496 100.423C253.708 100.12 254.617 100.726 255.223 101.938C256.435 104.968 259.768 111.028 270.979 113.149C282.494 115.27 285.827 132.239 297.341 134.663C303.402 136.178 300.371 153.45 300.371 153.45L302.492 181.326C308.856 181.629 316.431 180.72 324.006 179.205C326.733 178.902 328.551 176.175 327.945 173.448C327.036 169.206 326.127 164.661 325.218 160.419L320.37 129.512C320.37 128.603 320.067 127.694 320.067 127.088C320.067 124.967 319.764 122.543 319.461 119.815C314.916 92.2415 300.674 84.6663 294.311 82.5452C290.978 81.6362 281.585 78.3031 271.283 78.0001C260.98 78.0001 249.466 83.4542 241.89 92.5445C234.921 103.756 231.285 115.573 230.679 121.633C230.073 127.694 229.467 137.996 229.467 142.541C229.164 151.631 227.952 162.843 227.043 174.357C226.74 176.781 228.558 179.205 230.982 179.508C239.466 181.023 250.375 181.629 262.798 181.629L263.101 177.993Z" fill="#333333"/>
<path d="M297.038 135.875C297.038 131.633 300.068 128.3 304.007 128.603C307.34 128.906 310.067 131.936 310.067 135.572C310.067 137.391 309.764 138.906 308.855 140.118C308.249 141.33 307.34 142.542 306.734 143.451C305.522 145.269 303.704 146.481 301.583 146.178C299.462 145.875 297.644 144.057 297.341 141.633C297.341 141.027 297.038 140.421 297.341 139.815C297.341 138.603 297.341 137.391 297.341 136.178C297.038 136.178 297.038 136.178 297.038 135.875Z" fill="#FFE5EF"/>
<path d="M248.86 141.027C251.203 141.027 253.102 138.314 253.102 134.967C253.102 131.62 251.203 128.907 248.86 128.907C246.517 128.907 244.618 131.62 244.618 134.967C244.618 138.314 246.517 141.027 248.86 141.027Z" fill="white"/>
<path d="M270.071 141.027C272.413 141.027 274.313 138.314 274.313 134.967C274.313 131.62 272.413 128.907 270.071 128.907C267.728 128.907 265.828 131.62 265.828 134.967C265.828 138.314 267.728 141.027 270.071 141.027Z" fill="white"/>
<path d="M247.042 138.602C248.548 138.602 249.768 136.974 249.768 134.966C249.768 132.958 248.548 131.33 247.042 131.33C245.535 131.33 244.314 132.958 244.314 134.966C244.314 136.974 245.535 138.602 247.042 138.602Z" fill="#333333"/>
<path d="M268.253 138.602C269.591 138.602 270.676 136.974 270.676 134.966C270.676 132.958 269.591 131.33 268.253 131.33C266.914 131.33 265.828 132.958 265.828 134.966C265.828 136.974 266.914 138.602 268.253 138.602Z" fill="#333333"/>
<path d="M351.884 274.048L352.792 282.532C353.095 283.744 351.581 284.35 350.974 283.441L327.643 250.11L319.765 240.111C319.159 239.202 318.552 238.596 317.946 237.99L289.464 199.204C287.343 196.174 283.403 195.265 280.373 197.386C277.343 199.507 276.434 203.446 278.555 206.476L284.312 214.355C286.433 217.082 284.312 221.021 280.979 221.021C275.525 221.021 270.374 221.627 264.92 223.142L244.315 229.202C240.679 230.111 238.861 234.05 239.77 237.384C240.679 241.02 244.618 242.838 247.951 241.929L267.344 236.171C267.95 235.868 268.556 236.474 268.859 237.081C269.162 237.687 268.556 238.293 267.95 238.596L245.83 245.262C242.194 246.171 240.376 250.11 241.285 253.443C242.194 257.079 246.133 258.897 249.466 257.988L271.586 251.322C272.192 251.019 272.798 251.625 273.101 252.231C273.404 252.837 272.798 253.443 272.192 253.746L256.436 258.594C252.799 259.503 250.981 263.442 251.89 266.775C252.799 270.412 256.738 272.23 260.072 271.321L276.737 266.169L283.403 264.048L324.007 317.984C334.309 331.014 351.581 336.468 367.64 331.62C387.033 325.862 398.547 306.167 394.608 286.471L386.73 248.898L355.52 259.2C355.52 259.2 352.793 259.806 352.49 263.139C352.793 265.563 351.884 274.048 351.884 274.048Z" fill="#FFE5EF"/>
<path d="M354.005 285.562L357.338 289.804" stroke="#FFBED7" stroke-width="0.6298" stroke-miterlimit="10" stroke-linecap="round" stroke-linejoin="round"/>
<path d="M273.101 150.117C265.526 152.238 258.557 154.056 252.497 154.359C251.891 154.359 251.285 155.268 251.891 155.571C252.8 157.086 255.527 157.995 258.557 157.995C265.526 157.995 271.586 154.056 274.01 151.329C274.616 151.026 274.01 149.814 273.101 150.117Z" fill="#FF97BF"/>
<path d="M183.107 294.047L183.713 299.804" stroke="#FFBED7" stroke-width="0.6298" stroke-miterlimit="10" stroke-linecap="round" stroke-linejoin="round"/>
<path d="M305.22 135.875L304.311 136.784C303.402 137.693 303.402 139.511 304.311 140.42" stroke="#FFBED7" stroke-width="0.6298" stroke-miterlimit="10" stroke-linecap="round" stroke-linejoin="round"/>
<path d="M259.162 142.541C256.738 142.541 254.616 140.723 254.616 137.996C254.616 135.572 257.95 134.057 259.162 133.451V127.997" stroke="#FFBED7" stroke-width="0.6298" stroke-miterlimit="10" stroke-linecap="round" stroke-linejoin="round"/>
<path d="M387.638 247.686L356.428 257.988C356.428 257.988 353.701 258.594 353.398 261.927C353.398 262.533 353.095 263.745 353.095 264.654L388.85 252.231L387.638 247.686Z" fill="#FFD0DD"/>
</g>
</g>
<defs>
<filter id="filter0_d" x="58" y="28.0001" width="353.378" height="340" filterUnits="userSpaceOnUse" color-interpolation-filters="sRGB">
<feFlood flood-opacity="0" result="BackgroundImageFix"/>
<feColorMatrix in="SourceAlpha" type="matrix" values="0 0 0 0 0 0 0 0 0 0 0 0 0 0 0 0 0 0 127 0"/>
<feOffset dy="4"/>
<feGaussianBlur stdDeviation="8"/>
<feColorMatrix type="matrix" values="0 0 0 0 0 0 0 0 0 0 0 0 0 0 0 0 0 0 0.08 0"/>
<feBlend mode="normal" in2="BackgroundImageFix" result="effect1_dropShadow"/>
<feBlend mode="normal" in="SourceGraphic" in2="effect1_dropShadow" result="shape"/>
</filter>
</defs>
</svg>
