<svg width="382" height="348" viewBox="0 0 382 348" fill="none" xmlns="http://www.w3.org/2000/svg">
<mask id="mask0" mask-type="alpha" maskUnits="userSpaceOnUse" x="0" y="0" width="382" height="348">
<path d="M382 348L3.05176e-05 348L2.19259e-06 24C1.03382e-06 10.7452 10.7452 2.02057e-06 24 8.61793e-07L358 -2.83374e-05C371.255 -2.94962e-05 382 10.7451 382 24L382 348Z" fill="#F06E8C"/>
</mask>
<g mask="url(#mask0)">
<g filter="url(#filter0_d)">
<path d="M251.698 190.526C259.418 203.158 277.763 203.158 285.482 190.526L359.064 70.1193C367.126 56.9279 357.632 40 342.173 40L195.008 40C179.549 40 170.055 56.9278 178.116 70.1192L251.698 190.526Z" fill="#BEFAFF"/>
<path d="M292.87 140.726H259.766L256.783 181.286C255.292 192.918 264.538 194.707 276.169 194.707C287.8 194.707 297.046 192.918 295.554 181.286L292.87 140.726Z" fill="#FFDBE5"/>
<path d="M285.414 160.41C279.151 165.48 270.801 181.883 269.011 194.409C262.152 193.514 257.38 191.128 257.082 184.567C257.082 183.374 257.082 182.181 257.082 181.883C257.082 181.883 257.082 181.883 257.082 181.585L258.573 161.603L285.414 160.41Z" fill="#FFD0DD"/>
<path d="M230.538 117.761C230.538 96.2879 248.433 78.692 270.204 79.8849C289.59 80.7796 305.396 96.8844 306.291 115.972C306.589 124.919 303.905 132.971 299.133 139.831C294.958 145.795 291.081 151.76 287.204 158.023C280.941 167.865 269.309 173.83 256.783 172.04C244.556 170.251 234.117 160.707 231.433 148.778C230.539 145.199 230.538 141.918 230.837 138.638C231.433 132.375 231.135 126.41 230.837 120.147C230.538 118.954 230.538 118.358 230.538 117.761Z" fill="#FFE5EF"/>
<path d="M267.222 131.779C269.363 131.779 271.099 129.375 271.099 126.41C271.099 123.445 269.363 121.042 267.222 121.042C265.081 121.042 263.345 123.445 263.345 126.41C263.345 129.375 265.081 131.779 267.222 131.779Z" fill="white"/>
<path d="M266.029 130.287C267.511 130.287 268.713 128.552 268.713 126.41C268.713 124.269 267.511 122.533 266.029 122.533C264.546 122.533 263.345 124.269 263.345 126.41C263.345 128.552 264.546 130.287 266.029 130.287Z" fill="black"/>
<path d="M245.749 131.779C247.89 131.779 249.626 129.375 249.626 126.41C249.626 123.445 247.89 121.042 245.749 121.042C243.607 121.042 241.872 123.445 241.872 126.41C241.872 129.375 243.607 131.779 245.749 131.779Z" fill="white"/>
<path d="M244.257 130.287C245.74 130.287 246.942 128.552 246.942 126.41C246.942 124.269 245.74 122.533 244.257 122.533C242.775 122.533 241.573 124.269 241.573 126.41C241.573 128.552 242.775 130.287 244.257 130.287Z" fill="black"/>
<path d="M232.924 119.551L230.538 119.849C230.837 122.533 230.837 125.217 230.837 127.603C232.626 127.603 230.539 119.551 232.924 119.551Z" fill="#666666"/>
<path d="M281.537 124.024C284.818 124.024 282.73 129.989 287.8 129.989C296.747 129.989 287.204 144.305 296.151 144.305C297.045 142.813 298.238 141.322 299.133 139.831C302.115 135.656 304.203 131.182 305.396 126.112C299.431 126.41 290.782 125.516 281.537 124.024Z" fill="#666666"/>
<path d="M230.539 117.762C230.539 95.9905 248.731 78.3946 270.801 79.8858C290.186 81.0787 305.694 97.1835 306.291 116.867C306.291 120.148 305.993 123.13 305.396 126.113C305.993 123.13 306.887 120.148 306.589 116.867C305.993 97.4818 290.186 79.8857 270.801 78.6928C248.731 77.2016 230.24 93.3064 230.24 115.078C230.24 115.674 230.539 119.253 230.539 119.85C230.539 118.955 230.539 118.358 230.539 117.762Z" fill="#333333"/>
<path d="M275.87 108.814C272.888 107.025 265.134 104.34 254.099 104.34C238.591 104.34 237.1 108.814 237.1 108.814C237.1 108.814 237.1 108.814 237.1 109.112C239.187 107.919 243.959 105.832 254.398 105.832C265.432 105.832 274.678 108.814 277.66 110.305C277.064 109.41 276.467 109.112 275.87 108.814Z" fill="#333333"/>
<path d="M279.151 113.287C279.45 116.866 278.853 124.024 281.537 124.024C290.782 125.515 299.431 126.41 305.396 125.814C305.992 122.831 306.291 119.849 306.291 116.568C305.694 97.1827 290.186 80.7796 270.801 79.5867C248.731 78.0955 230.538 95.6915 230.538 117.463C230.538 118.059 230.538 118.954 230.538 119.55L232.924 119.252C235.012 119.252 235.608 109.41 235.608 109.41C235.608 109.41 235.907 108.814 236.801 108.218V107.919C236.801 107.919 238.293 103.446 253.801 103.446C264.836 103.446 272.59 106.428 275.572 107.919C276.169 108.217 276.765 108.814 277.063 109.41C278.555 110.603 279.151 111.796 279.151 113.287Z" fill="#333333"/>
<path d="M235.608 109.709C235.608 109.709 238.591 105.235 254.099 105.235C265.134 105.235 274.379 108.218 277.362 109.709C278.555 110.305 279.151 111.498 279.449 112.989C279.748 116.568 279.151 123.726 281.835 123.726C291.081 125.217 299.729 126.112 305.694 125.515C306.291 122.533 307.185 119.551 306.887 116.27C306.291 96.8846 290.484 79.2887 271.099 78.0957C249.029 76.6045 230.538 92.7093 230.538 114.481C230.538 115.077 230.837 118.656 230.837 119.252L233.223 118.954C235.012 119.252 235.608 109.709 235.608 109.709Z" fill="#333333"/>
<path d="M286.309 127.901C286.309 124.024 289.291 120.744 292.87 121.042C296.151 121.34 298.835 124.024 298.835 127.603C298.835 129.094 298.537 130.884 297.642 132.077C297.046 133.27 296.449 134.164 295.554 135.357C294.66 137.147 292.572 138.34 290.484 138.042C288.397 137.743 286.607 135.954 286.309 133.866C286.309 133.27 286.011 132.673 286.309 132.077C286.309 130.884 286.309 129.691 286.309 128.796C286.309 128.2 286.309 127.901 286.309 127.901Z" fill="#FFE5EF"/>
<path d="M253.204 156.532C255.181 156.532 256.784 153.461 256.784 149.672C256.784 145.884 255.181 142.813 253.204 142.813C251.228 142.813 249.626 145.884 249.626 149.672C249.626 153.461 251.228 156.532 253.204 156.532Z" fill="#FF97BF"/>
<path d="M255.292 135.656C252.907 135.656 250.819 133.867 250.819 131.481C250.819 129.095 254.099 127.604 254.994 127.007V121.639" stroke="#FFBED7" stroke-width="0.6298" stroke-miterlimit="10" stroke-linecap="round" stroke-linejoin="round"/>
<path d="M294.063 127.604L293.168 128.499C292.274 129.393 292.274 131.183 293.168 132.077" stroke="#FFBED7" stroke-width="0.6298" stroke-miterlimit="10" stroke-linecap="round" stroke-linejoin="round"/>
<path d="M71.2798 185.758V199.477C71.2798 203.056 74.2624 206.038 77.8412 206.038C77.8412 206.038 77.8412 206.038 78.1394 206.038L83.806 212.599L77.5427 230.792C83.2092 234.072 91.5602 235.862 100.209 235.862H206.68V191.126H133.313C124.068 191.126 114.822 188.442 107.068 183.372C99.3141 178.302 90.3671 175.916 81.1218 175.916C75.4553 175.618 71.2798 180.091 71.2798 185.758Z" fill="#FFE5EF"/>
<path d="M82.6129 204.546L40.5614 204.844C36.9826 204.844 34 201.862 34 198.283C34 194.704 36.9826 191.722 40.5614 191.722L82.6129 191.423C86.1917 191.423 89.1739 194.406 89.1739 197.985C89.1739 201.563 86.1917 204.546 82.6129 204.546Z" fill="#FFE5EF"/>
<path d="M87.9811 231.09H70.9817C67.4028 231.09 64.1221 228.108 64.1221 224.529C64.1221 220.95 67.1047 217.669 70.6835 217.669H87.6829C91.2618 217.669 94.5425 220.652 94.5425 224.231C94.5425 228.108 91.5599 231.09 87.9811 231.09Z" fill="#FFE5EF"/>
<path d="M83.2091 217.968H66.2098C62.6309 217.968 59.6483 214.986 59.6483 211.407C59.6483 207.828 62.6309 204.846 66.2098 204.846H83.2091C86.788 204.846 89.7706 207.828 89.7706 211.407C89.7706 214.687 86.788 217.67 83.2091 217.968Z" fill="#FFE5EF"/>
<path d="M85.5953 205.144C87.9812 206.039 89.7707 208.425 89.7707 211.407C89.7707 214.986 86.7881 217.968 83.2092 217.968H74.2621H87.9809C91.5598 217.968 94.5424 220.951 94.5424 224.53C94.5424 227.214 93.051 229.301 90.9633 230.494" stroke="#FFBED7" stroke-width="0.6709" stroke-miterlimit="10" stroke-linecap="round" stroke-linejoin="round"/>
<path d="M102.595 203.949C87.6828 203.949 84.4023 191.125 84.4023 191.125V199.177C84.4023 202.756 81.4201 205.738 77.8412 205.738C74.2624 205.738 71.2798 202.756 71.2798 199.177V194.405" stroke="#FFBED7" stroke-width="0.6709" stroke-miterlimit="10" stroke-linecap="round" stroke-linejoin="round"/>
<path d="M255.591 236.757H206.68V189.039H255.591C268.713 189.039 279.45 199.775 279.45 212.898C279.151 226.318 268.713 236.757 255.591 236.757Z" fill="#28D2DC"/>
<path d="M215.329 236.755H236.205L249.029 194.406C249.327 194.406 226.363 205.739 215.329 236.755Z" fill="#1EB4BE"/>
<path d="M203.399 191.126V235.563H206.679V190.828L203.399 191.126Z" fill="#FFD0DD"/>
<path d="M319.712 193.513L298.835 183.373C288.098 178.004 275.572 177.706 264.239 182.18C246.643 189.337 233.819 204.846 230.538 223.635L209.96 340.246C209.364 344.421 212.346 348 216.521 348H331.939C335.816 348 339.097 344.421 338.5 340.544L319.712 193.513Z" fill="#28D2DC"/>
<path d="M327.764 255.546L277.362 223.932C277.362 223.932 283.625 258.528 330.15 274.633L327.764 255.546Z" fill="#1EB4BE"/>
<path d="M336.115 262.406C337.009 263.002 337.009 264.494 335.817 264.792L309.87 274.634C301.519 277.318 292.572 277.616 283.923 275.826C274.976 273.739 265.432 274.634 256.485 277.914C251.415 280.002 248.731 285.668 250.819 291.037L252.31 294.616C252.31 294.616 248.433 296.405 245.749 298.493C243.064 300.58 240.679 304.159 242.17 307.44C243.363 310.72 246.942 312.51 250.222 311.615C247.24 313.106 246.047 316.685 247.24 319.966V320.264C248.433 323.843 252.608 325.632 255.889 324.141L258.275 323.246C255.591 325.036 254.398 328.316 255.591 331.299C256.485 333.983 258.871 335.474 261.555 335.772C268.117 336.965 276.765 335.772 284.818 332.492L373.991 298.791C388.604 293.423 398.148 279.405 398.148 263.599C398.148 250.476 391.288 238.547 380.254 231.687L317.326 193.215C303.308 183.969 284.519 189.338 277.362 204.548C273.485 217.372 279.151 231.091 290.782 237.652L336.115 262.406Z" fill="#FFE5EF"/>
<path d="M340.588 264.493H346.255" stroke="#FFBED7" stroke-width="0.6709" stroke-miterlimit="10" stroke-linecap="round" stroke-linejoin="round"/>
<path d="M254.994 294.617L269.607 289.248C269.607 289.248 263.941 291.038 262.748 287.459L264.239 291.336" stroke="#FFBED7" stroke-width="0.6709" stroke-miterlimit="10" stroke-linecap="round" stroke-linejoin="round"/>
<path d="M260.959 322.053L263.643 321.158" stroke="#FFBED7" stroke-width="0.6709" stroke-miterlimit="10" stroke-linecap="round" stroke-linejoin="round"/>
<path d="M252.906 310.422L255.591 309.527" stroke="#FFBED7" stroke-width="0.6709" stroke-miterlimit="10" stroke-linecap="round" stroke-linejoin="round"/>
<path d="M342.676 208.425L314.641 250.477L324.782 256.143L350.43 213.197L342.676 208.425Z" fill="#FFD0DD"/>
<path d="M294.66 189.039C286.607 191.425 280.046 196.793 276.467 204.548V204.846C272.292 217.968 278.256 232.582 290.484 239.143L321.501 256.441L348.641 210.811L318.22 192.916C311.063 188.145 302.712 186.952 294.66 189.039Z" fill="#28D2DC"/>
</g>
</g>
<defs>
<filter id="filter0_d" x="18" y="28" width="396.148" height="340" filterUnits="userSpaceOnUse" color-interpolation-filters="sRGB">
<feFlood flood-opacity="0" result="BackgroundImageFix"/>
<feColorMatrix in="SourceAlpha" type="matrix" values="0 0 0 0 0 0 0 0 0 0 0 0 0 0 0 0 0 0 127 0"/>
<feOffset dy="4"/>
<feGaussianBlur stdDeviation="8"/>
<feColorMatrix type="matrix" values="0 0 0 0 0 0 0 0 0 0 0 0 0 0 0 0 0 0 0.08 0"/>
<feBlend mode="normal" in2="BackgroundImageFix" result="effect1_dropShadow"/>
<feBlend mode="normal" in="SourceGraphic" in2="effect1_dropShadow" result="shape"/>
</filter>
</defs>
</svg>
