<svg width="382" height="348" viewBox="0 0 382 348" fill="none" xmlns="http://www.w3.org/2000/svg">
<mask id="mask0" mask-type="alpha" maskUnits="userSpaceOnUse" x="0" y="0" width="382" height="349">
<path d="M382 348L3.05176e-05 348L2.19259e-06 24.0001C1.03382e-06 10.7453 10.7452 9.35733e-05 24 9.24145e-05L358 6.32153e-05C371.255 6.20565e-05 382 10.7452 382 24.0001L382 348Z" fill="#78CD69"/>
</mask>
<g mask="url(#mask0)">
<g filter="url(#filter0_d)">
<path d="M272 210C321.706 210 362 169.706 362 120C362 70.2945 321.706 30.0001 272 30.0001C222.294 30.0001 182 70.2945 182 120C182 169.706 222.294 210 272 210Z" fill="#CDFFB9"/>
<path d="M230.68 243.82H316.172C327.934 224.599 327.073 199.353 321.909 171.525H296.95L297.811 181.853C299.245 193.328 290.065 195.049 278.59 195.049C275.434 195.049 272.565 195.049 269.983 194.476C269.123 194.476 268.549 194.189 267.688 193.902C267.401 193.902 267.114 193.615 266.827 193.615C266.254 193.328 265.393 193.041 264.819 192.754C264.532 192.754 264.245 192.467 263.959 192.467C263.672 192.181 263.385 192.181 263.098 191.894C262.811 191.607 262.811 191.607 262.524 191.32C262.237 191.033 262.237 191.033 261.95 190.746C261.663 190.459 261.664 190.172 261.377 190.172C261.377 189.886 261.09 189.886 261.09 189.599C261.09 189.599 261.09 189.599 261.09 189.312C261.09 189.025 260.803 188.738 260.803 188.451C260.803 188.164 260.516 187.877 260.516 187.59C260.516 187.59 260.516 187.59 260.516 187.304C260.516 187.017 260.516 186.73 260.229 186.443V186.156C260.229 185.869 260.229 185.582 260.229 185.008C260.229 184.148 260.229 183.287 260.229 182.14V181.853L260.803 172.672H226.377C223.795 194.476 222.934 219.148 230.68 243.82Z" fill="#333333"/>
<path d="M371.54 253.287L374.409 287.14C374.409 288 375.844 288.287 376.13 287.426L387.032 253.861L391.048 243.533C391.335 242.672 391.622 242.099 392.196 241.238L406.253 201.648C407.114 198.492 410.27 196.771 413.426 197.918C416.581 199.066 418.303 201.935 417.155 205.09L414.286 213.123C413.426 215.992 416.007 218.861 418.876 217.713C423.18 216.279 428.057 215.418 432.647 215.418H451.294C454.45 215.418 457.032 218 457.032 221.156C457.032 224.312 454.45 226.894 451.294 226.894H433.794C433.221 226.894 432.934 227.468 432.934 227.754C432.934 228.328 433.507 228.615 433.794 228.615H453.876C457.032 228.615 459.614 231.197 459.614 234.353C459.614 237.508 457.032 240.09 453.876 240.09H433.794C433.221 240.09 432.934 240.664 432.934 240.951C432.934 241.525 433.507 241.812 433.794 241.812H448.139C451.294 241.812 453.876 244.394 453.876 247.549C453.876 250.705 451.294 253.287 448.139 253.287H432.934H426.909L406.827 308.369C401.376 321.853 388.467 330.746 374.122 330.746C356.622 330.746 341.991 317.262 340.27 300.049L336.253 257.59L371.54 253.287Z" fill="#FFE5EF"/>
<path d="M371.54 253.287L335.967 258.164L337.401 272.508C349.164 267.344 360.926 262.467 372.401 259.885L371.54 253.287Z" fill="#FFD0DD"/>
<path d="M186.787 253.287L183.918 287.14C183.918 288 182.484 288.287 182.197 287.427L171.295 253.861L167.279 243.533C166.992 242.673 166.705 242.099 166.131 241.238L152.361 201.935C151.5 198.779 148.344 197.058 145.189 198.206C142.033 199.066 140.311 202.222 141.459 205.378L144.328 213.41C145.188 216.279 142.607 219.148 139.738 218.001C135.434 216.566 130.557 215.705 125.967 215.705H107.32C104.164 215.705 101.582 218.287 101.582 221.443C101.582 224.599 104.164 227.181 107.32 227.181H124.82C125.393 227.181 125.68 227.755 125.68 228.042C125.68 228.615 125.107 228.902 124.82 228.902H104.738C101.582 228.902 99 231.484 99 234.64C99 237.796 101.582 240.378 104.738 240.378H124.82C125.393 240.378 125.68 240.951 125.68 241.238C125.68 241.812 125.107 242.099 124.82 242.099H110.475C107.32 242.099 104.738 244.681 104.738 247.837C104.738 250.992 107.32 253.574 110.475 253.574H125.68H131.705L151.787 308.656C157.238 322.14 170.147 331.033 184.492 331.033C201.992 331.033 216.623 317.55 218.344 300.337L222.361 257.878L186.787 253.287Z" fill="#FFE5EF"/>
<path d="M139.738 246.976C141.459 242.099 139.451 231.197 136.869 226.32" stroke="#333333" stroke-width="0.3384" stroke-miterlimit="10" stroke-linecap="round" stroke-linejoin="round"/>
<path d="M144.901 224.599C144.615 230.91 149.205 235.213 154.369 234.353" stroke="#333333" stroke-width="0.3384" stroke-miterlimit="10" stroke-linecap="round" stroke-linejoin="round"/>
<path d="M144.901 224.599C144.615 230.91 149.205 235.213 154.369 234.353" stroke="#FFBED7" stroke-width="0.6709" stroke-miterlimit="10" stroke-linecap="round" stroke-linejoin="round"/>
<path d="M139.738 246.976C141.459 242.099 139.451 231.197 136.869 226.32" stroke="#FFBED7" stroke-width="0.6709" stroke-miterlimit="10" stroke-linecap="round" stroke-linejoin="round"/>
<path d="M186.787 253.287L222.361 258.164L220.926 272.508C209.164 267.345 197.402 262.467 185.926 259.886L186.787 253.287Z" fill="#FFD0DD"/>
<path d="M376.992 248.123C373.836 221.443 344.86 199.353 306.418 191.894C304.123 191.607 302.401 189.599 301.828 187.304C301.541 185.295 300.106 183.574 298.098 183C285.475 178.697 273.139 178.697 260.516 183C258.508 183.574 257.36 185.295 256.787 187.304C256.213 189.599 254.492 191.32 252.197 191.894C211.459 199.64 181.336 224.025 181.336 253L213.467 261.32C216.049 261.894 217.77 264.476 217.77 267.058L211.459 351.976C211.172 355.131 213.754 358 216.91 358H341.131C344.574 358 347.155 355.131 346.582 351.976L338.262 267.344C337.975 264.476 339.696 261.894 342.565 261.32L372.401 253.861C375.27 253.574 377.278 250.992 376.992 248.123Z" fill="#82E155"/>
<path opacity="0.5" d="M301.541 198.204L293.221 209.393C291.787 211.114 289.205 211.401 287.77 209.967L281.746 204.229C280.311 202.795 278.016 202.795 276.582 204.229L270.557 209.967C268.836 211.401 266.254 211.401 265.106 209.393L256.787 198.204" stroke="white" stroke-width="0.6709" stroke-miterlimit="10" stroke-linecap="round" stroke-linejoin="round"/>
<path d="M279.164 212.837C280.114 212.837 280.885 212.066 280.885 211.115C280.885 210.165 280.114 209.394 279.164 209.394C278.213 209.394 277.442 210.165 277.442 211.115C277.442 212.066 278.213 212.837 279.164 212.837Z" fill="#E5E5E5"/>
<path d="M279.164 218.287C280.114 218.287 280.885 217.517 280.885 216.566C280.885 215.615 280.114 214.845 279.164 214.845C278.213 214.845 277.442 215.615 277.442 216.566C277.442 217.517 278.213 218.287 279.164 218.287Z" fill="#E5E5E5"/>
<path d="M294.942 141.976H262.524L259.655 181.853C258.221 193.329 267.401 195.05 278.877 195.05C290.352 195.05 299.246 193.329 298.098 181.853L294.942 141.976Z" fill="#FFDBE5"/>
<path d="M287.483 158.328C281.459 163.205 273.139 183 271.131 195.049C264.533 194.188 259.656 191.893 259.369 185.295C259.369 184.148 259.369 183 259.369 182.426V182.139L260.803 159.189L287.483 158.328Z" fill="#FFD0DD"/>
<path d="M233.549 119.312C233.549 98.0824 251.336 81.1562 272.565 82.0168C291.5 82.8775 307.278 98.6561 307.852 117.591C308.139 126.197 305.557 134.517 300.967 140.828C296.951 146.566 293.221 152.591 289.205 158.615C283.18 168.082 271.705 174.107 259.082 172.386C247.032 170.664 236.992 161.484 234.123 149.435C233.262 145.992 233.262 142.55 233.549 139.394C234.123 133.369 233.836 127.345 233.549 121.32C233.549 120.746 233.549 119.886 233.549 119.312Z" fill="#FFE5EF"/>
<path d="M260.229 172.672C259.943 172.672 259.656 172.672 259.369 172.672C247.32 170.951 237.279 161.771 234.41 149.721C233.549 146.279 233.549 142.836 233.836 139.68C234.123 136.525 234.123 133.369 234.123 130.213C234.123 125.623 234.984 120.746 236.705 116.443C239.861 108.984 244.738 100.951 250.188 99.2296C251.336 98.9427 252.197 99.5165 252.77 100.664C253.918 103.533 257.074 109.271 267.688 111.279C278.59 113.287 281.746 129.353 292.647 131.648C298.385 133.082 295.516 149.434 295.516 149.434L297.238 172.959H322.483C321.623 167.508 320.475 161.771 319.041 156.033L314.451 126.771C314.451 125.91 314.164 125.049 314.164 124.475C314.164 122.467 313.877 120.172 313.59 117.59C309.287 91.4837 295.803 84.3116 289.779 82.3034C286.623 81.4427 277.729 78.287 267.975 78.0001C263.672 78.0001 259.369 78.8607 255.066 80.5821C246.459 84.3116 239.861 91.4837 235.844 99.8033C232.115 107.549 230.107 115.008 229.82 119.025C229.246 124.762 228.672 134.516 228.672 138.82C228.385 148.574 226.951 160.623 225.803 172.959H260.229V172.672Z" fill="#333333"/>
<path d="M292.36 132.796C292.36 128.779 295.229 125.623 298.959 125.91C302.114 126.197 304.696 129.066 304.696 132.509C304.696 134.23 304.409 135.664 303.549 136.812C302.975 137.96 302.114 139.107 301.541 139.968C300.393 141.689 298.672 142.837 296.664 142.55C294.655 142.263 292.934 140.541 292.647 138.246C292.647 137.673 292.36 137.099 292.647 136.525C292.647 135.378 292.647 134.23 292.647 133.082C292.36 133.082 292.36 132.796 292.36 132.796Z" fill="#FFE5EF"/>
<path d="M246.459 137.386C248.677 137.386 250.475 134.817 250.475 131.648C250.475 128.479 248.677 125.91 246.459 125.91C244.241 125.91 242.442 128.479 242.442 131.648C242.442 134.817 244.241 137.386 246.459 137.386Z" fill="white"/>
<path d="M266.541 137.386C268.759 137.386 270.557 134.817 270.557 131.648C270.557 128.479 268.759 125.91 266.541 125.91C264.323 125.91 262.524 128.479 262.524 131.648C262.524 134.817 264.323 137.386 266.541 137.386Z" fill="white"/>
<path d="M245.024 135.09C246.45 135.09 247.606 133.549 247.606 131.648C247.606 129.746 246.45 128.205 245.024 128.205C243.598 128.205 242.442 129.746 242.442 131.648C242.442 133.549 243.598 135.09 245.024 135.09Z" fill="#333333"/>
<path d="M265.106 135.09C266.374 135.09 267.401 133.549 267.401 131.648C267.401 129.746 266.374 128.205 265.106 128.205C263.839 128.205 262.811 129.746 262.811 131.648C262.811 133.549 263.839 135.09 265.106 135.09Z" fill="#333333"/>
<path d="M269.697 146.279C262.524 148.287 255.926 150.009 250.188 150.295C249.615 150.295 249.041 151.156 249.615 151.443C250.475 152.877 253.057 153.738 255.926 153.738C262.524 153.738 268.262 150.009 270.557 147.427C271.131 146.853 270.557 145.992 269.697 146.279Z" fill="#FF97BF"/>
<path d="M299.82 132.508L298.959 133.369C298.098 134.23 298.098 135.951 298.959 136.812" stroke="#FFBED7" stroke-width="0.6298" stroke-miterlimit="10" stroke-linecap="round" stroke-linejoin="round"/>
<path d="M256.5 139.107C254.204 139.107 252.196 137.385 252.196 134.803C252.196 132.508 255.352 131.074 256.5 130.5V125.336" stroke="#FFBED7" stroke-width="0.6298" stroke-miterlimit="10" stroke-linecap="round" stroke-linejoin="round"/>
</g>
</g>
<defs>
<filter id="filter0_d" x="83" y="18.0001" width="392.614" height="360" filterUnits="userSpaceOnUse" color-interpolation-filters="sRGB">
<feFlood flood-opacity="0" result="BackgroundImageFix"/>
<feColorMatrix in="SourceAlpha" type="matrix" values="0 0 0 0 0 0 0 0 0 0 0 0 0 0 0 0 0 0 127 0"/>
<feOffset dy="4"/>
<feGaussianBlur stdDeviation="8"/>
<feColorMatrix type="matrix" values="0 0 0 0 0 0 0 0 0 0 0 0 0 0 0 0 0 0 0.08 0"/>
<feBlend mode="normal" in2="BackgroundImageFix" result="effect1_dropShadow"/>
<feBlend mode="normal" in="SourceGraphic" in2="effect1_dropShadow" result="shape"/>
</filter>
</defs>
</svg>
