<svg width="382" height="348" viewBox="0 0 382 348" fill="none" xmlns="http://www.w3.org/2000/svg">
<mask id="mask0" mask-type="alpha" maskUnits="userSpaceOnUse" x="0" y="0" width="382" height="348">
<path d="M382 324C382 337.255 371.255 348 358 348L24 348C10.7452 348 2.95782e-05 337.255 2.84194e-05 324L2.19259e-06 24C1.03382e-06 10.7452 10.7452 1.93855e-06 24 7.79773e-07L358 -2.84194e-05C371.255 -2.95782e-05 382 10.7451 382 24L382 324Z" fill="#F04682"/>
</mask>
<g mask="url(#mask0)">
<path d="M317.393 144.469L284.233 145.275L282.246 187.227C281.164 198.969 290.369 200.503 302.15 200.228C313.931 199.933 323.038 197.946 321.386 186.264L317.393 144.469Z" fill="#FFDAE4"/>
<path d="M310.313 164.432C304.157 169.565 296.112 187.561 294.559 200.031C287.675 199.362 282.758 196.982 282.227 190.295C282.207 189.036 282.227 188.014 282.246 187.463C282.246 187.384 282.246 187.325 282.266 187.247L283.249 166.103L310.313 164.432Z" fill="#FFCDDC"/>
<path d="M254.043 122.755C253.512 101.08 271.173 83.202 293.103 83.7133C312.555 84.1657 328.84 99.7822 330.178 119.195C330.788 128.104 328.29 136.444 323.648 143.229C319.537 149.228 315.879 155.522 312.142 161.757C306.143 171.728 294.677 178.081 281.794 176.567C269.325 175.091 258.822 165.887 255.675 153.752C254.77 150.251 254.495 146.828 254.731 143.544C255.203 137.348 254.711 131.153 254.18 124.957C254.102 124.21 254.062 123.482 254.043 122.755Z" fill="#FFE4EE"/>
<path d="M315.053 120.12L332.774 122.027C331.024 137.664 318.121 151.746 318.121 151.746L315.643 144.901C312.477 136.031 315.25 128.636 315.053 120.12Z" fill="#787885"/>
<path d="M278.352 105.605C278.352 105.605 286.317 102.89 291.53 106.686C295.306 109.44 284.724 99.0747 284.724 99.0747L265.725 99.5467L264.899 106.077C264.919 106.057 272.648 101.042 278.352 105.605Z" fill="#787885"/>
<path d="M311.69 126.04C297.549 125.568 294.146 112.331 291.53 106.686C289.268 101.749 281.637 101.061 278.451 105.467L278.353 105.604C278.333 105.585 278.313 105.545 278.294 105.526C275.402 101.159 269.05 101.061 266.217 105.447C264.29 108.437 262.539 112.095 261.005 115.95C259.451 119.844 258.252 122.185 255.046 122.637C254.495 122.716 254.102 123.188 254.141 123.758C254.298 125.41 254.574 128.419 254.436 128.419C242.773 127.298 246.903 77.3216 274.537 74.2927C284.902 73.1716 288.108 75.5318 289.091 76.9676C289.367 77.3806 289.917 77.4593 290.291 77.1249C291.334 76.2202 293.517 74.8631 297.313 74.7647C305.652 74.6664 318.299 81.1372 324.061 86.5459C334.033 96.1243 336.61 117.641 333.659 121.752C330.375 126.335 324.691 126.472 311.69 126.04Z" fill="#2D2D37"/>
<path d="M313.106 135.107C313.008 131.115 315.919 127.83 319.557 127.928C322.783 128.027 325.497 130.898 325.714 134.478C325.812 136.11 325.399 137.644 324.651 138.903C323.983 140.005 323.373 141.165 322.744 142.306C321.76 144.135 319.852 145.295 317.709 145.02C315.643 144.745 313.893 143.053 313.362 140.811C313.205 140.162 313.165 139.533 313.205 138.943C313.283 137.802 313.185 136.661 313.106 135.52C313.106 135.363 313.106 135.225 313.106 135.107Z" fill="#FFE4EE"/>
<path d="M268.774 137.211C271.077 137.211 272.943 134.613 272.943 131.409C272.943 128.204 271.077 125.606 268.774 125.606C266.471 125.606 264.604 128.204 264.604 131.409C264.604 134.613 266.471 137.211 268.774 137.211Z" fill="white"/>
<path d="M289.446 137.211C291.749 137.211 293.616 134.613 293.616 131.409C293.616 128.204 291.749 125.606 289.446 125.606C287.143 125.606 285.276 128.204 285.276 131.409C285.276 134.613 287.143 137.211 289.446 137.211Z" fill="white"/>
<path d="M267.181 134.989C268.604 134.989 269.757 133.386 269.757 131.409C269.757 129.432 268.604 127.83 267.181 127.83C265.758 127.83 264.604 129.432 264.604 131.409C264.604 133.386 265.758 134.989 267.181 134.989Z" fill="#2D2D37"/>
<path d="M287.772 134.871C289.141 134.871 290.251 133.321 290.251 131.409C290.251 129.498 289.141 127.948 287.772 127.948C286.404 127.948 285.294 129.498 285.294 131.409C285.294 133.321 286.404 134.871 287.772 134.871Z" fill="#2D2D37"/>
<path d="M272.551 145.433C273.043 151.294 275.993 155.837 279.12 155.582C282.267 155.326 284.411 150.35 283.919 144.489L272.551 145.433Z" fill="#FF7BA4"/>
<path d="M278.706 130.11C277.762 130.681 274.34 132.195 274.399 134.634C274.458 137.073 276.484 139 278.923 138.941" stroke="#FFBED2" stroke-width="1.85864" stroke-miterlimit="10" stroke-linecap="round" stroke-linejoin="round"/>
<path d="M319.243 139.336C318.279 138.372 318.279 136.818 319.243 135.855L320.305 134.792" stroke="#FFBED2" stroke-width="1.85864" stroke-miterlimit="10" stroke-linecap="round" stroke-linejoin="round"/>
<path d="M98.0359 187.11L98.1342 200.681C98.1539 204.319 101.124 207.25 104.762 207.211C104.821 207.211 104.861 207.211 104.92 207.211L110.604 213.74L104.408 231.599C110.014 234.746 118.412 236.595 126.732 236.536H232.054V192.243H159.4C150.196 192.302 141.168 189.627 133.478 184.533C125.925 179.518 116.937 177.099 107.87 177.158C102.402 177.197 97.9966 181.662 98.0359 187.11Z" fill="#FFE4EE"/>
<path d="M109.305 205.755L67.6283 206.05C63.9897 206.07 61.0198 203.159 61.0001 199.52C60.9804 195.881 63.8913 192.911 67.5299 192.892L109.207 192.597C112.845 192.577 115.815 195.488 115.835 199.127C115.874 202.765 112.944 205.735 109.305 205.755Z" fill="#FFE4EE"/>
<path d="M114.536 232.051L97.7399 232.169C94.0816 232.189 91.092 229.258 91.0724 225.6V225.521C91.0527 221.863 93.9832 218.874 97.6415 218.854L114.438 218.736C118.096 218.716 121.086 221.647 121.106 225.305V225.384C121.125 229.042 118.175 232.031 114.536 232.051Z" fill="#FFE4EE"/>
<path d="M109.875 218.913L93.0002 219.031C89.3616 219.051 86.3917 216.14 86.372 212.502C86.3524 208.863 89.2633 205.893 92.9019 205.873L109.777 205.755C113.416 205.736 116.386 208.647 116.405 212.285C116.445 215.924 113.514 218.894 109.875 218.913Z" fill="#FFE4EE"/>
<path d="M112.314 206.227C114.694 207.21 116.386 209.531 116.405 212.285C116.425 215.923 113.514 218.893 109.876 218.913L100.946 218.972L114.478 218.874C118.117 218.854 121.086 221.765 121.106 225.403C121.126 227.98 119.67 230.222 117.527 231.304" stroke="#FFBED2" stroke-width="1.85864" stroke-miterlimit="10" stroke-linecap="round" stroke-linejoin="round"/>
<path d="M129.131 205.224C114.497 205.323 111.252 192.578 111.252 192.578L111.311 200.582C111.331 204.221 108.42 207.191 104.781 207.211C101.143 207.23 98.1729 204.319 98.1532 200.681L98.1139 195.842" stroke="#FFBED2" stroke-width="1.85864" stroke-miterlimit="10" stroke-linecap="round" stroke-linejoin="round"/>
<path d="M280.377 237.775H233.449C232.663 237.775 232.033 237.146 232.033 236.359V192.106C232.033 191.319 232.663 190.689 233.449 190.689H280.377C293.378 190.689 303.92 201.232 303.92 214.232C303.901 227.233 293.358 237.775 280.377 237.775Z" fill="#FF6991"/>
<path d="M240.727 237.775H261.517L274.144 195.803C274.163 195.803 251.447 206.876 240.727 237.775Z" fill="#F04682"/>
<path d="M232.054 192.244H228.966V236.536H232.054V192.244Z" fill="#FFCDDC"/>
<path d="M344.006 194.957L323.413 184.946C312.694 179.734 300.264 179.282 289.191 183.707C271.726 190.709 259.099 206.227 255.834 224.754L235.399 340.206C234.691 344.199 237.759 347.857 241.81 347.857H355.886C359.8 347.857 362.828 344.415 362.337 340.541L344.006 194.957Z" fill="#FF6991"/>
<path d="M351.716 256.222L301.995 224.891C301.995 224.891 308.073 259.074 354.076 274.986L351.716 256.222Z" fill="#F04682"/>
<path d="M360.251 263.146C361.274 263.717 361.175 265.231 360.074 265.644L334.407 275.262C326.166 277.976 317.335 278.35 308.858 276.343C299.87 274.2 290.429 275.045 281.775 278.33C276.642 280.277 274.104 286.059 276.032 291.193L277.409 294.871C277.409 294.871 273.672 296.7 270.899 298.667C268.125 300.634 265.942 304.134 267.24 307.576C268.479 310.861 272 312.572 275.304 311.628C272.492 313.241 271.154 316.702 272.334 319.83L272.393 319.987C273.711 323.488 277.605 325.258 281.087 323.94L283.427 323.055C280.851 324.727 279.69 327.992 280.811 330.981C281.775 333.558 284.175 335.19 286.771 335.308C293.202 336.351 301.856 335.171 309.743 332.201L398.033 298.962C412.489 293.514 422.068 279.687 422.068 264.247C422.068 251.326 415.341 239.348 404.327 232.602L342.137 194.563C328.251 185.555 309.586 190.866 302.545 205.853C298.69 218.519 304.216 232.149 315.801 238.561L360.251 263.146Z" fill="#FFE4EE"/>
<path d="M364.559 264.976L370.125 265.212" stroke="#FFBED2" stroke-width="1.85864" stroke-miterlimit="10" stroke-linecap="round" stroke-linejoin="round"/>
<path d="M279.827 294.891L294.342 289.443C294.342 289.443 288.757 291.115 287.459 287.673L288.894 291.489" stroke="#FFBED2" stroke-width="1.85864" stroke-miterlimit="10" stroke-linecap="round" stroke-linejoin="round"/>
<path d="M285.787 322.053L288.265 321.129" stroke="#FFBED2" stroke-width="1.85864" stroke-miterlimit="10" stroke-linecap="round" stroke-linejoin="round"/>
<path d="M277.9 310.626L280.378 309.702" stroke="#FFBED2" stroke-width="1.85864" stroke-miterlimit="10" stroke-linecap="round" stroke-linejoin="round"/>
<path d="M366.682 209.57L338.851 251.306L348.961 256.892L374.313 214.232L366.682 209.57Z" fill="#FFCDDC"/>
<path d="M319.066 190.492C311.159 192.754 304.61 198.3 301.129 205.755L301.07 205.912C297.077 219.011 302.879 233.329 314.857 239.938L344.359 256.242C345.028 256.616 345.854 256.38 346.247 255.731L371.737 212.933C372.131 212.265 371.914 211.399 371.246 211.006L342.353 193.993C335.469 189.509 326.973 188.25 319.066 190.492Z" fill="#FF6991"/>
</g>
</svg>
