<svg width="382" height="348" viewBox="0 0 382 348" fill="none" xmlns="http://www.w3.org/2000/svg">
<mask id="mask0" mask-type="alpha" maskUnits="userSpaceOnUse" x="0" y="0" width="382" height="348">
<path d="M382 324C382 337.255 371.255 348 358 348L24 348C10.7452 348 2.95782e-05 337.255 2.84194e-05 324L2.19259e-06 24C1.03382e-06 10.7452 10.7452 1.93855e-06 24 7.79773e-07L358 -2.84194e-05C371.255 -2.95782e-05 382 10.7451 382 24L382 324Z" fill="#32BECD"/>
</mask>
<g mask="url(#mask0)">
<path d="M312.925 203.899L270.123 217.316L290.358 290.082C293.608 301.804 296.498 328.798 297.415 347.956H341.932C341.613 331.07 338.762 299.253 335.991 287.451L312.925 203.899Z" fill="#FFE4EE"/>
<path d="M287.149 147.621H254.035L251.045 188.35C249.689 200.032 258.82 201.806 270.582 201.806C282.344 201.806 291.475 200.032 290.119 188.35L287.149 147.621Z" fill="#FFDAE4"/>
<path d="M279.572 167.357C273.312 172.321 264.86 189.027 263.006 201.427C256.148 200.59 251.303 198.098 250.924 191.419C250.944 190.164 250.964 189.127 251.004 188.589C251.004 188.509 251.024 188.449 251.024 188.369L252.479 168.354L279.572 167.357Z" fill="#FFCDDC"/>
<path d="M224.47 124.396C224.47 102.765 242.531 85.3612 264.381 86.4178C283.779 87.3548 299.648 103.323 300.485 122.721C300.864 131.632 298.173 139.886 293.388 146.524C289.142 152.406 285.334 158.586 281.446 164.726C275.226 174.534 263.624 180.575 250.805 178.741C238.405 176.966 228.158 167.517 225.307 155.336C224.49 151.827 224.29 148.398 224.629 145.149C225.247 138.989 224.908 132.789 224.549 126.589C224.49 125.851 224.47 125.133 224.47 124.396Z" fill="#FFE4EE"/>
<path d="M261.271 138.69C263.44 138.69 265.199 136.218 265.199 133.168C265.199 130.118 263.44 127.646 261.271 127.646C259.102 127.646 257.344 130.118 257.344 133.168C257.344 136.218 259.102 138.69 261.271 138.69Z" fill="white"/>
<path d="M260.015 137.274C261.491 137.274 262.687 135.489 262.687 133.286C262.687 131.084 261.491 129.299 260.015 129.299C258.54 129.299 257.344 131.084 257.344 133.286C257.344 135.489 258.54 137.274 260.015 137.274Z" fill="#2D2D37"/>
<path d="M239.621 138.69C241.79 138.69 243.548 136.218 243.548 133.168C243.548 130.118 241.79 127.646 239.621 127.646C237.452 127.646 235.694 130.118 235.694 133.168C235.694 136.218 237.452 138.69 239.621 138.69Z" fill="white"/>
<path d="M238.365 137.274C239.841 137.274 241.037 135.489 241.037 133.286C241.037 131.084 239.841 129.299 238.365 129.299C236.89 129.299 235.694 131.084 235.694 133.286C235.694 135.489 236.89 137.274 238.365 137.274Z" fill="#2D2D37"/>
<path d="M226.982 126.27L224.53 126.589C224.689 129.22 224.829 131.852 224.908 134.503C226.523 134.443 224.59 126.449 226.982 126.309" fill="#787885"/>
<path d="M275.665 130.854C279.034 130.854 276.941 136.815 281.865 136.815C290.916 136.815 281.147 151.049 290.258 151.049C291.275 149.534 292.331 148.019 293.388 146.544C296.318 142.477 298.472 137.792 299.608 132.728C293.627 133.307 284.935 132.25 275.665 130.834" fill="#787885"/>
<path d="M224.47 124.395C224.47 102.585 242.831 85.0617 264.92 86.4372C284.397 87.6533 300.027 103.901 300.505 123.418C300.585 126.608 300.266 129.718 299.588 132.708C300.266 129.738 300.984 126.628 300.904 123.418C300.426 103.901 284.397 86.2977 264.92 85.0816C242.811 83.706 224.191 99.8741 224.191 121.684C224.191 122.422 224.49 125.831 224.53 126.548C224.53 126.548 224.53 126.548 224.53 126.568C224.53 126.568 224.53 126.568 224.53 126.548C224.49 125.851 224.47 125.133 224.47 124.395Z" fill="#2D2D37"/>
<path d="M270.043 115.404C267.073 113.67 259.158 110.799 248.213 110.799C232.544 110.799 231.029 115.185 231.029 115.185C231.029 115.185 231.009 115.264 230.989 115.384C232.982 114.088 237.727 112.135 248.213 112.135C259.158 112.135 268.428 115.005 271.399 116.74C271.419 116.76 271.439 116.76 271.439 116.78C271.1 116.221 270.621 115.743 270.043 115.404Z" fill="#2D2D37"/>
<path d="M273.392 119.929C273.652 123.498 273.133 130.834 275.665 130.834C284.935 132.25 293.627 133.307 299.608 132.728C300.266 129.758 300.605 126.648 300.525 123.438C300.047 103.921 284.417 87.6533 264.94 86.4572C242.831 85.0816 224.49 102.605 224.49 124.415C224.49 125.153 224.51 125.87 224.55 126.588C224.55 126.588 224.55 126.588 224.55 126.608L227.002 126.289C229.035 126.169 229.693 116.521 229.693 116.521C229.693 116.521 230.012 116.042 231.009 115.404C231.029 115.284 231.049 115.205 231.049 115.205C231.049 115.205 232.564 110.819 248.233 110.819C259.178 110.819 267.093 113.69 270.063 115.424C270.641 115.763 271.12 116.221 271.459 116.78C272.555 117.438 273.293 118.614 273.392 119.929Z" fill="#2D2D37"/>
<path d="M229.673 116.501C229.673 116.501 232.544 112.115 248.213 112.115C259.158 112.115 268.428 114.985 271.399 116.72C272.555 117.398 273.293 118.574 273.392 119.91C273.651 123.478 273.133 130.815 275.665 130.815C284.935 132.23 293.627 133.287 299.608 132.708C300.286 129.738 301.004 126.628 300.924 123.418C300.445 103.901 284.417 86.2977 264.94 85.0816C242.831 83.706 224.21 99.8741 224.21 121.684C224.21 122.422 224.51 125.831 224.549 126.548C224.549 126.548 224.549 126.548 224.549 126.568L227.001 126.249C229.015 126.13 229.673 116.501 229.673 116.501Z" fill="#2D2D37"/>
<path d="M280.53 134.662C280.53 130.675 283.521 127.465 287.149 127.665C290.359 127.844 292.99 130.775 293.13 134.343C293.19 135.978 292.751 137.493 291.954 138.729C291.256 139.806 290.618 140.942 289.98 142.078C288.943 143.892 287.029 144.989 284.896 144.67C282.843 144.351 281.148 142.596 280.67 140.364C280.53 139.726 280.51 139.088 280.55 138.49C280.65 137.353 280.59 136.217 280.53 135.081C280.53 134.921 280.53 134.802 280.53 134.662Z" fill="#FFE4EE"/>
<path d="M294.006 187.094C283.42 181.95 271.139 181.492 260.214 185.878C242.97 192.776 230.51 208.106 227.26 226.407L207.085 340.421C206.387 344.348 209.418 347.976 213.405 347.976H326.043C329.91 347.976 332.901 344.587 332.422 340.74L317.131 219.41C315.397 205.435 306.685 193.274 294.006 187.094Z" fill="#32D7E1"/>
<path d="M273.372 239.306L234.497 300.987C234.497 300.987 278.795 296.741 278.795 236.535L273.372 239.306Z" fill="#32BECD"/>
<path d="M247.296 149.674C245.302 149.674 243.688 152.705 243.688 156.433C243.688 160.161 245.302 163.191 247.296 163.191C249.29 163.191 250.904 160.161 250.904 156.433C250.924 152.685 249.31 149.674 247.296 149.674Z" fill="#FF7BA4"/>
<path d="M249.21 142.378C246.758 142.438 244.724 140.504 244.664 138.052C244.605 135.6 248.034 134.064 248.99 133.506V128.144" stroke="#FFBED2" stroke-width="1.88394" stroke-miterlimit="10" stroke-linecap="round" stroke-linejoin="round"/>
<path d="M288.165 134.503L287.188 135.48C286.191 136.477 286.191 138.091 287.188 139.088" stroke="#FFBED2" stroke-width="1.88394" stroke-miterlimit="10" stroke-linecap="round" stroke-linejoin="round"/>
<path d="M265.957 198.038C253.457 194.231 239.98 199.693 233.66 211.136L209.02 255.713C208.262 256.869 207.026 256.69 206.647 255.593L194.965 223.197C193.39 218.831 194.467 213.867 197.935 210.777C204.375 205.036 207.026 195.746 203.936 187.153C202.919 184.322 201.344 181.771 199.271 179.578C197.377 177.564 194.566 176.946 192.114 177.744C191.337 175.272 189.203 173.358 186.472 172.979C182.983 172.5 179.395 172.859 176.086 174.055C170.464 176.089 166.197 180.196 163.805 185.22L157.645 168.095C156.429 164.706 152.761 162.712 149.352 163.828C145.823 164.985 143.969 168.812 145.205 172.281L153 193.932C153.12 194.251 152.94 194.609 152.621 194.709C152.302 194.829 151.943 194.649 151.844 194.33V194.31L145.823 177.584C144.607 174.195 140.939 172.201 137.53 173.318C134.001 174.474 132.147 178.302 133.383 181.771L139.503 198.776L146.142 217.237L176.903 302.602C183.542 321.003 205.75 329.296 223.334 317.973C227.6 315.222 231.149 311.454 233.9 307.187L277.101 237.133C286.012 223.417 280.769 204.996 265.957 198.038ZM176.026 197.221C174.551 193.114 176.684 188.569 180.79 187.094C182.007 186.655 183.283 186.515 184.558 186.695C185.635 186.854 186.692 186.735 187.649 186.436C187.948 187.413 188.486 188.33 189.223 189.107C189.981 189.904 190.539 190.822 190.918 191.858C192.393 195.965 190.26 200.51 186.153 201.986C182.047 203.461 177.501 201.328 176.026 197.221Z" fill="#FFE4EE"/>
<path d="M191.378 179.319C191.497 181.352 190.46 183.346 188.706 184.383" stroke="#FFBED2" stroke-width="1.88394" stroke-miterlimit="10" stroke-linecap="round" stroke-linejoin="round"/>
<path d="M207.584 259.281L207.345 264.784" stroke="#FFBED2" stroke-width="1.88394" stroke-miterlimit="10" stroke-linecap="round" stroke-linejoin="round"/>
<path d="M214.781 245.346L257.025 269.728L267.471 252.782L224.41 227.922L214.781 245.346Z" fill="#FFCDDC"/>
<path d="M281.507 214.745C279.274 206.93 273.792 200.471 266.435 197.022L266.296 196.962C253.357 193.035 239.223 198.756 232.704 210.578L216.576 239.764C216.237 240.402 216.436 241.18 217.054 241.559L259.418 266.797C260.056 267.176 260.873 266.957 261.252 266.319L278.078 237.731C282.484 230.933 283.74 222.56 281.507 214.745Z" fill="#32D7E1"/>
</g>
</svg>
