<svg width="382" height="348" viewBox="0 0 382 348" fill="none" xmlns="http://www.w3.org/2000/svg">
<mask id="mask0" mask-type="alpha" maskUnits="userSpaceOnUse" x="0" y="0" width="382" height="348">
<path d="M382 348L3.05176e-05 348L2.19259e-06 24C1.03382e-06 10.7452 10.7452 2.02057e-06 24 8.61793e-07L358 -2.83374e-05C371.255 -2.94962e-05 382 10.7451 382 24L382 348Z" fill="#1EB4BE"/>
</mask>
<g mask="url(#mask0)">
<g filter="url(#filter0_d)">
<path d="M332 40H192C180.954 40 172 48.9543 172 60V200C172 211.046 180.954 220 192 220H332C343.046 220 352 211.046 352 200V60C352 48.9543 343.046 40 332 40Z" fill="#BEFAFF"/>
<path d="M289.523 146.529H256L253.033 187.766C251.55 199.633 261.043 201.413 272.91 201.413C284.777 201.413 293.973 199.633 292.787 187.766L289.523 146.529Z" fill="#FFDBE5"/>
<path d="M281.81 166.406C275.58 171.45 266.977 188.36 264.9 200.82C258.077 199.93 253.033 197.557 252.737 190.733C252.737 189.547 252.737 188.36 252.737 187.767V187.47L254.22 167.296L281.81 166.406Z" fill="#FFD0DD"/>
<path d="M225.146 123.687C224.85 101.734 242.947 83.9338 265.197 84.5271C284.777 85.1204 301.093 101.14 302.28 121.017C302.873 129.917 300.203 138.521 295.457 145.344C291.303 151.277 287.447 157.804 283.59 164.034C277.36 174.121 265.79 180.351 252.737 178.571C240.276 176.791 229.596 167.594 226.63 155.134C225.74 151.574 225.443 148.014 225.74 144.751C226.333 138.521 225.74 132.291 225.443 126.061C225.147 125.171 225.146 124.28 225.146 123.687Z" fill="#FFE5EF"/>
<path d="M218.323 123.687C215.06 95.5033 233.75 78.2967 257.78 78C261.34 78 263.713 79.1866 265.197 78.89C265.79 78.89 268.757 77.7033 272.317 78.2966C293.38 81.5599 311.18 102.03 307.027 123.687C307.027 123.687 302.577 153.354 291.6 158.99C290.71 159.287 289.82 158.99 289.523 158.1L284.183 122.203C284.183 121.61 283.59 121.017 282.7 121.017C279.733 121.017 271.723 121.017 266.383 118.05C265.197 117.457 264.01 118.643 264.603 119.83C264.9 120.423 265.197 120.72 265.79 121.017C267.57 122.204 253.033 121.314 246.21 115.084C245.32 114.194 243.836 115.083 243.836 116.27C244.133 117.457 244.43 118.643 245.32 119.237C247.396 121.313 234.64 120.424 231.673 112.117V111.82C231.673 111.82 225.147 118.94 225.443 127.247C225.443 129.917 225.74 131.697 225.74 133.18C225.74 134.367 224.256 135.257 223.366 134.07C221.29 131.697 219.213 128.137 218.323 123.687Z" fill="#333333"/>
<path d="M286.26 136.74C286.26 132.587 289.226 129.323 292.786 129.62C296.05 129.62 298.72 132.587 299.016 136.443C299.016 138.223 298.72 139.707 297.83 140.893C297.236 142.08 296.643 143.267 295.753 144.453C294.863 146.233 292.786 147.42 290.71 147.123C288.633 146.827 286.853 145.047 286.26 142.673C286.26 142.08 285.963 141.487 286.26 140.893C286.26 139.707 286.26 138.52 286.26 137.333C286.26 137.037 286.26 137.037 286.26 136.74Z" fill="#FFE5EF"/>
<path d="M238.496 140.005C240.79 140.005 242.649 137.348 242.649 134.071C242.649 130.794 240.79 128.138 238.496 128.138C236.202 128.138 234.343 130.794 234.343 134.071C234.343 137.348 236.202 140.005 238.496 140.005Z" fill="white"/>
<path d="M259.56 140.005C261.854 140.005 263.713 137.348 263.713 134.071C263.713 130.794 261.854 128.138 259.56 128.138C257.266 128.138 255.406 130.794 255.406 134.071C255.406 137.348 257.266 140.005 259.56 140.005Z" fill="white"/>
<path d="M237.013 137.63C238.487 137.63 239.683 136.037 239.683 134.07C239.683 132.104 238.487 130.51 237.013 130.51C235.538 130.51 234.343 132.104 234.343 134.07C234.343 136.037 235.538 137.63 237.013 137.63Z" fill="#333333"/>
<path d="M257.78 137.63C259.091 137.63 260.153 136.037 260.153 134.07C260.153 132.104 259.091 130.51 257.78 130.51C256.469 130.51 255.406 132.104 255.406 134.07C255.406 136.037 256.469 137.63 257.78 137.63Z" fill="#333333"/>
<path d="M341.487 347.703V348H297.58C298.47 325.453 294.567 304.953 288.633 283.296L270.833 218.919L304.95 208.239C309.4 206.756 314.147 209.426 315.333 213.876L335.803 288.339C339.067 301.393 342.08 334.056 341.487 347.703Z" fill="#FFE5EF"/>
<path d="M293.974 188.359C283.591 183.316 271.427 182.723 260.45 187.173C243.244 193.996 231.08 209.126 227.817 227.519L207.94 340.55C207.347 344.407 210.313 347.967 214.17 347.967H326.014C329.871 347.967 332.838 344.703 332.244 340.847L317.114 220.4C315.334 206.456 306.731 194.589 293.974 188.359Z" fill="#28D2DC"/>
<path d="M273.8 240.278L235.233 301.392C235.233 301.392 279.14 297.238 279.14 237.312L273.8 240.278Z" fill="#1EB4BE"/>
<path d="M248.583 145.938C246.506 145.938 245.023 148.905 245.023 152.761C245.023 156.618 246.803 159.585 248.88 159.585C250.956 159.585 252.44 156.618 252.44 152.761C252.143 148.905 250.66 145.938 248.583 145.938Z" fill="#FF97BF"/>
<path d="M293.973 136.444L293.084 137.334C292.194 138.224 292.194 140.004 293.084 140.894" stroke="#FFBED7" stroke-width="0.6298" stroke-miterlimit="10" stroke-linecap="round" stroke-linejoin="round"/>
<path d="M248.88 141.783C246.507 141.783 244.43 140.003 244.43 137.333C244.43 134.96 247.693 133.477 248.88 132.883V129.917" stroke="#FFBED7" stroke-width="0.6298" stroke-miterlimit="10" stroke-linecap="round" stroke-linejoin="round"/>
<path d="M266.383 199.042C253.923 195.185 240.573 200.822 234.343 212.095L210.016 256.299C209.126 257.485 207.94 257.189 207.643 256.299L196.073 224.259C194.59 219.808 195.48 215.062 199.04 211.798C205.566 206.162 207.94 196.965 204.973 188.362C204.083 185.692 202.303 183.022 200.226 180.945C198.446 178.868 195.48 178.275 193.106 179.165C192.216 176.792 190.14 174.715 187.47 174.418C183.91 173.825 180.35 174.418 177.086 175.605C171.45 177.682 167.296 181.835 164.923 186.582L158.693 169.672C157.506 166.408 153.946 164.332 150.386 165.518C146.826 166.705 145.046 170.562 146.233 173.825L153.946 195.185C153.946 195.482 153.946 195.778 153.65 196.075C153.353 196.372 153.056 196.075 152.759 195.778L146.826 179.165C145.639 175.902 142.079 173.825 138.519 175.012C134.959 176.198 133.179 180.055 134.366 183.318L140.299 200.228L146.826 218.622L177.383 303.172C183.91 321.566 205.863 329.576 223.367 318.302C227.52 315.632 231.08 311.776 233.75 307.622L276.47 238.202C286.26 224.259 280.92 206.162 266.383 199.042ZM177.086 198.448C175.603 194.295 177.68 189.845 181.833 188.362C183.02 188.065 184.206 187.768 185.69 188.065C186.876 188.362 187.766 188.065 188.656 187.768C188.953 188.658 189.546 189.548 190.14 190.438C191.03 191.328 191.326 192.218 191.92 193.108C193.403 197.262 191.326 201.712 187.173 203.195C183.02 204.678 178.57 202.305 177.086 198.448Z" fill="#FFE5EF"/>
<path d="M192.216 180.646C192.216 182.722 191.326 184.502 189.546 185.689" stroke="#FFBED7" stroke-width="0.6298" stroke-miterlimit="10" stroke-linecap="round" stroke-linejoin="round"/>
<path d="M208.237 259.857V265.494" stroke="#FFBED7" stroke-width="0.6298" stroke-miterlimit="10" stroke-linecap="round" stroke-linejoin="round"/>
<path d="M215.356 246.21L257.483 270.24L267.867 253.627L225.146 228.707L215.356 246.21Z" fill="#FFD0DD"/>
<path d="M281.81 215.653C279.734 207.939 274.097 201.413 266.977 198.149C254.22 194.293 239.98 199.929 233.75 211.796L217.136 241.76L261.34 268.163L278.844 238.793C282.7 231.969 283.887 223.366 281.81 215.653Z" fill="#28D2DC"/>
</g>
</g>
<defs>
<filter id="filter0_d" x="118" y="28" width="250" height="340" filterUnits="userSpaceOnUse" color-interpolation-filters="sRGB">
<feFlood flood-opacity="0" result="BackgroundImageFix"/>
<feColorMatrix in="SourceAlpha" type="matrix" values="0 0 0 0 0 0 0 0 0 0 0 0 0 0 0 0 0 0 127 0"/>
<feOffset dy="4"/>
<feGaussianBlur stdDeviation="8"/>
<feColorMatrix type="matrix" values="0 0 0 0 0 0 0 0 0 0 0 0 0 0 0 0 0 0 0.08 0"/>
<feBlend mode="normal" in2="BackgroundImageFix" result="effect1_dropShadow"/>
<feBlend mode="normal" in="SourceGraphic" in2="effect1_dropShadow" result="shape"/>
</filter>
</defs>
</svg>
