<svg width="382" height="348" viewBox="0 0 382 348" fill="none" xmlns="http://www.w3.org/2000/svg">
<mask id="mask0" mask-type="alpha" maskUnits="userSpaceOnUse" x="0" y="0" width="382" height="348">
<path d="M382 324C382 337.255 371.255 348 358 348L24 348C10.7452 348 2.95782e-05 337.255 2.84194e-05 324L2.19259e-06 24C1.03382e-06 10.7452 10.7452 1.93855e-06 24 7.79773e-07L358 -2.84194e-05C371.255 -2.95782e-05 382 10.7451 382 24L382 324Z" fill="#F04682"/>
</mask>
<g mask="url(#mask0)">
<path d="M366.205 229.833L324.107 230.548C331.463 262.976 325.716 297.971 330.192 348.374H382.059C381.99 347.532 381.937 346.688 381.923 345.842C377.178 287.136 373.707 260.279 366.205 229.833Z" fill="#FFE4EE"/>
<path d="M221.525 297.859L230.209 248.784L190.233 240.577L182.891 281.259C182.734 282.127 181.489 282.124 181.337 281.257L168.118 206.514C167.493 202.964 167.333 199.349 167.648 195.758L168.916 181.256C169.167 178.39 167.55 175.555 164.823 174.64C160.817 173.293 157.076 176.283 156.737 180.15L154.796 202.317L143.208 180.341C141.78 177.282 138.141 175.961 135.082 177.386C132.021 178.815 130.695 182.456 132.126 185.517L142.569 205.059C133.902 208.817 128.609 218.135 130.321 227.844L142.693 297.852C146.072 316.974 162.691 330.913 182.112 330.913C201.527 330.913 218.144 316.979 221.525 297.859Z" fill="#FFE4EE"/>
<path d="M139.99 226.258L132.651 210.516C131.223 207.455 132.548 203.816 135.61 202.39C138.671 200.962 142.31 202.288 143.736 205.349L151.077 221.091C152.505 224.152 151.18 227.791 148.118 229.217C145.057 230.642 141.418 229.319 139.99 226.258Z" fill="#FFE4EE"/>
<path d="M145.449 209.026L151.074 221.091C152.502 224.153 151.176 227.791 148.115 229.217C145.053 230.645 141.415 229.32 139.989 226.258L136.346 218.442" stroke="#FFBED2" stroke-width="1.76153" stroke-miterlimit="10" stroke-linecap="round" stroke-linejoin="round"/>
<path d="M166.957 218.748L163.314 210.932C161.886 207.871 158.247 206.547 155.188 207.973C152.127 209.401 150.803 213.04 152.229 216.099L157.854 228.164C154.456 228.762 152.186 232.005 152.785 235.403L153.068 237.017" stroke="#FFBED2" stroke-width="1.76153" stroke-miterlimit="10" stroke-linecap="round" stroke-linejoin="round"/>
<path d="M227.079 266.479L230.21 248.787L190.233 240.577L188.011 252.883C200.806 256.011 213.865 261.133 227.079 266.479Z" fill="#FFCDDC"/>
<path d="M233.704 237.809H316.966C328.392 219.165 327.538 194.471 322.688 167.36H298.282L299.028 177.534C300.325 188.696 291.601 190.386 280.366 190.386C277.321 190.386 274.462 190.26 271.935 189.857C271.93 189.857 271.928 189.854 271.923 189.854C271.15 189.73 270.409 189.58 269.703 189.399C269.674 189.392 269.646 189.385 269.617 189.378C269.288 189.292 268.966 189.201 268.654 189.101C268.637 189.096 268.618 189.089 268.599 189.084C267.948 188.874 267.335 188.634 266.761 188.357C266.718 188.336 266.675 188.317 266.632 188.295C266.377 188.169 266.126 188.035 265.888 187.892C265.864 187.878 265.843 187.866 265.819 187.852C265.554 187.692 265.299 187.523 265.056 187.344C265.039 187.332 265.025 187.317 265.008 187.306C264.793 187.146 264.591 186.977 264.393 186.8C264.348 186.76 264.305 186.719 264.259 186.678C264.073 186.502 263.892 186.318 263.721 186.125C263.704 186.104 263.682 186.085 263.666 186.063C263.477 185.844 263.301 185.615 263.136 185.377C263.11 185.338 263.084 185.296 263.058 185.257C262.927 185.057 262.803 184.85 262.688 184.633C262.655 184.571 262.621 184.509 262.588 184.444C262.469 184.204 262.354 183.956 262.254 183.693C262.247 183.672 262.237 183.65 262.228 183.629C262.121 183.343 262.028 183.045 261.947 182.735C261.93 182.666 261.913 182.596 261.896 182.525C261.837 182.277 261.784 182.019 261.742 181.755C261.727 181.671 261.713 181.585 261.701 181.497C261.653 181.161 261.615 180.818 261.594 180.458C261.548 179.628 261.577 178.724 261.68 177.751C261.687 177.68 261.691 177.611 261.699 177.539L262.352 168.593H228.701C226.894 189.64 226.067 213.789 233.704 237.809Z" fill="#2D2D37"/>
<path d="M368.51 239.662L327.911 247.953C329.232 254.254 330.522 260.721 331.767 267.442C345.138 261.615 358.345 255.861 371.221 252.883C370.379 248.398 369.48 244.028 368.51 239.662Z" fill="#FFCDDC"/>
<path d="M217.25 254.522C219.782 255.185 221.48 257.562 221.287 260.173L215.14 342.55C214.906 345.695 217.393 348.377 220.547 348.377H341.034C344.243 348.377 346.749 345.607 346.43 342.414L338.228 260.349C337.958 257.662 339.708 255.187 342.331 254.543L371.33 247.423C373.953 246.78 375.765 244.298 375.45 241.615C372.403 215.659 344.386 194.204 306.966 187.216C304.749 186.801 302.992 185.113 302.57 182.898C302.212 181.016 300.903 179.421 299.088 178.811C286.928 174.719 274.775 174.722 262.636 178.811C260.822 179.421 259.515 181.019 259.157 182.898C258.735 185.113 256.978 186.803 254.761 187.216C217.309 194.212 189.279 215.697 186.27 241.684C185.962 244.336 187.729 246.799 190.311 247.473L217.25 254.522Z" fill="#FF6991"/>
<path d="M302.551 193.168L294.545 203.969C293.262 205.7 290.751 205.917 289.189 204.429L283.429 198.936C281.993 197.567 279.735 197.567 278.302 198.936L272.542 204.429C270.982 205.917 268.472 205.703 267.186 203.969L259.18 193.168" stroke="#F04682" stroke-width="1.76153" stroke-miterlimit="10" stroke-linecap="round" stroke-linejoin="round"/>
<path d="M280.828 207.529C281.749 207.529 282.497 206.781 282.497 205.859C282.497 204.938 281.749 204.19 280.828 204.19C279.906 204.19 279.159 204.938 279.159 205.859C279.159 206.781 279.906 207.529 280.828 207.529Z" fill="white"/>
<path d="M280.828 212.632C281.749 212.632 282.497 211.885 282.497 210.963C282.497 210.041 281.749 209.294 280.828 209.294C279.906 209.294 279.159 210.041 279.159 210.963C279.159 211.885 279.906 212.632 280.828 212.632Z" fill="white"/>
<path d="M296.179 138.541H264.548L261.698 177.463C260.401 188.624 269.126 190.312 280.361 190.312C291.598 190.312 300.32 188.624 299.023 177.463L296.179 138.541Z" fill="#FFDAE4"/>
<path d="M288.904 154.546C282.929 159.288 274.913 178.125 273.151 189.958C266.601 189.16 261.932 187.131 261.572 180.755C261.589 179.553 261.618 178.573 261.658 178.051C261.665 177.979 261.67 177.91 261.677 177.839L263.074 155.483L288.904 154.546Z" fill="#FFCDDC"/>
<path d="M236.297 116.361C236.297 95.6957 253.548 79.0623 274.432 80.0709C292.957 80.965 308.126 96.225 308.929 114.754C309.299 123.266 306.724 131.149 302.151 137.503C298.097 143.13 294.463 149.032 290.744 154.885C284.795 164.249 273.722 170.033 261.466 168.283C249.621 166.59 239.831 157.568 237.098 145.918C236.311 142.565 236.128 139.296 236.442 136.175C237.034 130.283 236.707 124.356 236.359 118.445C236.318 117.753 236.297 117.06 236.297 116.361Z" fill="#FFE4EE"/>
<path d="M262.269 168.382C261.971 168.349 261.771 168.322 261.473 168.28C250.97 166.777 241.928 159.779 238.257 149.825C236.525 145.127 236.01 140.545 236.444 136.243C236.757 133.129 236.809 130.006 236.74 126.88C236.7 122.292 237.567 117.748 239.332 113.511C242.343 106.277 247.021 98.3628 252.532 96.8464C253.559 96.5626 254.618 97.1468 254.98 98.1506C255.972 100.909 259.225 106.501 269.575 108.504C280.236 110.566 283.278 126.16 293.784 128.284C299.296 129.543 296.695 145.619 296.695 145.619L298.376 168.587H322.911C321.945 163.194 320.829 157.669 319.59 151.994L315.195 123.42C315.076 122.65 314.993 121.877 314.94 121.1H314.938C314.942 119.009 314.771 116.801 314.382 114.472C310.102 88.9112 296.929 81.9775 291.073 80.0938C288.135 79.1544 279.423 76.1096 269.759 76.0023C265.906 75.9522 261.907 76.7343 258.061 78.2316C249.699 81.4839 243.021 88.0028 239.046 96.0452C235.028 104.171 232.937 111.918 232.56 116.236C232.06 121.93 231.49 131.198 231.378 135.623C231.134 145.132 229.718 156.739 228.667 168.99L262.234 168.93L262.269 168.382Z" fill="#2D2D37"/>
<path d="M293.766 129.521C293.766 125.715 296.625 122.651 300.087 122.837C303.158 123.002 305.674 125.81 305.805 129.222C305.867 130.789 305.44 132.241 304.682 133.412C304.01 134.449 303.406 135.534 302.791 136.612C301.804 138.336 299.971 139.401 297.939 139.079C295.974 138.767 294.353 137.105 293.9 134.962C293.769 134.344 293.74 133.743 293.79 133.169C293.888 132.084 293.833 130.992 293.776 129.904C293.771 129.776 293.766 129.649 293.766 129.521Z" fill="#FFE4EE"/>
<path d="M249.086 134.045C251.267 134.045 253.035 131.583 253.035 128.547C253.035 125.51 251.267 123.048 249.086 123.048C246.906 123.048 245.138 125.51 245.138 128.547C245.138 131.583 246.906 134.045 249.086 134.045Z" fill="white"/>
<path d="M268.681 134.045C270.862 134.045 272.63 131.583 272.63 128.547C272.63 125.51 270.862 123.048 268.681 123.048C266.501 123.048 264.733 125.51 264.733 128.547C264.733 131.583 266.501 134.045 268.681 134.045Z" fill="white"/>
<path d="M247.57 131.934C248.913 131.934 250.002 130.417 250.002 128.546C250.002 126.675 248.913 125.158 247.57 125.158C246.227 125.158 245.138 126.675 245.138 128.546C245.138 130.417 246.227 131.934 247.57 131.934Z" fill="#2D2D37"/>
<path d="M267.09 131.829C268.392 131.829 269.446 130.359 269.446 128.546C269.446 126.733 268.392 125.263 267.09 125.263C265.789 125.263 264.735 126.733 264.735 128.546C264.735 130.359 265.789 131.829 267.09 131.829Z" fill="#2D2D37"/>
<path d="M271.631 142.595C264.697 144.667 258.211 146.176 252.706 146.464C252.074 146.498 251.709 147.203 252.072 147.721C252.992 149.028 255.35 149.957 258.116 149.957C264.447 149.957 270.133 146.424 272.463 143.906C273.021 143.305 272.415 142.361 271.631 142.595Z" fill="#FF7BA4"/>
<path d="M301.069 129.369L300.13 130.309C299.176 131.262 299.176 132.807 300.13 133.759" stroke="#FFBED2" stroke-width="1.76153" stroke-miterlimit="10" stroke-linecap="round" stroke-linejoin="round"/>
<path d="M258.701 135.692C256.386 135.749 254.464 133.918 254.407 131.603C254.35 129.287 257.592 127.85 258.496 127.308V122.253" stroke="#FFBED2" stroke-width="1.76153" stroke-miterlimit="10" stroke-linecap="round" stroke-linejoin="round"/>
</g>
</svg>
