<svg width="398" height="348" viewBox="0 0 398 348" fill="none" xmlns="http://www.w3.org/2000/svg">
<mask id="mask0" mask-type="alpha" maskUnits="userSpaceOnUse" x="0" y="0" width="382" height="348">
<path d="M382 324C382 337.255 371.255 348 358 348L24 348C10.7452 348 2.95782e-05 337.255 2.84194e-05 324L2.19259e-06 24C1.03382e-06 10.7452 10.7452 1.93855e-06 24 7.79773e-07L358 -2.84194e-05C371.255 -2.95782e-05 382 10.7451 382 24L382 324Z" fill="#FFB428"/>
</mask>
<g mask="url(#mask0)">
<path d="M217.037 169.891C215.256 190.648 214.429 214.457 221.976 238.118H304.048C315.306 219.736 314.479 195.397 309.688 168.683L217.037 169.891Z" fill="#2D2D37"/>
<path d="M179.319 246.918L176.541 279.547C176.457 280.459 175.206 280.629 174.888 279.78L164.435 247.554L160.704 237.589C160.407 236.826 160.068 236.084 159.707 235.342L146.308 197.433C145.439 194.529 142.364 192.875 139.46 193.744C136.555 194.614 134.901 197.688 135.771 200.592L138.485 208.246C139.439 210.96 136.873 213.653 134.138 212.762C129.919 211.384 125.424 210.642 120.824 210.642H102.951C99.9188 210.642 97.4382 213.101 97.4382 216.154C97.4382 219.186 99.8976 221.667 102.951 221.667H119.848C120.378 221.667 120.802 222.091 120.802 222.621C120.802 223.151 120.378 223.575 119.848 223.575H100.512C97.4806 223.575 95 226.034 95 229.087C95 232.119 97.4594 234.6 100.512 234.6H119.848C120.378 234.6 120.802 235.024 120.802 235.554C120.802 236.084 120.378 236.508 119.848 236.508H106.173C103.141 236.508 100.661 238.967 100.661 242.02C100.661 245.052 103.12 247.533 106.173 247.533H120.802H126.527L145.905 300.473C151.036 313.406 163.545 321.887 177.453 321.887C194.287 321.887 208.323 309.06 209.87 292.311L213.623 251.561L179.319 246.918Z" fill="#FFE4EE"/>
<path d="M139.014 219.144C138.675 225.165 143.149 229.257 148.025 228.578" stroke="#FFBED2" stroke-width="1.73641" stroke-miterlimit="10" stroke-linecap="round" stroke-linejoin="round"/>
<path d="M134.053 240.662C135.771 236.019 133.905 225.609 131.318 220.775" stroke="#FFBED2" stroke-width="1.73641" stroke-miterlimit="10" stroke-linecap="round" stroke-linejoin="round"/>
<path d="M179.319 246.918L213.602 251.582L212.33 265.427C200.966 260.508 189.75 255.886 178.768 253.257L179.319 246.918Z" fill="#FFCDDC"/>
<path d="M175.968 283.427L176.986 288.388" stroke="#FFBED2" stroke-width="1.73641" stroke-miterlimit="10" stroke-linecap="round" stroke-linejoin="round"/>
<path d="M357.794 246.918L360.571 279.547C360.656 280.459 361.907 280.629 362.225 279.78L372.678 247.554L376.409 237.589C376.706 236.826 377.045 236.084 377.405 235.342L390.805 197.433C391.674 194.529 394.748 192.875 397.653 193.744C400.558 194.614 402.211 197.688 401.342 200.592L398.628 208.246C397.674 210.96 400.24 213.653 402.975 212.762C407.194 211.384 411.688 210.642 416.289 210.642H434.162C437.194 210.642 439.675 213.101 439.675 216.154C439.675 219.186 437.215 221.667 434.162 221.667H417.265C416.734 221.667 416.31 222.091 416.31 222.621C416.31 223.151 416.734 223.575 417.265 223.575H436.6C439.632 223.575 442.113 226.034 442.113 229.087C442.113 232.119 439.653 234.6 436.6 234.6H417.265C416.734 234.6 416.31 235.024 416.31 235.554C416.31 236.084 416.734 236.508 417.265 236.508H430.94C433.971 236.508 436.452 238.967 436.452 242.02C436.452 245.052 433.993 247.533 430.94 247.533H416.31H410.586L391.208 300.473C386.077 313.406 373.568 321.887 359.66 321.887C342.826 321.887 328.79 309.06 327.242 292.311L323.49 251.561L357.794 246.918Z" fill="#FFE4EE"/>
<path d="M357.793 246.918L323.51 251.582L324.782 265.427C336.146 260.508 347.362 255.886 358.345 253.257L357.793 246.918Z" fill="#FFCDDC"/>
<path d="M361.144 283.427L360.126 288.388" stroke="#FFBED2" stroke-width="1.73641" stroke-miterlimit="10" stroke-linecap="round" stroke-linejoin="round"/>
<path d="M205.524 254.656C208.026 255.314 209.722 257.667 209.531 260.254L203.446 341.901C203.213 345.018 205.673 347.668 208.81 347.668H328.218C331.398 347.668 333.879 344.933 333.561 341.753L325.441 260.423C325.165 257.752 326.904 255.314 329.511 254.678L358.261 247.617C360.869 246.981 362.649 244.522 362.353 241.851C359.342 216.133 331.568 194.868 294.486 187.935C292.281 187.532 290.543 185.857 290.119 183.652C289.758 181.786 288.465 180.196 286.663 179.603C274.62 175.553 262.578 175.553 250.535 179.603C248.733 180.217 247.44 181.786 247.079 183.652C246.655 185.857 244.917 187.532 242.712 187.935C205.588 194.868 177.814 216.154 174.845 241.914C174.549 244.543 176.287 246.981 178.853 247.66L205.524 254.656Z" fill="#FFD25F"/>
<path d="M290.055 193.85L282.126 204.556C280.854 206.274 278.373 206.486 276.825 205.002L271.122 199.553C269.702 198.196 267.454 198.196 266.034 199.553L260.33 205.002C258.783 206.486 256.302 206.253 255.03 204.556L247.101 193.85" stroke="#FFB428" stroke-width="1.73641" stroke-miterlimit="10" stroke-linecap="round" stroke-linejoin="round"/>
<path d="M268.536 208.077C269.449 208.077 270.189 207.337 270.189 206.423C270.189 205.51 269.449 204.77 268.536 204.77C267.622 204.77 266.882 205.51 266.882 206.423C266.882 207.337 267.622 208.077 268.536 208.077Z" fill="white"/>
<path d="M268.536 213.143C269.449 213.143 270.189 212.403 270.189 211.49C270.189 210.576 269.449 209.836 268.536 209.836C267.622 209.836 266.882 210.576 266.882 211.49C266.882 212.403 267.622 213.143 268.536 213.143Z" fill="white"/>
<path d="M283.525 140.166H252.338L249.539 178.541C248.267 189.545 256.854 191.198 267.942 191.198C279.01 191.198 287.617 189.523 286.345 178.541L283.525 140.166Z" fill="#FFDAE4"/>
<path d="M260.797 190.838C262.769 178.732 270.826 160.096 276.826 155.325L251.172 156.258L249.539 178.541C248.543 187 253.44 189.926 260.797 190.838Z" fill="#FFCDDC"/>
<path d="M224.5 118.285C224.5 97.9107 241.504 81.5218 262.091 82.5183C280.345 83.4087 295.313 98.4407 296.098 116.717C296.458 125.112 293.914 132.872 289.419 139.148C285.434 144.703 281.85 150.512 278.183 156.279C272.31 165.501 261.412 171.205 249.327 169.487C237.645 167.812 227.998 158.929 225.306 147.438C224.521 144.13 224.352 140.908 224.648 137.833C225.221 132.024 224.903 126.172 224.564 120.363C224.521 119.664 224.5 118.985 224.5 118.285Z" fill="#FFE4EE"/>
<path d="M259.334 144.152C252.507 146.188 246.104 147.693 240.677 147.969C240.062 148.011 239.702 148.689 240.062 149.198C240.974 150.492 243.285 151.403 246.02 151.403C252.253 151.403 257.871 147.926 260.161 145.446C260.691 144.852 260.097 143.919 259.334 144.152Z" fill="#FF7BA4"/>
<path d="M301.462 116.442C297.243 91.2546 284.543 85.4878 278.479 82.5619C275.956 81.3322 268.345 79.4028 259.716 79C256.302 79.0212 253.928 79.6573 253.143 81.1414C252.168 80.0813 250.79 79.8481 249.433 80.039C248.712 80.145 247.991 80.3993 247.292 80.6326C246.571 80.8658 245.85 81.1414 245.129 81.4382C236.776 84.9153 230.394 91.4454 226.535 99.6292C222.995 107.135 221.15 114.174 220.79 118.181C220.302 123.799 219.729 132.937 219.623 137.283C219.39 146.654 217.991 158.103 216.952 170.167H250.133L250.175 169.573C249.687 169.51 249.136 169.446 248.203 169.277C238.641 167.453 230.309 161.093 226.705 152.04C224.754 147.142 224.182 142.35 224.627 137.877C224.924 134.803 224.987 131.728 224.924 128.654C224.903 127.191 225.03 125.75 225.2 124.308C232.069 120.746 239.956 112.605 243.666 105.142C246.55 115.212 268.154 130.054 281.151 130.054C286.536 131.283 284.076 146.803 284.013 147.121L285.667 169.785H309.858L301.462 116.442Z" fill="#2D2D37"/>
<path d="M281.151 131.26C281.151 127.507 283.971 124.496 287.384 124.666C290.416 124.836 292.897 127.592 293.024 130.963C293.087 132.511 292.663 133.931 291.921 135.097C291.264 136.115 290.67 137.196 290.056 138.256C289.08 139.952 287.278 141.012 285.264 140.694C283.335 140.398 281.723 138.744 281.278 136.645C281.151 136.03 281.13 135.436 281.172 134.885C281.278 133.825 281.214 132.744 281.151 131.663C281.151 131.514 281.151 131.387 281.151 131.26Z" fill="#FFE4EE"/>
<path d="M237.094 135.735C239.248 135.735 240.995 133.305 240.995 130.307C240.995 127.31 239.248 124.88 237.094 124.88C234.939 124.88 233.192 127.31 233.192 130.307C233.192 133.305 234.939 135.735 237.094 135.735Z" fill="white"/>
<path d="M256.408 135.735C258.563 135.735 260.31 133.305 260.31 130.307C260.31 127.31 258.563 124.88 256.408 124.88C254.254 124.88 252.507 127.31 252.507 130.307C252.507 133.305 254.254 135.735 256.408 135.735Z" fill="white"/>
<path d="M235.609 133.657C236.932 133.657 238.005 132.157 238.005 130.307C238.005 128.457 236.932 126.957 235.609 126.957C234.286 126.957 233.213 128.457 233.213 130.307C233.213 132.157 234.286 133.657 235.609 133.657Z" fill="#2D2D37"/>
<path d="M254.84 133.55C256.128 133.55 257.172 132.098 257.172 130.306C257.172 128.515 256.128 127.062 254.84 127.062C253.551 127.062 252.507 128.515 252.507 130.306C252.507 132.098 253.551 133.55 254.84 133.55Z" fill="#2D2D37"/>
<path d="M288.339 131.113L287.406 132.046C286.473 132.979 286.473 134.506 287.406 135.438" stroke="#FFBED2" stroke-width="1.73641" stroke-miterlimit="10" stroke-linecap="round" stroke-linejoin="round"/>
<path d="M246.571 137.346C244.281 137.409 242.394 135.607 242.331 133.317C242.267 131.028 245.468 129.607 246.359 129.077V124.095" stroke="#FFBED2" stroke-width="1.73641" stroke-miterlimit="10" stroke-linecap="round" stroke-linejoin="round"/>
</g>
</svg>
