<svg width="382" height="348" viewBox="0 0 382 348" fill="none" xmlns="http://www.w3.org/2000/svg">
<mask id="mask0" mask-type="alpha" maskUnits="userSpaceOnUse" x="0" y="0" width="382" height="348">
<path d="M382 348L3.05176e-05 348L2.19259e-06 24C1.03382e-06 10.7452 10.7452 3.25381e-05 24 3.13794e-05L358 2.18017e-06C371.255 1.02139e-06 382 10.7452 382 24L382 348Z" fill="#646EDC"/>
</mask>
<g mask="url(#mask0)">
<g filter="url(#filter0_d)">
<path d="M264.857 44.0571C268.083 38.6476 275.917 38.6476 279.143 44.0571V44.0571C281.803 48.5177 287.856 49.4762 291.764 46.0561V46.0561C296.504 41.9082 303.955 44.3292 305.352 50.4709V50.4709C306.503 55.5351 311.963 58.3171 316.737 56.272V56.272C322.526 53.7918 328.865 58.3969 328.295 64.6695V64.6695C327.825 69.8418 332.158 74.1747 337.33 73.7049V73.7049C343.603 73.1352 348.208 79.4736 345.728 85.2632V85.2632C343.683 90.0371 346.465 95.4969 351.529 96.6484V96.6484C357.671 98.045 360.092 105.496 355.944 110.236V110.236C352.524 114.144 353.482 120.197 357.943 122.857V122.857C363.352 126.083 363.352 133.917 357.943 137.143V137.143C353.482 139.803 352.524 145.856 355.944 149.764V149.764C360.092 154.504 357.671 161.955 351.529 163.352V163.352C346.465 164.503 343.683 169.963 345.728 174.737V174.737C348.208 180.526 343.603 186.865 337.33 186.295V186.295C332.158 185.825 327.825 190.158 328.295 195.33V195.33C328.865 201.603 322.526 206.208 316.737 203.728V203.728C311.963 201.683 306.503 204.465 305.352 209.529V209.529C303.955 215.671 296.504 218.092 291.764 213.944V213.944C287.856 210.524 281.803 211.482 279.143 215.943V215.943C275.917 221.352 268.083 221.352 264.857 215.943V215.943C262.197 211.482 256.144 210.524 252.236 213.944V213.944C247.496 218.092 240.045 215.671 238.648 209.529V209.529C237.497 204.465 232.037 201.683 227.263 203.728V203.728C221.474 206.208 215.135 201.603 215.705 195.33V195.33C216.175 190.158 211.842 185.825 206.67 186.295V186.295C200.397 186.865 195.792 180.526 198.272 174.737V174.737C200.317 169.963 197.535 164.503 192.471 163.352V163.352C186.329 161.955 183.908 154.504 188.056 149.764V149.764C191.476 145.856 190.518 139.803 186.057 137.143V137.143C180.648 133.917 180.648 126.083 186.057 122.857V122.857C190.518 120.197 191.476 114.144 188.056 110.236V110.236C183.908 105.496 186.329 98.045 192.471 96.6484V96.6484C197.535 95.4969 200.317 90.0371 198.272 85.2632V85.2632C195.792 79.4736 200.397 73.1352 206.67 73.7049V73.7049C211.842 74.1747 216.175 69.8418 215.705 64.6695V64.6695C215.135 58.3969 221.474 53.7918 227.263 56.272V56.272C232.037 58.3171 237.497 55.5351 238.648 50.4709V50.4709C240.045 44.3292 247.496 41.9082 252.236 46.0561V46.0561C256.144 49.4762 262.197 48.5177 264.857 44.0571V44.0571Z" fill="#FFDCE6"/>
<path d="M110.675 231.45L85.8906 232.943C82.3073 233.241 79.3213 230.554 79.0227 226.971C78.7241 223.387 81.4115 220.401 84.9948 220.103L115.751 218.311C121.126 218.012 126.501 218.61 131.578 219.804C134.862 220.7 137.848 217.415 136.355 214.131L132.772 205.172C131.578 201.888 133.369 198.006 136.654 196.811C139.938 195.617 143.82 197.409 145.015 200.693L163.528 244.588C164.126 245.484 164.424 246.38 164.723 247.276L169.799 258.922L184.431 296.247C184.73 297.143 186.223 296.845 186.223 295.949L187.118 257.13L228.028 260.116L226.535 308.49C225.937 328.198 210.41 344.323 190.403 345.518C173.98 346.413 158.751 337.455 151.584 322.525L127.696 267.283C126.203 263.699 122.619 261.609 118.737 261.908C115.751 262.206 112.765 260.713 110.974 258.324L106.793 252.949L114.258 247.276L110.675 231.45Z" fill="#FFE5EF"/>
<path d="M117.245 243.989L103.509 244.885C99.9253 245.184 96.9392 242.496 96.6406 238.913C96.6406 235.031 99.3281 232.045 102.911 231.746L116.647 230.85C120.231 230.552 123.217 233.239 123.515 236.823C123.515 240.704 120.828 243.691 117.245 243.989Z" fill="#FFE5EF"/>
<path d="M121.724 256.829L107.988 257.725C104.405 258.024 101.418 255.336 101.12 251.753C100.821 248.17 103.509 245.184 107.092 244.885L120.828 243.989C124.411 243.69 127.397 246.378 127.696 249.961C127.994 253.545 125.307 256.531 121.724 256.829Z" fill="#FFE5EF"/>
<path d="M102.911 231.746L116.647 230.85C120.23 230.552 123.216 233.239 123.515 236.823C123.814 240.406 121.126 243.392 117.543 243.691" stroke="#FFBED7" stroke-width="0.6298" stroke-miterlimit="10" stroke-linecap="round" stroke-linejoin="round"/>
<path d="M109.182 244.586L120.827 243.989C124.411 243.69 127.397 246.378 127.695 249.961C127.994 253.545 125.306 256.531 121.723 256.829" stroke="#FFBED7" stroke-width="0.6298" stroke-miterlimit="10" stroke-linecap="round" stroke-linejoin="round"/>
<path d="M137.549 227.267C137.549 227.267 134.265 248.767 143.223 252.947" stroke="#FFBED7" stroke-width="0.6298" stroke-miterlimit="10" stroke-linecap="round" stroke-linejoin="round"/>
<path d="M187.417 256.83L228.326 259.816L227.431 282.809C217.577 276.538 202.348 271.163 187.119 268.475L187.417 256.83Z" fill="#FFD0DD"/>
<path d="M186.521 299.83L187.118 305.205" stroke="#FFBED7" stroke-width="0.6298" stroke-miterlimit="10" stroke-linecap="round" stroke-linejoin="round"/>
<path d="M259.68 200.693L260.874 196.214C261.173 194.123 262.965 192.63 265.055 192.332L303.277 189.943C305.367 189.943 307.457 191.137 308.054 193.228L309.846 198.005C350.755 202.484 387.185 222.491 391.067 249.067C391.366 251.157 390.171 253.248 388.081 253.845L357.325 263.998C355.533 264.595 354.637 266.088 354.338 267.581L354.04 270.567C348.964 303.115 356.727 331.483 353.443 347.607C353.741 349.698 356.13 353.281 351.651 352.982H244.75C241.97 352.982 237.47 352.982 234.896 352.982C234.597 352.982 234.298 352.982 234.298 352.982C230.715 352.087 231.611 350.594 231.91 349.101C231.91 347.906 233.104 341.635 233.104 340.74C233.104 335.962 234 309.087 228.028 278.032C228.028 275.942 226.535 274.15 224.444 273.852L185.924 266.088C183.834 265.789 182.341 263.699 182.341 261.609C183.237 233.838 218.472 209.352 259.68 200.693Z" fill="#FF5F87"/>
<path d="M281.777 221.595C282.766 221.595 283.568 220.793 283.568 219.804C283.568 218.814 282.766 218.012 281.777 218.012C280.787 218.012 279.985 218.814 279.985 219.804C279.985 220.793 280.787 221.595 281.777 221.595Z" fill="#E5E5E5"/>
<path d="M281.777 226.672C282.766 226.672 283.568 225.87 283.568 224.88C283.568 223.891 282.766 223.089 281.777 223.089C280.787 223.089 279.985 223.891 279.985 224.88C279.985 225.87 280.787 226.672 281.777 226.672Z" fill="#E5E5E5"/>
<path opacity="0.5" d="M260.277 207.86L268.041 223.686" stroke="white" stroke-width="0.6298" stroke-miterlimit="10" stroke-linecap="round" stroke-linejoin="round"/>
<path opacity="0.5" d="M273.715 221.298L276.999 217.416C279.09 215.027 282.971 214.728 285.659 216.818L293.124 223.388C294.02 223.985 295.214 223.985 295.812 223.089L308.95 206.964" stroke="white" stroke-width="0.6298" stroke-miterlimit="10" stroke-linecap="round" stroke-linejoin="round"/>
<path d="M299.992 154.11L266.548 155.006L264.458 194.422C263.263 206.366 272.819 207.859 284.464 207.561C296.408 207.262 305.665 205.172 303.874 193.526L299.992 154.11Z" fill="#FFDBE5"/>
<path d="M292.825 174.416C286.554 179.493 278.492 194.722 276.999 207.562C270.131 206.964 265.055 204.576 264.458 197.708C264.458 196.513 264.458 195.319 264.458 194.722C264.458 194.722 264.458 194.722 264.458 194.423L265.353 175.909L292.825 174.416Z" fill="#FFD0DD"/>
<path d="M235.791 132.014C235.194 110.216 253.11 92.0008 275.506 92.598C295.214 93.1952 311.637 108.723 313.13 128.431C313.728 137.389 311.339 145.75 306.561 152.618C302.38 158.59 298.797 165.16 294.915 171.43C288.943 181.583 277.297 187.854 264.159 186.361C251.617 184.868 240.867 175.611 237.583 163.368C236.687 159.785 236.388 156.5 236.687 152.917C237.284 146.646 236.687 140.375 236.09 134.104C235.791 133.507 235.791 132.91 235.791 132.014Z" fill="#FFE5EF"/>
<path d="M297.603 129.326L315.519 131.118C313.728 146.944 300.589 161.277 300.589 161.277L298.2 154.409C294.915 145.451 297.901 137.986 297.603 129.326Z" fill="#5A5A5A"/>
<path d="M260.576 114.694C260.576 114.694 268.638 112.007 274.013 115.889C277.895 118.576 267.145 108.125 267.145 108.125L248.034 108.722L247.138 115.292C246.84 115.292 254.604 110.215 260.576 114.694Z" fill="#5A5A5A"/>
<path d="M294.318 135.597C279.985 135 276.7 121.861 274.013 115.889C271.624 110.813 263.86 110.215 260.874 114.694C257.888 110.215 251.617 110.215 248.631 114.694C246.541 117.68 245.048 121.562 243.256 125.444C241.763 129.326 240.569 131.715 237.284 132.312C236.687 132.312 236.388 132.909 236.388 133.507C236.687 135.298 236.687 138.284 236.687 138.284C224.743 137.09 228.923 86.6254 256.992 83.6393C267.145 81.8477 270.43 84.2365 271.326 85.7295C271.624 86.0282 272.221 86.3268 272.52 86.0282C273.714 85.1323 275.805 83.6393 279.686 83.6393C288.047 83.6393 300.888 90.2087 306.86 95.5836C317.012 105.139 319.7 126.937 316.714 131.118C313.13 135.896 307.457 135.896 294.318 135.597Z" fill="#333333"/>
<path d="M295.513 144.556C295.513 140.375 298.499 137.091 302.082 137.389C305.367 137.389 308.054 140.375 308.353 143.959C308.353 145.75 308.054 147.243 307.158 148.438C306.561 149.632 305.964 150.827 305.367 152.021C304.471 153.813 302.381 155.007 300.29 154.708C298.2 154.41 296.409 152.618 295.811 150.528C295.513 149.931 295.513 149.334 295.513 148.736C295.513 147.542 295.513 146.347 295.513 145.153C295.513 144.854 295.513 144.854 295.513 144.556Z" fill="#FFE5EF"/>
<path d="M250.722 146.944C253.03 146.944 254.902 144.27 254.902 140.972C254.902 137.673 253.03 135 250.722 135C248.413 135 246.541 137.673 246.541 140.972C246.541 144.27 248.413 146.944 250.722 146.944Z" fill="white"/>
<path d="M271.624 146.944C273.933 146.944 275.805 144.27 275.805 140.972C275.805 137.673 273.933 135 271.624 135C269.315 135 267.444 137.673 267.444 140.972C267.444 144.27 269.315 146.944 271.624 146.944Z" fill="white"/>
<path d="M249.228 144.554C250.713 144.554 251.916 142.95 251.916 140.971C251.916 138.992 250.713 137.388 249.228 137.388C247.744 137.388 246.541 138.992 246.541 140.971C246.541 142.95 247.744 144.554 249.228 144.554Z" fill="#333333"/>
<path d="M270.131 144.554C271.45 144.554 272.52 142.95 272.52 140.971C272.52 138.992 271.45 137.388 270.131 137.388C268.812 137.388 267.742 138.992 267.742 140.971C267.742 142.95 268.812 144.554 270.131 144.554Z" fill="#333333"/>
<path d="M254.604 155.006C255.201 160.978 258.187 165.457 261.173 165.158C264.458 164.86 266.548 159.783 265.951 153.811L254.604 155.006Z" fill="#FF97BF"/>
<path d="M260.874 139.479C260.874 139.479 261.472 139.18 260.874 139.479C259.979 140.076 256.395 141.569 256.395 143.958C256.395 146.347 258.486 148.437 260.874 148.437" stroke="#FFBED7" stroke-width="0.6298" stroke-miterlimit="10" stroke-linecap="round" stroke-linejoin="round"/>
<path d="M301.783 149.034C300.888 148.139 300.888 146.347 301.783 145.451L302.978 144.257" stroke="#FFBED7" stroke-width="0.6298" stroke-miterlimit="10" stroke-linecap="round" stroke-linejoin="round"/>
<path d="M352.845 279.824L353.741 288.185C354.04 289.379 352.547 289.976 351.949 289.08L328.957 256.234L321.193 246.38C320.596 245.484 319.998 244.887 319.401 244.289L291.332 206.068C289.242 203.082 285.36 202.186 282.374 204.276C279.388 206.366 278.492 210.248 280.582 213.234L286.256 220.998C288.346 223.685 286.256 227.567 282.971 227.567C277.596 227.567 272.52 228.165 267.145 229.658L246.84 235.63C243.256 236.526 241.465 240.407 242.361 243.692C243.256 247.275 247.138 249.067 250.423 248.171L269.534 242.498C270.131 242.199 270.728 242.796 271.027 243.394C271.326 243.991 270.728 244.588 270.131 244.887L248.333 251.456C244.749 252.352 242.958 256.234 243.854 259.518C244.749 263.102 248.631 264.893 251.916 263.997L273.714 257.428C274.312 257.129 274.909 257.727 275.207 258.324C275.506 258.921 274.909 259.518 274.312 259.817L258.784 264.595C255.201 265.49 253.409 269.372 254.305 272.657C255.201 276.24 259.083 278.032 262.367 277.136L278.791 272.06L285.36 269.97L325.373 323.42C335.526 336.26 352.547 341.635 368.373 336.858C387.484 331.184 398.831 311.775 394.949 292.365L387.185 255.039L356.429 265.192C356.429 265.192 353.741 265.789 353.442 269.074C353.741 271.463 352.845 279.824 352.845 279.824Z" fill="#FFE5EF"/>
<path d="M354.936 291.171L358.519 295.65" stroke="#FFBED7" stroke-width="0.6298" stroke-miterlimit="10" stroke-linecap="round" stroke-linejoin="round"/>
<path d="M388.081 253.845L357.324 263.997C357.324 263.997 354.637 264.595 354.338 267.879C354.338 268.476 354.04 269.671 354.04 270.567L389.275 258.324L388.081 253.845Z" fill="#FFD0DD"/>
</g>
</g>
<defs>
<filter id="filter0_d" x="63" y="28" width="348.707" height="345" filterUnits="userSpaceOnUse" color-interpolation-filters="sRGB">
<feFlood flood-opacity="0" result="BackgroundImageFix"/>
<feColorMatrix in="SourceAlpha" type="matrix" values="0 0 0 0 0 0 0 0 0 0 0 0 0 0 0 0 0 0 127 0"/>
<feOffset dy="4"/>
<feGaussianBlur stdDeviation="8"/>
<feColorMatrix type="matrix" values="0 0 0 0 0 0 0 0 0 0 0 0 0 0 0 0 0 0 0.08 0"/>
<feBlend mode="normal" in2="BackgroundImageFix" result="effect1_dropShadow"/>
<feBlend mode="normal" in="SourceGraphic" in2="effect1_dropShadow" result="shape"/>
</filter>
</defs>
</svg>
