<svg width="382" height="348" viewBox="0 0 382 348" fill="none" xmlns="http://www.w3.org/2000/svg">
<mask id="mask0" mask-type="alpha" maskUnits="userSpaceOnUse" x="0" y="0" width="382" height="348">
<path d="M382 324C382 337.255 371.255 348 358 348L24 348C10.7452 348 2.95782e-05 337.255 2.84194e-05 324L2.19259e-06 24C1.03382e-06 10.7452 10.7452 1.93855e-06 24 7.79773e-07L358 -2.84194e-05C371.255 -2.95782e-05 382 10.7451 382 24L382 324Z" fill="#FFB428"/>
</mask>
<g mask="url(#mask0)">
<path d="M366 228.811L323.766 229.523C331.146 262.067 335.053 297.18 339.542 347.746H381.928C381.863 346.904 381.798 346.062 381.798 345.199C377.007 286.325 373.532 259.37 366 228.811Z" fill="#FFE4EE"/>
<path d="M233.037 236.968H316.579C328.039 218.257 327.197 193.482 322.32 166.289H297.825L298.58 176.497C299.875 187.698 291.135 189.381 279.848 189.381C276.783 189.381 273.913 189.252 271.388 188.842C271.388 188.842 271.388 188.842 271.366 188.842C270.589 188.712 269.855 188.561 269.143 188.388C269.122 188.388 269.079 188.367 269.057 188.367C268.733 188.28 268.409 188.194 268.086 188.086C268.064 188.086 268.043 188.065 268.021 188.065C267.374 187.849 266.748 187.612 266.165 187.331C266.122 187.309 266.079 187.288 266.036 187.266C265.777 187.137 265.539 187.007 265.28 186.856C265.259 186.835 265.237 186.834 265.215 186.813C264.956 186.662 264.697 186.489 264.46 186.295C264.438 186.273 264.439 186.273 264.417 186.252C264.201 186.101 264.007 185.928 263.791 185.734C263.748 185.691 263.705 185.648 263.662 185.604C263.467 185.432 263.295 185.237 263.122 185.043C263.1 185.022 263.079 185 263.057 184.978C262.863 184.763 262.69 184.525 262.518 184.288C262.496 184.245 262.475 184.202 262.431 184.158C262.302 183.964 262.172 183.748 262.064 183.532C262.021 183.468 262 183.403 261.957 183.338C261.827 183.101 261.719 182.842 261.633 182.583C261.633 182.561 261.611 182.54 261.611 182.518C261.503 182.238 261.417 181.936 261.331 181.612C261.309 181.547 261.288 181.482 261.288 181.396C261.223 181.137 261.18 180.9 261.137 180.619C261.115 180.533 261.115 180.447 261.093 180.36C261.05 180.015 261.007 179.669 260.985 179.324C260.942 178.482 260.964 177.576 261.072 176.605C261.072 176.54 261.093 176.454 261.093 176.389L261.741 167.411H227.966C226.218 188.647 225.376 212.862 233.037 236.968Z" fill="#2D2D37"/>
<path d="M220.844 297.072L229.563 247.823L189.443 239.579L182.084 280.39C181.933 281.253 180.681 281.253 180.53 280.39L167.258 205.394C166.632 201.834 166.481 198.208 166.783 194.604L168.056 180.058C168.315 177.187 166.675 174.339 163.956 173.411C159.942 172.051 156.187 175.051 155.841 178.936L153.899 201.186L142.267 179.13C140.842 176.065 137.173 174.727 134.109 176.173C131.044 177.597 129.706 181.266 131.13 184.331L141.619 203.948C132.922 207.725 127.613 217.07 129.318 226.803L141.727 297.051C145.115 316.236 161.798 330.221 181.286 330.221C200.774 330.243 217.435 316.258 220.844 297.072Z" fill="#FFE4EE"/>
<path d="M139.03 225.227L131.671 209.429C130.246 206.365 131.563 202.718 134.649 201.272C137.713 199.847 141.361 201.164 142.807 204.25L150.166 220.048C151.59 223.112 150.274 226.759 147.188 228.205C144.102 229.63 140.454 228.313 139.03 225.227Z" fill="#FFE4EE"/>
<path d="M144.489 207.94L150.143 220.048C151.568 223.112 150.251 226.759 147.165 228.205C144.1 229.63 140.453 228.313 139.007 225.227L135.36 217.393" stroke="#FFBED2" stroke-width="1.76752" stroke-miterlimit="10" stroke-linecap="round" stroke-linejoin="round"/>
<path d="M166.071 217.695L162.424 209.861C160.999 206.796 157.331 205.458 154.266 206.883C151.201 208.307 149.863 211.976 151.288 215.04L156.942 227.148C153.532 227.752 151.245 231.011 151.849 234.421L152.129 236.039" stroke="#FFBED2" stroke-width="1.76752" stroke-miterlimit="10" stroke-linecap="round" stroke-linejoin="round"/>
<path d="M226.413 265.585L229.564 247.823L189.444 239.579L187.221 251.924C200.041 255.096 213.14 260.233 226.413 265.585Z" fill="#FFCDDC"/>
<path d="M368.31 238.673L327.586 246.982C328.902 253.305 330.197 259.801 331.449 266.535C344.873 260.686 358.124 254.924 371.029 251.924C370.188 247.457 369.281 243.054 368.31 238.673Z" fill="#FFCDDC"/>
<path d="M216.55 253.586C219.097 254.255 220.802 256.629 220.608 259.262L214.435 341.919C214.198 345.069 216.701 347.767 219.852 347.767H340.751C343.967 347.767 346.492 344.983 346.168 341.789L337.946 259.434C337.687 256.737 339.435 254.255 342.068 253.607L371.159 246.464C373.792 245.817 375.605 243.335 375.303 240.637C372.239 214.588 344.14 193.072 306.588 186.058C304.365 185.648 302.595 183.943 302.185 181.72C301.818 179.842 300.523 178.224 298.689 177.619C286.496 173.519 274.302 173.519 262.109 177.619C260.296 178.224 258.979 179.842 258.612 181.72C258.181 183.943 256.433 185.648 254.21 186.058C216.636 193.072 188.494 214.631 185.494 240.702C185.192 243.356 186.962 245.838 189.552 246.507L216.55 253.586Z" fill="#FFD25F"/>
<path d="M302.142 192.036L294.114 202.87C292.819 204.618 290.315 204.834 288.74 203.323L282.956 197.82C281.51 196.439 279.244 196.439 277.82 197.82L272.036 203.323C270.46 204.812 267.957 204.597 266.662 202.87L258.634 192.036" stroke="#FFB428" stroke-width="1.76752" stroke-miterlimit="10" stroke-linecap="round" stroke-linejoin="round"/>
<path d="M280.344 206.452C281.274 206.452 282.028 205.698 282.028 204.768C282.028 203.839 281.274 203.085 280.344 203.085C279.415 203.085 278.661 203.839 278.661 204.768C278.661 205.698 279.415 206.452 280.344 206.452Z" fill="white"/>
<path d="M280.344 211.567C281.274 211.567 282.028 210.813 282.028 209.884C282.028 208.954 281.274 208.2 280.344 208.2C279.415 208.2 278.661 208.954 278.661 209.884C278.661 210.813 279.415 211.567 280.344 211.567Z" fill="white"/>
<path d="M295.711 137.263H263.964L261.116 176.326C259.821 187.526 268.561 189.21 279.848 189.21C291.114 189.21 299.876 187.505 298.581 176.326L295.711 137.263Z" fill="#FFDAE4"/>
<path d="M272.575 188.842C274.582 176.519 282.783 157.549 288.891 152.693L262.777 153.643L261.116 176.325C260.101 184.936 265.087 187.914 272.575 188.842Z" fill="#FFCDDC"/>
<path d="M235.628 114.991C235.628 94.2511 252.937 77.5687 273.892 78.583C292.474 79.4894 307.71 94.7906 308.509 113.394C308.876 121.94 306.286 129.839 301.711 136.227C297.653 141.881 294.006 147.795 290.273 153.665C284.295 163.053 273.202 168.858 260.9 167.11C249.009 165.405 239.189 156.362 236.449 144.665C235.65 141.299 235.477 138.018 235.78 134.889C236.362 128.976 236.039 123.019 235.693 117.106C235.65 116.394 235.628 115.703 235.628 114.991Z" fill="#FFE4EE"/>
<path d="M271.086 141.32C264.137 143.392 257.62 144.924 252.095 145.205C251.469 145.248 251.102 145.938 251.469 146.456C252.397 147.773 254.749 148.701 257.533 148.701C263.878 148.701 269.597 145.161 271.928 142.636C272.468 142.032 271.863 141.083 271.086 141.32Z" fill="#FF7BA4"/>
<path d="M313.968 113.113C309.674 87.474 296.746 81.6039 290.574 78.6256C288.006 77.3739 280.258 75.41 271.474 75C268 75.0216 265.583 75.6689 264.784 77.1796C263.791 76.1006 262.389 75.8631 261.007 76.0574C260.274 76.1653 259.54 76.4244 258.828 76.6618C258.094 76.8992 257.36 77.1797 256.627 77.4819C248.123 81.0212 241.627 87.6683 237.7 95.9987C234.095 103.639 232.218 110.804 231.851 114.882C231.355 120.601 230.772 129.903 230.664 134.327C230.427 143.866 229.002 155.52 227.945 167.8H261.72L261.763 167.196C261.266 167.131 260.705 167.066 259.756 166.894C250.023 165.038 241.541 158.563 237.872 149.348C235.887 144.363 235.304 139.485 235.757 134.932C236.059 131.802 236.124 128.673 236.059 125.544C236.038 124.055 236.167 122.587 236.34 121.12C243.332 117.494 251.361 109.207 255.137 101.61C258.072 111.861 280.064 126.968 293.293 126.968C298.775 128.22 296.272 144.017 296.207 144.341L297.89 167.412H322.515L313.968 113.113Z" fill="#2D2D37"/>
<path d="M293.293 128.198C293.293 124.378 296.163 121.314 299.638 121.486C302.724 121.659 305.249 124.465 305.379 127.896C305.443 129.472 305.012 130.918 304.256 132.105C303.587 133.14 302.983 134.241 302.357 135.32C301.364 137.047 299.53 138.126 297.48 137.802C295.516 137.5 293.876 135.817 293.422 133.68C293.293 133.054 293.271 132.45 293.315 131.889C293.422 130.81 293.358 129.709 293.293 128.608C293.293 128.457 293.293 128.328 293.293 128.198Z" fill="#FFE4EE"/>
<path d="M248.448 132.753C250.641 132.753 252.419 130.279 252.419 127.228C252.419 124.177 250.641 121.703 248.448 121.703C246.255 121.703 244.477 124.177 244.477 127.228C244.477 130.279 246.255 132.753 248.448 132.753Z" fill="white"/>
<path d="M268.108 132.753C270.301 132.753 272.079 130.279 272.079 127.228C272.079 124.177 270.301 121.703 268.108 121.703C265.915 121.703 264.137 124.177 264.137 127.228C264.137 130.279 265.915 132.753 268.108 132.753Z" fill="white"/>
<path d="M246.937 130.637C248.284 130.637 249.376 129.11 249.376 127.227C249.376 125.344 248.284 123.817 246.937 123.817C245.59 123.817 244.499 125.344 244.499 127.227C244.499 129.11 245.59 130.637 246.937 130.637Z" fill="#2D2D37"/>
<path d="M266.511 130.53C267.822 130.53 268.885 129.051 268.885 127.228C268.885 125.404 267.822 123.926 266.511 123.926C265.2 123.926 264.137 125.404 264.137 127.228C264.137 129.051 265.2 130.53 266.511 130.53Z" fill="#2D2D37"/>
<path d="M300.61 128.047L299.66 128.997C298.71 129.947 298.71 131.5 299.66 132.45" stroke="#FFBED2" stroke-width="1.76752" stroke-miterlimit="10" stroke-linecap="round" stroke-linejoin="round"/>
<path d="M258.095 134.393C255.764 134.457 253.843 132.623 253.778 130.292C253.714 127.961 256.972 126.515 257.879 125.976V120.926" stroke="#FFBED2" stroke-width="1.76752" stroke-miterlimit="10" stroke-linecap="round" stroke-linejoin="round"/>
</g>
</svg>
