<svg width="382" height="348" viewBox="0 0 382 348" fill="none" xmlns="http://www.w3.org/2000/svg">
<mask id="mask0" mask-type="alpha" maskUnits="userSpaceOnUse" x="0" y="0" width="382" height="348">
<path d="M382 348L3.05176e-05 348L2.19259e-06 24C1.03382e-06 10.7452 10.7452 2.02057e-06 24 8.61793e-07L358 -2.83374e-05C371.255 -2.94962e-05 382 10.7451 382 24L382 348Z" fill="#F06E8C"/>
</mask>
<g mask="url(#mask0)">
<g filter="url(#filter0_d)">
<path d="M251.698 190.526C259.418 203.158 277.763 203.158 285.482 190.526L359.064 70.1193C367.126 56.9279 357.632 40.0001 342.173 40.0001L195.008 40C179.549 40 170.055 56.9279 178.116 70.1193L251.698 190.526Z" fill="#CDFFB9"/>
<path d="M287.814 147.012H255.471L252.583 186.574C251.139 197.837 260.091 199.569 271.642 199.569C283.193 199.569 291.857 197.837 290.701 186.574L287.814 147.012Z" fill="#FFDBE5"/>
<path d="M280.593 166.071C274.529 170.981 266.154 187.152 264.422 199.281C257.78 198.414 253.159 196.104 252.582 189.462C252.582 188.307 252.582 187.152 252.582 186.575C252.582 186.575 252.582 186.575 252.582 186.286L254.026 166.938L280.593 166.071Z" fill="#FFD0DD"/>
<path d="M226.881 124.488C226.881 103.407 244.496 86.3692 265.577 87.5243C284.347 88.3906 299.941 103.985 300.807 122.755C301.096 131.418 298.497 139.504 293.877 145.857C289.834 151.633 286.08 157.697 282.326 163.473C276.261 173.002 264.999 178.778 252.582 177.045C240.453 175.313 230.635 166.072 227.747 154.232C226.88 150.766 226.881 147.59 227.169 144.413C227.747 138.349 227.458 132.285 227.169 126.22C226.881 125.932 226.881 125.065 226.881 124.488Z" fill="#FFE5EF"/>
<path d="M260.09 142.969C262.163 142.969 263.844 140.642 263.844 137.771C263.844 134.9 262.163 132.573 260.09 132.573C258.017 132.573 256.336 134.9 256.336 137.771C256.336 140.642 258.017 142.969 260.09 142.969Z" fill="white"/>
<path d="M258.935 141.525C260.37 141.525 261.534 139.844 261.534 137.771C261.534 135.697 260.37 134.017 258.935 134.017C257.499 134.017 256.336 135.697 256.336 137.771C256.336 139.844 257.499 141.525 258.935 141.525Z" fill="#333333"/>
<path d="M239.01 142.969C241.084 142.969 242.764 140.642 242.764 137.771C242.764 134.9 241.084 132.573 239.01 132.573C236.937 132.573 235.256 134.9 235.256 137.771C235.256 140.642 236.937 142.969 239.01 142.969Z" fill="white"/>
<path d="M237.855 141.525C239.29 141.525 240.454 139.844 240.454 137.771C240.454 135.698 239.29 134.017 237.855 134.017C236.42 134.017 235.256 135.698 235.256 137.771C235.256 139.844 236.42 141.525 237.855 141.525Z" fill="#333333"/>
<path d="M237.278 170.403C228.903 170.403 219.373 168.092 208.977 165.782C215.042 161.739 222.55 138.06 223.705 115.824C223.994 110.337 225.149 104.85 227.17 99.6523C231.213 89.2563 240.454 76.2614 259.802 78.2828C260.957 78.5716 261.535 78.8603 262.112 79.4379C262.979 78.8603 263.845 78.5716 265 78.2828C277.995 76.5501 293.012 82.6144 300.52 101.096C306.295 114.957 312.648 134.306 315.825 145.279C317.269 151.055 315.248 157.119 310.627 160.584C301.097 167.226 289.546 168.959 274.241 170.403C278.573 164.916 279.15 143.258 273.952 121.888C269.62 123.043 260.957 123.91 257.781 123.91C256.914 121.022 255.759 116.69 257.492 114.091C257.492 114.091 254.604 119 254.604 124.198C252.294 124.198 250.272 124.198 247.962 124.198C247.385 121.311 247.385 116.113 249.117 113.802C249.117 113.802 245.363 119.289 245.074 124.198C243.053 123.91 241.032 123.621 239.299 123.332C238.433 120.444 239.299 116.401 241.032 113.514C241.032 113.514 236.7 117.556 236.7 122.754C235.834 122.754 234.679 122.466 233.812 122.177C232.369 121.599 230.058 119.867 228.614 118.134C227.459 121.888 226.593 123.043 226.593 127.086C226.593 127.664 226.593 128.53 226.593 129.108C226.882 135.172 227.171 138.348 226.593 144.413C226.304 147.589 226.593 151.055 227.17 154.231C229.192 160.873 232.657 166.36 237.278 170.403Z" fill="#333333"/>
<path d="M247.961 152.498C245.94 152.498 244.496 155.386 244.496 159.14C244.496 162.894 245.94 165.782 247.961 165.782C249.982 165.782 251.427 162.894 251.427 159.14C251.427 155.386 249.982 152.498 247.961 152.498Z" fill="#FF97BF"/>
<path d="M249.982 147.878H247.96C245.65 147.878 243.629 145.857 243.629 143.547C243.629 141.236 245.361 138.926 247.96 138.349V134.306" stroke="#FFBED7" stroke-width="0.6298" stroke-miterlimit="10" stroke-linecap="round" stroke-linejoin="round"/>
<path d="M72.0971 190.905V204.189C72.0971 207.654 74.9848 210.542 78.4501 210.542C78.4501 210.542 78.45 210.542 78.7388 210.542L84.2256 216.895L78.1614 234.511C83.6482 237.687 91.7338 239.42 100.108 239.42H203.202V196.103H132.163C123.21 196.103 114.259 193.504 106.75 188.595C99.2422 183.686 90.5787 181.376 81.6266 181.376C76.1398 181.087 71.8084 185.419 72.0971 190.905Z" fill="#FFE5EF"/>
<path d="M83.0705 209.098L42.353 209.387C38.8876 209.387 36 206.499 36 203.034C36 199.568 38.8876 196.681 42.353 196.681L83.0705 196.392C86.5358 196.392 89.4238 199.279 89.4238 202.745C89.4238 206.21 86.5358 209.098 83.0705 209.098Z" fill="#FFE5EF"/>
<path d="M88.2687 234.8H71.8082C68.3428 234.8 65.1665 231.912 65.1665 228.447C65.1665 224.982 68.0541 221.805 71.5195 221.805H87.98C91.4453 221.805 94.6216 224.693 94.6216 228.158C94.6216 231.912 91.734 234.8 88.2687 234.8Z" fill="#FFE5EF"/>
<path d="M83.6482 222.093H67.1877C63.7223 222.093 60.8347 219.205 60.8347 215.74C60.8347 212.274 63.7223 209.387 67.1877 209.387H83.6482C87.1135 209.387 90.0011 212.274 90.0011 215.74C90.0011 218.916 87.1135 221.804 83.6482 222.093Z" fill="#FFE5EF"/>
<path d="M85.9582 209.676C88.2684 210.542 90.0011 212.852 90.0011 215.74C90.0011 219.205 87.1135 222.093 83.6482 222.093H74.9849H88.2685C91.7339 222.093 94.6215 224.981 94.6215 228.446C94.6215 231.045 93.1778 233.067 91.1563 234.222" stroke="#FFBED7" stroke-width="0.6709" stroke-miterlimit="10" stroke-linecap="round" stroke-linejoin="round"/>
<path d="M102.419 208.52C87.9799 208.52 84.8031 196.103 84.8031 196.103V203.9C84.8031 207.365 81.9154 210.253 78.4501 210.253C74.9848 210.253 72.0972 207.365 72.0972 203.9V199.279" stroke="#FFBED7" stroke-width="0.6709" stroke-miterlimit="10" stroke-linecap="round" stroke-linejoin="round"/>
<path d="M250.561 240.286H203.202V194.082H250.561C263.267 194.082 273.663 204.478 273.663 217.184C273.375 230.179 263.267 240.286 250.561 240.286Z" fill="#82E155"/>
<path d="M211.576 240.286H231.791L244.208 199.28C244.497 199.28 222.261 210.253 211.576 240.286Z" fill="#78CD69"/>
<path d="M200.025 196.104V239.132H203.202V195.815L200.025 196.104Z" fill="#FFD0DD"/>
<path d="M312.648 198.413L292.434 188.595C282.038 183.397 269.909 183.108 258.936 187.44C241.898 194.371 229.48 209.387 226.304 227.58L206.379 340.492C205.801 344.535 208.689 348 212.731 348H324.488C328.242 348 331.419 344.535 330.841 340.781L312.648 198.413Z" fill="#82E155"/>
<path d="M320.157 258.478L271.354 227.868C271.354 227.868 277.418 261.366 322.467 276.96L320.157 258.478Z" fill="#78CD69"/>
<path d="M328.531 265.121C329.397 265.699 329.397 267.143 328.242 267.431L303.119 276.961C295.033 279.56 286.37 279.849 277.995 278.116C269.332 276.095 260.091 276.961 251.428 280.138C246.518 282.159 243.919 287.646 245.941 292.844L247.385 296.309C247.385 296.309 243.631 298.042 241.032 300.063C238.433 302.085 236.122 305.55 237.566 308.726C238.721 311.903 242.187 313.636 245.363 312.769C242.476 314.213 241.321 317.679 242.476 320.855V321.144C243.631 324.609 247.673 326.342 250.85 324.898L253.16 324.032C250.561 325.764 249.406 328.941 250.561 331.829C251.428 334.428 253.738 335.871 256.337 336.16C262.69 337.315 271.065 336.16 278.862 332.984L365.206 300.352C379.356 295.154 388.597 281.581 388.597 266.276C388.597 253.57 381.955 242.019 371.27 235.377L310.338 198.125C296.766 189.173 278.573 194.371 271.642 209.098C267.888 221.516 273.375 234.8 284.637 241.153L328.531 265.121Z" fill="#FFE5EF"/>
<path d="M332.863 267.142H338.35" stroke="#FFBED7" stroke-width="0.6709" stroke-miterlimit="10" stroke-linecap="round" stroke-linejoin="round"/>
<path d="M249.984 296.309L264.134 291.111C264.134 291.111 258.647 292.844 257.492 289.378L258.936 293.133" stroke="#FFBED7" stroke-width="0.6709" stroke-miterlimit="10" stroke-linecap="round" stroke-linejoin="round"/>
<path d="M255.759 322.876L258.069 322.01" stroke="#FFBED7" stroke-width="0.6709" stroke-miterlimit="10" stroke-linecap="round" stroke-linejoin="round"/>
<path d="M247.962 311.614L250.561 310.748" stroke="#FFBED7" stroke-width="0.6709" stroke-miterlimit="10" stroke-linecap="round" stroke-linejoin="round"/>
<path d="M334.884 212.853L307.739 253.57L317.558 259.057L342.393 217.473L334.884 212.853Z" fill="#FFD0DD"/>
<path d="M288.391 194.082C280.594 196.392 274.241 201.59 270.776 209.098V209.387C266.733 222.093 272.508 236.243 284.348 242.596L314.381 259.345L340.66 215.162L311.204 197.836C304.274 193.215 296.188 192.06 288.391 194.082Z" fill="#82E155"/>
</g>
</g>
<defs>
<filter id="filter0_d" x="20" y="28" width="384.597" height="340" filterUnits="userSpaceOnUse" color-interpolation-filters="sRGB">
<feFlood flood-opacity="0" result="BackgroundImageFix"/>
<feColorMatrix in="SourceAlpha" type="matrix" values="0 0 0 0 0 0 0 0 0 0 0 0 0 0 0 0 0 0 127 0"/>
<feOffset dy="4"/>
<feGaussianBlur stdDeviation="8"/>
<feColorMatrix type="matrix" values="0 0 0 0 0 0 0 0 0 0 0 0 0 0 0 0 0 0 0.08 0"/>
<feBlend mode="normal" in2="BackgroundImageFix" result="effect1_dropShadow"/>
<feBlend mode="normal" in="SourceGraphic" in2="effect1_dropShadow" result="shape"/>
</filter>
</defs>
</svg>
