<svg width="382" height="348" viewBox="0 0 382 348" fill="none" xmlns="http://www.w3.org/2000/svg">
<mask id="mask0" mask-type="alpha" maskUnits="userSpaceOnUse" x="0" y="0" width="382" height="348">
<path d="M382 324C382 337.255 371.255 348 358 348L24 348C10.7452 348 2.95782e-05 337.255 2.84194e-05 324L2.19259e-06 24C1.03382e-06 10.7452 10.7452 1.93855e-06 24 7.79773e-07L358 -2.84194e-05C371.255 -2.95782e-05 382 10.7451 382 24L382 324Z" fill="#F04682"/>
</mask>
<g mask="url(#mask0)">
<path d="M317.276 143.696H284.332L281.362 184.232C280.005 195.856 289.092 197.607 300.794 197.607C312.497 197.607 321.583 195.856 320.226 184.232L317.276 143.696Z" fill="#FFDAE4"/>
<path d="M309.744 163.324C303.509 168.26 295.111 184.88 293.262 197.212C286.437 196.386 281.618 193.888 281.245 187.24C281.264 185.981 281.284 184.959 281.343 184.428C281.343 184.349 281.363 184.29 281.363 184.211L282.818 164.287L309.744 163.324Z" fill="#FFCDDC"/>
<path d="M254.908 120.585C254.908 99.0681 272.865 81.7406 294.618 82.783C313.913 83.7074 329.706 99.5992 330.552 118.913C330.945 127.784 328.251 135.985 323.491 142.613C319.262 148.474 315.486 154.631 311.611 160.708C305.416 170.463 293.891 176.482 281.126 174.653C268.794 172.883 258.586 163.501 255.754 151.366C254.928 147.865 254.751 144.462 255.066 141.217C255.675 135.08 255.341 128.905 254.987 122.749C254.928 122.04 254.908 121.313 254.908 120.585Z" fill="#FFE4EE"/>
<path d="M291.531 134.805C293.682 134.805 295.426 132.348 295.426 129.318C295.426 126.287 293.682 123.83 291.531 123.83C289.38 123.83 287.637 126.287 287.637 129.318C287.637 132.348 289.38 134.805 291.531 134.805Z" fill="white"/>
<path d="M290.273 133.39C291.739 133.39 292.928 131.611 292.928 129.417C292.928 127.223 291.739 125.444 290.273 125.444C288.806 125.444 287.617 127.223 287.617 129.417C287.617 131.611 288.806 133.39 290.273 133.39Z" fill="#2D2D37"/>
<path d="M269.993 134.805C272.144 134.805 273.888 132.348 273.888 129.318C273.888 126.287 272.144 123.83 269.993 123.83C267.843 123.83 266.099 126.287 266.099 129.318C266.099 132.348 267.843 134.805 269.993 134.805Z" fill="white"/>
<path d="M268.754 133.39C270.221 133.39 271.41 131.611 271.41 129.417C271.41 127.223 270.221 125.444 268.754 125.444C267.288 125.444 266.099 127.223 266.099 129.417C266.099 131.611 267.288 133.39 268.754 133.39Z" fill="#2D2D37"/>
<path d="M356.141 114.292C356.141 111.44 354.98 108.883 353.112 107.015C354.213 105.382 354.843 103.415 354.843 101.311C354.843 98.6951 353.859 96.3153 352.246 94.5058C352.64 93.4241 352.856 92.2637 352.856 91.0443C352.856 86.0486 349.276 81.8789 344.536 80.9742C344.556 80.6792 344.576 80.3644 344.576 80.0498C344.576 75.6441 341.803 71.9072 337.908 70.4517C337.082 66.3411 333.817 63.1352 329.667 62.3878C328.251 58.4149 324.455 55.5629 320.01 55.5629C317.473 55.5629 315.152 56.4874 313.362 58.0019C311.75 54.4223 308.17 51.944 304.001 51.944C301.326 51.944 298.887 52.9865 297.058 54.6583C295.17 52.4161 292.357 51 289.21 51C285.453 51 282.189 53.0258 280.399 56.0351C278.53 54.1666 275.954 53.0061 273.122 53.0061C269.876 53.0061 267.005 54.5009 265.117 56.8414C262.579 56.4677 259.885 57.0381 257.643 58.6706C255.951 59.89 254.751 61.5225 254.063 63.3123C248.792 63.745 244.662 68.1506 244.662 73.5397C244.662 73.815 244.681 74.0706 244.701 74.346C243.993 74.641 243.305 75.0148 242.656 75.4868C238.506 78.4764 237.267 83.9834 239.489 88.4087C237.876 91.0442 237.542 94.3092 238.604 97.2398C237.011 99.0492 236.028 101.429 236.028 104.025C236.028 106.484 236.893 108.765 238.348 110.535C238.112 111.381 237.994 112.266 237.994 113.191C237.994 114.744 238.348 116.2 238.958 117.518C238.348 118.835 237.994 120.291 237.994 121.845C237.994 124.146 238.761 126.25 240.02 127.961C240.001 128.276 239.981 128.571 239.981 128.886C239.981 132.072 241.436 134.904 243.698 136.792C244.583 139.349 246.471 141.454 248.89 142.634C249.756 145.014 251.447 146.98 253.65 148.18C254.162 149.242 254.87 150.206 255.696 151.032C254.948 147.669 254.771 144.384 255.086 141.237C255.696 135.101 255.361 128.925 255.007 122.769C254.968 122.12 254.948 113.958 260.809 112.404C262.108 112.069 263.327 111.46 264.291 110.594C265.274 111.204 266.454 111.558 267.693 111.558C269.581 111.558 271.292 110.752 272.492 109.454C274.007 110.358 275.777 110.87 277.685 110.87C279.828 110.87 281.815 110.221 283.447 109.1C284.686 109.631 286.063 109.945 287.499 109.945C288.443 109.945 289.348 109.808 290.213 109.572C291.924 110.85 294.029 111.617 296.33 111.617C297.451 111.617 298.533 111.44 299.536 111.106C299.536 111.283 299.516 111.44 299.516 111.617C299.516 116.101 302.388 119.897 306.38 121.294C306.026 122.336 305.83 123.438 305.83 124.598C305.83 124.854 305.849 125.129 305.869 125.385C306.125 128.807 308.288 131.797 311.297 133.449L311.592 133.606C314.72 135.298 316.785 138.464 317.06 142.024L319.145 168.773C320.64 167.966 321.938 166.806 322.862 165.39C327.897 164.741 331.811 160.433 331.811 155.221C331.811 155.182 331.811 155.143 331.811 155.103C336.06 154.494 339.462 151.288 340.347 147.157C344.104 145.623 346.739 141.945 346.739 137.658C346.739 137.618 346.739 137.579 346.739 137.54C351.696 136.812 355.511 132.564 355.511 127.391C355.511 125.09 354.744 122.985 353.466 121.274C355.118 119.386 356.141 116.967 356.141 114.292Z" fill="#2D2D37"/>
<path d="M310.688 130.794C310.688 126.841 313.658 123.635 317.277 123.831C320.483 124.008 323.098 126.939 323.236 130.479C323.295 132.112 322.862 133.626 322.056 134.845C321.348 135.927 320.738 137.048 320.089 138.169C319.066 139.959 317.159 141.08 315.034 140.746C312.989 140.431 311.298 138.7 310.826 136.458C310.688 135.809 310.648 135.18 310.707 134.59C310.806 133.469 310.747 132.328 310.688 131.187C310.688 131.069 310.688 130.932 310.688 130.794Z" fill="#FFE4EE"/>
<path d="M277.645 159.174C279.633 159.174 281.244 156.163 281.244 152.448C281.244 148.733 279.633 145.721 277.645 145.721C275.657 145.721 274.046 148.733 274.046 152.448C274.046 156.163 275.657 159.174 277.645 159.174Z" fill="#FF7BA4"/>
<path d="M318.3 130.637L317.316 131.62C316.333 132.604 316.333 134.216 317.316 135.219" stroke="#FFBED2" stroke-width="1.85864" stroke-miterlimit="10" stroke-linecap="round" stroke-linejoin="round"/>
<path d="M279.533 138.484C277.094 138.543 275.068 136.615 275.009 134.177C274.95 131.738 278.372 130.223 279.316 129.653V124.323" stroke="#FFBED2" stroke-width="1.85864" stroke-miterlimit="10" stroke-linecap="round" stroke-linejoin="round"/>
<path d="M98.036 187.4L98.1344 200.971C98.154 204.609 101.124 207.54 104.763 207.501C104.822 207.501 104.861 207.501 104.92 207.501L110.604 214.031L104.409 231.889C110.014 235.036 118.412 236.885 126.732 236.826H232.055V192.533H159.401C150.196 192.592 141.168 189.917 133.478 184.823C125.925 179.808 116.937 177.389 107.87 177.448C102.402 177.487 97.9967 181.952 98.036 187.4Z" fill="#FFE4EE"/>
<path d="M109.305 206.046L67.6284 206.341C63.9898 206.361 61.0199 203.45 61.0002 199.811C60.9806 196.172 63.8915 193.202 67.5301 193.183L109.207 192.888C112.845 192.868 115.815 195.779 115.835 199.418C115.874 203.056 112.944 206.026 109.305 206.046Z" fill="#FFE4EE"/>
<path d="M114.517 232.342L97.721 232.46C94.0627 232.479 91.0731 229.549 91.0534 225.891V225.812C91.0338 222.154 93.9644 219.164 97.6227 219.144L114.419 219.026C118.077 219.007 121.067 221.937 121.087 225.596V225.674C121.126 229.333 118.176 232.322 114.517 232.342Z" fill="#FFE4EE"/>
<path d="M109.876 219.203L93.0004 219.321C89.3618 219.34 86.3918 216.43 86.3722 212.791C86.3525 209.152 89.2634 206.182 92.902 206.163L109.777 206.045C113.416 206.025 116.386 208.936 116.405 212.574C116.445 216.213 113.514 219.183 109.876 219.203Z" fill="#FFE4EE"/>
<path d="M112.315 206.517C114.695 207.5 116.386 209.821 116.406 212.574C116.426 216.213 113.515 219.183 109.876 219.203L100.947 219.262L114.479 219.163C118.117 219.143 121.087 222.054 121.107 225.693C121.126 228.27 119.671 230.512 117.527 231.593" stroke="#FFBED2" stroke-width="1.85864" stroke-miterlimit="10" stroke-linecap="round" stroke-linejoin="round"/>
<path d="M129.131 205.514C114.498 205.612 111.253 192.867 111.253 192.867L111.312 200.872C111.331 204.511 108.42 207.48 104.782 207.5C101.143 207.52 98.1735 204.609 98.1539 200.97L98.1145 196.132" stroke="#FFBED2" stroke-width="1.85864" stroke-miterlimit="10" stroke-linecap="round" stroke-linejoin="round"/>
<path d="M280.359 238.065H233.451C232.664 238.065 232.034 237.436 232.034 236.649V192.396C232.034 191.609 232.664 190.979 233.451 190.979H280.359C293.36 190.979 303.902 201.522 303.902 214.522C303.902 227.523 293.36 238.065 280.359 238.065Z" fill="#FF6991"/>
<path d="M240.729 238.065H261.518L274.145 196.093C274.164 196.093 251.448 207.166 240.729 238.065Z" fill="#F04682"/>
<path d="M228.966 192.532V236.805H232.054V192.532H228.966Z" fill="#FFCDDC"/>
<path d="M344.006 195.248L323.413 185.237C312.694 180.025 300.264 179.573 289.191 183.998C271.725 191 259.098 206.518 255.833 225.045L235.398 340.497C234.69 344.49 237.758 348.148 241.81 348.148H355.885C359.799 348.148 362.828 344.706 362.336 340.832L344.006 195.248Z" fill="#FF6991"/>
<path d="M351.716 256.512L301.995 225.181C301.995 225.181 308.072 259.364 354.076 275.276L351.716 256.512Z" fill="#F04682"/>
<path d="M360.252 263.436C361.274 264.006 361.176 265.521 360.074 265.934L334.408 275.551C326.167 278.265 317.336 278.639 308.859 276.633C299.87 274.489 290.43 275.335 281.776 278.62C276.642 280.567 274.105 286.349 276.033 291.482L277.409 295.16C277.409 295.16 273.672 296.989 270.899 298.956C268.126 300.923 265.943 304.424 267.241 307.866C268.48 311.15 272.001 312.862 275.305 311.918C272.492 313.53 271.155 316.992 272.335 320.119L272.394 320.277C273.712 323.777 277.606 325.548 281.087 324.23L283.428 323.345C280.851 325.017 279.691 328.281 280.812 331.271C281.776 333.847 284.175 335.48 286.772 335.598C293.203 336.64 301.857 335.46 309.744 332.49L398.034 299.251C412.49 293.803 422.068 279.977 422.068 264.537C422.068 251.615 415.342 239.637 404.328 232.891L342.137 194.853C328.252 185.845 309.586 191.155 302.545 206.143C298.69 218.809 304.217 232.439 315.802 238.851L360.252 263.436Z" fill="#FFE4EE"/>
<path d="M364.559 265.264L370.125 265.5" stroke="#FFBED2" stroke-width="1.85864" stroke-miterlimit="10" stroke-linecap="round" stroke-linejoin="round"/>
<path d="M279.827 295.181L294.342 289.733C294.342 289.733 288.756 291.405 287.458 287.963L288.894 291.778" stroke="#FFBED2" stroke-width="1.85864" stroke-miterlimit="10" stroke-linecap="round" stroke-linejoin="round"/>
<path d="M285.787 322.343L288.265 321.419" stroke="#FFBED2" stroke-width="1.85864" stroke-miterlimit="10" stroke-linecap="round" stroke-linejoin="round"/>
<path d="M277.899 310.916L280.378 309.992" stroke="#FFBED2" stroke-width="1.85864" stroke-miterlimit="10" stroke-linecap="round" stroke-linejoin="round"/>
<path d="M366.683 209.86L338.853 251.596L348.942 257.182L374.314 214.521L366.683 209.86Z" fill="#FFCDDC"/>
<path d="M319.067 190.782C311.16 193.044 304.611 198.59 301.129 206.044L301.07 206.202C297.078 219.301 302.88 233.619 314.858 240.228L344.36 256.532C345.029 256.906 345.855 256.67 346.248 256.021L371.738 213.223C372.131 212.555 371.915 211.689 371.246 211.296L342.354 194.283C335.47 189.798 326.973 188.54 319.067 190.782Z" fill="#FF6991"/>
</g>
</svg>
