<svg width="382" height="348" viewBox="0 0 382 348" fill="none" xmlns="http://www.w3.org/2000/svg">
<mask id="mask0" mask-type="alpha" maskUnits="userSpaceOnUse" x="0" y="0" width="382" height="348">
<path d="M382 348L3.05176e-05 348L2.19259e-06 24C1.03382e-06 10.7452 10.7452 2.02057e-06 24 8.61793e-07L358 -2.83374e-05C371.255 -2.94962e-05 382 10.7451 382 24L382 348Z" fill="#646EDC"/>
</mask>
<g mask="url(#mask0)">
<g filter="url(#filter0_d)">
<path d="M264.857 44.0571C268.083 38.6476 275.917 38.6476 279.143 44.0571V44.0571C281.803 48.5177 287.856 49.4762 291.764 46.0561V46.0561C296.504 41.9082 303.955 44.3292 305.352 50.4709V50.4709C306.503 55.5351 311.963 58.3171 316.737 56.272V56.272C322.526 53.7918 328.865 58.3969 328.295 64.6695V64.6695C327.825 69.8418 332.158 74.1747 337.33 73.7049V73.7049C343.603 73.1352 348.208 79.4736 345.728 85.2632V85.2632C343.683 90.0371 346.465 95.4969 351.529 96.6484V96.6484C357.671 98.045 360.092 105.496 355.944 110.236V110.236C352.524 114.144 353.482 120.197 357.943 122.857V122.857C363.352 126.083 363.352 133.917 357.943 137.143V137.143C353.482 139.803 352.524 145.856 355.944 149.764V149.764C360.092 154.504 357.671 161.955 351.529 163.352V163.352C346.465 164.503 343.683 169.963 345.728 174.737V174.737C348.208 180.526 343.603 186.865 337.33 186.295V186.295C332.158 185.825 327.825 190.158 328.295 195.33V195.33C328.865 201.603 322.526 206.208 316.737 203.728V203.728C311.963 201.683 306.503 204.465 305.352 209.529V209.529C303.955 215.671 296.504 218.092 291.764 213.944V213.944C287.856 210.524 281.803 211.482 279.143 215.943V215.943C275.917 221.352 268.083 221.352 264.857 215.943V215.943C262.197 211.482 256.144 210.524 252.236 213.944V213.944C247.496 218.092 240.045 215.671 238.648 209.529V209.529C237.497 204.465 232.037 201.683 227.263 203.728V203.728C221.474 206.208 215.135 201.603 215.705 195.33V195.33C216.175 190.158 211.842 185.825 206.67 186.295V186.295C200.397 186.865 195.792 180.526 198.272 174.737V174.737C200.317 169.963 197.535 164.503 192.471 163.352V163.352C186.329 161.955 183.908 154.504 188.056 149.764V149.764C191.476 145.856 190.518 139.803 186.057 137.143V137.143C180.648 133.917 180.648 126.083 186.057 122.857V122.857C190.518 120.197 191.476 114.144 188.056 110.236V110.236C183.908 105.496 186.329 98.045 192.471 96.6484V96.6484C197.535 95.4969 200.317 90.0371 198.272 85.2632V85.2632C195.792 79.4736 200.397 73.1352 206.67 73.7049V73.7049C211.842 74.1747 216.175 69.8418 215.705 64.6695V64.6695C215.135 58.3969 221.474 53.7918 227.263 56.272V56.272C232.037 58.3171 237.497 55.5351 238.648 50.4709V50.4709C240.045 44.3292 247.496 41.9082 252.236 46.0561V46.0561C256.144 49.4762 262.197 48.5177 264.857 44.0571V44.0571Z" fill="#BEFAFF"/>
<path d="M105.137 228.515L80.7735 229.983C77.2511 230.277 74.3158 227.635 74.0223 224.112C73.7287 220.59 76.3705 217.655 79.8929 217.361L110.127 215.6C115.41 215.307 120.694 215.894 125.684 217.068C128.913 217.948 131.848 214.719 130.38 211.491L126.858 202.685C125.684 199.456 127.445 195.64 130.674 194.466C133.903 193.292 137.719 195.053 138.893 198.282L157.092 241.431C157.679 242.311 157.972 243.192 158.266 244.073L163.256 255.52L177.639 292.212C177.932 293.092 179.4 292.799 179.4 291.918L180.281 253.759L220.495 256.694L219.027 304.247C218.44 323.913 202.883 339.764 183.51 340.938C167.365 341.819 152.395 333.013 145.35 318.336L121.868 264.033C120.4 260.51 116.878 258.456 113.062 258.749C110.127 259.043 107.191 257.575 105.43 255.227L101.321 249.943L108.659 244.366L105.137 228.515Z" fill="#FFE5EF"/>
<path d="M111.888 240.846L98.3853 241.726C94.863 242.02 91.9276 239.378 91.6341 235.856C91.3406 232.333 93.9823 229.398 97.5047 229.104L111.007 228.224C114.53 227.93 117.465 230.572 117.758 234.094C118.052 237.617 115.41 240.552 111.888 240.846Z" fill="#FFE5EF"/>
<path d="M115.997 253.467L102.495 254.347C98.9723 254.641 96.037 251.999 95.7435 248.477C95.4499 244.954 98.0917 242.019 101.614 241.725L115.117 240.845C118.639 240.551 121.574 243.193 121.868 246.715C122.161 250.238 119.52 253.173 115.997 253.467Z" fill="#FFE5EF"/>
<path d="M97.5048 228.809L111.007 227.928C114.53 227.635 117.465 230.276 117.758 233.799C118.052 237.321 115.41 240.256 111.888 240.55" stroke="#FFBED7" stroke-width="0.6298" stroke-miterlimit="10" stroke-linecap="round" stroke-linejoin="round"/>
<path d="M103.669 241.432L115.117 240.845C118.639 240.551 121.574 243.193 121.868 246.715C122.161 250.238 119.52 253.173 115.997 253.467" stroke="#FFBED7" stroke-width="0.6298" stroke-miterlimit="10" stroke-linecap="round" stroke-linejoin="round"/>
<path d="M131.848 224.406C131.848 224.406 128.619 245.54 137.425 249.649" stroke="#FFBED7" stroke-width="0.6298" stroke-miterlimit="10" stroke-linecap="round" stroke-linejoin="round"/>
<path d="M179.693 295.737L180.574 301.02" stroke="#FFBED7" stroke-width="0.6298" stroke-miterlimit="10" stroke-linecap="round" stroke-linejoin="round"/>
<path d="M180.868 253.465L221.082 256.4L220.201 279.002C210.514 272.838 195.544 267.554 180.574 264.913L180.868 253.465Z" fill="#FFD0DD"/>
<path d="M251.609 198.281L252.783 193.878C253.076 191.824 254.837 190.356 256.892 190.062L294.464 187.714C296.519 187.714 298.574 188.888 299.161 190.943L300.922 195.64C341.136 200.043 376.947 219.709 380.763 245.833C381.056 247.888 379.882 249.943 377.827 250.53L347.887 260.51C346.126 261.097 345.245 262.565 344.952 264.032L344.658 266.968C339.668 298.963 347.3 326.848 344.071 342.699C344.365 344.754 346.713 348.276 342.31 347.982H237.226C234.263 347.982 230.263 347.982 227.539 347.982C227.246 347.982 226.952 347.982 226.952 347.982C223.43 347.102 224.31 345.634 224.604 344.167C224.604 342.992 225.778 336.828 225.778 335.948C225.778 331.251 226.658 304.833 220.788 274.306C220.788 272.251 219.32 270.49 217.265 270.197L179.4 262.565C177.345 262.271 175.878 260.217 175.878 258.162C176.465 230.863 211.101 206.794 251.609 198.281Z" fill="#28D2DC"/>
<path d="M273.623 218.829C274.596 218.829 275.385 218.04 275.385 217.067C275.385 216.095 274.596 215.306 273.623 215.306C272.651 215.306 271.862 216.095 271.862 217.067C271.862 218.04 272.651 218.829 273.623 218.829Z" fill="#E5E5E5"/>
<path d="M273.623 223.819C274.596 223.819 275.385 223.031 275.385 222.058C275.385 221.085 274.596 220.297 273.623 220.297C272.651 220.297 271.862 221.085 271.862 222.058C271.862 223.031 272.651 223.819 273.623 223.819Z" fill="#E5E5E5"/>
<path opacity="0.5" d="M252.196 205.326L259.828 220.883" stroke="white" stroke-width="0.6298" stroke-miterlimit="10" stroke-linecap="round" stroke-linejoin="round"/>
<path opacity="0.5" d="M265.405 218.537L268.634 214.721C270.688 212.373 274.504 212.079 277.146 214.134L284.484 220.592C285.365 221.179 286.539 221.179 287.126 220.298L300.042 204.448" stroke="white" stroke-width="0.6298" stroke-miterlimit="10" stroke-linecap="round" stroke-linejoin="round"/>
<path d="M292.996 152.784H259.827L256.892 191.237C255.424 202.978 264.817 204.739 276.559 204.739C288.3 204.739 297.399 202.978 296.225 191.237L292.996 152.784Z" fill="#FFDBE5"/>
<path d="M285.365 172.45C279.201 177.44 270.688 191.823 268.633 204.151C261.882 203.271 256.892 200.922 256.599 194.171C256.599 192.997 256.599 191.823 256.599 191.236V190.942L258.066 173.331L285.365 172.45Z" fill="#FFD0DD"/>
<path d="M230.474 132.53C230.474 110.809 248.673 93.4904 270.395 94.371C289.768 95.2516 305.618 111.396 306.499 130.769C306.792 139.575 304.151 148.087 299.454 154.545C295.345 160.416 290.355 164.819 286.539 170.983C280.375 180.669 266.285 185.659 255.424 183.311C244.27 180.963 236.051 171.276 234.29 163.351C233.41 159.829 233.41 155.426 233.116 152.197C232.823 146.326 231.061 140.749 230.474 134.585C230.474 133.998 230.474 133.411 230.474 132.53Z" fill="#FFE5EF"/>
<path d="M294.171 168.928C294.171 168.928 316.773 157.48 312.37 130.475C307.967 103.764 294.171 96.4254 288.006 94.3707C281.842 92.316 251.609 81.7488 237.519 104.057C223.43 126.366 227.539 136.346 231.648 142.216C231.648 142.216 236.345 115.211 247.499 111.983C248.673 111.689 249.847 112.276 250.141 113.45C251.315 116.386 254.544 122.256 265.405 124.311C280.081 127.246 281.255 138.4 287.419 140.162C293.29 141.629 292.997 160.415 294.171 168.928Z" fill="#333333"/>
<path d="M290.648 146.326C290.648 142.217 293.583 138.988 297.399 139.281C300.628 139.575 303.27 142.51 303.27 146.033C303.27 147.794 302.976 149.262 302.096 150.436C301.509 151.61 300.628 152.784 300.041 153.665C298.867 155.426 297.106 156.6 295.051 156.306C292.996 156.013 291.235 154.252 290.942 151.903C290.942 151.316 290.648 150.729 290.942 150.142C290.942 148.968 290.942 147.794 290.942 146.62C290.648 146.62 290.648 146.62 290.648 146.326Z" fill="#FFE5EF"/>
<path d="M318.873 111.832C324.49 106.215 323.746 96.3646 317.213 89.8307C310.679 83.2968 300.828 82.5533 295.212 88.1702C289.595 93.7871 290.338 103.637 296.872 110.171C303.406 116.705 313.256 117.448 318.873 111.832Z" fill="#333333"/>
<path d="M246.032 146.62C248.301 146.62 250.141 143.991 250.141 140.749C250.141 137.507 248.301 134.879 246.032 134.879C243.762 134.879 241.922 137.507 241.922 140.749C241.922 143.991 243.762 146.62 246.032 146.62Z" fill="white"/>
<path d="M266.579 146.62C268.848 146.62 270.688 143.991 270.688 140.749C270.688 137.507 268.848 134.879 266.579 134.879C264.309 134.879 262.469 137.507 262.469 140.749C262.469 143.991 264.309 146.62 266.579 146.62Z" fill="white"/>
<path d="M244.27 144.271C245.729 144.271 246.912 142.694 246.912 140.749C246.912 138.803 245.729 137.226 244.27 137.226C242.811 137.226 241.628 138.803 241.628 140.749C241.628 142.694 242.811 144.271 244.27 144.271Z" fill="#333333"/>
<path d="M264.817 144.271C266.114 144.271 267.166 142.694 267.166 140.749C267.166 138.803 266.114 137.226 264.817 137.226C263.521 137.226 262.469 138.803 262.469 140.749C262.469 142.694 263.521 144.271 264.817 144.271Z" fill="#333333"/>
<path d="M264.23 157.187C261.002 158.655 251.021 158.655 248.086 157.187C247.499 156.894 247.206 157.775 247.499 158.655C248.673 162.177 252.196 164.819 256.305 164.819C260.414 164.819 263.937 162.177 265.111 158.655C265.111 157.775 264.817 156.894 264.23 157.187Z" fill="#FF97BF"/>
<path d="M298.28 146.326L297.399 147.207C296.519 148.087 296.519 149.848 297.399 150.729" stroke="#FFBED7" stroke-width="0.6298" stroke-miterlimit="10" stroke-linecap="round" stroke-linejoin="round"/>
<path d="M256.012 150.729C253.663 150.729 251.609 148.968 251.609 146.326C251.609 144.858 252.783 143.684 253.957 143.097C255.131 142.217 256.012 140.749 256.012 139.281V136.052" stroke="#FFBED7" stroke-width="0.6298" stroke-miterlimit="10" stroke-linecap="round" stroke-linejoin="round"/>
<path d="M256.012 150.729C253.663 150.729 251.609 148.968 251.609 146.326C251.609 144.858 252.783 143.684 253.957 143.097C255.131 142.217 256.012 140.749 256.012 139.281V136.052" stroke="#FFBED7" stroke-width="0.6298" stroke-miterlimit="10" stroke-linecap="round" stroke-linejoin="round"/>
<path d="M343.191 276.067L344.071 284.286C344.365 285.46 342.897 286.047 342.31 285.167L319.708 252.878L312.076 243.192C311.489 242.311 310.902 241.724 310.315 241.137L282.723 203.565C280.668 200.63 276.852 199.749 273.917 201.804C270.982 203.858 270.101 207.674 272.156 210.61L277.733 218.241C279.788 220.883 277.733 224.699 274.504 224.699C269.221 224.699 264.231 225.286 258.947 226.754L238.987 232.624C235.464 233.505 233.703 237.321 234.584 240.55C235.464 244.072 239.28 245.833 242.509 244.953L261.295 239.376C261.882 239.082 262.469 239.669 262.763 240.256C263.056 240.843 262.469 241.43 261.882 241.724L240.455 248.182C236.932 249.062 235.171 252.878 236.052 256.107C236.932 259.629 240.748 261.391 243.977 260.51L265.405 254.052C265.992 253.759 266.579 254.346 266.872 254.933C267.166 255.52 266.579 256.107 265.992 256.401L250.728 261.097C247.206 261.978 245.445 265.794 246.325 269.022C247.206 272.545 251.022 274.306 254.251 273.425L271.569 267.261L278.027 265.206L317.36 317.749C327.34 330.37 344.071 335.654 359.628 330.957C378.414 325.38 389.569 306.301 385.753 287.221L378.121 250.53L347.887 260.51C347.887 260.51 345.245 261.097 344.952 264.326C344.365 267.848 343.191 276.067 343.191 276.067Z" fill="#FFE5EF"/>
<path d="M345.539 287.221L348.768 291.624" stroke="#FFBED7" stroke-width="0.6298" stroke-miterlimit="10" stroke-linecap="round" stroke-linejoin="round"/>
<path d="M377.827 250.53L347.887 260.51C347.887 260.51 345.245 261.097 344.952 264.326C344.952 264.913 344.658 266.087 344.658 266.968L379.295 254.933L377.827 250.53Z" fill="#FFD0DD"/>
</g>
</g>
<defs>
<filter id="filter0_d" x="58" y="28" width="344.498" height="340" filterUnits="userSpaceOnUse" color-interpolation-filters="sRGB">
<feFlood flood-opacity="0" result="BackgroundImageFix"/>
<feColorMatrix in="SourceAlpha" type="matrix" values="0 0 0 0 0 0 0 0 0 0 0 0 0 0 0 0 0 0 127 0"/>
<feOffset dy="4"/>
<feGaussianBlur stdDeviation="8"/>
<feColorMatrix type="matrix" values="0 0 0 0 0 0 0 0 0 0 0 0 0 0 0 0 0 0 0.08 0"/>
<feBlend mode="normal" in2="BackgroundImageFix" result="effect1_dropShadow"/>
<feBlend mode="normal" in="SourceGraphic" in2="effect1_dropShadow" result="shape"/>
</filter>
</defs>
</svg>
