<svg width="382" height="349" viewBox="0 0 382 349" fill="none" xmlns="http://www.w3.org/2000/svg">
<mask id="mask0" mask-type="alpha" maskUnits="userSpaceOnUse" x="0" y="0" width="382" height="348">
<path d="M382 324C382 337.255 371.255 348 358 348L24 348C10.7452 348 2.95782e-05 337.255 2.84194e-05 324L2.19259e-06 24C1.03382e-06 10.7452 10.7452 1.93855e-06 24 7.79773e-07L358 -2.84194e-05C371.255 -2.95782e-05 382 10.7451 382 24L382 324Z" fill="#FFB428"/>
</mask>
<g mask="url(#mask0)">
<path d="M317.949 222.274C315.198 212.326 304.752 206.625 294.903 209.715L270.123 217.49L290.358 290.256C294.644 305.666 297.814 330.207 298.033 348.13H341.952C341.633 331.244 338.782 299.426 336.011 287.624L317.949 222.274Z" fill="#FFE4EE"/>
<path d="M288.186 143.427L254.574 144.245L252.56 186.768C251.464 198.67 260.794 200.225 272.735 199.945C284.677 199.646 293.907 197.633 292.233 185.791L288.186 143.427Z" fill="#FFDAE4"/>
<path d="M280.988 163.683C274.748 168.886 266.595 187.127 265.02 199.767C258.042 199.089 253.058 196.677 252.52 189.898C252.5 188.622 252.52 187.586 252.54 187.028C252.54 186.948 252.54 186.888 252.56 186.808L253.557 165.377L280.988 163.683Z" fill="#FFCDDC"/>
<path d="M223.952 121.419C223.414 99.4492 241.316 81.3275 263.545 81.8458C283.262 82.3043 299.768 98.1334 301.124 117.81C301.742 126.841 299.21 135.294 294.505 142.172C290.339 148.252 286.631 154.632 282.843 160.951C276.762 171.059 265.14 177.498 252.082 175.963C239.442 174.468 228.797 165.138 225.607 152.838C224.69 149.289 224.411 145.82 224.65 142.491C225.128 136.211 224.63 129.931 224.092 123.651C224.012 122.914 223.972 122.176 223.952 121.419Z" fill="#FFE4EE"/>
<path d="M285.794 118.748L303.756 120.681C301.982 136.53 288.904 150.804 288.904 150.804L286.392 143.867C283.182 134.896 286.013 127.4 285.794 118.748Z" fill="#787885"/>
<path d="M248.614 104.035C248.614 104.035 256.688 101.284 261.971 105.131C265.798 107.942 255.073 97.416 255.073 97.416L235.815 97.8945L234.978 104.513C234.978 104.493 242.812 99.4095 248.614 104.035Z" fill="#787885"/>
<path d="M282.384 124.748C268.05 124.27 264.601 110.853 261.95 105.131C259.657 100.127 251.922 99.4295 248.693 103.895L248.593 104.035C248.573 104.015 248.553 103.975 248.533 103.955C245.603 99.5291 239.163 99.4294 236.293 103.875C234.339 106.905 232.565 110.613 231.01 114.521C229.435 118.468 228.218 120.841 224.969 121.299C224.411 121.379 224.012 121.857 224.052 122.435C224.211 124.11 224.49 127.16 224.351 127.16C212.529 126.024 216.715 75.3668 244.725 72.2967C255.232 71.1604 258.481 73.5527 259.478 75.008C259.757 75.4267 260.315 75.5064 260.694 75.1675C261.751 74.2504 263.964 72.8748 267.811 72.7752C276.264 72.6755 289.083 79.2344 294.924 84.7167C305.031 94.4255 307.643 116.235 304.653 120.402C301.343 125.047 295.562 125.187 282.384 124.748Z" fill="#2D2D37"/>
<path d="M283.821 133.939C283.721 129.892 286.672 126.563 290.36 126.662C293.629 126.762 296.38 129.673 296.6 133.301C296.699 134.956 296.281 136.511 295.523 137.787C294.845 138.903 294.227 140.079 293.589 141.235C292.593 143.09 290.659 144.266 288.486 143.987C286.393 143.708 284.618 141.993 284.08 139.72C283.921 139.062 283.881 138.425 283.92 137.826C284 136.67 283.901 135.514 283.821 134.358C283.841 134.218 283.821 134.078 283.821 133.939Z" fill="#FFE4EE"/>
<path d="M238.885 136.091C241.219 136.091 243.111 133.458 243.111 130.21C243.111 126.962 241.219 124.329 238.885 124.329C236.55 124.329 234.658 126.962 234.658 130.21C234.658 133.458 236.55 136.091 238.885 136.091Z" fill="white"/>
<path d="M259.856 136.091C262.19 136.091 264.083 133.458 264.083 130.21C264.083 126.962 262.19 124.329 259.856 124.329C257.522 124.329 255.63 126.962 255.63 130.21C255.63 133.458 257.522 136.091 259.856 136.091Z" fill="white"/>
<path d="M237.27 133.838C238.712 133.838 239.881 132.214 239.881 130.21C239.881 128.206 238.712 126.582 237.27 126.582C235.827 126.582 234.658 128.206 234.658 130.21C234.658 132.214 235.827 133.838 237.27 133.838Z" fill="#2D2D37"/>
<path d="M258.142 133.72C259.529 133.72 260.654 132.149 260.654 130.211C260.654 128.273 259.529 126.702 258.142 126.702C256.755 126.702 255.63 128.273 255.63 130.211C255.63 132.149 256.755 133.72 258.142 133.72Z" fill="#2D2D37"/>
<path d="M242.712 144.405C243.21 150.346 246.201 154.951 249.37 154.692C252.56 154.432 254.733 149.389 254.235 143.448L242.712 144.405Z" fill="#FF7BA4"/>
<path d="M248.953 128.875C247.996 129.453 244.527 130.988 244.587 133.46C244.647 135.932 246.7 137.886 249.172 137.826" stroke="#FFBED2" stroke-width="1.88394" stroke-miterlimit="10" stroke-linecap="round" stroke-linejoin="round"/>
<path d="M290.06 138.225C289.083 137.248 289.083 135.673 290.06 134.697L291.136 133.62" stroke="#FFBED2" stroke-width="1.88394" stroke-miterlimit="10" stroke-linecap="round" stroke-linejoin="round"/>
<path d="M293.986 187.247C283.4 182.103 271.12 181.645 260.195 186.031C242.95 192.928 230.49 208.259 227.261 226.56L207.086 340.574C206.388 344.501 209.418 348.129 213.405 348.129H326.043C329.911 348.129 332.901 344.74 332.423 340.893L317.132 219.563C315.377 205.588 306.685 193.427 293.986 187.247Z" fill="#FFD25F"/>
<path d="M273.372 239.46L234.497 301.141C234.497 301.141 278.795 296.895 278.795 236.688L273.372 239.46Z" fill="#FFB428"/>
<path d="M265.957 198.192C253.457 194.384 239.98 199.846 233.66 211.29L209.02 255.866C208.262 257.022 207.026 256.843 206.647 255.747L194.965 223.351C193.39 218.985 194.467 214.021 197.935 210.931C204.375 205.189 207.026 195.899 203.936 187.307C202.919 184.476 201.344 181.924 199.271 179.731C197.377 177.718 194.566 177.099 192.114 177.897C191.337 175.425 189.203 173.511 186.472 173.132C182.983 172.654 179.395 173.013 176.086 174.209C170.464 176.242 166.197 180.349 163.805 185.373L157.645 168.248C156.429 164.859 152.761 162.865 149.352 163.982C145.823 165.138 143.969 168.966 145.205 172.435L153 194.085C153.12 194.404 152.94 194.763 152.621 194.862C152.302 194.982 151.943 194.803 151.844 194.484V194.464L145.823 177.737C144.607 174.348 140.939 172.355 137.53 173.471C134.001 174.627 132.147 178.455 133.383 181.924L139.503 198.929L146.142 217.39L176.903 302.755C183.542 321.156 205.75 329.45 223.334 318.126C227.6 315.375 231.149 311.607 233.9 307.341L277.101 237.286C286.012 223.57 280.749 205.149 265.957 198.192ZM176.006 197.374C174.531 193.268 176.664 188.722 180.771 187.247C181.987 186.808 183.263 186.669 184.538 186.848C185.615 187.008 186.672 186.888 187.629 186.589C187.928 187.566 188.466 188.483 189.203 189.26C189.961 190.058 190.519 190.975 190.898 192.012C192.373 196.118 190.24 200.664 186.133 202.139C182.027 203.614 177.501 201.481 176.006 197.374Z" fill="#FFE4EE"/>
<path d="M191.377 179.472C191.497 181.506 190.46 183.499 188.706 184.536" stroke="#FFBED2" stroke-width="1.88394" stroke-miterlimit="10" stroke-linecap="round" stroke-linejoin="round"/>
<path d="M207.564 259.435L207.345 264.937" stroke="#FFBED2" stroke-width="1.88394" stroke-miterlimit="10" stroke-linecap="round" stroke-linejoin="round"/>
<path d="M214.841 245.361L257.105 269.742L267.551 252.797L224.47 227.937L214.841 245.361Z" fill="#FFCDDC"/>
<path d="M281.506 214.899C279.273 207.084 273.791 200.625 266.435 197.176L266.295 197.116C253.357 193.189 239.222 198.91 232.703 210.732L216.575 239.918C216.236 240.556 216.436 241.334 217.054 241.712L259.417 266.951C260.055 267.33 260.873 267.111 261.251 266.473L278.077 237.885C282.463 231.087 283.719 222.714 281.506 214.899Z" fill="#FFD25F"/>
</g>
</svg>
