<svg width="382" height="348" viewBox="0 0 382 348" fill="none" xmlns="http://www.w3.org/2000/svg">
<mask id="mask0" mask-type="alpha" maskUnits="userSpaceOnUse" x="0" y="0" width="382" height="348">
<path d="M382 348L3.05176e-05 348L2.19259e-06 24C1.03382e-06 10.7452 10.7452 2.02057e-06 24 8.61793e-07L358 -2.83374e-05C371.255 -2.94962e-05 382 10.7451 382 24L382 348Z" fill="#646EDC"/>
</mask>
<g mask="url(#mask0)">
<g filter="url(#filter0_d)">
<path d="M264.857 44.0571C268.083 38.6476 275.917 38.6476 279.143 44.0571V44.0571C281.803 48.5177 287.856 49.4762 291.764 46.0561V46.0561C296.504 41.9082 303.955 44.3292 305.352 50.4709V50.4709C306.503 55.5351 311.963 58.3171 316.737 56.272V56.272C322.526 53.7918 328.865 58.3969 328.295 64.6695V64.6695C327.825 69.8418 332.158 74.1747 337.33 73.7049V73.7049C343.603 73.1352 348.208 79.4736 345.728 85.2632V85.2632C343.683 90.0371 346.465 95.4969 351.529 96.6484V96.6484C357.671 98.045 360.092 105.496 355.944 110.236V110.236C352.524 114.144 353.482 120.197 357.943 122.857V122.857C363.352 126.083 363.352 133.917 357.943 137.143V137.143C353.482 139.803 352.524 145.856 355.944 149.764V149.764C360.092 154.504 357.671 161.955 351.529 163.352V163.352C346.465 164.503 343.683 169.963 345.728 174.737V174.737C348.208 180.526 343.603 186.865 337.33 186.295V186.295C332.158 185.825 327.825 190.158 328.295 195.33V195.33C328.865 201.603 322.526 206.208 316.737 203.728V203.728C311.963 201.683 306.503 204.465 305.352 209.529V209.529C303.955 215.671 296.504 218.092 291.764 213.944V213.944C287.856 210.524 281.803 211.482 279.143 215.943V215.943C275.917 221.352 268.083 221.352 264.857 215.943V215.943C262.197 211.482 256.144 210.524 252.236 213.944V213.944C247.496 218.092 240.045 215.671 238.648 209.529V209.529C237.497 204.465 232.037 201.683 227.263 203.728V203.728C221.474 206.208 215.135 201.603 215.705 195.33V195.33C216.175 190.158 211.842 185.825 206.67 186.295V186.295C200.397 186.865 195.792 180.526 198.272 174.737V174.737C200.317 169.963 197.535 164.503 192.471 163.352V163.352C186.329 161.955 183.908 154.504 188.056 149.764V149.764C191.476 145.856 190.518 139.803 186.057 137.143V137.143C180.648 133.917 180.648 126.083 186.057 122.857V122.857C190.518 120.197 191.476 114.144 188.056 110.236V110.236C183.908 105.496 186.329 98.045 192.471 96.6484V96.6484C197.535 95.4969 200.317 90.0371 198.272 85.2632V85.2632C195.792 79.4736 200.397 73.1352 206.67 73.7049V73.7049C211.842 74.1747 216.175 69.8418 215.705 64.6695V64.6695C215.135 58.3969 221.474 53.7918 227.263 56.272V56.272C232.037 58.3171 237.497 55.5351 238.648 50.4709V50.4709C240.045 44.3292 247.496 41.9082 252.236 46.0561V46.0561C256.144 49.4762 262.197 48.5177 264.857 44.0571V44.0571Z" fill="#CDFFB9"/>
<path d="M110.232 228.446L85.7943 229.918C82.2612 230.212 79.3168 227.563 79.0223 224.029C78.7279 220.496 81.3778 217.552 84.9109 217.258L115.237 215.491C120.537 215.197 125.836 215.785 130.841 216.963C134.08 217.846 137.024 214.608 135.552 211.369L132.019 202.536C130.841 199.298 132.608 195.47 135.847 194.292C139.086 193.115 142.913 194.881 144.091 198.12L162.345 241.401C162.934 242.284 163.228 243.167 163.523 244.05L168.528 255.239L182.955 292.042C183.25 292.925 184.722 292.631 184.722 291.748L185.605 253.472L225.941 256.416L224.469 304.113C223.88 323.84 208.276 339.739 188.844 340.622C172.65 341.506 157.634 332.673 150.568 317.952L127.014 263.483C125.542 259.949 122.009 257.888 118.181 258.183C115.237 258.477 112.292 257.005 110.526 254.65L106.404 249.35L113.765 243.756L110.232 228.446Z" fill="#FFE5EF"/>
<path d="M116.71 240.812L103.166 241.695C99.6331 241.989 96.6891 239.339 96.3947 235.806C96.1002 232.273 98.7501 229.329 102.283 229.035L115.827 228.151C119.36 227.857 122.304 230.507 122.599 234.04C122.893 237.573 120.243 240.517 116.71 240.812Z" fill="#FFE5EF"/>
<path d="M121.127 253.471L107.583 254.355C104.05 254.649 101.106 251.999 100.811 248.466C100.517 244.933 103.167 241.989 106.7 241.694L120.243 240.811C123.776 240.517 126.721 243.166 127.015 246.7C127.31 250.233 124.66 253.177 121.127 253.471Z" fill="#FFE5EF"/>
<path d="M102.577 228.74L116.121 227.857C119.654 227.562 122.598 230.212 122.893 233.745C123.187 237.278 120.537 240.222 117.004 240.517" stroke="#FFBED7" stroke-width="0.6298" stroke-miterlimit="10" stroke-linecap="round" stroke-linejoin="round"/>
<path d="M108.76 241.4L120.243 240.811C123.776 240.517 126.721 243.166 127.015 246.7C127.31 250.233 124.66 253.177 121.127 253.471" stroke="#FFBED7" stroke-width="0.6298" stroke-miterlimit="10" stroke-linecap="round" stroke-linejoin="round"/>
<path d="M136.731 224.323C136.731 224.323 133.493 245.522 142.325 249.644" stroke="#FFBED7" stroke-width="0.6298" stroke-miterlimit="10" stroke-linecap="round" stroke-linejoin="round"/>
<path d="M185.901 253.471L226.237 256.416L225.354 279.087C215.637 272.904 200.622 267.604 185.606 264.954L185.901 253.471Z" fill="#FFD0DD"/>
<path d="M256.857 198.12L258.035 193.703C258.329 191.642 260.095 190.17 262.156 189.876L299.843 187.52C301.904 187.52 303.965 188.698 304.554 190.759L306.32 195.47C346.657 199.886 382.577 219.613 386.405 245.522C386.699 247.583 385.521 249.644 383.46 250.233L353.134 260.244C351.368 260.832 350.485 262.305 350.19 263.777L349.896 266.721C344.89 298.813 352.546 326.784 349.307 342.683C349.601 344.744 351.957 348.277 347.54 347.983H242.136C239.45 347.983 234.95 347.983 232.419 347.983C232.125 347.983 231.831 347.983 231.831 347.983C228.298 347.099 229.181 345.627 229.475 344.155C229.475 342.977 230.653 336.795 230.653 335.911C230.653 331.2 231.536 304.702 225.648 274.082C225.648 272.021 224.175 270.254 222.114 269.96L184.133 262.305C182.072 262.01 180.6 259.949 180.6 257.888C181.778 230.801 216.226 206.658 256.857 198.12Z" fill="#82E155"/>
<path d="M278.938 218.729C279.914 218.729 280.705 217.938 280.705 216.962C280.705 215.987 279.914 215.196 278.938 215.196C277.962 215.196 277.172 215.987 277.172 216.962C277.172 217.938 277.962 218.729 278.938 218.729Z" fill="#E5E5E5"/>
<path d="M278.938 223.735C279.914 223.735 280.705 222.944 280.705 221.968C280.705 220.993 279.914 220.202 278.938 220.202C277.962 220.202 277.172 220.993 277.172 221.968C277.172 222.944 277.962 223.735 278.938 223.735Z" fill="#E5E5E5"/>
<path opacity="0.5" d="M257.741 205.186L265.101 220.79" stroke="white" stroke-width="0.6298" stroke-miterlimit="10" stroke-linecap="round" stroke-linejoin="round"/>
<path opacity="0.5" d="M270.695 218.436L273.934 214.608C275.995 212.253 279.822 211.958 282.472 214.019L289.833 220.497C290.716 221.085 291.894 221.085 292.483 220.202L305.438 204.303" stroke="white" stroke-width="0.6298" stroke-miterlimit="10" stroke-linecap="round" stroke-linejoin="round"/>
<path d="M297.782 148.655H264.806L261.862 188.992C260.39 200.474 269.517 202.241 281.294 202.241C293.071 202.241 301.904 200.474 300.726 188.992L297.782 148.655Z" fill="#FFDBE5"/>
<path d="M290.422 168.088C284.239 173.093 275.7 189.581 273.934 201.947C267.162 201.063 262.451 198.708 261.862 191.936C261.862 190.759 261.862 189.581 261.862 188.992C261.862 188.992 261.862 188.992 261.862 188.698L263.334 168.971L290.422 168.088Z" fill="#FFD0DD"/>
<path d="M235.659 125.395C235.659 103.902 253.619 86.5311 275.112 87.7088C294.25 88.5921 310.149 104.491 311.032 123.629C311.327 132.462 308.677 140.706 303.966 147.183C299.844 153.072 296.016 159.255 292.189 165.143C286.006 174.859 274.523 180.748 261.863 178.981C249.497 177.215 239.486 167.793 236.542 155.721C235.659 152.188 235.659 148.95 235.953 145.711C236.542 139.528 236.248 133.345 235.953 127.162C235.659 126.868 235.659 126.279 235.659 125.395Z" fill="#FFE5EF"/>
<path d="M269.517 144.24C271.63 144.24 273.344 141.867 273.344 138.94C273.344 136.013 271.63 133.641 269.517 133.641C267.403 133.641 265.689 136.013 265.689 138.94C265.689 141.867 267.403 144.24 269.517 144.24Z" fill="white"/>
<path d="M268.339 143.061C269.803 143.061 270.989 141.347 270.989 139.234C270.989 137.12 269.803 135.406 268.339 135.406C266.876 135.406 265.689 137.12 265.689 139.234C265.689 141.347 266.876 143.061 268.339 143.061Z" fill="#333333"/>
<path d="M248.024 144.24C250.138 144.24 251.852 141.867 251.852 138.94C251.852 136.013 250.138 133.641 248.024 133.641C245.911 133.641 244.197 136.013 244.197 138.94C244.197 141.867 245.911 144.24 248.024 144.24Z" fill="white"/>
<path d="M246.847 143.061C248.31 143.061 249.497 141.347 249.497 139.234C249.497 137.12 248.31 135.406 246.847 135.406C245.383 135.406 244.197 137.12 244.197 139.234C244.197 141.347 245.383 143.061 246.847 143.061Z" fill="#333333"/>
<path d="M246.258 172.21C237.719 172.21 228.003 169.855 217.404 167.5C223.587 163.378 231.242 139.235 232.419 116.564C232.714 110.97 233.892 105.376 235.953 100.076C240.075 89.4765 249.496 76.2273 269.223 78.2883C270.4 78.5827 270.989 78.8771 271.578 79.466C272.461 78.8771 273.345 78.5827 274.522 78.2883C287.772 76.5217 303.082 82.7047 310.737 101.548C316.625 115.68 323.103 135.407 326.341 146.595C327.814 152.484 325.752 158.667 321.042 162.2C311.326 168.972 299.549 170.738 283.944 172.21C288.36 166.616 288.949 144.534 283.65 122.747C279.233 123.924 270.4 124.808 267.162 124.808C266.278 121.863 265.101 117.447 266.867 114.797C266.867 114.797 263.923 119.802 263.923 125.102C261.568 125.102 259.507 125.102 257.151 125.102C256.562 122.158 256.562 116.858 258.329 114.503C258.329 114.503 254.501 120.097 254.207 125.102C252.146 124.808 250.085 124.513 248.318 124.219C247.435 121.275 248.318 117.153 250.085 114.208C250.085 114.208 245.668 118.33 245.668 123.63C244.785 123.63 243.607 123.336 242.724 123.041C241.252 122.452 238.897 120.686 237.425 118.919C236.247 122.747 235.364 123.924 235.364 128.046C235.364 128.635 235.364 129.519 235.364 130.107C235.658 136.29 235.952 139.529 235.364 145.712C235.069 148.951 235.364 152.484 235.953 155.722C238.014 162.494 241.547 168.088 246.258 172.21Z" fill="#333333"/>
<path d="M348.718 276.142L349.601 284.386C349.896 285.564 348.423 286.153 347.835 285.27L325.164 252.883L317.509 243.167C316.92 242.283 316.331 241.694 315.742 241.106L288.066 203.419C286.005 200.475 282.177 199.591 279.233 201.652C276.289 203.713 275.406 207.541 277.467 210.485L283.061 218.14C285.122 220.79 283.06 224.618 279.822 224.618C274.522 224.618 269.517 225.207 264.217 226.679L244.196 232.567C240.663 233.451 238.896 237.278 239.78 240.517C240.663 244.05 244.491 245.816 247.73 244.933L266.573 239.339C267.161 239.045 267.75 239.634 268.045 240.222C268.339 240.811 267.75 241.4 267.162 241.695L245.668 248.172C242.135 249.055 240.369 252.883 241.252 256.121C242.135 259.655 245.963 261.421 249.202 260.538L270.695 254.06C271.283 253.766 271.872 254.355 272.167 254.944C272.461 255.533 271.873 256.121 271.284 256.416L255.973 261.127C252.44 262.01 250.674 265.837 251.557 269.076C252.44 272.609 256.268 274.376 259.507 273.493L275.7 268.487L282.177 266.426L321.631 318.834C331.641 331.495 348.423 336.794 364.028 332.084C382.871 326.489 394.059 307.352 390.232 288.214L382.577 251.705L352.251 261.716C352.251 261.716 349.601 262.304 349.307 265.543C349.896 267.898 348.718 276.142 348.718 276.142Z" fill="#FFE5EF"/>
<path d="M351.073 287.331L354.312 291.452" stroke="#FFBED7" stroke-width="0.6298" stroke-miterlimit="10" stroke-linecap="round" stroke-linejoin="round"/>
<path d="M257.15 167.499C259.102 167.499 260.683 164.468 260.683 160.728C260.683 156.988 259.102 153.956 257.15 153.956C255.199 153.956 253.617 156.988 253.617 160.728C253.617 164.468 255.199 167.499 257.15 167.499Z" fill="#FF97BF"/>
<path d="M185.017 295.869L185.605 301.168" stroke="#FFBED7" stroke-width="0.6298" stroke-miterlimit="10" stroke-linecap="round" stroke-linejoin="round"/>
<path d="M259.212 149.539H257.151C254.796 149.539 252.735 147.478 252.735 145.122C252.735 142.767 254.501 140.412 257.151 139.823V135.701" stroke="#FFBED7" stroke-width="0.6298" stroke-miterlimit="10" stroke-linecap="round" stroke-linejoin="round"/>
<path d="M383.46 250.527L353.134 260.538C353.134 260.538 350.484 261.127 350.19 264.365C350.19 264.954 349.896 266.132 349.896 267.015L384.638 254.944L383.46 250.527Z" fill="#FFD0DD"/>
</g>
</g>
<defs>
<filter id="filter0_d" x="63" y="28" width="343.98" height="340" filterUnits="userSpaceOnUse" color-interpolation-filters="sRGB">
<feFlood flood-opacity="0" result="BackgroundImageFix"/>
<feColorMatrix in="SourceAlpha" type="matrix" values="0 0 0 0 0 0 0 0 0 0 0 0 0 0 0 0 0 0 127 0"/>
<feOffset dy="4"/>
<feGaussianBlur stdDeviation="8"/>
<feColorMatrix type="matrix" values="0 0 0 0 0 0 0 0 0 0 0 0 0 0 0 0 0 0 0.08 0"/>
<feBlend mode="normal" in2="BackgroundImageFix" result="effect1_dropShadow"/>
<feBlend mode="normal" in="SourceGraphic" in2="effect1_dropShadow" result="shape"/>
</filter>
</defs>
</svg>
