<svg width="382" height="348" viewBox="0 0 382 348" fill="none" xmlns="http://www.w3.org/2000/svg">
<mask id="mask0" mask-type="alpha" maskUnits="userSpaceOnUse" x="0" y="0" width="382" height="348">
<path d="M382 324C382 337.255 371.255 348 358 348L24 348C10.7452 348 2.95782e-05 337.255 2.84194e-05 324L2.19259e-06 24C1.03382e-06 10.7452 10.7452 1.93855e-06 24 7.79773e-07L358 -2.84194e-05C371.255 -2.95782e-05 382 10.7451 382 24L382 324Z" fill="#F04682"/>
</mask>
<g mask="url(#mask0)">
<path d="M330.099 257.386C329.977 256.771 329.855 256.161 329.732 255.551C329.855 256.163 329.977 256.771 330.099 257.386Z" fill="#FFE4EE"/>
<path d="M370.027 245.761C370.454 247.842 370.865 249.935 371.262 252.053C370.863 249.935 370.451 247.839 370.027 245.761Z" fill="#FFE4EE"/>
<path d="M371.297 252.234C358.439 255.21 345.251 260.954 331.897 266.775C331.875 266.657 331.852 266.542 331.831 266.425C336.102 289.413 327.459 315.354 330.322 347.606H382.123C382.053 346.765 382.001 345.923 381.986 345.078C378.449 301.31 375.62 275.271 371.297 252.234Z" fill="#FFE4EE"/>
<path d="M368.643 239.271C369.087 241.274 369.518 243.282 369.932 245.3C369.516 243.282 369.087 241.276 368.643 239.271Z" fill="#FFE4EE"/>
<path d="M368.59 239.028C367.864 235.77 367.103 232.514 366.29 229.216L324.246 229.931C325.599 235.89 326.926 241.943 328.223 248.156C328.166 247.875 328.106 247.589 328.048 247.309L368.59 239.028Z" fill="#FFE4EE"/>
<path d="M329.179 252.803C329.06 252.221 328.942 251.64 328.823 251.06C328.942 251.638 329.062 252.219 329.179 252.803Z" fill="#FFE4EE"/>
<path d="M330.996 262.004C330.888 261.438 330.779 260.879 330.668 260.316C330.779 260.879 330.89 261.436 330.996 262.004Z" fill="#FFE4EE"/>
<path d="M329.731 255.551C329.547 254.632 329.364 253.714 329.178 252.803C329.364 253.714 329.547 254.632 329.731 255.551Z" fill="#FFCDDC"/>
<path d="M368.588 239.029C368.605 239.11 368.622 239.191 368.639 239.27C368.622 239.191 368.607 239.11 368.588 239.029Z" fill="#FFCDDC"/>
<path d="M328.822 251.061C328.624 250.09 328.423 249.121 328.22 248.159C328.423 249.121 328.624 250.088 328.822 251.061Z" fill="#FFCDDC"/>
<path d="M331.83 266.425C331.555 264.94 331.275 263.465 330.996 262.004C331.277 263.465 331.555 264.94 331.83 266.425Z" fill="#FFCDDC"/>
<path d="M369.931 245.3C369.963 245.453 369.995 245.605 370.027 245.759C369.995 245.607 369.963 245.453 369.931 245.3Z" fill="#FFCDDC"/>
<path d="M330.671 260.317C330.481 259.338 330.291 258.359 330.099 257.388C330.291 258.356 330.481 259.336 330.671 260.317Z" fill="#FFCDDC"/>
<path d="M371.3 252.233C371.289 252.173 371.276 252.113 371.263 252.051C371.276 252.113 371.287 252.175 371.3 252.233C371.297 252.235 371.3 252.235 371.3 252.233Z" fill="#FFCDDC"/>
<path d="M371.297 252.234C371.286 252.175 371.276 252.113 371.263 252.053C370.864 249.934 370.452 247.839 370.027 245.761C369.995 245.607 369.963 245.456 369.931 245.302C369.515 243.284 369.086 241.278 368.643 239.272C368.626 239.191 368.606 239.11 368.589 239.031L328.048 247.312C328.107 247.594 328.165 247.877 328.223 248.159C328.423 249.121 328.624 250.09 328.824 251.061C328.944 251.641 329.063 252.221 329.181 252.804C329.366 253.715 329.55 254.633 329.733 255.552C329.855 256.162 329.979 256.773 330.1 257.387C330.292 258.358 330.482 259.337 330.672 260.317C330.781 260.88 330.892 261.437 331.001 262.004C331.28 263.466 331.558 264.94 331.835 266.425C331.856 266.543 331.88 266.658 331.901 266.775C345.251 260.955 358.439 255.211 371.297 252.234Z" fill="#FFCDDC"/>
<path d="M222.408 297.154L231.08 248.144L191.155 239.946L183.823 280.575C183.668 281.441 182.424 281.439 182.27 280.573L169.069 205.927C168.444 202.383 168.286 198.771 168.6 195.184L169.867 180.701C170.117 177.838 168.502 175.009 165.779 174.093C161.779 172.747 158.043 175.734 157.703 179.596L155.766 201.735L144.193 179.788C142.766 176.733 139.134 175.412 136.077 176.837C133.019 178.262 131.696 181.898 133.124 184.958L143.553 204.476C134.899 208.225 129.609 217.532 131.321 227.23L143.677 297.145C147.052 316.243 163.648 330.166 183.043 330.166C202.433 330.166 219.029 316.25 222.408 297.154Z" fill="#FFE4EE"/>
<path d="M140.977 225.649L133.646 209.928C132.221 206.871 133.544 203.237 136.599 201.812C139.657 200.387 143.29 201.709 144.715 204.765L152.047 220.486C153.472 223.543 152.149 227.177 149.094 228.602C146.036 230.027 142.403 228.706 140.977 225.649Z" fill="#FFE4EE"/>
<path d="M146.428 208.44L152.046 220.489C153.471 223.546 152.149 227.18 149.093 228.605C146.036 230.03 142.402 228.707 140.977 225.652L137.337 217.847" stroke="#FFBED2" stroke-width="1.75925" stroke-miterlimit="10" stroke-linecap="round" stroke-linejoin="round"/>
<path d="M167.908 218.153L164.268 210.349C162.843 207.291 159.209 205.968 156.152 207.396C153.094 208.821 151.771 212.454 153.199 215.512L158.816 227.561C155.422 228.16 153.156 231.397 153.753 234.79L154.037 236.403" stroke="#FFBED2" stroke-width="1.75925" stroke-miterlimit="10" stroke-linecap="round" stroke-linejoin="round"/>
<path d="M227.953 265.814L231.079 248.143L191.154 239.946L188.935 252.234C201.712 255.359 214.755 260.474 227.953 265.814Z" fill="#FFCDDC"/>
<path d="M217.527 253.871C220.056 254.532 221.752 256.907 221.558 259.514L215.417 341.786C215.182 344.927 217.668 347.607 220.82 347.607H341.151C344.356 347.607 346.859 344.839 346.541 341.652L338.348 259.694C338.079 257.01 339.826 254.537 342.446 253.894L371.408 246.785C374.029 246.143 375.838 243.661 375.522 240.984C372.477 215.06 344.499 193.636 307.128 186.655C304.915 186.241 303.159 184.553 302.737 182.342C302.378 180.465 301.073 178.869 299.261 178.261C287.116 174.173 274.98 174.177 262.857 178.261C261.045 178.871 259.74 180.465 259.381 182.342C258.961 184.555 257.205 186.243 254.99 186.657C217.587 193.644 189.594 215.1 186.589 241.052C186.282 243.7 188.047 246.16 190.626 246.834L217.527 253.871Z" fill="#FF6991"/>
<path d="M302.718 192.599L294.721 203.386C293.438 205.117 290.931 205.332 289.374 203.845L283.619 198.357C282.186 196.99 279.932 196.99 278.499 198.357L272.744 203.845C271.187 205.33 268.677 205.115 267.397 203.386L259.4 192.599" stroke="#F04682" stroke-width="1.75925" stroke-miterlimit="10" stroke-linecap="round" stroke-linejoin="round"/>
<path d="M281.021 206.941C281.943 206.941 282.69 206.194 282.69 205.272C282.69 204.351 281.943 203.604 281.021 203.604C280.1 203.604 279.353 204.351 279.353 205.272C279.353 206.194 280.1 206.941 281.021 206.941Z" fill="white"/>
<path d="M281.021 212.037C281.943 212.037 282.69 211.29 282.69 210.369C282.69 209.447 281.943 208.7 281.021 208.7C280.1 208.7 279.353 209.447 279.353 210.369C279.353 211.29 280.1 212.037 281.021 212.037Z" fill="white"/>
<path d="M296.483 137.211H264.92L262.078 179.293C260.783 190.431 269.49 192.116 280.702 192.116C291.915 192.116 300.622 190.431 299.327 179.293L296.483 137.211Z" fill="#FFDAE4"/>
<path d="M289.271 156.035C283.303 160.771 275.242 179.94 273.482 191.756C266.943 190.958 262.332 188.577 261.973 182.208C261.99 181.009 262.018 180.03 262.059 179.507C262.067 179.434 262.069 179.366 262.078 179.294L263.475 156.967L289.271 156.035Z" fill="#FFCDDC"/>
<path d="M236.975 117.997C236.975 97.375 254.189 80.7752 275.033 81.7823C293.519 82.6763 308.657 97.902 309.46 116.392C309.827 124.886 307.26 132.753 302.694 139.094C298.65 144.71 294.123 148.802 290.412 154.642C284.477 163.986 271.229 168.688 260.712 166.345C250.195 164.003 242.41 154.954 240.474 147.49C239.61 144.164 239.64 139.912 239.48 136.786C239.192 131.191 237.387 125.974 237.039 120.075C236.994 119.386 236.975 118.692 236.975 117.997Z" fill="#FFE4EE"/>
<path d="M297.514 152.575C297.514 152.575 319.166 141.55 314.894 116.042C310.623 90.5346 297.477 83.6152 291.633 81.7376C285.789 79.86 257.023 69.6334 243.539 90.9848C230.054 112.336 233.967 121.596 238.042 127.325C238.042 127.325 242.457 101.617 253.157 98.4868C254.218 98.1752 255.348 98.7257 255.722 99.7669C256.716 102.526 259.968 108.092 270.282 110.09C284.215 112.786 285.452 123.574 291.183 125.034C296.916 126.493 296.376 144.584 297.514 152.575Z" fill="#2D2D37"/>
<path d="M294.324 131.131C294.324 127.333 297.176 124.278 300.633 124.464C303.697 124.628 306.206 127.432 306.34 130.837C306.402 132.401 305.975 133.85 305.218 135.017C304.548 136.051 303.946 137.135 303.332 138.211C302.348 139.93 300.515 140.993 298.489 140.673C296.53 140.361 294.908 138.704 294.458 136.564C294.328 135.947 294.298 135.347 294.349 134.773C294.447 133.692 294.394 132.601 294.336 131.515C294.328 131.385 294.324 131.259 294.324 131.131Z" fill="#FFE4EE"/>
<path d="M321.294 98.3738C326.642 93.0261 325.898 83.6114 319.632 77.3455C313.366 71.0795 303.951 70.3352 298.603 75.6829C293.256 81.0306 294 90.4453 300.266 96.7112C306.532 102.977 315.947 103.721 321.294 98.3738Z" fill="#2D2D37"/>
<path d="M251.706 131.294C253.882 131.294 255.645 128.837 255.645 125.806C255.645 122.775 253.882 120.318 251.706 120.318C249.531 120.318 247.768 122.775 247.768 125.806C247.768 128.837 249.531 131.294 251.706 131.294Z" fill="white"/>
<path d="M271.262 131.294C273.438 131.294 275.201 128.837 275.201 125.806C275.201 122.775 273.438 120.318 271.262 120.318C269.087 120.318 267.323 122.775 267.323 125.806C267.323 128.837 269.087 131.294 271.262 131.294Z" fill="white"/>
<path d="M250.194 129.188C251.535 129.188 252.622 127.674 252.622 125.806C252.622 123.938 251.535 122.424 250.194 122.424C248.853 122.424 247.766 123.938 247.766 125.806C247.766 127.674 248.853 129.188 250.194 129.188Z" fill="#2D2D37"/>
<path d="M269.675 129.083C270.973 129.083 272.026 127.616 272.026 125.807C272.026 123.999 270.973 122.532 269.675 122.532C268.376 122.532 267.323 123.999 267.323 125.807C267.323 127.616 268.376 129.083 269.675 129.083Z" fill="#2D2D37"/>
<path d="M269.219 141.478C266.195 143.008 256.773 143.008 253.75 141.478C253.323 141.263 252.952 142.057 253.167 142.742C254.236 146.117 257.556 148.579 261.482 148.579C265.41 148.579 268.728 146.119 269.799 142.742C270.017 142.057 269.645 141.263 269.219 141.478Z" fill="#FF7BA4"/>
<path d="M301.613 130.981L300.676 131.918C299.724 132.87 299.724 134.41 300.676 135.362" stroke="#FFBED2" stroke-width="1.75925" stroke-miterlimit="10" stroke-linecap="round" stroke-linejoin="round"/>
<path d="M261.303 135.28C258.992 135.338 257.074 133.512 257.018 131.201C256.984 129.814 258.134 128.743 259.257 127.992C260.441 127.198 261.098 125.818 261.098 124.39V121.267" stroke="#FFBED2" stroke-width="1.75925" stroke-miterlimit="10" stroke-linecap="round" stroke-linejoin="round"/>
</g>
</svg>
