<svg width="382" height="348" viewBox="0 0 382 348" fill="none" xmlns="http://www.w3.org/2000/svg">
<mask id="mask0" mask-type="alpha" maskUnits="userSpaceOnUse" x="0" y="0" width="382" height="349">
<path d="M382 348L3.05176e-05 348L2.19259e-06 24.0001C1.03382e-06 10.7453 10.7452 9.35733e-05 24 9.24145e-05L358 6.32153e-05C371.255 6.20565e-05 382 10.7452 382 24.0001L382 348Z" fill="#1EB4BE"/>
</mask>
<g mask="url(#mask0)">
<g filter="url(#filter0_d)">
<path d="M332 40.0001H192C180.954 40.0001 172 48.9544 172 60.0001V200C172 211.046 180.954 220 192 220H332C343.046 220 352 211.046 352 200V60.0001C352 48.9544 343.046 40.0001 332 40.0001Z" fill="#FFDCE6"/>
<path d="M290.244 145.276H256.306L253.303 187.022C251.801 199.036 261.412 200.838 273.425 200.838C285.439 200.838 294.749 199.036 293.548 187.022L290.244 145.276Z" fill="#FFDBE5"/>
<path d="M282.436 162.393C276.129 167.498 267.419 188.221 265.317 200.835C258.409 199.934 253.303 197.532 253.003 190.624C253.003 189.423 253.003 188.221 253.003 187.621V187.32L254.505 163.294L282.436 162.393Z" fill="#FFD0DD"/>
<path d="M225.973 121.549C225.973 99.3245 244.593 81.6048 266.818 82.5058C286.64 83.4068 303.159 99.9252 303.759 119.747C304.06 128.757 301.357 137.467 296.551 144.074C292.347 150.081 288.442 156.388 284.238 162.695C277.931 172.606 265.917 178.913 252.703 177.111C240.089 175.309 229.577 165.698 226.574 153.084C225.673 149.48 225.672 145.876 225.973 142.573C226.573 136.266 226.273 129.959 225.973 123.652C225.973 123.051 225.973 122.15 225.973 121.549Z" fill="#FFE5EF"/>
<path d="M222.969 251.893H312.469C327.185 227.867 323.281 196.332 315.172 159.691L310.366 129.057C310.366 128.156 310.066 127.255 310.066 126.654C310.066 124.552 309.766 122.149 309.465 119.446C304.96 92.1157 290.845 84.6074 284.538 82.5051C281.234 81.6041 271.924 78.3004 261.713 78.0001C251.501 78.0001 240.088 83.4061 232.58 92.4161C225.672 103.528 222.068 115.242 221.468 121.248C220.867 127.255 220.266 137.466 220.266 141.971C219.966 169.902 210.055 211.048 222.969 251.893ZM225.973 142.872C226.273 139.569 226.273 136.265 226.273 132.961C226.273 128.156 227.174 123.05 228.976 118.545C232.28 110.736 237.085 102.327 243.092 100.525C244.293 100.225 245.494 100.825 245.795 102.027C246.996 105.03 250.3 111.037 261.412 113.139C272.825 115.242 276.128 132.06 287.541 134.463C293.548 135.964 290.545 153.084 290.545 153.084L292.947 187.322C294.449 199.335 284.838 201.137 272.825 201.137C269.521 201.137 266.518 201.137 263.815 200.536C262.914 200.536 262.313 200.236 261.412 199.936C261.112 199.936 260.811 199.635 260.511 199.635C259.91 199.335 259.009 199.035 258.409 198.734C258.108 198.734 257.808 198.434 257.508 198.434C257.207 198.134 256.907 198.134 256.607 197.833C256.306 197.533 256.306 197.533 256.006 197.233C255.706 196.932 255.706 196.932 255.405 196.632C255.105 196.332 255.105 196.031 254.805 196.031C254.805 195.731 254.504 195.731 254.504 195.431C254.504 195.431 254.504 195.431 254.504 195.13C254.504 194.83 254.204 194.53 254.204 194.229C254.204 193.929 253.904 193.629 253.904 193.328C253.904 193.328 253.904 193.328 253.904 193.028C253.904 192.728 253.904 192.427 253.603 192.127V191.827C253.603 191.526 253.603 191.226 253.603 190.625C253.603 189.724 253.603 188.823 253.603 187.622V187.322L254.204 177.411C253.904 177.411 253.603 177.411 253.303 177.411C240.689 175.609 230.177 165.998 227.174 153.384C225.973 149.78 225.672 146.176 225.973 142.872Z" fill="#333333"/>
<path d="M287.541 135.665C287.541 131.46 290.545 128.157 294.449 128.457C297.753 128.757 300.456 131.761 300.456 135.365C300.456 137.167 300.155 138.669 299.254 139.87C298.654 141.071 297.753 142.272 297.152 143.173C295.951 144.975 294.149 146.177 292.046 145.877C289.944 145.576 288.142 143.774 287.842 141.372C287.842 140.771 287.541 140.17 287.842 139.569C287.842 138.368 287.842 137.167 287.842 135.965C287.541 135.965 287.541 135.665 287.541 135.665Z" fill="#FFE5EF"/>
<path d="M239.488 140.469C241.81 140.469 243.693 137.78 243.693 134.462C243.693 131.145 241.81 128.456 239.488 128.456C237.166 128.456 235.283 131.145 235.283 134.462C235.283 137.78 237.166 140.469 239.488 140.469Z" fill="white"/>
<path d="M260.512 140.469C262.834 140.469 264.716 137.78 264.716 134.462C264.716 131.145 262.834 128.456 260.512 128.456C258.189 128.456 256.307 131.145 256.307 134.462C256.307 137.78 258.189 140.469 260.512 140.469Z" fill="white"/>
<path d="M237.987 138.065C239.479 138.065 240.69 136.452 240.69 134.461C240.69 132.471 239.479 130.858 237.987 130.858C236.494 130.858 235.283 132.471 235.283 134.461C235.283 136.452 236.494 138.065 237.987 138.065Z" fill="#333333"/>
<path d="M259.009 138.065C260.336 138.065 261.412 136.452 261.412 134.461C261.412 132.471 260.336 130.858 259.009 130.858C257.682 130.858 256.607 132.471 256.607 134.461C256.607 136.452 257.682 138.065 259.009 138.065Z" fill="#333333"/>
<path d="M344.429 347.604V347.904H299.98C300.881 325.079 296.551 304.15 290.544 282.225L272.524 217.053L301.356 208.043C308.865 205.64 317.274 210.145 319.376 217.954L338.598 287.631C341.902 300.846 345.03 333.788 344.429 347.604Z" fill="#FFE5EF"/>
<path d="M296.251 186.421C285.739 181.315 273.426 180.714 262.313 185.219C244.894 192.127 232.58 207.444 229.277 226.065L209.154 340.492C208.554 344.396 211.557 348 215.461 348H328.687C332.592 348 335.595 344.697 334.994 340.792L319.677 218.857C317.575 204.741 308.865 192.728 296.251 186.421Z" fill="#FF5F87"/>
<path d="M275.528 238.978L236.484 300.847C236.484 300.847 280.934 296.642 280.934 235.975L275.528 238.978Z" fill="#F05078"/>
<path d="M263.815 149.479C256.306 151.581 249.399 153.384 243.392 153.684C242.791 153.684 242.191 154.585 242.791 154.885C243.692 156.387 246.395 157.288 249.399 157.288C256.306 157.288 262.313 153.384 264.716 150.681C265.316 150.38 264.716 149.479 263.815 149.479Z" fill="#FF97BF"/>
<path d="M295.35 135.363L294.449 136.264C293.548 137.165 293.548 138.967 294.449 139.868" stroke="#FFBED7" stroke-width="0.6298" stroke-miterlimit="10" stroke-linecap="round" stroke-linejoin="round"/>
<path d="M250 142.27C247.597 142.27 245.495 140.468 245.495 137.765C245.495 135.363 248.798 133.861 250 133.26V127.854" stroke="#FFBED7" stroke-width="0.6298" stroke-miterlimit="10" stroke-linecap="round" stroke-linejoin="round"/>
<path d="M268.019 197.232C255.405 193.328 241.89 199.034 235.583 210.447L210.956 255.197C210.055 256.398 208.853 256.098 208.553 255.197L196.84 222.761C195.338 218.256 196.239 213.45 199.843 210.147C206.451 204.44 208.853 195.13 205.85 186.42C204.949 183.717 203.147 181.014 201.045 178.912C199.243 176.81 196.239 176.209 193.837 177.11C192.936 174.707 190.833 172.605 188.13 172.305C184.526 171.704 180.922 172.305 177.619 173.506C171.912 175.608 167.708 179.813 165.305 184.618L158.998 167.499C157.797 164.196 154.193 162.093 150.589 163.295C146.985 164.496 145.183 168.4 146.384 171.704L154.193 193.328C154.193 193.628 154.193 193.929 153.892 194.229C153.592 194.229 153.292 194.229 152.991 193.929L146.985 177.11C145.783 173.806 142.179 171.704 138.575 172.905C134.971 174.107 133.169 178.011 134.371 181.315L140.377 198.434L146.985 217.054L177.919 302.649C184.526 321.27 206.751 329.379 224.471 317.967C228.675 315.264 232.279 311.359 234.982 307.154L278.231 236.876C288.142 222.761 282.736 204.44 268.019 197.232ZM177.619 196.632C176.117 192.427 178.219 187.922 182.424 186.42C183.625 186.12 184.827 185.82 186.328 186.12C187.53 186.42 188.431 186.12 189.332 185.82C189.632 186.721 190.233 187.622 190.833 188.523C191.734 189.424 192.035 190.325 192.635 191.226C194.137 195.43 192.035 199.935 187.83 201.437C183.625 202.939 179.12 200.536 177.619 196.632Z" fill="#FFE5EF"/>
<path d="M192.936 178.612C192.936 180.714 192.035 182.516 190.233 183.718" stroke="#FFBED7" stroke-width="0.6298" stroke-miterlimit="10" stroke-linecap="round" stroke-linejoin="round"/>
<path d="M209.454 258.802L209.154 264.508" stroke="#FFBED7" stroke-width="0.6298" stroke-miterlimit="10" stroke-linecap="round" stroke-linejoin="round"/>
<path d="M216.662 244.986L259.009 269.313L269.521 252.494L226.273 227.266L216.662 244.986Z" fill="#FFD0DD"/>
<path d="M283.637 214.051C281.534 206.243 275.828 199.635 268.62 196.332C255.706 192.427 241.289 198.134 234.982 210.147L218.164 240.481L262.913 267.21L280.633 237.477C284.538 230.57 285.739 221.86 283.637 214.051Z" fill="#FF5F87"/>
</g>
</g>
<defs>
<filter id="filter0_d" x="118" y="28.0001" width="250" height="340" filterUnits="userSpaceOnUse" color-interpolation-filters="sRGB">
<feFlood flood-opacity="0" result="BackgroundImageFix"/>
<feColorMatrix in="SourceAlpha" type="matrix" values="0 0 0 0 0 0 0 0 0 0 0 0 0 0 0 0 0 0 127 0"/>
<feOffset dy="4"/>
<feGaussianBlur stdDeviation="8"/>
<feColorMatrix type="matrix" values="0 0 0 0 0 0 0 0 0 0 0 0 0 0 0 0 0 0 0.08 0"/>
<feBlend mode="normal" in2="BackgroundImageFix" result="effect1_dropShadow"/>
<feBlend mode="normal" in="SourceGraphic" in2="effect1_dropShadow" result="shape"/>
</filter>
</defs>
</svg>
