<svg width="382" height="348" viewBox="0 0 382 348" fill="none" xmlns="http://www.w3.org/2000/svg">
<mask id="mask0" mask-type="alpha" maskUnits="userSpaceOnUse" x="0" y="0" width="382" height="348">
<path d="M382 324C382 337.255 371.255 348 358 348L24 348C10.7452 348 2.95782e-05 337.255 2.84194e-05 324L2.19259e-06 24C1.03382e-06 10.7452 10.7452 1.93855e-06 24 7.79773e-07L358 -2.84194e-05C371.255 -2.95782e-05 382 10.7451 382 24L382 324Z" fill="#3C6EE6"/>
</mask>
<g mask="url(#mask0)">
<path d="M317.238 218.187C315.084 210.391 306.894 205.93 299.178 208.352L270.419 217.375L288.467 282.302C293.332 299.802 297.054 326.659 297.918 348.276H342.373C342.046 331.363 339.189 299.48 336.424 287.647L317.238 218.187Z" fill="#FFE4EE"/>
<path d="M288.416 146.019H254.519L251.465 187.729C250.075 199.69 259.425 201.499 271.465 201.499C283.507 201.499 292.854 199.69 291.464 187.729L288.416 146.019Z" fill="#FFDAE4"/>
<path d="M280.623 163.169C274.219 168.251 265.619 188.511 263.728 201.192C256.709 200.336 251.716 198.088 251.33 191.253C251.348 189.965 251.379 188.915 251.422 188.355C251.43 188.279 251.435 188.204 251.443 188.128L252.94 164.171L280.623 163.169Z" fill="#FFCDDC"/>
<path d="M224.247 122.25C224.247 100.105 242.733 82.2798 265.114 83.3607C284.968 84.3188 301.224 100.669 302.085 120.526C302.481 129.647 299.721 138.095 294.82 144.904C290.477 150.935 286.582 157.259 282.596 163.532C276.219 173.566 264.353 179.765 251.219 177.889C238.525 176.075 228.033 166.406 225.105 153.922C224.262 150.329 224.065 146.826 224.402 143.481C225.036 137.167 224.686 130.815 224.313 124.481C224.27 123.743 224.247 122.999 224.247 122.25Z" fill="#FFE4EE"/>
<path d="M221.464 252.401H310.688C325.37 228.447 321.499 197.082 313.501 160.441L308.792 129.82C308.664 128.994 308.575 128.166 308.521 127.333H308.519C308.524 125.093 308.34 122.726 307.921 120.23C303.334 92.8387 289.217 85.4083 282.941 83.3922C279.798 82.3804 270.459 79.1149 260.106 79.0025C249.783 78.867 238.487 84.3172 231.186 93.3216C224.247 104.38 220.756 116.226 220.24 122.118C219.706 128.22 219.093 138.152 218.973 142.894C218.267 170.587 208.517 211.68 221.464 252.401ZM224.402 143.559C224.737 140.222 224.793 136.874 224.722 133.525C224.678 128.608 225.608 123.738 227.499 119.198C230.709 111.491 235.678 103.067 241.54 101.37C242.68 101.041 243.87 101.631 244.271 102.745C245.337 105.704 248.827 111.688 259.909 113.834C271.333 116.045 274.594 132.756 285.849 135.032C291.754 136.381 288.969 153.608 288.969 153.608L291.473 187.809C292.863 199.77 283.514 201.579 271.474 201.579C268.211 201.579 265.147 201.443 262.439 201.012C262.434 201.012 262.428 201.009 262.426 201.009C261.598 200.876 260.803 200.715 260.047 200.521C260.016 200.513 259.986 200.506 259.955 200.498C259.602 200.406 259.257 200.309 258.923 200.202C258.902 200.197 258.884 200.189 258.864 200.184C258.166 199.959 257.51 199.701 256.894 199.404C256.848 199.381 256.802 199.358 256.756 199.335C256.48 199.2 256.214 199.057 255.959 198.904C255.936 198.888 255.91 198.876 255.885 198.863C255.601 198.692 255.328 198.51 255.067 198.319C255.049 198.306 255.034 198.29 255.016 198.278C254.786 198.106 254.569 197.925 254.357 197.736C254.308 197.693 254.262 197.649 254.216 197.606C254.014 197.417 253.823 197.22 253.639 197.013C253.618 196.99 253.598 196.969 253.577 196.946C253.375 196.714 253.186 196.466 253.01 196.211C252.982 196.17 252.956 196.124 252.928 196.083C252.788 195.868 252.655 195.646 252.53 195.413C252.494 195.347 252.458 195.28 252.425 195.211C252.295 194.953 252.175 194.688 252.067 194.409C252.057 194.386 252.047 194.363 252.039 194.34C251.924 194.034 251.824 193.714 251.738 193.382C251.717 193.308 251.702 193.231 251.684 193.157C251.62 192.891 251.564 192.615 251.518 192.332C251.503 192.24 251.487 192.15 251.474 192.056C251.423 191.696 251.382 191.328 251.362 190.942C251.311 190.05 251.344 189.084 251.454 188.042C251.462 187.965 251.467 187.891 251.474 187.814L252.187 178.074C251.865 178.038 251.549 178.018 251.227 177.972C238.533 176.158 228.041 166.489 225.113 154.004C224.262 150.404 224.065 146.903 224.402 143.559Z" fill="#2D2D37"/>
<path d="M285.831 136.352C285.831 132.274 288.895 128.991 292.605 129.19C295.896 129.367 298.592 132.377 298.732 136.033C298.799 137.712 298.341 139.268 297.529 140.522C296.808 141.634 296.162 142.797 295.502 143.951C294.445 145.799 292.48 146.941 290.303 146.596C288.197 146.261 286.46 144.48 285.974 142.183C285.834 141.521 285.803 140.878 285.857 140.262C285.961 139.099 285.903 137.929 285.841 136.764C285.834 136.628 285.831 136.49 285.831 136.352Z" fill="#FFE4EE"/>
<path d="M237.948 141.201C240.285 141.201 242.179 138.563 242.179 135.309C242.179 132.055 240.285 129.417 237.948 129.417C235.611 129.417 233.716 132.055 233.716 135.309C233.716 138.563 235.611 141.201 237.948 141.201Z" fill="white"/>
<path d="M258.955 141.201C261.292 141.201 263.186 138.563 263.186 135.309C263.186 132.055 261.292 129.417 258.955 129.417C256.618 129.417 254.724 132.055 254.724 135.309C254.724 138.563 256.618 141.201 258.955 141.201Z" fill="white"/>
<path d="M236.325 138.939C237.764 138.939 238.931 137.313 238.931 135.308C238.931 133.302 237.764 131.677 236.325 131.677C234.885 131.677 233.718 133.302 233.718 135.308C233.718 137.313 234.885 138.939 236.325 138.939Z" fill="#2D2D37"/>
<path d="M257.248 138.826C258.642 138.826 259.773 137.251 259.773 135.308C259.773 133.365 258.642 131.79 257.248 131.79C255.854 131.79 254.724 133.365 254.724 135.308C254.724 137.251 255.854 138.826 257.248 138.826Z" fill="#2D2D37"/>
<path d="M294.337 187.082C283.728 181.92 271.432 181.476 260.478 185.863C243.198 192.785 230.713 208.141 227.47 226.475L207.254 340.716C206.556 344.659 209.589 348.277 213.593 348.277H326.465C330.341 348.277 333.339 344.878 332.853 341.033L317.538 219.471C315.772 205.448 307.046 193.265 294.337 187.082Z" fill="#5F8CFF"/>
<path d="M273.668 239.394L234.72 301.195C234.72 301.195 279.103 296.951 279.103 236.616L273.668 239.394Z" fill="#3C6EE6"/>
<path d="M262.111 150.364C254.681 152.584 247.731 154.202 241.831 154.511C241.154 154.547 240.763 155.303 241.151 155.858C242.138 157.258 244.665 158.254 247.629 158.254C254.413 158.254 260.507 154.467 263.003 151.769C263.601 151.125 262.955 150.111 262.111 150.364Z" fill="#FF7BA4"/>
<path d="M293.657 136.192L292.65 137.199C291.628 138.221 291.628 139.877 292.65 140.896" stroke="#FFBED2" stroke-width="1.88772" stroke-miterlimit="10" stroke-linecap="round" stroke-linejoin="round"/>
<path d="M248.257 142.968C245.776 143.029 243.717 141.067 243.656 138.586C243.594 136.105 247.069 134.564 248.038 133.984V128.567" stroke="#FFBED2" stroke-width="1.88772" stroke-miterlimit="10" stroke-linecap="round" stroke-linejoin="round"/>
<path d="M266.237 198.043C253.707 194.225 240.215 199.693 233.879 211.158L209.188 255.83C208.419 256.99 207.195 256.801 206.807 255.718L195.109 223.257C193.535 218.89 194.616 213.91 198.081 210.819C204.525 205.064 207.198 195.751 204.093 187.137C203.071 184.299 201.497 181.746 199.42 179.549C197.519 177.54 194.705 176.917 192.24 177.714C191.458 175.246 189.319 173.316 186.585 172.933C183.092 172.445 179.494 172.818 176.18 174.011C170.546 176.043 166.264 180.169 163.882 185.198L157.701 168.045C156.48 164.66 152.808 162.646 149.384 163.763C145.843 164.92 143.983 168.763 145.237 172.241L153.054 193.937C153.054 193.939 153.056 193.939 153.056 193.942C153.171 194.261 153.005 194.614 152.686 194.729C152.366 194.844 152.014 194.678 151.899 194.358C151.896 194.353 151.899 194.348 151.896 194.34L145.856 177.578C144.634 174.193 140.963 172.179 137.539 173.296C133.997 174.453 132.137 178.296 133.392 181.774L139.529 198.804L146.19 217.291L177.016 302.833C183.662 321.276 205.93 329.59 223.53 318.23C227.813 315.468 231.352 311.697 234.127 307.424L277.414 237.221C286.334 223.474 281.067 205.016 266.237 198.043ZM176.114 197.22C174.632 193.106 176.773 188.553 180.887 187.071C182.106 186.631 183.376 186.501 184.661 186.68C185.739 186.831 186.792 186.726 187.763 186.412C188.07 187.383 188.593 188.3 189.34 189.089C190.096 189.889 190.668 190.814 191.039 191.844C192.521 195.958 190.379 200.511 186.266 201.993C182.149 203.478 177.596 201.336 176.114 197.22Z" fill="#FFE4EE"/>
<path d="M191.508 179.274C191.631 181.311 190.593 183.301 188.835 184.344" stroke="#FFBED2" stroke-width="1.88772" stroke-miterlimit="10" stroke-linecap="round" stroke-linejoin="round"/>
<path d="M207.732 259.412L207.502 264.918" stroke="#FFBED2" stroke-width="1.88772" stroke-miterlimit="10" stroke-linecap="round" stroke-linejoin="round"/>
<path d="M214.948 245.44L257.284 269.883L267.755 252.898L224.599 227.98L214.948 245.44Z" fill="#FFCDDC"/>
<path d="M281.812 214.778C279.578 206.957 274.077 200.485 266.716 197.022L266.567 196.966C253.605 193.021 239.447 198.757 232.898 210.611L216.734 239.86C216.386 240.491 216.601 241.286 217.219 241.654L259.666 266.942C260.302 267.32 261.125 267.111 261.501 266.472L278.354 237.834C282.785 231.006 284.045 222.602 281.812 214.778Z" fill="#5F8CFF"/>
</g>
</svg>
