<svg width="382" height="348" viewBox="0 0 382 348" fill="none" xmlns="http://www.w3.org/2000/svg">
<mask id="mask0" mask-type="alpha" maskUnits="userSpaceOnUse" x="0" y="0" width="382" height="348">
<path d="M382 348L3.05176e-05 348L2.19259e-06 24C1.03382e-06 10.7452 10.7452 3.25381e-05 24 3.13794e-05L358 2.18017e-06C371.255 1.02139e-06 382 10.7452 382 24L382 348Z" fill="#78CD69"/>
</mask>
<g mask="url(#mask0)">
<g filter="url(#filter0_d)">
<path d="M272 210C321.706 210 362 169.706 362 120C362 70.2944 321.706 30 272 30C222.294 30 182 70.2944 182 120C182 169.706 222.294 210 272 210Z" fill="#FFDCE6"/>
<path d="M371.314 250.295L374.128 283.498C374.128 284.342 375.535 284.624 375.816 283.78L386.509 250.858L390.448 240.728C390.73 239.884 391.011 239.321 391.574 238.477L405.362 199.646C406.206 196.551 409.301 194.863 412.396 195.988C415.491 196.832 417.18 199.927 416.054 203.023L413.24 210.901C412.396 213.715 414.929 216.529 417.743 215.404C421.963 213.997 426.747 213.152 431.249 213.152H449.539C452.634 213.152 455.167 215.685 455.167 218.78C455.167 221.875 452.634 224.408 449.539 224.408H432.375C431.812 224.408 431.53 224.971 431.53 225.252C431.53 225.815 432.093 226.096 432.375 226.096H452.071C455.167 226.096 457.699 228.629 457.699 231.724C457.699 234.819 455.167 237.351 452.071 237.351H432.375C431.812 237.351 431.53 237.914 431.53 238.196C431.53 238.758 432.093 239.04 432.375 239.04H446.444C449.539 239.04 452.071 241.572 452.071 244.667C452.071 247.763 449.539 250.295 446.444 250.295H431.53H425.621L405.924 304.321C400.578 317.546 387.916 326.269 373.847 326.269C356.682 326.269 342.332 313.044 340.643 296.161L336.704 254.516L371.314 250.295Z" fill="#FFE5EF"/>
<path d="M371.314 250.295L336.423 255.078L337.83 269.148C349.366 264.083 360.903 259.299 372.159 256.767L371.314 250.295Z" fill="#FFD0DD"/>
<path d="M190.103 250.295L187.29 283.499C187.29 284.343 185.883 284.624 185.601 283.78L174.909 250.858L170.969 240.728C170.688 239.884 170.407 239.321 169.844 238.477L156.337 199.928C155.493 196.832 152.398 195.144 149.303 196.27C146.208 197.114 144.519 200.209 145.645 203.304L148.459 211.183C149.303 213.997 146.77 216.811 143.956 215.685C139.736 214.278 134.952 213.434 130.45 213.434H112.16C109.065 213.434 106.532 215.966 106.532 219.062C106.532 222.157 109.065 224.689 112.16 224.689H129.325C129.887 224.689 130.169 225.252 130.169 225.534C130.169 226.096 129.606 226.378 129.325 226.378H109.628C106.532 226.378 104 228.91 104 232.005C104 235.101 106.532 237.633 109.628 237.633H129.325C129.887 237.633 130.169 238.196 130.169 238.477C130.169 239.04 129.606 239.321 129.325 239.321H115.255C112.16 239.321 109.628 241.854 109.628 244.949C109.628 248.044 112.16 250.577 115.255 250.577H130.45H136.078L155.775 304.602C161.121 317.827 173.783 326.55 187.852 326.55C205.017 326.55 219.367 313.325 221.056 296.442L224.995 254.797L190.103 250.295Z" fill="#FFE5EF"/>
<path d="M143.956 244.105C145.645 239.321 143.675 228.629 141.143 223.845" stroke="#333333" stroke-width="0.3384" stroke-miterlimit="10" stroke-linecap="round" stroke-linejoin="round"/>
<path d="M149.022 222.156C148.74 228.347 153.242 232.568 158.307 231.724" stroke="#333333" stroke-width="0.3384" stroke-miterlimit="10" stroke-linecap="round" stroke-linejoin="round"/>
<path d="M149.022 222.156C148.74 228.347 153.242 232.568 158.307 231.724" stroke="#FFBED7" stroke-width="0.6709" stroke-miterlimit="10" stroke-linecap="round" stroke-linejoin="round"/>
<path d="M143.956 244.105C145.645 239.321 143.675 228.629 141.143 223.845" stroke="#FFBED7" stroke-width="0.6709" stroke-miterlimit="10" stroke-linecap="round" stroke-linejoin="round"/>
<path d="M190.103 250.295L224.995 255.078L223.588 269.148C212.051 264.083 200.515 259.299 189.259 256.767L190.103 250.295Z" fill="#FFD0DD"/>
<path d="M376.661 245.23C373.566 219.061 345.146 197.395 307.441 190.079C305.189 189.797 303.501 187.828 302.938 185.577C302.657 183.607 301.25 181.919 299.28 181.356C286.9 177.135 274.8 177.135 262.419 181.356C260.45 181.919 259.324 183.607 258.761 185.577C258.198 187.828 256.51 189.516 254.259 190.079C214.021 197.676 184.757 221.594 184.757 250.014L216.272 258.174C218.805 258.736 220.493 261.269 220.493 263.801L214.303 347.091C214.021 350.186 216.554 353 219.649 353H341.488C344.865 353 347.397 350.186 346.834 347.091L338.674 264.083C338.393 261.269 340.081 258.736 342.895 258.174L372.159 250.858C374.973 250.576 376.942 248.044 376.661 245.23Z" fill="#FF5F87"/>
<path opacity="0.5" d="M302.657 196.269L294.497 207.243C293.09 208.931 290.558 209.212 289.151 207.806L283.242 202.178C281.835 200.771 279.584 200.771 278.177 202.178L272.268 207.806C270.579 209.212 268.047 209.212 266.921 207.243L258.761 196.269" stroke="white" stroke-width="0.6298" stroke-miterlimit="10" stroke-linecap="round" stroke-linejoin="round"/>
<path d="M280.709 210.621C281.641 210.621 282.397 209.865 282.397 208.932C282.397 208 281.641 207.244 280.709 207.244C279.777 207.244 279.021 208 279.021 208.932C279.021 209.865 279.777 210.621 280.709 210.621Z" fill="#E5E5E5"/>
<path d="M280.709 215.968C281.642 215.968 282.398 215.213 282.398 214.28C282.398 213.348 281.642 212.592 280.709 212.592C279.777 212.592 279.021 213.348 279.021 214.28C279.021 215.213 279.777 215.968 280.709 215.968Z" fill="#E5E5E5"/>
<path d="M295.059 140.274L263.544 141.118L261.575 181.074C260.449 192.33 269.453 193.737 280.427 193.455C291.683 193.174 300.406 191.204 298.717 180.23L295.059 140.274Z" fill="#FFDBE5"/>
<path d="M288.306 159.127C282.397 163.911 274.8 181.075 273.393 193.174C266.921 192.612 262.137 190.361 261.575 183.889C261.575 182.763 261.575 181.638 261.575 181.075C261.575 181.075 261.575 181.075 261.575 180.794L262.419 160.534L288.306 159.127Z" fill="#FFD0DD"/>
<path d="M234.562 119.452C233.999 98.9112 250.882 81.7468 271.704 82.3095C290.276 82.8723 305.752 97.5043 307.159 116.076C307.721 124.517 305.47 132.396 300.968 138.868C297.029 144.495 293.652 150.686 289.994 156.595C284.367 166.162 273.393 172.071 261.012 170.664C249.194 169.257 239.064 160.534 235.969 148.997C235.125 145.621 234.843 142.526 235.125 139.149C235.687 133.24 235.125 127.331 234.562 121.422C234.562 120.859 234.562 120.296 234.562 119.452Z" fill="#FFE5EF"/>
<path d="M292.808 116.919L309.691 118.608C308.003 133.521 295.622 147.028 295.622 147.028L293.371 140.556C290.276 132.114 293.09 125.08 292.808 116.919Z" fill="#5A5A5A"/>
<path d="M257.917 103.131C257.917 103.131 265.514 100.599 270.579 104.257C274.237 106.789 264.107 96.941 264.107 96.941L245.817 97.2224L244.973 103.413C244.973 103.694 252.289 98.9107 257.917 103.131Z" fill="#5A5A5A"/>
<path d="M289.713 122.547C276.207 121.984 273.111 109.603 270.579 103.976C268.328 99.1921 261.012 98.6293 258.198 102.85C255.384 98.6293 249.475 98.6293 246.661 102.85C244.692 105.664 243.285 109.322 241.596 112.98C240.19 116.638 239.064 118.889 235.969 119.452C235.406 119.452 235.125 120.014 235.125 120.577C235.406 122.266 235.406 125.079 235.406 125.079C223.869 123.672 227.809 76.1187 254.259 73.3048C264.107 72.1793 267.202 74.4304 268.047 75.8373C268.328 76.1187 268.891 76.4 269.172 75.8373C270.298 74.9931 272.267 73.5862 275.925 73.5862C283.804 73.5862 295.904 79.7766 301.531 84.8416C311.098 93.8458 313.631 114.387 310.817 118.326C307.44 122.828 302.094 123.11 289.713 122.547Z" fill="#333333"/>
<path d="M290.839 131.27C290.839 127.331 293.652 124.236 297.029 124.517C300.124 124.517 302.657 127.331 302.938 130.708C302.938 132.396 302.657 133.803 301.813 134.928C301.25 136.054 300.687 137.18 300.124 138.305C299.28 139.993 297.31 141.119 295.341 140.838C293.371 140.556 291.683 138.868 291.12 136.898C290.839 136.335 290.839 135.773 290.839 135.21C290.839 134.084 290.839 132.959 290.839 131.833C290.839 131.552 290.839 131.27 290.839 131.27Z" fill="#FFE5EF"/>
<path d="M248.631 133.521C250.807 133.521 252.57 131.001 252.57 127.893C252.57 124.785 250.807 122.266 248.631 122.266C246.455 122.266 244.692 124.785 244.692 127.893C244.692 131.001 246.455 133.521 248.631 133.521Z" fill="white"/>
<path d="M268.328 133.521C270.503 133.521 272.267 131.001 272.267 127.893C272.267 124.785 270.503 122.266 268.328 122.266C266.152 122.266 264.388 124.785 264.388 127.893C264.388 131.001 266.152 133.521 268.328 133.521Z" fill="white"/>
<path d="M247.224 131.269C248.623 131.269 249.757 129.757 249.757 127.893C249.757 126.028 248.623 124.516 247.224 124.516C245.825 124.516 244.692 126.028 244.692 127.893C244.692 129.757 245.825 131.269 247.224 131.269Z" fill="#333333"/>
<path d="M266.921 131.269C268.164 131.269 269.172 129.757 269.172 127.893C269.172 126.028 268.164 124.516 266.921 124.516C265.678 124.516 264.67 126.028 264.67 127.893C264.67 129.757 265.678 131.269 266.921 131.269Z" fill="#333333"/>
<path d="M252.289 141.118C252.852 146.745 255.665 150.966 258.479 150.685C261.574 150.403 263.544 145.62 262.981 139.992L252.289 141.118Z" fill="#FF97BF"/>
<path d="M258.198 126.486C258.198 126.486 258.761 126.205 258.198 126.486C257.354 127.049 253.978 128.456 253.978 130.707C253.978 132.958 255.947 134.928 258.198 134.928" stroke="#FFBED7" stroke-width="0.6298" stroke-miterlimit="10" stroke-linecap="round" stroke-linejoin="round"/>
<path d="M296.748 135.209C295.903 134.365 295.903 132.677 296.748 131.833L297.873 130.707" stroke="#FFBED7" stroke-width="0.6298" stroke-miterlimit="10" stroke-linecap="round" stroke-linejoin="round"/>
</g>
</g>
<defs>
<filter id="filter0_d" x="88" y="18" width="385.699" height="355" filterUnits="userSpaceOnUse" color-interpolation-filters="sRGB">
<feFlood flood-opacity="0" result="BackgroundImageFix"/>
<feColorMatrix in="SourceAlpha" type="matrix" values="0 0 0 0 0 0 0 0 0 0 0 0 0 0 0 0 0 0 127 0"/>
<feOffset dy="4"/>
<feGaussianBlur stdDeviation="8"/>
<feColorMatrix type="matrix" values="0 0 0 0 0 0 0 0 0 0 0 0 0 0 0 0 0 0 0.08 0"/>
<feBlend mode="normal" in2="BackgroundImageFix" result="effect1_dropShadow"/>
<feBlend mode="normal" in="SourceGraphic" in2="effect1_dropShadow" result="shape"/>
</filter>
</defs>
</svg>
