<svg width="382" height="348" viewBox="0 0 382 348" fill="none" xmlns="http://www.w3.org/2000/svg">
<mask id="mask0" mask-type="alpha" maskUnits="userSpaceOnUse" x="0" y="0" width="382" height="348">
<path d="M382 324C382 337.255 371.255 348 358 348L24 348C10.7452 348 2.95782e-05 337.255 2.84194e-05 324L2.19259e-06 24C1.03382e-06 10.7452 10.7452 1.93855e-06 24 7.79773e-07L358 -2.84194e-05C371.255 -2.95782e-05 382 10.7451 382 24L382 324Z" fill="#3C6EE6"/>
</mask>
<g mask="url(#mask0)">
<path d="M317.75 141.075H284.062L281.039 182.527C279.664 194.413 288.939 196.199 300.917 196.199C312.872 196.199 322.17 194.39 320.795 182.527L317.75 141.075Z" fill="#FFDAE4"/>
<path d="M280.9 184.977C281.015 192.259 286.008 194.939 293.222 195.809C295.214 183.19 303.687 163.106 309.985 158.113L282.733 159.098L281.015 182.526C281.015 182.549 281.015 182.572 281.015 182.595L280.992 182.916V182.938C280.969 183.213 280.946 183.465 280.946 183.74C280.923 184.084 280.923 184.496 280.9 184.977Z" fill="#FFCDDC"/>
<path d="M253.969 117.464C253.969 95.4554 272.336 77.7525 294.573 78.8288C314.291 79.7907 330.46 96.0278 331.307 115.769C331.697 124.838 328.948 133.22 324.093 139.999C319.788 145.999 315.917 152.274 311.955 158.503C305.612 168.465 293.84 174.626 280.786 172.771C268.168 170.962 257.747 161.366 254.839 148.953C253.992 145.381 253.808 141.9 254.129 138.579C254.747 132.304 254.404 125.983 254.037 119.708C253.992 118.929 253.969 118.197 253.969 117.464Z" fill="#FFE4EE"/>
<path d="M315.161 131.479C315.161 127.426 318.207 124.174 321.894 124.357C325.169 124.54 327.849 127.517 327.986 131.159C328.055 132.831 327.597 134.365 326.795 135.625C326.085 136.724 325.444 137.892 324.78 139.037C323.726 140.869 321.78 142.014 319.604 141.671C317.52 141.35 315.779 139.564 315.298 137.296C315.161 136.632 315.138 135.991 315.184 135.396C315.298 134.25 315.23 133.082 315.161 131.914C315.184 131.731 315.161 131.617 315.161 131.479Z" fill="#FFE4EE"/>
<path d="M267.595 136.289C269.922 136.289 271.809 133.664 271.809 130.426C271.809 127.188 269.922 124.563 267.595 124.563C265.268 124.563 263.381 127.188 263.381 130.426C263.381 133.664 265.268 136.289 267.595 136.289Z" fill="white"/>
<path d="M288.458 136.289C290.785 136.289 292.672 133.664 292.672 130.426C292.672 127.188 290.785 124.563 288.458 124.563C286.131 124.563 284.244 127.188 284.244 130.426C284.244 133.664 286.131 136.289 288.458 136.289Z" fill="white"/>
<path d="M265.992 134.045C267.421 134.045 268.58 132.424 268.58 130.426C268.58 128.428 267.421 126.808 265.992 126.808C264.563 126.808 263.404 128.428 263.404 130.426C263.404 132.424 264.563 134.045 265.992 134.045Z" fill="#2D2D37"/>
<path d="M286.763 133.93C288.155 133.93 289.282 132.361 289.282 130.426C289.282 128.491 288.155 126.922 286.763 126.922C285.372 126.922 284.244 128.491 284.244 130.426C284.244 132.361 285.372 133.93 286.763 133.93Z" fill="#2D2D37"/>
<path d="M322.948 131.296L321.94 132.304C320.933 133.311 320.933 134.96 321.94 135.968" stroke="#FFBED2" stroke-width="1.87563" stroke-miterlimit="10" stroke-linecap="round" stroke-linejoin="round"/>
<path d="M277.832 138.029C275.359 138.098 273.321 136.151 273.252 133.678C273.183 131.205 276.641 129.67 277.603 129.098V123.716" stroke="#FFBED2" stroke-width="1.87563" stroke-miterlimit="10" stroke-linecap="round" stroke-linejoin="round"/>
<path d="M254.976 102.646C266.244 92.0883 276.389 82.9506 276.687 92.1799C276.939 99.7603 264.572 118.975 254.449 124.196" fill="#2D2D37"/>
<path d="M315.184 130.15C297.825 125.914 276.458 108.142 274.008 97.0349C271.695 86.546 286.214 78.6221 301.283 78.6221" fill="#2D2D37"/>
<path d="M273.618 101.157C273.618 101.157 271.923 104.959 279.802 116.089C280.512 117.096 281.611 117.806 282.825 118.104C286.878 119.043 289.901 119.547 288.71 118.287C288.71 118.287 276.527 107.89 275.657 95.1797" fill="#2D2D37"/>
<path d="M274.214 103.356C274.214 103.356 276.504 106.173 269.839 116.433C269.152 117.486 268.099 118.265 266.885 118.631C264.801 119.295 263.244 119.57 263.724 118.906C263.724 118.906 272.404 108.944 272.656 97.2871L276.435 97.8826" fill="#2D2D37"/>
<path d="M346.628 161.136L340.101 115.448C335.544 88.2406 318.551 80.8435 312.299 78.851C309.161 77.8434 299.886 75.118 289.603 75.0035C288.412 74.9806 287.199 75.0723 286.008 75.2097C284.702 75.37 283.443 75.6448 282.206 76.1715C281.221 76.5837 280.236 77.1563 279.572 78.0036C279.412 78.1868 279.275 78.393 279.183 78.622C278.221 78.0266 276.962 78.0724 275.885 78.2556C274.649 78.4846 273.481 79.0113 272.381 79.6067C270.274 80.7518 268.305 82.1946 266.496 83.7519C264.732 85.2634 263.106 86.9581 261.641 88.7673C260.152 90.5766 258.847 92.5233 257.679 94.5615C257.312 95.1798 256.992 95.821 256.648 96.4623C256.488 96.7829 256.327 97.1035 256.167 97.4013C256.098 97.5616 256.007 97.7219 255.938 97.8822C255.892 97.9967 255.709 98.2256 255.709 98.363C252.205 106.081 250.35 113.203 249.984 117.348C249.457 123.417 248.838 133.288 248.724 137.983C248.495 147.029 247.258 157.838 246.205 169.335C245.976 171.785 247.625 174.007 250.029 174.488C258.297 176.091 269.038 176.709 281.428 176.663L281.702 172.862C281.382 172.816 281.061 172.816 280.74 172.77C268.122 170.961 257.701 161.434 254.793 149.044C253.946 145.472 253.762 141.99 254.083 138.67C254.404 135.349 254.472 132.028 254.404 128.708C254.358 123.83 255.274 118.974 257.152 114.463C260.381 106.722 265.373 98.2715 271.282 96.6913C272.335 96.4165 273.435 97.0348 273.801 98.0424C274.832 100.951 278.267 106.974 289.351 109.127C300.71 111.325 303.94 127.929 315.116 130.196C316.65 136.7 315.528 153.808 311.932 170.045C311.245 173.091 313.604 175.976 316.741 175.862C322.032 175.702 332.131 174.076 339.574 171.969C344.338 170.595 347.315 165.991 346.628 161.136Z" fill="#2D2D37"/>
<path d="M292.191 145.677C287.817 147.99 274.03 148.265 269.564 146.112C268.923 145.814 268.419 146.982 268.74 147.967C270.389 152.868 275.313 156.372 281.061 156.28C286.809 156.166 291.596 152.479 293.061 147.509C293.382 146.501 292.81 145.356 292.191 145.677Z" fill="#FF7BA4"/>
<path d="M91.2529 187.611V197.916C91.2529 201.695 94.3218 204.764 98.1006 204.764C98.1464 204.764 98.192 204.764 98.2607 204.764L104.124 211.588L97.5508 227.986C103.368 231.307 112.093 235.406 120.727 235.406H236.792V190.656H156.293C146.514 190.656 131.102 186.511 122.239 182.343C115.666 179.251 108.36 176.687 101.032 176.755C95.6501 176.801 91.2529 182.206 91.2529 187.611Z" fill="#FFE4EE"/>
<path d="M102.841 201.145H64.8476C61.0689 201.145 58 198.077 58 194.298C58 190.519 61.0689 187.45 64.8476 187.45H102.841C106.62 187.45 109.689 190.519 109.689 194.298C109.689 198.077 106.62 201.145 102.841 201.145Z" fill="#FFE4EE"/>
<path d="M108.085 228.512H90.6117C86.81 228.512 83.7412 225.42 83.7412 221.641V221.573C83.7412 217.771 86.8329 214.702 90.6117 214.702H108.085C111.887 214.702 114.956 217.794 114.956 221.573V221.641C114.956 225.443 111.864 228.512 108.085 228.512Z" fill="#FFE4EE"/>
<path d="M103.345 214.841H85.8027C82.024 214.841 78.9551 211.772 78.9551 207.993C78.9551 204.214 82.024 201.146 85.8027 201.146H103.345C107.124 201.146 110.193 204.214 110.193 207.993C110.193 211.772 107.124 214.841 103.345 214.841Z" fill="#FFE4EE"/>
<path d="M105.956 201.672C108.43 202.702 110.17 205.153 110.17 207.993C110.17 211.771 107.101 214.84 103.323 214.84H94.0244H108.086C111.865 214.84 114.934 217.909 114.934 221.688C114.934 224.367 113.399 226.68 111.155 227.803" stroke="#FFBED2" stroke-width="1.4166" stroke-miterlimit="10" stroke-linecap="round" stroke-linejoin="round"/>
<path d="M123.452 202.886C108.223 202.886 104.948 189.604 104.948 189.604V197.94C104.948 201.718 101.879 204.787 98.1006 204.787C94.3218 204.787 91.2529 201.718 91.2529 197.94V192.901" stroke="#FFBED2" stroke-width="1.4166" stroke-miterlimit="10" stroke-linecap="round" stroke-linejoin="round"/>
<path d="M227.7 190.656V235.406H230.815V190.656H227.7Z" fill="#FFCDDC"/>
<path d="M279.366 236.666H232.028C231.25 236.666 230.608 236.025 230.608 235.246V190.588C230.608 189.809 231.25 189.168 232.028 189.168H279.366C292.488 189.168 303.114 199.794 303.114 212.917C303.114 226.039 292.488 236.666 279.366 236.666Z" fill="#FFD25F"/>
<path d="M239.38 236.666H260.358L273.114 194.298C273.114 194.298 250.189 205.474 239.38 236.666Z" fill="#FFB428"/>
<path d="M343.582 193.45L322.81 183.35C312.001 178.083 299.451 177.625 288.275 182.114C270.641 189.167 257.908 204.832 254.61 223.542L233.998 340.065C233.288 344.096 236.38 347.783 240.457 347.783H355.583C359.545 347.783 362.59 344.325 362.109 340.386L343.582 193.45Z" fill="#FFD25F"/>
<path d="M351.369 255.284L301.191 223.657C301.191 223.657 307.329 258.147 353.75 274.201L351.369 255.284Z" fill="#FFB428"/>
<path d="M360.002 262.269C361.033 262.842 360.941 264.376 359.819 264.788L333.917 274.498C325.604 277.224 316.672 277.613 308.13 275.598C299.061 273.445 289.534 274.292 280.809 277.59C275.633 279.537 273.068 285.377 275.015 290.575L276.412 294.285C276.412 294.285 272.656 296.14 269.839 298.11C267.045 300.102 264.846 303.629 266.152 307.11C267.388 310.431 270.961 312.149 274.305 311.187C271.465 312.813 270.114 316.294 271.305 319.477L271.373 319.637C272.702 323.164 276.618 324.951 280.145 323.622L282.503 322.729C279.915 324.424 278.725 327.722 279.87 330.745C280.854 333.355 283.259 334.981 285.87 335.096C292.374 336.149 301.077 334.958 309.046 331.958L398.156 298.431C412.744 292.934 422.409 278.987 422.409 263.391C422.409 250.36 415.63 238.268 404.5 231.467L341.704 193.038C327.688 183.946 308.863 189.305 301.741 204.443C297.847 217.222 303.435 230.986 315.115 237.444L360.002 262.269Z" fill="#FFE4EE"/>
<path d="M364.331 264.102L369.942 264.354" stroke="#FFBED2" stroke-width="1.87563" stroke-miterlimit="10" stroke-linecap="round" stroke-linejoin="round"/>
<path d="M278.84 294.286L293.497 288.789C293.497 288.789 287.863 290.484 286.558 287.003L288 290.85" stroke="#FFBED2" stroke-width="1.87563" stroke-miterlimit="10" stroke-linecap="round" stroke-linejoin="round"/>
<path d="M284.84 321.721L287.359 320.782" stroke="#FFBED2" stroke-width="1.87563" stroke-miterlimit="10" stroke-linecap="round" stroke-linejoin="round"/>
<path d="M276.87 310.179L279.389 309.24" stroke="#FFBED2" stroke-width="1.87563" stroke-miterlimit="10" stroke-linecap="round" stroke-linejoin="round"/>
<path d="M366.483 208.198L338.383 250.314L348.574 255.971L374.178 212.916L366.483 208.198Z" fill="#FFCDDC"/>
<path d="M318.413 188.961C310.443 191.229 303.824 196.84 300.298 204.351L300.252 204.512C296.221 217.726 302.084 232.177 314.176 238.841L343.948 255.307C344.612 255.674 345.459 255.444 345.849 254.78L371.567 211.588C371.979 210.901 371.75 210.031 371.063 209.642L341.91 192.488C334.971 187.954 326.405 186.671 318.413 188.961Z" fill="#FFD25F"/>
</g>
</svg>
