<svg width="382" height="348" viewBox="0 0 382 348" fill="none" xmlns="http://www.w3.org/2000/svg">
<mask id="mask0" mask-type="alpha" maskUnits="userSpaceOnUse" x="0" y="0" width="382" height="348">
<path d="M382 348L3.05176e-05 348L2.19259e-06 24C1.03382e-06 10.7452 10.7452 2.02057e-06 24 8.61793e-07L358 -2.83374e-05C371.255 -2.94962e-05 382 10.7451 382 24L382 348Z" fill="#78CD69"/>
</mask>
<g mask="url(#mask0)">
<g filter="url(#filter0_d)">
<path d="M272 210C321.706 210 362 169.706 362 120C362 70.2944 321.706 30 272 30C222.294 30 182 70.2944 182 120C182 169.706 222.294 210 272 210Z" fill="#BEFAFF"/>
<path d="M364 251.946L366.632 282.999C366.632 283.788 367.947 284.052 368.21 283.262L378.211 252.473L381.895 242.999C382.158 242.209 382.421 241.683 382.948 240.894L395.842 204.578C396.632 201.683 399.526 200.104 402.421 201.157C405.316 202.209 406.895 204.841 405.842 207.736L403.211 215.104C402.421 217.736 404.789 220.367 407.421 219.315C411.368 217.999 415.842 217.209 420.053 217.209H437.158C440.053 217.209 442.421 219.578 442.421 222.473C442.421 225.367 440.053 227.736 437.158 227.736H421.105C420.579 227.736 420.316 228.262 420.316 228.525C420.316 229.052 420.842 229.315 421.105 229.315H439.527C442.421 229.315 444.79 231.683 444.79 234.578C444.79 237.473 442.421 239.841 439.527 239.841H421.105C420.579 239.841 420.316 240.367 420.316 240.631C420.316 241.157 420.842 241.42 421.105 241.42H434.263C437.158 241.42 439.527 243.788 439.527 246.683C439.527 249.578 437.158 251.946 434.263 251.946H420.316H414.79L396.369 302.473C391.369 314.841 379.526 322.999 366.368 322.999C350.316 322.999 336.895 310.631 335.316 294.841L331.632 255.894L364 251.946Z" fill="#FFE5EF"/>
<path d="M364 251.947L331.369 256.421L332.684 269.579C343.474 264.842 354.263 260.368 364.79 258L364 251.947Z" fill="#FFD0DD"/>
<path d="M194.526 251.948L191.895 283C191.895 283.79 190.579 284.053 190.316 283.263L180.316 252.474L176.632 243C176.369 242.211 176.105 241.684 175.579 240.895L162.948 204.842C162.158 201.948 159.263 200.369 156.369 201.421C153.474 202.474 151.895 205.105 152.948 208L155.579 215.369C156.369 218 154 220.632 151.368 219.579C147.421 218.263 142.947 217.474 138.737 217.474H121.632C118.737 217.474 116.368 219.842 116.368 222.737C116.368 225.632 118.737 228 121.632 228H137.684C138.211 228 138.474 228.526 138.474 228.79C138.474 229.316 137.947 229.579 137.684 229.579H119.263C116.368 229.579 114 231.948 114 234.842C114 237.737 116.368 240.105 119.263 240.105H137.684C138.211 240.105 138.474 240.632 138.474 240.895C138.474 241.421 137.947 241.684 137.684 241.684H124.526C121.632 241.684 119.263 244.053 119.263 246.948C119.263 249.842 121.632 252.211 124.526 252.211H138.474H144L162.421 302.737C167.421 315.105 179.263 323.263 192.421 323.263C208.474 323.263 221.895 310.895 223.474 295.105L227.158 256.158L194.526 251.948Z" fill="#FFE5EF"/>
<path d="M151.105 246.158C152.684 241.684 150.842 231.684 148.474 227.21" stroke="#333333" stroke-width="0.3384" stroke-miterlimit="10" stroke-linecap="round" stroke-linejoin="round"/>
<path d="M155.842 225.631C155.579 231.421 159.79 235.368 164.526 234.579" stroke="#333333" stroke-width="0.3384" stroke-miterlimit="10" stroke-linecap="round" stroke-linejoin="round"/>
<path d="M155.842 225.631C155.579 231.421 159.79 235.368 164.526 234.579" stroke="#FFBED7" stroke-width="0.6709" stroke-miterlimit="10" stroke-linecap="round" stroke-linejoin="round"/>
<path d="M151.105 246.158C152.684 241.684 150.842 231.684 148.474 227.21" stroke="#FFBED7" stroke-width="0.6709" stroke-miterlimit="10" stroke-linecap="round" stroke-linejoin="round"/>
<path d="M194.527 251.947L227.158 256.421L225.842 269.579C215.053 264.842 204.263 260.368 193.737 258L194.527 251.947Z" fill="#FFD0DD"/>
<path d="M368.737 247.21C365.842 222.737 339.264 202.474 304 195.631C301.895 195.368 300.316 193.526 299.79 191.421C299.526 189.579 298.211 188 296.369 187.474C284.79 183.526 273.474 183.526 261.895 187.474C260.053 188 259 189.579 258.474 191.421C257.948 193.526 256.369 195.105 254.263 195.631C216.632 202.737 189.263 225.105 189.263 251.684L218.737 259.316C221.105 259.842 222.684 262.21 222.684 264.579L216.895 342.474C216.632 345.368 219 348 221.895 348H335.842C339 348 341.369 345.368 340.842 342.474L333.211 264.842C332.948 262.211 334.527 259.842 337.158 259.316L364.527 252.474C367.421 252.21 369 249.842 368.737 247.21Z" fill="#28D2DC"/>
<path opacity="0.5" d="M299.79 201.42L292.158 211.683C290.842 213.262 288.474 213.526 287.158 212.21L281.632 206.947C280.316 205.631 278.211 205.631 276.895 206.947L271.369 212.21C269.79 213.526 267.421 213.526 266.369 211.683L258.737 201.42" stroke="white" stroke-width="0.6298" stroke-miterlimit="10" stroke-linecap="round" stroke-linejoin="round"/>
<path d="M279.264 214.844C280.136 214.844 280.842 214.137 280.842 213.265C280.842 212.393 280.136 211.686 279.264 211.686C278.392 211.686 277.685 212.393 277.685 213.265C277.685 214.137 278.392 214.844 279.264 214.844Z" fill="#E5E5E5"/>
<path d="M279.264 219.844C280.136 219.844 280.842 219.137 280.842 218.265C280.842 217.393 280.136 216.686 279.264 216.686C278.392 216.686 277.685 217.393 277.685 218.265C277.685 219.137 278.392 219.844 279.264 219.844Z" fill="#E5E5E5"/>
<path d="M294 150.631H264.527L261.895 186.684C260.579 196.947 268.737 198.526 279.264 198.526C289.79 198.526 297.685 196.947 296.632 186.684L294 150.631Z" fill="#FFDBE5"/>
<path d="M287.158 168.264C281.632 172.737 274 187.474 272.421 198.527C266.369 197.737 262.158 195.632 261.632 189.579C261.632 188.527 261.632 187.474 261.632 186.948C261.632 186.948 261.632 186.948 261.632 186.685L262.947 168.79L287.158 168.264Z" fill="#FFD0DD"/>
<path d="M238.211 130.105C238.211 110.895 254.263 95.3684 273.737 96.421C290.842 97.2105 305.053 111.421 305.842 128.526C306.105 136.421 303.737 143.789 299.526 149.579C295.842 154.842 292.421 160.368 289 165.632C283.474 174.316 273.211 179.579 261.895 178C250.842 176.421 241.895 168 239.263 157.211C238.474 154.053 238.474 151.158 238.737 148.263C239.263 142.737 239 137.211 238.737 131.684C238.211 131.421 238.211 130.632 238.211 130.105Z" fill="#FFE5EF"/>
<path d="M271.106 142.737C272.995 142.737 274.526 140.499 274.526 137.737C274.526 134.976 272.995 132.737 271.106 132.737C269.216 132.737 267.684 134.976 267.684 137.737C267.684 140.499 269.216 142.737 271.106 142.737Z" fill="white"/>
<path d="M269.79 141.421C271.098 141.421 272.158 139.889 272.158 138C272.158 136.11 271.098 134.578 269.79 134.578C268.482 134.578 267.421 136.11 267.421 138C267.421 139.889 268.482 141.421 269.79 141.421Z" fill="#333333"/>
<path d="M251.895 142.737C253.784 142.737 255.316 140.499 255.316 137.737C255.316 134.976 253.784 132.737 251.895 132.737C250.006 132.737 248.474 134.976 248.474 137.737C248.474 140.499 250.006 142.737 251.895 142.737Z" fill="white"/>
<path d="M250.579 141.421C251.887 141.421 252.948 139.889 252.948 138C252.948 136.11 251.887 134.578 250.579 134.578C249.271 134.578 248.211 136.11 248.211 138C248.211 139.889 249.271 141.421 250.579 141.421Z" fill="#333333"/>
<path d="M328.474 124.579C328.474 121.947 327.421 119.842 325.842 118C326.895 116.421 327.421 114.842 327.421 113C327.421 110.632 326.632 108.526 325.053 106.947C325.316 105.895 325.579 104.842 325.579 103.79C325.579 99.3158 322.421 95.6316 318.211 94.8421C318.211 94.579 318.211 94.3158 318.211 94.0527C318.211 90.1053 315.842 86.6842 312.158 85.3684C311.369 81.6842 308.474 78.7895 304.79 78.2632C303.474 74.8421 300.053 72.2105 296.106 72.2105C293.737 72.2105 291.895 73 290.053 74.3158C288.737 71.1579 285.316 68.7895 281.632 68.7895C279.263 68.7895 277.158 69.8421 275.316 71.1579C273.737 69.0526 271.105 68 268.211 68C264.79 68 261.895 69.8421 260.316 72.4737C258.737 70.8947 256.368 69.8421 253.737 69.8421C250.842 69.8421 248.211 71.1579 246.632 73.2632C244.263 73 241.895 73.5263 240.053 74.8421C238.474 75.8947 237.421 77.4737 236.895 79.0526C232.158 79.3158 228.474 83.2632 228.474 88.2632C228.474 88.5263 228.474 88.7895 228.474 89.0527C227.947 89.3158 227.158 89.579 226.632 90.1053C222.948 92.7369 221.895 97.7369 223.737 101.684C222.421 104.053 221.895 106.947 222.948 109.579C221.632 111.158 220.579 113.263 220.579 115.632C220.579 117.737 221.369 119.842 222.684 121.421C222.421 122.211 222.421 123 222.421 123.79C222.421 125.105 222.684 126.421 223.211 127.737C222.684 128.79 222.421 130.105 222.421 131.684C222.421 133.79 223.211 135.632 224.263 137.211C224.263 137.474 224.263 137.737 224.263 138C224.263 140.895 225.579 143.263 227.684 145.105C228.474 147.474 230.053 149.316 232.421 150.368C233.211 152.474 234.79 154.316 236.632 155.369C237.158 156.421 237.684 157.211 238.474 158C237.684 155.105 237.684 151.947 237.947 149.316C238.474 143.79 238.211 138.263 237.947 132.737C237.947 132.211 237.947 124.842 243.211 123.526C244.263 123.263 245.579 122.737 246.369 121.947C247.158 122.474 248.211 122.737 249.526 122.737C251.105 122.737 252.684 121.947 253.737 120.895C255.053 121.684 256.632 122.211 258.474 122.211C260.316 122.211 262.158 121.684 263.737 120.632C264.79 121.158 266.106 121.421 267.421 121.421C268.211 121.421 269 121.421 269.79 121.158C271.369 122.211 273.211 123 275.316 123C276.369 123 277.158 122.737 278.211 122.474C278.211 122.737 278.211 122.737 278.211 123C278.211 126.947 280.842 130.368 284.264 131.684C284 132.737 283.737 133.526 283.737 134.579C283.737 134.842 283.737 135.105 283.737 135.368C284 138.526 285.842 141.158 288.474 142.474L288.737 142.737C291.632 144.316 293.474 146.947 293.737 150.368L295.579 174.316C296.895 173.526 297.948 172.474 299 171.421C303.474 170.895 306.895 166.947 306.895 162.474C310.579 161.947 313.737 159.053 314.527 155.369C317.948 154.053 320.316 150.632 320.316 146.947C324.79 146.421 328.211 142.474 328.211 138C328.211 135.895 327.421 134.053 326.369 132.474C327.685 129.053 328.474 126.947 328.474 124.579Z" fill="#333333"/>
<path d="M287.947 139.053C287.947 135.632 290.579 132.737 293.737 132.737C296.632 133 299 135.632 299 138.79C299 140.369 298.737 141.685 297.948 142.737C297.421 143.79 296.895 144.579 296.106 145.632C295.316 147.211 293.474 148.264 291.632 148C289.79 147.737 288.211 146.158 287.947 144.053C287.947 143.527 287.684 143 287.947 142.474C287.947 141.421 287.947 140.369 287.947 139.316C287.947 139.316 287.947 139.316 287.947 139.053Z" fill="#FFE5EF"/>
<path d="M258.474 164.579C260.218 164.579 261.632 161.869 261.632 158.527C261.632 155.184 260.218 152.474 258.474 152.474C256.73 152.474 255.316 155.184 255.316 158.527C255.316 161.869 256.73 164.579 258.474 164.579Z" fill="#FF97BF"/>
<path d="M294.79 139.053L294 139.842C293.211 140.632 293.211 142.211 294 143" stroke="#FFBED7" stroke-width="0.6298" stroke-miterlimit="10" stroke-linecap="round" stroke-linejoin="round"/>
<path d="M260.316 146.158C258.211 146.158 256.368 144.579 256.368 142.21C256.368 140.105 259.263 138.789 260.316 138.263V133.526" stroke="#FFBED7" stroke-width="0.6298" stroke-miterlimit="10" stroke-linecap="round" stroke-linejoin="round"/>
</g>
</g>
<defs>
<filter id="filter0_d" x="98" y="18" width="362.79" height="350" filterUnits="userSpaceOnUse" color-interpolation-filters="sRGB">
<feFlood flood-opacity="0" result="BackgroundImageFix"/>
<feColorMatrix in="SourceAlpha" type="matrix" values="0 0 0 0 0 0 0 0 0 0 0 0 0 0 0 0 0 0 127 0"/>
<feOffset dy="4"/>
<feGaussianBlur stdDeviation="8"/>
<feColorMatrix type="matrix" values="0 0 0 0 0 0 0 0 0 0 0 0 0 0 0 0 0 0 0.08 0"/>
<feBlend mode="normal" in2="BackgroundImageFix" result="effect1_dropShadow"/>
<feBlend mode="normal" in="SourceGraphic" in2="effect1_dropShadow" result="shape"/>
</filter>
</defs>
</svg>
