<svg width="382" height="348" viewBox="0 0 382 348" fill="none" xmlns="http://www.w3.org/2000/svg">
<mask id="mask0" mask-type="alpha" maskUnits="userSpaceOnUse" x="0" y="0" width="382" height="348">
<path d="M382 348L3.05176e-05 348L2.19259e-06 24C1.03382e-06 10.7452 10.7452 2.02057e-06 24 8.61793e-07L358 -2.83374e-05C371.255 -2.94962e-05 382 10.7451 382 24L382 348Z" fill="#78CD69"/>
</mask>
<g mask="url(#mask0)">
<g filter="url(#filter0_d)">
<path d="M272 210C321.706 210 362 169.706 362 120C362 70.2944 321.706 30 272 30C222.294 30 182 70.2944 182 120C182 169.706 222.294 210 272 210Z" fill="#CDFFB9"/>
<path d="M365.073 247.693L367.821 280.121C367.821 280.945 369.195 281.22 369.47 280.395L379.913 248.242L383.76 238.349C384.035 237.525 384.31 236.975 384.86 236.15L398.326 198.226C399.15 195.203 402.173 193.554 405.196 194.654C408.219 195.478 409.868 198.501 408.768 201.524L406.02 209.219C405.196 211.967 407.669 214.715 410.417 213.616C414.54 212.242 419.211 211.417 423.608 211.417H441.471C444.494 211.417 446.968 213.891 446.968 216.913C446.968 219.936 444.494 222.41 441.471 222.41H424.708C424.158 222.41 423.883 222.959 423.883 223.234C423.883 223.784 424.433 224.059 424.708 224.059H443.945C446.968 224.059 449.441 226.532 449.441 229.555C449.441 232.578 446.968 235.051 443.945 235.051H424.708C424.158 235.051 423.883 235.601 423.883 235.876C423.883 236.425 424.433 236.7 424.708 236.7H438.448C441.471 236.7 443.945 239.173 443.945 242.196C443.945 245.219 441.471 247.693 438.448 247.693H423.883H418.112L398.875 300.457C393.654 313.373 381.287 321.892 367.546 321.892C350.783 321.892 336.767 308.976 335.118 292.487L331.271 251.815L365.073 247.693Z" fill="#FFE5EF"/>
<path d="M365.073 247.693L330.996 252.364L332.37 266.105C343.638 261.158 354.905 256.487 365.897 254.013L365.073 247.693Z" fill="#FFD0DD"/>
<path d="M188.093 247.693L185.345 280.121C185.345 280.946 183.971 281.22 183.696 280.396L173.253 248.243L169.406 238.349C169.131 237.525 168.856 236.975 168.306 236.151L155.115 198.501C154.291 195.478 151.268 193.83 148.245 194.929C145.222 196.028 143.573 198.776 144.672 201.799L147.421 209.494C148.245 212.242 145.772 214.99 143.024 213.891C138.901 212.517 134.229 211.692 129.832 211.692H111.97C108.947 211.692 106.473 214.166 106.473 217.189C106.473 220.212 108.947 222.685 111.97 222.685H128.733C129.283 222.685 129.558 223.235 129.558 223.509C129.558 224.059 129.008 224.334 128.733 224.334H109.496C106.473 224.334 104 226.807 104 229.83C104 232.853 106.473 235.326 109.496 235.326H128.733C129.283 235.326 129.558 235.876 129.558 236.151C129.558 236.701 129.008 236.975 128.733 236.975H114.993C111.97 236.975 109.496 239.449 109.496 242.472C109.496 245.495 111.97 247.968 114.993 247.968H129.558H135.329L154.566 300.732C159.787 313.648 172.154 322.168 185.894 322.168C202.658 322.168 216.674 309.251 218.322 292.763L222.17 252.09L188.093 247.693Z" fill="#FFE5EF"/>
<path d="M143.024 241.647C144.672 236.975 142.749 226.532 140.275 221.861" stroke="#333333" stroke-width="0.3384" stroke-miterlimit="10" stroke-linecap="round" stroke-linejoin="round"/>
<path d="M147.97 220.211C147.695 226.257 152.092 230.38 157.039 229.555" stroke="#333333" stroke-width="0.3384" stroke-miterlimit="10" stroke-linecap="round" stroke-linejoin="round"/>
<path d="M147.97 220.211C147.695 226.257 152.092 230.38 157.039 229.555" stroke="#FFBED7" stroke-width="0.6709" stroke-miterlimit="10" stroke-linecap="round" stroke-linejoin="round"/>
<path d="M143.024 241.647C144.672 236.975 142.749 226.532 140.275 221.861" stroke="#FFBED7" stroke-width="0.6709" stroke-miterlimit="10" stroke-linecap="round" stroke-linejoin="round"/>
<path d="M188.093 247.693L222.17 252.365L220.796 266.105C209.528 261.159 198.261 256.487 187.269 254.013L188.093 247.693Z" fill="#FFD0DD"/>
<path d="M370.295 242.746C367.272 217.188 339.515 196.028 302.69 188.883C300.492 188.608 298.843 186.684 298.293 184.486C298.018 182.562 296.644 180.913 294.721 180.363C282.629 176.241 270.812 176.241 258.72 180.363C256.796 180.913 255.697 182.562 255.148 184.486C254.598 186.684 252.949 188.333 250.751 188.883C211.452 196.303 182.872 219.662 182.872 247.418L213.651 255.388C216.124 255.937 217.773 258.41 217.773 260.884L211.727 342.229C211.452 345.252 213.926 348 216.948 348H335.943C339.241 348 341.714 345.252 341.164 342.229L333.195 261.159C332.92 258.41 334.569 255.937 337.317 255.388L365.897 248.242C368.646 247.968 370.569 245.494 370.295 242.746Z" fill="#82E155"/>
<path opacity="0.5" d="M298.018 194.928L290.049 205.646C288.675 207.295 286.201 207.569 284.827 206.195L279.056 200.699C277.682 199.325 275.484 199.325 274.11 200.699L268.338 206.195C266.69 207.569 264.216 207.569 263.117 205.646L255.147 194.928" stroke="white" stroke-width="0.6298" stroke-miterlimit="10" stroke-linecap="round" stroke-linejoin="round"/>
<path d="M276.583 208.945C277.494 208.945 278.232 208.206 278.232 207.296C278.232 206.385 277.494 205.647 276.583 205.647C275.672 205.647 274.934 206.385 274.934 207.296C274.934 208.206 275.672 208.945 276.583 208.945Z" fill="#E5E5E5"/>
<path d="M276.583 214.166C277.494 214.166 278.232 213.428 278.232 212.517C278.232 211.606 277.494 210.868 276.583 210.868C275.672 210.868 274.934 211.606 274.934 212.517C274.934 213.428 275.672 214.166 276.583 214.166Z" fill="#E5E5E5"/>
<path d="M291.973 138.042H260.919L258.171 179.539C256.797 190.532 265.591 192.181 276.583 192.181C287.576 192.181 296.095 190.532 294.996 179.539L291.973 138.042Z" fill="#FFDBE5"/>
<path d="M284.828 156.455C279.057 161.127 271.087 180.089 269.163 191.632C262.843 190.807 258.171 188.609 257.896 182.288C257.896 181.189 257.896 180.089 257.896 179.54V179.265L259.27 157.28L284.828 156.455Z" fill="#FFD0DD"/>
<path d="M233.438 119.08C233.438 98.7435 250.476 82.5295 270.812 83.354C288.95 84.1784 303.79 99.2932 304.614 117.431C304.889 125.675 302.416 133.645 298.019 139.691C294.171 145.187 289.499 149.309 285.927 155.08C280.156 164.149 266.965 168.821 256.797 166.623C246.629 164.424 238.659 155.355 237.01 147.935C236.186 144.637 236.186 140.515 235.911 137.492C235.636 131.996 233.987 126.775 233.438 121.003C233.437 120.454 233.438 119.904 233.438 119.08Z" fill="#FFE5EF"/>
<path d="M293.072 153.158C293.072 153.158 314.233 142.44 310.111 117.157C305.988 92.1491 293.072 85.2787 287.301 83.355C281.53 81.4314 253.224 71.5381 240.033 92.4239C226.842 113.31 230.689 122.653 234.537 128.15C234.537 128.15 238.934 102.867 249.377 99.8439C250.476 99.5691 251.575 100.119 251.85 101.218C252.949 103.966 255.972 109.462 266.14 111.386C279.881 114.134 280.98 124.577 286.751 126.226C292.248 127.6 291.973 145.188 293.072 153.158Z" fill="#333333"/>
<path d="M289.774 131.996C289.774 128.149 292.523 125.126 296.095 125.401C299.118 125.675 301.591 128.423 301.591 131.721C301.591 133.37 301.317 134.744 300.492 135.843C299.943 136.943 299.118 138.042 298.568 138.866C297.469 140.515 295.82 141.615 293.897 141.34C291.973 141.065 290.324 139.416 290.049 137.218C290.049 136.668 289.774 136.118 290.049 135.569C290.049 134.469 290.049 133.37 290.049 132.271C289.774 132.271 289.774 132.271 289.774 131.996Z" fill="#FFE5EF"/>
<path d="M316.161 99.6743C321.419 94.4156 320.723 85.1935 314.606 79.0763C308.489 72.959 299.267 72.2631 294.008 77.5218C288.749 82.7805 289.445 92.0025 295.563 98.1197C301.68 104.237 310.902 104.933 316.161 99.6743Z" fill="#333333"/>
<path d="M247.728 132.271C249.853 132.271 251.575 129.81 251.575 126.775C251.575 123.739 249.853 121.278 247.728 121.278C245.603 121.278 243.88 123.739 243.88 126.775C243.88 129.81 245.603 132.271 247.728 132.271Z" fill="white"/>
<path d="M266.965 132.271C269.09 132.271 270.812 129.81 270.812 126.775C270.812 123.739 269.09 121.278 266.965 121.278C264.84 121.278 263.118 123.739 263.118 126.775C263.118 129.81 264.84 132.271 266.965 132.271Z" fill="white"/>
<path d="M246.354 130.073C247.72 130.073 248.827 128.597 248.827 126.776C248.827 124.954 247.72 123.478 246.354 123.478C244.988 123.478 243.88 124.954 243.88 126.776C243.88 128.597 244.988 130.073 246.354 130.073Z" fill="#333333"/>
<path d="M265.591 130.073C266.805 130.073 267.79 128.597 267.79 126.776C267.79 124.954 266.805 123.478 265.591 123.478C264.377 123.478 263.393 124.954 263.393 126.776C263.393 128.597 264.377 130.073 265.591 130.073Z" fill="#333333"/>
<path d="M265.041 142.165C262.018 143.539 252.675 143.539 249.927 142.165C249.377 141.89 249.102 142.714 249.377 143.539C250.476 146.837 253.774 149.31 257.621 149.31C261.469 149.31 264.766 146.837 265.866 143.539C265.866 142.714 265.591 142.165 265.041 142.165Z" fill="#FF97BF"/>
<path d="M296.919 131.996L296.095 132.82C295.27 133.645 295.27 135.294 296.095 136.118" stroke="#FFBED7" stroke-width="0.6298" stroke-miterlimit="10" stroke-linecap="round" stroke-linejoin="round"/>
<path d="M257.346 136.118C255.148 136.118 253.224 134.469 253.224 131.996C253.224 130.622 254.323 129.523 255.423 128.973C256.522 128.149 257.346 126.774 257.346 125.4V122.377" stroke="#FFBED7" stroke-width="0.6298" stroke-miterlimit="10" stroke-linecap="round" stroke-linejoin="round"/>
</g>
</g>
<defs>
<filter id="filter0_d" x="88" y="18" width="377.441" height="350" filterUnits="userSpaceOnUse" color-interpolation-filters="sRGB">
<feFlood flood-opacity="0" result="BackgroundImageFix"/>
<feColorMatrix in="SourceAlpha" type="matrix" values="0 0 0 0 0 0 0 0 0 0 0 0 0 0 0 0 0 0 127 0"/>
<feOffset dy="4"/>
<feGaussianBlur stdDeviation="8"/>
<feColorMatrix type="matrix" values="0 0 0 0 0 0 0 0 0 0 0 0 0 0 0 0 0 0 0.08 0"/>
<feBlend mode="normal" in2="BackgroundImageFix" result="effect1_dropShadow"/>
<feBlend mode="normal" in="SourceGraphic" in2="effect1_dropShadow" result="shape"/>
</filter>
</defs>
</svg>
