<svg width="382" height="348" viewBox="0 0 382 348" fill="none" xmlns="http://www.w3.org/2000/svg">
<mask id="mask0" mask-type="alpha" maskUnits="userSpaceOnUse" x="0" y="0" width="382" height="348">
<path d="M382 324C382 337.255 371.255 348 358 348L24 348C10.7452 348 2.95782e-05 337.255 2.84194e-05 324L2.19259e-06 24C1.03382e-06 10.7452 10.7452 1.93855e-06 24 7.79773e-07L358 -2.84194e-05C371.255 -2.95782e-05 382 10.7451 382 24L382 324Z" fill="#3C6EE6"/>
</mask>
<g mask="url(#mask0)">
<path d="M317.275 143.696H284.331L281.362 184.232C280.004 195.856 289.091 197.607 300.794 197.607C312.496 197.607 321.583 195.856 320.226 184.232L317.275 143.696Z" fill="#FFDAE4"/>
<path d="M309.743 163.324C303.508 168.26 295.11 184.88 293.261 197.212C286.436 196.386 281.617 193.888 281.244 187.24C281.263 185.981 281.283 184.959 281.342 184.428C281.342 184.349 281.362 184.29 281.362 184.211L282.817 164.287L309.743 163.324Z" fill="#FFCDDC"/>
<path d="M254.908 120.585C254.908 99.0681 272.865 81.7406 294.618 82.783C313.912 83.7074 329.706 99.5992 330.551 118.913C330.945 127.784 328.25 135.985 323.49 142.613C319.262 148.474 315.485 154.631 311.611 160.708C305.415 170.463 293.89 176.482 281.125 174.653C268.793 172.883 258.586 163.501 255.753 151.366C254.927 147.865 254.75 144.462 255.065 141.217C255.675 135.08 255.34 128.905 254.986 122.749C254.927 122.04 254.908 121.313 254.908 120.585Z" fill="#FFE4EE"/>
<path d="M291.53 134.805C293.68 134.805 295.424 132.348 295.424 129.318C295.424 126.287 293.68 123.83 291.53 123.83C289.379 123.83 287.635 126.287 287.635 129.318C287.635 132.348 289.379 134.805 291.53 134.805Z" fill="white"/>
<path d="M290.271 133.39C291.738 133.39 292.927 131.611 292.927 129.417C292.927 127.223 291.738 125.444 290.271 125.444C288.805 125.444 287.616 127.223 287.616 129.417C287.616 131.611 288.805 133.39 290.271 133.39Z" fill="#2D2D37"/>
<path d="M269.993 134.805C272.144 134.805 273.887 132.348 273.887 129.318C273.887 126.287 272.144 123.83 269.993 123.83C267.842 123.83 266.099 126.287 266.099 129.318C266.099 132.348 267.842 134.805 269.993 134.805Z" fill="white"/>
<path d="M268.754 133.39C270.22 133.39 271.409 131.611 271.409 129.417C271.409 127.223 270.22 125.444 268.754 125.444C267.287 125.444 266.099 127.223 266.099 129.417C266.099 131.611 267.287 133.39 268.754 133.39Z" fill="#2D2D37"/>
<path d="M356.14 114.292C356.14 111.44 354.98 108.883 353.111 107.015C354.213 105.382 354.842 103.415 354.842 101.311C354.842 98.6951 353.858 96.3153 352.246 94.5058C352.639 93.4241 352.855 92.2637 352.855 91.0443C352.855 86.0486 349.276 81.8789 344.536 80.9742C344.555 80.6792 344.575 80.3644 344.575 80.0498C344.575 75.6441 341.802 71.9072 337.908 70.4517C337.082 66.3411 333.817 63.1352 329.667 62.3878C328.251 58.4149 324.455 55.5629 320.01 55.5629C317.473 55.5629 315.152 56.4874 313.362 58.0019C311.749 54.4223 308.169 51.944 304 51.944C301.325 51.944 298.886 52.9865 297.057 54.6583C295.169 52.4161 292.356 51 289.209 51C285.453 51 282.188 53.0258 280.398 56.0351C278.53 54.1666 275.953 53.0061 273.121 53.0061C269.876 53.0061 267.004 54.5009 265.116 56.8414C262.579 56.4677 259.884 57.0381 257.642 58.6706C255.951 59.89 254.751 61.5225 254.062 63.3123C248.791 63.745 244.661 68.1506 244.661 73.5397C244.661 73.815 244.681 74.0706 244.7 74.346C243.992 74.641 243.304 75.0148 242.655 75.4868C238.505 78.4764 237.266 83.9834 239.488 88.4087C237.876 91.0442 237.541 94.3092 238.603 97.2398C237.01 99.0492 236.027 101.429 236.027 104.025C236.027 106.484 236.892 108.765 238.348 110.535C238.112 111.381 237.994 112.266 237.994 113.191C237.994 114.744 238.348 116.2 238.957 117.518C238.348 118.835 237.994 120.291 237.994 121.845C237.994 124.146 238.761 126.25 240.019 127.961C240 128.276 239.98 128.571 239.98 128.886C239.98 132.072 241.436 134.904 243.697 136.792C244.582 139.349 246.471 141.454 248.89 142.634C249.755 145.014 251.447 146.98 253.649 148.18C254.161 149.242 254.869 150.206 255.695 151.032C254.948 147.669 254.77 144.384 255.085 141.237C255.695 135.101 255.361 128.925 255.007 122.769C254.967 122.12 254.948 113.958 260.809 112.404C262.107 112.069 263.326 111.46 264.29 110.594C265.273 111.204 266.453 111.558 267.693 111.558C269.581 111.558 271.292 110.752 272.491 109.454C274.006 110.358 275.776 110.87 277.684 110.87C279.828 110.87 281.814 110.221 283.447 109.1C284.686 109.631 286.062 109.945 287.498 109.945C288.442 109.945 289.347 109.808 290.213 109.572C291.924 110.85 294.028 111.617 296.329 111.617C297.45 111.617 298.532 111.44 299.535 111.106C299.535 111.283 299.516 111.44 299.516 111.617C299.516 116.101 302.387 119.897 306.38 121.294C306.026 122.336 305.829 123.438 305.829 124.598C305.829 124.854 305.849 125.129 305.868 125.385C306.124 128.807 308.287 131.797 311.297 133.449L311.592 133.606C314.719 135.298 316.784 138.464 317.06 142.024L319.144 168.773C320.639 167.966 321.937 166.806 322.862 165.39C327.897 164.741 331.811 160.433 331.811 155.221C331.811 155.182 331.811 155.143 331.811 155.103C336.059 154.494 339.461 151.288 340.346 147.157C344.103 145.623 346.739 141.945 346.739 137.658C346.739 137.618 346.739 137.579 346.739 137.54C351.695 136.812 355.511 132.564 355.511 127.391C355.511 125.09 354.744 122.985 353.465 121.274C355.117 119.386 356.14 116.967 356.14 114.292Z" fill="#2D2D37"/>
<path d="M310.687 130.794C310.687 126.841 313.657 123.635 317.276 123.831C320.482 124.008 323.098 126.939 323.235 130.479C323.294 132.112 322.862 133.626 322.055 134.845C321.347 135.927 320.737 137.048 320.088 138.169C319.066 139.959 317.158 141.08 315.034 140.746C312.988 140.431 311.297 138.7 310.825 136.458C310.687 135.809 310.648 135.18 310.707 134.59C310.805 133.469 310.746 132.328 310.687 131.187C310.687 131.069 310.687 130.932 310.687 130.794Z" fill="#FFE4EE"/>
<path d="M277.644 159.174C279.631 159.174 281.243 156.163 281.243 152.448C281.243 148.733 279.631 145.721 277.644 145.721C275.656 145.721 274.044 148.733 274.044 152.448C274.044 156.163 275.656 159.174 277.644 159.174Z" fill="#FF7BA4"/>
<path d="M318.299 130.637L317.315 131.62C316.332 132.604 316.332 134.216 317.315 135.219" stroke="#FFBED2" stroke-width="1.85864" stroke-miterlimit="10" stroke-linecap="round" stroke-linejoin="round"/>
<path d="M279.532 138.484C277.093 138.543 275.067 136.615 275.008 134.177C274.949 131.738 278.371 130.223 279.315 129.653V124.323" stroke="#FFBED2" stroke-width="1.85864" stroke-miterlimit="10" stroke-linecap="round" stroke-linejoin="round"/>
<path d="M98.0354 187.4L98.1338 200.971C98.1534 204.609 101.123 207.54 104.762 207.501C104.821 207.501 104.86 207.501 104.919 207.501L110.603 214.031L104.408 231.889C110.013 235.036 118.412 236.885 126.731 236.826L232.054 236.826V192.533L159.4 192.533C150.195 192.592 141.168 189.917 133.477 184.823C125.925 179.808 116.936 177.389 107.869 177.448C102.402 177.487 97.9961 181.952 98.0354 187.4Z" fill="#FFE4EE"/>
<path d="M109.305 206.046L67.6283 206.341C63.9897 206.361 61.0198 203.45 61.0001 199.811C60.9804 196.172 63.8914 193.202 67.53 193.183L109.207 192.888C112.845 192.868 115.815 195.779 115.835 199.418C115.874 203.056 112.944 206.026 109.305 206.046Z" fill="#FFE4EE"/>
<path d="M114.517 232.342L97.7204 232.46C94.0621 232.479 91.0725 229.549 91.0528 225.891V225.812C91.0332 222.154 93.9638 219.164 97.6221 219.144L114.419 219.026C118.077 219.007 121.066 221.937 121.086 225.596V225.674C121.125 229.333 118.175 232.322 114.517 232.342Z" fill="#FFE4EE"/>
<path d="M109.876 219.203L93.0004 219.321C89.3618 219.34 86.3918 216.43 86.3722 212.791C86.3525 209.152 89.2634 206.182 92.902 206.163L109.777 206.045C113.416 206.025 116.386 208.936 116.405 212.574C116.445 216.213 113.514 219.183 109.876 219.203Z" fill="#FFE4EE"/>
<path d="M112.315 206.517C114.695 207.5 116.386 209.821 116.406 212.574C116.426 216.213 113.515 219.183 109.876 219.203L100.947 219.262L114.479 219.163C118.117 219.143 121.087 222.054 121.107 225.693C121.126 228.27 119.671 230.512 117.527 231.593" stroke="#FFBED2" stroke-width="1.85864" stroke-miterlimit="10" stroke-linecap="round" stroke-linejoin="round"/>
<path d="M129.13 205.514C114.497 205.612 111.252 192.867 111.252 192.867L111.311 200.872C111.331 204.511 108.42 207.48 104.781 207.5C101.143 207.52 98.1728 204.609 98.1531 200.97L98.1138 196.132" stroke="#FFBED2" stroke-width="1.85864" stroke-miterlimit="10" stroke-linecap="round" stroke-linejoin="round"/>
<path d="M280.359 238.065H233.45C232.664 238.065 232.034 237.436 232.034 236.649V192.396C232.034 191.609 232.664 190.979 233.45 190.979H280.359C293.359 190.979 303.902 201.522 303.902 214.522C303.902 227.523 293.359 238.065 280.359 238.065Z" fill="#5F8CFF"/>
<path d="M240.728 238.065H261.517L274.144 196.093C274.164 196.093 251.447 207.166 240.728 238.065Z" fill="#3C6EE6"/>
<path d="M228.966 192.532V236.805H232.054V192.532H228.966Z" fill="#FFCDDC"/>
<path d="M344.005 195.248L323.413 185.237C312.694 180.025 300.263 179.573 289.19 183.998C271.725 191 259.098 206.518 255.833 225.045L235.398 340.497C234.69 344.49 237.758 348.148 241.81 348.148H355.885C359.799 348.148 362.828 344.706 362.336 340.832L344.005 195.248Z" fill="#5F8CFF"/>
<path d="M351.715 256.512L301.994 225.181C301.994 225.181 308.071 259.364 354.075 275.276L351.715 256.512Z" fill="#3C6EE6"/>
<path d="M360.251 263.436C361.274 264.006 361.175 265.521 360.074 265.934L334.407 275.551C326.166 278.265 317.335 278.639 308.858 276.633C299.87 274.489 290.429 275.335 281.775 278.62C276.642 280.567 274.105 286.349 276.032 291.482L277.409 295.16C277.409 295.16 273.672 296.989 270.899 298.956C268.125 300.923 265.942 304.424 267.24 307.866C268.479 311.15 272 312.862 275.304 311.918C272.492 313.53 271.154 316.992 272.334 320.119L272.393 320.277C273.711 323.777 277.605 325.548 281.087 324.23L283.427 323.345C280.851 325.017 279.69 328.281 280.811 331.271C281.775 333.847 284.175 335.48 286.771 335.598C293.202 336.64 301.856 335.46 309.743 332.49L398.033 299.251C412.489 293.803 422.068 279.977 422.068 264.537C422.068 251.615 415.341 239.637 404.327 232.891L342.137 194.853C328.251 185.845 309.586 191.155 302.545 206.143C298.69 218.809 304.216 232.439 315.801 238.851L360.251 263.436Z" fill="#FFE4EE"/>
<path d="M364.559 265.264L370.125 265.5" stroke="#FFBED2" stroke-width="1.85864" stroke-miterlimit="10" stroke-linecap="round" stroke-linejoin="round"/>
<path d="M279.826 295.181L294.341 289.733C294.341 289.733 288.755 291.405 287.457 287.963L288.893 291.778" stroke="#FFBED2" stroke-width="1.85864" stroke-miterlimit="10" stroke-linecap="round" stroke-linejoin="round"/>
<path d="M285.786 322.343L288.264 321.419" stroke="#FFBED2" stroke-width="1.85864" stroke-miterlimit="10" stroke-linecap="round" stroke-linejoin="round"/>
<path d="M277.899 310.916L280.377 309.992" stroke="#FFBED2" stroke-width="1.85864" stroke-miterlimit="10" stroke-linecap="round" stroke-linejoin="round"/>
<path d="M366.682 209.86L338.852 251.596L348.942 257.182L374.314 214.521L366.682 209.86Z" fill="#FFCDDC"/>
<path d="M319.066 190.782C311.16 193.044 304.61 198.59 301.129 206.044L301.07 206.202C297.077 219.301 302.88 233.619 314.858 240.228L344.36 256.532C345.028 256.906 345.854 256.67 346.248 256.021L371.738 213.223C372.131 212.555 371.915 211.689 371.246 211.296L342.353 194.283C335.47 189.798 326.973 188.54 319.066 190.782Z" fill="#5F8CFF"/>
</g>
</svg>
