<svg width="382" height="348" viewBox="0 0 382 348" fill="none" xmlns="http://www.w3.org/2000/svg">
<mask id="mask0" mask-type="alpha" maskUnits="userSpaceOnUse" x="0" y="0" width="382" height="348">
<path d="M382 324C382 337.255 371.255 348 358 348L24 348C10.7452 348 2.95782e-05 337.255 2.84194e-05 324L2.19259e-06 24C1.03382e-06 10.7452 10.7452 1.93855e-06 24 7.79773e-07L358 -2.84194e-05C371.255 -2.95782e-05 382 10.7451 382 24L382 324Z" fill="#3C6EE6"/>
</mask>
<g mask="url(#mask0)">
<path d="M318.655 143.097H285.258L282.249 184.184C280.872 195.965 290.097 197.755 301.957 197.755C313.817 197.755 323.021 195.965 321.664 184.184L318.655 143.097Z" fill="#FFDAE4"/>
<path d="M311.023 163.021C304.71 168.037 296.174 184.873 294.325 197.382C287.402 196.536 282.524 194.018 282.15 187.272C282.17 185.994 282.19 184.971 282.249 184.42C282.249 184.342 282.268 184.263 282.268 184.204L283.744 164.025L311.023 163.021Z" fill="#FFCDDC"/>
<path d="M254.616 120.36C254.341 98.5482 272.337 80.7682 294.405 81.5549C313.974 82.263 330.181 98.1745 331.282 117.705C331.774 126.693 329.178 135.033 324.418 141.798C320.209 147.797 316.453 154.071 312.598 160.306C306.441 170.258 294.818 176.513 281.876 174.821C269.347 173.189 258.904 163.787 255.855 151.534C254.99 148.014 254.754 144.552 255.029 141.267C255.58 135.033 255.147 128.778 254.714 122.543C254.655 121.816 254.636 121.088 254.616 120.36Z" fill="#FFE4EE"/>
<path d="M319.736 157.848C319.736 157.848 324.751 149.942 330.495 140.029C335.844 130.824 337.418 121.285 336.788 110.822C336.159 100.378 328.429 90.6423 324.358 86.6496C320.287 82.6767 311.712 77.4254 303.923 75.7142C296.134 74.0031 296.665 75.8912 294.64 75.9896C292.633 76.0879 292.633 75.0062 290.47 75.0062C288.306 75.0062 269.346 74.6325 259.139 85.8236C248.931 97.0148 247.279 107.341 251.271 122.269C254.733 135.25 255.244 134.974 255.264 135.918C255.736 129.88 255.126 128.582 254.713 122.544C254.654 121.816 254.635 121.089 254.615 120.341C254.615 120.322 254.615 120.302 254.615 120.302C254.595 117.804 257.034 115.994 259.434 116.742L268.501 119.515C269.425 119.771 270.172 118.768 269.681 117.961L268.855 116.604L281.01 120.007C281.934 120.262 282.681 119.259 282.19 118.453L281.364 117.096L293.519 120.498C294.443 120.754 295.19 119.751 294.699 118.945L293.872 117.588L294.325 117.706C305.89 120.853 315.134 121.246 318.143 143.078" fill="#2D2D37"/>
<path d="M315.449 133.499C315.39 129.487 318.379 126.202 322.037 126.359C325.283 126.497 327.977 129.428 328.154 133.027C328.233 134.679 327.8 136.213 327.013 137.472C326.325 138.573 325.696 139.734 325.066 140.874C324.044 142.704 322.116 143.864 319.972 143.549C317.887 143.254 316.157 141.504 315.645 139.262C315.508 138.613 315.468 137.983 315.508 137.374C315.606 136.233 315.527 135.072 315.449 133.932C315.468 133.774 315.449 133.637 315.449 133.499Z" fill="#FFE4EE"/>
<path d="M268.167 136.627C270.469 136.627 272.336 134.029 272.336 130.825C272.336 127.621 270.469 125.023 268.167 125.023C265.864 125.023 263.997 127.621 263.997 130.825C263.997 134.029 265.864 136.627 268.167 136.627Z" fill="white"/>
<path d="M288.858 136.627C291.16 136.627 293.027 134.029 293.027 130.825C293.027 127.621 291.16 125.023 288.858 125.023C286.555 125.023 284.688 127.621 284.688 130.825C284.688 134.029 286.555 136.627 288.858 136.627Z" fill="white"/>
<path d="M266.574 134.404C267.997 134.404 269.15 132.801 269.15 130.824C269.15 128.847 267.997 127.245 266.574 127.245C265.151 127.245 263.997 128.847 263.997 130.824C263.997 132.801 265.151 134.404 266.574 134.404Z" fill="#2D2D37"/>
<path d="M287.186 134.286C288.555 134.286 289.664 132.736 289.664 130.824C289.664 128.912 288.555 127.362 287.186 127.362C285.818 127.362 284.708 128.912 284.708 130.824C284.708 132.736 285.818 134.286 287.186 134.286Z" fill="#2D2D37"/>
<path d="M278.14 156.297C280.149 156.272 281.74 153.196 281.694 149.427C281.647 145.658 279.98 142.623 277.971 142.648C275.961 142.673 274.37 145.749 274.417 149.517C274.464 153.286 276.131 156.321 278.14 156.297Z" fill="#FF7BA4"/>
<path d="M323.159 133.244L322.176 134.247C321.173 135.27 321.212 136.902 322.215 137.886" stroke="#FFBED2" stroke-width="1.85864" stroke-miterlimit="10" stroke-linecap="round" stroke-linejoin="round"/>
<path d="M278.335 138.377C275.896 138.436 273.87 136.509 273.811 134.07C273.752 131.631 277.175 130.117 278.119 129.546V126.518" stroke="#FFBED2" stroke-width="1.85864" stroke-miterlimit="10" stroke-linecap="round" stroke-linejoin="round"/>
<path d="M98.0344 187.311L98.1328 200.882C98.1525 204.521 101.122 207.451 104.761 207.412C104.82 207.412 104.859 207.412 104.918 207.412L110.602 213.942L104.407 231.8C110.012 234.947 118.411 236.796 126.73 236.737L232.053 236.737V192.444L159.399 192.444C150.194 192.503 141.167 189.829 133.476 184.735C125.924 179.719 116.936 177.3 107.869 177.359C102.381 177.398 97.9951 181.863 98.0344 187.311Z" fill="#FFE4EE"/>
<path d="M109.305 205.957L67.6283 206.252C63.9897 206.272 61.0198 203.361 61.0001 199.722C60.9804 196.084 63.8914 193.114 67.53 193.094L109.207 192.799C112.845 192.779 115.815 195.69 115.835 199.329C115.874 202.967 112.944 205.937 109.305 205.957Z" fill="#FFE4EE"/>
<path d="M114.517 232.253L97.7204 232.371C94.0621 232.391 91.0725 229.46 91.0528 225.802V225.723C91.0332 222.065 93.9638 219.075 97.6221 219.056L114.419 218.938C118.077 218.918 121.066 221.848 121.086 225.507V225.585C121.125 229.244 118.175 232.233 114.517 232.253Z" fill="#FFE4EE"/>
<path d="M109.876 219.114L93.0004 219.232C89.3618 219.252 86.3918 216.341 86.3722 212.702C86.3525 209.064 89.2634 206.094 92.902 206.074L109.777 205.956C113.416 205.936 116.386 208.847 116.405 212.486C116.425 216.124 113.514 219.094 109.876 219.114Z" fill="#FFE4EE"/>
<path d="M112.315 206.428C114.695 207.411 116.386 209.732 116.406 212.485C116.426 216.124 113.515 219.094 109.876 219.114L100.947 219.173L114.478 219.074C118.117 219.055 121.087 221.966 121.107 225.604C121.126 228.181 119.671 230.423 117.527 231.505" stroke="#FFBED2" stroke-width="1.85864" stroke-miterlimit="10" stroke-linecap="round" stroke-linejoin="round"/>
<path d="M129.13 205.425C114.497 205.523 111.252 192.778 111.252 192.778L111.311 200.783C111.331 204.422 108.42 207.392 104.781 207.411C101.143 207.431 98.1727 204.52 98.153 200.881L98.1138 196.043" stroke="#FFBED2" stroke-width="1.85864" stroke-miterlimit="10" stroke-linecap="round" stroke-linejoin="round"/>
<path d="M280.359 237.976H233.45C232.664 237.976 232.034 237.347 232.034 236.56V192.307C232.034 191.52 232.664 190.891 233.45 190.891H280.359C293.359 190.891 303.901 201.433 303.901 214.433C303.901 227.434 293.359 237.976 280.359 237.976Z" fill="#5F8CFF"/>
<path d="M240.728 237.976H261.517L274.144 196.004C274.144 196.004 251.427 207.078 240.728 237.976Z" fill="#3C6EE6"/>
<path d="M228.966 192.444V236.717H232.034V192.444H228.966Z" fill="#FFCDDC"/>
<path d="M343.986 195.159L323.394 185.148C312.675 179.936 300.244 179.484 289.171 183.909C271.706 190.911 259.079 206.429 255.814 224.956L235.379 340.408C234.671 344.401 237.739 348.059 241.791 348.059H355.866C359.78 348.059 362.809 344.617 362.317 340.743L343.986 195.159Z" fill="#5F8CFF"/>
<path d="M351.716 256.424L301.995 225.093C301.995 225.093 308.073 259.276 354.076 275.188L351.716 256.424Z" fill="#3C6EE6"/>
<path d="M360.252 263.349C361.275 263.919 361.177 265.434 360.075 265.847L334.408 275.464C326.167 278.178 317.336 278.552 308.86 276.546C299.871 274.402 290.43 275.248 281.776 278.533C276.643 280.48 274.106 286.262 276.033 291.395L277.41 295.073C277.41 295.073 273.673 296.903 270.9 298.869C268.127 300.836 265.944 304.337 267.242 307.779C268.481 311.064 272.001 312.775 275.306 311.831C272.493 313.443 271.156 316.905 272.336 320.032L272.395 320.19C273.713 323.691 277.607 325.461 281.088 324.143L283.429 323.258C280.852 324.93 279.692 328.194 280.813 331.184C281.777 333.761 284.176 335.393 286.772 335.511C293.204 336.553 301.858 335.373 309.745 332.403L398.035 299.164C412.491 293.716 422.069 279.89 422.069 264.45C422.069 251.528 415.343 239.55 404.329 232.804L342.118 194.766C328.233 185.758 309.568 191.068 302.526 206.056C298.671 218.722 304.198 232.352 315.783 238.764L360.252 263.349Z" fill="#FFE4EE"/>
<path d="M364.56 265.177L370.126 265.413" stroke="#FFBED2" stroke-width="1.85864" stroke-miterlimit="10" stroke-linecap="round" stroke-linejoin="round"/>
<path d="M366.684 209.773L338.833 251.509L348.943 257.095L374.295 214.434L366.684 209.773Z" fill="#FFCDDC"/>
<path d="M319.068 190.695C311.161 192.956 304.612 198.503 301.13 205.957L301.072 206.115C297.079 219.213 302.881 233.532 314.859 240.14L344.361 256.445C345.03 256.819 345.856 256.583 346.249 255.934L371.739 213.136C372.132 212.467 371.916 211.602 371.247 211.208L342.355 194.196C335.451 189.711 326.974 188.452 319.068 190.695Z" fill="#5F8CFF"/>
<path d="M279.829 295.094L294.344 289.646C294.344 289.646 288.758 291.317 287.46 287.875L288.896 291.691" stroke="#FFBED2" stroke-width="1.85864" stroke-miterlimit="10" stroke-linecap="round" stroke-linejoin="round"/>
<path d="M285.771 322.256L288.268 321.332" stroke="#FFBED2" stroke-width="1.85864" stroke-miterlimit="10" stroke-linecap="round" stroke-linejoin="round"/>
<path d="M277.883 310.829L280.381 309.905" stroke="#FFBED2" stroke-width="1.85864" stroke-miterlimit="10" stroke-linecap="round" stroke-linejoin="round"/>
</g>
</svg>
