<svg width="193" height="243" viewBox="0 0 193 243" fill="none" xmlns="http://www.w3.org/2000/svg">
<path fill-rule="evenodd" clip-rule="evenodd" d="M193 219.267V221.5C193 233.374 183.374 243 171.5 243H0L4.59598 214.666L14.2493 158.488C12.7436 157.493 11.84 155.727 12.0565 153.856C14.8204 130.033 40.489 110.348 74.782 103.931C76.8166 103.547 78.4288 102.01 78.8127 99.9734C79.1276 98.3369 80.2106 96.9413 81.7361 96.3188C81.7521 96.1307 81.7714 95.9394 81.7941 95.745L82.3421 88.2448C81.9435 88.2047 81.5432 88.1559 81.1416 88.0983C70.2779 86.5486 61.2952 78.2619 58.7872 67.5675C58.0706 64.4936 57.9042 61.4838 58.1858 58.6277C58.7232 53.2228 58.4289 47.7795 58.109 42.349C58.0706 41.7086 58.0578 41.0682 58.0578 40.4278C58.0578 40.2156 58.0598 40.0038 58.0637 39.7925C58.0523 40.0006 58.0443 40.2086 58.0443 40.4166C58.0443 41.057 58.0571 41.6974 58.0955 42.325C58.249 44.8609 58.3898 47.3969 58.441 49.9328C53.7449 31.4 51.3776 15.4543 68.3322 5.8101C78.6201 0.456461 96.7263 -1.20855 109.919 4.4909L111.416 5.1441C121.346 9.43469 128.422 20.1676 128.371 30.9773C128.345 40.9289 125.645 49.8431 121.384 56.3879C119.5 59.2793 117 62.9109 113.617 66.9802L113.442 67.25L115.524 95.745C115.545 95.9302 115.564 96.1125 115.579 96.292C117.14 96.9005 118.25 98.313 118.57 99.9734C118.966 101.997 120.566 103.547 122.6 103.931C156.868 110.335 182.523 129.995 185.313 153.792C185.549 155.852 184.428 157.786 182.644 158.706L192.225 214.461L193 219.267Z" fill="#EBEBEB"/>
</svg>
