<svg width="382" height="348" viewBox="0 0 382 348" fill="none" xmlns="http://www.w3.org/2000/svg">
<mask id="mask0" mask-type="alpha" maskUnits="userSpaceOnUse" x="0" y="0" width="382" height="348">
<path d="M382 324C382 337.255 371.255 348 358 348L24 348C10.7452 348 2.95782e-05 337.255 2.84194e-05 324L2.19259e-06 24C1.03382e-06 10.7452 10.7452 1.93855e-06 24 7.79773e-07L358 -2.84194e-05C371.255 -2.95782e-05 382 10.7451 382 24L382 324Z" fill="#F04682"/>
</mask>
<g mask="url(#mask0)">
<path d="M318.414 142.989H285.037L282.028 184.056C280.651 195.837 289.856 197.608 301.716 197.608C313.576 197.608 322.78 195.818 321.404 184.056L318.414 142.989Z" fill="#FFDAE4"/>
<path d="M281.91 186.496C282.008 193.714 286.984 196.369 294.124 197.234C296.091 184.725 304.489 164.841 310.743 159.885L283.739 160.868L282.048 184.077C282.048 184.096 282.048 184.116 282.048 184.155L282.028 184.47V184.49C282.008 184.765 281.989 185.021 281.969 185.276C281.949 185.591 281.93 186.024 281.91 186.496Z" fill="#FFCDDC"/>
<path d="M255.221 119.584C255.221 97.7718 273.414 80.2279 295.462 81.2899C315.012 82.234 331.022 98.3422 331.868 117.892C332.261 126.881 329.547 135.2 324.708 141.887C320.44 147.827 316.605 154.062 312.672 160.238C306.397 170.111 294.714 176.228 281.773 174.379C269.284 172.589 258.938 163.07 256.067 150.777C255.241 147.237 255.044 143.795 255.378 140.491C256.008 134.276 255.654 128.021 255.3 121.787C255.26 121.039 255.221 120.311 255.221 119.584Z" fill="#FFE4EE"/>
<path d="M282.737 174.458C282.422 174.419 282.108 174.399 281.793 174.36C269.284 172.57 258.958 163.129 256.087 150.837C255.261 147.297 255.064 143.855 255.398 140.55C255.733 137.266 255.791 133.962 255.713 130.677C255.673 125.839 256.578 121.04 258.447 116.575C261.633 108.924 266.57 100.565 272.392 98.9916C273.454 98.6966 274.575 99.326 274.948 100.368C275.991 103.279 279.433 109.18 290.348 111.304C301.599 113.487 304.804 129.93 315.897 132.172C321.719 133.509 318.966 150.463 318.966 150.463L320.952 177.487C327.265 177.644 334.405 176.759 341.84 175.52C344.475 175.088 346.265 172.59 345.754 169.974C344.947 165.785 344.062 161.536 343.118 157.19L338.476 127.038C338.358 126.232 338.26 125.406 338.201 124.599C338.201 122.397 338.024 120.056 337.611 117.598C333.087 90.6327 319.202 83.3161 313.026 81.3296C309.918 80.3265 300.733 77.1206 290.545 77.0026C280.377 76.8649 269.264 82.2343 262.066 91.1047C255.241 102.001 251.799 113.664 251.287 119.466C250.756 125.465 250.166 135.26 250.048 139.921C249.812 148.87 248.613 159.589 247.551 170.997C247.334 173.416 248.947 175.619 251.347 176.091C259.529 177.684 270.169 178.293 282.461 178.254L282.737 174.458Z" fill="#2D2D37"/>
<path d="M315.878 133.47C315.878 129.457 318.887 126.232 322.545 126.428C325.79 126.605 328.446 129.575 328.583 133.175C328.642 134.827 328.19 136.361 327.403 137.6C326.695 138.701 326.066 139.842 325.417 140.983C324.374 142.792 322.447 143.933 320.303 143.579C318.238 143.245 316.527 141.494 316.035 139.232C315.897 138.583 315.858 137.954 315.917 137.344C316.015 136.204 315.956 135.043 315.897 133.902C315.878 133.745 315.878 133.607 315.878 133.47Z" fill="#FFE4EE"/>
<path d="M268.733 138.249C271.036 138.249 272.903 135.651 272.903 132.447C272.903 129.242 271.036 126.645 268.733 126.645C266.43 126.645 264.564 129.242 264.564 132.447C264.564 135.651 266.43 138.249 268.733 138.249Z" fill="white"/>
<path d="M289.405 138.249C291.708 138.249 293.574 135.651 293.574 132.447C293.574 129.242 291.708 126.645 289.405 126.645C287.102 126.645 285.235 129.242 285.235 132.447C285.235 135.651 287.102 138.249 289.405 138.249Z" fill="white"/>
<path d="M267.12 136.026C268.543 136.026 269.697 134.424 269.697 132.447C269.697 130.47 268.543 128.867 267.12 128.867C265.697 128.867 264.544 130.47 264.544 132.447C264.544 134.424 265.697 136.026 267.12 136.026Z" fill="#2D2D37"/>
<path d="M287.731 135.909C289.1 135.909 290.21 134.36 290.21 132.448C290.21 130.536 289.1 128.986 287.731 128.986C286.363 128.986 285.253 130.536 285.253 132.448C285.253 134.36 286.363 135.909 287.731 135.909Z" fill="#2D2D37"/>
<path d="M292.511 147.258C285.195 149.441 278.35 151.034 272.548 151.348C271.879 151.388 271.486 152.135 271.879 152.666C272.843 154.043 275.341 155.026 278.252 155.026C284.939 155.026 290.938 151.289 293.396 148.634C293.986 148.005 293.337 147.022 292.511 147.258Z" fill="#FF7BA4"/>
<path d="M323.568 133.313L322.585 134.297C321.582 135.3 321.582 136.932 322.585 137.935" stroke="#FFBED2" stroke-width="1.85864" stroke-miterlimit="10" stroke-linecap="round" stroke-linejoin="round"/>
<path d="M278.862 139.979C276.423 140.038 274.398 138.111 274.339 135.672C274.28 133.233 277.702 131.719 278.646 131.148V125.818" stroke="#FFBED2" stroke-width="1.85864" stroke-miterlimit="10" stroke-linecap="round" stroke-linejoin="round"/>
<path d="M98.0154 187.4L98.1137 200.971C98.1334 204.61 101.103 207.541 104.742 207.501C104.801 207.501 104.84 207.501 104.899 207.501L110.583 214.031L104.388 231.89C109.993 235.037 118.392 236.885 126.711 236.826L232.034 236.826V192.534L159.38 192.534C150.175 192.593 141.148 189.918 133.457 184.824C125.905 179.808 116.916 177.389 107.849 177.448C102.382 177.488 97.9761 181.952 98.0154 187.4Z" fill="#FFE4EE"/>
<path d="M109.305 206.046L67.6283 206.341C63.9897 206.361 61.0198 203.45 61.0001 199.811C60.9804 196.172 63.8914 193.202 67.53 193.183L109.207 192.888C112.845 192.868 115.815 195.779 115.835 199.418C115.855 203.056 112.924 206.026 109.305 206.046Z" fill="#FFE4EE"/>
<path d="M114.517 232.342L97.7208 232.46C94.0626 232.479 91.0731 229.549 91.0534 225.891V225.812C91.0338 222.154 93.9642 219.164 97.6225 219.144L114.419 219.026C118.077 219.007 121.067 221.937 121.087 225.596V225.674C121.106 229.333 118.156 232.322 114.517 232.342Z" fill="#FFE4EE"/>
<path d="M109.856 219.204L92.9808 219.322C89.3422 219.342 86.3723 216.431 86.3526 212.792C86.333 209.154 89.2439 206.184 92.8825 206.164L109.758 206.046C113.396 206.026 116.366 208.937 116.386 212.576C116.425 216.214 113.495 219.184 109.856 219.204Z" fill="#FFE4EE"/>
<path d="M112.294 206.518C114.674 207.501 116.365 209.822 116.385 212.575C116.405 216.214 113.494 219.184 109.855 219.204L100.926 219.262L114.458 219.164C118.096 219.144 121.066 222.055 121.086 225.694C121.105 228.271 119.65 230.513 117.506 231.594" stroke="#FFBED2" stroke-width="1.85864" stroke-miterlimit="10" stroke-linecap="round" stroke-linejoin="round"/>
<path d="M129.111 205.515C114.478 205.613 111.233 192.868 111.233 192.868L111.292 200.873C111.311 204.512 108.4 207.481 104.762 207.501C101.123 207.521 98.1535 204.61 98.1339 200.971L98.0945 196.133" stroke="#FFBED2" stroke-width="1.85864" stroke-miterlimit="10" stroke-linecap="round" stroke-linejoin="round"/>
<path d="M280.358 238.065H233.45C232.663 238.065 232.034 237.436 232.034 236.649V192.396C232.034 191.609 232.663 190.979 233.45 190.979H280.358C293.359 190.979 303.901 201.522 303.901 214.522C303.881 227.523 293.359 238.065 280.358 238.065Z" fill="#FF6991"/>
<path d="M240.708 238.065H261.497L274.124 196.093C274.143 196.093 251.427 207.166 240.708 238.065Z" fill="#F04682"/>
<path d="M232.034 192.534H228.947V236.827H232.034V192.534Z" fill="#FFCDDC"/>
<path d="M343.985 195.248L323.392 185.237C312.673 180.025 300.243 179.573 289.17 183.998C271.704 191 259.077 206.518 255.812 225.045L235.377 340.497C234.669 344.49 237.737 348.148 241.789 348.148H355.864C359.778 348.148 362.807 344.706 362.315 340.832L343.985 195.248Z" fill="#FF6991"/>
<path d="M351.694 256.514L301.973 225.183C301.973 225.183 308.05 259.366 354.054 275.277L351.694 256.514Z" fill="#F04682"/>
<path d="M360.23 263.438C361.253 264.009 361.155 265.523 360.053 265.936L334.386 275.554C326.145 278.268 317.315 278.642 308.838 276.636C299.849 274.492 290.409 275.338 281.755 278.622C276.621 280.569 274.084 286.352 276.011 291.485L277.388 295.163C277.388 295.163 273.651 296.992 270.878 298.959C268.105 300.926 265.922 304.427 267.22 307.869C268.459 311.153 271.979 312.864 275.284 311.92C272.471 313.533 271.134 316.995 272.314 320.122L272.373 320.279C273.691 323.78 277.585 325.55 281.066 324.233L283.407 323.347C280.83 325.019 279.67 328.284 280.791 331.274C281.755 333.85 284.154 335.483 286.75 335.601C293.182 336.643 301.836 335.463 309.723 332.493L398.013 299.254C412.469 293.806 422.047 279.979 422.047 264.54C422.047 251.618 415.321 239.64 404.307 232.894L342.077 194.816C328.191 185.808 309.526 191.119 302.485 206.106C298.63 218.772 304.157 232.402 315.741 238.814L360.23 263.438Z" fill="#FFE4EE"/>
<path d="M364.539 265.267L370.105 265.503" stroke="#FFBED2" stroke-width="1.85864" stroke-miterlimit="10" stroke-linecap="round" stroke-linejoin="round"/>
<path d="M279.807 295.182L294.323 289.734C294.323 289.734 288.737 291.406 287.439 287.964L288.875 291.779" stroke="#FFBED2" stroke-width="1.85864" stroke-miterlimit="10" stroke-linecap="round" stroke-linejoin="round"/>
<path d="M285.767 322.343L288.265 321.419" stroke="#FFBED2" stroke-width="1.85864" stroke-miterlimit="10" stroke-linecap="round" stroke-linejoin="round"/>
<path d="M277.88 310.916L280.358 309.992" stroke="#FFBED2" stroke-width="1.85864" stroke-miterlimit="10" stroke-linecap="round" stroke-linejoin="round"/>
<path d="M366.681 209.862L338.831 251.598L348.941 257.184L374.293 214.524L366.681 209.862Z" fill="#FFCDDC"/>
<path d="M319.045 190.783C311.139 193.045 304.59 198.592 301.108 206.046L301.049 206.203C297.057 219.302 302.859 233.621 314.837 240.229L344.339 256.534C345.008 256.908 345.834 256.672 346.227 256.023L371.717 213.225C372.11 212.556 371.894 211.691 371.225 211.297L342.333 194.284C335.449 189.8 326.952 188.541 319.045 190.783Z" fill="#FF6991"/>
</g>
</svg>
