<svg width="382" height="348" viewBox="0 0 382 348" fill="none" xmlns="http://www.w3.org/2000/svg">
<mask id="mask0" mask-type="alpha" maskUnits="userSpaceOnUse" x="0" y="0" width="382" height="348">
<path d="M382 324C382 337.255 371.255 348 358 348L24 348C10.7452 348 2.95782e-05 337.255 2.84194e-05 324L2.19259e-06 24C1.03382e-06 10.7452 10.7452 1.93855e-06 24 7.79773e-07L358 -2.84194e-05C371.255 -2.95782e-05 382 10.7451 382 24L382 324Z" fill="#F04682"/>
</mask>
<g mask="url(#mask0)">
<path d="M106.618 226.974L81.8946 228.433C78.3041 228.645 75.2228 225.907 75.0115 222.317C74.8001 218.726 77.5376 215.645 81.1281 215.433L111.752 213.628C117.189 213.307 122.534 213.865 127.622 215.199C130.925 216.065 133.766 212.711 132.44 209.564L128.717 200.722C127.482 197.346 129.218 193.607 132.595 192.372C135.972 191.137 139.71 192.874 140.945 196.251L159.394 240.053C159.855 240.896 160.298 241.749 160.713 242.625L165.822 254.112L180.413 291.426C180.851 292.409 182.32 292.116 182.348 291.039L183.349 252.332L224.146 255.457L222.557 303.807C221.905 323.687 206.211 339.796 186.354 340.965C169.939 341.933 154.594 332.788 147.632 317.891L123.614 262.597C122.088 259.085 118.533 256.9 114.711 257.124C111.729 257.3 108.849 256.004 107.003 253.656L102.857 248.385L110.423 242.757L106.618 226.974Z" fill="#FFE4EE"/>
<path d="M113.22 239.466L99.5662 240.271C95.9757 240.482 92.8944 237.745 92.6831 234.154C92.4717 230.564 95.2092 227.483 98.7997 227.271L112.454 226.467C116.045 226.255 119.126 228.993 119.337 232.583C119.549 236.174 116.808 239.255 113.22 239.466Z" fill="#FFE4EE"/>
<path d="M117.524 252.259L103.87 253.064C100.279 253.275 97.1979 250.538 96.9866 246.947C96.7752 243.357 99.5127 240.276 103.103 240.064L116.757 239.26C120.348 239.048 123.429 241.786 123.641 245.376C123.852 248.967 121.112 252.048 117.524 252.259Z" fill="#FFE4EE"/>
<path d="M98.7991 227.273L112.453 226.468C116.044 226.257 119.125 228.995 119.336 232.585C119.548 236.176 116.81 239.257 113.22 239.468" stroke="#FFBED2" stroke-width="1.8813" stroke-miterlimit="10" stroke-linecap="round" stroke-linejoin="round"/>
<path d="M105.014 239.952L116.761 239.26C120.351 239.048 123.432 241.786 123.644 245.376C123.855 248.967 121.118 252.048 117.527 252.259" stroke="#FFBED2" stroke-width="1.8813" stroke-miterlimit="10" stroke-linecap="round" stroke-linejoin="round"/>
<path d="M133.518 222.804C133.518 222.804 130.154 244.222 139.179 248.475" stroke="#FFBED2" stroke-width="1.8813" stroke-miterlimit="10" stroke-linecap="round" stroke-linejoin="round"/>
<path d="M183.347 252.331L224.145 255.456L223.393 278.331C213.554 271.962 198.456 266.663 183.044 264.055L183.347 252.331Z" fill="#FFCDDC"/>
<path d="M182.398 295.196L183.042 300.646" stroke="#FFBED2" stroke-width="1.8813" stroke-miterlimit="10" stroke-linecap="round" stroke-linejoin="round"/>
<path d="M229.456 253.814H318.379C330.582 233.903 329.67 207.529 324.491 178.575H298.427L299.224 189.441C300.61 201.361 291.292 203.167 279.293 203.167C276.041 203.167 272.988 203.032 270.289 202.601C270.284 202.601 270.281 202.599 270.276 202.599C269.451 202.466 268.659 202.306 267.905 202.112C267.875 202.105 267.844 202.097 267.813 202.089C267.462 201.998 267.118 201.901 266.785 201.794C266.767 201.789 266.746 201.781 266.726 201.776C266.031 201.552 265.376 201.295 264.763 201C264.717 200.977 264.671 200.956 264.625 200.933C264.353 200.798 264.085 200.656 263.831 200.503C263.805 200.488 263.782 200.475 263.757 200.46C263.474 200.289 263.202 200.108 262.942 199.917C262.924 199.905 262.909 199.889 262.891 199.877C262.662 199.706 262.445 199.525 262.234 199.337C262.186 199.293 262.14 199.25 262.091 199.207C261.893 199.018 261.699 198.822 261.516 198.616C261.498 198.593 261.475 198.573 261.457 198.55C261.256 198.316 261.068 198.071 260.892 197.816C260.864 197.776 260.836 197.73 260.808 197.689C260.668 197.475 260.536 197.254 260.413 197.022C260.378 196.956 260.342 196.89 260.306 196.821C260.179 196.564 260.057 196.299 259.95 196.019C259.942 195.996 259.932 195.973 259.922 195.95C259.807 195.644 259.708 195.326 259.621 194.995C259.604 194.921 259.586 194.847 259.568 194.771C259.504 194.506 259.448 194.231 259.402 193.948C259.387 193.857 259.372 193.768 259.359 193.673C259.308 193.314 259.267 192.948 259.245 192.563C259.196 191.677 259.227 190.712 259.336 189.673C259.344 189.596 259.349 189.523 259.357 189.446L260.054 179.892H224.116C222.186 202.367 221.299 228.158 229.456 253.814Z" fill="#2D2D37"/>
<path d="M223.208 272.623C223.157 270.53 221.665 268.753 219.613 268.338L181.212 260.566C179.063 260.13 177.532 258.198 177.611 256.005C178.581 228.742 213.715 204.232 254.93 195.396L256.127 190.922C256.412 188.847 258.217 187.25 260.423 187.12L298.475 184.877C300.68 184.747 302.661 186.119 303.188 188.146L305.052 192.883C345.954 197.403 382.236 217.324 386.298 243.726C386.629 245.883 385.343 247.971 383.275 248.661L352.608 258.88C350.935 259.438 349.776 260.905 349.573 262.595L349.229 265.684C344.141 298.111 351.862 326.583 348.725 342.69C348.972 344.923 351.439 348.277 346.919 348.012H223.583C221.765 348.012 220.313 346.502 220.384 344.684L223.208 272.623Z" fill="#FF6991"/>
<path d="M277.127 216.24C278.051 216.24 278.8 215.491 278.8 214.567C278.8 213.643 278.051 212.894 277.127 212.894C276.203 212.894 275.454 213.643 275.454 214.567C275.454 215.491 276.203 216.24 277.127 216.24Z" fill="white"/>
<path d="M277.127 221.417C278.051 221.417 278.8 220.668 278.8 219.744C278.8 218.82 278.051 218.071 277.127 218.071C276.203 218.071 275.454 218.82 275.454 219.744C275.454 220.668 276.203 221.417 277.127 221.417Z" fill="white"/>
<path d="M255.599 202.813L263.292 218.597" stroke="#F04682" stroke-width="1.8813" stroke-miterlimit="10" stroke-linecap="round" stroke-linejoin="round"/>
<path d="M268.902 216.239L272.274 212.396C274.477 209.886 278.299 209.636 280.81 211.839L288.24 218.355C289.058 219.091 290.323 218.992 291.016 218.139L304.151 201.961" stroke="#F04682" stroke-width="1.8813" stroke-miterlimit="10" stroke-linecap="round" stroke-linejoin="round"/>
<path d="M296.181 147.794H262.402L259.359 189.363C257.973 201.283 267.291 203.086 279.29 203.086C291.292 203.086 300.607 201.283 299.221 189.363L296.181 147.794Z" fill="#FFDAE4"/>
<path d="M288.414 164.885C282.033 169.95 273.472 190.067 271.59 202.705C264.595 201.852 259.609 199.685 259.224 192.876C259.242 191.592 259.272 190.546 259.316 189.988C259.323 189.912 259.329 189.838 259.336 189.761L260.828 165.886L288.414 164.885Z" fill="#FFCDDC"/>
<path d="M232.23 124.102C232.23 102.032 250.654 84.2677 272.959 85.3449C292.742 86.2998 308.946 102.597 309.801 122.386C310.196 131.477 307.446 139.896 302.562 146.682C298.233 152.692 294.352 158.994 290.379 165.246C284.026 175.246 272.2 181.424 259.111 179.555C246.46 177.747 236.004 168.111 233.086 155.669C232.246 152.088 232.049 148.597 232.386 145.264C233.017 138.971 232.668 132.641 232.296 126.328C232.253 125.59 232.23 124.848 232.23 124.102Z" fill="#FFE4EE"/>
<path d="M259.964 179.663C259.646 179.628 259.432 179.6 259.113 179.554C247.896 177.95 238.24 170.476 234.318 159.844C232.47 154.828 231.92 149.933 232.383 145.339C232.717 142.014 232.773 138.678 232.699 135.339C232.656 130.44 233.582 125.586 235.467 121.061C238.683 113.335 243.679 104.883 249.564 103.264C250.662 102.961 251.792 103.585 252.179 104.657C253.239 107.603 256.712 113.575 267.766 115.714C279.152 117.921 282.401 134.575 293.618 136.842C299.506 138.186 296.728 155.355 296.728 155.355L298.523 179.885H324.726C323.695 174.125 322.503 168.225 321.179 162.164L316.486 131.647C316.358 130.824 316.269 129.999 316.213 129.169H316.211C316.216 126.936 316.033 124.578 315.617 122.09C311.046 94.7916 296.977 87.3865 290.723 85.3747C287.586 84.3663 278.281 81.1145 267.963 81.0024C263.847 80.9489 259.577 81.7842 255.469 83.3834C246.539 86.8568 239.406 93.8189 235.161 102.408C230.87 111.087 228.637 119.36 228.235 123.972C227.7 130.053 227.091 139.951 226.972 144.677C226.712 154.833 225.199 167.229 224.076 180.313L259.926 180.249L259.964 179.663Z" fill="#2D2D37"/>
<path d="M293.607 138.159C293.607 134.095 296.661 130.823 300.358 131.021C303.638 131.197 306.325 134.197 306.465 137.841C306.531 139.514 306.075 141.065 305.265 142.315C304.547 143.423 303.903 144.581 303.246 145.732C302.192 147.573 300.233 148.712 298.064 148.368C295.965 148.034 294.234 146.259 293.75 143.97C293.61 143.311 293.579 142.669 293.633 142.055C293.737 140.897 293.679 139.73 293.618 138.569C293.61 138.434 293.607 138.297 293.607 138.159Z" fill="#FFE4EE"/>
<path d="M245.888 142.991C248.217 142.991 250.105 140.362 250.105 137.119C250.105 133.876 248.217 131.247 245.888 131.247C243.559 131.247 241.671 133.876 241.671 137.119C241.671 140.362 243.559 142.991 245.888 142.991Z" fill="white"/>
<path d="M266.817 142.991C269.146 142.991 271.034 140.362 271.034 137.119C271.034 133.876 269.146 131.247 266.817 131.247C264.488 131.247 262.6 133.876 262.6 137.119C262.6 140.362 264.488 142.991 266.817 142.991Z" fill="white"/>
<path d="M244.268 140.737C245.703 140.737 246.865 139.117 246.865 137.118C246.865 135.12 245.703 133.5 244.268 133.5C242.834 133.5 241.671 135.12 241.671 137.118C241.671 139.117 242.834 140.737 244.268 140.737Z" fill="#2D2D37"/>
<path d="M265.12 140.625C266.509 140.625 267.636 139.055 267.636 137.118C267.636 135.182 266.509 133.612 265.12 133.612C263.73 133.612 262.604 135.182 262.604 137.118C262.604 139.055 263.73 140.625 265.12 140.625Z" fill="#2D2D37"/>
<path d="M269.969 152.123C262.563 154.335 255.637 155.947 249.757 156.255C249.082 156.291 248.693 157.045 249.08 157.597C250.063 158.993 252.581 159.986 255.535 159.986C262.296 159.986 268.369 156.212 270.857 153.523C271.453 152.881 270.806 151.87 269.969 152.123Z" fill="#FF7BA4"/>
<path d="M301.402 137.998L300.399 139.001C299.381 140.019 299.381 141.67 300.399 142.686" stroke="#FFBED2" stroke-width="1.8813" stroke-miterlimit="10" stroke-linecap="round" stroke-linejoin="round"/>
<path d="M256.158 144.747C253.685 144.809 251.633 142.853 251.572 140.38C251.51 137.908 254.974 136.372 255.939 135.794V130.396" stroke="#FFBED2" stroke-width="1.8813" stroke-miterlimit="10" stroke-linecap="round" stroke-linejoin="round"/>
<path d="M348.078 274.555L349.099 282.768C349.323 283.822 347.963 284.449 347.306 283.593L324.436 250.695L316.797 240.71C316.191 239.956 315.559 239.228 314.915 238.515L286.789 200.208C284.803 197.211 280.761 196.391 277.764 198.38C274.767 200.366 273.947 204.407 275.936 207.405L281.614 215.138C283.634 217.891 281.653 221.813 278.238 221.739C272.979 221.624 267.652 222.327 262.437 223.903L242.218 230.017C238.775 231.059 236.829 234.693 237.871 238.133C238.912 241.576 242.546 243.521 245.987 242.48L265.121 236.694C265.719 236.514 266.351 236.852 266.532 237.451C266.712 238.049 266.374 238.681 265.775 238.861L243.898 245.475C240.456 246.516 238.51 250.15 239.552 253.59C240.593 257.033 244.227 258.979 247.667 257.937L269.547 251.321C270.145 251.141 270.777 251.479 270.957 252.078C271.138 252.676 270.8 253.308 270.201 253.488L254.726 258.166C251.283 259.208 249.338 262.842 250.379 266.282C251.421 269.725 255.055 271.67 258.495 270.629L275.055 265.622L281.533 263.664L321.581 316.957C331.816 329.827 348.867 335.152 364.607 330.392C383.647 324.635 395.165 305.32 391.174 285.831L383.273 248.655L352.605 258.874C352.605 258.874 349.949 259.394 349.544 262.821C349.14 266.254 348.078 274.555 348.078 274.555Z" fill="#FFE4EE"/>
<path d="M350.269 286.002L353.666 290.311" stroke="#FFBED2" stroke-width="1.8813" stroke-miterlimit="10" stroke-linecap="round" stroke-linejoin="round"/>
<path d="M383.287 248.66L352.596 258.887C352.596 258.887 349.938 259.406 349.533 262.836C349.444 263.58 349.324 264.558 349.194 265.625L384.282 253.338L383.287 248.66Z" fill="#FFCDDC"/>
</g>
</svg>
