<svg width="382" height="348" viewBox="0 0 382 348" fill="none" xmlns="http://www.w3.org/2000/svg">
<mask id="mask0" mask-type="alpha" maskUnits="userSpaceOnUse" x="0" y="0" width="382" height="348">
<path d="M382 324C382 337.255 371.255 348 358 348L24 348C10.7452 348 2.95782e-05 337.255 2.84194e-05 324L2.19259e-06 24C1.03382e-06 10.7452 10.7452 1.93855e-06 24 7.79773e-07L358 -2.84194e-05C371.255 -2.95782e-05 382 10.7451 382 24L382 324Z" fill="#3C6EE6"/>
</mask>
<g mask="url(#mask0)">
<path d="M335.991 287.935L316.853 218.618C314.7 210.843 306.526 206.378 298.831 208.81L270.123 217.821L288.125 282.613C292.989 300.076 296.698 326.89 297.555 348.461H341.912C341.613 331.555 338.762 299.737 335.991 287.935Z" fill="#FFE4EE"/>
<path d="M287.327 147.985H253.975L250.964 189.033C249.589 200.795 258.799 202.59 270.641 202.59C282.483 202.59 291.693 200.815 290.318 189.033L287.327 147.985Z" fill="#FFDAE4"/>
<path d="M279.712 167.882C273.412 172.886 264.88 189.712 263.026 202.211C256.108 201.374 251.244 198.842 250.865 192.124C250.885 190.848 250.905 189.811 250.964 189.273C250.964 189.193 250.984 189.134 250.984 189.054L252.46 168.879L279.712 167.882Z" fill="#FFCDDC"/>
<path d="M224.171 124.601C224.171 102.811 242.373 85.2671 264.382 86.3237C283.919 87.2607 299.908 103.349 300.765 122.906C301.164 131.877 298.432 140.19 293.608 146.889C289.342 152.83 285.494 159.05 281.587 165.23C275.307 175.098 263.644 181.199 250.706 179.364C238.206 177.57 227.879 168.061 225.009 155.78C224.171 152.252 223.992 148.803 224.311 145.513C224.929 139.293 224.59 133.053 224.231 126.813C224.211 126.056 224.171 125.318 224.171 124.601Z" fill="#FFE4EE"/>
<path d="M258.541 143.799C260.721 143.799 262.488 141.344 262.488 138.316C262.488 135.289 260.721 132.834 258.541 132.834C256.36 132.834 254.593 135.289 254.593 138.316C254.593 141.344 256.36 143.799 258.541 143.799Z" fill="white"/>
<path d="M257.285 142.463C258.771 142.463 259.976 140.66 259.976 138.436C259.976 136.212 258.771 134.409 257.285 134.409C255.798 134.409 254.593 136.212 254.593 138.436C254.593 140.66 255.798 142.463 257.285 142.463Z" fill="#2D2D37"/>
<path d="M236.751 143.799C238.931 143.799 240.698 141.344 240.698 138.316C240.698 135.289 238.931 132.834 236.751 132.834C234.571 132.834 232.803 135.289 232.803 138.316C232.803 141.344 234.571 143.799 236.751 143.799Z" fill="white"/>
<path d="M235.475 142.463C236.961 142.463 238.166 140.66 238.166 138.436C238.166 136.212 236.961 134.409 235.475 134.409C233.989 134.409 232.784 136.212 232.784 138.436C232.784 140.66 233.989 142.463 235.475 142.463Z" fill="#2D2D37"/>
<path d="M235.096 172.188C226.324 172.128 216.535 169.835 205.87 167.542C212.05 163.376 219.825 138.855 221.22 115.849C221.559 110.167 222.696 104.545 224.789 99.2422C229.055 88.3572 238.445 75.1597 258.64 77.213C259.716 77.3725 260.534 77.7513 261.172 78.3693C262.029 77.8111 263.006 77.4523 264.023 77.3127C277.439 75.5783 292.89 81.7186 300.824 100.937C306.785 115.39 313.364 135.187 316.534 146.65C318.168 152.531 316.055 158.87 311.091 162.419C301.362 169.377 289.321 170.991 273.532 172.646C278.018 166.885 278.755 144.556 273.313 122.428C268.807 123.484 259.956 124.461 256.507 124.481C255.749 121.57 254.553 117.045 256.248 114.334C256.248 114.334 253.237 119.477 253.357 124.74C251.084 124.88 248.792 124.88 246.499 124.76C245.801 121.889 246.001 116.487 247.615 113.915C247.615 113.915 243.748 119.657 243.469 124.541C241.435 124.341 239.402 124.022 237.348 123.624C236.511 120.693 237.269 116.447 239.063 113.556C239.063 113.556 234.577 117.882 234.518 122.986C233.64 122.966 232.364 122.647 231.547 122.408C229.952 121.949 227.659 120.095 226.224 118.181C224.928 122.029 224.211 123.285 224.211 127.571C224.211 128.309 224.231 129.046 224.27 129.764C224.629 136.004 224.988 139.253 224.35 145.473C224.011 148.763 224.211 152.212 225.048 155.74C226.543 162.26 230.171 167.981 235.096 172.188Z" fill="#2D2D37"/>
<path d="M293.986 187.558C283.4 182.414 271.12 181.956 260.195 186.342C242.95 193.239 230.49 208.57 227.261 226.871L207.086 340.885C206.388 344.812 209.418 348.44 213.405 348.44H326.043C329.911 348.44 332.901 345.051 332.423 341.204L317.132 219.874C315.377 205.899 306.666 193.738 293.986 187.558Z" fill="#5F8CFF"/>
<path d="M273.372 239.77L234.497 301.452C234.497 301.452 278.795 297.205 278.795 236.999L273.372 239.77Z" fill="#3C6EE6"/>
<path d="M265.957 198.503C253.457 194.695 239.98 200.157 233.66 211.601L209.02 256.177C208.262 257.333 207.026 257.154 206.647 256.058L194.965 223.662C193.39 219.296 194.467 214.332 197.935 211.242C204.375 205.5 207.026 196.21 203.936 187.618C202.919 184.787 201.344 182.235 199.271 180.042C197.377 178.029 194.566 177.411 192.114 178.208C191.337 175.736 189.203 173.822 186.472 173.443C182.983 172.965 179.395 173.324 176.086 174.52C170.464 176.553 166.197 180.66 163.805 185.684L157.645 168.559C156.429 165.17 152.761 163.176 149.352 164.293C145.823 165.449 143.969 169.277 145.205 172.746L153 194.396C153.119 194.715 152.94 195.074 152.621 195.173C152.302 195.273 151.943 195.114 151.844 194.795V194.775L145.823 178.049C144.607 174.659 140.939 172.666 137.53 173.782C134.001 174.939 132.147 178.766 133.383 182.235L139.503 199.24L146.142 217.701L176.903 303.066C183.542 321.467 205.75 329.761 223.334 318.437C227.6 315.686 231.148 311.918 233.9 307.652L277.101 237.597C286.012 223.881 280.749 205.46 265.957 198.503ZM176.006 197.685C174.531 193.579 176.664 189.033 180.77 187.558C181.987 187.119 183.262 186.98 184.538 187.159C185.615 187.319 186.672 187.199 187.628 186.9C187.927 187.877 188.466 188.794 189.203 189.571C189.961 190.369 190.519 191.286 190.898 192.323C192.373 196.429 190.24 200.975 186.133 202.45C182.026 203.925 177.481 201.792 176.006 197.685Z" fill="#FFE4EE"/>
<path d="M246.1 167.183C248.115 167.183 249.749 164.14 249.749 160.385C249.749 156.631 248.115 153.587 246.1 153.587C244.085 153.587 242.452 156.631 242.452 160.385C242.452 164.14 244.085 167.183 246.1 167.183Z" fill="#FF7BA4"/>
<path d="M248.174 149.002H245.941C243.489 149.002 241.496 147.008 241.496 144.556C241.496 142.104 243.33 139.891 245.941 139.134V135.007" stroke="#FFBED2" stroke-width="1.88394" stroke-miterlimit="10" stroke-linecap="round" stroke-linejoin="round"/>
<path d="M191.377 179.783C191.496 181.817 190.46 183.81 188.706 184.847" stroke="#FFBED2" stroke-width="1.88394" stroke-miterlimit="10" stroke-linecap="round" stroke-linejoin="round"/>
<path d="M207.564 259.746L207.345 265.248" stroke="#FFBED2" stroke-width="1.88394" stroke-miterlimit="10" stroke-linecap="round" stroke-linejoin="round"/>
<path d="M214.761 245.811L257.005 270.192L267.472 253.247L224.39 228.387L214.761 245.811Z" fill="#FFCDDC"/>
<path d="M281.487 215.209C279.254 207.394 273.772 200.935 266.415 197.486L266.276 197.426C253.337 193.499 239.203 199.22 232.684 211.042L216.556 240.228C216.217 240.866 216.416 241.644 217.034 242.022L259.398 267.261C260.036 267.64 260.853 267.421 261.232 266.783L278.058 238.195C282.464 231.397 283.72 223.024 281.487 215.209Z" fill="#5F8CFF"/>
</g>
</svg>
