<svg width="382" height="348" viewBox="0 0 382 348" fill="none" xmlns="http://www.w3.org/2000/svg">
<mask id="mask0" mask-type="alpha" maskUnits="userSpaceOnUse" x="0" y="0" width="382" height="348">
<path d="M382 324C382 337.255 371.255 348 358 348L24 348C10.7452 348 2.95782e-05 337.255 2.84194e-05 324L2.19259e-06 24C1.03382e-06 10.7452 10.7452 1.93855e-06 24 7.79773e-07L358 -2.84194e-05C371.255 -2.95782e-05 382 10.7451 382 24L382 324Z" fill="#32BECD"/>
</mask>
<g mask="url(#mask0)">
<path d="M368.588 239.067C367.862 235.808 367.101 232.553 366.288 229.254L324.244 229.969C325.597 235.928 326.924 241.981 328.221 248.194C328.162 247.913 328.104 247.627 328.046 247.347L368.588 239.067Z" fill="#FFE4EE"/>
<path d="M368.641 239.307C369.085 241.31 369.516 243.318 369.93 245.336C369.516 243.318 369.085 241.312 368.641 239.307Z" fill="#FFE4EE"/>
<path d="M330.097 257.422C329.975 256.807 329.853 256.197 329.73 255.587C329.851 256.199 329.975 256.807 330.097 257.422Z" fill="#FFE4EE"/>
<path d="M370.027 245.798C370.454 247.878 370.865 249.971 371.264 252.09C370.863 249.971 370.451 247.876 370.027 245.798Z" fill="#FFE4EE"/>
<path d="M330.997 262.04C330.888 261.475 330.777 260.916 330.668 260.353C330.779 260.916 330.89 261.473 330.997 262.04Z" fill="#FFE4EE"/>
<path d="M329.177 252.842C329.058 252.259 328.941 251.679 328.821 251.099C328.941 251.677 329.06 252.257 329.177 252.842Z" fill="#FFE4EE"/>
<path d="M371.297 252.271C358.439 255.247 345.251 260.991 331.897 266.811C331.875 266.694 331.852 266.579 331.831 266.461C336.102 289.449 327.459 315.39 330.322 347.643H382.123C382.055 346.802 382.001 345.959 381.986 345.114C378.449 301.347 375.62 275.308 371.297 252.271Z" fill="#FFE4EE"/>
<path d="M331.83 266.461C331.555 264.976 331.275 263.502 330.996 262.04C331.277 263.502 331.555 264.976 331.83 266.461Z" fill="#FFCDDC"/>
<path d="M328.822 251.097C328.624 250.126 328.423 249.158 328.22 248.195C328.423 249.158 328.624 250.124 328.822 251.097Z" fill="#FFCDDC"/>
<path d="M330.669 260.353C330.479 259.374 330.289 258.395 330.097 257.424C330.289 258.393 330.479 259.372 330.669 260.353Z" fill="#FFCDDC"/>
<path d="M329.731 255.59C329.547 254.67 329.364 253.753 329.178 252.842C329.364 253.753 329.547 254.67 329.731 255.59Z" fill="#FFCDDC"/>
<path d="M369.931 245.336C369.963 245.49 369.995 245.641 370.027 245.795C369.995 245.643 369.963 245.49 369.931 245.336Z" fill="#FFCDDC"/>
<path d="M371.297 252.269C371.287 252.21 371.274 252.15 371.261 252.088C371.274 252.15 371.285 252.212 371.297 252.269C371.295 252.271 371.297 252.271 371.297 252.269Z" fill="#FFCDDC"/>
<path d="M368.59 239.065C368.607 239.147 368.624 239.228 368.641 239.307C368.622 239.228 368.607 239.147 368.59 239.065Z" fill="#FFCDDC"/>
<path d="M371.297 252.27C371.286 252.211 371.276 252.149 371.263 252.089C370.864 249.97 370.452 247.875 370.025 245.797C369.993 245.643 369.961 245.492 369.929 245.338C369.513 243.32 369.085 241.314 368.641 239.308C368.624 239.227 368.604 239.146 368.587 239.067L328.046 247.348C328.106 247.63 328.163 247.913 328.221 248.195C328.421 249.157 328.622 250.126 328.823 251.097C328.942 251.677 329.062 252.258 329.179 252.84C329.364 253.751 329.548 254.669 329.731 255.588C329.853 256.198 329.977 256.809 330.098 257.423C330.29 258.394 330.48 259.373 330.67 260.353C330.779 260.916 330.89 261.473 330.999 262.04C331.278 263.502 331.556 264.976 331.833 266.461C331.854 266.579 331.878 266.694 331.899 266.811C345.252 260.991 358.44 255.247 371.297 252.27Z" fill="#FFCDDC"/>
<path d="M222.408 297.19L231.079 248.18L191.154 239.983L183.823 280.612C183.667 281.478 182.423 281.476 182.27 280.61L169.069 205.964C168.443 202.42 168.286 198.808 168.599 195.221L169.867 180.738C170.116 177.874 168.501 175.045 165.779 174.13C161.778 172.783 158.042 175.771 157.703 179.633L155.765 201.771L144.192 179.825C142.765 176.769 139.134 175.448 136.076 176.874C133.018 178.299 131.696 181.935 133.123 184.994L143.552 204.513C134.898 208.262 129.611 217.569 131.32 227.266L143.676 297.182C147.051 316.28 163.647 330.202 183.042 330.202C202.435 330.202 219.028 316.287 222.408 297.19Z" fill="#FFE4EE"/>
<path d="M140.978 225.684L133.647 209.963C132.221 206.906 133.544 203.272 136.599 201.847C139.657 200.422 143.291 201.745 144.716 204.8L152.047 220.521C153.472 223.578 152.15 227.212 149.094 228.637C146.037 230.062 142.403 228.742 140.978 225.684Z" fill="#FFE4EE"/>
<path d="M146.429 208.475L152.047 220.523C153.473 223.581 152.15 227.214 149.094 228.64C146.037 230.065 142.403 228.742 140.978 225.687L137.338 217.882" stroke="#FFBED2" stroke-width="1.75925" stroke-miterlimit="10" stroke-linecap="round" stroke-linejoin="round"/>
<path d="M167.909 218.19L164.269 210.385C162.844 207.328 159.21 206.005 156.153 207.432C153.095 208.857 151.772 212.491 153.2 215.549L158.818 227.597C155.423 228.197 153.157 231.434 153.755 234.826L154.038 236.439" stroke="#FFBED2" stroke-width="1.75925" stroke-miterlimit="10" stroke-linecap="round" stroke-linejoin="round"/>
<path d="M227.953 265.853L231.079 248.182L191.154 239.984L188.935 252.272C201.712 255.398 214.755 260.512 227.953 265.853Z" fill="#FFCDDC"/>
<path d="M217.527 253.907C220.056 254.569 221.752 256.943 221.558 259.551L215.417 341.822C215.182 344.963 217.668 347.643 220.82 347.643H341.151C344.356 347.643 346.859 344.875 346.541 341.688L338.348 259.73C338.079 257.046 339.826 254.573 342.446 253.931L371.408 246.821C374.029 246.179 375.838 243.698 375.522 241.02C372.477 215.096 344.499 193.672 307.128 186.691C304.915 186.277 303.159 184.589 302.737 182.379C302.378 180.501 301.073 178.905 299.261 178.297C287.116 174.209 274.98 174.213 262.857 178.297C261.045 178.907 259.74 180.501 259.381 182.379C258.961 184.591 257.205 186.279 254.99 186.693C217.587 193.681 189.594 215.136 186.589 241.088C186.282 243.736 188.047 246.196 190.626 246.87L217.527 253.907Z" fill="#32D7E1"/>
<path d="M302.716 192.635L294.719 203.423C293.437 205.153 290.93 205.368 289.372 203.881L283.618 198.393C282.184 197.026 279.931 197.026 278.497 198.393L272.742 203.881C271.185 205.366 268.676 205.151 267.395 203.423L259.398 192.635" stroke="#32BECD" stroke-width="1.75925" stroke-miterlimit="10" stroke-linecap="round" stroke-linejoin="round"/>
<path d="M281.021 206.979C281.943 206.979 282.69 206.232 282.69 205.31C282.69 204.389 281.943 203.642 281.021 203.642C280.1 203.642 279.353 204.389 279.353 205.31C279.353 206.232 280.1 206.979 281.021 206.979Z" fill="white"/>
<path d="M281.021 212.075C281.943 212.075 282.69 211.328 282.69 210.407C282.69 209.485 281.943 208.738 281.021 208.738C280.1 208.738 279.353 209.485 279.353 210.407C279.353 211.328 280.1 212.075 281.021 212.075Z" fill="white"/>
<path d="M296.375 139.457H264.786L261.942 178.328C260.647 189.474 269.359 191.162 280.582 191.162C291.803 191.162 300.517 189.474 299.221 178.328L296.375 139.457Z" fill="#FFDAE4"/>
<path d="M261.832 180.636C261.934 187.466 266.631 189.977 273.388 190.796C275.255 178.954 283.205 160.129 289.111 155.439L263.547 156.363L261.941 178.327C261.939 178.353 261.939 178.374 261.934 178.4L261.917 178.698C261.915 178.705 261.915 178.711 261.915 178.72C261.89 178.978 261.881 179.219 261.868 179.467C261.855 179.791 261.843 180.188 261.832 180.636Z" fill="#FFCDDC"/>
<path d="M236.573 117.303C236.573 96.6668 253.802 80.052 274.661 81.0591C293.161 81.9531 308.313 97.1917 309.113 115.697C309.482 124.197 306.911 132.07 302.343 138.416C298.295 144.036 294.664 149.931 290.951 155.775C285.011 165.125 273.95 170.903 261.711 169.155C249.88 167.466 240.102 158.453 237.375 146.818C236.59 143.468 236.406 140.206 236.72 137.089C237.309 131.204 236.985 125.285 236.637 119.382C236.592 118.695 236.573 118.001 236.573 117.303Z" fill="#FFE4EE"/>
<path d="M262.607 169.251C262.308 169.217 262.011 169.2 261.71 169.157C249.879 167.467 240.101 158.529 237.374 146.894C236.589 143.544 236.405 140.282 236.719 137.165C237.031 134.056 237.084 130.937 237.016 127.815C236.975 123.234 237.841 118.694 239.604 114.463C242.616 107.23 247.296 99.3139 252.809 97.8139C253.82 97.5387 254.876 98.134 255.231 99.1197C256.218 101.874 259.466 107.462 269.808 109.464C280.455 111.525 283.493 127.098 293.984 129.219C299.489 130.478 296.89 146.532 296.89 146.532L298.763 172.116C304.748 172.259 311.503 171.436 318.538 170.262C321.026 169.846 322.72 167.482 322.246 165.005C321.489 161.043 320.655 157.01 319.756 152.898L315.37 124.363C315.25 123.595 315.167 122.822 315.116 122.046H315.114C315.118 119.957 314.947 117.753 314.559 115.425C310.285 89.8959 297.127 82.9722 291.281 81.0925C288.347 80.1494 279.646 77.109 269.995 77.0023C260.377 76.8764 249.847 81.9545 243.045 90.3461C236.576 100.652 233.324 111.693 232.844 117.183C232.345 122.869 231.775 132.125 231.664 136.544C231.447 145.021 230.299 155.169 229.307 165.954C229.095 168.244 230.636 170.332 232.893 170.772C240.643 172.283 250.716 172.863 262.353 172.82L262.607 169.251Z" fill="#2D2D37"/>
<path d="M293.968 130.448C293.968 126.648 296.825 123.588 300.282 123.774C303.348 123.938 305.859 126.744 305.994 130.151C306.056 131.717 305.629 133.166 304.871 134.335C304.201 135.37 303.598 136.456 302.983 137.531C301.997 139.253 300.165 140.316 298.135 139.996C296.175 139.684 294.553 138.024 294.101 135.882C293.971 135.265 293.941 134.664 293.992 134.09C294.09 133.006 294.037 131.916 293.979 130.83C293.971 130.704 293.968 130.576 293.968 130.448Z" fill="#FFE4EE"/>
<path d="M249.344 134.967C251.521 134.967 253.287 132.509 253.287 129.475C253.287 126.442 251.521 123.983 249.344 123.983C247.166 123.983 245.401 126.442 245.401 129.475C245.401 132.509 247.166 134.967 249.344 134.967Z" fill="white"/>
<path d="M268.917 134.967C271.095 134.967 272.86 132.509 272.86 129.475C272.86 126.442 271.095 123.983 268.917 123.983C266.739 123.983 264.974 126.442 264.974 129.475C264.974 132.509 266.739 134.967 268.917 134.967Z" fill="white"/>
<path d="M247.831 132.86C249.173 132.86 250.261 131.345 250.261 129.476C250.261 127.607 249.173 126.092 247.831 126.092C246.489 126.092 245.401 127.607 245.401 129.476C245.401 131.345 246.489 132.86 247.831 132.86Z" fill="#2D2D37"/>
<path d="M267.328 132.752C268.627 132.752 269.681 131.285 269.681 129.475C269.681 127.665 268.627 126.197 267.328 126.197C266.028 126.197 264.974 127.665 264.974 129.475C264.974 131.285 266.028 132.752 267.328 132.752Z" fill="#2D2D37"/>
<path d="M271.861 143.503C264.935 145.571 258.457 147.082 252.961 147.37C252.331 147.402 251.964 148.108 252.327 148.624C253.244 149.93 255.602 150.858 258.363 150.858C264.685 150.858 270.365 147.329 272.691 144.814C273.25 144.214 272.644 143.269 271.861 143.503Z" fill="#FF7BA4"/>
<path d="M301.259 130.296L300.321 131.235C299.369 132.186 299.369 133.729 300.321 134.681" stroke="#FFBED2" stroke-width="1.75925" stroke-miterlimit="10" stroke-linecap="round" stroke-linejoin="round"/>
<path d="M258.948 136.609C256.637 136.667 254.717 134.838 254.659 132.525C254.602 130.215 257.84 128.777 258.743 128.237V123.188" stroke="#FFBED2" stroke-width="1.75925" stroke-miterlimit="10" stroke-linecap="round" stroke-linejoin="round"/>
</g>
</svg>
