<svg width="382" height="348" viewBox="0 0 382 348" fill="none" xmlns="http://www.w3.org/2000/svg">
<mask id="mask0" mask-type="alpha" maskUnits="userSpaceOnUse" x="0" y="0" width="382" height="348">
<path d="M382 324C382 337.255 371.255 348 358 348L24 348C10.7452 348 2.95782e-05 337.255 2.84194e-05 324L2.19259e-06 24C1.03382e-06 10.7452 10.7452 1.93855e-06 24 7.79773e-07L358 -2.84194e-05C371.255 -2.95782e-05 382 10.7451 382 24L382 324Z" fill="#3C6EE6"/>
</mask>
<g mask="url(#mask0)">
<path d="M179.319 247.682L176.541 280.312C176.457 281.223 175.206 281.393 174.888 280.545L164.435 248.318L160.704 238.354C160.407 237.59 160.068 236.848 159.707 236.106L146.308 198.198C145.439 195.293 142.364 193.639 139.46 194.509C136.555 195.378 134.901 198.452 135.771 201.357L138.484 209.011C139.439 211.724 136.873 214.417 134.138 213.527C129.919 212.148 125.424 211.406 120.824 211.406H102.951C99.9188 211.406 97.4382 213.866 97.4382 216.919C97.4382 219.951 99.8976 222.431 102.951 222.431H119.848C120.378 222.431 120.802 222.855 120.802 223.385C120.802 223.915 120.378 224.339 119.848 224.339H100.512C97.4806 224.339 95 226.799 95 229.852C95 232.884 97.4594 235.364 100.512 235.364H119.848C120.378 235.364 120.802 235.788 120.802 236.318C120.802 236.848 120.378 237.272 119.848 237.272H106.152C103.12 237.272 100.64 239.732 100.64 242.785C100.64 245.817 103.099 248.297 106.152 248.297H120.781H126.506L145.884 301.238C151.015 314.171 163.524 322.651 177.432 322.651C194.266 322.651 208.301 309.824 209.849 293.075L213.602 252.326L179.319 247.682Z" fill="#FFE4EE"/>
<path d="M139.014 219.908C138.675 225.929 143.149 230.021 148.025 229.343" stroke="#FFBED2" stroke-width="1.73641" stroke-miterlimit="10" stroke-linecap="round" stroke-linejoin="round"/>
<path d="M134.053 241.428C135.771 236.785 133.905 226.375 131.318 221.541" stroke="#FFBED2" stroke-width="1.73641" stroke-miterlimit="10" stroke-linecap="round" stroke-linejoin="round"/>
<path d="M179.318 247.682L213.601 252.346L212.329 266.191C200.965 261.272 189.75 256.65 178.767 254.021L179.318 247.682Z" fill="#FFCDDC"/>
<path d="M175.968 284.191L176.986 289.152" stroke="#FFBED2" stroke-width="1.73641" stroke-miterlimit="10" stroke-linecap="round" stroke-linejoin="round"/>
<path d="M357.794 247.682L360.571 280.311C360.656 281.223 361.907 281.393 362.225 280.545L372.678 248.318L376.409 238.353C376.706 237.59 377.045 236.848 377.406 236.106L390.805 198.198C391.674 195.293 394.749 193.639 397.653 194.508C400.558 195.378 402.211 198.452 401.342 201.357L398.628 209.01C397.674 211.724 400.24 214.417 402.975 213.526C407.194 212.148 411.689 211.406 416.289 211.406H434.162C437.194 211.406 439.675 213.866 439.675 216.919C439.675 219.95 437.215 222.431 434.162 222.431H417.265C416.735 222.431 416.311 222.855 416.311 223.385C416.311 223.915 416.735 224.339 417.265 224.339H436.6C439.632 224.339 442.113 226.799 442.113 229.852C442.113 232.883 439.653 235.364 436.6 235.364H417.265C416.735 235.364 416.311 235.788 416.311 236.318C416.311 236.848 416.735 237.272 417.265 237.272H430.94C433.972 237.272 436.452 239.732 436.452 242.785C436.452 245.816 433.993 248.297 430.94 248.297H416.311H410.586L391.208 301.237C386.077 314.17 373.568 322.651 359.66 322.651C342.826 322.651 328.79 309.824 327.242 293.075L323.49 252.325L357.794 247.682Z" fill="#FFE4EE"/>
<path d="M357.794 247.681L323.511 252.346L324.783 266.19C336.147 261.272 347.363 256.65 358.345 254.021L357.794 247.681Z" fill="#FFCDDC"/>
<path d="M361.144 284.191L360.126 289.152" stroke="#FFBED2" stroke-width="1.73641" stroke-miterlimit="10" stroke-linecap="round" stroke-linejoin="round"/>
<path d="M205.503 255.423C208.005 256.08 209.701 258.433 209.51 261.02L203.425 342.667C203.192 345.784 205.651 348.434 208.789 348.434H328.197C331.377 348.434 333.858 345.699 333.54 342.519L325.419 261.19C325.144 258.518 326.882 256.08 329.49 255.444L358.218 248.384C360.826 247.748 362.607 245.288 362.31 242.617C359.3 216.899 331.525 195.634 294.444 188.701C292.239 188.298 290.5 186.623 290.076 184.418C289.716 182.553 288.423 180.963 286.62 180.369C274.578 176.319 262.535 176.319 250.493 180.369C248.691 180.984 247.397 182.553 247.037 184.418C246.613 186.623 244.874 188.298 242.669 188.701C205.545 195.634 177.771 216.921 174.803 242.681C174.506 245.31 176.245 247.748 178.81 248.426L205.503 255.423Z" fill="#FFD25F"/>
<path d="M290.054 194.616L282.125 205.323C280.853 207.04 278.372 207.252 276.824 205.768L271.121 200.319C269.701 198.962 267.453 198.962 266.033 200.319L260.33 205.768C258.782 207.252 256.301 207.019 255.029 205.323L247.1 194.616" stroke="#FFB428" stroke-width="1.73641" stroke-miterlimit="10" stroke-linecap="round" stroke-linejoin="round"/>
<path d="M268.514 208.843C269.427 208.843 270.167 208.102 270.167 207.189C270.167 206.276 269.427 205.535 268.514 205.535C267.6 205.535 266.86 206.276 266.86 207.189C266.86 208.102 267.6 208.843 268.514 208.843Z" fill="white"/>
<path d="M268.514 213.91C269.427 213.91 270.167 213.17 270.167 212.256C270.167 211.343 269.427 210.603 268.514 210.603C267.6 210.603 266.86 211.343 266.86 212.256C266.86 213.17 267.6 213.91 268.514 213.91Z" fill="white"/>
<path d="M283.927 141.676H253.142L250.365 179.542C249.092 190.397 257.594 192.051 268.534 192.051C279.474 192.051 287.955 190.397 286.704 179.542L283.927 141.676Z" fill="#FFDAE4"/>
<path d="M276.889 160.035C271.08 164.657 263.214 180.177 261.497 191.71C255.115 190.926 250.62 188.615 250.281 182.403C250.302 181.237 250.323 180.283 250.366 179.774C250.366 179.71 250.366 179.647 250.387 179.562L251.744 160.947L276.889 160.035Z" fill="#FFCDDC"/>
<path d="M225.665 120.092C225.665 99.9925 242.457 83.7945 262.768 84.791C280.79 85.6602 295.546 100.501 296.33 118.544C296.691 126.834 294.189 134.488 289.737 140.678C285.793 146.148 282.253 151.894 278.627 157.597C272.839 166.714 262.069 172.332 250.132 170.636C238.598 168.983 229.079 160.205 226.429 148.883C225.665 145.618 225.496 142.438 225.793 139.406C226.365 133.682 226.047 127.915 225.708 122.148C225.687 121.449 225.665 120.77 225.665 120.092Z" fill="#FFE4EE"/>
<path d="M259.885 133.384C261.899 133.384 263.532 131.087 263.532 128.254C263.532 125.42 261.899 123.123 259.885 123.123C257.871 123.123 256.238 125.42 256.238 128.254C256.238 131.087 257.871 133.384 259.885 133.384Z" fill="white"/>
<path d="M258.719 132.05C260.089 132.05 261.199 130.389 261.199 128.34C261.199 126.291 260.089 124.629 258.719 124.629C257.349 124.629 256.238 126.291 256.238 128.34C256.238 130.389 257.349 132.05 258.719 132.05Z" fill="#2D2D37"/>
<path d="M239.764 133.384C241.778 133.384 243.411 131.087 243.411 128.254C243.411 125.42 241.778 123.123 239.764 123.123C237.75 123.123 236.118 125.42 236.118 128.254C236.118 131.087 237.75 133.384 239.764 133.384Z" fill="white"/>
<path d="M238.598 132.05C239.968 132.05 241.079 130.389 241.079 128.34C241.079 126.291 239.968 124.629 238.598 124.629C237.228 124.629 236.118 126.291 236.118 128.34C236.118 130.389 237.228 132.05 238.598 132.05Z" fill="#2D2D37"/>
<path d="M233.001 99.5696C228.591 99.5696 225.051 103.195 225.157 107.605C225.326 115.132 225.666 125.139 225.984 128.128C226.005 128.383 226.026 128.616 226.026 128.785C227.913 127.492 229.079 125.414 229.206 123.146L229.842 111.994C229.991 109.428 231.114 107.011 232.98 105.273V99.5696H233.001Z" fill="#5A5A6B"/>
<path d="M246.888 156.134C248.738 156.134 250.238 153.325 250.238 149.859C250.238 146.393 248.738 143.583 246.888 143.583C245.038 143.583 243.538 146.393 243.538 149.859C243.538 153.325 245.038 156.134 246.888 156.134Z" fill="#FF7BA4"/>
<path d="M248.669 136.82C246.379 136.883 244.492 135.081 244.429 132.792C244.365 130.502 247.567 129.081 248.457 128.551V123.569" stroke="#FFBED2" stroke-width="1.73641" stroke-miterlimit="10" stroke-linecap="round" stroke-linejoin="round"/>
<path d="M288.125 87.3352C287.892 87.3352 241.842 92.3812 241.842 92.3812C241.842 92.3812 240.973 105.251 244.429 105.251C247.884 105.272 256.535 104.381 259.863 104.381L264.401 103.406C268.726 105.081 271.757 110.933 272.16 115.555L272.627 121.067C272.924 124.671 274.811 127.936 277.779 129.993L280.938 138.283L284.415 148.481C286.514 145.216 290.245 142.184 293.277 136.82C299.086 126.452 299.616 112.226 299.256 103.936" fill="#5A5A6B"/>
<path d="M300.21 91.4489C296.712 82.417 279.984 73.1943 273.305 77.2014C267.793 73.0247 258.337 72.3038 252.888 73.5547C238.556 76.8622 230.754 84.7492 228.273 81.7385C227.764 81.1237 226.831 81.1661 226.28 81.7385C221.658 86.5513 219.411 95.456 222.57 102.325C223.63 104.615 225.623 106.332 228.019 107.053C235.842 109.385 258.698 113.499 264.401 103.385C268.472 113.795 284.563 112.46 297.814 108.707C298.769 108.431 299.532 107.689 299.808 106.735C301.228 101.435 301.482 94.7139 300.21 91.4489Z" fill="#2D2D37"/>
<path d="M277.779 129.633C277.779 125.923 280.556 122.955 283.927 123.124C286.917 123.294 289.355 126.008 289.482 129.336C289.546 130.863 289.122 132.283 288.38 133.407C287.722 134.425 287.15 135.464 286.535 136.524C285.581 138.199 283.779 139.238 281.807 138.92C279.899 138.623 278.309 136.99 277.885 134.912C277.758 134.319 277.737 133.725 277.779 133.174C277.864 132.114 277.821 131.054 277.758 129.994C277.779 129.888 277.779 129.761 277.779 129.633Z" fill="#FFE4EE"/>
<path d="M284.882 129.486L283.97 130.397C283.037 131.33 283.037 132.835 283.97 133.747" stroke="#FFBED2" stroke-width="1.73641" stroke-miterlimit="10" stroke-linecap="round" stroke-linejoin="round"/>
</g>
</svg>
