<svg width="382" height="348" viewBox="0 0 382 348" fill="none" xmlns="http://www.w3.org/2000/svg">
<mask id="mask0" mask-type="alpha" maskUnits="userSpaceOnUse" x="0" y="0" width="382" height="348">
<path d="M382 324C382 337.255 371.255 348 358 348L24 348C10.7452 348 2.95782e-05 337.255 2.84194e-05 324L2.19259e-06 24C1.03382e-06 10.7452 10.7452 1.93855e-06 24 7.79773e-07L358 -2.84194e-05C371.255 -2.95782e-05 382 10.7451 382 24L382 324Z" fill="#32BECD"/>
</mask>
<g mask="url(#mask0)">
<path d="M252.621 277.105H340.415C352.463 257.447 351.563 201.924 346.449 173.338H320.717L321.504 184.066C322.872 195.835 313.672 197.617 301.825 197.617C298.615 197.617 295.6 197.484 292.935 197.059C292.93 197.059 292.928 197.057 292.923 197.057C292.108 196.926 291.326 196.767 290.582 196.576C290.552 196.569 290.522 196.561 290.492 196.554C290.145 196.463 289.805 196.368 289.476 196.262C289.458 196.257 289.438 196.25 289.418 196.244C288.732 196.023 288.086 195.769 287.48 195.478C287.434 195.455 287.389 195.435 287.344 195.412C287.075 195.279 286.811 195.138 286.559 194.987C286.534 194.972 286.512 194.96 286.486 194.945C286.207 194.776 285.938 194.598 285.682 194.409C285.664 194.397 285.649 194.381 285.632 194.369C285.405 194.2 285.192 194.022 284.983 193.836C284.935 193.793 284.89 193.75 284.842 193.708C284.646 193.522 284.455 193.328 284.274 193.124C284.256 193.102 284.234 193.082 284.216 193.059C284.018 192.828 283.832 192.586 283.658 192.335C283.63 192.295 283.603 192.249 283.575 192.209C283.437 191.998 283.306 191.779 283.185 191.551C283.15 191.485 283.115 191.42 283.08 191.352C282.954 191.098 282.833 190.837 282.728 190.56C282.72 190.537 282.71 190.515 282.7 190.492C282.587 190.19 282.489 189.876 282.403 189.549C282.386 189.476 282.368 189.403 282.351 189.328C282.288 189.067 282.233 188.795 282.187 188.516C282.172 188.425 282.157 188.337 282.145 188.244C282.094 187.89 282.054 187.528 282.031 187.148C281.984 186.273 282.014 185.32 282.122 184.295C282.129 184.219 282.134 184.146 282.142 184.071L282.831 174.638H247.346C245.44 196.83 244.568 251.777 252.621 277.105Z" fill="#2D2D37"/>
<path d="M98.0222 187.53L98.1178 201.089C98.1429 204.722 101.11 207.646 104.743 207.621C104.793 207.621 104.841 207.613 104.891 207.613L110.568 214.13L104.386 231.98C109.99 235.131 118.387 236.966 126.689 236.908H231.942V192.651H159.338C150.128 192.717 141.108 190.034 133.427 184.948C125.872 179.942 116.896 177.516 107.833 177.581C102.377 177.617 97.982 182.072 98.0222 187.53Z" fill="#FFE4EE"/>
<path d="M109.285 206.159L67.625 206.453C63.992 206.478 61.0253 203.554 61.0002 199.921C60.975 196.288 63.899 193.321 67.532 193.296L109.192 193.002C112.825 192.977 115.791 195.901 115.817 199.534C115.842 203.167 112.918 206.134 109.285 206.159Z" fill="#FFE4EE"/>
<path d="M114.496 232.436L97.7061 232.554C94.053 232.58 91.0712 229.641 91.0461 225.987V225.917C91.0209 222.264 93.96 219.282 97.6131 219.257L114.403 219.139C118.056 219.114 121.038 222.053 121.063 225.706V225.776C121.088 229.429 118.149 232.411 114.496 232.436Z" fill="#FFE4EE"/>
<path d="M109.85 219.313L92.9873 219.431C89.3543 219.456 86.3876 216.532 86.3625 212.899C86.3373 209.266 89.2613 206.3 92.8943 206.275L109.757 206.156C113.39 206.131 116.357 209.055 116.382 212.688C116.407 216.321 113.483 219.288 109.85 219.313Z" fill="#FFE4EE"/>
<path d="M112.29 206.641C114.676 207.614 116.366 209.949 116.386 212.687C116.411 216.32 113.487 219.287 109.854 219.312L100.929 219.375L114.442 219.279C118.075 219.254 121.042 222.178 121.067 225.811C121.085 228.381 119.627 230.618 117.485 231.714" stroke="#FFBED2" stroke-width="1.85743" stroke-miterlimit="10" stroke-linecap="round" stroke-linejoin="round"/>
<path d="M129.089 205.633C114.459 205.736 111.216 192.989 111.216 192.989L111.271 200.994C111.296 204.627 108.372 207.592 104.739 207.619C101.106 207.644 98.1394 204.72 98.1143 201.087L98.0791 196.243" stroke="#FFBED2" stroke-width="1.85743" stroke-miterlimit="10" stroke-linecap="round" stroke-linejoin="round"/>
<path d="M280.232 238.159H233.35C232.573 238.159 231.942 237.528 231.942 236.751V192.527C231.942 191.75 232.573 191.119 233.35 191.119H280.232C293.222 191.119 303.754 201.651 303.754 214.642C303.754 227.627 293.222 238.159 280.232 238.159Z" fill="#32D7E1"/>
<path d="M240.621 238.161H261.398L274.024 196.207C274.022 196.207 251.321 207.284 240.621 238.161Z" fill="#32BECD"/>
<path d="M228.859 192.65V236.907H231.939V192.653L228.859 192.65Z" fill="#FFCDDC"/>
<path d="M343.82 195.372L323.247 185.361C312.532 180.146 300.114 179.699 289.052 184.129C271.596 191.121 258.99 206.63 255.711 225.145L235.294 340.528C234.59 344.51 237.652 348.163 241.697 348.163H355.697C359.612 348.163 362.639 344.731 362.149 340.847L343.82 195.372Z" fill="#32D7E1"/>
<path d="M351.533 256.599L301.845 225.282C301.845 225.282 307.92 259.435 353.894 275.337L351.533 256.599Z" fill="#32BECD"/>
<path d="M360.067 263.524C361.098 264.095 360.985 265.611 359.884 266.023L334.229 275.63C325.998 278.337 317.163 278.722 308.7 276.711C299.715 274.576 290.276 275.421 281.638 278.689C276.514 280.628 273.977 286.41 275.903 291.542L277.281 295.215C277.281 295.215 273.555 297.048 270.782 299.011C268.008 300.975 265.839 304.472 267.131 307.922C268.36 311.2 271.89 312.907 275.199 311.962C272.383 313.579 271.058 317.025 272.235 320.166L272.293 320.319C273.602 323.809 277.494 325.579 280.984 324.269L283.33 323.389C280.76 325.056 279.594 328.332 280.715 331.319C281.683 333.898 284.076 335.522 286.661 335.638V335.64C293.095 336.679 301.728 335.495 309.61 332.538L397.853 299.328C412.299 293.89 421.866 280.072 421.866 264.635C421.866 251.727 415.153 239.75 404.141 233.014L341.953 194.97C328.067 185.959 309.424 191.277 302.382 206.256C298.528 218.91 304.049 232.537 315.629 238.935L360.067 263.524Z" fill="#FFE4EE"/>
<path d="M364.369 265.338L369.927 265.572" stroke="#FFBED2" stroke-width="1.85743" stroke-miterlimit="10" stroke-linecap="round" stroke-linejoin="round"/>
<path d="M366.498 209.982L338.671 251.682L348.771 257.271L374.114 214.639L366.498 209.982Z" fill="#FFCDDC"/>
<path d="M318.899 190.913C311 193.168 304.463 198.724 300.966 206.159L300.911 206.309C296.926 219.401 302.718 233.699 314.691 240.314L344.182 256.613C344.848 256.98 345.685 256.754 346.073 256.1L371.556 213.331C371.956 212.66 371.735 211.793 371.061 211.396L342.186 194.402C335.292 189.93 326.804 188.657 318.899 190.913Z" fill="#32D7E1"/>
<path d="M279.7 295.231L294.209 289.788C294.209 289.788 288.623 291.465 287.328 288.011L288.761 291.832" stroke="#FFBED2" stroke-width="1.85743" stroke-miterlimit="10" stroke-linecap="round" stroke-linejoin="round"/>
<path d="M285.647 322.385L288.136 321.45" stroke="#FFBED2" stroke-width="1.85743" stroke-miterlimit="10" stroke-linecap="round" stroke-linejoin="round"/>
<path d="M277.762 310.969L280.253 310.036" stroke="#FFBED2" stroke-width="1.85743" stroke-miterlimit="10" stroke-linecap="round" stroke-linejoin="round"/>
<path d="M318.502 142.945H285.149L282.145 183.987C280.777 195.755 289.976 197.536 301.823 197.536C313.672 197.536 322.869 195.755 321.502 183.987L318.502 142.945Z" fill="#FFDAE4"/>
<path d="M310.832 159.822C304.531 164.823 296.079 184.685 294.221 197.163C287.314 196.32 282.392 194.181 282.012 187.458C282.03 186.191 282.06 185.158 282.102 184.607C282.11 184.532 282.115 184.459 282.123 184.383L283.596 160.81L310.832 159.822Z" fill="#FFCDDC"/>
<path d="M255.362 119.558C255.362 97.7679 273.552 80.229 295.574 81.2925C315.106 82.2353 331.104 98.326 331.949 117.864C332.338 126.839 329.623 135.151 324.801 141.851C320.527 147.785 316.695 154.007 312.773 160.18C306.5 170.053 294.825 176.152 281.902 174.307C269.411 172.522 259.088 163.008 256.207 150.724C255.377 147.189 255.184 143.742 255.515 140.451C256.139 134.238 255.795 127.988 255.427 121.756C255.382 121.026 255.362 120.295 255.362 119.558Z" fill="#FFE4EE"/>
<path d="M282.746 174.414C282.432 174.379 282.221 174.351 281.907 174.306C270.832 172.722 261.298 165.343 257.426 154.846C255.601 149.893 255.058 145.061 255.515 140.525C255.845 137.242 255.9 133.948 255.827 130.652C255.784 125.815 256.7 121.023 258.56 116.555C261.735 108.927 266.668 100.583 272.478 98.9838C273.562 98.6846 274.678 99.3006 275.061 100.359C276.106 103.268 279.536 109.164 290.45 111.276C301.691 113.45 304.899 129.893 315.976 132.133C321.789 133.461 319.046 150.411 319.046 150.411L320.818 174.63H346.689C345.671 168.943 344.494 163.118 343.187 157.134L338.553 127.004C338.428 126.192 338.34 125.378 338.284 124.558H338.282C338.287 122.353 338.106 120.025 337.696 117.569C333.183 90.6166 319.292 83.3054 313.118 81.3192C310.02 80.3236 300.833 77.113 290.646 77.0024C286.583 76.9496 282.367 77.7742 278.311 79.3531C269.494 82.7825 262.452 89.6562 258.261 98.1365C254.024 106.705 251.82 114.873 251.422 119.426C250.894 125.43 250.293 135.203 250.175 139.869C249.919 149.896 248.425 162.135 247.317 175.053L282.711 174.99L282.746 174.414Z" fill="#2D2D37"/>
<path d="M315.956 133.434C315.956 129.422 318.971 126.191 322.621 126.387C325.86 126.56 328.512 129.522 328.65 133.12C328.716 134.772 328.266 136.303 327.466 137.537C326.757 138.631 326.124 139.775 325.472 140.911C324.432 142.729 322.498 143.853 320.356 143.513C318.284 143.184 316.575 141.432 316.097 139.171C315.959 138.52 315.929 137.887 315.981 137.281C316.085 136.137 316.027 134.985 315.966 133.839C315.961 133.706 315.956 133.57 315.956 133.434Z" fill="#FFE4EE"/>
<path d="M268.844 138.205C271.143 138.205 273.007 135.61 273.007 132.408C273.007 129.206 271.143 126.61 268.844 126.61C266.544 126.61 264.68 129.206 264.68 132.408C264.68 135.61 266.544 138.205 268.844 138.205Z" fill="white"/>
<path d="M289.505 138.205C291.805 138.205 293.669 135.61 293.669 132.408C293.669 129.206 291.805 126.61 289.505 126.61C287.206 126.61 285.342 129.206 285.342 132.408C285.342 135.61 287.206 138.205 289.505 138.205Z" fill="white"/>
<path d="M267.247 135.979C268.663 135.979 269.812 134.38 269.812 132.407C269.812 130.434 268.663 128.834 267.247 128.834C265.831 128.834 264.683 130.434 264.683 132.407C264.683 134.38 265.831 135.979 267.247 135.979Z" fill="#2D2D37"/>
<path d="M287.83 135.868C289.202 135.868 290.314 134.318 290.314 132.406C290.314 130.494 289.202 128.944 287.83 128.944C286.458 128.944 285.346 130.494 285.346 132.406C285.346 134.318 286.458 135.868 287.83 135.868Z" fill="#2D2D37"/>
<path d="M292.615 147.22C285.304 149.405 278.466 150.996 272.66 151.301C271.994 151.336 271.61 152.08 271.992 152.626C272.962 154.003 275.449 154.984 278.365 154.984C285.04 154.984 291.037 151.258 293.493 148.603C294.081 147.969 293.443 146.974 292.615 147.22Z" fill="#FF7BA4"/>
<path d="M323.656 133.279L322.666 134.269C321.66 135.275 321.66 136.904 322.666 137.907" stroke="#FFBED2" stroke-width="1.85743" stroke-miterlimit="10" stroke-linecap="round" stroke-linejoin="round"/>
<path d="M278.986 139.943C276.545 140.004 274.518 138.073 274.458 135.631C274.398 133.19 277.817 131.674 278.77 131.103V125.773" stroke="#FFBED2" stroke-width="1.85743" stroke-miterlimit="10" stroke-linecap="round" stroke-linejoin="round"/>
</g>
</svg>
