<svg width="382" height="348" viewBox="0 0 382 348" fill="none" xmlns="http://www.w3.org/2000/svg">
<mask id="mask0" mask-type="alpha" maskUnits="userSpaceOnUse" x="0" y="0" width="382" height="348">
<path d="M382 324C382 337.255 371.255 348 358 348L24 348C10.7452 348 2.95782e-05 337.255 2.84194e-05 324L2.19259e-06 24C1.03382e-06 10.7452 10.7452 1.93855e-06 24 7.79773e-07L358 -2.84194e-05C371.255 -2.95782e-05 382 10.7451 382 24L382 324Z" fill="#F04682"/>
</mask>
<g mask="url(#mask0)">
<path d="M176.231 246.48L173.43 279.464C173.352 280.381 172.085 280.559 171.76 279.696L161.186 247.117L157.404 237.056C157.095 236.289 156.758 235.538 156.406 234.794L142.865 196.485C141.981 193.541 138.876 191.871 135.933 192.755C132.989 193.639 131.319 196.744 132.203 199.687L134.937 207.42C135.909 210.171 133.317 212.891 130.543 211.986C126.269 210.591 121.734 209.848 117.077 209.848H99.0178C95.9437 209.848 93.4517 212.34 93.4517 215.414C93.4517 218.488 95.9437 220.98 99.0178 220.98H116.108C116.643 220.98 117.077 221.412 117.077 221.949C117.077 222.484 116.645 222.919 116.108 222.919H96.5661C93.492 222.914 91 225.406 91 228.48C91 231.554 93.492 234.046 96.5661 234.046H116.106C116.64 234.046 117.075 234.478 117.075 235.015C117.075 235.55 116.643 235.985 116.106 235.985H102.284C99.2102 235.985 96.7182 238.477 96.7182 241.551C96.7182 244.625 99.2102 247.117 102.284 247.117H117.075H122.862L142.449 300.638C147.64 313.704 160.276 322.28 174.335 322.28C191.34 322.28 205.544 309.323 207.102 292.389L210.891 251.205L176.231 246.48Z" fill="#FFE4EE"/>
<path d="M135.496 218.393C135.152 224.477 139.68 228.61 144.607 227.933" stroke="#FFBED2" stroke-width="1.75509" stroke-miterlimit="10" stroke-linecap="round" stroke-linejoin="round"/>
<path d="M130.482 240.16C132.216 235.463 130.335 224.939 127.719 220.05" stroke="#FFBED2" stroke-width="1.75509" stroke-miterlimit="10" stroke-linecap="round" stroke-linejoin="round"/>
<path d="M176.229 246.481L210.89 251.202L209.602 265.185C198.123 260.215 186.784 255.552 175.685 252.879L176.229 246.481Z" fill="#FFCDDC"/>
<path d="M172.851 283.38L173.878 288.4" stroke="#FFBED2" stroke-width="1.75509" stroke-miterlimit="10" stroke-linecap="round" stroke-linejoin="round"/>
<path d="M356.626 246.479L359.427 279.463C359.505 280.38 360.771 280.558 361.097 279.695L371.671 247.116L375.453 237.055C375.762 236.288 376.099 235.537 376.451 234.793L389.992 196.484C390.876 193.54 393.98 191.87 396.924 192.754C399.867 193.638 401.537 196.743 400.654 199.686L397.919 207.419C396.948 210.17 399.54 212.89 402.314 211.985C406.588 210.59 411.123 209.847 415.779 209.847H433.837C436.911 209.847 439.403 212.339 439.403 215.413C439.403 218.487 436.911 220.979 433.837 220.979H416.746C416.212 220.979 415.777 221.411 415.777 221.948C415.777 222.483 416.209 222.918 416.746 222.918H436.286C439.36 222.918 441.852 225.41 441.852 228.484C441.852 231.558 439.36 234.05 436.286 234.05H416.746C416.212 234.05 415.777 234.482 415.777 235.019C415.777 235.554 416.209 235.988 416.746 235.988H430.568C433.642 235.988 436.134 238.48 436.134 241.554C436.134 244.629 433.642 247.121 430.568 247.121H415.777H409.99L390.403 300.641C385.212 313.707 372.576 322.283 358.517 322.283C341.512 322.283 327.308 309.327 325.75 292.393L321.961 251.209L356.626 246.479Z" fill="#FFE4EE"/>
<path d="M356.627 246.481L321.967 251.202L323.254 265.185C334.733 260.215 346.072 255.552 357.171 252.879L356.627 246.481Z" fill="#FFCDDC"/>
<path d="M360.007 283.38L358.981 288.4" stroke="#FFBED2" stroke-width="1.75509" stroke-miterlimit="10" stroke-linecap="round" stroke-linejoin="round"/>
<path d="M219.284 237.22H302.242C313.626 218.645 312.775 194.04 307.943 167.029H283.628L284.372 177.166C285.664 188.287 276.972 189.971 265.778 189.971C262.744 189.971 259.896 189.845 257.378 189.443C257.373 189.443 257.37 189.441 257.366 189.441C256.596 189.318 255.857 189.168 255.154 188.987C255.125 188.98 255.097 188.973 255.068 188.966C254.741 188.88 254.42 188.79 254.109 188.69C254.092 188.686 254.073 188.679 254.054 188.674C253.405 188.465 252.795 188.225 252.222 187.949C252.18 187.928 252.137 187.909 252.094 187.887C251.84 187.762 251.59 187.628 251.353 187.486C251.329 187.472 251.308 187.46 251.284 187.446C251.02 187.286 250.766 187.118 250.524 186.94C250.507 186.928 250.493 186.913 250.476 186.902C250.263 186.742 250.061 186.574 249.863 186.398C249.818 186.358 249.776 186.317 249.73 186.277C249.545 186.101 249.365 185.918 249.193 185.726C249.177 185.704 249.155 185.685 249.139 185.664C248.951 185.445 248.775 185.217 248.611 184.98C248.585 184.942 248.559 184.899 248.533 184.861C248.402 184.661 248.279 184.455 248.165 184.238C248.132 184.177 248.098 184.115 248.065 184.051C247.946 183.811 247.832 183.564 247.732 183.302C247.725 183.281 247.716 183.26 247.706 183.238C247.599 182.953 247.507 182.656 247.426 182.347C247.409 182.279 247.393 182.21 247.376 182.138C247.317 181.891 247.264 181.635 247.222 181.371C247.207 181.286 247.193 181.202 247.181 181.114C247.134 180.78 247.096 180.437 247.074 180.079C247.029 179.252 247.058 178.352 247.16 177.382C247.167 177.311 247.172 177.242 247.179 177.171L247.83 168.258H214.302C212.502 189.227 211.675 213.288 219.284 237.22Z" fill="#2D2D37"/>
<path d="M202.715 254.289C205.252 254.952 206.953 257.335 206.758 259.95L200.6 342.468C200.365 345.618 202.857 348.305 206.019 348.305H326.709C329.923 348.305 332.434 345.53 332.116 342.333L323.898 260.128C323.63 257.437 325.381 254.957 328.008 254.313L357.055 247.181C359.683 246.537 361.498 244.05 361.182 241.363C358.129 215.362 330.068 193.874 292.583 186.873C290.362 186.457 288.601 184.766 288.178 182.547C287.82 180.663 286.508 179.064 284.691 178.451C272.509 174.351 260.338 174.356 248.177 178.451C246.36 179.064 245.051 180.663 244.692 182.547C244.269 184.766 242.509 186.46 240.288 186.873C202.772 193.881 174.694 215.402 171.682 241.432C171.375 244.088 173.143 246.554 175.73 247.231L202.715 254.289Z" fill="#FF6991"/>
<path d="M288.157 192.836L280.137 203.657C278.852 205.391 276.336 205.607 274.773 204.118L269.003 198.616C267.565 197.245 265.304 197.245 263.867 198.616L258.096 204.118C256.533 205.607 254.017 205.391 252.732 203.657L244.709 192.836" stroke="#F04682" stroke-width="1.75509" stroke-miterlimit="10" stroke-linecap="round" stroke-linejoin="round"/>
<path d="M266.396 207.219C267.319 207.219 268.068 206.47 268.068 205.546C268.068 204.623 267.319 203.874 266.396 203.874C265.472 203.874 264.723 204.623 264.723 205.546C264.723 206.47 265.472 207.219 266.396 207.219Z" fill="white"/>
<path d="M266.396 212.328C267.319 212.328 268.068 211.58 268.068 210.656C268.068 209.732 267.319 208.983 266.396 208.983C265.472 208.983 264.723 209.732 264.723 210.656C264.723 211.58 265.472 212.328 266.396 212.328Z" fill="white"/>
<path d="M281.534 138.31H250.021L247.182 177.09C245.889 188.21 254.582 189.892 265.776 189.892C276.972 189.892 285.662 188.21 284.37 177.09L281.534 138.31Z" fill="#FFDAE4"/>
<path d="M274.288 154.259C268.335 158.984 260.348 177.751 258.592 189.542C252.066 188.746 247.415 186.724 247.056 180.372C247.073 179.175 247.101 178.198 247.142 177.678C247.149 177.607 247.154 177.538 247.161 177.466L248.553 155.192L274.288 154.259Z" fill="#FFCDDC"/>
<path d="M221.871 116.211C221.871 95.6217 239.058 79.0493 259.867 80.0542C278.323 80.945 293.439 96.1491 294.237 114.61C294.606 123.091 292.04 130.945 287.484 137.276C283.445 142.883 279.824 148.762 276.118 154.595C270.191 163.924 259.159 169.687 246.948 167.943C235.146 166.257 225.391 157.267 222.669 145.66C221.885 142.32 221.702 139.063 222.016 135.953C222.605 130.083 222.279 124.177 221.932 118.288C221.892 117.599 221.871 116.907 221.871 116.211Z" fill="#FFE4EE"/>
<path d="M247.748 168.044C247.451 168.011 247.252 167.985 246.955 167.942C236.49 166.445 227.482 159.473 223.823 149.554C222.098 144.874 221.585 140.308 222.018 136.023C222.329 132.92 222.381 129.808 222.312 126.694C222.272 122.123 223.137 117.595 224.895 113.373C227.895 106.166 232.556 98.281 238.046 96.7701C239.07 96.4874 240.125 97.0694 240.486 98.0696C241.474 100.818 244.715 106.389 255.027 108.385C265.649 110.44 268.68 125.976 279.147 128.093C284.64 129.347 282.048 145.364 282.048 145.364L283.723 168.248H308.168C307.206 162.875 306.094 157.37 304.859 151.716L300.48 123.247C300.362 122.479 300.278 121.71 300.226 120.935H300.224C300.229 118.852 300.058 116.652 299.67 114.331C295.406 88.864 282.281 81.9556 276.446 80.0789C273.522 79.1429 264.839 76.1068 255.213 76.0023C251.374 75.9524 247.39 76.7316 243.558 78.2235C235.226 81.4639 228.572 87.9589 224.612 95.9719C220.609 104.068 218.526 111.787 218.15 116.089C217.651 121.762 217.084 130.996 216.972 135.405C216.73 144.879 215.318 156.444 214.271 168.65L247.715 168.59L247.748 168.044Z" fill="#2D2D37"/>
<path d="M279.132 129.325C279.132 125.533 281.981 122.48 285.43 122.666C288.49 122.83 290.996 125.628 291.127 129.028C291.189 130.588 290.763 132.035 290.008 133.202C289.338 134.235 288.737 135.316 288.124 136.39C287.14 138.107 285.314 139.169 283.29 138.849C281.332 138.537 279.717 136.882 279.265 134.746C279.135 134.131 279.106 133.532 279.156 132.959C279.253 131.878 279.199 130.79 279.142 129.707C279.135 129.579 279.132 129.453 279.132 129.325Z" fill="#FFE4EE"/>
<path d="M234.614 133.83C236.786 133.83 238.548 131.378 238.548 128.352C238.548 125.327 236.786 122.874 234.614 122.874C232.441 122.874 230.68 125.327 230.68 128.352C230.68 131.378 232.441 133.83 234.614 133.83Z" fill="white"/>
<path d="M254.139 133.83C256.311 133.83 258.073 131.378 258.073 128.352C258.073 125.327 256.311 122.874 254.139 122.874C251.966 122.874 250.205 125.327 250.205 128.352C250.205 131.378 251.966 133.83 254.139 133.83Z" fill="white"/>
<path d="M233.103 131.728C234.441 131.728 235.526 130.216 235.526 128.352C235.526 126.487 234.441 124.976 233.103 124.976C231.765 124.976 230.68 126.487 230.68 128.352C230.68 130.216 231.765 131.728 233.103 131.728Z" fill="#2D2D37"/>
<path d="M252.554 131.623C253.85 131.623 254.901 130.158 254.901 128.352C254.901 126.545 253.85 125.081 252.554 125.081C251.258 125.081 250.207 126.545 250.207 128.352C250.207 130.158 251.258 131.623 252.554 131.623Z" fill="#2D2D37"/>
<path d="M257.079 142.351C250.171 144.415 243.709 145.919 238.224 146.206C237.594 146.24 237.231 146.943 237.592 147.458C238.509 148.76 240.858 149.687 243.614 149.687C249.921 149.687 255.587 146.166 257.908 143.657C258.464 143.059 257.861 142.118 257.079 142.351Z" fill="#FF7BA4"/>
<path d="M286.407 129.174L285.471 130.11C284.52 131.06 284.52 132.599 285.471 133.547" stroke="#FFBED2" stroke-width="1.75509" stroke-miterlimit="10" stroke-linecap="round" stroke-linejoin="round"/>
<path d="M244.197 135.473C241.89 135.53 239.975 133.706 239.918 131.399C239.861 129.092 243.092 127.66 243.993 127.12V122.084" stroke="#FFBED2" stroke-width="1.75509" stroke-miterlimit="10" stroke-linecap="round" stroke-linejoin="round"/>
</g>
</svg>
