<svg width="382" height="348" viewBox="0 0 382 348" fill="none" xmlns="http://www.w3.org/2000/svg">
<mask id="mask0" mask-type="alpha" maskUnits="userSpaceOnUse" x="0" y="0" width="382" height="348">
<path d="M382 324C382 337.255 371.255 348 358 348L24 348C10.7452 348 2.95782e-05 337.255 2.84194e-05 324L2.19259e-06 24C1.03382e-06 10.7452 10.7452 1.93855e-06 24 7.79773e-07L358 -2.84194e-05C371.255 -2.95782e-05 382 10.7451 382 24L382 324Z" fill="#F04682"/>
</mask>
<g mask="url(#mask0)">
<path d="M315.418 213.113C314.042 208.149 308.819 205.298 303.895 206.834L270.104 217.439L290.338 290.205C294.625 305.616 297.794 330.157 298.014 348.079H341.933C341.614 331.194 338.763 299.376 335.992 287.574L315.418 213.113Z" fill="#FFE4EE"/>
<path d="M288.286 143.278H254.475L251.425 188.353C250.029 200.275 259.359 202.089 271.361 202.089C283.362 202.089 292.692 200.275 291.296 188.353L288.286 143.278Z" fill="#FFDAE4"/>
<path d="M280.551 163.433C274.152 168.496 265.52 189.03 263.646 201.69C256.648 200.832 251.704 198.281 251.325 191.462C251.345 190.187 251.365 189.13 251.425 188.572C251.425 188.492 251.445 188.412 251.445 188.352L252.94 164.449L280.551 163.433Z" fill="#FFCDDC"/>
<path d="M224.552 122.704C224.552 100.615 242.992 82.8523 265.301 83.9288C285.097 84.8857 301.305 101.193 302.162 120.99C302.561 130.08 299.81 138.513 294.925 145.291C290.599 151.312 285.755 155.678 281.768 161.938C275.408 171.946 261.234 176.97 249.97 174.478C238.706 171.986 230.373 162.277 228.3 154.283C227.383 150.714 227.403 146.169 227.243 142.819C226.944 136.819 225.01 131.237 224.631 124.917C224.572 124.179 224.552 123.442 224.552 122.704Z" fill="#FFE4EE"/>
<path d="M289.383 159.725C289.383 159.725 312.569 147.923 308.003 120.611C303.438 93.2984 289.343 85.8822 283.103 83.8687C276.843 81.8552 246.042 70.9104 231.609 93.7769C217.175 116.643 221.362 126.551 225.728 132.692C225.728 132.692 230.453 105.16 241.916 101.811C243.052 101.472 244.268 102.07 244.667 103.187C245.724 106.137 249.212 112.098 260.257 114.231C275.169 117.122 276.505 128.665 282.645 130.24C288.745 131.795 288.167 151.172 289.383 159.725Z" fill="#2D2D37"/>
<path d="M285.974 136.759C285.974 132.692 289.025 129.422 292.733 129.621C296.022 129.801 298.693 132.791 298.853 136.44C298.913 138.114 298.454 139.669 297.657 140.925C296.939 142.042 296.301 143.198 295.643 144.354C294.587 146.188 292.633 147.344 290.46 146.986C288.367 146.647 286.632 144.872 286.134 142.58C285.994 141.922 285.954 141.284 286.014 140.666C286.114 139.51 286.054 138.333 285.994 137.177C285.974 137.038 285.974 136.898 285.974 136.759Z" fill="#FFE4EE"/>
<path d="M314.839 101.678C320.569 95.9479 319.773 85.8624 313.062 79.1515C306.351 72.4405 296.266 71.6453 290.536 77.3753C284.806 83.1054 285.601 93.1908 292.312 99.9018C299.023 106.613 309.109 107.408 314.839 101.678Z" fill="#2D2D37"/>
<path d="M240.321 136.938C242.655 136.938 244.547 134.305 244.547 131.057C244.547 127.809 242.655 125.176 240.321 125.176C237.987 125.176 236.094 127.809 236.094 131.057C236.094 134.305 237.987 136.938 240.321 136.938Z" fill="white"/>
<path d="M261.273 136.938C263.607 136.938 265.499 134.305 265.499 131.057C265.499 127.809 263.607 125.176 261.273 125.176C258.939 125.176 257.047 127.809 257.047 131.057C257.047 134.305 258.939 136.938 261.273 136.938Z" fill="white"/>
<path d="M238.706 134.686C240.137 134.686 241.297 133.061 241.297 131.058C241.297 129.054 240.137 127.429 238.706 127.429C237.274 127.429 236.114 129.054 236.114 131.058C236.114 133.061 237.274 134.686 238.706 134.686Z" fill="#2D2D37"/>
<path d="M259.559 134.566C260.946 134.566 262.07 132.995 262.07 131.058C262.07 129.12 260.946 127.549 259.559 127.549C258.171 127.549 257.047 129.12 257.047 131.058C257.047 132.995 258.171 134.566 259.559 134.566Z" fill="#2D2D37"/>
<path d="M259.079 147.843C255.85 149.478 245.742 149.478 242.513 147.843C242.054 147.604 241.655 148.461 241.895 149.199C243.031 152.807 246.6 155.459 250.806 155.459C255.012 155.459 258.561 152.827 259.717 149.199C259.937 148.461 259.538 147.604 259.079 147.843Z" fill="#FF7BA4"/>
<path d="M293.769 136.599L292.773 137.595C291.756 138.612 291.756 140.267 292.773 141.284" stroke="#FFBED2" stroke-width="1.88394" stroke-miterlimit="10" stroke-linecap="round" stroke-linejoin="round"/>
<path d="M250.608 141.204C248.136 141.264 246.082 139.31 246.022 136.838C245.983 135.363 247.219 134.207 248.415 133.409C249.691 132.552 250.388 131.077 250.388 129.562V126.212" stroke="#FFBED2" stroke-width="1.88394" stroke-miterlimit="10" stroke-linecap="round" stroke-linejoin="round"/>
<path d="M293.986 187.197C283.4 182.053 271.12 181.595 260.195 185.981C242.95 192.879 230.49 208.209 227.261 226.51L207.086 340.524C206.388 344.451 209.418 348.08 213.405 348.08H326.043C329.911 348.08 332.901 344.69 332.423 340.843L317.132 219.513C315.377 205.538 306.665 193.377 293.986 187.197Z" fill="#FF6991"/>
<path d="M273.373 239.409L234.498 301.09C234.498 301.09 278.796 296.844 278.796 236.638L273.373 239.409Z" fill="#F04682"/>
<path d="M265.957 198.141C253.457 194.334 239.98 199.796 233.66 211.239L209.02 255.816C208.262 256.972 207.026 256.793 206.647 255.696L194.965 223.3C193.39 218.934 194.467 213.97 197.935 210.88C204.375 205.139 207.026 195.849 203.936 187.256C202.919 184.426 201.344 181.874 199.271 179.681C197.377 177.667 194.566 177.049 192.114 177.847C191.337 175.375 189.203 173.461 186.472 173.082C182.983 172.604 179.395 172.962 176.086 174.158C170.464 176.192 166.197 180.299 163.805 185.323L157.645 168.198C156.429 164.809 152.761 162.815 149.352 163.931C145.823 165.088 143.969 168.915 145.205 172.384L153 194.035C153.12 194.354 152.94 194.712 152.621 194.812C152.302 194.912 151.943 194.752 151.844 194.433V194.413L145.823 177.687C144.607 174.298 140.939 172.305 137.53 173.421C134.001 174.577 132.147 178.405 133.383 181.874L139.503 198.879L146.142 217.34L176.903 302.705C183.542 321.106 205.75 329.399 223.334 318.076C227.6 315.325 231.149 311.557 233.9 307.29L277.101 237.236C285.992 223.52 280.749 205.099 265.957 198.141ZM176.006 197.324C174.531 193.217 176.664 188.672 180.771 187.197C181.987 186.758 183.263 186.618 184.538 186.798C185.615 186.957 186.672 186.838 187.629 186.539C187.928 187.516 188.466 188.433 189.203 189.21C189.961 190.008 190.519 190.925 190.898 191.961C192.373 196.068 190.24 200.613 186.133 202.089C182.027 203.564 177.481 201.431 176.006 197.324Z" fill="#FFE4EE"/>
<path d="M191.356 179.421C191.476 181.455 190.439 183.448 188.685 184.485" stroke="#FFBED2" stroke-width="1.88394" stroke-miterlimit="10" stroke-linecap="round" stroke-linejoin="round"/>
<path d="M207.564 259.384L207.325 264.887" stroke="#FFBED2" stroke-width="1.88394" stroke-miterlimit="10" stroke-linecap="round" stroke-linejoin="round"/>
<path d="M214.701 245.529L256.946 269.931L267.392 252.985L224.33 228.105L214.701 245.529Z" fill="#FFCDDC"/>
<path d="M281.487 214.847C279.254 207.033 273.772 200.573 266.415 197.124L266.276 197.065C253.337 193.137 239.203 198.859 232.684 210.681L216.556 239.867C216.217 240.505 216.416 241.282 217.034 241.661L259.398 266.9C260.036 267.279 260.853 267.06 261.232 266.422L278.058 237.834C282.464 231.035 283.72 222.662 281.487 214.847Z" fill="#FF6991"/>
</g>
</svg>
