<svg width="382" height="348" viewBox="0 0 382 348" fill="none" xmlns="http://www.w3.org/2000/svg">
<mask id="mask0" mask-type="alpha" maskUnits="userSpaceOnUse" x="0" y="0" width="382" height="348">
<path d="M382 324C382 337.255 371.255 348 358 348L24 348C10.7452 348 2.95782e-05 337.255 2.84194e-05 324L2.19259e-06 24C1.03382e-06 10.7452 10.7452 1.93855e-06 24 7.79773e-07L358 -2.84194e-05C371.255 -2.95782e-05 382 10.7451 382 24L382 324Z" fill="#3C6EE6"/>
</mask>
<g mask="url(#mask0)">
<path d="M366.29 229.902L324.246 230.617C331.594 263.004 325.855 297.953 330.323 348.29H382.124C382.055 347.449 382.002 346.606 381.987 345.762C377.248 287.129 373.781 260.309 366.29 229.902Z" fill="#FFE4EE"/>
<path d="M222.408 297.84L231.08 248.83L191.155 240.633L183.823 281.262C183.668 282.128 182.424 282.126 182.27 281.259L169.069 206.614C168.444 203.07 168.286 199.457 168.6 195.871L169.867 181.387C170.117 178.524 168.502 175.695 165.779 174.779C161.779 173.433 158.043 176.42 157.703 180.282L155.766 202.421L144.193 180.474C142.766 177.419 139.134 176.098 136.077 177.523C133.019 178.949 131.696 182.584 133.124 185.644L143.553 205.163C134.899 208.912 129.609 218.218 131.321 227.916L143.677 297.831C147.052 316.93 163.648 330.852 183.043 330.852C202.433 330.852 219.029 316.936 222.408 297.84Z" fill="#FFE4EE"/>
<path d="M140.978 226.335L133.646 210.614C132.221 207.557 133.544 203.923 136.599 202.498C139.657 201.073 143.29 202.396 144.716 205.451L152.047 221.172C153.472 224.229 152.149 227.863 149.094 229.288C146.036 230.713 142.403 229.393 140.978 226.335Z" fill="#FFE4EE"/>
<path d="M146.427 209.126L152.045 221.175C153.471 224.232 152.148 227.866 149.092 229.291C146.035 230.717 142.401 229.394 140.976 226.338L137.336 218.533" stroke="#FFBED2" stroke-width="1.75925" stroke-miterlimit="10" stroke-linecap="round" stroke-linejoin="round"/>
<path d="M167.907 218.842L164.267 211.037C162.842 207.979 159.208 206.656 156.151 208.084C153.093 209.509 151.77 213.143 153.198 216.2L158.816 228.249C155.421 228.849 153.155 232.085 153.753 235.478L154.036 237.091" stroke="#FFBED2" stroke-width="1.75925" stroke-miterlimit="10" stroke-linecap="round" stroke-linejoin="round"/>
<path d="M227.954 266.5L231.079 248.829L191.155 240.632L188.936 252.92C201.712 256.045 214.755 261.16 227.954 266.5Z" fill="#FFCDDC"/>
<path d="M368.592 239.715L328.048 247.996C329.369 254.288 330.655 260.747 331.899 267.459C345.254 261.639 358.442 255.895 371.301 252.918C370.458 248.442 369.56 244.074 368.592 239.715Z" fill="#FFCDDC"/>
<path d="M217.529 254.557C220.058 255.218 221.754 257.593 221.56 260.201L215.419 342.472C215.184 345.613 217.67 348.293 220.822 348.293H341.153C344.358 348.293 346.861 345.525 346.543 342.338L338.349 260.38C338.081 257.696 339.828 255.223 342.448 254.58L371.41 247.471C374.031 246.829 375.84 244.347 375.524 241.67C372.479 215.746 344.501 194.322 307.13 187.341C304.917 186.927 303.161 185.239 302.739 183.028C302.38 181.151 301.075 179.555 299.263 178.947C287.118 174.859 274.982 174.863 262.859 178.947C261.047 179.557 259.741 181.151 259.383 183.028C258.963 185.241 257.207 186.929 254.992 187.343C217.589 194.33 189.596 215.786 186.591 241.738C186.284 244.386 188.049 246.846 190.628 247.52L217.529 254.557Z" fill="#5F8CFF"/>
<path d="M302.718 193.283L294.721 204.071C293.439 205.801 290.931 206.017 289.374 204.53L283.619 199.042C282.186 197.674 279.933 197.674 278.499 199.042L272.744 204.53C271.187 206.015 268.678 205.799 267.397 204.071L259.4 193.283" stroke="#3C6EE6" stroke-width="1.75925" stroke-miterlimit="10" stroke-linecap="round" stroke-linejoin="round"/>
<path d="M281.021 207.627C281.943 207.627 282.69 206.88 282.69 205.958C282.69 205.037 281.943 204.29 281.021 204.29C280.1 204.29 279.353 205.037 279.353 205.958C279.353 206.88 280.1 207.627 281.021 207.627Z" fill="white"/>
<path d="M281.021 212.724C281.943 212.724 282.69 211.977 282.69 211.055C282.69 210.134 281.943 209.387 281.021 209.387C280.1 209.387 279.353 210.134 279.353 211.055C279.353 211.977 280.1 212.724 281.021 212.724Z" fill="white"/>
<path d="M296.416 139.732H265.235L262.427 178.102C261.149 189.105 269.748 190.769 280.826 190.769C291.902 190.769 300.502 189.105 299.224 178.102L296.416 139.732Z" fill="#FFDAE4"/>
<path d="M289.29 158.326C283.395 163.006 275.432 178.739 273.693 190.412C267.232 189.625 262.677 187.272 262.323 180.979C262.34 179.795 262.368 178.827 262.406 178.31C262.414 178.24 262.417 178.172 262.425 178.101L263.806 159.248L289.29 158.326Z" fill="#FFCDDC"/>
<path d="M237.384 117.866C237.384 97.496 254.389 81.0968 274.979 82.091C293.24 82.9722 308.195 98.0145 308.985 116.281C309.347 124.672 306.81 132.443 302.302 138.705C298.308 144.253 294.723 150.071 291.058 155.841C285.194 165.071 274.277 170.772 262.196 169.046C250.518 167.377 240.866 158.482 238.173 146.999C237.399 143.694 237.217 140.472 237.527 137.395C238.109 131.587 237.787 125.743 237.443 119.916C237.405 119.238 237.384 118.555 237.384 117.866Z" fill="#FFE4EE"/>
<path d="M272.047 131.327C274.087 131.327 275.741 129 275.741 126.13C275.741 123.259 274.087 120.932 272.047 120.932C270.008 120.932 268.354 123.259 268.354 126.13C268.354 129 270.008 131.327 272.047 131.327Z" fill="white"/>
<path d="M270.863 129.994C272.248 129.994 273.37 128.31 273.37 126.232C273.37 124.155 272.248 122.471 270.863 122.471C269.478 122.471 268.356 124.155 268.356 126.232C268.356 128.31 269.478 129.994 270.863 129.994Z" fill="#2D2D37"/>
<path d="M251.667 131.327C253.707 131.327 255.36 129 255.36 126.13C255.36 123.259 253.707 120.932 251.667 120.932C249.627 120.932 247.974 123.259 247.974 126.13C247.974 129 249.627 131.327 251.667 131.327Z" fill="white"/>
<path d="M250.483 129.994C251.867 129.994 252.99 128.31 252.99 126.232C252.99 124.155 251.867 122.471 250.483 122.471C249.098 122.471 247.976 124.155 247.976 126.232C247.976 128.31 249.098 129.994 250.483 129.994Z" fill="#2D2D37"/>
<path d="M333.196 111.913C333.196 109.222 332.102 106.788 330.335 105.028C331.37 103.483 331.974 101.627 331.974 99.6295C331.974 97.1523 331.039 94.8971 329.511 93.1795C329.878 92.1553 330.088 91.0586 330.088 89.9086C330.088 85.1698 326.695 81.2289 322.21 80.369C322.236 80.0831 322.255 79.7951 322.255 79.5028C322.255 75.3379 319.631 71.796 315.952 70.4134C315.173 66.5238 312.073 63.4812 308.16 62.7749C306.818 59.0133 303.236 56.3164 299.013 56.3164C296.613 56.3164 294.421 57.1912 292.725 58.6314C291.204 55.2496 287.811 52.8919 283.864 52.8919C281.325 52.8919 279.021 53.8733 277.288 55.4693C275.502 53.3485 272.835 52 269.85 52C266.296 52 263.195 53.9139 261.501 56.7602C259.741 54.9892 257.302 53.8904 254.608 53.8904C251.544 53.8904 248.817 55.3114 247.035 57.524C244.628 57.1741 242.087 57.7161 239.958 59.2501C238.364 60.3981 237.227 61.9428 236.572 63.6497C231.585 64.0637 227.666 68.235 227.666 73.328C227.666 73.584 227.685 73.8358 227.704 74.0876C227.036 74.3671 226.386 74.7191 225.771 75.1608C221.843 77.9921 220.668 83.2068 222.773 87.3994C221.25 89.8937 220.926 92.9811 221.931 95.7633C220.418 97.4767 219.49 99.7213 219.49 102.188C219.49 104.524 220.315 106.666 221.69 108.343C221.474 109.148 221.348 109.988 221.348 110.861C221.348 112.323 221.681 113.703 222.257 114.947C221.679 116.191 221.348 117.571 221.348 119.033C221.348 121.203 222.067 123.2 223.268 124.817C223.243 125.107 223.224 125.4 223.224 125.696C223.224 128.709 224.593 131.4 226.746 133.183C227.591 135.611 229.369 137.594 231.654 138.714C232.467 140.967 234.08 142.836 236.158 143.965C236.649 144.972 237.31 145.881 238.102 146.655C237.393 143.468 237.229 140.361 237.526 137.389C238.108 131.581 237.786 125.737 237.442 119.91C237.406 119.295 237.387 111.567 242.934 110.108C244.159 109.786 245.309 109.214 246.224 108.388C247.163 108.958 248.262 109.293 249.442 109.293C251.238 109.293 252.852 108.527 253.987 107.309C255.427 108.158 257.1 108.653 258.894 108.653C260.919 108.653 262.799 108.032 264.354 106.974C265.532 107.481 266.831 107.765 268.195 107.765C269.084 107.765 269.944 107.635 270.764 107.411C272.383 108.619 274.384 109.34 276.559 109.34C277.619 109.34 278.637 109.165 279.593 108.851C279.584 109.013 279.567 109.175 279.567 109.34C279.567 113.577 282.283 117.17 286.064 118.502C285.731 119.483 285.541 120.531 285.541 121.625C285.541 121.875 285.55 122.122 285.569 122.366C285.814 125.607 287.856 128.442 290.713 129.989L290.991 130.139C293.956 131.745 295.904 134.745 296.167 138.108L298.147 163.426C299.568 162.666 300.782 161.567 301.672 160.232C306.447 159.615 310.138 155.544 310.138 150.602C310.138 150.564 310.134 150.528 310.132 150.489C314.147 149.907 317.365 146.879 318.218 142.96C321.771 141.513 324.278 138.031 324.278 133.958C324.278 133.919 324.273 133.883 324.271 133.845C328.97 133.162 332.584 129.127 332.584 124.239C332.584 122.063 331.861 120.061 330.653 118.442C332.23 116.72 333.196 114.433 333.196 111.913Z" fill="#2D2D37"/>
<path d="M290.183 127.527C290.183 123.776 293.001 120.757 296.415 120.94C299.443 121.102 301.922 123.872 302.052 127.236C302.112 128.781 301.692 130.213 300.945 131.365C300.283 132.387 299.688 133.458 299.08 134.521C298.107 136.221 296.298 137.271 294.296 136.953C292.361 136.646 290.761 135.007 290.315 132.893C290.187 132.285 290.157 131.692 290.208 131.124C290.304 130.055 290.251 128.978 290.195 127.906C290.185 127.781 290.183 127.655 290.183 127.527Z" fill="#FFE4EE"/>
<path d="M258.896 154.389C260.775 154.389 262.299 151.539 262.299 148.024C262.299 144.509 260.775 141.66 258.896 141.66C257.016 141.66 255.493 144.509 255.493 148.024C255.493 151.539 257.016 154.389 258.896 154.389Z" fill="#FF7BA4"/>
<path d="M297.379 127.377L296.453 128.303C295.514 129.242 295.514 130.766 296.453 131.704" stroke="#FFBED2" stroke-width="1.75925" stroke-miterlimit="10" stroke-linecap="round" stroke-linejoin="round"/>
<path d="M260.691 134.804C258.38 134.862 256.46 133.033 256.402 130.72C256.345 128.41 259.583 126.972 260.486 126.432V121.384" stroke="#FFBED2" stroke-width="1.75925" stroke-miterlimit="10" stroke-linecap="round" stroke-linejoin="round"/>
</g>
</svg>
