<svg width="383" height="349" viewBox="0 0 383 349" fill="none" xmlns="http://www.w3.org/2000/svg">
<mask id="mask0" mask-type="alpha" maskUnits="userSpaceOnUse" x="0" y="0" width="382" height="348">
<path d="M382 324C382 337.255 371.255 348 358 348L24 348C10.7452 348 2.95782e-05 337.255 2.84194e-05 324L2.19259e-06 24C1.03382e-06 10.7452 10.7452 1.93855e-06 24 7.79773e-07L358 -2.84194e-05C371.255 -2.95782e-05 382 10.7451 382 24L382 324Z" fill="#FFB428"/>
</mask>
<g mask="url(#mask0)">
<path d="M382.173 345.864C377.403 286.947 373.929 260.013 366.397 229.454L324.162 230.166C331.543 262.711 335.449 297.824 339.938 348.389H382.324C382.259 347.569 382.194 346.727 382.173 345.864Z" fill="#FFE4EE"/>
<path d="M221.845 297.717L230.563 248.468L190.444 240.224L183.084 281.034C182.933 281.898 181.681 281.898 181.53 281.034L168.258 206.039C167.632 202.478 167.481 198.852 167.783 195.248L169.056 180.702C169.315 177.832 167.675 174.983 164.956 174.055C160.942 172.696 157.187 175.695 156.841 179.58L154.899 201.831L143.267 179.774C141.842 176.71 138.173 175.372 135.109 176.818C132.044 178.242 130.706 181.911 132.131 184.975L142.619 204.593C133.922 208.37 128.613 217.714 130.318 227.448L142.727 297.695C146.115 316.881 162.798 330.866 182.286 330.866C201.795 330.887 218.456 316.903 221.845 297.717Z" fill="#FFE4EE"/>
<path d="M140.052 225.873L132.692 210.075C131.268 207.01 132.584 203.363 135.67 201.917C138.735 200.493 142.382 201.809 143.828 204.895L151.187 220.693C152.612 223.758 151.295 227.405 148.209 228.851C145.123 230.275 141.476 228.959 140.052 225.873Z" fill="#FFE4EE"/>
<path d="M145.512 208.586L151.166 220.693C152.59 223.758 151.274 227.405 148.188 228.851C145.123 230.275 141.476 228.959 140.03 225.873L136.383 218.039" stroke="#FFBED2" stroke-width="1.76752" stroke-miterlimit="10" stroke-linecap="round" stroke-linejoin="round"/>
<path d="M167.092 218.34L163.444 210.506C162.02 207.442 158.351 206.104 155.286 207.528C152.222 208.952 150.884 212.621 152.308 215.686L157.963 227.793C154.553 228.397 152.265 231.656 152.869 235.066L153.15 236.685" stroke="#FFBED2" stroke-width="1.76752" stroke-miterlimit="10" stroke-linecap="round" stroke-linejoin="round"/>
<path d="M227.434 266.23L230.585 248.469L190.465 240.225L188.242 252.569C201.062 255.742 214.161 260.878 227.434 266.23Z" fill="#FFCDDC"/>
<path d="M368.728 239.317L328.003 247.626C329.32 253.95 330.615 260.446 331.867 267.179C345.29 261.331 358.541 255.568 371.447 252.568C370.605 248.101 369.699 243.698 368.728 239.317Z" fill="#FFCDDC"/>
<path d="M216.946 254.229C219.493 254.898 221.198 257.272 221.003 259.905L214.831 342.562C214.594 345.713 217.097 348.411 220.248 348.411H341.147C344.363 348.411 346.888 345.627 346.564 342.433L338.342 260.078C338.083 257.38 339.831 254.898 342.464 254.251L371.555 247.108C374.188 246.46 376.001 243.978 375.699 241.281C372.635 215.232 344.536 193.715 306.984 186.701C304.761 186.291 302.991 184.586 302.581 182.363C302.214 180.486 300.919 178.867 299.085 178.263C286.892 174.162 274.698 174.162 262.505 178.263C260.692 178.867 259.375 180.486 259.008 182.363C258.577 184.586 256.829 186.291 254.606 186.701C217.033 193.715 188.89 215.275 185.89 241.345C185.588 244 187.358 246.482 189.948 247.151L216.946 254.229Z" fill="#FFD25F"/>
<path d="M302.537 192.68L294.509 203.514C293.214 205.262 290.71 205.477 289.135 203.967L283.351 198.463C281.905 197.082 279.639 197.082 278.215 198.463L272.431 203.967C270.855 205.456 268.352 205.24 267.057 203.514L259.029 192.68" stroke="#FFB428" stroke-width="1.76752" stroke-miterlimit="10" stroke-linecap="round" stroke-linejoin="round"/>
<path d="M280.74 207.096C281.67 207.096 282.423 206.342 282.423 205.413C282.423 204.483 281.67 203.729 280.74 203.729C279.81 203.729 279.057 204.483 279.057 205.413C279.057 206.342 279.81 207.096 280.74 207.096Z" fill="white"/>
<path d="M280.74 212.211C281.67 212.211 282.423 211.458 282.423 210.528C282.423 209.598 281.67 208.845 280.74 208.845C279.81 208.845 279.057 209.598 279.057 210.528C279.057 211.458 279.81 212.211 280.74 212.211Z" fill="white"/>
<path d="M296.171 139.244H264.424L261.576 178.307C260.281 189.507 269.021 191.19 280.308 191.19C291.574 191.19 300.336 189.486 299.041 178.307L296.171 139.244Z" fill="#FFDAE4"/>
<path d="M261.468 180.616C261.576 187.479 266.28 190.004 273.079 190.824C274.956 178.933 282.941 160.006 288.876 155.301L263.194 156.229L261.576 178.307C261.576 178.328 261.576 178.35 261.576 178.371L261.554 178.673V178.695C261.533 178.954 261.511 179.191 261.511 179.45C261.489 179.774 261.468 180.163 261.468 180.616Z" fill="#FFCDDC"/>
<path d="M236.088 116.994C236.088 96.2541 253.397 79.5716 274.352 80.5859C292.934 81.4923 308.17 96.7937 308.969 115.397C309.336 123.943 306.746 131.842 302.171 138.23C298.113 143.884 294.466 149.798 290.732 155.668C284.754 165.056 273.662 170.861 261.36 169.113C249.469 167.408 239.649 158.365 236.908 146.668C236.11 143.302 235.937 140.021 236.239 136.892C236.822 130.979 236.498 125.022 236.153 119.109C236.11 118.397 236.088 117.684 236.088 116.994Z" fill="#FFE4EE"/>
<path d="M293.754 130.202C293.754 126.382 296.624 123.318 300.099 123.49C303.185 123.663 305.71 126.468 305.84 129.9C305.904 131.475 305.473 132.921 304.717 134.108C304.048 135.144 303.444 136.245 302.818 137.324C301.825 139.05 299.991 140.13 297.941 139.806C295.977 139.504 294.337 137.82 293.884 135.684C293.754 135.058 293.732 134.454 293.776 133.892C293.884 132.813 293.819 131.713 293.754 130.612C293.754 130.461 293.754 130.332 293.754 130.202Z" fill="#FFE4EE"/>
<path d="M248.908 134.734C251.101 134.734 252.879 132.261 252.879 129.21C252.879 126.158 251.101 123.685 248.908 123.685C246.715 123.685 244.937 126.158 244.937 129.21C244.937 132.261 246.715 134.734 248.908 134.734Z" fill="white"/>
<path d="M268.59 134.734C270.783 134.734 272.561 132.261 272.561 129.21C272.561 126.158 270.783 123.685 268.59 123.685C266.397 123.685 264.619 126.158 264.619 129.21C264.619 132.261 266.397 134.734 268.59 134.734Z" fill="white"/>
<path d="M247.397 132.619C248.744 132.619 249.835 131.092 249.835 129.209C249.835 127.326 248.744 125.799 247.397 125.799C246.05 125.799 244.958 127.326 244.958 129.209C244.958 131.092 246.05 132.619 247.397 132.619Z" fill="#2D2D37"/>
<path d="M266.993 132.51C268.304 132.51 269.367 131.032 269.367 129.208C269.367 127.385 268.304 125.906 266.993 125.906C265.682 125.906 264.619 127.385 264.619 129.208C264.619 131.032 265.682 132.51 266.993 132.51Z" fill="#2D2D37"/>
<path d="M301.07 130.051L300.12 131C299.171 131.95 299.171 133.504 300.12 134.453" stroke="#FFBED2" stroke-width="1.76752" stroke-miterlimit="10" stroke-linecap="round" stroke-linejoin="round"/>
<path d="M258.576 136.396C256.245 136.46 254.324 134.626 254.259 132.295C254.195 129.964 257.453 128.518 258.36 127.979V122.907" stroke="#FFBED2" stroke-width="1.76752" stroke-miterlimit="10" stroke-linecap="round" stroke-linejoin="round"/>
<path d="M237.016 103.052C247.634 93.1026 257.195 84.4916 257.475 93.1889C257.713 100.332 246.059 118.439 236.52 123.36" fill="#2D2D37"/>
<path d="M293.754 128.95C277.395 124.957 257.26 108.21 254.951 97.7429C252.771 87.8586 266.454 80.3916 280.654 80.3916" fill="#2D2D37"/>
<path d="M254.584 101.649C254.584 101.649 252.987 105.232 260.411 115.721C261.08 116.67 262.116 117.339 263.26 117.62C267.08 118.505 269.928 118.979 268.806 117.792C268.806 117.792 257.325 107.994 256.505 96.0166" fill="#2D2D37"/>
<path d="M255.166 103.7C255.166 103.7 257.324 106.354 251.044 116.022C250.397 117.015 249.404 117.749 248.26 118.094C246.296 118.72 244.829 118.979 245.282 118.353C245.282 118.353 253.461 108.965 253.699 97.9805L257.26 98.5415" fill="#2D2D37"/>
<path d="M323.385 158.171L317.234 115.116C312.94 89.4773 296.926 82.5065 291.034 80.6289C288.078 79.6794 279.337 77.1112 269.647 77.0033C268.525 76.9817 267.381 77.0681 266.259 77.1976C265.029 77.3487 263.842 77.6075 262.676 78.1039C261.748 78.4923 260.82 79.0319 260.194 79.8304C260.043 80.003 259.914 80.1973 259.828 80.4131C258.921 79.852 257.734 79.8953 256.72 80.0679C255.554 80.2837 254.454 80.78 253.418 81.3411C251.432 82.4202 249.576 83.7799 247.872 85.2474C246.21 86.6718 244.677 88.2687 243.296 89.9737C241.893 91.6786 240.663 93.5132 239.563 95.4339C239.217 96.0166 238.915 96.6209 238.591 97.2251C238.44 97.5273 238.289 97.8293 238.138 98.1099C238.074 98.261 237.987 98.4122 237.923 98.5632C237.879 98.6711 237.707 98.8869 237.707 99.0164C234.405 106.289 232.657 113.001 232.311 116.907C231.815 122.627 231.232 131.928 231.124 136.352C230.909 144.877 229.743 155.063 228.75 165.897C228.535 168.206 230.088 170.3 232.354 170.753C240.145 172.264 250.267 172.846 261.943 172.803L262.202 169.221C261.9 169.178 261.597 169.178 261.295 169.134C249.404 167.43 239.584 158.452 236.843 146.776C236.045 143.409 235.872 140.129 236.174 137C236.476 133.87 236.541 130.741 236.477 127.612C236.433 123.015 237.297 118.44 239.066 114.188C242.109 106.894 246.814 98.9301 252.382 97.441C253.375 97.182 254.411 97.7645 254.756 98.7141C255.727 101.455 258.964 107.131 269.41 109.16C280.114 111.231 283.157 126.878 293.689 129.015C295.135 135.144 294.077 151.265 290.689 166.566C290.042 169.437 292.265 172.156 295.221 172.048C300.207 171.897 309.724 170.365 316.738 168.379C321.227 167.063 324.032 162.725 323.385 158.171Z" fill="#2D2D37"/>
<path d="M272.107 143.582C267.985 145.762 254.993 146.021 250.785 143.992C250.181 143.712 249.706 144.812 250.008 145.74C251.562 150.359 256.202 153.661 261.619 153.574C267.036 153.466 271.546 149.992 272.927 145.309C273.208 144.359 272.69 143.28 272.107 143.582Z" fill="#FF7BA4"/>
</g>
</svg>
