<svg width="382" height="348" viewBox="0 0 382 348" fill="none" xmlns="http://www.w3.org/2000/svg">
<mask id="mask0" mask-type="alpha" maskUnits="userSpaceOnUse" x="0" y="0" width="382" height="348">
<path d="M382 324C382 337.255 371.255 348 358 348L24 348C10.7452 348 2.95782e-05 337.255 2.84194e-05 324L2.19259e-06 24C1.03382e-06 10.7452 10.7452 1.93855e-06 24 7.79773e-07L358 -2.84194e-05C371.255 -2.95782e-05 382 10.7451 382 24L382 324Z" fill="#3C6EE6"/>
</mask>
<g mask="url(#mask0)">
<path d="M90.2529 188.168V198.474C90.2529 202.253 93.3218 205.321 97.1006 205.321C97.1464 205.321 97.1922 205.321 97.2609 205.321L103.124 212.146L96.5508 228.544C102.368 231.864 111.093 235.964 119.727 235.964H235.792V191.214H155.316C145.537 191.214 130.125 187.069 121.262 182.901C114.689 179.809 107.383 177.244 100.055 177.313C94.6273 177.359 90.2529 182.763 90.2529 188.168Z" fill="#FFE4EE"/>
<path d="M101.841 201.703H63.8474C60.0687 201.703 57 198.634 57 194.855C57 191.077 60.0687 188.008 63.8474 188.008H101.841C105.62 188.008 108.689 191.077 108.689 194.855C108.689 198.634 105.62 201.703 101.841 201.703Z" fill="#FFE4EE"/>
<path d="M107.063 229.071H89.5892C85.7876 229.071 82.7188 225.979 82.7188 222.2V222.132C82.7188 218.33 85.8105 215.261 89.5892 215.261H107.063C110.865 215.261 113.933 218.353 113.933 222.132V222.2C113.956 226.002 110.865 229.071 107.063 229.071Z" fill="#FFE4EE"/>
<path d="M102.322 215.399H84.7793C81.0005 215.399 77.9316 212.33 77.9316 208.551C77.9316 204.772 81.0005 201.703 84.7793 201.703H102.322C106.101 201.703 109.169 204.772 109.169 208.551C109.169 212.33 106.101 215.399 102.322 215.399Z" fill="#FFE4EE"/>
<path d="M104.956 202.23C107.429 203.26 109.17 205.711 109.17 208.55C109.17 212.329 106.101 215.398 102.322 215.398H93.0244H107.086C110.865 215.398 113.933 218.467 113.933 222.246C113.933 224.925 112.399 227.238 110.155 228.36" stroke="#FFBED2" stroke-width="1.4166" stroke-miterlimit="10" stroke-linecap="round" stroke-linejoin="round"/>
<path d="M122.453 203.443C107.223 203.443 103.948 190.16 103.948 190.16V198.497C103.948 202.275 100.879 205.344 97.1006 205.344C93.3218 205.344 90.2529 202.275 90.2529 198.497V193.458" stroke="#FFBED2" stroke-width="1.4166" stroke-miterlimit="10" stroke-linecap="round" stroke-linejoin="round"/>
<path d="M226.7 191.214V235.963H229.815V191.214H226.7Z" fill="#FFCDDC"/>
<path d="M315.741 142.182H282.488L279.488 183.084C278.114 194.809 287.297 196.596 299.114 196.596C310.932 196.596 320.092 194.809 318.741 183.084L315.741 142.182Z" fill="#FFDAE4"/>
<path d="M308.138 161.991C301.863 166.984 293.366 183.748 291.511 196.206C284.618 195.359 279.763 192.862 279.396 186.152C279.419 184.893 279.442 183.862 279.488 183.313C279.488 183.244 279.488 183.175 279.511 183.084L280.977 162.976L308.138 161.991Z" fill="#FFCDDC"/>
<path d="M252.808 118.868C252.808 97.1572 270.946 79.6605 292.885 80.7368C312.352 81.6758 328.291 97.7068 329.138 117.196C329.528 126.15 326.825 134.418 322.016 141.105C317.756 147.014 313.932 153.22 310.038 159.381C303.786 169.228 292.152 175.297 279.259 173.465C266.8 171.679 256.517 162.197 253.655 149.968C252.83 146.441 252.647 143.006 252.968 139.731C253.586 133.548 253.243 127.318 252.876 121.089C252.83 120.333 252.808 119.601 252.808 118.868Z" fill="#FFE4EE"/>
<path d="M289.748 133.204C291.923 133.204 293.687 130.723 293.687 127.662C293.687 124.601 291.923 122.12 289.748 122.12C287.572 122.12 285.809 124.601 285.809 127.662C285.809 130.723 287.572 133.204 289.748 133.204Z" fill="white"/>
<path d="M288.488 131.784C289.968 131.784 291.168 129.99 291.168 127.777C291.168 125.563 289.968 123.769 288.488 123.769C287.008 123.769 285.809 125.563 285.809 127.777C285.809 129.99 287.008 131.784 288.488 131.784Z" fill="#2D2D37"/>
<path d="M268.038 133.204C270.213 133.204 271.977 130.723 271.977 127.662C271.977 124.601 270.213 122.12 268.038 122.12C265.862 122.12 264.099 124.601 264.099 127.662C264.099 130.723 265.862 133.204 268.038 133.204Z" fill="white"/>
<path d="M266.755 131.784C268.235 131.784 269.434 129.99 269.434 127.777C269.434 125.563 268.235 123.769 266.755 123.769C265.275 123.769 264.075 125.563 264.075 127.777C264.075 129.99 265.275 131.784 266.755 131.784Z" fill="#2D2D37"/>
<path d="M260.732 96.676C255.968 96.676 252.144 100.592 252.258 105.356C252.442 113.486 252.808 124.295 253.152 127.524C253.175 127.799 253.197 128.051 253.197 128.234C255.235 126.837 256.495 124.593 256.632 122.143L257.32 110.096C257.48 107.325 258.694 104.715 260.709 102.837V96.676H260.732Z" fill="#5A5A6B"/>
<path d="M275.733 157.801C277.731 157.801 279.351 154.766 279.351 151.022C279.351 147.278 277.731 144.243 275.733 144.243C273.734 144.243 272.114 147.278 272.114 151.022C272.114 154.766 273.734 157.801 275.733 157.801Z" fill="#FF7BA4"/>
<path d="M277.656 136.915C275.182 136.983 273.144 135.037 273.075 132.563C273.007 130.09 276.465 128.555 277.427 127.983V122.601" stroke="#FFBED2" stroke-width="1.87563" stroke-miterlimit="10" stroke-linecap="round" stroke-linejoin="round"/>
<path d="M320.276 83.4851C320.024 83.4851 270.282 88.9356 270.282 88.9356C270.282 88.9356 269.343 102.837 273.076 102.837C276.809 102.86 286.153 101.898 289.748 101.898L294.649 100.844C299.321 102.654 302.596 108.974 303.031 113.967L303.535 119.921C303.856 123.815 305.894 127.341 309.1 129.563L312.512 138.517L316.268 149.533C318.535 146.006 322.566 142.731 325.841 136.937C332.116 125.738 332.689 110.371 332.299 101.417" fill="#5A5A6B"/>
<path d="M333.33 87.928C329.551 78.172 311.481 68.2098 304.267 72.5382C298.313 68.0266 288.099 67.248 282.213 68.5992C266.732 72.1718 258.304 80.6911 255.625 77.4391C255.075 76.7749 254.067 76.8207 253.472 77.4391C248.479 82.6377 246.052 92.2564 249.464 99.6765C250.609 102.15 252.762 104.005 255.35 104.784C263.801 107.303 288.488 111.746 294.649 100.822C299.046 112.066 316.428 110.623 330.742 106.57C331.772 106.272 332.597 105.471 332.894 104.44C334.429 98.6918 334.681 91.432 333.33 87.928Z" fill="#2D2D37"/>
<path d="M309.099 129.151C309.099 125.143 312.099 121.937 315.741 122.12C318.97 122.303 321.603 125.258 321.741 128.83C321.81 130.479 321.352 132.013 320.55 133.227C319.84 134.327 319.222 135.449 318.557 136.594C317.527 138.403 315.58 139.525 313.45 139.182C311.389 138.861 309.672 137.098 309.214 134.853C309.076 134.212 309.053 133.571 309.099 132.975C309.214 131.83 309.145 130.685 309.076 129.54C309.099 129.426 309.099 129.288 309.099 129.151Z" fill="#FFE4EE"/>
<path d="M316.772 128.99L315.787 129.975C314.779 130.983 314.779 132.609 315.787 133.594" stroke="#FFBED2" stroke-width="1.87563" stroke-miterlimit="10" stroke-linecap="round" stroke-linejoin="round"/>
<path d="M278.572 237.269H231.234C230.456 237.269 229.814 236.628 229.814 235.849V191.191C229.814 190.413 230.456 189.771 231.234 189.771H278.572C291.694 189.771 302.321 200.398 302.321 213.52C302.321 226.643 291.694 237.269 278.572 237.269Z" fill="#FFD25F"/>
<path d="M238.562 237.269H259.54L272.296 194.901C272.296 194.901 249.372 206.077 238.562 237.269Z" fill="#FFB428"/>
<path d="M342.788 194.053L322.016 183.954C311.207 178.686 298.657 178.228 287.481 182.717C269.847 189.771 257.114 205.435 253.816 224.146L233.204 340.669C232.494 344.7 235.586 348.387 239.663 348.387H354.789C358.751 348.387 361.796 344.929 361.316 340.99L342.788 194.053Z" fill="#FFD25F"/>
<path d="M350.575 255.888L300.397 224.261C300.397 224.261 306.535 258.75 352.956 274.804L350.575 255.888Z" fill="#FFB428"/>
<path d="M359.186 262.873C360.216 263.446 360.125 264.98 359.003 265.393L333.101 275.103C324.788 277.828 315.856 278.217 307.314 276.202C298.245 274.049 288.718 274.897 279.992 278.194C274.817 280.141 272.252 285.981 274.198 291.18L275.595 294.89C275.595 294.89 271.839 296.745 269.023 298.714C266.229 300.707 264.03 304.233 265.335 307.714C266.572 311.035 270.145 312.753 273.488 311.791C270.649 313.417 269.297 316.898 270.488 320.081L270.557 320.242C271.885 323.768 275.801 325.555 279.328 324.226L281.687 323.333C279.099 325.028 277.908 328.326 279.053 331.349C280.038 333.96 282.443 335.586 285.054 335.7C291.558 336.754 300.26 335.563 308.23 332.563L397.34 299.035C411.928 293.538 421.593 279.591 421.593 263.995C421.593 250.965 414.814 238.873 403.683 232.071L340.888 193.642C326.872 184.55 308.047 189.909 300.924 205.047C297.031 217.826 302.619 231.59 314.299 238.048L359.186 262.873Z" fill="#FFE4EE"/>
<path d="M363.537 264.706L369.148 264.958" stroke="#FFBED2" stroke-width="1.87563" stroke-miterlimit="10" stroke-linecap="round" stroke-linejoin="round"/>
<path d="M278.022 294.889L292.679 289.393C292.679 289.393 287.046 291.087 285.74 287.606L287.183 291.454" stroke="#FFBED2" stroke-width="1.87563" stroke-miterlimit="10" stroke-linecap="round" stroke-linejoin="round"/>
<path d="M284.046 322.326L286.542 321.387" stroke="#FFBED2" stroke-width="1.87563" stroke-miterlimit="10" stroke-linecap="round" stroke-linejoin="round"/>
<path d="M276.076 310.783L278.595 309.844" stroke="#FFBED2" stroke-width="1.87563" stroke-miterlimit="10" stroke-linecap="round" stroke-linejoin="round"/>
<path d="M365.69 208.802L337.59 250.918L347.781 256.575L373.362 213.52L365.69 208.802Z" fill="#FFCDDC"/>
<path d="M317.62 189.565C309.65 191.833 303.031 197.444 299.505 204.955L299.459 205.116C295.428 218.33 301.291 232.781 313.383 239.445L343.155 255.911C343.819 256.278 344.667 256.049 345.056 255.384L370.774 212.192C371.186 211.505 370.957 210.635 370.27 210.246L341.117 193.092C334.178 188.558 325.612 187.275 317.62 189.565Z" fill="#FFD25F"/>
</g>
</svg>
