<svg width="393" height="348" viewBox="0 0 393 348" fill="none" xmlns="http://www.w3.org/2000/svg">
<mask id="mask0" mask-type="alpha" maskUnits="userSpaceOnUse" x="0" y="0" width="382" height="348">
<path d="M382 324C382 337.255 371.255 348 358 348L24 348C10.7452 348 2.95782e-05 337.255 2.84194e-05 324L2.19259e-06 24C1.03382e-06 10.7452 10.7452 1.93855e-06 24 7.79773e-07L358 -2.84194e-05C371.255 -2.95782e-05 382 10.7451 382 24L382 324Z" fill="#FFB428"/>
</mask>
<g mask="url(#mask0)">
<path d="M106.647 226.007L81.9084 227.455C78.3218 227.662 75.2409 224.926 75.011 221.339C74.8041 217.753 77.5401 214.672 81.1267 214.442L111.774 212.625C117.223 212.304 122.557 212.855 127.661 214.189C130.972 215.063 133.8 211.706 132.49 208.556L128.765 199.704C127.524 196.325 129.271 192.577 132.651 191.335C136.03 190.094 139.778 191.841 141.019 195.221L159.481 239.066C159.941 239.916 160.378 240.767 160.792 241.641L165.896 253.136L180.496 290.475C180.933 291.463 182.404 291.164 182.427 290.084L183.439 251.343L224.271 254.47L222.685 302.867C222.041 322.754 206.315 338.894 186.451 340.067C170.012 341.033 154.653 331.882 147.687 316.961L123.638 261.62C122.12 258.103 118.557 255.918 114.717 256.148C111.728 256.332 108.854 255.022 106.992 252.677L102.854 247.389L110.418 241.756L106.647 226.007Z" fill="#FFE4EE"/>
<path d="M113.246 238.514L99.5891 239.319C96.0024 239.526 92.9216 236.79 92.6917 233.203C92.4847 229.617 95.2207 226.536 98.8074 226.306L112.464 225.501C116.051 225.294 119.132 228.03 119.362 231.617C119.592 235.227 116.833 238.307 113.246 238.514Z" fill="#FFE4EE"/>
<path d="M117.545 251.321L103.888 252.126C100.301 252.333 97.2204 249.597 96.9905 246.01C96.7836 242.423 99.5196 239.342 103.106 239.113L116.763 238.308C120.35 238.101 123.431 240.837 123.661 244.424C123.89 248.033 121.154 251.114 117.545 251.321Z" fill="#FFE4EE"/>
<path d="M98.8076 226.328L112.465 225.524C116.051 225.317 119.132 228.053 119.362 231.639C119.569 235.226 116.833 238.307 113.246 238.537" stroke="#FFBED2" stroke-width="1.883" stroke-miterlimit="10" stroke-linecap="round" stroke-linejoin="round"/>
<path d="M105.038 239.02L116.787 238.33C120.373 238.123 123.454 240.859 123.684 244.446C123.891 248.033 121.155 251.114 117.568 251.343" stroke="#FFBED2" stroke-width="1.883" stroke-miterlimit="10" stroke-linecap="round" stroke-linejoin="round"/>
<path d="M133.571 221.846C133.571 221.846 130.214 243.274 139.227 247.55" stroke="#FFBED2" stroke-width="1.883" stroke-miterlimit="10" stroke-linecap="round" stroke-linejoin="round"/>
<path d="M183.438 251.39L224.271 254.516L223.512 277.416C213.672 271.047 198.543 265.736 183.116 263.115L183.438 251.39Z" fill="#FFCDDC"/>
<path d="M182.496 294.292L183.14 299.764" stroke="#FFBED2" stroke-width="1.883" stroke-miterlimit="10" stroke-linecap="round" stroke-linejoin="round"/>
<path d="M224.455 179.45C222.524 201.959 221.628 227.778 229.813 253.437H318.812C331.021 233.503 330.124 207.109 324.928 178.14L224.455 179.45Z" fill="#2D2D37"/>
<path d="M225.237 347.839C222.731 347.839 220.708 345.747 220.8 343.241L223.582 272.381C223.536 270.289 222.041 268.496 219.972 268.082L181.553 260.311C179.392 259.874 177.875 257.943 177.944 255.735C178.909 228.445 214.086 203.913 255.333 195.061L256.528 190.578C256.804 188.508 258.621 186.899 260.828 186.784L298.925 184.531C301.132 184.393 303.109 185.773 303.638 187.796L305.5 192.532C346.448 197.061 382.751 216.995 386.821 243.412C387.143 245.573 385.855 247.665 383.786 248.355L353.092 258.586C351.414 259.138 350.265 260.61 350.058 262.311L349.713 265.392C344.632 297.856 352.357 326.342 349.207 342.459C349.46 344.689 351.92 348.046 347.391 347.793H225.237V347.839Z" fill="#FFD25F"/>
<path d="M277.543 215.96C278.47 215.96 279.221 215.209 279.221 214.282C279.221 213.355 278.47 212.604 277.543 212.604C276.616 212.604 275.864 213.355 275.864 214.282C275.864 215.209 276.616 215.96 277.543 215.96Z" fill="white"/>
<path d="M277.543 221.132C278.47 221.132 279.221 220.381 279.221 219.454C279.221 218.527 278.47 217.775 277.543 217.775C276.616 217.775 275.864 218.527 275.864 219.454C275.864 220.381 276.616 221.132 277.543 221.132Z" fill="white"/>
<path d="M255.999 202.51L263.701 218.305" stroke="#FFB428" stroke-width="1.883" stroke-miterlimit="10" stroke-linecap="round" stroke-linejoin="round"/>
<path d="M269.312 215.96L272.691 212.12C274.898 209.614 278.715 209.361 281.244 211.568L288.67 218.098C289.498 218.834 290.762 218.742 291.452 217.891L304.603 201.705" stroke="#FFB428" stroke-width="1.883" stroke-miterlimit="10" stroke-linecap="round" stroke-linejoin="round"/>
<path d="M296.602 147.33H262.782L259.747 188.945C258.368 200.877 267.679 202.67 279.704 202.67C291.705 202.67 301.04 200.854 299.66 188.945L296.602 147.33Z" fill="#FFDAE4"/>
<path d="M271.955 202.279C274.093 189.151 282.83 168.942 289.337 163.769L261.517 164.78L259.747 188.944C258.666 198.141 263.977 201.291 271.955 202.279Z" fill="#FFCDDC"/>
<path d="M232.595 123.627C232.595 101.532 251.034 83.7597 273.359 84.8403C293.154 85.8059 309.386 102.107 310.237 121.902C310.628 131.007 307.869 139.422 302.995 146.227C298.672 152.251 294.787 158.551 290.809 164.804C284.44 174.806 272.623 180.99 259.518 179.128C246.849 177.312 236.388 167.678 233.468 155.217C232.618 151.63 232.434 148.136 232.756 144.802C233.376 138.502 233.032 132.157 232.664 125.857C232.618 125.098 232.595 124.363 232.595 123.627Z" fill="#FFE4EE"/>
<path d="M270.346 151.653C262.943 153.86 255.999 155.493 250.113 155.791C249.447 155.837 249.056 156.573 249.447 157.125C250.435 158.527 252.941 159.516 255.907 159.516C262.667 159.516 268.759 155.746 271.242 153.056C271.84 152.412 271.197 151.4 270.346 151.653Z" fill="#FF7BA4"/>
<path d="M316.053 121.603C311.478 94.289 297.706 88.0354 291.13 84.8626C288.394 83.5291 280.14 81.4368 270.783 81C267.081 81.023 264.506 81.7127 263.655 83.3221C262.598 82.1726 261.103 81.9197 259.632 82.1266C258.85 82.2415 258.069 82.5174 257.31 82.7703C256.528 83.0232 255.746 83.3221 254.965 83.644C245.906 87.4146 238.986 94.496 234.801 103.371C230.962 111.51 228.961 119.143 228.571 123.488C228.042 129.581 227.421 139.49 227.306 144.203C227.053 154.366 225.536 166.781 224.409 179.863H260.391L260.437 179.219C259.908 179.15 259.31 179.081 258.299 178.898C247.929 176.92 238.894 170.023 234.985 160.205C232.87 154.894 232.249 149.698 232.732 144.847C233.054 141.513 233.123 138.18 233.054 134.846C233.031 133.26 233.169 131.696 233.353 130.133C240.802 126.27 249.355 117.441 253.378 109.348C256.505 120.269 279.933 136.363 294.027 136.363C299.867 137.697 297.2 154.527 297.131 154.871L298.924 179.449H325.158L316.053 121.603Z" fill="#2D2D37"/>
<path d="M294.027 137.697C294.027 133.628 297.085 130.363 300.787 130.547C304.075 130.731 306.765 133.72 306.903 137.375C306.972 139.054 306.512 140.594 305.707 141.859C304.994 142.962 304.35 144.135 303.684 145.284C302.626 147.124 300.672 148.273 298.488 147.928C296.395 147.607 294.648 145.813 294.165 143.537C294.027 142.87 294.004 142.227 294.05 141.629C294.165 140.479 294.096 139.307 294.027 138.134C294.027 137.95 294.027 137.835 294.027 137.697Z" fill="#FFE4EE"/>
<path d="M246.251 142.526C248.587 142.526 250.481 139.89 250.481 136.64C250.481 133.389 248.587 130.754 246.251 130.754C243.915 130.754 242.021 133.389 242.021 136.64C242.021 139.89 243.915 142.526 246.251 142.526Z" fill="white"/>
<path d="M267.196 142.526C269.533 142.526 271.427 139.89 271.427 136.64C271.427 133.389 269.533 130.754 267.196 130.754C264.86 130.754 262.966 133.389 262.966 136.64C262.966 139.89 264.86 142.526 267.196 142.526Z" fill="white"/>
<path d="M244.642 140.272C246.077 140.272 247.24 138.646 247.24 136.639C247.24 134.633 246.077 133.007 244.642 133.007C243.207 133.007 242.044 134.633 242.044 136.639C242.044 138.646 243.207 140.272 244.642 140.272Z" fill="#2D2D37"/>
<path d="M265.495 140.157C266.892 140.157 268.024 138.583 268.024 136.64C268.024 134.697 266.892 133.122 265.495 133.122C264.098 133.122 262.966 134.697 262.966 136.64C262.966 138.583 264.098 140.157 265.495 140.157Z" fill="#2D2D37"/>
<path d="M301.822 137.537L300.81 138.548C299.799 139.56 299.799 141.215 300.81 142.227" stroke="#FFBED2" stroke-width="1.883" stroke-miterlimit="10" stroke-linecap="round" stroke-linejoin="round"/>
<path d="M256.528 144.273C254.045 144.342 251.999 142.388 251.93 139.905C251.861 137.422 255.332 135.881 256.298 135.306V129.903" stroke="#FFBED2" stroke-width="1.883" stroke-miterlimit="10" stroke-linecap="round" stroke-linejoin="round"/>
<path d="M348.563 274.312L349.575 282.543C349.805 283.6 348.448 284.221 347.781 283.37L324.882 250.447L317.226 240.445C316.628 239.687 315.984 238.951 315.341 238.238L287.176 199.888C285.199 196.899 281.152 196.072 278.14 198.049C275.152 200.026 274.324 204.073 276.301 207.085L281.98 214.833C284.003 217.592 282.026 221.523 278.6 221.431C273.335 221.316 268.001 222.029 262.782 223.593L242.55 229.708C239.101 230.743 237.147 234.398 238.204 237.824C239.239 241.273 242.895 243.227 246.32 242.17L265.472 236.376C266.07 236.192 266.714 236.537 266.875 237.134C267.059 237.732 266.714 238.376 266.116 238.537L244.228 245.158C240.779 246.193 238.825 249.849 239.883 253.274C240.917 256.723 244.573 258.677 247.999 257.62L269.886 250.998C270.484 250.814 271.128 251.159 271.289 251.757C271.473 252.355 271.128 252.999 270.53 253.16L255.034 257.85C251.585 258.884 249.631 262.54 250.689 265.966C251.723 269.414 255.379 271.369 258.805 270.311L275.381 265.299L281.865 263.345L321.939 316.685C332.193 329.56 349.253 334.894 365.002 330.135C384.062 324.364 395.581 305.028 391.603 285.531L383.694 248.331L353.001 258.562C353.001 258.562 350.334 259.091 349.943 262.517C349.621 266.012 348.563 274.312 348.563 274.312Z" fill="#FFE4EE"/>
<path d="M350.771 285.784L354.15 290.084" stroke="#FFBED2" stroke-width="1.883" stroke-miterlimit="10" stroke-linecap="round" stroke-linejoin="round"/>
<path d="M383.809 248.4L353.092 258.632C353.092 258.632 350.425 259.16 350.034 262.586C349.942 263.322 349.827 264.31 349.689 265.368L384.82 253.068L383.809 248.4Z" fill="#FFCDDC"/>
</g>
</svg>
