<svg width="382" height="348" viewBox="0 0 382 348" fill="none" xmlns="http://www.w3.org/2000/svg">
<mask id="mask0" mask-type="alpha" maskUnits="userSpaceOnUse" x="0" y="0" width="382" height="349">
<path d="M382 348L3.05176e-05 348L2.19259e-06 24.0001C1.03382e-06 10.7453 10.7452 0.000124091 24 0.000122932L358 9.37329e-05C371.255 9.25741e-05 382 10.7453 382 24.0001L382 348Z" fill="#1EB4BE"/>
</mask>
<g mask="url(#mask0)">
<g filter="url(#filter0_d)">
<path d="M332 40.0001H192C180.954 40.0001 172 48.9544 172 60.0001V200C172 211.046 180.954 220 192 220H332C343.046 220 352 211.046 352 200V60.0001C352 48.9544 343.046 40.0001 332 40.0001Z" fill="#D2DCFF"/>
<path d="M288.762 144.595H255.017L252.031 189.091C250.537 201.036 260.094 202.828 272.039 202.828C283.984 202.828 293.242 201.036 292.047 189.091L288.762 144.595Z" fill="#FFDBE5"/>
<path d="M252.029 191.779C252.029 198.946 257.106 201.634 264.273 202.53C266.364 189.987 274.725 166.694 280.996 161.617L253.522 162.513L251.731 189.091V189.39C251.731 189.689 251.731 189.987 251.731 190.286C252.029 190.883 252.029 191.182 252.029 191.779Z" fill="#FFD0DD"/>
<path d="M224.855 121.002C224.855 98.9034 243.37 81.2841 265.468 82.18C285.178 83.0759 301.603 99.5005 302.2 119.21C302.499 128.169 299.811 136.83 295.033 143.4C290.852 149.372 286.97 155.643 282.789 161.915C276.518 171.77 264.572 178.041 251.433 176.249C238.89 174.457 228.438 164.901 225.452 152.359C224.556 148.775 224.556 145.191 224.855 141.906C225.452 135.635 225.153 129.364 224.855 123.093C224.855 122.495 224.855 121.599 224.855 121.002Z" fill="#FFE5EF"/>
<path d="M252.925 176.549C252.627 176.549 252.328 176.549 252.03 176.549C239.487 174.757 229.035 165.201 226.049 152.658C225.153 149.075 225.153 145.491 225.451 142.206C225.75 138.921 225.75 135.636 225.75 132.351C225.75 127.573 226.646 122.496 228.438 118.017C231.723 110.252 236.799 101.891 242.473 100.099C243.668 99.8003 244.564 100.398 245.161 101.592C246.356 104.578 249.641 110.551 260.69 112.642C272.038 114.732 275.323 131.455 286.671 133.844C292.644 135.338 289.657 152.36 289.657 152.36L291.748 179.834C298.019 180.132 305.485 179.236 312.951 177.743C315.638 177.445 317.43 174.757 316.833 172.069C315.937 167.888 315.041 163.409 314.145 159.228L309.367 128.768C309.367 127.872 309.068 126.976 309.068 126.379C309.068 124.288 308.77 121.899 308.471 119.211C303.992 92.0358 289.956 84.57 283.685 82.4796C280.4 81.5837 271.142 78.2988 260.989 78.0001C250.835 78.0001 239.487 83.3755 232.021 92.3344C225.153 103.384 221.569 115.031 220.972 121.003C220.375 126.976 219.777 137.129 219.777 141.609C219.479 150.568 218.284 161.617 217.389 172.965C217.09 175.354 218.881 177.743 221.271 178.042C229.632 179.535 240.383 180.132 252.627 180.132L252.925 176.549Z" fill="#333333"/>
<path d="M286.372 135.038C286.372 130.857 289.358 127.572 293.241 127.871C296.526 128.169 299.213 131.156 299.213 134.739C299.213 136.531 298.915 138.024 298.019 139.219C297.422 140.413 296.526 141.608 295.928 142.504C294.734 144.296 292.942 145.49 290.852 145.191C288.761 144.893 286.97 143.101 286.671 140.712C286.671 140.115 286.372 139.518 286.671 138.92C286.671 137.726 286.671 136.531 286.671 135.337C286.372 135.337 286.372 135.038 286.372 135.038Z" fill="#FFE5EF"/>
<path d="M238.592 139.818C240.901 139.818 242.772 137.144 242.772 133.845C242.772 130.546 240.901 127.872 238.592 127.872C236.283 127.872 234.411 130.546 234.411 133.845C234.411 137.144 236.283 139.818 238.592 139.818Z" fill="white"/>
<path d="M259.496 139.818C261.805 139.818 263.677 137.144 263.677 133.845C263.677 130.546 261.805 127.872 259.496 127.872C257.187 127.872 255.315 130.546 255.315 133.845C255.315 137.144 257.187 139.818 259.496 139.818Z" fill="white"/>
<path d="M237.098 137.428C238.583 137.428 239.786 135.823 239.786 133.844C239.786 131.865 238.583 130.261 237.098 130.261C235.614 130.261 234.411 131.865 234.411 133.844C234.411 135.823 235.614 137.428 237.098 137.428Z" fill="#333333"/>
<path d="M257.704 137.428C259.024 137.428 260.093 135.823 260.093 133.844C260.093 131.865 259.024 130.261 257.704 130.261C256.385 130.261 255.315 131.865 255.315 133.844C255.315 135.823 256.385 137.428 257.704 137.428Z" fill="#333333"/>
<path d="M343.112 347.701V348H298.915C299.811 325.304 295.331 304.362 289.359 282.561L271.441 217.758L300.109 208.799C307.575 206.41 315.937 210.89 318.027 218.654L337.14 287.937C340.425 301.077 343.71 333.964 343.112 347.701Z" fill="#FFE5EF"/>
<path d="M295.033 187.299C284.581 182.223 272.337 181.625 261.287 186.105C243.967 192.973 231.723 208.204 228.438 226.719L208.43 340.498C207.832 344.38 210.819 347.963 214.701 347.963H327.285C331.167 347.963 334.153 344.678 333.556 340.796L318.326 219.552C316.534 205.516 307.874 193.571 295.033 187.299Z" fill="#5A87FA"/>
<path d="M274.427 239.559L235.605 301.077C235.605 301.077 279.802 296.896 279.802 236.573L274.427 239.559Z" fill="#646EDC"/>
<path d="M262.78 149.075C255.314 151.165 248.446 152.957 242.473 153.256C241.876 153.256 241.279 154.152 241.876 154.45C242.772 155.944 245.459 156.839 248.446 156.839C255.314 156.839 261.287 152.957 263.676 150.269C264.274 149.672 263.377 148.776 262.78 149.075Z" fill="#FF97BF"/>
<path d="M294.137 134.74L293.241 135.636C292.346 136.532 292.346 138.324 293.241 139.22" stroke="#FFBED7" stroke-width="0.6298" stroke-miterlimit="10" stroke-linecap="round" stroke-linejoin="round"/>
<path d="M248.744 141.609C246.355 141.609 244.265 139.817 244.265 137.129C244.265 134.74 247.55 133.247 248.744 132.65V127.275" stroke="#FFBED7" stroke-width="0.6298" stroke-miterlimit="10" stroke-linecap="round" stroke-linejoin="round"/>
<path d="M267.26 198.05C254.717 194.168 241.279 199.842 235.007 211.19L210.52 255.686C209.624 256.88 208.429 256.582 208.13 255.686L196.484 223.434C194.991 218.954 195.887 214.176 199.47 210.891C206.04 205.217 208.429 195.959 205.443 187.299C204.547 184.611 202.755 181.924 200.665 179.833C198.873 177.743 195.887 177.146 193.498 178.041C192.602 175.652 190.511 173.562 187.824 173.263C184.24 172.666 180.657 173.263 177.372 174.458C171.698 176.548 167.517 180.729 165.128 185.507L158.856 168.485C157.662 165.2 154.078 163.11 150.495 164.304C146.911 165.499 145.119 169.381 146.314 172.666L154.078 194.168C154.078 194.466 154.078 194.765 153.78 195.063C153.481 195.063 153.182 195.064 152.884 194.765L146.911 178.041C145.716 174.756 142.133 172.666 138.549 173.861C134.966 175.055 133.174 178.937 134.369 182.222L140.341 199.244L146.911 217.759L177.67 302.87C184.24 321.385 206.339 329.448 223.958 318.1C228.139 315.412 231.723 311.53 234.41 307.349L277.413 237.469C287.268 223.434 281.893 205.217 267.26 198.05ZM177.372 197.453C175.878 193.272 177.969 188.792 182.15 187.299C183.344 187.001 184.539 186.702 186.032 187C187.227 187.299 188.122 187 189.018 186.702C189.317 187.598 189.914 188.494 190.511 189.389C191.407 190.285 191.706 191.181 192.303 192.077C193.796 196.258 191.706 200.738 187.525 202.231C183.344 203.724 178.865 201.335 177.372 197.453Z" fill="#FFE5EF"/>
<path d="M192.602 179.535C192.602 181.625 191.707 183.417 189.915 184.612" stroke="#FFBED7" stroke-width="0.6298" stroke-miterlimit="10" stroke-linecap="round" stroke-linejoin="round"/>
<path d="M208.728 259.27V264.944" stroke="#FFBED7" stroke-width="0.6298" stroke-miterlimit="10" stroke-linecap="round" stroke-linejoin="round"/>
<path d="M215.895 245.533L258.3 269.723L268.753 252.999L225.75 227.914L215.895 245.533Z" fill="#FFD0DD"/>
<path d="M282.789 214.773C280.698 207.009 275.024 200.439 267.857 197.154C255.016 193.272 240.682 198.946 234.41 210.891L217.687 241.053L262.183 267.631L279.802 238.067C283.684 231.198 284.879 222.538 282.789 214.773Z" fill="#5A87FA"/>
</g>
</g>
<defs>
<filter id="filter0_d" x="118" y="28.0001" width="250" height="340" filterUnits="userSpaceOnUse" color-interpolation-filters="sRGB">
<feFlood flood-opacity="0" result="BackgroundImageFix"/>
<feColorMatrix in="SourceAlpha" type="matrix" values="0 0 0 0 0 0 0 0 0 0 0 0 0 0 0 0 0 0 127 0"/>
<feOffset dy="4"/>
<feGaussianBlur stdDeviation="8"/>
<feColorMatrix type="matrix" values="0 0 0 0 0 0 0 0 0 0 0 0 0 0 0 0 0 0 0.08 0"/>
<feBlend mode="normal" in2="BackgroundImageFix" result="effect1_dropShadow"/>
<feBlend mode="normal" in="SourceGraphic" in2="effect1_dropShadow" result="shape"/>
</filter>
</defs>
</svg>
