<svg width="382" height="348" viewBox="0 0 382 348" fill="none" xmlns="http://www.w3.org/2000/svg">
<mask id="mask0" mask-type="alpha" maskUnits="userSpaceOnUse" x="0" y="0" width="382" height="348">
<path d="M382 324C382 337.255 371.255 348 358 348L24 348C10.7452 348 2.95782e-05 337.255 2.84194e-05 324L2.19259e-06 24C1.03382e-06 10.7452 10.7452 1.93855e-06 24 7.79773e-07L358 -2.84194e-05C371.255 -2.95782e-05 382 10.7451 382 24L382 324Z" fill="#32BECD"/>
</mask>
<g mask="url(#mask0)">
<path d="M330.449 257.984C330.327 257.37 330.206 256.76 330.082 256.149C330.204 256.762 330.327 257.37 330.449 257.984Z" fill="#FFE4EE"/>
<path d="M331.347 262.604C331.238 262.039 331.129 261.48 331.018 260.917C331.129 261.48 331.238 262.037 331.347 262.604Z" fill="#FFE4EE"/>
<path d="M329.53 253.404C329.41 252.821 329.293 252.241 329.173 251.661C329.293 252.239 329.412 252.819 329.53 253.404Z" fill="#FFE4EE"/>
<path d="M368.94 239.629C368.215 236.371 367.453 233.115 366.64 229.816L324.594 230.531C325.947 236.49 327.274 242.544 328.572 248.757C328.512 248.475 328.454 248.189 328.397 247.91L368.94 239.629Z" fill="#FFE4EE"/>
<path d="M368.991 239.865C369.437 241.873 369.866 243.883 370.282 245.903C369.866 243.883 369.437 241.873 368.991 239.865Z" fill="#FFE4EE"/>
<path d="M371.648 252.834C358.79 255.811 345.602 261.555 332.248 267.375C332.226 267.258 332.203 267.143 332.182 267.025C336.453 290.013 327.808 315.954 330.673 348.207H382.474C382.406 347.366 382.352 346.523 382.337 345.678C378.8 301.911 375.971 275.872 371.648 252.834Z" fill="#FFE4EE"/>
<path d="M370.377 246.358C370.804 248.44 371.216 250.538 371.615 252.659C371.216 250.538 370.802 248.44 370.377 246.358Z" fill="#FFE4EE"/>
<path d="M368.94 239.628C368.955 239.707 368.975 239.786 368.992 239.865C368.975 239.786 368.96 239.707 368.94 239.628Z" fill="#FFCDDC"/>
<path d="M370.283 245.904C370.315 246.056 370.347 246.207 370.377 246.359C370.347 246.207 370.315 246.056 370.283 245.904Z" fill="#FFCDDC"/>
<path d="M371.65 252.831C371.639 252.773 371.626 252.716 371.615 252.656C371.626 252.716 371.637 252.775 371.65 252.831C371.647 252.833 371.65 252.833 371.65 252.831Z" fill="#FFCDDC"/>
<path d="M329.172 251.66C328.974 250.689 328.773 249.72 328.571 248.758C328.773 249.72 328.972 250.687 329.172 251.66Z" fill="#FFCDDC"/>
<path d="M330.081 256.152C329.898 255.232 329.714 254.315 329.529 253.404C329.714 254.315 329.898 255.232 330.081 256.152Z" fill="#FFCDDC"/>
<path d="M331.021 260.916C330.831 259.936 330.641 258.957 330.449 257.986C330.641 258.955 330.831 259.934 331.021 260.916Z" fill="#FFCDDC"/>
<path d="M332.182 267.025C331.907 265.54 331.627 264.066 331.348 262.604C331.63 264.066 331.907 265.54 332.182 267.025Z" fill="#FFCDDC"/>
<path d="M371.647 252.833C371.637 252.776 371.626 252.716 371.615 252.658C371.216 250.537 370.805 248.44 370.378 246.357C370.346 246.206 370.314 246.055 370.284 245.903C369.868 243.882 369.437 241.873 368.993 239.865C368.976 239.786 368.959 239.707 368.94 239.628L328.398 247.909C328.458 248.19 328.516 248.474 328.573 248.756C328.774 249.718 328.974 250.687 329.175 251.657C329.294 252.238 329.414 252.818 329.531 253.401C329.717 254.312 329.9 255.229 330.084 256.149C330.205 256.759 330.329 257.369 330.451 257.984C330.643 258.955 330.833 259.934 331.023 260.913C331.131 261.477 331.242 262.033 331.351 262.601C331.631 264.063 331.908 265.537 332.185 267.022C332.207 267.139 332.23 267.254 332.252 267.372C345.602 261.553 358.79 255.81 371.647 252.833Z" fill="#FFCDDC"/>
<path d="M223.408 297.752L232.079 248.742L192.154 240.545L184.823 281.174C184.667 282.04 183.423 282.038 183.27 281.172L170.069 206.526C169.443 202.982 169.286 199.37 169.599 195.783L170.867 181.3C171.116 178.436 169.501 175.607 166.779 174.692C162.778 173.345 159.042 176.333 158.703 180.195L156.765 202.333L145.192 180.387C143.765 177.331 140.134 176.01 137.076 177.436C134.018 178.861 132.696 182.497 134.123 185.556L144.552 205.075C135.898 208.824 130.611 218.131 132.32 227.828L144.676 297.744C148.051 316.842 164.647 330.764 184.042 330.764C203.435 330.764 220.028 316.849 223.408 297.752Z" fill="#FFE4EE"/>
<path d="M141.978 226.247L134.647 210.526C133.221 207.468 134.544 203.835 137.599 202.409C140.657 200.984 144.291 202.307 145.716 205.362L153.047 221.083C154.472 224.141 153.15 227.774 150.094 229.2C147.037 230.625 143.403 229.304 141.978 226.247Z" fill="#FFE4EE"/>
<path d="M147.429 209.037L153.047 221.086C154.473 224.143 153.15 227.777 150.094 229.202C147.037 230.628 143.403 229.305 141.978 226.249L138.338 218.444" stroke="#FFBED2" stroke-width="1.75925" stroke-miterlimit="10" stroke-linecap="round" stroke-linejoin="round"/>
<path d="M168.909 218.75L165.269 210.945C163.844 207.888 160.21 206.565 157.153 207.992C154.095 209.418 152.772 213.051 154.2 216.109L159.818 228.157C156.423 228.757 154.157 231.994 154.755 235.386L155.038 236.999" stroke="#FFBED2" stroke-width="1.75925" stroke-miterlimit="10" stroke-linecap="round" stroke-linejoin="round"/>
<path d="M228.953 266.415L232.079 248.744L192.154 240.546L189.935 252.834C202.712 255.96 215.755 261.074 228.953 266.415Z" fill="#FFCDDC"/>
<path d="M217.878 254.47C220.406 255.131 222.102 257.506 221.908 260.113L215.768 342.385C215.533 345.525 218.019 348.205 221.17 348.205H341.501C344.706 348.205 347.209 345.438 346.891 342.25L338.698 260.292C338.429 257.608 340.176 255.135 342.797 254.493L371.759 247.384C374.379 246.742 376.188 244.26 375.872 241.582C372.828 215.658 344.849 194.234 307.478 187.253C305.266 186.839 303.51 185.152 303.087 182.941C302.729 181.063 301.423 179.467 299.611 178.859C287.467 174.771 275.331 174.776 263.207 178.859C261.396 179.47 260.09 181.063 259.731 182.941C259.311 185.154 257.555 186.841 255.34 187.255C217.937 194.243 189.944 215.699 186.94 241.651C186.632 244.298 188.397 246.759 190.977 247.433L217.878 254.47Z" fill="#32D7E1"/>
<path d="M303.068 193.197L295.071 203.985C293.789 205.715 291.282 205.931 289.724 204.444L283.97 198.956C282.536 197.588 280.283 197.588 278.849 198.956L273.094 204.444C271.537 205.929 269.028 205.713 267.747 203.985L259.753 193.197" stroke="#32BECD" stroke-width="1.75925" stroke-miterlimit="10" stroke-linecap="round" stroke-linejoin="round"/>
<path d="M281.373 207.541C282.295 207.541 283.042 206.794 283.042 205.873C283.042 204.951 282.295 204.204 281.373 204.204C280.452 204.204 279.705 204.951 279.705 205.873C279.705 206.794 280.452 207.541 281.373 207.541Z" fill="white"/>
<path d="M281.373 212.638C282.295 212.638 283.042 211.891 283.042 210.969C283.042 210.048 282.295 209.301 281.373 209.301C280.452 209.301 279.705 210.048 279.705 210.969C279.705 211.891 280.452 212.638 281.373 212.638Z" fill="white"/>
<path d="M295.818 142.736L264.425 143.506L262.548 180.416C261.532 191.524 270.233 192.988 281.384 192.714C292.536 192.441 301.152 190.551 299.592 179.505L295.818 142.736Z" fill="#FFDAE4"/>
<path d="M289.102 161.63C283.282 166.487 275.656 180.735 274.195 192.53C267.67 191.896 263.027 189.641 262.515 183.315C262.502 182.122 262.506 181.147 262.534 180.626C262.541 180.554 262.541 180.488 262.549 180.415L263.471 163.19L289.102 161.63Z" fill="#FFCDDC"/>
<path d="M235.845 122.179C235.341 101.671 252.056 84.7403 272.81 85.2332C291.217 85.6706 306.646 100.444 307.894 118.813C308.468 127.251 306.106 135.139 301.721 141.555C297.836 147.239 294.373 153.186 290.825 159.085C285.149 168.522 274.3 174.533 262.095 173.095C250.294 171.704 240.358 162.986 237.362 151.492C236.5 148.182 236.237 144.943 236.472 141.839C236.914 135.978 236.447 130.102 235.958 124.245C235.9 123.562 235.862 122.873 235.845 122.179Z" fill="#FFE4EE"/>
<path d="M293.589 119.687L310.37 121.485C308.721 136.282 296.501 149.622 296.501 149.622L294.15 143.137C291.148 134.748 293.787 127.75 293.589 119.687Z" fill="#787885"/>
<path d="M258.867 105.936C258.867 105.936 266.414 103.362 271.336 106.962C274.914 109.578 264.903 99.748 264.903 99.748L246.91 100.19L246.136 106.373C246.134 106.373 253.456 101.621 258.867 105.936Z" fill="#787885"/>
<path d="M290.411 125.29C277.025 124.842 273.796 112.324 271.336 106.962C269.194 102.294 261.965 101.63 258.963 105.802L258.867 105.936C258.852 105.912 258.835 105.889 258.82 105.866C256.085 101.737 250.075 101.634 247.38 105.789C245.549 108.614 243.9 112.087 242.451 115.725C240.983 119.41 239.854 121.623 236.801 122.058C236.278 122.132 235.899 122.587 235.95 123.112C236.101 124.667 236.362 127.531 236.234 127.518C225.194 126.449 229.096 79.1586 255.251 76.2803C265.057 75.2113 268.091 77.4495 269.024 78.8023C269.288 79.1863 269.811 79.2653 270.163 78.958C271.151 78.096 273.214 76.8094 276.807 76.7241C284.708 76.6345 296.68 82.7495 302.129 87.8767C311.575 96.9447 314.007 117.3 311.223 121.2C308.101 125.568 302.716 125.7 290.411 125.29Z" fill="#2D2D37"/>
<path d="M291.75 133.863C291.658 130.087 294.421 126.978 297.861 127.076C300.912 127.166 303.476 129.892 303.692 133.274C303.79 134.828 303.402 136.278 302.678 137.458C302.036 138.504 301.464 139.596 300.88 140.68C299.943 142.415 298.146 143.518 296.124 143.247C294.167 142.987 292.516 141.376 292.014 139.259C291.869 138.649 291.824 138.054 291.863 137.482C291.933 136.402 291.854 135.32 291.769 134.243C291.76 134.117 291.752 133.991 291.75 133.863Z" fill="#FFE4EE"/>
<path d="M249.792 135.87C251.97 135.87 253.735 133.411 253.735 130.378C253.735 127.345 251.97 124.886 249.792 124.886C247.614 124.886 245.849 127.345 245.849 130.378C245.849 133.411 247.614 135.87 249.792 135.87Z" fill="white"/>
<path d="M269.364 135.87C271.541 135.87 273.307 133.411 273.307 130.378C273.307 127.345 271.541 124.886 269.364 124.886C267.186 124.886 265.421 127.345 265.421 130.378C265.421 133.411 267.186 135.87 269.364 135.87Z" fill="white"/>
<path d="M248.279 133.762C249.622 133.762 250.71 132.247 250.71 130.378C250.71 128.509 249.622 126.994 248.279 126.994C246.937 126.994 245.849 128.509 245.849 130.378C245.849 132.247 246.937 133.762 248.279 133.762Z" fill="#2D2D37"/>
<path d="M267.774 133.654C269.074 133.654 270.127 132.187 270.127 130.377C270.127 128.567 269.074 127.1 267.774 127.1C266.474 127.1 265.421 128.567 265.421 130.377C265.421 132.187 266.474 133.654 267.774 133.654Z" fill="#2D2D37"/>
<path d="M253.36 143.632C253.825 149.186 256.61 153.49 259.582 153.24C262.552 152.991 264.585 148.288 264.12 142.732L253.36 143.632Z" fill="#FF7BA4"/>
<path d="M259.191 129.141C258.289 129.68 255.052 131.116 255.108 133.429C255.165 135.74 257.083 137.569 259.396 137.513" stroke="#FFBED2" stroke-width="1.75925" stroke-miterlimit="10" stroke-linecap="round" stroke-linejoin="round"/>
<path d="M297.571 137.873C296.66 136.962 296.66 135.488 297.571 134.577L298.57 133.578" stroke="#FFBED2" stroke-width="1.75925" stroke-miterlimit="10" stroke-linecap="round" stroke-linejoin="round"/>
</g>
</svg>
