<svg width="382" height="348" viewBox="0 0 382 348" fill="none" xmlns="http://www.w3.org/2000/svg">
<mask id="mask0" mask-type="alpha" maskUnits="userSpaceOnUse" x="0" y="0" width="382" height="348">
<path d="M382 348L3.05176e-05 348L2.19259e-06 24C1.03382e-06 10.7452 10.7452 2.02057e-06 24 8.61793e-07L358 -2.83374e-05C371.255 -2.94962e-05 382 10.7451 382 24L382 348Z" fill="#1EB4BE"/>
</mask>
<g mask="url(#mask0)">
<g filter="url(#filter0_d)">
<path d="M332 40H192C180.954 40 172 48.9543 172 60V200C172 211.046 180.954 220 192 220H332C343.046 220 352 211.046 352 200V60C352 48.9543 343.046 40 332 40Z" fill="#BEFAFF"/>
<path d="M287.623 148.978H254.358L251.388 189.668C249.903 201.251 259.11 203.033 270.99 203.033C282.871 203.033 291.781 201.251 290.593 189.668L287.623 148.978Z" fill="#FFDBE5"/>
<path d="M280.199 168.582C273.961 173.631 265.348 190.264 263.566 202.738C256.735 201.847 251.982 199.471 251.388 192.64C251.388 191.452 251.388 190.264 251.388 189.67C251.388 189.67 251.388 189.67 251.388 189.373L252.873 169.473L280.199 168.582Z" fill="#FFD0DD"/>
<path d="M224.955 125.515C224.955 103.834 243.072 86.3102 264.754 87.4982C284.06 88.3892 300.099 104.428 300.99 123.733C301.287 132.644 298.613 140.96 293.861 147.494C289.703 153.434 285.842 159.671 281.981 165.612C275.744 175.413 264.16 181.353 251.389 179.571C238.914 177.789 228.816 168.285 225.846 156.107C224.955 152.543 224.955 149.276 225.252 146.009C225.846 139.772 225.549 133.535 225.252 127.298C224.955 127.001 224.955 126.406 224.955 125.515Z" fill="#FFE5EF"/>
<path d="M259.11 144.524C261.242 144.524 262.971 142.131 262.971 139.178C262.971 136.225 261.242 133.832 259.11 133.832C256.977 133.832 255.249 136.225 255.249 139.178C255.249 142.131 256.977 144.524 259.11 144.524Z" fill="white"/>
<path d="M257.922 143.335C259.398 143.335 260.595 141.606 260.595 139.473C260.595 137.341 259.398 135.612 257.922 135.612C256.446 135.612 255.249 137.341 255.249 139.473C255.249 141.606 256.446 143.335 257.922 143.335Z" fill="#333333"/>
<path d="M237.429 144.524C239.561 144.524 241.29 142.131 241.29 139.178C241.29 136.225 239.561 133.832 237.429 133.832C235.297 133.832 233.568 136.225 233.568 139.178C233.568 142.131 235.297 144.524 237.429 144.524Z" fill="white"/>
<path d="M236.241 143.335C237.717 143.335 238.914 141.606 238.914 139.473C238.914 137.341 237.717 135.612 236.241 135.612C234.765 135.612 233.568 137.341 233.568 139.473C233.568 141.606 234.765 143.335 236.241 143.335Z" fill="#333333"/>
<path d="M235.944 173.037C227.331 173.037 217.529 170.661 206.837 168.285C213.074 164.127 220.796 139.772 221.984 116.902C222.281 111.259 223.47 105.616 225.549 100.269C229.707 89.5771 239.211 76.2118 259.111 78.2908C260.299 78.5878 260.893 78.8847 261.487 79.4788C262.378 78.8847 263.269 78.5878 264.457 78.2908C277.822 76.5088 293.267 82.7459 300.989 101.754C306.929 116.011 313.463 135.911 316.73 147.197C318.215 153.137 316.137 159.374 311.384 162.939C301.583 169.77 289.702 171.552 273.961 173.037C278.416 167.394 279.01 145.118 273.664 123.139C269.209 124.327 260.299 125.218 257.032 125.218C256.141 122.248 254.953 117.793 256.735 115.12C256.735 115.12 253.765 120.169 253.765 125.515C251.388 125.515 249.309 125.515 246.933 125.515C246.339 122.545 246.339 117.199 248.121 114.823C248.121 114.823 244.26 120.466 243.963 125.515C241.884 125.218 239.805 124.921 238.023 124.624C237.132 121.654 238.023 117.496 239.805 114.526C239.805 114.526 235.35 118.684 235.35 124.03C234.459 124.03 233.271 123.733 232.38 123.436C230.895 122.842 228.519 121.06 227.034 119.278C225.846 123.139 224.954 124.327 224.954 128.485C224.954 129.079 224.954 129.97 224.954 130.564C225.251 136.802 225.548 140.069 224.954 146.306C224.657 149.573 224.955 153.137 225.549 156.404C227.331 162.939 230.895 168.582 235.944 173.037Z" fill="#333333"/>
<path d="M342.213 347.703V348H298.256C299.147 325.427 294.752 304.611 288.812 282.929L270.991 218.478L299.504 209.568C306.93 207.192 315.246 211.647 317.325 219.369L336.333 288.275C339.6 301.344 342.807 334.04 342.213 347.703Z" fill="#FFE5EF"/>
<path d="M294.454 188.185C284.058 183.136 271.881 182.542 260.892 186.997C243.665 193.828 231.488 208.975 228.221 227.39L208.321 340.551C207.727 344.412 210.697 347.976 214.558 347.976H326.531C330.392 347.976 333.362 344.709 332.768 340.848L317.621 220.262C315.542 206.302 306.928 194.422 294.454 188.185Z" fill="#28D2DC"/>
<path d="M273.961 240.16L235.35 301.344C235.35 301.344 279.308 297.186 279.308 237.19L273.961 240.16Z" fill="#1EB4BE"/>
<path d="M266.536 198.877C254.061 195.016 240.696 200.659 234.459 211.945L210.104 256.2C209.213 257.388 208.025 257.091 207.728 256.2L196.145 224.123C194.66 219.667 195.551 214.915 199.115 211.648C205.649 206.005 208.025 196.798 205.055 188.184C204.164 185.511 202.382 182.838 200.303 180.759C198.521 178.68 195.551 178.086 193.175 178.977C192.284 176.601 190.204 174.522 187.531 174.225C183.967 173.631 180.403 174.225 177.136 175.413C171.493 177.492 167.335 181.65 164.959 186.402L158.722 169.473C157.533 166.206 153.969 164.127 150.405 165.315C146.841 166.503 145.059 170.364 146.247 173.631L153.969 195.016C153.969 195.313 153.969 195.61 153.672 195.907C153.375 195.907 153.078 195.907 152.781 195.61L146.841 178.977C145.653 175.71 142.089 173.631 138.525 174.819C134.961 176.007 133.178 179.868 134.367 183.135L140.307 200.065L146.841 218.479L177.433 303.127C183.967 321.542 205.946 329.561 223.469 318.275C227.628 315.601 231.192 311.74 233.865 307.582L276.634 238.082C286.435 224.123 281.089 206.005 266.536 198.877ZM177.136 198.283C175.651 194.125 177.73 189.67 181.888 188.184C183.076 187.887 184.264 187.59 185.749 187.887C186.937 188.184 187.828 187.887 188.719 187.59C189.016 188.481 189.61 189.372 190.204 190.263C191.095 191.154 191.392 192.046 191.986 192.937C193.471 197.095 191.392 201.55 187.234 203.035C183.076 204.52 178.621 202.144 177.136 198.283Z" fill="#FFE5EF"/>
<path d="M246.635 167.986C248.604 167.986 250.199 164.927 250.199 161.154C250.199 157.382 248.604 154.323 246.635 154.323C244.667 154.323 243.071 157.382 243.071 161.154C243.071 164.927 244.667 167.986 246.635 167.986Z" fill="#FF97BF"/>
<path d="M248.715 149.871H246.636C244.26 149.871 242.181 147.791 242.181 145.415C242.181 143.039 243.963 140.663 246.636 140.069V135.911" stroke="#FFBED7" stroke-width="0.6298" stroke-miterlimit="10" stroke-linecap="round" stroke-linejoin="round"/>
<path d="M192.282 180.463C192.282 182.542 191.392 184.324 189.609 185.512" stroke="#FFBED7" stroke-width="0.6298" stroke-miterlimit="10" stroke-linecap="round" stroke-linejoin="round"/>
<path d="M208.619 259.762L208.322 265.405" stroke="#FFBED7" stroke-width="0.6298" stroke-miterlimit="10" stroke-linecap="round" stroke-linejoin="round"/>
<path d="M215.747 246.099L257.625 270.157L268.021 253.524L225.252 228.576L215.747 246.099Z" fill="#FFD0DD"/>
<path d="M281.981 215.51C279.901 207.787 274.258 201.253 267.13 197.986C254.359 194.125 240.102 199.768 233.865 211.648L217.232 241.647L261.487 268.08L279.01 238.676C282.872 231.845 284.06 223.232 281.981 215.51Z" fill="#28D2DC"/>
</g>
</g>
<defs>
<filter id="filter0_d" x="118" y="28" width="250" height="340" filterUnits="userSpaceOnUse" color-interpolation-filters="sRGB">
<feFlood flood-opacity="0" result="BackgroundImageFix"/>
<feColorMatrix in="SourceAlpha" type="matrix" values="0 0 0 0 0 0 0 0 0 0 0 0 0 0 0 0 0 0 127 0"/>
<feOffset dy="4"/>
<feGaussianBlur stdDeviation="8"/>
<feColorMatrix type="matrix" values="0 0 0 0 0 0 0 0 0 0 0 0 0 0 0 0 0 0 0.08 0"/>
<feBlend mode="normal" in2="BackgroundImageFix" result="effect1_dropShadow"/>
<feBlend mode="normal" in="SourceGraphic" in2="effect1_dropShadow" result="shape"/>
</filter>
</defs>
</svg>
