<svg width="382" height="348" viewBox="0 0 382 348" fill="none" xmlns="http://www.w3.org/2000/svg">
<mask id="mask0" mask-type="alpha" maskUnits="userSpaceOnUse" x="0" y="0" width="382" height="349">
<path d="M382 348L3.05176e-05 348L2.19259e-06 24.0001C1.03382e-06 10.7453 10.7452 0.000124091 24 0.000122932L358 9.37329e-05C371.255 9.25741e-05 382 10.7453 382 24.0001L382 348Z" fill="#F06E8C"/>
</mask>
<g mask="url(#mask0)">
<g filter="url(#filter0_d)">
<path d="M251.698 190.527C259.418 203.158 277.763 203.158 285.482 190.527L359.064 70.1194C367.126 56.928 357.632 40.0001 342.173 40.0001L195.008 40.0001C179.549 40.0001 170.055 56.928 178.116 70.1194L251.698 190.527Z" fill="#D2DCFF"/>
<path d="M290.471 143.588H257.235L254.294 184.47C252.823 196.235 262.235 198 274 198C285.765 198 294.882 196.235 293.706 184.47L290.471 143.588Z" fill="#FFDBE5"/>
<path d="M254 187.118C254 194.177 259 196.824 266.059 197.706C268.118 185.353 276.353 165.353 282.53 160.353L255.471 161.235L253.706 184.471V184.765C253.706 185.059 253.706 185.353 253.706 185.647C254 186.235 254 186.53 254 187.118Z" fill="#FFD0DD"/>
<path d="M227.529 120.353C227.529 98.5887 245.764 81.2357 267.529 82.1181C286.941 83.0004 303.118 99.177 303.706 118.589C304 127.412 301.353 135.942 296.647 142.412C292.529 148.295 288.706 154.471 284.588 160.648C278.412 170.353 266.647 176.53 253.706 174.765C241.353 173 231.059 163.589 228.118 151.236C227.235 147.706 227.235 144.177 227.529 140.942C228.117 134.765 227.823 128.589 227.529 122.412C227.529 121.824 227.529 120.942 227.529 120.353Z" fill="#FFE5EF"/>
<path d="M254.883 175.059C254.588 175.059 254.294 175.059 254 175.059C241.647 173.294 231.353 163.883 228.412 151.53C227.53 148 227.529 144.471 227.823 141.235C228.118 138 228.118 134.765 228.118 131.53C228.118 126.824 229 121.824 230.765 117.412C234 109.765 239 101.53 244.588 99.7648C245.765 99.4707 246.647 100.059 247.236 101.235C248.412 104.177 251.647 110.059 262.529 112.118C273.706 114.177 276.941 130.647 288.118 133C294 134.471 291.059 151.235 291.059 151.235L293.118 178.294C299.294 178.588 306.647 177.706 314 176.235C316.647 175.941 318.412 173.294 317.824 170.647C316.941 166.53 316.059 162.118 315.177 158L310.471 128C310.471 127.118 310.176 126.235 310.176 125.647C310.176 123.588 309.882 121.235 309.588 118.588C305.177 91.8237 291.353 84.4707 285.176 82.4119C281.941 81.5295 272.824 78.2942 262.824 78.0001C252.824 78.0001 241.647 83.2943 234.294 92.1178C227.53 103 224 114.471 223.412 120.353C222.823 126.235 222.235 136.236 222.235 140.647C221.941 149.471 220.765 160.353 219.882 171.53C219.588 173.883 221.353 176.235 223.706 176.53C231.941 178 242.53 178.588 254.588 178.588L254.883 175.059Z" fill="#333333"/>
<path d="M287.823 134.177C287.823 130.059 290.765 126.824 294.588 127.118C297.824 127.412 300.471 130.354 300.471 133.883C300.471 135.648 300.176 137.118 299.294 138.295C298.706 139.471 297.824 140.648 297.235 141.53C296.059 143.295 294.294 144.471 292.235 144.177C290.176 143.883 288.412 142.118 288.118 139.765C288.118 139.177 287.823 138.589 288.118 138.001C288.118 136.824 288.118 135.648 288.118 134.471C287.823 134.471 287.823 134.177 287.823 134.177Z" fill="#FFE5EF"/>
<path d="M240.765 139.176C243.039 139.176 244.882 136.542 244.882 133.294C244.882 130.045 243.039 127.411 240.765 127.411C238.49 127.411 236.647 130.045 236.647 133.294C236.647 136.542 238.49 139.176 240.765 139.176Z" fill="white"/>
<path d="M261.353 139.176C263.627 139.176 265.471 136.542 265.471 133.294C265.471 130.045 263.627 127.411 261.353 127.411C259.079 127.411 257.235 130.045 257.235 133.294C257.235 136.542 259.079 139.176 261.353 139.176Z" fill="white"/>
<path d="M239.294 136.824C240.756 136.824 241.941 135.244 241.941 133.295C241.941 131.345 240.756 129.765 239.294 129.765C237.832 129.765 236.647 131.345 236.647 133.295C236.647 135.244 237.832 136.824 239.294 136.824Z" fill="#333333"/>
<path d="M259.882 136.824C261.182 136.824 262.235 135.244 262.235 133.295C262.235 131.345 261.182 129.765 259.882 129.765C258.583 129.765 257.53 131.345 257.53 133.295C257.53 135.244 258.583 136.824 259.882 136.824Z" fill="#333333"/>
<path d="M264.588 148.001C257.235 150.059 250.47 151.824 244.588 152.118C244 152.118 243.411 153.001 244 153.295C244.882 154.765 247.529 155.648 250.47 155.648C257.235 155.648 263.117 151.824 265.47 149.177C266.059 148.589 265.47 147.706 264.588 148.001Z" fill="#FF97BF"/>
<path d="M295.471 133.883L294.588 134.765C293.706 135.647 293.706 137.412 294.588 138.294" stroke="#FFBED7" stroke-width="0.6298" stroke-miterlimit="10" stroke-linecap="round" stroke-linejoin="round"/>
<path d="M251.059 140.647C248.706 140.647 246.647 138.883 246.647 136.235C246.647 133.883 249.882 132.412 251.059 131.824V126.53" stroke="#FFBED7" stroke-width="0.6298" stroke-miterlimit="10" stroke-linecap="round" stroke-linejoin="round"/>
<path d="M70.7647 188V201.529C70.7647 205.059 73.7057 208 77.2352 208C77.2352 208 77.2351 208 77.5292 208L83.1175 214.47L76.9411 232.412C82.5294 235.647 90.7646 237.412 99.294 237.412H204.294V193.294H131.941C122.823 193.294 113.706 190.647 106.059 185.647C98.4118 180.647 89.588 178.294 80.4704 178.294C74.8821 178 70.7647 182.412 70.7647 188Z" fill="#FFE5EF"/>
<path d="M81.941 206.529L40.4704 206.823C36.941 206.823 34 203.882 34 200.352C34 196.823 36.941 193.882 40.4704 193.882L81.941 193.588C85.4704 193.588 88.4118 196.529 88.4118 200.058C88.4118 203.588 85.4704 206.529 81.941 206.529Z" fill="#FFE5EF"/>
<path d="M87.2352 232.706H70.4703C66.9409 232.706 63.7058 229.765 63.7058 226.236C63.7058 222.706 66.6468 219.471 70.1763 219.471H86.9412C90.4706 219.471 93.7057 222.412 93.7057 225.942C93.7057 229.765 90.7646 232.706 87.2352 232.706Z" fill="#FFE5EF"/>
<path d="M82.5294 219.764H65.7645C62.2351 219.764 59.2941 216.823 59.2941 213.294C59.2941 209.764 62.2351 206.823 65.7645 206.823H82.5294C86.0589 206.823 88.9999 209.764 88.9999 213.294C88.9999 216.823 86.0589 219.764 82.5294 219.764Z" fill="#FFE5EF"/>
<path d="M84.8822 207.117C87.2351 208 88.9999 210.353 88.9999 213.294C88.9999 216.823 86.0589 219.764 82.5295 219.764H73.7059H87.2353C90.7647 219.764 93.7057 222.706 93.7057 226.235C93.7057 228.882 92.2353 230.941 90.1765 232.117" stroke="#FFBED7" stroke-width="0.6709" stroke-miterlimit="10" stroke-linecap="round" stroke-linejoin="round"/>
<path d="M101.647 205.942C86.9412 205.942 83.7056 193.295 83.7056 193.295V201.236C83.7056 204.765 80.7646 207.706 77.2352 207.706C73.7057 207.706 70.7647 204.765 70.7647 201.236V196.53" stroke="#FFBED7" stroke-width="0.6709" stroke-miterlimit="10" stroke-linecap="round" stroke-linejoin="round"/>
<path d="M252.529 238.589H204.294V191.53H252.529C265.471 191.53 276.059 202.118 276.059 215.059C275.765 228 265.471 238.589 252.529 238.589Z" fill="#5A87FA"/>
<path d="M212.823 238.587H233.411L246.059 196.822C246.353 196.528 223.706 207.704 212.823 238.587Z" fill="#646EDC"/>
<path d="M201.059 193.294V237.118H204.294V193L201.059 193.294Z" fill="#FFD0DD"/>
<path d="M315.764 195.645L295.176 185.645C284.588 180.351 272.235 180.057 261.058 184.469C243.705 191.527 231.058 206.822 227.823 225.351L207.529 340.351C206.941 344.469 209.882 347.998 214 347.998H327.823C331.646 347.998 334.882 344.469 334.294 340.645L315.764 195.645Z" fill="#5A87FA"/>
<path d="M323.706 256.821L274 225.645C274 225.645 280.176 259.762 326.058 275.645L323.706 256.821Z" fill="#646EDC"/>
<path d="M331.941 263.883C332.823 264.471 332.823 265.941 331.647 266.236L306.059 275.941C297.824 278.589 289 278.883 280.47 277.118C271.647 275.059 262.235 275.941 253.412 279.177C248.412 281.236 245.765 286.824 247.823 292.118L249.294 295.647C249.294 295.647 245.471 297.412 242.824 299.471C240.176 301.53 237.823 305.059 239.294 308.294C240.47 311.53 244 313.294 247.235 312.412C244.294 313.883 243.118 317.412 244.294 320.647V320.941C245.471 324.471 249.588 326.236 252.823 324.765L255.176 323.883C252.529 325.647 251.353 328.883 252.529 331.824C253.412 334.471 255.765 335.942 258.412 336.236C264.882 337.412 273.412 336.236 281.353 333L369.294 299.765C383.706 294.471 393.118 280.647 393.118 265.059C393.118 252.118 386.353 240.353 375.471 233.588L313.412 195.647C299.588 186.53 281.059 191.824 274 206.824C270.176 219.471 275.765 233 287.235 239.471L331.941 263.883Z" fill="#FFE5EF"/>
<path d="M336.353 265.646L341.941 265.941" stroke="#FFBED7" stroke-width="0.6709" stroke-miterlimit="10" stroke-linecap="round" stroke-linejoin="round"/>
<path d="M251.941 295.353L266.353 290.059C266.353 290.059 260.765 291.823 259.588 288.294L261.059 292.118" stroke="#FFBED7" stroke-width="0.6709" stroke-miterlimit="10" stroke-linecap="round" stroke-linejoin="round"/>
<path d="M257.824 322.411L260.176 321.529" stroke="#FFBED7" stroke-width="0.6709" stroke-miterlimit="10" stroke-linecap="round" stroke-linejoin="round"/>
<path d="M249.882 311.235L252.529 310.058" stroke="#FFBED7" stroke-width="0.6709" stroke-miterlimit="10" stroke-linecap="round" stroke-linejoin="round"/>
<path d="M338.412 210.353L310.765 251.824L320.765 257.412L346.059 215.059L338.412 210.353Z" fill="#FFD0DD"/>
<path d="M291.059 191.235C283.117 193.588 276.647 198.882 273.117 206.529V206.823C269 219.764 274.882 234.176 286.941 240.647L317.529 257.706L344.294 212.706L314.294 195.059C307.235 190.353 299 189.176 291.059 191.235Z" fill="#5A87FA"/>
</g>
</g>
<defs>
<filter id="filter0_d" x="18" y="28.0001" width="391.118" height="339.998" filterUnits="userSpaceOnUse" color-interpolation-filters="sRGB">
<feFlood flood-opacity="0" result="BackgroundImageFix"/>
<feColorMatrix in="SourceAlpha" type="matrix" values="0 0 0 0 0 0 0 0 0 0 0 0 0 0 0 0 0 0 127 0"/>
<feOffset dy="4"/>
<feGaussianBlur stdDeviation="8"/>
<feColorMatrix type="matrix" values="0 0 0 0 0 0 0 0 0 0 0 0 0 0 0 0 0 0 0.08 0"/>
<feBlend mode="normal" in2="BackgroundImageFix" result="effect1_dropShadow"/>
<feBlend mode="normal" in="SourceGraphic" in2="effect1_dropShadow" result="shape"/>
</filter>
</defs>
</svg>
