<svg width="382" height="348" viewBox="0 0 382 348" fill="none" xmlns="http://www.w3.org/2000/svg">
<mask id="mask0" mask-type="alpha" maskUnits="userSpaceOnUse" x="0" y="0" width="382" height="348">
<path d="M382 348L3.05176e-05 348L2.19259e-06 24C1.03382e-06 10.7452 10.7452 2.02057e-06 24 8.61793e-07L358 -2.83374e-05C371.255 -2.94962e-05 382 10.7451 382 24L382 348Z" fill="#F06E8C"/>
</mask>
<g mask="url(#mask0)">
<g filter="url(#filter0_d)">
<path d="M251.698 190.526C259.418 203.158 277.763 203.158 285.482 190.526L359.064 70.1193C367.126 56.9279 357.632 40 342.173 40L195.008 40C179.549 40 170.055 56.9278 178.116 70.1192L251.698 190.526Z" fill="#D2DCFF"/>
<path d="M288.292 150.394H256.209L253.37 193.266C251.95 204.623 261.036 206.326 272.392 206.326C283.749 206.326 292.55 204.623 291.415 193.266L288.292 150.394Z" fill="#FFDBE5"/>
<path d="M280.91 169.416C274.948 174.242 266.714 193.833 264.727 205.757C258.197 204.906 253.37 202.634 253.086 196.104C253.086 194.968 253.086 193.833 253.086 193.265V192.981L254.506 170.268L280.91 169.416Z" fill="#FFD0DD"/>
<path d="M227.817 130.804C227.817 109.794 245.42 93.0426 266.43 93.8944C285.169 94.7461 300.5 110.362 301.352 129.1C301.636 137.618 299.08 145.851 294.538 152.097C290.563 157.776 285.736 162.034 282.046 167.997C276.083 177.366 262.455 182.192 251.95 179.921C241.161 177.65 233.212 168.281 231.508 160.615C230.657 157.208 230.657 152.949 230.373 149.826C230.089 144.148 228.385 138.753 227.817 132.791C227.817 132.223 227.817 131.371 227.817 130.804Z" fill="#FFE5EF"/>
<path d="M289.427 166.009C289.427 166.009 311.289 154.936 307.03 128.816C302.771 102.979 289.427 95.8816 283.465 93.8942C277.503 91.9068 248.259 81.6857 234.631 103.263C221.003 124.841 224.978 134.494 228.953 140.173C228.953 140.173 233.496 114.052 244.285 110.929C245.42 110.645 246.556 111.213 246.84 112.349C247.975 115.188 251.099 120.866 261.603 122.854C275.799 125.693 276.935 136.482 282.897 138.185C288.576 139.321 288.292 157.775 289.427 166.009Z" fill="#333333"/>
<path d="M286.02 144.148C286.02 140.173 288.859 137.05 292.55 137.334C295.673 137.618 298.229 140.457 298.229 143.864C298.229 145.567 297.945 146.987 297.093 148.123C296.525 149.258 295.673 150.394 295.106 151.246C293.97 152.949 292.266 154.085 290.279 153.801C288.292 153.517 286.588 151.814 286.304 149.542C286.304 148.974 286.02 148.407 286.304 147.839C286.304 146.703 286.304 145.567 286.304 144.432C286.02 144.432 286.02 144.148 286.02 144.148Z" fill="#FFE5EF"/>
<path d="M313.38 110.723C318.813 105.291 318.094 95.7631 311.774 89.4432C305.454 83.1234 295.927 82.4043 290.494 87.8371C285.061 93.27 285.78 102.798 292.1 109.118C298.42 115.437 307.947 116.156 313.38 110.723Z" fill="#333333"/>
<path d="M242.581 144.432C244.776 144.432 246.556 141.89 246.556 138.754C246.556 135.617 244.776 133.075 242.581 133.075C240.386 133.075 238.606 135.617 238.606 138.754C238.606 141.89 240.386 144.432 242.581 144.432Z" fill="white"/>
<path d="M262.455 144.432C264.65 144.432 266.43 141.89 266.43 138.754C266.43 135.617 264.65 133.075 262.455 133.075C260.26 133.075 258.48 135.617 258.48 138.754C258.48 141.89 260.26 144.432 262.455 144.432Z" fill="white"/>
<path d="M241.161 142.16C242.573 142.16 243.717 140.635 243.717 138.753C243.717 136.871 242.573 135.346 241.161 135.346C239.75 135.346 238.606 136.871 238.606 138.753C238.606 140.635 239.75 142.16 241.161 142.16Z" fill="#333333"/>
<path d="M261.036 142.16C262.29 142.16 263.307 140.635 263.307 138.753C263.307 136.871 262.29 135.346 261.036 135.346C259.781 135.346 258.764 136.871 258.764 138.753C258.764 140.635 259.781 142.16 261.036 142.16Z" fill="#333333"/>
<path d="M260.468 154.652C257.345 156.072 247.692 156.072 244.852 154.652C244.285 154.368 244.001 155.22 244.284 156.072C245.42 159.479 248.827 162.034 252.802 162.034C256.777 162.034 260.184 159.479 261.319 156.072C261.319 155.22 261.036 154.368 260.468 154.652Z" fill="#FF97BF"/>
<path d="M293.402 143.863L292.55 144.715C291.699 145.567 291.699 147.27 292.55 148.122" stroke="#FFBED7" stroke-width="0.6298" stroke-miterlimit="10" stroke-linecap="round" stroke-linejoin="round"/>
<path d="M252.518 148.406C250.247 148.406 248.259 146.703 248.259 144.148C248.259 142.728 249.395 141.592 250.531 141.025C251.666 140.173 252.518 138.753 252.518 137.334V134.211" stroke="#FFBED7" stroke-width="0.6298" stroke-miterlimit="10" stroke-linecap="round" stroke-linejoin="round"/>
<path d="M76.2057 193.549V206.609C76.2057 210.016 79.0449 212.855 82.4519 212.855C82.4519 212.855 82.4519 212.855 82.7358 212.855L88.1302 219.102L82.168 236.42C87.5624 239.544 95.5121 241.247 103.746 241.247H205.104V198.66H135.26C126.459 198.66 117.658 196.104 110.276 191.278C102.894 186.451 94.3764 184.18 85.575 184.18C80.4645 183.896 76.2057 188.155 76.2057 193.549Z" fill="#FFE5EF"/>
<path d="M87.2784 211.435L47.2462 211.719C43.8392 211.719 41 208.88 41 205.473C41 202.066 43.8392 199.227 47.2462 199.227L87.2784 198.943C90.6854 198.943 93.5246 201.782 93.5246 205.189C93.5246 208.596 90.6854 211.435 87.2784 211.435Z" fill="#FFE5EF"/>
<path d="M92.105 236.705H75.9218C72.5148 236.705 69.3917 233.866 69.3917 230.459C69.3917 227.052 72.2308 223.929 75.6378 223.929H91.8211C95.2281 223.929 98.3512 226.768 98.3512 230.175C98.6351 233.866 95.7959 236.705 92.105 236.705Z" fill="#FFE5EF"/>
<path d="M87.8462 224.212H71.663C68.256 224.212 65.4167 221.372 65.4167 217.965C65.4167 214.558 68.256 211.719 71.663 211.719H87.8462C91.2532 211.719 94.0924 214.558 94.0924 217.965C94.0924 221.372 91.2532 224.212 87.8462 224.212Z" fill="#FFE5EF"/>
<path d="M90.1176 212.004C92.3889 212.855 94.0924 215.127 94.0924 217.966C94.0924 221.373 91.2532 224.212 87.8462 224.212H79.3287H92.3889C95.7959 224.212 98.6351 227.051 98.6351 230.458C98.6351 233.013 97.2155 235.001 95.228 236.136" stroke="#FFBED7" stroke-width="0.6709" stroke-miterlimit="10" stroke-linecap="round" stroke-linejoin="round"/>
<path d="M106.301 210.867C92.105 210.867 88.9819 198.659 88.9819 198.659V206.325C88.9819 209.732 86.1428 212.571 82.7358 212.571C79.3288 212.571 76.4896 209.732 76.4896 206.325V201.782" stroke="#FFBED7" stroke-width="0.6709" stroke-miterlimit="10" stroke-linecap="round" stroke-linejoin="round"/>
<path d="M251.95 242.383H205.388V196.956H251.95C264.443 196.956 274.664 207.177 274.664 219.67C274.38 232.162 264.443 242.383 251.95 242.383Z" fill="#5A87FA"/>
<path d="M213.622 242.382H233.496L245.704 202.066C245.704 201.782 223.843 212.571 213.622 242.382Z" fill="#646EDC"/>
<path d="M202.265 198.66V240.963H205.388V198.376L202.265 198.66Z" fill="#FFD0DD"/>
<path d="M312.992 200.931L293.118 191.277C282.897 186.167 270.973 185.883 260.184 190.142C243.433 196.956 231.224 211.72 228.101 229.606L208.511 340.618C207.943 344.593 210.782 348 214.757 348H324.633C328.324 348 331.447 344.593 330.879 340.902L312.992 200.931Z" fill="#5A87FA"/>
<path d="M320.374 259.985L272.392 229.89C272.392 229.89 278.354 262.824 322.645 278.156L320.374 259.985Z" fill="#646EDC"/>
<path d="M328.608 266.8C329.46 267.368 329.46 268.787 328.324 269.071L303.623 278.44C295.673 280.996 287.156 281.28 278.922 279.576C270.405 277.589 261.319 278.44 252.802 281.564C247.975 283.551 245.42 288.945 247.408 294.056L248.827 297.463C248.827 297.463 245.136 299.166 242.581 301.154C240.026 303.141 237.754 306.548 239.174 309.671C240.31 312.794 243.717 314.498 246.84 313.646C244.001 315.066 242.865 318.473 244.001 321.596V321.88C245.136 325.287 249.111 326.99 252.234 325.571L254.505 324.719C251.95 326.422 250.815 329.546 251.95 332.385C252.802 334.94 255.073 336.36 257.629 336.643C263.875 337.779 272.108 336.643 279.774 333.52L364.665 301.438C378.577 296.327 387.662 282.983 387.662 267.936C387.662 255.443 381.132 244.086 370.627 237.556L311.289 200.647C297.945 191.846 280.058 196.956 273.244 211.436C269.553 223.645 274.948 236.705 286.02 242.951L328.608 266.8Z" fill="#FFE5EF"/>
<path d="M332.867 268.503L338.261 268.787" stroke="#FFBED7" stroke-width="0.6709" stroke-miterlimit="10" stroke-linecap="round" stroke-linejoin="round"/>
<path d="M251.382 297.179L265.294 292.068C265.294 292.068 259.9 293.772 258.764 290.365L260.184 294.056" stroke="#FFBED7" stroke-width="0.6709" stroke-miterlimit="10" stroke-linecap="round" stroke-linejoin="round"/>
<path d="M257.061 323.298L259.332 322.447" stroke="#FFBED7" stroke-width="0.6709" stroke-miterlimit="10" stroke-linecap="round" stroke-linejoin="round"/>
<path d="M249.395 312.511L251.95 311.375" stroke="#FFBED7" stroke-width="0.6709" stroke-miterlimit="10" stroke-linecap="round" stroke-linejoin="round"/>
<path d="M334.854 215.127L308.166 255.159L317.819 260.554L342.236 219.67L334.854 215.127Z" fill="#FFD0DD"/>
<path d="M289.143 196.672C281.478 198.943 275.231 204.054 271.824 211.436V211.72C267.85 224.212 273.528 238.124 285.168 244.37L314.696 260.837L340.532 217.398L311.573 200.363C304.759 195.82 296.525 194.685 289.143 196.672Z" fill="#5A87FA"/>
</g>
</g>
<defs>
<filter id="filter0_d" x="25" y="28" width="378.662" height="340" filterUnits="userSpaceOnUse" color-interpolation-filters="sRGB">
<feFlood flood-opacity="0" result="BackgroundImageFix"/>
<feColorMatrix in="SourceAlpha" type="matrix" values="0 0 0 0 0 0 0 0 0 0 0 0 0 0 0 0 0 0 127 0"/>
<feOffset dy="4"/>
<feGaussianBlur stdDeviation="8"/>
<feColorMatrix type="matrix" values="0 0 0 0 0 0 0 0 0 0 0 0 0 0 0 0 0 0 0.08 0"/>
<feBlend mode="normal" in2="BackgroundImageFix" result="effect1_dropShadow"/>
<feBlend mode="normal" in="SourceGraphic" in2="effect1_dropShadow" result="shape"/>
</filter>
</defs>
</svg>
