<svg width="382" height="348" viewBox="0 0 382 348" fill="none" xmlns="http://www.w3.org/2000/svg">
<mask id="mask0" mask-type="alpha" maskUnits="userSpaceOnUse" x="0" y="0" width="382" height="348">
<path d="M382 324C382 337.255 371.255 348 358 348L24 348C10.7452 348 2.95782e-05 337.255 2.84194e-05 324L2.19259e-06 24C1.03382e-06 10.7452 10.7452 1.93855e-06 24 7.79773e-07L358 -2.84194e-05C371.255 -2.95782e-05 382 10.7451 382 24L382 324Z" fill="#3C6EE6"/>
</mask>
<g mask="url(#mask0)">
<path d="M316.397 217.831C314.251 210.033 306.037 205.557 298.308 207.979L269.513 217.001L287.602 281.998C292.47 299.51 296.208 326.391 297.062 348.033H341.57C341.247 331.098 338.386 299.187 335.617 287.351L316.397 217.831Z" fill="#FFE4EE"/>
<path d="M215.429 177.915C213.491 200.503 212.591 226.415 220.805 252.164H310.121C322.373 232.16 321.473 205.672 316.259 176.6L215.429 177.915Z" fill="#2D2D37"/>
<path d="M287.786 145.566H253.846L250.8 187.329C249.416 199.304 258.76 201.103 270.828 201.103C282.872 201.103 292.24 199.281 290.855 187.329L287.786 145.566Z" fill="#FFDAE4"/>
<path d="M263.076 200.711C265.222 187.536 273.989 167.255 280.519 162.063L252.6 163.079L250.824 187.329C249.739 196.558 255.046 199.742 263.076 200.711Z" fill="#FFCDDC"/>
<path d="M223.551 121.777C223.551 99.6038 242.056 81.7682 264.46 82.8526C284.326 83.8217 300.615 100.181 301.469 120.047C301.861 129.184 299.092 137.628 294.201 144.458C289.863 150.503 285.964 156.825 281.972 163.101C275.581 173.138 263.721 179.345 250.569 177.476C237.856 175.653 227.358 165.985 224.428 153.48C223.574 149.88 223.389 146.373 223.712 143.027C224.335 136.705 223.989 130.337 223.62 124.015C223.574 123.254 223.551 122.515 223.551 121.777Z" fill="#FFE4EE"/>
<path d="M261.46 149.904C254.03 152.119 247.062 153.757 241.155 154.057C240.486 154.104 240.094 154.842 240.486 155.396C241.478 156.803 243.993 157.795 246.97 157.795C253.753 157.795 259.868 154.011 262.36 151.312C262.936 150.666 262.29 149.673 261.46 149.904Z" fill="#FF7BA4"/>
<path d="M307.307 119.747C302.715 92.3363 288.894 86.0604 282.295 82.8763C279.55 81.5381 271.266 79.4384 261.876 79C258.161 79.0231 255.577 79.7153 254.723 81.3304C253.661 80.1768 252.162 79.923 250.685 80.1306C249.901 80.246 249.116 80.5228 248.355 80.7766C247.57 81.0304 246.786 81.3304 246.001 81.6534C236.91 85.4374 229.965 92.544 225.766 101.45C221.913 109.618 219.905 117.278 219.513 121.639C218.982 127.754 218.36 137.698 218.244 142.428C217.99 152.626 216.467 165.086 215.337 178.215H251.446L251.493 177.568C250.962 177.499 250.362 177.43 249.347 177.245C238.941 175.261 229.873 168.339 225.951 158.487C223.828 153.157 223.205 147.943 223.689 143.074C224.012 139.729 224.082 136.383 224.012 133.037C223.989 131.445 224.128 129.876 224.312 128.307C231.788 124.431 240.371 115.571 244.409 107.449C247.547 118.409 271.059 134.56 285.202 134.56C291.063 135.898 288.387 152.788 288.317 153.134L290.117 177.799H316.444L307.307 119.747Z" fill="#2D2D37"/>
<path d="M285.203 135.898C285.203 131.814 288.272 128.538 291.987 128.722C295.286 128.907 297.986 131.906 298.124 135.575C298.193 137.259 297.732 138.805 296.924 140.074C296.209 141.182 295.563 142.359 294.894 143.512C293.832 145.358 291.871 146.512 289.679 146.166C287.58 145.843 285.826 144.043 285.342 141.759C285.203 141.089 285.18 140.443 285.226 139.844C285.342 138.69 285.272 137.513 285.203 136.336C285.203 136.175 285.203 136.036 285.203 135.898Z" fill="#FFE4EE"/>
<path d="M237.256 140.744C239.601 140.744 241.502 138.099 241.502 134.837C241.502 131.575 239.601 128.93 237.256 128.93C234.911 128.93 233.011 131.575 233.011 134.837C233.011 138.099 234.911 140.744 237.256 140.744Z" fill="white"/>
<path d="M258.299 140.744C260.644 140.744 262.545 138.099 262.545 134.837C262.545 131.575 260.644 128.93 258.299 128.93C255.954 128.93 254.054 131.575 254.054 134.837C254.054 138.099 255.954 140.744 258.299 140.744Z" fill="white"/>
<path d="M235.641 138.482C237.081 138.482 238.249 136.85 238.249 134.836C238.249 132.823 237.081 131.191 235.641 131.191C234.201 131.191 233.034 132.823 233.034 134.836C233.034 136.85 234.201 138.482 235.641 138.482Z" fill="#2D2D37"/>
<path d="M256.592 138.367C257.993 138.367 259.13 136.787 259.13 134.837C259.13 132.887 257.993 131.307 256.592 131.307C255.19 131.307 254.054 132.887 254.054 134.837C254.054 136.787 255.19 138.367 256.592 138.367Z" fill="#2D2D37"/>
<path d="M293.025 135.737L292.009 136.752C290.994 137.767 290.994 139.428 292.009 140.444" stroke="#FFBED2" stroke-width="1.88969" stroke-miterlimit="10" stroke-linecap="round" stroke-linejoin="round"/>
<path d="M247.593 142.52C245.101 142.59 243.048 140.628 242.979 138.136C242.909 135.645 246.393 134.099 247.362 133.522V128.1" stroke="#FFBED2" stroke-width="1.88969" stroke-miterlimit="10" stroke-linecap="round" stroke-linejoin="round"/>
<path d="M293.463 186.683C282.849 181.514 270.528 181.076 259.568 185.46C242.263 192.382 229.781 207.771 226.528 226.115L206.292 340.465C205.6 344.411 208.623 348.033 212.638 348.033H325.627C329.503 348.033 332.503 344.641 332.018 340.788L316.674 219.1C314.921 205.072 306.199 192.889 293.463 186.683Z" fill="#FFD25F"/>
<path d="M272.789 239.059L233.795 300.919C233.795 300.919 278.234 296.673 278.234 236.268L272.789 239.059Z" fill="#FFB428"/>
<path d="M265.336 197.665C252.784 193.835 239.287 199.327 232.942 210.794L208.23 255.51C207.469 256.663 206.246 256.479 205.854 255.394L194.156 222.907C192.587 218.524 193.671 213.563 197.132 210.448C203.592 204.68 206.246 195.358 203.154 186.752C202.139 183.914 200.547 181.353 198.47 179.161C196.578 177.153 193.74 176.53 191.295 177.315C190.51 174.846 188.364 172.908 185.642 172.539C182.135 172.054 178.535 172.423 175.236 173.623C169.606 175.654 165.314 179.784 162.915 184.814L156.731 167.647C155.508 164.255 151.839 162.248 148.402 163.356C144.848 164.509 143.002 168.363 144.248 171.847L152.07 193.558C152.186 193.881 152.024 194.228 151.701 194.343C151.378 194.458 151.032 194.297 150.917 193.974C150.917 193.974 150.917 193.974 150.917 193.951L144.871 177.176C143.648 173.785 139.98 171.777 136.542 172.885C132.989 174.039 131.143 177.892 132.389 181.376L138.526 198.427L145.194 216.932L176.043 302.556C182.688 321.015 204.977 329.344 222.605 317.969C226.896 315.2 230.427 311.439 233.218 307.148L276.55 236.867C285.456 223.115 280.195 204.634 265.336 197.665ZM175.12 196.835C173.644 192.705 175.789 188.159 179.896 186.683C181.119 186.244 182.388 186.106 183.68 186.29C184.765 186.452 185.826 186.337 186.795 186.013C187.095 186.983 187.626 187.906 188.364 188.69C189.126 189.498 189.702 190.42 190.072 191.459C191.548 195.589 189.403 200.134 185.296 201.611C181.189 203.088 176.597 200.965 175.12 196.835Z" fill="#FFE4EE"/>
<path d="M190.534 178.884C190.649 180.914 189.611 182.922 187.857 183.96" stroke="#FFBED2" stroke-width="1.88969" stroke-miterlimit="10" stroke-linecap="round" stroke-linejoin="round"/>
<path d="M206.777 259.086L206.546 264.6" stroke="#FFBED2" stroke-width="1.88969" stroke-miterlimit="10" stroke-linecap="round" stroke-linejoin="round"/>
<path d="M213.999 245.103L256.384 269.584L266.86 252.579L223.667 227.637L213.999 245.103Z" fill="#FFCDDC"/>
<path d="M280.934 214.417C278.696 206.595 273.182 200.111 265.821 196.65L265.683 196.604C252.716 192.658 238.526 198.404 231.973 210.263L215.799 239.543C215.452 240.166 215.66 240.974 216.283 241.343L258.784 266.654C259.43 267.023 260.238 266.816 260.63 266.193L277.496 237.513C281.903 230.66 283.172 222.238 280.934 214.417Z" fill="#FFD25F"/>
</g>
</svg>
