<svg width="382" height="348" viewBox="0 0 382 348" fill="none" xmlns="http://www.w3.org/2000/svg">
<mask id="mask0" mask-type="alpha" maskUnits="userSpaceOnUse" x="0" y="0" width="382" height="348">
<path d="M382 348L3.05176e-05 348L2.19259e-06 24C1.03382e-06 10.7452 10.7452 2.02057e-06 24 8.61793e-07L358 -2.83374e-05C371.255 -2.94962e-05 382 10.7451 382 24L382 348Z" fill="#646EDC"/>
</mask>
<g mask="url(#mask0)">
<g filter="url(#filter0_d)">
<path d="M264.857 44.0571C268.083 38.6476 275.917 38.6476 279.143 44.0571V44.0571C281.803 48.5177 287.856 49.4762 291.764 46.0561V46.0561C296.504 41.9082 303.955 44.3292 305.352 50.4709V50.4709C306.503 55.5351 311.963 58.3171 316.737 56.272V56.272C322.526 53.7918 328.865 58.3969 328.295 64.6695V64.6695C327.825 69.8418 332.158 74.1747 337.33 73.7049V73.7049C343.603 73.1352 348.208 79.4736 345.728 85.2632V85.2632C343.683 90.0371 346.465 95.4969 351.529 96.6484V96.6484C357.671 98.045 360.092 105.496 355.944 110.236V110.236C352.524 114.144 353.482 120.197 357.943 122.857V122.857C363.352 126.083 363.352 133.917 357.943 137.143V137.143C353.482 139.803 352.524 145.856 355.944 149.764V149.764C360.092 154.504 357.671 161.955 351.529 163.352V163.352C346.465 164.503 343.683 169.963 345.728 174.737V174.737C348.208 180.526 343.603 186.865 337.33 186.295V186.295C332.158 185.825 327.825 190.158 328.295 195.33V195.33C328.865 201.603 322.526 206.208 316.737 203.728V203.728C311.963 201.683 306.503 204.465 305.352 209.529V209.529C303.955 215.671 296.504 218.092 291.764 213.944V213.944C287.856 210.524 281.803 211.482 279.143 215.943V215.943C275.917 221.352 268.083 221.352 264.857 215.943V215.943C262.197 211.482 256.144 210.524 252.236 213.944V213.944C247.496 218.092 240.045 215.671 238.648 209.529V209.529C237.497 204.465 232.037 201.683 227.263 203.728V203.728C221.474 206.208 215.135 201.603 215.705 195.33V195.33C216.175 190.158 211.842 185.825 206.67 186.295V186.295C200.397 186.865 195.792 180.526 198.272 174.737V174.737C200.317 169.963 197.535 164.503 192.471 163.352V163.352C186.329 161.955 183.908 154.504 188.056 149.764V149.764C191.476 145.856 190.518 139.803 186.057 137.143V137.143C180.648 133.917 180.648 126.083 186.057 122.857V122.857C190.518 120.197 191.476 114.144 188.056 110.236V110.236C183.908 105.496 186.329 98.045 192.471 96.6484V96.6484C197.535 95.4969 200.317 90.0371 198.272 85.2632V85.2632C195.792 79.4736 200.397 73.1352 206.67 73.7049V73.7049C211.842 74.1747 216.175 69.8418 215.705 64.6695V64.6695C215.135 58.3969 221.474 53.7918 227.263 56.272V56.272C232.037 58.3171 237.497 55.5351 238.648 50.4709V50.4709C240.045 44.3292 247.496 41.9082 252.236 46.0561V46.0561C256.144 49.4762 262.197 48.5177 264.857 44.0571V44.0571Z" fill="#D2DCFF"/>
<path d="M111.385 234.031L86.0448 235.558C82.3812 235.863 79.3285 233.115 79.0232 229.452C78.7179 225.788 81.4656 222.735 85.1291 222.43L116.575 220.598C122.07 220.293 127.566 220.903 132.756 222.125C136.114 223.04 139.167 219.682 137.64 216.324L133.977 207.165C132.756 203.807 134.587 199.838 137.946 198.617C141.304 197.395 145.273 199.227 146.494 202.585L165.422 247.464C166.033 248.38 166.338 249.296 166.644 250.212L171.834 261.813L186.793 299.976C187.099 300.892 188.625 300.586 188.625 299.67L189.541 259.982L231.367 263.035L229.84 312.493C229.23 332.948 213.049 349.434 192.899 350.35C176.108 351.266 160.538 342.107 153.211 326.842L128.787 270.362C127.26 266.698 123.597 264.561 119.628 264.866C116.575 265.172 113.522 263.645 111.69 261.203L107.416 255.707L115.048 249.907L111.385 234.031Z" fill="#FFE5EF"/>
<path d="M118.406 246.854L104.363 247.77C100.699 248.075 97.6463 245.327 97.341 241.664C97.0357 238 99.7834 234.947 103.447 234.642L117.491 233.726C121.154 233.421 124.207 236.168 124.512 239.832C124.818 243.495 122.07 246.548 118.406 246.854Z" fill="#FFE5EF"/>
<path d="M122.681 259.981L108.637 260.897C104.973 261.202 101.92 258.454 101.615 254.791C101.31 251.127 104.057 248.074 107.721 247.769L121.765 246.853C125.429 246.548 128.481 249.295 128.787 252.959C129.092 256.623 126.344 259.676 122.681 259.981Z" fill="#FFE5EF"/>
<path d="M189.846 259.981L231.672 263.034L230.756 286.542C220.681 280.131 205.111 274.635 189.541 271.888L189.846 259.981Z" fill="#FFD0DD"/>
<path d="M263.728 202.585L264.949 198.006C265.254 195.869 267.086 194.342 269.223 194.037L307.996 191.594C310.133 191.594 312.27 192.816 312.881 194.953L314.713 199.837C356.539 204.417 393.785 224.872 397.754 251.738C398.059 253.875 396.838 256.012 394.701 256.623L363.255 267.003C361.423 267.614 360.508 269.14 360.202 270.667L359.897 273.72C354.707 306.997 362.645 336.001 359.286 352.487C359.592 354.624 362.034 358.287 357.455 357.982H248.157C245.255 357.982 240.255 357.982 238.083 357.982C237.778 357.982 237.472 357.982 237.472 357.982C233.808 357.066 234.725 355.54 235.03 354.013C235.03 352.792 236.251 346.381 236.251 345.465C236.251 340.58 237.167 313.103 231.061 281.352C231.061 279.215 229.534 277.383 227.397 277.078L188.014 269.14C185.877 268.835 184.35 266.698 184.35 264.561C185.572 236.473 221.597 211.439 263.728 202.585Z" fill="#5A87FA"/>
<path d="M286.321 223.956C287.333 223.956 288.153 223.136 288.153 222.124C288.153 221.112 287.333 220.292 286.321 220.292C285.309 220.292 284.489 221.112 284.489 222.124C284.489 223.136 285.309 223.956 286.321 223.956Z" fill="#E5E5E5"/>
<path d="M286.321 229.146C287.333 229.146 288.153 228.326 288.153 227.315C288.153 226.303 287.333 225.483 286.321 225.483C285.309 225.483 284.489 226.303 284.489 227.315C284.489 228.326 285.309 229.146 286.321 229.146Z" fill="#E5E5E5"/>
<path opacity="0.5" d="M264.339 209.912L272.277 226.093" stroke="white" stroke-width="0.6298" stroke-miterlimit="10" stroke-linecap="round" stroke-linejoin="round"/>
<path opacity="0.5" d="M278.078 223.651L281.436 219.682C283.573 217.24 287.542 216.935 290.29 219.072L297.922 225.788C298.838 226.399 300.059 226.399 300.67 225.483L314.103 208.997" stroke="white" stroke-width="0.6298" stroke-miterlimit="10" stroke-linecap="round" stroke-linejoin="round"/>
<path d="M305.859 152.211H271.971L268.918 193.732C267.392 205.638 276.856 207.47 288.763 207.47C300.669 207.47 310.134 205.638 308.607 193.732L305.859 152.211Z" fill="#FFDBE5"/>
<path d="M297.922 172.665C291.511 177.855 282.962 194.647 281.131 207.469C274.109 206.553 269.224 204.111 268.919 197.394C268.919 196.173 268.919 194.952 268.919 194.647C268.919 194.647 268.919 194.647 268.919 194.341L270.445 173.886L297.922 172.665Z" fill="#FFD0DD"/>
<path d="M241.747 128.702C241.747 106.721 260.066 88.7083 282.352 89.9295C302.197 90.8454 318.377 107.332 319.293 126.871C319.599 136.03 316.851 144.273 311.966 151.295C307.692 157.4 303.723 163.506 299.754 169.918C293.343 179.993 281.436 186.099 268.614 184.267C256.097 182.435 245.411 172.665 242.663 160.453C241.748 156.79 241.747 153.432 242.053 150.073C242.663 143.662 242.358 137.556 242.053 131.145C241.747 130.229 241.747 129.313 241.747 128.702Z" fill="#FFE5EF"/>
<path d="M279.299 143.052C281.491 143.052 283.268 140.591 283.268 137.556C283.268 134.521 281.491 132.061 279.299 132.061C277.107 132.061 275.33 134.521 275.33 137.556C275.33 140.591 277.107 143.052 279.299 143.052Z" fill="white"/>
<path d="M278.078 141.831C279.596 141.831 280.826 140.054 280.826 137.862C280.826 135.67 279.596 133.893 278.078 133.893C276.561 133.893 275.33 135.67 275.33 137.862C275.33 140.054 276.561 141.831 278.078 141.831Z" fill="black"/>
<path d="M257.317 143.052C259.509 143.052 261.286 140.591 261.286 137.556C261.286 134.521 259.509 132.061 257.317 132.061C255.125 132.061 253.348 134.521 253.348 137.556C253.348 140.591 255.125 143.052 257.317 143.052Z" fill="white"/>
<path d="M256.096 141.831C257.613 141.831 258.843 140.054 258.843 137.862C258.843 135.67 257.613 133.893 256.096 133.893C254.578 133.893 253.348 135.67 253.348 137.862C253.348 140.054 254.578 141.831 256.096 141.831Z" fill="black"/>
<path d="M244.19 130.535L241.747 130.84C242.053 133.588 242.053 136.335 242.053 138.778C243.884 138.778 241.748 130.84 244.19 130.535Z" fill="#666666"/>
<path d="M293.954 135.114C297.312 135.114 295.175 141.22 300.365 141.22C309.524 141.22 299.754 155.874 308.913 155.874C309.829 154.348 311.051 152.821 311.966 151.295C315.019 147.021 317.156 142.441 318.378 137.251C312.272 137.862 303.418 136.641 293.954 135.114Z" fill="#666666"/>
<path d="M241.747 128.703C241.747 106.416 260.37 88.4039 282.962 89.9304C302.807 91.1516 318.682 107.638 319.293 127.787C319.293 131.146 318.987 134.199 318.377 137.252C318.987 134.199 319.903 131.146 319.598 127.787C318.988 107.943 302.807 89.9304 282.962 88.7092C260.37 87.1827 241.442 103.669 241.442 125.956C241.442 126.566 241.747 130.23 241.747 130.84C241.747 130.23 241.747 129.314 241.747 128.703Z" fill="#333333"/>
<path d="M288.152 119.544C285.099 117.712 277.161 114.964 265.865 114.964C249.989 114.964 248.463 119.544 248.463 119.544C248.463 119.544 248.463 119.544 248.463 119.849C250.6 118.628 255.485 116.491 266.17 116.491C277.466 116.491 286.931 119.544 289.984 121.07C289.373 120.154 288.763 119.849 288.152 119.544Z" fill="#333333"/>
<path d="M291.817 124.123C292.122 127.787 291.512 135.114 294.259 135.114C303.724 136.64 312.577 137.556 318.683 136.946C319.294 133.893 319.599 130.84 319.599 127.481C318.988 107.637 303.113 90.8455 283.268 89.6243C260.676 88.0978 242.053 106.11 242.053 128.397C242.053 129.008 242.053 129.924 242.053 130.534L244.496 130.229C246.633 130.229 247.243 120.154 247.243 120.154C247.243 120.154 247.549 119.544 248.465 118.933V118.628C248.465 118.628 249.991 114.048 265.866 114.048C277.162 114.048 285.1 117.101 288.153 118.628C288.764 118.933 289.375 119.544 289.68 120.154C290.901 121.681 291.512 122.597 291.817 124.123Z" fill="#333333"/>
<path d="M246.938 120.46C246.938 120.46 249.991 115.88 265.866 115.88C277.162 115.88 286.627 118.933 289.68 120.46C290.901 121.07 291.511 122.291 291.816 123.818C292.122 127.481 291.511 134.809 294.259 134.809C303.723 136.335 312.577 137.251 318.683 136.64C319.294 133.587 320.209 130.534 319.904 127.176C319.293 107.332 303.112 89.3192 283.268 88.098C260.676 86.5715 241.747 103.058 241.747 125.344C241.747 125.955 242.053 129.619 242.053 130.229L244.495 129.924C246.327 130.534 246.938 120.46 246.938 120.46Z" fill="#333333"/>
<path d="M298.839 139.083C298.839 135.114 301.892 131.756 305.555 132.061C308.914 132.366 311.661 135.114 311.661 138.778C311.661 140.304 311.356 142.136 310.44 143.357C309.829 144.578 309.219 145.494 308.303 146.715C307.387 148.547 305.25 149.768 303.113 149.463C300.976 149.158 299.144 147.326 298.839 145.189C298.839 144.578 298.534 143.968 298.839 143.357C298.839 142.136 298.839 140.915 298.839 139.999C299.144 139.388 298.839 139.388 298.839 139.083Z" fill="#FFE5EF"/>
<path d="M358.983 283.489L359.899 292.037C360.204 293.259 358.677 293.869 358.067 292.953L334.559 259.371L326.621 249.296C326.01 248.38 325.4 247.769 324.789 247.159L296.091 208.08C293.954 205.027 289.985 204.111 286.932 206.249C283.879 208.386 282.963 212.355 285.1 215.408L290.901 223.345C293.038 226.093 290.901 230.062 287.543 230.062C282.047 230.062 276.857 230.672 271.362 232.199L250.602 238.305C246.938 239.221 245.106 243.19 246.022 246.548C246.938 250.212 250.907 252.043 254.265 251.127L273.804 245.327C274.415 245.021 275.025 245.632 275.331 246.243C275.636 246.853 275.026 247.464 274.415 247.769L252.128 254.486C248.464 255.402 246.633 259.371 247.549 262.729C248.464 266.392 252.433 268.224 255.792 267.308L278.078 260.592C278.689 260.286 279.3 260.897 279.605 261.508C279.91 262.118 279.299 262.729 278.689 263.034L262.814 267.919C259.15 268.835 257.318 272.804 258.234 276.162C259.15 279.826 263.119 281.657 266.477 280.741L283.268 275.551L289.985 273.414L330.895 327.757C341.275 340.885 358.677 346.381 374.858 341.496C394.397 335.695 405.998 315.851 402.03 296.006L394.092 258.149L362.646 268.529C362.646 268.529 359.898 269.14 359.593 272.498C359.898 274.941 358.983 283.489 358.983 283.489Z" fill="#FFE5EF"/>
<path d="M361.12 295.09L364.783 299.364" stroke="#FFBED7" stroke-width="0.6298" stroke-miterlimit="10" stroke-linecap="round" stroke-linejoin="round"/>
<path d="M264.95 154.347C262.813 154.347 261.286 157.4 261.286 161.369C261.286 165.033 262.813 168.391 264.95 168.391C267.087 168.391 268.613 165.338 268.613 161.369C268.919 157.4 267.087 154.347 264.95 154.347Z" fill="#FF97BF"/>
<path d="M103.446 234.336L117.49 233.42C121.154 233.115 124.206 235.863 124.512 239.526C124.817 243.19 122.069 246.243 118.406 246.548" stroke="#FFBED7" stroke-width="0.6298" stroke-miterlimit="10" stroke-linecap="round" stroke-linejoin="round"/>
<path d="M109.858 247.464L121.765 246.853C125.428 246.548 128.481 249.295 128.786 252.959C129.091 256.623 126.344 259.676 122.68 259.981" stroke="#FFBED7" stroke-width="0.6298" stroke-miterlimit="10" stroke-linecap="round" stroke-linejoin="round"/>
<path d="M139.167 229.757C139.167 229.757 135.809 251.738 144.968 256.012" stroke="#FFBED7" stroke-width="0.6298" stroke-miterlimit="10" stroke-linecap="round" stroke-linejoin="round"/>
<path d="M306.776 139.082L305.86 139.998C304.944 140.914 304.944 142.746 305.86 143.662" stroke="#FFBED7" stroke-width="0.6298" stroke-miterlimit="10" stroke-linecap="round" stroke-linejoin="round"/>
<path d="M188.93 303.944L189.54 309.439" stroke="#FFBED7" stroke-width="0.6298" stroke-miterlimit="10" stroke-linecap="round" stroke-linejoin="round"/>
<path d="M267.087 147.021C264.644 147.021 262.507 145.189 262.507 142.747C262.507 140.305 265.865 138.778 266.781 138.168V132.672" stroke="#FFBED7" stroke-width="0.6298" stroke-miterlimit="10" stroke-linecap="round" stroke-linejoin="round"/>
<path d="M395.007 256.928L363.561 267.308C363.561 267.308 360.813 267.919 360.508 271.277C360.508 271.888 360.203 273.109 360.203 274.025L396.228 261.507L395.007 256.928Z" fill="#FFD0DD"/>
</g>
</g>
<defs>
<filter id="filter0_d" x="63" y="28" width="355.805" height="350" filterUnits="userSpaceOnUse" color-interpolation-filters="sRGB">
<feFlood flood-opacity="0" result="BackgroundImageFix"/>
<feColorMatrix in="SourceAlpha" type="matrix" values="0 0 0 0 0 0 0 0 0 0 0 0 0 0 0 0 0 0 127 0"/>
<feOffset dy="4"/>
<feGaussianBlur stdDeviation="8"/>
<feColorMatrix type="matrix" values="0 0 0 0 0 0 0 0 0 0 0 0 0 0 0 0 0 0 0.08 0"/>
<feBlend mode="normal" in2="BackgroundImageFix" result="effect1_dropShadow"/>
<feBlend mode="normal" in="SourceGraphic" in2="effect1_dropShadow" result="shape"/>
</filter>
</defs>
</svg>
