<svg width="382" height="348" viewBox="0 0 382 348" fill="none" xmlns="http://www.w3.org/2000/svg">
<mask id="mask0" mask-type="alpha" maskUnits="userSpaceOnUse" x="0" y="0" width="382" height="348">
<path d="M382 324C382 337.255 371.255 348 358 348L24 348C10.7452 348 2.95782e-05 337.255 2.84194e-05 324L2.19259e-06 24C1.03382e-06 10.7452 10.7452 1.93855e-06 24 7.79773e-07L358 -2.84194e-05C371.255 -2.95782e-05 382 10.7451 382 24L382 324Z" fill="#3C6EE6"/>
</mask>
<g mask="url(#mask0)">
<path d="M106.647 226.08L81.9084 227.529C78.3218 227.736 75.2409 225 75.011 221.413C74.8041 217.827 77.5402 214.746 81.1269 214.516L111.774 212.699C117.223 212.378 122.557 212.929 127.661 214.263C130.972 215.137 133.8 211.78 132.49 208.63L128.765 199.778C127.523 196.399 129.271 192.651 132.651 191.409C136.03 190.168 139.778 191.915 141.02 195.295L159.482 239.14C159.941 239.99 160.378 240.841 160.792 241.715L165.896 253.21L180.496 290.548C180.932 291.537 182.404 291.238 182.427 290.158L183.439 251.417L224.271 254.544L222.685 302.941C222.041 322.828 206.315 338.968 186.451 340.141C170.012 341.107 154.653 331.956 147.687 317.035L123.638 261.694C122.12 258.177 118.557 255.992 114.717 256.222C111.728 256.406 108.855 255.096 106.992 252.751L102.854 247.463L110.418 241.83L106.647 226.08Z" fill="#FFE4EE"/>
<path d="M113.27 238.588L99.6125 239.393C96.0259 239.6 92.945 236.864 92.7151 233.277C92.5082 229.69 95.2443 226.609 98.831 226.379L112.488 225.575C116.074 225.368 119.155 228.104 119.385 231.69C119.592 235.3 116.856 238.381 113.27 238.588Z" fill="#FFE4EE"/>
<path d="M117.568 251.394L103.911 252.199C100.325 252.406 97.2438 249.67 97.0139 246.083C96.807 242.497 99.5429 239.416 103.13 239.186L116.787 238.381C120.373 238.174 123.454 240.91 123.684 244.497C123.914 248.107 121.155 251.187 117.568 251.394Z" fill="#FFE4EE"/>
<path d="M98.8301 226.403L112.487 225.598C116.074 225.391 119.154 228.127 119.384 231.714C119.591 235.301 116.855 238.381 113.269 238.611" stroke="#FFBED2" stroke-width="1.883" stroke-miterlimit="10" stroke-linecap="round" stroke-linejoin="round"/>
<path d="M105.038 239.094L116.787 238.404C120.373 238.197 123.454 240.933 123.684 244.52C123.891 248.107 121.155 251.188 117.568 251.417" stroke="#FFBED2" stroke-width="1.883" stroke-miterlimit="10" stroke-linecap="round" stroke-linejoin="round"/>
<path d="M133.57 221.919C133.57 221.919 130.213 243.347 139.226 247.624" stroke="#FFBED2" stroke-width="1.883" stroke-miterlimit="10" stroke-linecap="round" stroke-linejoin="round"/>
<path d="M183.462 251.463L224.294 254.59L223.536 277.489C213.695 271.121 198.567 265.81 183.14 263.189L183.462 251.463Z" fill="#FFCDDC"/>
<path d="M182.496 294.365L183.163 299.837" stroke="#FFBED2" stroke-width="1.883" stroke-miterlimit="10" stroke-linecap="round" stroke-linejoin="round"/>
<path d="M223.605 272.455C223.559 270.363 222.065 268.569 219.996 268.156L181.577 260.384C179.416 259.948 177.898 258.016 177.967 255.809C178.933 228.518 214.11 203.986 255.356 195.135L256.552 190.651C256.828 188.582 258.644 186.973 260.851 186.858L298.948 184.605C301.155 184.467 303.133 185.846 303.661 187.869L305.524 192.606C346.472 197.135 382.775 217.069 386.844 243.486C387.166 245.647 385.879 247.739 383.81 248.429L353.116 258.66C351.438 259.212 350.288 260.683 350.081 262.385L349.736 265.466C344.655 297.929 352.38 326.416 349.23 342.533C349.483 344.763 351.943 348.12 347.414 347.867H225.238C222.732 347.867 220.708 345.775 220.8 343.269L223.605 272.455Z" fill="#FFD25F"/>
<path d="M277.566 216.034C278.493 216.034 279.244 215.282 279.244 214.355C279.244 213.428 278.493 212.677 277.566 212.677C276.639 212.677 275.888 213.428 275.888 214.355C275.888 215.282 276.639 216.034 277.566 216.034Z" fill="white"/>
<path d="M277.566 221.206C278.493 221.206 279.244 220.455 279.244 219.528C279.244 218.601 278.493 217.849 277.566 217.849C276.639 217.849 275.888 218.601 275.888 219.528C275.888 220.455 276.639 221.206 277.566 221.206Z" fill="white"/>
<path d="M256.023 202.583L263.726 218.379" stroke="#FFB428" stroke-width="1.883" stroke-miterlimit="10" stroke-linecap="round" stroke-linejoin="round"/>
<path d="M269.335 216.033L272.715 212.194C274.922 209.688 278.739 209.435 281.268 211.642L288.694 218.172C289.521 218.907 290.786 218.815 291.476 217.965L304.627 201.779" stroke="#FFB428" stroke-width="1.883" stroke-miterlimit="10" stroke-linecap="round" stroke-linejoin="round"/>
<path d="M289.131 169.476C282.74 174.534 274.118 189.088 272.232 201.733C265.243 200.882 260.3 198.33 259.909 191.502C259.932 190.214 259.955 189.179 260.001 188.605C260.001 188.536 260.024 188.444 260.024 188.375L261.519 170.464L289.131 169.476Z" fill="#FFCDDC"/>
<path d="M296.603 147.473H263.242L260.231 188.536C258.851 200.307 268.071 202.101 279.934 202.101C291.798 202.101 300.994 200.307 299.638 188.536L296.603 147.473Z" fill="#FFDAE4"/>
<path d="M288.993 167.384C282.693 172.396 274.164 189.225 272.301 201.733C265.381 200.882 260.507 198.376 260.139 191.64C260.162 190.375 260.185 189.34 260.231 188.789C260.231 188.72 260.231 188.651 260.254 188.559L261.725 168.372L288.993 167.384Z" fill="#FFCDDC"/>
<path d="M233.422 124.067C233.422 102.271 251.631 84.706 273.657 85.7866C293.199 86.7292 309.201 102.823 310.052 122.389C310.443 131.379 307.73 139.679 302.902 146.392C298.625 152.324 294.786 158.554 290.854 164.739C284.577 174.625 272.898 180.718 259.954 178.879C247.446 177.086 237.123 167.567 234.249 155.29C233.422 151.749 233.238 148.3 233.56 145.013C234.18 138.805 233.835 132.551 233.468 126.297C233.445 125.539 233.422 124.803 233.422 124.067Z" fill="#FFE4EE"/>
<path d="M270.531 138.483C272.715 138.483 274.485 135.992 274.485 132.919C274.485 129.846 272.715 127.355 270.531 127.355C268.347 127.355 266.576 129.846 266.576 132.919C266.576 135.992 268.347 138.483 270.531 138.483Z" fill="white"/>
<path d="M269.266 137.034C270.752 137.034 271.956 135.233 271.956 133.011C271.956 130.788 270.752 128.987 269.266 128.987C267.781 128.987 266.576 130.788 266.576 133.011C266.576 135.233 267.781 137.034 269.266 137.034Z" fill="#2D2D37"/>
<path d="M248.711 138.483C250.895 138.483 252.666 135.992 252.666 132.919C252.666 129.846 250.895 127.355 248.711 127.355C246.527 127.355 244.757 129.846 244.757 132.919C244.757 135.992 246.527 138.483 248.711 138.483Z" fill="white"/>
<path d="M247.447 137.034C248.933 137.034 250.137 135.233 250.137 133.011C250.137 130.788 248.933 128.987 247.447 128.987C245.961 128.987 244.757 130.788 244.757 133.011C244.757 135.233 245.961 137.034 247.447 137.034Z" fill="#2D2D37"/>
<path d="M241.378 101.812C236.595 101.812 232.756 105.743 232.871 110.526C233.055 118.687 233.422 129.539 233.767 132.781C233.79 133.057 233.813 133.31 233.813 133.494C235.859 132.091 237.124 129.838 237.262 127.378L237.952 115.285C238.113 112.503 239.331 109.882 241.354 107.996V101.812H241.378Z" fill="#5A5A6B"/>
<path d="M256.46 163.153C258.466 163.153 260.092 160.106 260.092 156.347C260.092 152.589 258.466 149.542 256.46 149.542C254.453 149.542 252.827 152.589 252.827 156.347C252.827 160.106 254.453 163.153 256.46 163.153Z" fill="#FF7BA4"/>
<path d="M258.368 142.185C255.885 142.254 253.839 140.299 253.77 137.816C253.701 135.333 257.172 133.793 258.138 133.218V127.815" stroke="#FFBED2" stroke-width="1.883" stroke-miterlimit="10" stroke-linecap="round" stroke-linejoin="round"/>
<path d="M301.155 88.5461C300.903 88.5461 250.965 94.0181 250.965 94.0181C250.965 94.0181 250.022 107.974 253.77 107.974C257.518 107.997 266.898 107.031 270.508 107.031L275.428 105.974C280.118 107.79 283.406 114.136 283.843 119.148L284.349 125.126C284.67 129.034 286.717 132.575 289.935 134.805L293.361 143.795L297.132 154.853C299.408 151.313 303.455 148.025 306.742 142.208C313.042 130.965 313.617 115.538 313.226 106.548" fill="#5A5A6B"/>
<path d="M314.283 93.0063C310.49 83.212 292.349 73.2107 285.107 77.5561C279.129 73.0267 268.875 72.245 262.966 73.6015C247.424 77.1882 238.963 85.741 236.273 82.4762C235.722 81.8095 234.71 81.8555 234.112 82.4762C229.1 87.6953 226.663 97.3517 230.089 104.801C231.238 107.284 233.399 109.146 235.997 109.928C244.481 112.457 269.266 116.917 275.451 105.95C279.865 117.239 297.316 115.791 311.685 111.721C312.72 111.422 313.547 110.618 313.846 109.583C315.364 103.835 315.64 96.547 314.283 93.0063Z" fill="#2D2D37"/>
<path d="M289.935 134.414C289.935 130.391 292.947 127.172 296.603 127.356C299.844 127.54 302.488 130.505 302.626 134.092C302.695 135.748 302.235 137.288 301.431 138.506C300.718 139.61 300.097 140.737 299.431 141.886C298.396 143.703 296.442 144.829 294.303 144.484C292.234 144.162 290.51 142.392 290.05 140.139C289.912 139.495 289.889 138.851 289.935 138.254C290.027 137.104 289.981 135.954 289.912 134.805C289.935 134.667 289.935 134.552 289.935 134.414Z" fill="#FFE4EE"/>
<path d="M297.637 134.253L296.648 135.242C295.637 136.253 295.637 137.886 296.648 138.874" stroke="#FFBED2" stroke-width="1.883" stroke-miterlimit="10" stroke-linecap="round" stroke-linejoin="round"/>
<path d="M348.587 274.387L349.598 282.618C349.828 283.675 348.472 284.296 347.805 283.445L324.905 250.521L317.249 240.52C316.652 239.761 316.008 239.026 315.364 238.313L287.2 199.963C285.222 196.974 281.176 196.147 278.164 198.124C275.175 200.101 274.347 204.148 276.325 207.16L282.003 214.908C284.027 217.667 282.05 221.598 278.624 221.506C273.359 221.391 268.025 222.104 262.805 223.667L242.573 229.783C239.124 230.818 237.17 234.473 238.228 237.899C239.262 241.348 242.918 243.302 246.344 242.245L265.496 236.451C266.093 236.267 266.737 236.612 266.898 237.209C267.082 237.807 266.737 238.451 266.139 238.612L244.252 245.233C240.803 246.268 238.849 249.924 239.906 253.349C240.941 256.798 244.596 258.752 248.022 257.695L269.91 251.073C270.508 250.889 271.151 251.234 271.312 251.832C271.496 252.43 271.151 253.074 270.554 253.234L255.058 257.925C251.609 258.959 249.654 262.615 250.712 266.041C251.747 269.489 255.379 271.444 258.828 270.386L275.405 265.374L281.888 263.42L321.963 316.76C332.217 329.635 349.276 334.969 365.026 330.21C384.085 324.439 395.604 305.103 391.627 285.606L383.718 248.406L353.024 258.637C353.024 258.637 350.357 259.166 349.966 262.592C349.644 266.087 348.587 274.387 348.587 274.387Z" fill="#FFE4EE"/>
<path d="M350.771 285.859L354.174 290.159" stroke="#FFBED2" stroke-width="1.883" stroke-miterlimit="10" stroke-linecap="round" stroke-linejoin="round"/>
<path d="M383.81 248.474L353.093 258.705C353.093 258.705 350.426 259.234 350.035 262.66C349.943 263.396 349.828 264.384 349.69 265.442L384.821 253.141L383.81 248.474Z" fill="#FFCDDC"/>
</g>
</svg>
