<svg width="398" height="348" viewBox="0 0 398 348" fill="none" xmlns="http://www.w3.org/2000/svg">
<mask id="mask0" mask-type="alpha" maskUnits="userSpaceOnUse" x="0" y="0" width="382" height="348">
<path d="M382 324C382 337.255 371.255 348 358 348L24 348C10.7452 348 2.95782e-05 337.255 2.84194e-05 324L2.19259e-06 24C1.03382e-06 10.7452 10.7452 1.93855e-06 24 7.79773e-07L358 -2.84194e-05C371.255 -2.95782e-05 382 10.7451 382 24L382 324Z" fill="#FFB428"/>
</mask>
<g mask="url(#mask0)">
<path d="M179.319 246.983L176.542 279.613C176.457 280.524 175.206 280.694 174.888 279.846L164.435 247.619L160.704 237.655C160.407 236.891 160.068 236.149 159.707 235.407L146.308 197.499C145.439 194.594 142.364 192.94 139.46 193.81C136.555 194.679 134.902 197.753 135.771 200.658L138.485 208.312C139.439 211.025 136.873 213.718 134.138 212.828C129.919 211.45 125.425 210.707 120.824 210.707H102.951C99.9188 210.707 97.4382 213.167 97.4382 216.22C97.4382 219.252 99.8976 221.732 102.951 221.732H119.848C120.378 221.732 120.802 222.156 120.802 222.686C120.802 223.216 120.378 223.64 119.848 223.64H100.512C97.4806 223.64 95 226.1 95 229.153C95 232.185 97.4594 234.665 100.512 234.665H119.848C120.378 234.665 120.802 235.089 120.802 235.619C120.802 236.149 120.378 236.573 119.848 236.573H106.173C103.141 236.573 100.661 239.033 100.661 242.086C100.661 245.118 103.12 247.598 106.173 247.598H120.802H126.527L145.905 300.539C151.036 313.472 163.545 321.952 177.453 321.952C194.287 321.952 208.323 309.125 209.871 292.376L213.623 251.627L179.319 246.983Z" fill="#FFE4EE"/>
<path d="M139.015 219.21C138.675 225.231 143.149 229.323 148.025 228.645" stroke="#FFBED2" stroke-width="1.73641" stroke-miterlimit="10" stroke-linecap="round" stroke-linejoin="round"/>
<path d="M134.054 240.729C135.771 236.086 133.905 225.676 131.319 220.842" stroke="#FFBED2" stroke-width="1.73641" stroke-miterlimit="10" stroke-linecap="round" stroke-linejoin="round"/>
<path d="M179.319 246.983L213.602 251.648L212.33 265.492C200.966 260.574 189.751 255.952 178.768 253.323L179.319 246.983Z" fill="#FFCDDC"/>
<path d="M175.97 283.491L176.987 288.452" stroke="#FFBED2" stroke-width="1.73641" stroke-miterlimit="10" stroke-linecap="round" stroke-linejoin="round"/>
<path d="M357.794 246.982L360.572 279.612C360.657 280.523 361.908 280.693 362.226 279.845L372.678 247.618L376.41 237.654C376.706 236.89 377.046 236.148 377.406 235.406L390.805 197.498C391.675 194.593 394.749 192.939 397.653 193.809C400.558 194.678 402.212 197.752 401.343 200.657L398.629 208.311C397.675 211.024 400.24 213.717 402.975 212.827C407.194 211.449 411.689 210.706 416.29 210.706H434.163C437.195 210.706 439.675 213.166 439.675 216.219C439.675 219.251 437.216 221.731 434.163 221.731H417.265C416.735 221.731 416.311 222.155 416.311 222.685C416.311 223.215 416.735 223.639 417.265 223.639H436.601C439.633 223.639 442.113 226.099 442.113 229.152C442.113 232.184 439.654 234.664 436.601 234.664H417.265C416.735 234.664 416.311 235.088 416.311 235.618C416.311 236.148 416.735 236.572 417.265 236.572H430.94C433.972 236.572 436.452 239.032 436.452 242.085C436.452 245.117 433.993 247.597 430.94 247.597H416.311H410.586L391.208 300.538C386.078 313.471 373.569 321.951 359.66 321.951C342.826 321.951 328.791 309.124 327.243 292.375L323.49 251.626L357.794 246.982Z" fill="#FFE4EE"/>
<path d="M357.795 246.982L323.512 251.647L324.784 265.492C336.148 260.573 347.364 255.951 358.346 253.322L357.795 246.982Z" fill="#FFCDDC"/>
<path d="M361.145 283.49L360.127 288.451" stroke="#FFBED2" stroke-width="1.73641" stroke-miterlimit="10" stroke-linecap="round" stroke-linejoin="round"/>
<path d="M205.524 254.723C208.026 255.38 209.722 257.733 209.531 260.32L203.446 341.967C203.213 345.084 205.672 347.734 208.81 347.734H328.218C331.398 347.734 333.879 344.999 333.561 341.819L325.44 260.49C325.165 257.818 326.903 255.38 329.511 254.744L358.239 247.684C360.847 247.048 362.628 244.588 362.331 241.917C359.321 216.199 331.547 194.934 294.465 188.001C292.26 187.598 290.521 185.923 290.097 183.719C289.737 181.853 288.444 180.263 286.641 179.669C274.599 175.619 262.556 175.619 250.514 179.669C248.712 180.284 247.418 181.853 247.058 183.719C246.634 185.923 244.895 187.598 242.69 188.001C205.566 194.934 177.792 216.221 174.824 241.981C174.527 244.61 176.266 247.048 178.831 247.726L205.524 254.723Z" fill="#FFD25F"/>
<path d="M290.055 193.918L282.125 204.625C280.853 206.342 278.373 206.554 276.825 205.07L271.121 199.621C269.701 198.264 267.454 198.264 266.033 199.621L260.33 205.07C258.782 206.554 256.302 206.321 255.03 204.625L247.1 193.918" stroke="#FFB428" stroke-width="1.73641" stroke-miterlimit="10" stroke-linecap="round" stroke-linejoin="round"/>
<path d="M268.514 208.143C269.427 208.143 270.167 207.403 270.167 206.49C270.167 205.576 269.427 204.836 268.514 204.836C267.6 204.836 266.86 205.576 266.86 206.49C266.86 207.403 267.6 208.143 268.514 208.143Z" fill="white"/>
<path d="M268.514 213.211C269.427 213.211 270.167 212.47 270.167 211.557C270.167 210.644 269.427 209.903 268.514 209.903C267.6 209.903 266.86 210.644 266.86 211.557C266.86 212.47 267.6 213.211 268.514 213.211Z" fill="white"/>
<path d="M284.33 140.149H253.142L250.343 178.524C249.071 189.528 257.658 191.182 268.746 191.182C279.814 191.182 288.422 189.507 287.15 178.524L284.33 140.149Z" fill="#FFDAE4"/>
<path d="M250.217 180.792C250.323 187.535 254.945 190.015 261.623 190.821C263.468 179.139 271.312 160.545 277.143 155.923L251.913 156.835L250.323 178.524C250.323 178.545 250.323 178.566 250.323 178.587L250.301 178.884V178.905C250.28 179.16 250.259 179.393 250.259 179.648C250.259 179.966 250.238 180.347 250.217 180.792Z" fill="#FFCDDC"/>
<path d="M225.305 118.29C225.305 97.915 242.308 81.5262 262.895 82.5226C281.15 83.4131 296.118 98.445 296.903 116.721C297.263 125.117 294.719 132.877 290.224 139.152C286.238 144.707 282.655 150.516 278.987 156.283C273.114 165.506 262.217 171.209 250.132 169.492C238.45 167.817 228.803 158.933 226.11 147.442C225.326 144.135 225.156 140.912 225.453 137.838C226.026 132.028 225.707 126.177 225.368 120.368C225.305 119.668 225.305 118.968 225.305 118.29Z" fill="#FFE4EE"/>
<path d="M281.934 131.266C281.934 127.513 284.753 124.502 288.167 124.672C291.199 124.841 293.679 127.598 293.807 130.969C293.87 132.517 293.446 133.937 292.704 135.103C292.047 136.121 291.453 137.202 290.838 138.262C289.863 139.958 288.061 141.018 286.047 140.7C284.117 140.403 282.506 138.75 282.061 136.651C281.934 136.036 281.913 135.442 281.955 134.891C282.061 133.831 281.997 132.75 281.934 131.668C281.955 131.52 281.934 131.393 281.934 131.266Z" fill="#FFE4EE"/>
<path d="M237.899 135.739C240.053 135.739 241.8 133.309 241.8 130.311C241.8 127.314 240.053 124.884 237.899 124.884C235.744 124.884 233.998 127.314 233.998 130.311C233.998 133.309 235.744 135.739 237.899 135.739Z" fill="white"/>
<path d="M257.213 135.739C259.367 135.739 261.114 133.309 261.114 130.311C261.114 127.314 259.367 124.884 257.213 124.884C255.058 124.884 253.312 127.314 253.312 130.311C253.312 133.309 255.058 135.739 257.213 135.739Z" fill="white"/>
<path d="M236.414 133.662C237.737 133.662 238.81 132.162 238.81 130.312C238.81 128.462 237.737 126.962 236.414 126.962C235.091 126.962 234.018 128.462 234.018 130.312C234.018 132.162 235.091 133.662 236.414 133.662Z" fill="#2D2D37"/>
<path d="M255.644 133.555C256.932 133.555 257.976 132.103 257.976 130.311C257.976 128.52 256.932 127.067 255.644 127.067C254.356 127.067 253.312 128.52 253.312 130.311C253.312 132.103 254.356 133.555 255.644 133.555Z" fill="#2D2D37"/>
<path d="M289.143 131.117L288.21 132.05C287.277 132.983 287.277 134.51 288.21 135.442" stroke="#FFBED2" stroke-width="1.73641" stroke-miterlimit="10" stroke-linecap="round" stroke-linejoin="round"/>
<path d="M247.375 137.351C245.085 137.414 243.198 135.612 243.135 133.322C243.071 131.033 246.273 129.612 247.163 129.082V124.1" stroke="#FFBED2" stroke-width="1.73641" stroke-miterlimit="10" stroke-linecap="round" stroke-linejoin="round"/>
<path d="M226.216 104.593C236.648 94.8193 246.04 86.3598 246.316 94.904C246.549 101.922 235.1 119.71 225.75 124.544" fill="#2D2D37"/>
<path d="M281.955 130.057C265.885 126.135 246.103 109.682 243.835 99.3997C241.693 89.6894 255.135 82.3535 269.086 82.3535" fill="#2D2D37"/>
<path d="M243.474 103.215C243.474 103.215 241.906 106.735 249.199 117.039C249.856 117.972 250.874 118.629 251.997 118.904C255.75 119.774 258.549 120.24 257.446 119.074C257.446 119.074 246.167 109.449 245.361 97.6816" fill="#2D2D37"/>
<path d="M244.025 105.23C244.025 105.23 246.146 107.837 239.976 117.336C239.34 118.311 238.365 119.032 237.241 119.371C235.312 119.986 233.87 120.24 234.315 119.626C234.315 119.626 242.351 110.403 242.584 99.6113L246.082 100.162" fill="#2D2D37"/>
<path d="M311.065 158.743L305.023 116.445C300.804 91.2578 285.072 84.4096 279.284 82.5651C276.379 81.6322 267.793 79.1093 258.273 79.0032C257.171 78.982 256.047 79.0668 254.945 79.194C253.736 79.3425 252.57 79.5969 251.425 80.0846C250.514 80.4662 249.602 80.9962 248.987 81.7807C248.839 81.9503 248.711 82.141 248.627 82.3531C247.736 81.8018 246.57 81.8443 245.574 82.0139C244.429 82.2259 243.347 82.7136 242.33 83.2648C240.379 84.3249 238.556 85.6606 236.881 87.1023C235.248 88.5016 233.743 90.0705 232.386 91.7454C231.008 93.4204 229.8 95.2225 228.718 97.1094C228.379 97.6819 228.082 98.2756 227.764 98.8692C227.616 99.166 227.467 99.4628 227.319 99.7384C227.255 99.8868 227.171 100.035 227.107 100.184C227.065 100.29 226.895 100.502 226.895 100.629C223.651 107.774 221.934 114.368 221.595 118.205C221.107 123.823 220.534 132.961 220.428 137.308C220.216 145.682 219.072 155.69 218.096 166.333C217.884 168.601 219.411 170.658 221.637 171.103C229.291 172.587 239.234 173.16 250.704 173.117L250.959 169.598C250.662 169.555 250.365 169.555 250.068 169.513C238.386 167.838 228.74 159.018 226.047 147.548C225.262 144.241 225.093 141.018 225.39 137.944C225.686 134.87 225.75 131.795 225.686 128.721C225.644 124.205 226.492 119.71 228.231 115.534C231.22 108.367 235.842 100.544 241.312 99.0812C242.287 98.8268 243.305 99.3992 243.644 100.332C244.598 103.025 247.778 108.601 258.04 110.594C268.556 112.629 271.545 128 281.892 130.099C283.312 136.12 282.274 151.958 278.945 166.99C278.309 169.81 280.493 172.481 283.397 172.375C288.295 172.227 297.645 170.721 304.535 168.771C308.945 167.478 311.701 163.216 311.065 158.743Z" fill="#2D2D37"/>
<path d="M260.669 144.431C256.619 146.572 243.856 146.827 239.722 144.834C239.128 144.558 238.661 145.639 238.958 146.551C240.485 151.088 245.043 154.332 250.365 154.247C255.686 154.141 260.117 150.728 261.474 146.127C261.771 145.194 261.241 144.113 260.669 144.431Z" fill="#FF7BA4"/>
</g>
</svg>
