<svg width="382" height="348" viewBox="0 0 382 348" fill="none" xmlns="http://www.w3.org/2000/svg">
<mask id="mask0" mask-type="alpha" maskUnits="userSpaceOnUse" x="0" y="0" width="382" height="348">
<path d="M382 324C382 337.255 371.255 348 358 348L24 348C10.7452 348 2.95782e-05 337.255 2.84194e-05 324L2.19259e-06 24C1.03382e-06 10.7452 10.7452 1.93855e-06 24 7.79773e-07L358 -2.84194e-05C371.255 -2.95782e-05 382 10.7451 382 24L382 324Z" fill="#F04682"/>
</mask>
<g mask="url(#mask0)">
<path d="M106.67 226.304L81.9101 227.76C78.3216 227.979 75.2315 225.228 75.0123 221.639C74.793 218.051 77.5441 214.961 81.1326 214.742L111.794 212.927C117.236 212.608 122.599 213.167 127.683 214.502C130.992 215.36 133.843 212.01 132.507 208.86L128.779 200.009C127.543 196.62 129.278 192.892 132.667 191.656C136.056 190.42 139.784 192.154 141.02 195.543L159.501 239.402C159.959 240.24 160.398 241.097 160.816 241.974L165.94 253.477L180.553 290.837C180.991 291.814 182.467 291.535 182.487 290.458L183.483 251.703L224.332 254.833L222.737 303.257C222.079 323.173 206.37 339.301 186.474 340.477C170.027 341.454 154.676 332.284 147.699 317.372L123.656 261.99C122.121 258.481 118.572 256.288 114.745 256.507C111.754 256.687 108.883 255.391 107.029 253.038L102.883 247.755L110.458 242.114L106.67 226.304Z" fill="#FFE4EE"/>
<path d="M113.269 238.824L99.5932 239.621C96.0047 239.841 92.9147 237.089 92.6954 233.501C92.4761 229.913 95.2272 226.822 98.8156 226.603L112.492 225.806C116.08 225.586 119.17 228.338 119.389 231.926C119.609 235.514 116.878 238.605 113.269 238.824Z" fill="#FFE4EE"/>
<path d="M117.596 251.623L103.92 252.42C100.332 252.639 97.2416 249.888 97.0223 246.3C96.803 242.711 99.5542 239.621 103.143 239.402L116.819 238.605C120.407 238.385 123.497 241.136 123.716 244.725C123.936 248.333 121.185 251.423 117.596 251.623Z" fill="#FFE4EE"/>
<path d="M98.8369 226.603L112.513 225.806C116.101 225.586 119.191 228.338 119.411 231.926C119.63 235.514 116.879 238.605 113.29 238.824" stroke="#FFBED2" stroke-width="1.88394" stroke-miterlimit="10" stroke-linecap="round" stroke-linejoin="round"/>
<path d="M105.056 239.302L116.819 238.605C120.407 238.385 123.497 241.136 123.716 244.725C123.936 248.313 121.185 251.403 117.596 251.623" stroke="#FFBED2" stroke-width="1.88394" stroke-miterlimit="10" stroke-linecap="round" stroke-linejoin="round"/>
<path d="M133.604 222.137C133.604 222.137 130.235 243.588 139.266 247.854" stroke="#FFBED2" stroke-width="1.88394" stroke-miterlimit="10" stroke-linecap="round" stroke-linejoin="round"/>
<path d="M183.503 251.704L224.352 254.834L223.594 277.74C213.746 271.36 198.615 266.057 183.184 263.446L183.503 251.704Z" fill="#FFCDDC"/>
<path d="M182.547 294.625L183.205 300.087" stroke="#FFBED2" stroke-width="1.88394" stroke-miterlimit="10" stroke-linecap="round" stroke-linejoin="round"/>
<path d="M223.415 272.017C223.355 269.924 221.86 268.15 219.807 267.731L181.35 259.956C179.197 259.517 177.662 257.584 177.742 255.391C178.719 228.098 213.906 203.537 255.173 194.706L256.369 190.22C256.648 188.147 258.462 186.552 260.675 186.412L298.773 184.16C300.986 184.02 302.959 185.396 303.498 187.429L305.371 192.174C346.34 196.699 382.663 216.655 386.73 243.09C387.069 245.243 385.773 247.336 383.7 248.034L352.998 258.261C351.324 258.82 350.167 260.295 349.968 261.989L349.629 265.079C344.526 297.555 352.261 326.063 349.131 342.191C349.37 344.424 351.842 347.793 347.317 347.514H223.814C222 347.514 220.544 345.999 220.604 344.185L223.415 272.017Z" fill="#FF6991"/>
<path d="M277.421 215.559C278.346 215.559 279.096 214.809 279.096 213.884C279.096 212.959 278.346 212.209 277.421 212.209C276.496 212.209 275.746 212.959 275.746 213.884C275.746 214.809 276.496 215.559 277.421 215.559Z" fill="white"/>
<path d="M277.421 220.742C278.346 220.742 279.096 219.992 279.096 219.067C279.096 218.142 278.346 217.393 277.421 217.393C276.496 217.393 275.746 218.142 275.746 219.067C275.746 219.992 276.496 220.742 277.421 220.742Z" fill="white"/>
<path d="M255.85 202.103L263.565 217.912" stroke="#F04682" stroke-width="1.88394" stroke-miterlimit="10" stroke-linecap="round" stroke-linejoin="round"/>
<path d="M269.188 215.558L272.557 211.71C274.77 209.199 278.597 208.939 281.109 211.152L288.545 217.671C289.363 218.409 290.639 218.309 291.316 217.452L304.474 201.244" stroke="#F04682" stroke-width="1.88394" stroke-miterlimit="10" stroke-linecap="round" stroke-linejoin="round"/>
<path d="M297.058 147.039H263.207L260.157 188.685C258.761 200.626 268.111 202.44 280.132 202.44C292.154 202.44 301.484 200.626 300.108 188.685L297.058 147.039Z" fill="#FFDAE4"/>
<path d="M289.322 167.234C282.922 172.318 274.27 189.383 272.396 202.062C265.379 201.205 260.434 198.653 260.056 191.815C260.076 190.519 260.096 189.482 260.155 188.924C260.155 188.844 260.175 188.765 260.175 188.705L261.67 168.251L289.322 167.234Z" fill="#FFCDDC"/>
<path d="M232.146 123.993C231.867 101.884 250.108 83.8618 272.476 84.6593C292.312 85.377 308.74 101.505 309.856 121.301C310.354 130.412 307.723 138.865 302.898 145.723C298.632 151.803 294.824 158.163 290.917 164.483C284.677 174.57 272.895 180.91 259.777 179.195C247.078 177.541 236.492 168.011 233.402 155.591C232.525 152.023 232.286 148.514 232.565 145.185C233.123 138.865 232.684 132.525 232.246 126.206C232.186 125.488 232.146 124.73 232.146 123.993Z" fill="#FFE4EE"/>
<path d="M298.134 161.991C298.134 161.991 303.218 153.977 309.039 143.929C314.461 134.599 316.056 124.931 315.418 114.325C314.78 103.739 306.946 93.8705 302.819 89.8235C298.692 85.7964 290 80.4735 282.105 78.7391C274.211 77.0047 274.749 78.9185 272.696 79.0182C270.662 79.1179 270.662 78.0015 268.469 78.0015C266.276 78.0015 247.058 77.6227 236.711 88.9662C226.365 100.31 224.69 110.776 228.737 125.907C232.246 139.065 232.764 138.786 232.784 139.743C233.262 133.623 232.645 132.307 232.226 126.187C232.166 125.449 232.146 124.711 232.126 123.954C232.126 123.934 232.126 123.914 232.126 123.914C232.106 121.382 234.578 119.548 237.01 120.305L246.201 123.116C247.138 123.376 247.895 122.359 247.397 121.541L246.56 120.166L258.88 123.615C259.817 123.874 260.575 122.857 260.076 122.04L259.239 120.664L271.559 124.113C272.496 124.372 273.254 123.356 272.755 122.538L271.918 121.163L272.377 121.282C284.099 124.472 293.469 124.871 296.519 147" fill="#2D2D37"/>
<path d="M293.808 137.311C293.749 133.244 296.779 129.914 300.487 130.074C303.776 130.213 306.508 133.184 306.687 136.832C306.767 138.507 306.328 140.062 305.531 141.338C304.833 142.454 304.195 143.63 303.557 144.787C302.52 146.641 300.567 147.817 298.394 147.498C296.281 147.199 294.526 145.425 294.008 143.152C293.868 142.494 293.828 141.856 293.868 141.238C293.968 140.082 293.888 138.905 293.808 137.749C293.808 137.59 293.808 137.45 293.808 137.311Z" fill="#FFE4EE"/>
<path d="M245.882 140.481C248.216 140.481 250.108 137.848 250.108 134.6C250.108 131.352 248.216 128.719 245.882 128.719C243.548 128.719 241.655 131.352 241.655 134.6C241.655 137.848 243.548 140.481 245.882 140.481Z" fill="white"/>
<path d="M266.855 140.481C269.189 140.481 271.081 137.848 271.081 134.6C271.081 131.352 269.189 128.719 266.855 128.719C264.521 128.719 262.629 131.352 262.629 134.6C262.629 137.848 264.521 140.481 266.855 140.481Z" fill="white"/>
<path d="M244.247 138.227C245.69 138.227 246.859 136.603 246.859 134.599C246.859 132.595 245.69 130.971 244.247 130.971C242.805 130.971 241.636 132.595 241.636 134.599C241.636 136.603 242.805 138.227 244.247 138.227Z" fill="#2D2D37"/>
<path d="M265.141 138.108C266.528 138.108 267.653 136.537 267.653 134.6C267.653 132.662 266.528 131.091 265.141 131.091C263.753 131.091 262.629 132.662 262.629 134.6C262.629 136.537 263.753 138.108 265.141 138.108Z" fill="#2D2D37"/>
<path d="M255.971 160.44C258.007 160.415 259.62 157.297 259.573 153.477C259.525 149.657 257.836 146.58 255.799 146.606C253.763 146.631 252.15 149.748 252.197 153.568C252.245 157.389 253.934 160.465 255.971 160.44Z" fill="#FF7BA4"/>
<path d="M301.623 137.051L300.626 138.068C299.61 139.104 299.65 140.759 300.666 141.756" stroke="#FFBED2" stroke-width="1.88394" stroke-miterlimit="10" stroke-linecap="round" stroke-linejoin="round"/>
<path d="M256.169 142.255C253.697 142.315 251.643 140.361 251.584 137.889C251.524 135.417 254.993 133.882 255.949 133.304V130.254" stroke="#FFBED2" stroke-width="1.88394" stroke-miterlimit="10" stroke-linecap="round" stroke-linejoin="round"/>
<path d="M348.472 273.951L349.489 282.185C349.708 283.241 348.353 283.859 347.695 283.002L324.788 250.068L317.133 240.06C316.535 239.303 315.897 238.585 315.239 237.867L287.07 199.511C285.076 196.5 281.029 195.683 278.039 197.677C275.028 199.67 274.211 203.717 276.205 206.708L281.886 214.443C283.9 217.194 281.926 221.121 278.497 221.061C273.234 220.942 267.891 221.66 262.668 223.234L242.413 229.355C238.964 230.391 237.011 234.04 238.067 237.489C239.104 240.938 242.752 242.891 246.201 241.835L265.36 236.033C265.958 235.854 266.595 236.193 266.775 236.791C266.954 237.389 266.615 238.027 266.017 238.206L244.108 244.825C240.659 245.862 238.705 249.51 239.762 252.959C240.798 256.408 244.447 258.361 247.896 257.305L269.805 250.686C270.403 250.507 271.041 250.846 271.221 251.444C271.4 252.042 271.061 252.68 270.463 252.859L254.973 257.544C251.524 258.581 249.57 262.229 250.627 265.678C251.663 269.127 255.312 271.081 258.761 270.024L275.347 265L281.826 263.046L321.938 316.415C332.185 329.313 349.27 334.636 365.019 329.872C384.078 324.11 395.621 304.772 391.633 285.255L383.719 248.035L353.018 258.262C353.018 258.262 350.366 258.78 349.947 262.209C349.529 265.638 348.472 273.951 348.472 273.951Z" fill="#FFE4EE"/>
<path d="M350.664 285.415L354.053 289.721" stroke="#FFBED2" stroke-width="1.88394" stroke-miterlimit="10" stroke-linecap="round" stroke-linejoin="round"/>
<path d="M383.718 248.014L352.977 258.261C352.977 258.261 350.305 258.779 349.906 262.208C349.827 262.946 349.707 263.922 349.568 264.999L384.715 252.699L383.718 248.014Z" fill="#FFCDDC"/>
</g>
</svg>
