<svg width="382" height="348" viewBox="0 0 382 348" fill="none" xmlns="http://www.w3.org/2000/svg">
<mask id="mask0" mask-type="alpha" maskUnits="userSpaceOnUse" x="0" y="0" width="382" height="349">
<path d="M382 348L3.05176e-05 348L2.19259e-06 24.0001C1.03382e-06 10.7453 10.7452 9.35733e-05 24 9.24145e-05L358 6.32153e-05C371.255 6.20565e-05 382 10.7452 382 24.0001L382 348Z" fill="#F06E8C"/>
</mask>
<g mask="url(#mask0)">
<g filter="url(#filter0_d)">
<path d="M251.698 190.527C259.418 203.158 277.763 203.158 285.482 190.527L359.064 70.1194C367.126 56.928 357.632 40.0001 342.173 40.0001L195.008 40.0001C179.549 40.0001 170.055 56.9279 178.116 70.1194L251.698 190.527Z" fill="#FFDCE6"/>
<path d="M224.675 277.489H312.226C324.272 257.805 323.391 202.571 318.102 174.072H292.542L293.423 184.649C294.892 196.401 285.491 198.164 273.739 198.164C270.507 198.164 267.569 198.164 264.925 197.576C264.043 197.576 263.456 197.282 262.574 196.989C262.281 196.989 261.987 196.695 261.693 196.695C261.106 196.401 260.224 196.107 259.636 195.813C259.343 195.813 259.049 195.52 258.755 195.52C258.461 195.226 258.168 195.226 257.874 194.932C257.58 194.638 257.58 194.638 257.286 194.344C256.992 194.051 256.992 194.051 256.699 193.757C256.405 193.463 256.405 193.169 256.111 193.169C256.111 192.875 255.817 192.875 255.817 192.582C255.817 192.582 255.817 192.582 255.817 192.288C255.817 191.994 255.523 191.7 255.523 191.406C255.523 191.113 255.23 190.819 255.23 190.525C255.23 190.525 255.23 190.525 255.23 190.231C255.23 189.938 255.23 189.644 254.936 189.35V189.056C254.936 188.762 254.936 188.469 254.936 187.881C254.936 187 254.936 186.118 254.936 184.943V184.649L255.523 175.248H220.268C217.623 197.282 216.742 252.223 224.675 277.489Z" fill="#333333"/>
<path d="M290.485 143.81H257.286L254.348 184.648C252.879 196.4 262.28 198.163 274.032 198.163C285.784 198.163 294.892 196.4 293.717 184.648L290.485 143.81Z" fill="#FFDBE5"/>
<path d="M282.846 160.557C276.677 165.552 268.157 185.824 266.1 198.164C259.343 197.282 254.348 194.932 254.054 188.174C254.054 186.999 254.054 185.824 254.054 185.236V184.943L255.523 161.439L282.846 160.557Z" fill="#FFD0DD"/>
<path d="M227.613 120.307C227.613 98.5663 245.828 81.2322 267.569 82.1136C286.96 82.995 303.119 99.1538 303.706 118.544C304 127.358 301.356 135.879 296.655 142.342C292.542 148.218 288.723 154.388 284.609 160.557C278.44 170.253 266.688 176.423 253.761 174.66C241.421 172.897 231.138 163.496 228.2 151.156C227.319 147.63 227.319 144.105 227.613 140.873C228.2 134.703 227.907 128.534 227.613 122.364C227.613 121.776 227.613 121.189 227.613 120.307Z" fill="#FFE5EF"/>
<path d="M254.936 174.953C254.642 174.953 254.348 174.953 254.054 174.953C241.715 173.19 231.432 163.789 228.494 151.449C227.613 147.924 227.613 144.398 227.906 141.167C228.2 137.935 228.2 134.703 228.2 131.471C228.2 126.771 229.082 121.776 230.844 117.369C234.076 109.73 239.071 101.504 244.653 99.7412C245.828 99.4474 246.709 100.035 247.297 101.21C248.472 104.148 251.704 110.024 262.575 112.081C273.739 114.137 276.971 130.59 288.135 132.94C294.011 134.409 291.073 151.156 291.073 151.156L292.836 175.247H318.69C317.808 169.665 316.633 163.789 315.164 157.913L310.463 127.946C310.463 127.064 310.17 126.183 310.17 125.595C310.17 123.539 309.876 121.188 309.582 118.544C305.175 91.8086 291.367 84.4637 285.197 82.4071C281.965 81.5257 272.857 78.2939 262.868 78.0001C258.461 78.0001 254.054 78.8816 249.647 80.6444C240.833 84.4637 234.076 91.8086 229.963 100.329C226.144 108.261 224.087 115.9 223.793 120.013C223.206 125.889 222.618 135.878 222.618 140.285C222.324 150.274 220.855 162.614 219.68 175.247H254.936V174.953Z" fill="#333333"/>
<path d="M287.841 134.116C287.841 130.003 290.779 126.771 294.598 127.065C297.83 127.359 300.474 130.296 300.474 133.822C300.474 135.585 300.18 137.054 299.299 138.229C298.711 139.404 297.83 140.579 297.242 141.461C296.067 143.224 294.304 144.399 292.248 144.105C290.191 143.811 288.429 142.048 288.135 139.698C288.135 139.11 287.841 138.523 288.135 137.935C288.135 136.76 288.135 135.585 288.135 134.41C287.841 134.41 287.841 134.41 287.841 134.116Z" fill="#FFE5EF"/>
<path d="M240.833 139.109C243.105 139.109 244.947 136.479 244.947 133.233C244.947 129.988 243.105 127.358 240.833 127.358C238.562 127.358 236.72 129.988 236.72 133.233C236.72 136.479 238.562 139.109 240.833 139.109Z" fill="white"/>
<path d="M261.399 139.109C263.671 139.109 265.512 136.479 265.512 133.233C265.512 129.988 263.671 127.358 261.399 127.358C259.128 127.358 257.286 129.988 257.286 133.233C257.286 136.479 259.128 139.109 261.399 139.109Z" fill="white"/>
<path d="M239.364 136.76C240.825 136.76 242.009 135.181 242.009 133.234C242.009 131.287 240.825 129.709 239.364 129.709C237.904 129.709 236.72 131.287 236.72 133.234C236.72 135.181 237.904 136.76 239.364 136.76Z" fill="#333333"/>
<path d="M259.93 136.76C261.229 136.76 262.281 135.181 262.281 133.234C262.281 131.287 261.229 129.709 259.93 129.709C258.632 129.709 257.58 131.287 257.58 133.234C257.58 135.181 258.632 136.76 259.93 136.76Z" fill="#333333"/>
<path d="M264.631 147.924C257.286 149.981 250.529 151.744 244.653 152.037C244.065 152.037 243.478 152.919 244.065 153.212C244.947 154.681 247.591 155.563 250.529 155.563C257.286 155.563 263.162 151.744 265.512 149.099C266.1 148.806 265.512 147.63 264.631 147.924Z" fill="#FF97BF"/>
<path d="M295.48 134.116L294.599 134.997C293.717 135.879 293.717 137.641 294.599 138.523" stroke="#FFBED7" stroke-width="0.6298" stroke-miterlimit="10" stroke-linecap="round" stroke-linejoin="round"/>
<path d="M251.116 140.579C248.766 140.579 246.709 138.816 246.709 136.172C246.709 133.822 249.941 132.353 251.116 131.765V126.477" stroke="#FFBED7" stroke-width="0.6298" stroke-miterlimit="10" stroke-linecap="round" stroke-linejoin="round"/>
<path d="M70.7246 188.174V201.689C70.7246 205.215 73.6626 208.153 77.1882 208.153C77.1882 208.153 77.1881 208.153 77.4819 208.153L83.0641 214.616L76.8943 232.538C82.4764 235.77 90.7029 237.532 99.223 237.532H204.109V193.463H131.834C122.727 193.463 113.619 190.819 105.98 185.824C98.3416 180.829 89.5276 178.479 80.4199 178.479C75.1315 178.185 70.7246 182.592 70.7246 188.174Z" fill="#FFE5EF"/>
<path d="M81.8889 206.683L40.4636 206.977C36.938 206.977 34 204.039 34 200.513C34 196.988 36.938 194.05 40.4636 194.05L81.8889 193.756C85.4145 193.756 88.3525 196.694 88.3525 200.22C88.3525 203.745 85.4145 206.683 81.8889 206.683Z" fill="#FFE5EF"/>
<path d="M87.1771 232.832H70.4306C66.9051 232.832 63.6733 229.894 63.6733 226.368C63.6733 222.843 66.6114 219.611 70.1369 219.611H86.8834C90.409 219.611 93.6407 222.549 93.6407 226.075C93.6407 229.894 90.7027 232.832 87.1771 232.832Z" fill="#FFE5EF"/>
<path d="M82.4767 219.904H65.7302C62.2046 219.904 59.2666 216.966 59.2666 213.441C59.2666 209.915 62.2046 206.977 65.7302 206.977H82.4767C86.0022 206.977 88.9403 209.915 88.9403 213.441C88.9403 216.966 86.0022 219.904 82.4767 219.904Z" fill="#FFE5EF"/>
<path d="M84.8269 207.271C87.1772 208.152 88.9401 210.503 88.9401 213.441C88.9401 216.966 86.0021 219.904 82.4765 219.904H73.6626H87.1772C90.7028 219.904 93.6408 222.842 93.6408 226.368C93.6408 229.012 92.1718 231.069 90.1152 232.244" stroke="#FFBED7" stroke-width="0.6709" stroke-miterlimit="10" stroke-linecap="round" stroke-linejoin="round"/>
<path d="M101.573 206.095C86.8835 206.095 83.6516 193.462 83.6516 193.462V201.395C83.6516 204.92 80.7138 207.858 77.1882 207.858C73.6626 207.858 70.7246 204.92 70.7246 201.395V196.694" stroke="#FFBED7" stroke-width="0.6709" stroke-miterlimit="10" stroke-linecap="round" stroke-linejoin="round"/>
<path d="M252.291 238.708H204.108V191.7H252.291C265.218 191.7 275.795 202.277 275.795 215.204C275.795 228.131 265.218 238.708 252.291 238.708Z" fill="#FF5F87"/>
<path d="M212.922 238.707H233.488L246.122 196.988C246.122 196.694 223.499 207.859 212.922 238.707Z" fill="#F05078"/>
<path d="M201.17 193.463V237.239H204.108V193.169L201.17 193.463Z" fill="#FFD0DD"/>
<path d="M315.751 195.813L295.186 185.824C284.609 180.535 272.269 180.242 261.105 184.649C243.771 191.7 231.138 206.977 227.906 225.486L207.634 340.361C207.046 344.474 209.984 348 214.098 348H327.797C331.617 348 334.848 344.474 334.261 340.655L315.751 195.813Z" fill="#FF5F87"/>
<path d="M323.39 256.922L273.738 225.78C273.738 225.78 279.908 259.86 325.74 275.725L323.39 256.922Z" fill="#F05078"/>
<path d="M331.91 263.974C332.792 264.562 332.792 266.031 331.617 266.325L306.056 276.02C297.83 278.664 289.016 278.958 280.496 277.195C271.682 275.139 262.28 276.02 253.466 279.252C248.472 281.308 245.828 286.891 247.884 292.179L249.353 295.704C249.353 295.704 245.534 297.467 242.89 299.524C240.245 301.58 237.895 305.106 239.364 308.338C240.539 311.57 244.065 313.332 247.297 312.451C244.359 313.92 243.183 317.446 244.359 320.677V320.971C245.534 324.497 249.647 326.259 252.879 324.79L255.229 323.909C252.585 325.672 251.41 328.904 252.585 331.842C253.466 334.486 255.817 335.955 258.461 336.249C264.924 337.424 273.445 336.249 281.377 333.017L369.223 299.818C383.619 294.529 393.02 280.721 393.02 265.15C393.02 252.222 386.263 240.471 375.392 233.713L313.401 195.813C299.593 186.706 281.083 191.994 274.032 206.978C270.213 219.611 275.795 233.126 287.253 239.589L331.91 263.974Z" fill="#FFE5EF"/>
<path d="M336.023 265.736L341.606 266.03" stroke="#FFBED7" stroke-width="0.6709" stroke-miterlimit="10" stroke-linecap="round" stroke-linejoin="round"/>
<path d="M338.374 210.503L310.463 251.929L320.452 257.511L345.719 215.204L338.374 210.503Z" fill="#FFD0DD"/>
<path d="M290.779 191.406C282.846 193.756 276.383 199.045 272.857 206.683V206.977C268.744 219.904 274.62 234.3 286.665 240.764L317.22 257.804L343.956 212.853L313.989 195.225C307.231 190.525 298.711 189.349 290.779 191.406Z" fill="#FF5F87"/>
<path d="M251.704 295.41L266.1 290.122C266.1 290.122 260.518 291.885 259.342 288.359L260.811 292.179" stroke="#FFBED7" stroke-width="0.6709" stroke-miterlimit="10" stroke-linecap="round" stroke-linejoin="round"/>
<path d="M257.58 322.439L260.224 321.558" stroke="#FFBED7" stroke-width="0.6709" stroke-miterlimit="10" stroke-linecap="round" stroke-linejoin="round"/>
<path d="M249.941 311.275L252.291 310.1" stroke="#FFBED7" stroke-width="0.6709" stroke-miterlimit="10" stroke-linecap="round" stroke-linejoin="round"/>
</g>
</g>
<defs>
<filter id="filter0_d" x="18" y="28.0001" width="391.02" height="340" filterUnits="userSpaceOnUse" color-interpolation-filters="sRGB">
<feFlood flood-opacity="0" result="BackgroundImageFix"/>
<feColorMatrix in="SourceAlpha" type="matrix" values="0 0 0 0 0 0 0 0 0 0 0 0 0 0 0 0 0 0 127 0"/>
<feOffset dy="4"/>
<feGaussianBlur stdDeviation="8"/>
<feColorMatrix type="matrix" values="0 0 0 0 0 0 0 0 0 0 0 0 0 0 0 0 0 0 0.08 0"/>
<feBlend mode="normal" in2="BackgroundImageFix" result="effect1_dropShadow"/>
<feBlend mode="normal" in="SourceGraphic" in2="effect1_dropShadow" result="shape"/>
</filter>
</defs>
</svg>
