<svg width="382" height="348" viewBox="0 0 382 348" fill="none" xmlns="http://www.w3.org/2000/svg">
<mask id="mask0" mask-type="alpha" maskUnits="userSpaceOnUse" x="0" y="0" width="382" height="348">
<path d="M382 324C382 337.255 371.255 348 358 348L24 348C10.7452 348 2.95782e-05 337.255 2.84194e-05 324L2.19259e-06 24C1.03382e-06 10.7452 10.7452 1.93855e-06 24 7.79773e-07L358 -2.84194e-05C371.255 -2.95782e-05 382 10.7451 382 24L382 324Z" fill="#F04682"/>
</mask>
<g mask="url(#mask0)">
<path d="M317.87 221.554C315.179 211.786 304.912 206.184 295.223 209.234L270.124 217.108L288.126 281.9C292.99 299.364 296.698 326.178 297.555 347.748H341.913C341.594 330.863 338.743 299.045 335.972 287.243L317.87 221.554Z" fill="#FFE4EE"/>
<path d="M288.364 145.938H254.971L251.961 187.026C250.585 198.808 259.796 200.582 271.658 200.582C283.519 200.582 292.73 198.808 291.354 187.026L288.364 145.938Z" fill="#FFDAE4"/>
<path d="M280.728 165.855C274.409 170.859 265.896 187.705 264.022 200.205C257.104 199.367 252.22 196.835 251.841 190.097C251.861 188.821 251.881 187.785 251.941 187.246C251.941 187.166 251.961 187.107 251.961 187.027L253.436 166.832L280.728 165.855Z" fill="#FFCDDC"/>
<path d="M225.149 122.533C225.149 100.723 243.35 83.1594 265.399 84.216C284.956 85.1529 300.965 101.261 301.822 120.838C302.221 129.829 299.49 138.143 294.665 144.861C290.379 150.802 286.551 157.042 282.624 163.202C276.344 173.09 264.662 179.191 251.723 177.336C239.224 175.542 228.877 166.033 226.006 153.732C225.169 150.184 224.989 146.735 225.308 143.445C225.926 137.225 225.587 130.966 225.229 124.726C225.169 123.988 225.149 123.27 225.149 122.533Z" fill="#FFE4EE"/>
<path d="M262.269 136.947C264.449 136.947 266.216 134.457 266.216 131.385C266.216 128.313 264.449 125.823 262.269 125.823C260.088 125.823 258.321 128.313 258.321 131.385C258.321 134.457 260.088 136.947 262.269 136.947Z" fill="white"/>
<path d="M261.012 135.512C262.499 135.512 263.704 133.709 263.704 131.485C263.704 129.261 262.499 127.458 261.012 127.458C259.526 127.458 258.321 129.261 258.321 131.485C258.321 133.709 259.526 135.512 261.012 135.512Z" fill="#2D2D37"/>
<path d="M240.459 136.947C242.639 136.947 244.406 134.457 244.406 131.385C244.406 128.313 242.639 125.823 240.459 125.823C238.279 125.823 236.511 128.313 236.511 131.385C236.511 134.457 238.279 136.947 240.459 136.947Z" fill="white"/>
<path d="M239.183 135.512C240.669 135.512 241.874 133.709 241.874 131.485C241.874 129.261 240.669 127.458 239.183 127.458C237.696 127.458 236.491 129.261 236.491 131.485C236.491 133.709 237.696 135.512 239.183 135.512Z" fill="#2D2D37"/>
<path d="M327.758 116.154C327.758 113.263 326.582 110.671 324.688 108.777C325.804 107.123 326.442 105.129 326.442 102.996C326.442 100.344 325.446 97.9322 323.811 96.0981C324.21 95.0016 324.429 93.8254 324.429 92.5894C324.429 87.5257 320.801 83.2993 315.996 82.3823C316.016 82.0832 316.036 81.7642 316.036 81.4452C316.036 76.9796 313.225 73.1918 309.278 71.7166C308.44 67.55 305.131 64.3004 300.924 63.5429C299.489 59.5158 295.641 56.6251 291.136 56.6251C288.564 56.6251 286.212 57.562 284.398 59.0971C282.763 55.4688 279.135 52.9569 274.908 52.9569C272.197 52.9569 269.725 54.0134 267.871 55.708C265.957 53.4353 263.106 52 259.916 52C256.109 52 252.799 54.0533 250.985 57.1035C249.091 55.2096 246.48 54.0334 243.609 54.0334C240.319 54.0334 237.409 55.5485 235.495 57.9209C232.923 57.5421 230.192 58.1203 227.919 59.775C226.205 61.011 224.989 62.6656 224.291 64.4798C218.948 64.9184 214.762 69.384 214.762 74.8464C214.762 75.1255 214.781 75.3847 214.801 75.6638C214.084 75.9629 213.386 76.3417 212.728 76.8202C208.522 79.8504 207.266 85.4324 209.518 89.918C207.884 92.5894 207.545 95.8987 208.621 98.8692C207.006 100.703 206.01 103.116 206.01 105.747C206.01 108.239 206.887 110.552 208.362 112.346C208.123 113.203 208.003 114.1 208.003 115.037C208.003 116.612 208.362 118.087 208.98 119.423C208.362 120.759 208.003 122.234 208.003 123.809C208.003 126.141 208.781 128.275 210.057 130.009C210.037 130.328 210.017 130.627 210.017 130.946C210.017 134.176 211.492 137.046 213.785 138.96C214.682 141.552 216.596 143.685 219.048 144.881C219.925 147.294 221.639 149.287 223.872 150.503C224.391 151.58 225.108 152.557 225.946 153.394C225.188 149.985 225.009 146.656 225.328 143.466C225.946 137.246 225.607 130.986 225.248 124.746C225.208 124.088 225.188 115.815 231.129 114.24C232.445 113.901 233.681 113.283 234.658 112.406C235.654 113.024 236.851 113.383 238.107 113.383C240.02 113.383 241.755 112.565 242.971 111.249C244.506 112.166 246.3 112.685 248.234 112.685C250.407 112.685 252.42 112.027 254.075 110.891C255.331 111.429 256.727 111.748 258.182 111.748C259.139 111.748 260.056 111.608 260.933 111.369C262.668 112.665 264.801 113.442 267.133 113.442C268.269 113.442 269.366 113.263 270.383 112.924C270.383 113.103 270.363 113.263 270.363 113.442C270.363 117.988 273.273 121.835 277.32 123.251C276.962 124.307 276.762 125.424 276.762 126.6C276.762 126.859 276.762 127.138 276.782 127.397C277.041 130.866 279.234 133.897 282.284 135.571L282.583 135.731C285.753 137.445 287.846 140.655 288.126 144.263L290.239 171.376C291.754 170.559 293.07 169.382 294.007 167.947C299.11 167.289 303.077 162.923 303.077 157.64C303.077 157.6 303.077 157.56 303.077 157.521C307.384 156.903 310.833 153.653 311.73 149.467C315.537 147.912 318.209 144.183 318.209 139.837C318.209 139.798 318.209 139.758 318.209 139.718C323.233 138.98 327.1 134.674 327.1 129.431C327.1 127.098 326.323 124.965 325.027 123.231C326.722 121.297 327.758 118.845 327.758 116.154Z" fill="#2D2D37"/>
<path d="M281.686 132.88C281.686 128.873 284.696 125.624 288.364 125.823C291.614 126.002 294.265 128.973 294.405 132.561C294.465 134.216 294.026 135.751 293.209 136.987C292.491 138.083 291.873 139.22 291.215 140.356C290.178 142.17 288.245 143.307 286.092 142.968C284.018 142.649 282.304 140.894 281.825 138.622C281.686 137.964 281.646 137.326 281.706 136.728C281.806 135.592 281.746 134.435 281.686 133.279C281.706 133.139 281.686 133 281.686 132.88Z" fill="#FFE4EE"/>
<path d="M293.986 186.866C283.4 181.723 271.12 181.264 260.195 185.65C242.95 192.548 230.49 207.879 227.261 226.18L207.086 340.193C206.388 344.121 209.418 347.749 213.405 347.749H326.043C329.911 347.749 332.901 344.36 332.423 340.512L317.132 219.182C315.377 205.207 306.685 193.046 293.986 186.866Z" fill="#FF6991"/>
<path d="M273.372 239.078L234.497 300.76C234.497 300.76 278.795 296.514 278.795 236.307L273.372 239.078Z" fill="#F04682"/>
<path d="M248.193 148.011C246.179 148.011 244.545 151.061 244.545 154.829C244.545 158.597 246.179 161.647 248.193 161.647C250.206 161.647 251.841 158.597 251.841 154.829C251.841 151.061 250.206 148.011 248.193 148.011Z" fill="#FF7BA4"/>
<path d="M289.401 132.721L288.404 133.718C287.407 134.715 287.407 136.349 288.404 137.366" stroke="#FFBED2" stroke-width="1.88394" stroke-miterlimit="10" stroke-linecap="round" stroke-linejoin="round"/>
<path d="M250.108 140.675C247.636 140.735 245.582 138.781 245.522 136.309C245.463 133.837 248.931 132.302 249.888 131.724V126.321" stroke="#FFBED2" stroke-width="1.88394" stroke-miterlimit="10" stroke-linecap="round" stroke-linejoin="round"/>
<path d="M265.957 197.812C253.457 194.004 239.98 199.467 233.66 210.91L209.02 255.487C208.262 256.643 207.026 256.463 206.647 255.367L194.965 222.971C193.39 218.605 194.467 213.641 197.935 210.551C204.375 204.81 207.026 195.519 203.936 186.927C202.919 184.096 201.344 181.544 199.271 179.351C197.377 177.338 194.566 176.72 192.114 177.517C191.337 175.045 189.203 173.131 186.472 172.753C182.983 172.274 179.395 172.633 176.086 173.829C170.464 175.863 166.197 179.969 163.805 184.993L157.645 167.868C156.429 164.479 152.761 162.486 149.352 163.602C145.823 164.758 143.969 168.586 145.205 172.055L153 193.705C153.119 194.024 152.94 194.383 152.621 194.483C152.302 194.582 151.943 194.423 151.844 194.104V194.084L145.823 177.358C144.607 173.969 140.939 171.975 137.53 173.092C134.001 174.248 132.147 178.076 133.383 181.544L139.503 198.55L146.142 217.01L176.903 302.376C183.542 320.777 205.75 329.07 223.334 317.746C227.6 314.995 231.148 311.227 233.9 306.961L277.101 236.906C286.012 223.19 280.749 204.77 265.957 197.812ZM176.006 196.995C174.531 192.888 176.664 188.343 180.77 186.867C181.987 186.429 183.262 186.289 184.538 186.469C185.615 186.628 186.672 186.508 187.628 186.209C187.927 187.186 188.466 188.103 189.203 188.881C189.961 189.678 190.519 190.595 190.898 191.632C192.373 195.739 190.24 200.284 186.133 201.759C182.026 203.235 177.481 201.101 176.006 196.995Z" fill="#FFE4EE"/>
<path d="M191.376 179.092C191.496 181.125 190.459 183.119 188.705 184.155" stroke="#FFBED2" stroke-width="1.88394" stroke-miterlimit="10" stroke-linecap="round" stroke-linejoin="round"/>
<path d="M207.565 259.055L207.345 264.557" stroke="#FFBED2" stroke-width="1.88394" stroke-miterlimit="10" stroke-linecap="round" stroke-linejoin="round"/>
<path d="M214.781 245.119L257.025 269.5L267.492 252.555L224.41 227.695L214.781 245.119Z" fill="#FFCDDC"/>
<path d="M281.487 214.517C279.254 206.702 273.772 200.243 266.415 196.794L266.276 196.734C253.337 192.807 239.203 198.528 232.684 210.35L216.556 239.537C216.217 240.175 216.416 240.952 217.034 241.331L259.398 266.57C260.036 266.948 260.853 266.729 261.232 266.091L278.058 237.503C282.464 230.705 283.72 222.332 281.487 214.517Z" fill="#FF6991"/>
</g>
</svg>
