<svg width="382" height="348" viewBox="0 0 382 348" fill="none" xmlns="http://www.w3.org/2000/svg">
<mask id="mask0" mask-type="alpha" maskUnits="userSpaceOnUse" x="0" y="0" width="382" height="348">
<path d="M382 324C382 337.255 371.255 348 358 348L24 348C10.7452 348 2.95782e-05 337.255 2.84194e-05 324L2.19259e-06 24C1.03382e-06 10.7452 10.7452 1.93855e-06 24 7.79773e-07L358 -2.84194e-05C371.255 -2.95782e-05 382 10.7451 382 24L382 324Z" fill="#32BECD"/>
</mask>
<g mask="url(#mask0)">
<path d="M316.854 218.611C314.701 210.836 306.527 206.37 298.832 208.802L270.124 217.813L288.126 282.605C292.971 300.069 296.699 326.882 297.556 348.453H341.913C341.594 331.567 338.743 299.75 335.972 287.947L316.854 218.611Z" fill="#FFE4EE"/>
<path d="M287.727 144.868H253.896L250.846 189.485C249.45 201.426 258.78 203.22 270.801 203.22C282.823 203.22 292.153 201.406 290.757 189.485L287.727 144.868Z" fill="#FFDAE4"/>
<path d="M250.746 191.957C250.845 199.273 255.889 201.965 263.126 202.842C265.119 190.163 273.632 167.017 279.972 161.993L252.6 162.99L250.885 189.505C250.885 189.525 250.885 189.545 250.885 189.584L250.865 189.903V189.923C250.845 190.202 250.826 190.462 250.806 190.721C250.766 191.06 250.746 191.478 250.746 191.957Z" fill="#FFCDDC"/>
<path d="M223.693 121.144C223.693 99.035 242.133 81.2521 264.482 82.3287C284.298 83.2856 300.526 99.6131 301.383 119.429C301.782 128.54 299.031 136.973 294.126 143.751C289.8 149.772 285.913 156.091 281.926 162.351C275.566 172.359 263.724 178.559 250.606 176.685C237.947 174.871 227.461 165.222 224.55 152.762C223.713 149.174 223.513 145.685 223.852 142.336C224.49 136.036 224.131 129.696 223.772 123.377C223.713 122.639 223.693 121.901 223.693 121.144Z" fill="#FFE4EE"/>
<path d="M251.563 176.785C251.244 176.745 250.925 176.725 250.606 176.685C237.927 174.871 227.46 165.302 224.55 152.842C223.713 149.253 223.513 145.765 223.852 142.415C224.191 139.086 224.251 135.737 224.171 132.408C224.131 127.503 225.048 122.639 226.942 118.114C230.172 110.359 235.176 101.886 241.077 100.291C242.153 99.9919 243.289 100.63 243.668 101.686C244.725 104.637 248.214 110.618 259.278 112.771C270.682 114.984 273.931 131.65 285.175 133.923C291.076 135.278 288.285 152.463 288.285 152.463L290.298 179.855C296.698 180.015 303.935 179.117 311.47 177.861C314.142 177.423 315.956 174.891 315.437 172.239C314.62 167.993 313.743 163.687 312.766 159.281L308.061 128.719C307.942 127.902 307.842 127.065 307.782 126.247C307.782 124.015 307.603 121.642 307.184 119.15C302.599 91.8182 288.524 84.402 282.264 82.3885C279.114 81.3718 269.804 78.1222 259.478 78.0026C249.171 77.8631 237.907 83.3055 230.61 92.2966C223.693 103.341 220.204 115.163 219.685 121.044C219.147 127.125 218.549 137.053 218.43 141.778C218.19 150.848 216.974 161.713 215.898 173.276C215.678 175.728 217.313 177.961 219.745 178.44C228.039 180.054 238.824 180.672 251.284 180.633L251.563 176.785Z" fill="#2D2D37"/>
<path d="M285.156 135.238C285.156 131.172 288.206 127.902 291.914 128.101C295.203 128.281 297.895 131.291 298.034 134.939C298.094 136.614 297.636 138.169 296.838 139.425C296.12 140.541 295.483 141.698 294.825 142.854C293.768 144.688 291.814 145.844 289.641 145.486C287.548 145.147 285.814 143.372 285.315 141.08C285.176 140.422 285.136 139.784 285.196 139.166C285.295 138.01 285.235 136.833 285.176 135.677C285.156 135.498 285.156 135.358 285.156 135.238Z" fill="#FFE4EE"/>
<path d="M237.368 140.063C239.702 140.063 241.594 137.43 241.594 134.182C241.594 130.934 239.702 128.301 237.368 128.301C235.034 128.301 233.142 130.934 233.142 134.182C233.142 137.43 235.034 140.063 237.368 140.063Z" fill="white"/>
<path d="M258.321 140.063C260.656 140.063 262.548 137.43 262.548 134.182C262.548 130.934 260.656 128.301 258.321 128.301C255.987 128.301 254.095 130.934 254.095 134.182C254.095 137.43 255.987 140.063 258.321 140.063Z" fill="white"/>
<path d="M235.734 137.81C237.176 137.81 238.346 136.186 238.346 134.182C238.346 132.178 237.176 130.554 235.734 130.554C234.292 130.554 233.123 132.178 233.123 134.182C233.123 136.186 234.292 137.81 235.734 137.81Z" fill="#2D2D37"/>
<path d="M256.626 137.69C258.013 137.69 259.138 136.119 259.138 134.182C259.138 132.244 258.013 130.673 256.626 130.673C255.239 130.673 254.114 132.244 254.114 134.182C254.114 136.119 255.239 137.69 256.626 137.69Z" fill="#2D2D37"/>
<path d="M294.006 187.551C283.42 182.407 271.14 181.949 260.215 186.335C242.97 193.233 230.51 208.563 227.261 226.864L207.086 340.878C206.388 344.805 209.418 348.434 213.405 348.434H326.043C329.911 348.434 332.901 345.044 332.423 341.197L317.132 219.867C315.397 205.892 306.685 193.731 294.006 187.551Z" fill="#32D7E1"/>
<path d="M273.374 239.762L234.499 301.444C234.499 301.444 278.796 297.198 278.796 236.991L273.374 239.762Z" fill="#32BECD"/>
<path d="M261.471 149.214C254.055 151.427 247.117 153.042 241.236 153.361C240.558 153.401 240.159 154.158 240.558 154.697C241.535 156.092 244.067 157.089 247.018 157.089C253.796 157.089 259.876 153.301 262.368 150.61C262.966 149.972 262.308 148.955 261.471 149.214Z" fill="#FF7BA4"/>
<path d="M292.95 135.059L291.953 136.055C290.936 137.072 290.936 138.727 291.953 139.744" stroke="#FFBED2" stroke-width="1.88394" stroke-miterlimit="10" stroke-linecap="round" stroke-linejoin="round"/>
<path d="M247.655 141.818C245.183 141.878 243.13 139.924 243.07 137.452C243.01 134.98 246.479 133.445 247.436 132.867V127.464" stroke="#FFBED2" stroke-width="1.88394" stroke-miterlimit="10" stroke-linecap="round" stroke-linejoin="round"/>
<path d="M265.957 198.496C253.457 194.688 239.98 200.151 233.66 211.594L209.02 256.17C208.262 257.327 207.026 257.147 206.647 256.051L194.965 223.655C193.39 219.289 194.467 214.325 197.935 211.235C204.375 205.493 207.026 196.203 203.936 187.611C202.919 184.78 201.344 182.228 199.271 180.035C197.377 178.022 194.566 177.404 192.114 178.201C191.337 175.729 189.203 173.815 186.472 173.436C182.983 172.958 179.395 173.317 176.086 174.513C170.464 176.546 166.197 180.653 163.805 185.677L157.645 168.552C156.429 165.163 152.761 163.17 149.352 164.286C145.823 165.442 143.969 169.27 145.205 172.739L153 194.389C153.119 194.708 152.94 195.067 152.621 195.167C152.302 195.286 151.943 195.107 151.844 194.788V194.768L145.823 178.042C144.607 174.653 140.939 172.659 137.53 173.775C134.001 174.932 132.147 178.759 133.383 182.228L139.503 199.233L146.142 217.694L176.903 303.06C183.542 321.46 205.75 329.754 223.334 318.43C227.6 315.679 231.148 311.911 233.9 307.645L277.101 237.59C286.012 223.874 280.749 205.454 265.957 198.496ZM176.006 197.679C174.531 193.572 176.664 189.026 180.77 187.551C181.987 187.113 183.262 186.973 184.538 187.152C185.615 187.312 186.672 187.192 187.628 186.893C187.927 187.87 188.466 188.787 189.203 189.565C189.961 190.362 190.519 191.279 190.898 192.316C192.373 196.423 190.24 200.968 186.133 202.443C182.046 203.918 177.501 201.785 176.006 197.679Z" fill="#FFE4EE"/>
<path d="M191.377 179.775C191.496 181.809 190.46 183.802 188.706 184.839" stroke="#FFBED2" stroke-width="1.88394" stroke-miterlimit="10" stroke-linecap="round" stroke-linejoin="round"/>
<path d="M207.564 259.738L207.345 265.241" stroke="#FFBED2" stroke-width="1.88394" stroke-miterlimit="10" stroke-linecap="round" stroke-linejoin="round"/>
<path d="M214.761 245.803L257.025 270.184L267.472 253.239L224.39 228.379L214.761 245.803Z" fill="#FFCDDC"/>
<path d="M281.507 215.201C279.274 207.386 273.792 200.927 266.435 197.478L266.296 197.418C253.357 193.491 239.223 199.212 232.704 211.034L216.576 240.22C216.237 240.858 216.436 241.636 217.054 242.015L259.418 267.254C260.056 267.632 260.873 267.413 261.252 266.775L278.078 238.187C282.464 231.389 283.72 223.016 281.507 215.201Z" fill="#32D7E1"/>
</g>
</svg>
