<svg width="382" height="348" viewBox="0 0 382 348" fill="none" xmlns="http://www.w3.org/2000/svg">
<mask id="mask0" mask-type="alpha" maskUnits="userSpaceOnUse" x="0" y="0" width="382" height="348">
<path d="M382 324C382 337.255 371.255 348 358 348L24 348C10.7452 348 2.95782e-05 337.255 2.84194e-05 324L2.19259e-06 24C1.03382e-06 10.7452 10.7452 1.93855e-06 24 7.79773e-07L358 -2.84194e-05C371.255 -2.95782e-05 382 10.7451 382 24L382 324Z" fill="#32BECD"/>
</mask>
<g mask="url(#mask0)">
<path d="M366.557 229.525L324.513 230.24C331.861 262.626 326.122 297.576 330.59 347.913H382.39C382.322 347.072 382.269 346.229 382.254 345.384C377.515 286.752 374.048 259.932 366.557 229.525Z" fill="#FFE4EE"/>
<path d="M222.408 297.463L231.079 248.453L191.154 240.255L183.823 280.884C183.667 281.751 182.423 281.748 182.27 280.882L169.069 206.236C168.443 202.692 168.286 199.08 168.599 195.493L169.867 181.01C170.116 178.147 168.501 175.318 165.779 174.402C161.778 173.056 158.042 176.043 157.703 179.905L155.765 202.044L144.192 180.097C142.765 177.042 139.133 175.721 136.078 177.146C133.021 178.571 131.698 182.207 133.125 185.267L143.554 204.785C134.898 208.534 129.611 217.841 131.32 227.539L143.676 297.454C147.051 316.553 163.647 330.475 183.042 330.475C202.435 330.475 219.028 316.559 222.408 297.463Z" fill="#FFE4EE"/>
<path d="M140.977 225.958L133.646 210.237C132.221 207.18 133.544 203.546 136.599 202.121C139.657 200.696 143.29 202.018 144.715 205.074L152.047 220.795C153.472 223.852 152.149 227.486 149.094 228.911C146.036 230.336 142.403 229.016 140.977 225.958Z" fill="#FFE4EE"/>
<path d="M146.428 208.749L152.046 220.798C153.472 223.855 152.149 227.489 149.093 228.914C146.036 230.339 142.402 229.017 140.977 225.961L137.337 218.154" stroke="#FFBED2" stroke-width="1.75925" stroke-miterlimit="10" stroke-linecap="round" stroke-linejoin="round"/>
<path d="M167.906 218.464L164.266 210.66C162.841 207.602 159.207 206.279 156.15 207.707C153.092 209.132 151.769 212.766 153.197 215.823L158.815 227.872C155.42 228.471 153.154 231.708 153.751 235.101L154.035 236.714" stroke="#FFBED2" stroke-width="1.75925" stroke-miterlimit="10" stroke-linecap="round" stroke-linejoin="round"/>
<path d="M227.953 266.123L231.079 248.452L191.154 240.255L188.935 252.543C201.712 255.668 214.755 260.783 227.953 266.123Z" fill="#FFCDDC"/>
<path d="M368.858 239.338L328.315 247.619C329.635 253.911 330.922 260.37 332.166 267.082C345.52 261.262 358.709 255.518 371.568 252.541C370.727 248.065 369.829 243.697 368.858 239.338Z" fill="#FFCDDC"/>
<path d="M217.796 254.18C220.325 254.841 222.021 257.216 221.827 259.824L215.686 342.095C215.451 345.236 217.937 347.916 221.088 347.916H341.42C344.625 347.916 347.127 345.148 346.81 341.961L338.616 260.003C338.347 257.319 340.095 254.846 342.715 254.204L371.677 247.094C374.297 246.452 376.107 243.971 375.791 241.293C372.746 215.369 344.768 193.945 307.397 186.964C305.184 186.55 303.428 184.862 303.006 182.651C302.647 180.774 301.341 179.178 299.53 178.57C287.385 174.482 275.249 174.486 263.126 178.57C261.314 179.18 260.008 180.774 259.65 182.651C259.23 184.864 257.474 186.552 255.259 186.966C217.856 193.953 189.862 215.409 186.858 241.361C186.551 244.009 188.315 246.469 190.895 247.143L217.796 254.18Z" fill="#32D7E1"/>
<path d="M302.985 192.908L294.988 203.696C293.705 205.426 291.198 205.642 289.641 204.155L283.886 198.667C282.453 197.299 280.199 197.299 278.766 198.667L273.011 204.155C271.454 205.64 268.944 205.424 267.664 203.696L259.667 192.908" stroke="#32BECD" stroke-width="1.75925" stroke-miterlimit="10" stroke-linecap="round" stroke-linejoin="round"/>
<path d="M281.29 207.25C282.211 207.25 282.958 206.503 282.958 205.581C282.958 204.66 282.211 203.913 281.29 203.913C280.368 203.913 279.621 204.66 279.621 205.581C279.621 206.503 280.368 207.25 281.29 207.25Z" fill="white"/>
<path d="M281.29 212.346C282.211 212.346 282.958 211.599 282.958 210.678C282.958 209.756 282.211 209.009 281.29 209.009C280.368 209.009 279.621 209.756 279.621 210.678C279.621 211.599 280.368 212.346 281.29 212.346Z" fill="white"/>
<path d="M296.954 139.443H265.348L262.502 178.336C261.206 189.488 269.922 191.176 281.15 191.176C292.377 191.176 301.095 189.488 299.798 178.336L296.954 139.443Z" fill="#FFDAE4"/>
<path d="M289.731 158.293C283.755 163.036 275.685 178.983 273.923 190.814C267.375 190.014 262.758 187.631 262.399 181.253C262.416 180.052 262.444 179.07 262.485 178.548C262.493 178.475 262.495 178.407 262.504 178.334L263.901 159.225L289.731 158.293Z" fill="#FFCDDC"/>
<path d="M236.34 117.918C236.084 97.2703 253.115 80.4357 273.995 81.1868C292.515 81.8525 307.86 96.9097 308.891 115.413C309.364 123.913 306.891 131.823 302.398 138.226C298.419 143.899 294.86 149.841 291.215 155.734C285.388 165.163 274.396 171.08 262.129 169.482C250.273 167.937 240.379 159.044 237.505 147.437C236.677 144.095 236.455 140.833 236.728 137.709C237.245 131.816 236.848 125.897 236.425 119.996C236.376 119.309 236.349 118.615 236.34 117.918Z" fill="#FFE4EE"/>
<path d="M297.975 153.405C297.977 153.402 302.714 145.922 308.161 136.542C313.222 127.826 314.72 118.795 314.116 108.905C313.512 99.0178 306.209 89.7982 302.355 86.0302C298.502 82.2622 290.381 77.295 283.01 75.6777C275.638 74.0604 276.137 75.8484 274.23 75.9423C272.322 76.0383 272.322 75.0014 270.287 75.0014C268.251 75.0014 250.288 74.6493 240.625 85.2322C230.959 95.8151 229.397 105.592 233.172 119.727C236.449 132.01 236.936 131.746 236.955 132.648C237.401 126.939 236.833 125.71 236.426 119.994C236.376 119.307 236.349 118.613 236.34 117.916C236.34 117.901 236.34 117.886 236.34 117.871C236.319 115.5 238.634 113.802 240.9 114.493L249.473 117.109C250.339 117.352 251.054 116.409 250.589 115.641L249.812 114.354L261.323 117.583C262.189 117.826 262.904 116.883 262.439 116.115L261.662 114.828L273.173 118.056C274.04 118.3 274.755 117.359 274.289 116.588L273.513 115.302L273.942 115.419C284.894 118.406 293.642 118.767 296.494 139.442" fill="#2D2D37"/>
<path d="M293.924 130.357C293.877 126.555 296.696 123.459 300.158 123.602C303.229 123.728 305.776 126.504 305.951 129.911C306.032 131.477 305.623 132.932 304.88 134.11C304.221 135.154 303.634 136.248 303.03 137.332C302.066 139.067 300.246 140.153 298.213 139.856C296.247 139.568 294.605 137.929 294.124 135.791C293.986 135.177 293.95 134.575 293.994 134.001C294.08 132.915 294.011 131.827 293.941 130.739C293.93 130.613 293.924 130.487 293.924 130.357Z" fill="#FFE4EE"/>
<path d="M249.167 133.319C251.346 133.319 253.112 130.86 253.112 127.825C253.112 124.791 251.346 122.331 249.167 122.331C246.988 122.331 245.222 124.791 245.222 127.825C245.222 130.86 246.988 133.319 249.167 133.319Z" fill="white"/>
<path d="M268.751 133.319C270.929 133.319 272.696 130.86 272.696 127.825C272.696 124.791 270.929 122.331 268.751 122.331C266.572 122.331 264.805 124.791 264.805 127.825C264.805 130.86 266.572 133.319 268.751 133.319Z" fill="white"/>
<path d="M247.654 131.213C248.997 131.213 250.085 129.697 250.085 127.827C250.085 125.957 248.997 124.441 247.654 124.441C246.312 124.441 245.224 125.957 245.224 127.827C245.224 129.697 246.312 131.213 247.654 131.213Z" fill="#2D2D37"/>
<path d="M267.161 131.106C268.461 131.106 269.514 129.637 269.514 127.826C269.514 126.015 268.461 124.547 267.161 124.547C265.861 124.547 264.807 126.015 264.807 127.826C264.807 129.637 265.861 131.106 267.161 131.106Z" fill="#2D2D37"/>
<path d="M258.621 151.952C260.527 151.929 262.035 149.022 261.991 145.46C261.947 141.898 260.367 139.03 258.461 139.053C256.556 139.077 255.048 141.984 255.092 145.546C255.136 149.107 256.716 151.976 258.621 151.952Z" fill="#FF7BA4"/>
<path d="M301.217 130.115L300.289 131.065C299.348 132.029 299.367 133.572 300.331 134.513" stroke="#FFBED2" stroke-width="1.75925" stroke-miterlimit="10" stroke-linecap="round" stroke-linejoin="round"/>
<path d="M258.777 134.965C256.464 135.023 254.544 133.192 254.487 130.879C254.429 128.566 257.668 127.128 258.573 126.588V123.744" stroke="#FFBED2" stroke-width="1.75925" stroke-miterlimit="10" stroke-linecap="round" stroke-linejoin="round"/>
</g>
</svg>
