<svg width="382" height="348" viewBox="0 0 382 348" fill="none" xmlns="http://www.w3.org/2000/svg">
<mask id="mask0" mask-type="alpha" maskUnits="userSpaceOnUse" x="0" y="0" width="382" height="348">
<path d="M382 348L3.05176e-05 348L2.19259e-06 24C1.03382e-06 10.7452 10.7452 3.25381e-05 24 3.13794e-05L358 2.18017e-06C371.255 1.02139e-06 382 10.7452 382 24L382 348Z" fill="#1EB4BE"/>
</mask>
<g mask="url(#mask0)">
<g filter="url(#filter0_d)">
<path d="M332 40H192C180.954 40 172 48.9543 172 60V200C172 211.046 180.954 220 192 220H332C343.046 220 352 211.046 352 200V60C352 48.9543 343.046 40 332 40Z" fill="#FFDCE6"/>
<path d="M286.263 147.389L253.483 148.267L251.434 189.828C250.264 201.535 259.629 202.999 271.044 202.706C282.751 202.413 291.824 200.365 290.068 188.95L286.263 147.389Z" fill="#FFDBE5"/>
<path d="M279.239 167.291C273.093 172.267 265.19 190.12 263.727 202.706C256.995 202.12 252.02 199.779 251.434 193.047C251.434 191.876 251.434 190.706 251.434 190.12C251.434 190.12 251.434 190.12 251.434 189.828L252.312 168.754L279.239 167.291Z" fill="#FFD0DD"/>
<path d="M223.336 126.023C222.751 104.657 240.312 86.8035 261.971 87.3889C281.288 87.9742 297.385 103.194 298.848 122.511C299.434 131.291 297.092 139.486 292.409 146.218C288.312 152.072 284.8 158.511 280.995 164.657C275.141 174.608 263.727 180.754 250.849 179.291C238.556 177.828 228.019 168.755 224.8 156.755C223.922 153.242 223.629 150.023 223.922 146.511C224.507 140.364 223.922 134.218 223.336 128.072C223.629 127.486 223.629 126.608 223.336 126.023Z" fill="#FFE5EF"/>
<path d="M283.922 123.389L301.483 125.145C299.727 140.657 286.849 154.706 286.849 154.706L284.507 147.974C281.58 139.194 284.214 131.877 283.922 123.389Z" fill="#5A5A5A"/>
<path d="M247.63 109.048C247.63 109.048 255.532 106.414 260.8 110.219C264.605 112.853 254.069 102.609 254.069 102.609L235.337 103.195L234.459 109.634C234.166 109.341 242.069 104.365 247.63 109.048Z" fill="#5A5A5A"/>
<path d="M280.702 129.244C266.654 128.658 263.434 115.781 260.8 109.927C258.459 104.951 250.849 104.366 247.922 108.756C244.995 104.366 238.849 104.366 235.922 108.756C233.873 111.683 232.41 115.488 230.654 119.293C229.19 123.097 228.02 125.439 224.8 126.024C224.215 126.024 223.922 126.61 223.922 127.195C224.215 128.951 224.215 131.878 224.215 131.878C212.507 130.707 216.605 81.2439 244.117 78.3171C254.361 77.1463 257.58 79.4879 258.459 80.9513C258.751 81.244 259.337 81.5366 259.629 81.2439C260.8 80.3658 262.849 78.9025 266.654 78.9025C274.849 78.9025 287.434 85.3415 293.288 90.6097C303.239 99.9756 305.873 121.341 302.946 125.439C299.141 129.537 293.58 129.537 280.702 129.244Z" fill="#333333"/>
<path d="M282.166 138.317C282.166 134.22 285.093 131 288.605 131.293C291.825 131.293 294.459 134.22 294.751 137.732C294.751 139.488 294.459 140.951 293.581 142.122C292.995 143.293 292.41 144.463 291.825 145.634C290.946 147.39 288.898 148.561 286.849 148.268C284.8 147.976 283.044 146.22 282.459 144.171C282.166 143.585 282.166 143 282.166 142.415C282.166 141.244 282.166 140.073 282.166 138.903C282.166 138.61 282.166 138.317 282.166 138.317Z" fill="#FFE5EF"/>
<path d="M237.971 140.367C240.234 140.367 242.069 137.746 242.069 134.513C242.069 131.28 240.234 128.659 237.971 128.659C235.708 128.659 233.874 131.28 233.874 134.513C233.874 137.746 235.708 140.367 237.971 140.367Z" fill="white"/>
<path d="M258.459 140.367C260.722 140.367 262.556 137.746 262.556 134.513C262.556 131.28 260.722 128.659 258.459 128.659C256.196 128.659 254.361 131.28 254.361 134.513C254.361 137.746 256.196 140.367 258.459 140.367Z" fill="white"/>
<path d="M236.508 138.024C237.962 138.024 239.142 136.452 239.142 134.512C239.142 132.572 237.962 131 236.508 131C235.053 131 233.874 132.572 233.874 134.512C233.874 136.452 235.053 138.024 236.508 138.024Z" fill="#333333"/>
<path d="M256.996 138.024C258.289 138.024 259.337 136.452 259.337 134.512C259.337 132.572 258.289 131 256.996 131C255.703 131 254.654 132.572 254.654 134.512C254.654 136.452 255.703 138.024 256.996 138.024Z" fill="#333333"/>
<path d="M339.239 347.707V348H296.215C297.093 330.439 293.581 308.365 288.898 291.389L268.995 220.267L293.288 212.658C302.946 209.731 313.19 215.292 315.824 224.95L333.385 289.048C336.605 301.926 339.824 334.244 339.239 347.707Z" fill="#FFE5EF"/>
<path d="M292.117 190.536C281.873 185.56 269.874 184.975 259.044 189.365C242.069 196.097 230.069 211.023 226.849 229.17L207.24 340.682C206.654 344.486 209.581 347.999 213.386 347.999H323.727C327.532 347.999 330.459 344.779 329.873 340.974L314.947 222.145C312.898 208.389 304.41 196.682 292.117 190.536Z" fill="#FF5F87"/>
<path d="M271.922 241.633L233.874 301.926C233.874 301.926 277.19 297.828 277.19 238.707L271.922 241.633Z" fill="#F05078"/>
<path d="M241.776 148.56C242.361 154.413 245.288 158.804 248.215 158.511C251.434 158.218 253.483 153.243 252.898 147.389L241.776 148.56Z" fill="#FF97BF"/>
<path d="M247.922 133.341C247.922 133.341 248.801 132.755 247.922 133.341C247.044 133.926 243.532 135.39 243.532 137.731C243.532 140.072 245.581 142.121 247.922 142.121" stroke="#FFBED7" stroke-width="0.6298" stroke-miterlimit="10" stroke-linecap="round" stroke-linejoin="round"/>
<path d="M288.019 142.414C287.141 141.536 287.141 139.78 288.019 138.902L289.19 137.731" stroke="#FFBED7" stroke-width="0.6298" stroke-miterlimit="10" stroke-linecap="round" stroke-linejoin="round"/>
<path d="M264.605 200.951C252.312 197.146 239.141 202.707 232.995 213.829L208.995 257.439C208.117 258.609 206.946 258.317 206.654 257.439L195.239 225.829C193.776 221.439 194.654 216.756 198.166 213.536C204.605 207.975 206.946 198.902 204.02 190.415C203.141 187.78 201.385 185.146 199.337 183.097C197.581 181.049 194.654 180.463 192.312 181.341C191.434 179 189.385 176.951 186.751 176.658C183.239 176.073 179.727 176.658 176.507 177.829C170.946 179.878 166.849 183.975 164.507 188.658L158.361 171.975C157.19 168.756 153.678 166.707 150.166 167.878C146.654 169.049 144.898 172.854 146.068 176.073L153.678 197.146C153.678 197.439 153.678 197.732 153.386 198.024C153.093 198.317 152.8 198.024 152.507 197.732L146.654 181.341C145.483 178.122 141.971 176.073 138.459 177.244C134.947 178.415 133.19 182.219 134.361 185.439L140.215 202.122L146.654 220.268L176.8 303.682C183.239 321.829 204.898 329.731 222.166 318.609C226.263 315.975 229.776 312.17 232.41 308.073L274.556 239.585C284.214 225.829 278.946 207.975 264.605 200.951ZM176.507 200.366C175.044 196.268 177.093 191.878 181.19 190.415C182.361 190.122 183.532 189.829 184.995 190.122C186.166 190.414 187.044 190.122 187.922 189.829C188.215 190.707 188.8 191.585 189.385 192.463C190.263 193.341 190.556 194.219 191.142 195.097C192.605 199.195 190.556 203.585 186.459 205.049C182.361 206.512 177.971 204.17 176.507 200.366Z" fill="#FFE5EF"/>
<path d="M191.435 182.806C191.435 184.854 190.557 186.61 188.801 187.781" stroke="#FFBED7" stroke-width="0.6298" stroke-miterlimit="10" stroke-linecap="round" stroke-linejoin="round"/>
<path d="M207.532 260.949L207.239 266.51" stroke="#FFBED7" stroke-width="0.6298" stroke-miterlimit="10" stroke-linecap="round" stroke-linejoin="round"/>
<path d="M214.556 247.193L255.824 271.193L266.068 254.51L223.922 230.218L214.556 247.193Z" fill="#FFD0DD"/>
<path d="M279.824 217.341C277.775 209.732 272.214 203.293 265.19 200.073C252.605 196.268 238.556 201.829 232.41 213.537L216.02 243.098L259.629 269.146L276.897 240.171C280.702 233.439 281.873 224.951 279.824 217.341Z" fill="#FF5F87"/>
</g>
</g>
<defs>
<filter id="filter0_d" x="118" y="28" width="250" height="340" filterUnits="userSpaceOnUse" color-interpolation-filters="sRGB">
<feFlood flood-opacity="0" result="BackgroundImageFix"/>
<feColorMatrix in="SourceAlpha" type="matrix" values="0 0 0 0 0 0 0 0 0 0 0 0 0 0 0 0 0 0 127 0"/>
<feOffset dy="4"/>
<feGaussianBlur stdDeviation="8"/>
<feColorMatrix type="matrix" values="0 0 0 0 0 0 0 0 0 0 0 0 0 0 0 0 0 0 0.08 0"/>
<feBlend mode="normal" in2="BackgroundImageFix" result="effect1_dropShadow"/>
<feBlend mode="normal" in="SourceGraphic" in2="effect1_dropShadow" result="shape"/>
</filter>
</defs>
</svg>
