<svg width="382" height="349" viewBox="0 0 382 349" fill="none" xmlns="http://www.w3.org/2000/svg">
<mask id="mask0" mask-type="alpha" maskUnits="userSpaceOnUse" x="0" y="0" width="382" height="348">
<path d="M382 324C382 337.255 371.255 348 358 348L24 348C10.7452 348 2.95782e-05 337.255 2.84194e-05 324L2.19259e-06 24C1.03382e-06 10.7452 10.7452 1.93855e-06 24 7.79773e-07L358 -2.84194e-05C371.255 -2.95782e-05 382 10.7451 382 24L382 324Z" fill="#FFB428"/>
</mask>
<g mask="url(#mask0)">
<path d="M317.389 221.648C314.69 211.842 304.376 206.235 294.685 209.281L269.513 217.172L287.579 282.169C292.447 299.682 296.185 326.562 297.039 348.205H341.547C341.224 331.269 338.363 299.359 335.594 287.522L317.389 221.648Z" fill="#FFE4EE"/>
<path d="M288.225 145.738H254.723L251.7 186.946C250.316 198.76 259.568 200.56 271.474 200.56C283.379 200.56 292.609 198.76 291.247 186.946L288.225 145.738Z" fill="#FFDAE4"/>
<path d="M280.565 165.719C274.243 170.749 265.683 187.638 263.814 200.19C256.869 199.337 251.978 196.822 251.608 190.061C251.631 188.792 251.654 187.754 251.701 187.2C251.701 187.131 251.701 187.062 251.724 186.969L253.2 166.711L280.565 165.719Z" fill="#FFCDDC"/>
<path d="M224.797 122.249C224.797 100.376 243.071 82.748 265.175 83.8324C284.787 84.7784 300.846 100.93 301.7 120.565C302.092 129.587 299.369 137.916 294.524 144.653C290.232 150.606 286.379 156.859 282.457 163.066C276.158 172.987 264.437 179.101 251.446 177.256C238.895 175.456 228.535 165.904 225.651 153.583C224.82 150.029 224.635 146.568 224.958 143.269C225.581 137.039 225.235 130.763 224.866 124.487C224.82 123.726 224.797 122.988 224.797 122.249Z" fill="#FFE4EE"/>
<path d="M262.037 136.716C264.229 136.716 266.005 134.216 266.005 131.133C266.005 128.049 264.229 125.549 262.037 125.549C259.845 125.549 258.068 128.049 258.068 131.133C258.068 134.216 259.845 136.716 262.037 136.716Z" fill="white"/>
<path d="M260.768 135.263C262.259 135.263 263.467 133.455 263.467 131.225C263.467 128.995 262.259 127.187 260.768 127.187C259.277 127.187 258.068 128.995 258.068 131.225C258.068 133.455 259.277 135.263 260.768 135.263Z" fill="#2D2D37"/>
<path d="M240.141 136.716C242.332 136.716 244.109 134.216 244.109 131.133C244.109 128.049 242.332 125.549 240.141 125.549C237.949 125.549 236.172 128.049 236.172 131.133C236.172 134.216 237.949 136.716 240.141 136.716Z" fill="white"/>
<path d="M238.871 135.263C240.362 135.263 241.571 133.455 241.571 131.225C241.571 128.995 240.362 127.187 238.871 127.187C237.381 127.187 236.172 128.995 236.172 131.225C236.172 133.455 237.381 135.263 238.871 135.263Z" fill="#2D2D37"/>
<path d="M232.803 99.9143C228.004 99.9143 224.151 103.86 224.266 108.659C224.451 116.85 224.82 127.741 225.166 130.994C225.189 131.271 225.212 131.524 225.235 131.709C227.289 130.302 228.558 128.04 228.696 125.572L229.388 113.435C229.55 110.643 230.773 108.013 232.803 106.121V99.9143Z" fill="#5A5A6B"/>
<path d="M247.916 161.474C249.93 161.474 251.562 158.416 251.562 154.644C251.562 150.872 249.93 147.814 247.916 147.814C245.903 147.814 244.271 150.872 244.271 154.644C244.271 158.416 245.903 161.474 247.916 161.474Z" fill="#FF7BA4"/>
<path d="M249.831 140.454C247.34 140.523 245.286 138.562 245.217 136.07C245.148 133.578 248.632 132.032 249.601 131.456V126.033" stroke="#FFBED2" stroke-width="1.88969" stroke-miterlimit="10" stroke-linecap="round" stroke-linejoin="round"/>
<path d="M292.793 86.6011C292.539 86.6011 242.424 92.0925 242.424 92.0925C242.424 92.0925 241.478 106.098 245.239 106.098C249 106.121 258.414 105.152 262.036 105.152L266.974 104.091C271.681 105.913 274.981 112.282 275.419 117.311L275.927 123.31C276.25 127.233 278.303 130.786 281.533 133.024L284.971 142.046L288.755 153.144C291.04 149.591 295.1 146.291 298.4 140.454C304.722 129.171 305.299 113.689 304.907 104.667" fill="#5A5A6B"/>
<path d="M305.945 91.0774C302.138 81.2483 283.933 71.2115 276.665 75.5723C270.666 71.0269 260.375 70.2423 254.445 71.6037C238.848 75.2031 230.357 83.7863 227.657 80.5099C227.103 79.8408 226.088 79.8869 225.488 80.5099C220.459 85.7475 218.013 95.4383 221.451 102.914C222.604 105.406 224.773 107.275 227.381 108.059C235.895 110.597 260.767 115.074 266.974 104.068C271.404 115.397 288.916 113.943 303.337 109.859C304.375 109.559 305.206 108.751 305.506 107.713C307.029 101.945 307.306 94.6307 305.945 91.0774Z" fill="#2D2D37"/>
<path d="M281.51 132.632C281.51 128.594 284.533 125.364 288.202 125.549C291.455 125.733 294.108 128.687 294.247 132.309C294.316 133.971 293.854 135.516 293.047 136.739C292.332 137.847 291.709 138.977 291.039 140.131C290.001 141.954 288.04 143.084 285.894 142.738C283.818 142.415 282.087 140.639 281.626 138.377C281.487 137.731 281.464 137.085 281.51 136.486C281.603 135.332 281.557 134.178 281.487 133.025C281.51 132.909 281.51 132.771 281.51 132.632Z" fill="#FFE4EE"/>
<path d="M289.24 132.47L288.248 133.462C287.233 134.478 287.233 136.116 288.248 137.108" stroke="#FFBED2" stroke-width="1.88969" stroke-miterlimit="10" stroke-linecap="round" stroke-linejoin="round"/>
<path d="M293.463 186.854C282.849 181.686 270.528 181.247 259.568 185.631C242.264 192.553 229.781 207.943 226.528 226.286L206.292 340.636C205.6 344.582 208.623 348.204 212.638 348.204H325.627C329.503 348.204 332.503 344.813 332.018 340.959L316.674 219.272C314.921 205.243 306.176 193.061 293.463 186.854Z" fill="#FFD25F"/>
<path d="M272.766 239.23L233.772 301.089C233.772 301.089 278.211 296.843 278.211 236.438L272.766 239.23Z" fill="#FFB428"/>
<path d="M265.336 197.837C252.784 194.007 239.287 199.498 232.941 210.966L208.23 255.681C207.469 256.835 206.246 256.651 205.854 255.566L194.156 223.079C192.587 218.695 193.671 213.734 197.132 210.62C203.592 204.851 206.246 195.53 203.154 186.923C202.139 184.085 200.547 181.524 198.47 179.332C196.578 177.325 193.74 176.702 191.294 177.487C190.51 175.018 188.364 173.08 185.642 172.71C182.134 172.226 178.535 172.595 175.236 173.795C169.606 175.825 165.314 179.955 162.914 184.985L156.731 167.819C155.508 164.427 151.839 162.42 148.401 163.527C144.848 164.681 143.002 168.534 144.248 172.018L152.07 193.73C152.185 194.053 152.024 194.399 151.701 194.515C151.378 194.63 151.032 194.468 150.916 194.145C150.916 194.145 150.916 194.145 150.916 194.122L144.871 177.348C143.648 173.956 139.98 171.949 136.542 173.057C132.989 174.21 131.143 178.063 132.389 181.547L138.526 198.598L145.194 217.103L176.043 302.728C182.688 321.186 204.977 329.516 222.605 318.14C226.896 315.372 230.427 311.611 233.218 307.319L276.55 237.038C285.456 223.287 280.172 204.805 265.336 197.837ZM175.12 197.006C173.644 192.876 175.789 188.331 179.896 186.854C181.119 186.416 182.388 186.277 183.68 186.462C184.765 186.623 185.826 186.508 186.795 186.185C187.095 187.154 187.626 188.077 188.364 188.862C189.126 189.669 189.702 190.592 190.072 191.63C191.548 195.761 189.402 200.306 185.295 201.783C181.188 203.259 176.597 201.136 175.12 197.006Z" fill="#FFE4EE"/>
<path d="M190.533 179.055C190.648 181.086 189.61 183.093 187.856 184.132" stroke="#FFBED2" stroke-width="1.88969" stroke-miterlimit="10" stroke-linecap="round" stroke-linejoin="round"/>
<path d="M206.777 259.258L206.546 264.772" stroke="#FFBED2" stroke-width="1.88969" stroke-miterlimit="10" stroke-linecap="round" stroke-linejoin="round"/>
<path d="M213.999 245.275L256.384 269.756L266.86 252.751L223.667 227.809L213.999 245.275Z" fill="#FFCDDC"/>
<path d="M280.934 214.588C278.696 206.766 273.181 200.283 265.821 196.822L265.683 196.776C252.716 192.83 238.526 198.575 231.973 210.435L215.799 239.715C215.452 240.338 215.66 241.145 216.283 241.514L258.784 266.826C259.43 267.195 260.237 266.987 260.63 266.364L277.496 237.684C281.903 230.832 283.149 222.41 280.934 214.588Z" fill="#FFD25F"/>
</g>
</svg>
