<svg width="382" height="348" viewBox="0 0 382 348" fill="none" xmlns="http://www.w3.org/2000/svg">
<mask id="mask0" mask-type="alpha" maskUnits="userSpaceOnUse" x="0" y="0" width="382" height="348">
<path d="M382 324C382 337.255 371.255 348 358 348L24 348C10.7452 348 2.95782e-05 337.255 2.84194e-05 324L2.19259e-06 24C1.03382e-06 10.7452 10.7452 1.93855e-06 24 7.79773e-07L358 -2.84194e-05C371.255 -2.95782e-05 382 10.7451 382 24L382 324Z" fill="#F04682"/>
</mask>
<g mask="url(#mask0)">
<path d="M105.69 227.151L80.91 228.606C77.3216 228.826 74.2315 226.074 74.0123 222.486C73.793 218.898 76.5441 215.807 80.1326 215.588L110.834 213.774C116.276 213.455 121.639 214.013 126.743 215.349C130.052 216.226 132.903 212.857 131.567 209.707L127.839 200.856C126.603 197.466 128.338 193.719 131.727 192.482C135.116 191.246 138.864 192.981 140.1 196.37L158.58 240.269C159.039 241.106 159.477 241.963 159.896 242.84L165.02 254.363L179.652 291.763C180.091 292.74 181.566 292.461 181.586 291.384L182.583 252.589L223.472 255.719L221.877 304.183C221.219 324.099 205.489 340.247 185.593 341.423C169.146 342.4 153.756 333.23 146.778 318.298L122.716 262.876C121.181 259.347 117.632 257.174 113.784 257.394C110.794 257.573 107.903 256.277 106.069 253.925L101.922 248.642L109.498 243L105.69 227.151Z" fill="#FFE4EE"/>
<path d="M112.309 239.691L98.6332 240.488C95.0448 240.707 91.9547 237.956 91.7354 234.368C91.5161 230.779 94.2672 227.689 97.8557 227.47L111.532 226.672C115.12 226.453 118.21 229.204 118.43 232.793C118.649 236.381 115.898 239.471 112.309 239.691Z" fill="#FFE4EE"/>
<path d="M116.616 252.489L102.94 253.287C99.3511 253.506 96.2611 250.755 96.0418 247.167C95.8225 243.578 98.5736 240.488 102.162 240.269L115.838 239.471C119.427 239.252 122.517 242.003 122.736 245.592C122.955 249.2 120.204 252.29 116.616 252.489Z" fill="#FFE4EE"/>
<path d="M97.856 227.47L111.532 226.672C115.12 226.453 118.21 229.204 118.43 232.793C118.649 236.381 115.898 239.471 112.309 239.691" stroke="#FFBED2" stroke-width="1.88394" stroke-miterlimit="10" stroke-linecap="round" stroke-linejoin="round"/>
<path d="M104.076 240.169L115.858 239.471C119.446 239.252 122.536 242.003 122.756 245.592C122.975 249.18 120.224 252.27 116.635 252.489" stroke="#FFBED2" stroke-width="1.88394" stroke-miterlimit="10" stroke-linecap="round" stroke-linejoin="round"/>
<path d="M132.643 222.984C132.643 222.984 129.274 244.455 138.325 248.722" stroke="#FFBED2" stroke-width="1.88394" stroke-miterlimit="10" stroke-linecap="round" stroke-linejoin="round"/>
<path d="M181.626 295.531L182.284 300.993" stroke="#FFBED2" stroke-width="1.88394" stroke-miterlimit="10" stroke-linecap="round" stroke-linejoin="round"/>
<path d="M182.582 252.569L223.471 255.699L222.713 278.625C212.845 272.246 197.714 266.923 182.283 264.311L182.582 252.569Z" fill="#FFCDDC"/>
<path d="M222.534 272.903C222.474 270.81 220.979 269.015 218.925 268.617L180.449 260.822C178.296 260.383 176.761 258.449 176.841 256.256C177.817 228.924 213.024 204.363 254.331 195.512L255.528 191.026C255.807 188.953 257.621 187.338 259.834 187.218L297.971 184.966C300.184 184.826 302.158 186.222 302.696 188.235L304.57 192.98C345.558 197.505 381.921 217.481 385.988 243.936C386.327 246.089 385.031 248.182 382.958 248.88L352.217 259.127C350.542 259.685 349.386 261.161 349.166 262.855L348.828 265.945C343.724 298.441 351.459 326.969 348.329 343.117C348.568 345.35 351.04 348.719 346.515 348.46L222.912 348.44C221.098 348.44 219.643 346.925 219.703 345.111L222.534 272.903Z" fill="#FF6991"/>
<path d="M276.559 216.404C277.484 216.404 278.234 215.654 278.234 214.729C278.234 213.804 277.484 213.055 276.559 213.055C275.635 213.055 274.885 213.804 274.885 214.729C274.885 215.654 275.635 216.404 276.559 216.404Z" fill="white"/>
<path d="M276.559 221.588C277.484 221.588 278.234 220.838 278.234 219.913C278.234 218.988 277.484 218.238 276.559 218.238C275.635 218.238 274.885 218.988 274.885 219.913C274.885 220.838 275.635 221.588 276.559 221.588Z" fill="white"/>
<path d="M254.988 202.947L262.703 218.756" stroke="#F04682" stroke-width="1.88394" stroke-miterlimit="10" stroke-linecap="round" stroke-linejoin="round"/>
<path d="M268.325 216.405L271.694 212.557C273.907 210.045 277.735 209.786 280.247 211.999L287.703 218.538C288.52 219.276 289.796 219.176 290.494 218.319L303.652 202.111" stroke="#F04682" stroke-width="1.88394" stroke-miterlimit="10" stroke-linecap="round" stroke-linejoin="round"/>
<path d="M296.395 149.28H262.584L259.534 188.375C258.138 200.296 267.468 202.11 279.47 202.11C291.471 202.11 300.801 200.296 299.406 188.375L296.395 149.28Z" fill="#FFDAE4"/>
<path d="M288.681 169.436C282.282 174.499 273.65 189.052 271.776 201.712C264.778 200.855 259.834 198.303 259.455 191.485C259.475 190.209 259.495 189.152 259.555 188.594C259.555 188.514 259.575 188.434 259.575 188.375L261.07 170.452L288.681 169.436Z" fill="#FFCDDC"/>
<path d="M232.681 128.687C232.681 106.598 251.122 88.8347 273.43 89.9112C293.226 90.8681 309.434 107.176 310.292 126.972C310.69 136.063 307.939 144.496 303.055 151.274C298.729 157.295 293.884 161.66 289.897 167.92C283.538 177.928 269.363 182.952 258.099 180.46C246.836 177.968 238.502 168.259 236.429 160.265C235.512 156.696 235.532 152.151 235.372 148.802C235.073 142.801 233.14 137.219 232.761 130.899C232.701 130.182 232.681 129.444 232.681 128.687Z" fill="#FFE4EE"/>
<path d="M297.672 165.727C297.672 165.727 320.678 153.925 316.113 126.613C311.547 99.3008 297.453 91.8847 291.213 89.8711C284.973 87.8576 254.152 76.9128 239.718 99.7793C225.285 122.646 229.471 132.554 233.837 138.694C233.837 138.694 238.562 111.163 250.025 107.813C251.161 107.475 252.378 108.073 252.776 109.189C253.833 112.14 257.322 118.1 268.366 120.233C283.278 123.124 284.614 134.667 290.754 136.242C296.894 137.817 296.456 157.175 297.672 165.727Z" fill="#2D2D37"/>
<path d="M294.084 142.761C294.084 138.694 297.134 135.425 300.842 135.624C304.131 135.804 306.803 138.794 306.962 142.442C307.022 144.117 306.564 145.672 305.766 146.928C305.048 148.044 304.411 149.201 303.753 150.357C302.696 152.191 300.742 153.347 298.569 152.989C296.476 152.65 294.742 150.875 294.243 148.583C294.104 147.925 294.064 147.287 294.124 146.669C294.223 145.513 294.164 144.336 294.104 143.18C294.084 143.041 294.084 142.901 294.084 142.761Z" fill="#FFE4EE"/>
<path d="M322.971 107.678C328.701 101.948 327.905 91.8625 321.194 85.1515C314.483 78.4405 304.398 77.6453 298.668 83.3753C292.938 89.1054 293.733 99.1908 300.444 105.902C307.155 112.613 317.24 113.408 322.971 107.678Z" fill="#2D2D37"/>
<path d="M248.45 142.941C250.784 142.941 252.676 140.308 252.676 137.06C252.676 133.812 250.784 131.179 248.45 131.179C246.116 131.179 244.223 133.812 244.223 137.06C244.223 140.308 246.116 142.941 248.45 142.941Z" fill="white"/>
<path d="M269.383 142.941C271.717 142.941 273.609 140.308 273.609 137.06C273.609 133.812 271.717 131.179 269.383 131.179C267.049 131.179 265.156 133.812 265.156 137.06C265.156 140.308 267.049 142.941 269.383 142.941Z" fill="white"/>
<path d="M246.836 140.688C248.267 140.688 249.427 139.064 249.427 137.06C249.427 135.056 248.267 133.432 246.836 133.432C245.404 133.432 244.244 135.056 244.244 137.06C244.244 139.064 245.404 140.688 246.836 140.688Z" fill="#2D2D37"/>
<path d="M267.688 140.568C269.076 140.568 270.2 138.997 270.2 137.06C270.2 135.122 269.076 133.551 267.688 133.551C266.301 133.551 265.177 135.122 265.177 137.06C265.177 138.997 266.301 140.568 267.688 140.568Z" fill="#2D2D37"/>
<path d="M267.21 153.846C263.981 155.481 253.873 155.481 250.644 153.846C250.185 153.607 249.786 154.464 250.026 155.202C251.162 158.81 254.73 161.462 258.937 161.462C263.143 161.462 266.692 158.83 267.848 155.202C268.067 154.464 267.669 153.607 267.21 153.846Z" fill="#FF7BA4"/>
<path d="M301.898 142.602L300.901 143.598C299.884 144.615 299.884 146.27 300.901 147.286" stroke="#FFBED2" stroke-width="1.88394" stroke-miterlimit="10" stroke-linecap="round" stroke-linejoin="round"/>
<path d="M258.718 147.207C256.245 147.267 254.192 145.313 254.132 142.841C254.092 141.366 255.328 140.21 256.525 139.412C257.8 138.555 258.498 137.08 258.498 135.565V132.215" stroke="#FFBED2" stroke-width="1.88394" stroke-miterlimit="10" stroke-linecap="round" stroke-linejoin="round"/>
<path d="M258.718 147.207C256.245 147.267 254.192 145.313 254.132 142.841C254.092 141.366 255.328 140.21 256.525 139.412C257.8 138.555 258.498 137.08 258.498 135.565V132.215" stroke="#FFBED2" stroke-width="1.88394" stroke-miterlimit="10" stroke-linecap="round" stroke-linejoin="round"/>
<path d="M347.67 274.837L348.686 283.071C348.906 284.127 347.55 284.745 346.892 283.908L323.966 250.934L316.31 240.926C315.692 240.169 315.074 239.451 314.416 238.733L286.227 200.337C284.234 197.327 280.187 196.509 277.176 198.503C274.166 200.496 273.349 204.543 275.342 207.554L281.024 215.309C283.057 218.06 281.064 222.007 277.635 221.927C272.372 221.808 267.029 222.526 261.806 224.1L241.551 230.221C238.102 231.257 236.148 234.906 237.185 238.355C238.222 241.804 241.87 243.757 245.319 242.721L264.497 236.919C265.095 236.74 265.733 237.079 265.912 237.677C266.092 238.275 265.753 238.913 265.155 239.092L243.225 245.731C239.776 246.768 237.823 250.416 238.859 253.865C239.896 257.314 243.544 259.267 246.993 258.231L268.923 251.592C269.521 251.413 270.159 251.752 270.338 252.35C270.518 252.948 270.179 253.586 269.581 253.765L254.071 258.45C250.622 259.487 248.668 263.135 249.705 266.584C250.741 270.033 254.389 271.986 257.838 270.95L274.425 265.926L280.924 263.972L321.055 317.38C331.322 330.279 348.407 335.622 364.176 330.837C383.255 325.076 394.798 305.718 390.811 286.181L382.896 248.921L352.155 259.168C352.155 259.168 349.484 259.686 349.085 263.115C348.686 266.544 347.67 274.837 347.67 274.837Z" fill="#FFE4EE"/>
<path d="M349.862 286.3L353.271 290.626" stroke="#FFBED2" stroke-width="1.88394" stroke-miterlimit="10" stroke-linecap="round" stroke-linejoin="round"/>
<path d="M382.956 248.881L352.214 259.128C352.214 259.128 349.543 259.646 349.144 263.075C349.065 263.813 348.945 264.79 348.805 265.866L383.952 253.566L382.956 248.881Z" fill="#FFCDDC"/>
</g>
</svg>
