<svg width="382" height="348" viewBox="0 0 382 348" fill="none" xmlns="http://www.w3.org/2000/svg">
<mask id="mask0" mask-type="alpha" maskUnits="userSpaceOnUse" x="0" y="0" width="382" height="348">
<path d="M382 324C382 337.255 371.255 348 358 348L24 348C10.7452 348 2.95782e-05 337.255 2.84194e-05 324L2.19259e-06 24C1.03382e-06 10.7452 10.7452 1.93855e-06 24 7.79773e-07L358 -2.84194e-05C371.255 -2.95782e-05 382 10.7451 382 24L382 324Z" fill="#3C6EE6"/>
</mask>
<g mask="url(#mask0)">
<path d="M177.01 246.187L174.212 279.086C174.138 279.994 172.879 280.179 172.545 279.327L162.005 246.835L158.226 236.795C157.911 236.035 157.577 235.276 157.225 234.535L143.721 196.318C142.832 193.373 139.738 191.724 136.811 192.595C133.884 193.465 132.217 196.578 133.088 199.505L135.811 207.211C136.774 209.952 134.199 212.675 131.42 211.768C127.16 210.378 122.64 209.637 117.99 209.637H100.003C96.9276 209.637 94.4453 212.12 94.4453 215.195C94.4453 218.27 96.9276 220.752 100.003 220.752H117.045C117.583 220.752 118.009 221.178 118.009 221.716C118.009 222.253 117.583 222.679 117.045 222.679H97.5574C94.4823 222.679 92 225.161 92 228.236C92 231.311 94.4823 233.794 97.5574 233.794H117.045C117.583 233.794 118.009 234.22 118.009 234.757C118.009 235.294 117.583 235.72 117.045 235.72H103.263C100.188 235.72 97.7056 238.203 97.7056 241.278C97.7056 244.353 100.188 246.835 103.263 246.835H118.009H123.788L143.332 300.223C148.519 313.246 161.116 321.804 175.139 321.804C192.107 321.804 206.26 308.874 207.816 291.998L211.595 250.911L177.01 246.187Z" fill="#FFE4EE"/>
<path d="M136.385 218.158C136.033 224.234 140.553 228.347 145.481 227.68" stroke="#FFBED2" stroke-width="1.75058" stroke-miterlimit="10" stroke-linecap="round" stroke-linejoin="round"/>
<path d="M131.383 239.869C133.106 235.183 131.235 224.679 128.623 219.807" stroke="#FFBED2" stroke-width="1.75058" stroke-miterlimit="10" stroke-linecap="round" stroke-linejoin="round"/>
<path d="M177.009 246.186L211.576 250.891L210.298 264.84C198.85 259.876 187.531 255.226 176.472 252.558L177.009 246.186Z" fill="#FFCDDC"/>
<path d="M173.638 282.977L174.657 287.997" stroke="#FFBED2" stroke-width="1.75058" stroke-miterlimit="10" stroke-linecap="round" stroke-linejoin="round"/>
<path d="M356.941 246.186L359.738 279.085C359.812 279.993 361.072 280.178 361.405 279.326L371.946 246.834L375.725 236.794C376.039 236.034 376.373 235.275 376.725 234.534L390.229 196.317C391.119 193.372 394.212 191.723 397.139 192.594C400.066 193.464 401.733 196.577 400.863 199.504L398.139 207.21C397.176 209.951 399.751 212.674 402.53 211.767C406.79 210.377 411.31 209.636 415.96 209.636L433.966 209.636C437.041 209.636 439.524 212.119 439.524 215.194C439.524 218.269 437.041 220.751 433.966 220.751L416.923 220.751C416.386 220.751 415.96 221.177 415.96 221.715C415.96 222.252 416.386 222.678 416.923 222.678L436.411 222.678C439.486 222.678 441.969 225.16 441.969 228.235C441.969 231.31 439.486 233.793 436.411 233.793L416.923 233.793C416.386 233.793 415.96 234.219 415.96 234.756C415.96 235.293 416.386 235.719 416.923 235.719H430.706C433.781 235.719 436.263 238.202 436.263 241.277C436.263 244.352 433.781 246.834 430.706 246.834H415.96H410.18L390.637 300.222C385.45 313.245 372.853 321.803 358.83 321.803C341.861 321.803 327.709 308.873 326.153 291.997L322.374 250.91L356.941 246.186Z" fill="#FFE4EE"/>
<path d="M356.94 246.186L322.373 250.891L323.651 264.84C335.099 259.875 346.418 255.225 357.477 252.558L356.94 246.186Z" fill="#FFCDDC"/>
<path d="M360.312 282.976L359.293 287.996" stroke="#FFBED2" stroke-width="1.75058" stroke-miterlimit="10" stroke-linecap="round" stroke-linejoin="round"/>
<path d="M203.425 253.966C205.963 254.633 207.649 257.004 207.464 259.616L201.314 341.921C201.073 345.07 203.574 347.737 206.723 347.737H327.096C330.301 347.737 332.802 344.977 332.487 341.773L324.299 259.782C324.039 257.096 325.781 254.632 328.393 253.984L357.365 246.871C359.977 246.222 361.793 243.74 361.478 241.072C358.44 215.138 330.449 193.705 293.048 186.721C290.825 186.314 289.083 184.628 288.657 182.405C288.305 180.534 286.99 178.922 285.175 178.329C273.023 174.235 260.889 174.235 248.755 178.329C246.94 178.941 245.643 180.534 245.273 182.405C244.847 184.609 243.087 186.314 240.882 186.721C203.462 193.705 175.453 215.175 172.452 241.147C172.137 243.796 173.916 246.259 176.491 246.926L203.425 253.966Z" fill="#5F8CFF"/>
<path d="M288.657 192.667L280.655 203.467C279.376 205.19 276.857 205.412 275.301 203.93L269.54 198.447C268.113 197.076 265.853 197.076 264.408 198.447L258.647 203.93C257.091 205.412 254.572 205.209 253.294 203.467L245.291 192.667" stroke="#3C6EE6" stroke-width="1.75058" stroke-miterlimit="10" stroke-linecap="round" stroke-linejoin="round"/>
<path d="M266.947 207.024C267.868 207.024 268.615 206.278 268.615 205.357C268.615 204.436 267.868 203.69 266.947 203.69C266.027 203.69 265.28 204.436 265.28 205.357C265.28 206.278 266.027 207.024 266.947 207.024Z" fill="white"/>
<path d="M266.947 212.119C267.868 212.119 268.615 211.372 268.615 210.451C268.615 209.531 267.868 208.784 266.947 208.784C266.027 208.784 265.28 209.531 265.28 210.451C265.28 211.372 266.027 212.119 266.947 212.119Z" fill="white"/>
<path d="M281.007 137.372L249.775 138.131L247.904 177.644C246.885 188.704 255.554 190.148 266.651 189.889C277.747 189.611 286.324 187.74 284.768 176.736L281.007 137.372Z" fill="#FFDAE4"/>
<path d="M274.338 156.174C268.54 161.009 260.964 177.959 259.5 189.704C253.016 189.074 248.385 186.833 247.885 180.534C247.867 179.349 247.885 178.385 247.904 177.867C247.904 177.793 247.904 177.737 247.922 177.663L248.848 157.749L274.338 156.174Z" fill="#FFCDDC"/>
<path d="M221.34 116.92C220.839 96.5055 237.475 79.6666 258.13 80.1483C276.45 80.5743 291.789 95.283 293.049 113.567C293.623 121.959 291.27 129.813 286.898 136.204C283.027 141.854 279.581 147.782 276.061 153.654C270.411 163.046 259.612 169.03 247.478 167.603C235.733 166.214 225.841 157.544 222.877 146.115C222.025 142.817 221.766 139.594 221.988 136.5C222.433 130.665 221.969 124.83 221.469 118.995C221.395 118.291 221.358 117.605 221.34 116.92Z" fill="#FFE4EE"/>
<path d="M278.803 114.438L295.493 116.235C293.845 130.962 281.693 144.226 281.693 144.226L279.358 137.779C276.376 129.424 278.988 122.459 278.803 114.438Z" fill="#787885"/>
<path d="M244.254 100.748C244.254 100.748 251.757 98.1915 256.666 101.767C260.223 104.379 250.256 94.5977 250.256 94.5977L232.362 95.0423L231.583 101.193C231.583 101.193 238.864 96.4502 244.254 100.748Z" fill="#787885"/>
<path d="M275.635 120.014C262.315 119.569 259.111 107.102 256.647 101.786C254.517 97.1362 247.329 96.4878 244.328 100.637L244.235 100.767C244.217 100.749 244.198 100.711 244.18 100.693C241.457 96.5804 235.473 96.4877 232.806 100.619C230.99 103.434 229.342 106.88 227.897 110.511C226.433 114.179 225.303 116.383 222.284 116.809C221.765 116.883 221.395 117.328 221.432 117.865C221.58 119.421 221.839 122.256 221.709 122.256C210.724 121.2 214.614 74.1285 240.642 71.2757C250.404 70.2198 253.424 72.4427 254.35 73.795C254.609 74.184 255.128 74.2581 255.48 73.9432C256.462 73.091 258.518 71.8128 262.093 71.7202C269.948 71.6276 281.859 77.7223 287.287 82.8166C296.679 91.8381 299.105 112.104 296.327 115.976C293.233 120.292 287.88 120.422 275.635 120.014Z" fill="#2D2D37"/>
<path d="M276.969 128.536C276.876 124.775 279.618 121.681 283.045 121.774C286.083 121.867 288.64 124.571 288.843 127.943C288.936 129.48 288.547 130.925 287.843 132.111C287.213 133.148 286.639 134.241 286.046 135.316C285.12 137.038 283.323 138.131 281.304 137.872C279.359 137.613 277.71 136.019 277.21 133.908C277.062 133.296 277.025 132.704 277.062 132.148C277.136 131.073 277.043 129.999 276.969 128.925C276.969 128.795 276.969 128.665 276.969 128.536Z" fill="#FFE4EE"/>
<path d="M235.214 130.536C237.383 130.536 239.141 128.089 239.141 125.071C239.141 122.053 237.383 119.606 235.214 119.606C233.045 119.606 231.287 122.053 231.287 125.071C231.287 128.089 233.045 130.536 235.214 130.536Z" fill="white"/>
<path d="M254.684 130.536C256.853 130.536 258.611 128.089 258.611 125.071C258.611 122.053 256.853 119.606 254.684 119.606C252.515 119.606 250.756 122.053 250.756 125.071C250.756 128.089 252.515 130.536 254.684 130.536Z" fill="white"/>
<path d="M233.713 128.442C235.054 128.442 236.14 126.933 236.14 125.071C236.14 123.209 235.054 121.699 233.713 121.699C232.373 121.699 231.287 123.209 231.287 125.071C231.287 126.933 232.373 128.442 233.713 128.442Z" fill="#2D2D37"/>
<path d="M253.109 128.332C254.398 128.332 255.443 126.872 255.443 125.071C255.443 123.271 254.398 121.811 253.109 121.811C251.82 121.811 250.775 123.271 250.775 125.071C250.775 126.872 251.82 128.332 253.109 128.332Z" fill="#2D2D37"/>
<path d="M238.771 138.261C239.234 143.781 242.013 148.06 244.958 147.82C247.922 147.579 249.941 142.892 249.478 137.372L238.771 138.261Z" fill="#FF7BA4"/>
<path d="M244.569 123.849C243.68 124.386 240.457 125.812 240.512 128.109C240.568 130.406 242.476 132.222 244.773 132.166" stroke="#FFBED2" stroke-width="1.75058" stroke-miterlimit="10" stroke-linecap="round" stroke-linejoin="round"/>
<path d="M282.767 132.537C281.859 131.629 281.859 130.165 282.767 129.258L283.768 128.257" stroke="#FFBED2" stroke-width="1.75058" stroke-miterlimit="10" stroke-linecap="round" stroke-linejoin="round"/>
</g>
</svg>
