<svg width="398" height="348" viewBox="0 0 398 348" fill="none" xmlns="http://www.w3.org/2000/svg">
<mask id="mask0" mask-type="alpha" maskUnits="userSpaceOnUse" x="0" y="0" width="382" height="348">
<path d="M382 324C382 337.255 371.255 348 358 348L24 348C10.7452 348 2.95782e-05 337.255 2.84194e-05 324L2.19259e-06 24C1.03382e-06 10.7452 10.7452 1.93855e-06 24 7.79773e-07L358 -2.84194e-05C371.255 -2.95782e-05 382 10.7451 382 24L382 324Z" fill="#FFB428"/>
</mask>
<g mask="url(#mask0)">
<path d="M317.543 139.929H283.9L280.877 184.793C279.503 196.679 288.778 198.465 300.733 198.465C312.688 198.465 321.963 196.679 320.589 184.793L317.543 139.929Z" fill="#FFDAE4"/>
<path d="M309.87 159.992C303.504 165.03 294.916 185.481 293.038 198.077C286.076 197.23 281.152 194.687 280.763 187.886C280.786 186.603 280.808 185.573 280.854 185C280.854 184.931 280.877 184.84 280.877 184.771L282.366 160.976L309.87 159.992Z" fill="#FFCDDC"/>
<path d="M254.105 119.433C254.105 97.4471 272.45 79.7442 294.687 80.8205C314.405 81.7824 330.528 97.9967 331.398 117.715C331.787 126.761 329.062 135.166 324.184 141.922C319.879 147.899 315.046 152.273 311.084 158.503C304.764 168.465 290.633 173.48 279.412 170.984C268.19 168.488 259.9 158.846 257.838 150.876C256.922 147.327 256.945 142.792 256.785 139.471C256.487 133.517 254.564 127.952 254.174 121.654C254.128 120.921 254.105 120.188 254.105 119.433Z" fill="#FFE4EE"/>
<path d="M318.642 156.304C318.642 156.304 341.726 144.556 337.169 117.349C332.612 90.1415 318.596 82.7673 312.367 80.7749C306.137 78.7824 275.472 67.8813 261.09 90.6225C246.708 113.364 250.876 123.257 255.227 129.372C255.227 129.372 259.922 101.959 271.35 98.6151C272.472 98.2945 273.686 98.8671 274.075 99.9892C275.129 102.921 278.61 108.875 289.603 111.005C304.466 113.89 305.771 125.387 311.886 126.944C318 128.502 317.428 147.785 318.642 156.304Z" fill="#2D2D37"/>
<path d="M315.252 133.449C315.252 129.395 318.298 126.143 321.985 126.349C325.26 126.532 327.916 129.509 328.077 133.151C328.146 134.823 327.687 136.357 326.886 137.617C326.176 138.716 325.535 139.884 324.871 141.029C323.817 142.861 321.87 144.006 319.718 143.663C317.634 143.342 315.893 141.556 315.412 139.288C315.275 138.624 315.252 137.983 315.298 137.388C315.412 136.243 315.344 135.075 315.275 133.907C315.252 133.723 315.252 133.586 315.252 133.449Z" fill="#FFE4EE"/>
<path d="M343.99 98.5248C349.696 92.8189 348.905 82.7774 342.225 76.0966C335.544 69.4158 325.502 68.6256 319.796 74.3315C314.09 80.0375 314.881 90.0789 321.561 96.7597C328.242 103.441 338.284 104.231 343.99 98.5248Z" fill="#2D2D37"/>
<path d="M269.816 133.609C272.131 133.609 274.007 130.994 274.007 127.769C274.007 124.544 272.131 121.929 269.816 121.929C267.501 121.929 265.625 124.544 265.625 127.769C265.625 130.994 267.501 133.609 269.816 133.609Z" fill="white"/>
<path d="M290.656 133.609C292.97 133.609 294.847 130.994 294.847 127.769C294.847 124.544 292.97 121.929 290.656 121.929C288.341 121.929 286.465 124.544 286.465 127.769C286.465 130.994 288.341 133.609 290.656 133.609Z" fill="white"/>
<path d="M268.189 131.364C269.619 131.364 270.777 129.755 270.777 127.769C270.777 125.783 269.619 124.173 268.189 124.173C266.76 124.173 265.602 125.783 265.602 127.769C265.602 129.755 266.76 131.364 268.189 131.364Z" fill="#2D2D37"/>
<path d="M288.961 131.25C290.34 131.25 291.457 129.692 291.457 127.769C291.457 125.847 290.34 124.288 288.961 124.288C287.582 124.288 286.465 125.847 286.465 127.769C286.465 129.692 287.582 131.25 288.961 131.25Z" fill="#2D2D37"/>
<path d="M288.481 144.487C285.252 146.113 275.221 146.113 271.992 144.487C271.534 144.258 271.144 145.105 271.373 145.838C272.518 149.434 276.045 152.068 280.236 152.068C284.427 152.068 287.954 149.434 289.099 145.838C289.328 145.083 288.939 144.235 288.481 144.487Z" fill="#FF7BA4"/>
<path d="M323.016 133.288L322.009 134.296C321.001 135.303 321.001 136.952 322.009 137.96" stroke="#FFBED2" stroke-width="1.87563" stroke-miterlimit="10" stroke-linecap="round" stroke-linejoin="round"/>
<path d="M280.053 137.868C277.579 137.937 275.541 135.99 275.495 133.517C275.45 132.028 276.686 130.906 277.877 130.104C279.137 129.257 279.847 127.791 279.847 126.257V122.936" stroke="#FFBED2" stroke-width="1.87563" stroke-miterlimit="10" stroke-linecap="round" stroke-linejoin="round"/>
<path d="M91.2529 187.267V197.573C91.2529 201.351 94.3217 204.42 98.1005 204.42C98.1463 204.42 98.1921 204.42 98.2608 204.42L104.124 211.245L97.5508 227.642C103.368 230.963 112.093 235.062 120.727 235.062H236.792V190.313H156.316C146.537 190.313 131.124 186.168 122.262 182C115.689 178.908 108.383 176.343 101.055 176.412C95.6271 176.434 91.2529 181.862 91.2529 187.267Z" fill="#FFE4EE"/>
<path d="M102.841 200.802H64.8475C61.0688 200.802 58 197.733 58 193.954C58 190.175 61.0688 187.106 64.8475 187.106H102.841C106.62 187.106 109.689 190.175 109.689 193.954C109.689 197.733 106.62 200.802 102.841 200.802Z" fill="#FFE4EE"/>
<path d="M108.063 228.169H90.5892C86.7876 228.169 83.7188 225.078 83.7188 221.299V221.23C83.7188 217.429 86.8105 214.36 90.5892 214.36H108.063C111.865 214.36 114.934 217.452 114.934 221.23V221.299C114.934 225.101 111.865 228.169 108.063 228.169Z" fill="#FFE4EE"/>
<path d="M103.322 214.474H85.7792C82.0004 214.474 78.9316 211.405 78.9316 207.626C78.9316 203.848 82.0004 200.779 85.7792 200.779H103.322C107.101 200.779 110.169 203.848 110.169 207.626C110.169 211.428 107.101 214.474 103.322 214.474Z" fill="#FFE4EE"/>
<path d="M105.955 201.329C108.429 202.359 110.169 204.81 110.169 207.649C110.169 211.428 107.1 214.497 103.321 214.497H94.0234H108.085C111.864 214.497 114.933 217.566 114.933 221.345C114.933 224.024 113.398 226.337 111.154 227.459" stroke="#FFBED2" stroke-width="1.4166" stroke-miterlimit="10" stroke-linecap="round" stroke-linejoin="round"/>
<path d="M123.452 202.542C108.223 202.542 104.948 189.259 104.948 189.259V197.595C104.948 201.374 101.879 204.443 98.1005 204.443C94.3217 204.443 91.2529 201.374 91.2529 197.595V192.557" stroke="#FFBED2" stroke-width="1.4166" stroke-miterlimit="10" stroke-linecap="round" stroke-linejoin="round"/>
<path d="M227.7 190.312V235.062H230.792V190.312H227.7Z" fill="#FFCDDC"/>
<path d="M279.366 236.391H232.028C231.25 236.391 230.608 235.75 230.608 234.971V190.313C230.608 189.534 231.25 188.893 232.028 188.893H279.366C292.488 188.893 303.115 199.519 303.115 212.642C303.115 225.765 292.488 236.391 279.366 236.391Z" fill="#FFD25F"/>
<path d="M239.356 236.391H260.334L273.09 194.023C273.09 194.023 250.166 205.199 239.356 236.391Z" fill="#FFB428"/>
<path d="M343.582 193.176L322.81 183.076C312.001 177.809 299.451 177.351 288.275 181.839C270.641 188.893 257.908 204.558 254.61 223.268L233.998 339.791C233.288 343.822 236.38 347.509 240.457 347.509H355.582C359.544 347.509 362.59 344.051 362.109 340.112L343.582 193.176Z" fill="#FFD25F"/>
<path d="M351.369 255.009L301.191 223.382C301.191 223.382 307.329 257.872 353.75 273.926L351.369 255.009Z" fill="#FFB428"/>
<path d="M359.979 261.995C361.009 262.568 360.918 264.102 359.796 264.514L333.894 274.225C325.581 276.95 316.649 277.339 308.107 275.324C299.038 273.171 289.511 274.018 280.785 277.316C275.61 279.263 273.045 285.103 274.991 290.301L276.388 294.011C276.388 294.011 272.632 295.867 269.815 297.836C267.021 299.828 264.823 303.355 266.128 306.836C267.365 310.157 270.938 311.875 274.281 310.913C271.441 312.539 270.09 316.02 271.281 319.203L271.35 319.363C272.678 322.89 276.594 324.677 280.121 323.348L282.48 322.455C279.892 324.15 278.701 327.448 279.846 330.471C280.831 333.081 283.236 334.707 285.847 334.822C292.351 335.875 301.053 334.685 309.023 331.684L398.133 298.157C412.721 292.66 422.385 278.713 422.385 263.117C422.385 250.086 415.607 237.994 404.476 231.193L341.68 192.764C327.665 183.672 308.84 189.031 301.717 204.169C297.824 216.948 303.412 230.712 315.092 237.17L359.979 261.995Z" fill="#FFE4EE"/>
<path d="M364.33 263.827L369.941 264.079" stroke="#FFBED2" stroke-width="1.87563" stroke-miterlimit="10" stroke-linecap="round" stroke-linejoin="round"/>
<path d="M278.815 294.011L293.472 288.514C293.472 288.514 287.839 290.209 286.533 286.728L287.976 290.575" stroke="#FFBED2" stroke-width="1.87563" stroke-miterlimit="10" stroke-linecap="round" stroke-linejoin="round"/>
<path d="M284.815 321.447L287.335 320.508" stroke="#FFBED2" stroke-width="1.87563" stroke-miterlimit="10" stroke-linecap="round" stroke-linejoin="round"/>
<path d="M276.869 309.904L279.365 308.965" stroke="#FFBED2" stroke-width="1.87563" stroke-miterlimit="10" stroke-linecap="round" stroke-linejoin="round"/>
<path d="M366.46 207.924L338.359 250.04L348.573 255.697L374.154 212.642L366.46 207.924Z" fill="#FFCDDC"/>
<path d="M318.413 188.687C310.443 190.954 303.824 196.565 300.298 204.077L300.252 204.237C296.221 217.451 302.084 231.902 314.176 238.567L343.948 255.033C344.612 255.399 345.459 255.17 345.849 254.506L371.567 211.314C371.979 210.627 371.75 209.756 371.063 209.367L341.91 192.214C334.97 187.679 326.382 186.397 318.413 188.687Z" fill="#FFD25F"/>
</g>
</svg>
