<svg width="382" height="348" viewBox="0 0 382 348" fill="none" xmlns="http://www.w3.org/2000/svg">
<mask id="mask0" mask-type="alpha" maskUnits="userSpaceOnUse" x="0" y="0" width="382" height="348">
<path d="M382 324C382 337.255 371.255 348 358 348L24 348C10.7452 348 2.95782e-05 337.255 2.84194e-05 324L2.19259e-06 24C1.03382e-06 10.7452 10.7452 1.93855e-06 24 7.79773e-07L358 -2.84194e-05C371.255 -2.95782e-05 382 10.7451 382 24L382 324Z" fill="#32BECD"/>
</mask>
<g mask="url(#mask0)">
<path d="M106.67 227.264L81.91 228.72C78.3215 228.939 75.2315 226.188 75.0123 222.599C74.793 219.011 77.544 215.921 81.1324 215.702L111.794 213.887C117.236 213.568 122.599 214.127 127.683 215.462C130.992 216.32 133.843 212.97 132.507 209.82L128.779 200.969C127.543 197.58 129.278 193.852 132.667 192.616C136.056 191.38 139.784 193.114 141.02 196.503L159.5 240.362C159.959 241.2 160.398 242.057 160.816 242.934L165.94 254.437L180.553 291.797C180.991 292.774 182.467 292.495 182.487 291.418L183.483 252.663L224.332 255.793L222.737 304.217C222.079 324.133 206.37 340.261 186.474 341.437C170.027 342.414 154.676 333.244 147.698 318.331L123.656 262.95C122.121 259.441 118.572 257.248 114.744 257.467C111.754 257.647 108.883 256.351 107.029 253.998L102.883 248.715L110.458 243.074L106.67 227.264Z" fill="#FFE4EE"/>
<path d="M113.29 239.784L99.6136 240.581C96.0251 240.801 92.9352 238.049 92.7159 234.461C92.4966 230.872 95.2478 227.782 98.8362 227.563L112.512 226.766C116.101 226.546 119.191 229.298 119.41 232.886C119.629 236.474 116.878 239.565 113.29 239.784Z" fill="#FFE4EE"/>
<path d="M117.594 252.583L103.918 253.381C100.33 253.6 97.2398 250.849 97.0206 247.26C96.8013 243.672 99.5524 240.582 103.141 240.362L116.817 239.565C120.405 239.346 123.495 242.097 123.715 245.685C123.934 249.294 121.183 252.384 117.594 252.583Z" fill="#FFE4EE"/>
<path d="M98.8359 227.563L112.512 226.766C116.1 226.546 119.19 229.298 119.41 232.886C119.629 236.474 116.878 239.565 113.289 239.784" stroke="#FFBED2" stroke-width="1.88394" stroke-miterlimit="10" stroke-linecap="round" stroke-linejoin="round"/>
<path d="M105.055 240.263L116.817 239.565C120.406 239.346 123.496 242.097 123.715 245.685C123.935 249.274 121.183 252.364 117.595 252.583" stroke="#FFBED2" stroke-width="1.88394" stroke-miterlimit="10" stroke-linecap="round" stroke-linejoin="round"/>
<path d="M133.603 223.097C133.603 223.097 130.234 244.548 139.265 248.815" stroke="#FFBED2" stroke-width="1.88394" stroke-miterlimit="10" stroke-linecap="round" stroke-linejoin="round"/>
<path d="M183.503 252.662L224.352 255.792L223.594 278.698C213.746 272.319 198.614 267.016 183.184 264.404L183.503 252.662Z" fill="#FFCDDC"/>
<path d="M182.567 295.584L183.205 301.047" stroke="#FFBED2" stroke-width="1.88394" stroke-miterlimit="10" stroke-linecap="round" stroke-linejoin="round"/>
<path d="M223.436 272.975C223.377 270.881 221.881 269.107 219.828 268.688L181.372 260.913C179.219 260.475 177.683 258.541 177.763 256.348C178.74 229.056 213.927 204.495 255.194 195.663L256.39 191.178C256.67 189.104 258.484 187.509 260.697 187.37L298.794 185.117C301.007 184.978 302.98 186.353 303.519 188.387L305.393 193.131C346.361 197.657 382.684 217.613 386.751 244.048C387.09 246.201 385.794 248.294 383.721 248.992L353.02 259.219C351.345 259.777 350.189 261.252 349.989 262.947L349.65 266.037C344.547 298.512 352.282 327.021 349.152 343.149C349.391 345.382 351.863 348.751 347.338 348.472H223.835C222.021 348.472 220.566 346.957 220.625 345.143L223.436 272.975Z" fill="#32D7E1"/>
<path d="M277.422 216.518C278.347 216.518 279.097 215.769 279.097 214.844C279.097 213.919 278.347 213.169 277.422 213.169C276.497 213.169 275.748 213.919 275.748 214.844C275.748 215.769 276.497 216.518 277.422 216.518Z" fill="white"/>
<path d="M277.422 221.701C278.347 221.701 279.097 220.951 279.097 220.026C279.097 219.101 278.347 218.351 277.422 218.351C276.497 218.351 275.748 219.101 275.748 220.026C275.748 220.951 276.497 221.701 277.422 221.701Z" fill="white"/>
<path d="M255.871 203.061L263.566 218.87" stroke="#32BECD" stroke-width="1.88394" stroke-miterlimit="10" stroke-linecap="round" stroke-linejoin="round"/>
<path d="M269.189 216.517L272.559 212.669C274.771 210.158 278.599 209.898 281.111 212.111L288.547 218.63C289.364 219.368 290.64 219.268 291.318 218.411L304.476 202.203" stroke="#32BECD" stroke-width="1.88394" stroke-miterlimit="10" stroke-linecap="round" stroke-linejoin="round"/>
<path d="M288.985 169.927C282.586 174.99 273.954 189.544 272.08 202.203C265.082 201.346 260.138 198.794 259.759 191.976C259.779 190.7 259.799 189.643 259.859 189.085C259.859 189.005 259.879 188.926 259.879 188.866L261.374 170.943L288.985 169.927Z" fill="#FFCDDC"/>
<path d="M296.601 147.938H263.209L260.198 189.026C258.823 200.808 268.033 202.582 279.895 202.582C291.757 202.582 300.967 200.808 299.592 189.026L296.601 147.938Z" fill="#FFDAE4"/>
<path d="M288.966 167.854C282.646 172.858 274.133 189.704 272.259 202.204C265.342 201.366 260.457 198.834 260.079 192.096C260.099 190.82 260.118 189.783 260.178 189.245C260.178 189.165 260.198 189.106 260.198 189.026L261.673 168.831L288.966 167.854Z" fill="#FFCDDC"/>
<path d="M233.384 124.533C233.384 102.723 251.586 85.1594 273.635 86.216C293.192 87.1529 309.201 103.261 310.058 122.838C310.457 131.829 307.725 140.143 302.901 146.861C298.615 152.802 294.787 159.042 290.859 165.202C284.58 175.09 272.897 181.191 259.959 179.336C247.459 177.542 237.112 168.033 234.241 155.732C233.404 152.184 233.225 148.735 233.544 145.445C234.162 139.225 233.823 132.966 233.464 126.726C233.404 125.988 233.384 125.27 233.384 124.533Z" fill="#FFE4EE"/>
<path d="M270.505 138.927C272.685 138.927 274.452 136.436 274.452 133.365C274.452 130.293 272.685 127.802 270.505 127.802C268.325 127.802 266.558 130.293 266.558 133.365C266.558 136.436 268.325 138.927 270.505 138.927Z" fill="white"/>
<path d="M269.249 137.512C270.735 137.512 271.94 135.709 271.94 133.485C271.94 131.261 270.735 129.458 269.249 129.458C267.763 129.458 266.558 131.261 266.558 133.485C266.558 135.709 267.763 137.512 269.249 137.512Z" fill="#2D2D37"/>
<path d="M248.694 138.927C250.874 138.927 252.642 136.436 252.642 133.365C252.642 130.293 250.874 127.802 248.694 127.802C246.514 127.802 244.747 130.293 244.747 133.365C244.747 136.436 246.514 138.927 248.694 138.927Z" fill="white"/>
<path d="M247.419 137.512C248.905 137.512 250.11 135.709 250.11 133.485C250.11 131.261 248.905 129.458 247.419 129.458C245.932 129.458 244.728 131.261 244.728 133.485C244.728 135.709 245.932 137.512 247.419 137.512Z" fill="#2D2D37"/>
<path d="M335.994 118.154C335.994 115.263 334.817 112.671 332.923 110.777C334.04 109.123 334.678 107.129 334.678 104.996C334.678 102.344 333.681 99.9323 332.046 98.0982C332.445 97.0017 332.664 95.8255 332.664 94.5894C332.664 89.5257 329.036 85.2993 324.231 84.3823C324.251 84.0832 324.271 83.7643 324.271 83.4453C324.271 78.9797 321.46 75.1918 317.513 73.7166C316.676 69.55 313.366 66.3004 309.16 65.5429C307.725 61.5158 303.877 58.6251 299.371 58.6251C296.8 58.6251 294.447 59.5621 292.633 61.0971C290.998 57.4688 287.37 54.9569 283.144 54.9569C280.432 54.9569 277.96 56.0135 276.106 57.708C274.192 55.4354 271.342 54 268.152 54C264.344 54 261.035 56.0534 259.221 59.1036C257.327 57.2096 254.715 56.0335 251.844 56.0335C248.555 56.0335 245.644 57.5486 243.73 59.9209C241.159 59.5422 238.427 60.1203 236.155 61.775C234.44 63.011 233.224 64.6657 232.526 66.4798C227.184 66.9184 222.997 71.3841 222.997 76.8465C222.997 77.1256 223.017 77.3848 223.037 77.6639C222.319 77.9629 221.621 78.3417 220.964 78.8202C216.757 81.8504 215.501 87.4325 217.754 91.918C216.119 94.5895 215.78 97.8988 216.857 100.869C215.242 102.703 214.245 105.116 214.245 107.747C214.245 110.239 215.122 112.552 216.598 114.346C216.358 115.203 216.239 116.1 216.239 117.037C216.239 118.612 216.598 120.087 217.216 121.423C216.598 122.759 216.239 124.234 216.239 125.809C216.239 128.142 217.016 130.275 218.292 132.009C218.272 132.328 218.252 132.627 218.252 132.946C218.252 136.176 219.727 139.046 222.02 140.96C222.917 143.552 224.831 145.685 227.283 146.881C228.16 149.294 229.875 151.287 232.108 152.503C232.626 153.58 233.344 154.557 234.181 155.394C233.423 151.985 233.244 148.656 233.563 145.466C234.181 139.246 233.842 132.986 233.483 126.746C233.443 126.088 233.423 117.815 239.364 116.24C240.68 115.901 241.916 115.283 242.893 114.406C243.89 115.024 245.086 115.383 246.342 115.383C248.256 115.383 249.99 114.565 251.206 113.249C252.741 114.166 254.535 114.685 256.469 114.685C258.642 114.685 260.656 114.027 262.311 112.891C263.567 113.429 264.962 113.748 266.417 113.748C267.374 113.748 268.291 113.608 269.168 113.369C270.903 114.665 273.036 115.442 275.369 115.442C276.505 115.442 277.601 115.263 278.618 114.924C278.618 115.103 278.598 115.263 278.598 115.442C278.598 119.988 281.509 123.835 285.556 125.251C285.197 126.307 284.998 127.424 284.998 128.6C284.998 128.859 285.018 129.138 285.018 129.397C285.277 132.866 287.47 135.897 290.52 137.571L290.819 137.731C293.989 139.445 296.082 142.655 296.361 146.263L298.474 173.376C299.989 172.559 301.305 171.382 302.242 169.947C307.346 169.289 311.313 164.923 311.313 159.64C311.313 159.6 311.313 159.56 311.313 159.521C315.619 158.903 319.068 155.653 319.965 151.467C323.773 149.912 326.444 146.183 326.444 141.837C326.444 141.798 326.444 141.758 326.444 141.718C331.468 140.98 335.336 136.674 335.336 131.431C335.336 129.098 334.558 126.965 333.262 125.231C334.957 123.297 335.994 120.845 335.994 118.154Z" fill="#2D2D37"/>
<path d="M289.922 134.88C289.922 130.873 292.932 127.624 296.601 127.823C299.85 128.002 302.502 130.973 302.641 134.561C302.701 136.216 302.262 137.751 301.445 138.987C300.727 140.083 300.109 141.22 299.451 142.356C298.415 144.17 296.481 145.307 294.328 144.968C292.255 144.649 290.54 142.894 290.062 140.622C289.922 139.964 289.882 139.326 289.942 138.728C290.042 137.592 289.982 136.435 289.922 135.279C289.942 135.139 289.922 135 289.922 134.88Z" fill="#FFE4EE"/>
<path d="M348.474 274.909L349.49 283.143C349.71 284.199 348.354 284.817 347.696 283.96L324.79 251.026L317.135 241.018C316.536 240.261 315.898 239.543 315.241 238.825L287.071 200.469C285.077 197.458 281.031 196.641 278.04 198.635C275.03 200.628 274.212 204.675 276.206 207.666L281.888 215.401C283.921 218.152 281.928 222.079 278.499 222.019C273.236 221.9 267.893 222.618 262.67 224.192L242.415 230.313C238.966 231.349 237.012 234.998 238.069 238.447C239.105 241.896 242.754 243.849 246.202 242.793L265.361 236.991C265.959 236.812 266.597 237.151 266.776 237.749C266.956 238.347 266.617 238.985 266.019 239.164L244.109 245.783C240.66 246.82 238.707 250.468 239.763 253.917C240.8 257.366 244.448 259.319 247.897 258.263L269.807 251.644C270.405 251.465 271.043 251.804 271.222 252.402C271.401 253 271.063 253.638 270.464 253.817L254.974 258.502C251.525 259.539 249.572 263.187 250.628 266.636C251.665 270.085 255.313 272.039 258.762 270.982L275.349 265.958L281.828 264.004L321.939 317.373C332.186 330.271 349.271 335.594 365.02 330.83C384.079 325.068 395.622 305.73 391.635 286.213L383.72 248.993L353.019 259.22C353.019 259.22 350.368 259.738 349.949 263.167C349.53 266.596 348.474 274.909 348.474 274.909Z" fill="#FFE4EE"/>
<path d="M350.667 286.373L354.076 290.679" stroke="#FFBED2" stroke-width="1.88394" stroke-miterlimit="10" stroke-linecap="round" stroke-linejoin="round"/>
<path d="M256.431 150.011C254.417 150.011 252.782 153.061 252.782 156.829C252.782 160.597 254.417 163.647 256.431 163.647C258.444 163.647 260.079 160.597 260.079 156.829C260.079 153.061 258.444 150.011 256.431 150.011Z" fill="#FF7BA4"/>
<path d="M297.637 134.7L296.641 135.697C295.644 136.694 295.644 138.329 296.641 139.346" stroke="#FFBED2" stroke-width="1.88394" stroke-miterlimit="10" stroke-linecap="round" stroke-linejoin="round"/>
<path d="M258.343 142.655C255.871 142.714 253.817 140.761 253.758 138.289C253.698 135.817 257.167 134.282 258.124 133.703V128.301" stroke="#FFBED2" stroke-width="1.88394" stroke-miterlimit="10" stroke-linecap="round" stroke-linejoin="round"/>
<path d="M383.721 248.993L352.98 259.24C352.98 259.24 350.308 259.758 349.91 263.187C349.83 263.925 349.71 264.902 349.571 265.978L384.718 253.678L383.721 248.993Z" fill="#FFCDDC"/>
</g>
</svg>
