<svg width="398" height="348" viewBox="0 0 398 348" fill="none" xmlns="http://www.w3.org/2000/svg">
<mask id="mask0" mask-type="alpha" maskUnits="userSpaceOnUse" x="0" y="0" width="382" height="348">
<path d="M382 324C382 337.255 371.255 348 358 348L24 348C10.7452 348 2.95782e-05 337.255 2.84194e-05 324L2.19259e-06 24C1.03382e-06 10.7452 10.7452 1.93855e-06 24 7.79773e-07L358 -2.84194e-05C371.255 -2.95782e-05 382 10.7451 382 24L382 324Z" fill="#FFB428"/>
</mask>
<g mask="url(#mask0)">
<path d="M318.039 140.729H284.328L281.305 182.203C279.931 194.089 289.206 195.898 301.184 195.898C313.161 195.898 322.459 194.089 321.062 182.203L318.039 140.729Z" fill="#FFDAE4"/>
<path d="M310.344 160.836C303.978 165.898 295.367 182.891 293.489 195.509C286.504 194.662 281.58 192.12 281.19 185.318C281.213 184.036 281.236 182.982 281.282 182.433C281.282 182.364 281.305 182.272 281.305 182.204L282.794 161.821L310.344 160.836Z" fill="#FFCDDC"/>
<path d="M253.411 117.782C253.136 95.7733 271.297 77.8185 293.558 78.6201C313.299 79.33 329.673 95.384 330.773 115.102C331.276 124.171 328.643 132.599 323.856 139.424C319.62 145.47 315.818 151.813 311.925 158.088C305.718 168.142 293.993 174.44 280.916 172.745C268.274 171.096 257.717 161.615 254.671 149.248C253.778 145.676 253.549 142.218 253.846 138.874C254.396 132.599 253.984 126.278 253.526 119.98C253.457 119.27 253.411 118.515 253.411 117.782Z" fill="#FFE4EE"/>
<path d="M319.116 155.615C319.116 155.615 324.177 147.645 329.971 137.637C335.376 128.339 336.956 118.72 336.315 108.163C335.673 97.6281 327.887 87.8034 323.788 83.7727C319.688 79.765 311.031 74.4519 303.153 72.7343C295.298 71.0166 295.825 72.9174 293.787 73.009C291.748 73.1006 291.748 72.0014 289.573 72.0014C287.397 72.0014 268.251 71.635 257.946 82.9025C247.64 94.193 245.968 104.613 249.999 119.682C253.503 132.782 254.007 132.507 254.03 133.469C254.511 127.377 253.892 126.072 253.457 119.98C253.411 119.247 253.365 118.514 253.365 117.759C253.365 117.736 253.365 117.736 253.365 117.713C253.342 115.194 255.816 113.384 258.221 114.117L267.358 116.911C268.274 117.163 269.053 116.155 268.549 115.354L267.725 113.98L280 117.415C280.916 117.667 281.695 116.659 281.191 115.858L280.366 114.484L292.641 117.919C293.558 118.171 294.336 117.163 293.832 116.362L293.008 114.988L293.466 115.102C305.146 118.285 314.467 118.675 317.513 140.706" fill="#2D2D37"/>
<path d="M314.81 131.042C314.764 126.988 317.764 123.691 321.452 123.851C324.726 123.988 327.452 126.943 327.635 130.584C327.727 132.256 327.291 133.813 326.49 135.05C325.78 136.172 325.162 137.317 324.52 138.485C323.49 140.34 321.543 141.485 319.39 141.187C317.283 140.89 315.543 139.126 315.039 136.859C314.902 136.195 314.856 135.553 314.902 134.958C314.993 133.79 314.925 132.645 314.833 131.477C314.81 131.317 314.81 131.179 314.81 131.042Z" fill="#FFE4EE"/>
<path d="M267.083 134.202C269.41 134.202 271.297 131.577 271.297 128.339C271.297 125.101 269.41 122.477 267.083 122.477C264.756 122.477 262.869 125.101 262.869 128.339C262.869 131.577 264.756 134.202 267.083 134.202Z" fill="white"/>
<path d="M287.97 134.202C290.297 134.202 292.184 131.577 292.184 128.339C292.184 125.101 290.297 122.477 287.97 122.477C285.642 122.477 283.756 125.101 283.756 128.339C283.756 131.577 285.642 134.202 287.97 134.202Z" fill="white"/>
<path d="M265.481 131.957C266.91 131.957 268.068 130.338 268.068 128.339C268.068 126.341 266.91 124.721 265.481 124.721C264.051 124.721 262.893 126.341 262.893 128.339C262.893 130.338 264.051 131.957 265.481 131.957Z" fill="#2D2D37"/>
<path d="M286.275 131.843C287.666 131.843 288.794 130.275 288.794 128.339C288.794 126.404 287.666 124.835 286.275 124.835C284.884 124.835 283.756 126.404 283.756 128.339C283.756 130.275 284.884 131.843 286.275 131.843Z" fill="#2D2D37"/>
<path d="M277.149 154.019C279.185 153.994 280.798 150.898 280.751 147.104C280.704 143.31 279.015 140.254 276.979 140.28C274.943 140.305 273.33 143.401 273.377 147.195C273.424 150.989 275.113 154.044 277.149 154.019Z" fill="#FF7BA4"/>
<path d="M322.573 130.79L321.588 131.798C320.581 132.828 320.604 134.477 321.634 135.485" stroke="#FFBED2" stroke-width="1.87563" stroke-miterlimit="10" stroke-linecap="round" stroke-linejoin="round"/>
<path d="M277.343 135.965C274.87 136.034 272.831 134.064 272.763 131.614C272.694 129.141 276.152 127.606 277.114 127.034V124.011" stroke="#FFBED2" stroke-width="1.87563" stroke-miterlimit="10" stroke-linecap="round" stroke-linejoin="round"/>
<path d="M92.2529 187.425V197.731C92.2529 201.509 95.3218 204.578 99.1006 204.578C99.1464 204.578 99.1921 204.578 99.2608 204.578L105.124 211.403L98.5508 227.8C104.368 231.121 113.093 235.22 121.727 235.22H237.792V190.471H157.316C147.537 190.471 132.125 186.326 123.262 182.158C116.689 179.066 109.383 176.501 102.055 176.57C96.6272 176.616 92.2529 182.02 92.2529 187.425Z" fill="#FFE4EE"/>
<path d="M103.841 200.96H65.8475C62.0688 200.96 59 197.891 59 194.112C59 190.334 62.0688 187.265 65.8475 187.265H103.841C107.62 187.265 110.689 190.334 110.689 194.112C110.689 197.891 107.62 200.96 103.841 200.96Z" fill="#FFE4EE"/>
<path d="M109.063 228.327H91.5892C87.7876 228.327 84.7188 225.236 84.7188 221.457V221.388C84.7188 217.586 87.8105 214.518 91.5892 214.518H109.063C112.865 214.518 115.934 217.609 115.934 221.388V221.457C115.956 225.258 112.865 228.327 109.063 228.327Z" fill="#FFE4EE"/>
<path d="M104.322 214.655H86.7792C83.0004 214.655 79.9316 211.586 79.9316 207.807C79.9316 204.029 83.0004 200.96 86.7792 200.96H104.322C108.101 200.96 111.169 204.029 111.169 207.807C111.169 211.586 108.101 214.655 104.322 214.655Z" fill="#FFE4EE"/>
<path d="M106.956 201.487C109.429 202.517 111.17 204.968 111.17 207.808C111.17 211.586 108.101 214.655 104.322 214.655H95.0244H109.086C112.865 214.655 115.934 217.724 115.934 221.503C115.934 224.182 114.399 226.495 112.155 227.617" stroke="#FFBED2" stroke-width="1.4166" stroke-miterlimit="10" stroke-linecap="round" stroke-linejoin="round"/>
<path d="M124.452 202.7C109.223 202.7 105.948 189.417 105.948 189.417V197.754C105.948 201.532 102.879 204.601 99.1006 204.601C95.3218 204.601 92.2529 201.532 92.2529 197.754V192.715" stroke="#FFBED2" stroke-width="1.4166" stroke-miterlimit="10" stroke-linecap="round" stroke-linejoin="round"/>
<path d="M279.381 236.48H232.044C231.265 236.48 230.624 235.839 230.624 235.06V190.402C230.624 189.624 231.265 188.982 232.044 188.982H279.381C292.504 188.982 303.13 199.609 303.13 212.731C303.153 225.854 292.504 236.48 279.381 236.48Z" fill="#FFD25F"/>
<path d="M239.396 236.48H260.373L273.13 194.112C273.13 194.112 250.205 205.288 239.396 236.48Z" fill="#FFB428"/>
<path d="M227.51 190.471V235.22H230.624V190.471H227.51Z" fill="#FFCDDC"/>
<path d="M343.597 193.265L322.825 183.165C312.016 177.898 299.466 177.44 288.29 181.929C270.655 188.982 257.922 204.647 254.624 223.357L234.013 339.88C233.303 343.911 236.395 347.598 240.471 347.598H355.597C359.559 347.598 362.605 344.14 362.124 340.201L343.597 193.265Z" fill="#FFD25F"/>
<path d="M351.383 255.099L301.206 223.472C301.206 223.472 307.344 257.961 353.765 274.015L351.383 255.099Z" fill="#FFB428"/>
<path d="M360.018 262.085C361.048 262.657 360.957 264.191 359.835 264.604L333.933 274.314C325.62 277.039 316.688 277.429 308.146 275.413C299.077 273.26 289.55 274.108 280.824 277.406C275.649 279.352 273.084 285.192 275.03 290.391L276.427 294.101C276.427 294.101 272.671 295.956 269.854 297.925C267.06 299.918 264.862 303.445 266.167 306.926C267.404 310.246 270.977 311.964 274.32 311.002C271.48 312.628 270.129 316.109 271.32 319.292L271.389 319.453C272.717 322.98 276.633 324.766 280.16 323.438L282.519 322.545C279.931 324.239 278.74 327.537 279.885 330.56C280.87 333.171 283.275 334.797 285.886 334.911C292.39 335.965 301.092 334.774 309.062 331.774L398.172 298.246C412.76 292.75 422.424 278.803 422.424 263.207C422.424 250.176 415.645 238.084 404.515 231.282L341.719 192.853C327.704 183.761 308.879 189.12 301.756 204.258C297.863 217.037 303.451 230.801 315.131 237.259L360.018 262.085Z" fill="#FFE4EE"/>
<path d="M364.346 263.917L369.957 264.168" stroke="#FFBED2" stroke-width="1.87563" stroke-miterlimit="10" stroke-linecap="round" stroke-linejoin="round"/>
<path d="M366.499 208.014L338.398 250.13L348.59 255.786L374.193 212.731L366.499 208.014Z" fill="#FFCDDC"/>
<path d="M318.428 188.776C310.459 191.044 303.84 196.655 300.313 204.166L300.267 204.326C296.237 217.541 302.099 231.992 314.191 238.656L343.963 255.122C344.628 255.489 345.475 255.259 345.864 254.595L371.583 211.403C371.995 210.716 371.766 209.846 371.079 209.457L341.925 192.303C334.986 187.769 326.421 186.486 318.428 188.776Z" fill="#FFD25F"/>
<path d="M278.854 294.101L293.511 288.604C293.511 288.604 287.878 290.299 286.572 286.818L288.015 290.665" stroke="#FFBED2" stroke-width="1.87563" stroke-miterlimit="10" stroke-linecap="round" stroke-linejoin="round"/>
<path d="M284.854 321.537L287.374 320.598" stroke="#FFBED2" stroke-width="1.87563" stroke-miterlimit="10" stroke-linecap="round" stroke-linejoin="round"/>
<path d="M276.885 309.994L279.404 309.055" stroke="#FFBED2" stroke-width="1.87563" stroke-miterlimit="10" stroke-linecap="round" stroke-linejoin="round"/>
</g>
</svg>
