<svg width="382" height="348" viewBox="0 0 382 348" fill="none" xmlns="http://www.w3.org/2000/svg">
<mask id="mask0" mask-type="alpha" maskUnits="userSpaceOnUse" x="0" y="0" width="382" height="348">
<path d="M382 324C382 337.255 371.255 348 358 348L24 348C10.7452 348 2.95782e-05 337.255 2.84194e-05 324L2.19259e-06 24C1.03382e-06 10.7452 10.7452 1.93855e-06 24 7.79773e-07L358 -2.84194e-05C371.255 -2.95782e-05 382 10.7451 382 24L382 324Z" fill="#3C6EE6"/>
</mask>
<g mask="url(#mask0)">
<path d="M91.2754 188.185V198.491C91.2754 202.27 94.3443 205.338 98.123 205.338C98.1688 205.338 98.2147 205.338 98.2834 205.338L104.146 212.163L97.5733 228.561C103.39 231.881 112.116 235.981 120.75 235.981H236.814V191.231H156.339C146.56 191.231 131.147 187.086 122.284 182.918C115.711 179.826 108.406 177.261 101.077 177.33C95.6498 177.376 91.2754 182.78 91.2754 188.185Z" fill="#FFE4EE"/>
<path d="M102.841 201.72H64.8476C61.0689 201.72 58 198.651 58 194.873C58 191.094 61.0689 188.025 64.8476 188.025H102.841C106.62 188.025 109.689 191.094 109.689 194.873C109.689 198.674 106.643 201.72 102.841 201.72Z" fill="#FFE4EE"/>
<path d="M108.085 229.11H90.6117C86.81 229.11 83.7412 226.019 83.7412 222.24V222.171C83.7412 218.37 86.8329 215.301 90.6117 215.301H108.085C111.887 215.301 114.956 218.392 114.956 222.171V222.24C114.956 226.019 111.887 229.11 108.085 229.11Z" fill="#FFE4EE"/>
<path d="M103.345 215.415H85.8027C82.024 215.415 78.9551 212.346 78.9551 208.567C78.9551 204.789 82.024 201.72 85.8027 201.72H103.345C107.124 201.72 110.193 204.789 110.193 208.567C110.193 212.346 107.124 215.415 103.345 215.415Z" fill="#FFE4EE"/>
<path d="M105.978 202.247C108.452 203.278 110.192 205.728 110.192 208.568C110.192 212.347 107.124 215.415 103.345 215.415H94.0469H108.108C111.887 215.415 114.956 218.484 114.956 222.263C114.956 224.942 113.422 227.256 111.177 228.378" stroke="#FFBED2" stroke-width="1.4166" stroke-miterlimit="10" stroke-linecap="round" stroke-linejoin="round"/>
<path d="M123.452 203.461C108.223 203.461 104.948 190.178 104.948 190.178V198.514C104.948 202.293 101.879 205.361 98.1006 205.361C94.3218 205.361 91.2529 202.293 91.2529 198.514V193.476" stroke="#FFBED2" stroke-width="1.4166" stroke-miterlimit="10" stroke-linecap="round" stroke-linejoin="round"/>
<path d="M227.724 191.253V235.98H230.815V191.253H227.724Z" fill="#FFCDDC"/>
<path d="M316.81 141.328H283.855L280.877 181.886C279.526 193.52 288.618 195.284 300.321 195.284C312.024 195.284 321.115 193.52 319.764 181.886L316.81 141.328Z" fill="#FFDAE4"/>
<path d="M309.275 160.978C303.046 165.924 294.618 182.551 292.786 194.895C285.961 194.07 281.152 191.574 280.763 184.932C280.786 183.673 280.809 182.665 280.854 182.116C280.854 182.047 280.854 181.978 280.877 181.887L282.343 161.962L309.275 160.978Z" fill="#FFCDDC"/>
<path d="M254.426 118.197C254.426 96.6699 272.403 79.3334 294.16 80.3869C313.466 81.3259 329.268 97.2196 330.115 116.526C330.505 125.388 327.825 133.61 323.062 140.229C318.848 146.091 315.046 152.252 311.176 158.344C304.969 168.1 293.427 174.123 280.671 172.314C268.327 170.55 258.136 161.138 255.273 149C254.449 145.496 254.266 142.107 254.586 138.855C255.204 132.717 254.861 126.533 254.494 120.373C254.426 119.663 254.426 118.93 254.426 118.197Z" fill="#FFE4EE"/>
<path d="M291.046 132.442C293.196 132.442 294.939 129.982 294.939 126.946C294.939 123.911 293.196 121.45 291.046 121.45C288.895 121.45 287.152 123.911 287.152 126.946C287.152 129.982 288.895 132.442 291.046 132.442Z" fill="white"/>
<path d="M289.809 131.045C291.276 131.045 292.465 129.261 292.465 127.061C292.465 124.86 291.276 123.076 289.809 123.076C288.342 123.076 287.152 124.86 287.152 127.061C287.152 129.261 288.342 131.045 289.809 131.045Z" fill="#2D2D37"/>
<path d="M269.518 132.442C271.668 132.442 273.412 129.982 273.412 126.946C273.412 123.911 271.668 121.45 269.518 121.45C267.368 121.45 265.625 123.911 265.625 126.946C265.625 129.982 267.368 132.442 269.518 132.442Z" fill="white"/>
<path d="M268.259 131.045C269.726 131.045 270.916 129.261 270.916 127.061C270.916 124.86 269.726 123.076 268.259 123.076C266.792 123.076 265.603 124.86 265.603 127.061C265.603 129.261 266.792 131.045 268.259 131.045Z" fill="#2D2D37"/>
<path d="M256.923 120.075L254.495 120.396C254.655 123.029 254.793 125.64 254.862 128.274C256.488 128.205 254.541 120.258 256.923 120.098" fill="#787885"/>
<path d="M305.382 124.633C308.725 124.633 306.664 130.564 311.565 130.564C320.566 130.564 310.832 144.74 319.924 144.74C320.932 143.229 321.985 141.74 323.039 140.252C325.97 136.198 328.1 131.549 329.222 126.511C323.268 127.083 314.634 126.03 305.405 124.61" fill="#787885"/>
<path d="M254.426 118.198C254.426 96.4869 272.702 79.0359 294.71 80.41C314.108 81.6238 329.658 97.7923 330.139 117.236C330.207 120.419 329.91 123.511 329.246 126.465C329.91 123.511 330.62 120.419 330.551 117.236C330.07 97.8152 314.108 80.2727 294.71 79.0818C272.702 77.7077 254.151 93.8075 254.151 115.518C254.151 116.251 254.449 119.663 254.495 120.373C254.426 119.663 254.426 118.93 254.426 118.198Z" fill="#2D2D37"/>
<path d="M299.794 109.266C296.84 107.548 288.962 104.663 278.061 104.663C262.465 104.663 260.953 109.014 260.953 109.014C260.953 109.014 260.93 109.083 260.907 109.22C262.9 107.938 267.617 105.968 278.061 105.968C288.962 105.968 298.191 108.831 301.145 110.571C301.168 110.571 301.168 110.594 301.191 110.617C300.848 110.067 300.366 109.586 299.794 109.266Z" fill="#2D2D37"/>
<path d="M303.114 113.755C303.366 117.304 302.84 124.61 305.382 124.61C314.611 126.03 323.245 127.083 329.199 126.511C329.863 123.556 330.184 120.465 330.092 117.281C329.611 97.8609 314.061 81.6696 294.664 80.4558C272.655 79.0817 254.38 96.5327 254.38 118.243C254.38 118.976 254.403 119.686 254.449 120.419L256.876 120.098C258.892 119.961 259.556 110.365 259.556 110.365C259.556 110.365 259.876 109.884 260.861 109.243C260.884 109.128 260.907 109.037 260.907 109.037C260.907 109.037 262.418 104.686 278.014 104.686C288.915 104.686 296.794 107.548 299.748 109.289C300.32 109.632 300.801 110.09 301.145 110.64C302.29 111.281 303.023 112.449 303.114 113.755Z" fill="#2D2D37"/>
<path d="M259.602 110.343C259.602 110.343 262.465 105.991 278.061 105.991C288.962 105.991 298.191 108.854 301.146 110.594C302.291 111.259 303.047 112.449 303.138 113.778C303.39 117.327 302.863 124.633 305.405 124.633C314.635 126.053 323.268 127.106 329.223 126.534C329.887 123.58 330.597 120.465 330.528 117.282C330.047 97.8611 314.085 80.3186 294.687 79.1277C272.679 77.7536 254.129 93.8534 254.129 115.564C254.129 116.297 254.427 119.709 254.472 120.419L256.9 120.099C258.938 119.938 259.602 110.343 259.602 110.343Z" fill="#2D2D37"/>
<path d="M310.214 128.411C310.214 124.45 313.191 121.266 316.81 121.449C320.016 121.61 322.627 124.541 322.764 128.114C322.833 129.74 322.375 131.251 321.596 132.488C320.886 133.564 320.268 134.709 319.627 135.832C318.596 137.618 316.695 138.74 314.565 138.397C312.527 138.076 310.832 136.335 310.351 134.114C310.214 133.473 310.191 132.854 310.237 132.236C310.329 131.114 310.283 129.969 310.214 128.824C310.237 128.686 310.214 128.549 310.214 128.411Z" fill="#FFE4EE"/>
<path d="M277.144 156.81C279.13 156.81 280.74 153.795 280.74 150.077C280.74 146.358 279.13 143.344 277.144 143.344C275.159 143.344 273.549 146.358 273.549 150.077C273.549 153.795 275.159 156.81 277.144 156.81Z" fill="#FF7BA4"/>
<path d="M279.045 136.107C276.595 136.175 274.579 134.229 274.511 131.801C274.442 129.351 277.877 127.839 278.816 127.267V121.931" stroke="#FFBED2" stroke-width="1.87563" stroke-miterlimit="10" stroke-linecap="round" stroke-linejoin="round"/>
<path d="M317.841 128.251L316.856 129.236C315.871 130.221 315.871 131.847 316.856 132.831" stroke="#FFBED2" stroke-width="1.87563" stroke-miterlimit="10" stroke-linecap="round" stroke-linejoin="round"/>
<path d="M279.389 237.262H232.052C231.273 237.262 230.632 236.621 230.632 235.843V191.185C230.632 190.406 231.273 189.765 232.052 189.765H279.389C292.512 189.765 303.138 200.391 303.138 213.514C303.138 226.613 292.489 237.262 279.389 237.262Z" fill="#FFD25F"/>
<path d="M239.38 237.262H260.358L273.114 194.895C273.114 194.895 250.189 206.07 239.38 237.262Z" fill="#FFB428"/>
<path d="M343.582 194.047L322.81 183.947C312.001 178.68 299.451 178.222 288.275 182.711C270.641 189.765 257.908 205.429 254.61 224.14L233.998 340.663C233.288 344.693 236.38 348.38 240.457 348.38H355.583C359.545 348.38 362.59 344.922 362.109 340.983L343.582 194.047Z" fill="#FFD25F"/>
<path d="M351.391 255.858L301.214 224.231C301.214 224.231 307.351 258.721 353.773 274.775L351.391 255.858Z" fill="#FFB428"/>
<path d="M360.002 262.866C361.033 263.439 360.941 264.973 359.819 265.386L333.917 275.096C325.604 277.821 316.672 278.21 308.13 276.195C299.061 274.042 289.534 274.89 280.809 278.187C275.633 280.134 273.068 285.974 275.015 291.173L276.412 294.883C276.412 294.883 272.656 296.738 269.839 298.707C267.045 300.7 264.846 304.226 266.152 307.707C267.388 311.028 270.961 312.746 274.305 311.784C271.465 313.41 270.114 316.891 271.305 320.074L271.373 320.235C272.702 323.761 276.618 325.548 280.145 324.219L282.503 323.326C279.915 325.021 278.725 328.319 279.87 331.342C280.854 333.953 283.259 335.579 285.87 335.693C292.374 336.747 301.077 335.556 309.046 332.556L398.156 299.028C412.744 293.531 422.409 279.584 422.409 263.988C422.409 250.958 415.63 238.866 404.5 232.064L341.704 193.635C327.688 184.543 308.863 189.902 301.741 205.04C297.847 217.819 303.435 231.583 315.115 238.041L360.002 262.866Z" fill="#FFE4EE"/>
<path d="M364.331 264.699L369.965 264.928" stroke="#FFBED2" stroke-width="1.87563" stroke-miterlimit="10" stroke-linecap="round" stroke-linejoin="round"/>
<path d="M278.839 294.883L293.496 289.386C293.496 289.386 287.862 291.081 286.557 287.6L287.999 291.448" stroke="#FFBED2" stroke-width="1.87563" stroke-miterlimit="10" stroke-linecap="round" stroke-linejoin="round"/>
<path d="M284.84 322.296L287.359 321.357" stroke="#FFBED2" stroke-width="1.87563" stroke-miterlimit="10" stroke-linecap="round" stroke-linejoin="round"/>
<path d="M276.893 310.776L279.389 309.837" stroke="#FFBED2" stroke-width="1.87563" stroke-miterlimit="10" stroke-linecap="round" stroke-linejoin="round"/>
<path d="M366.483 208.796L338.383 250.912L348.597 256.546L374.178 213.491L366.483 208.796Z" fill="#FFCDDC"/>
<path d="M318.436 189.536C310.466 191.803 303.848 197.414 300.321 204.926L300.275 205.086C296.245 218.3 302.107 232.751 314.199 239.415L343.971 255.881C344.635 256.248 345.483 256.019 345.872 255.355L371.59 212.162C372.003 211.475 371.774 210.605 371.087 210.216L341.933 193.063C334.971 188.551 326.406 187.268 318.436 189.536Z" fill="#FFD25F"/>
</g>
</svg>
