<svg width="382" height="348" viewBox="0 0 382 348" fill="none" xmlns="http://www.w3.org/2000/svg">
<mask id="mask0" mask-type="alpha" maskUnits="userSpaceOnUse" x="0" y="0" width="382" height="348">
<path d="M382 324C382 337.255 371.255 348 358 348L24 348C10.7452 348 2.95782e-05 337.255 2.84194e-05 324L2.19259e-06 24C1.03382e-06 10.7452 10.7452 1.93855e-06 24 7.79773e-07L358 -2.84194e-05C371.255 -2.95782e-05 382 10.7451 382 24L382 324Z" fill="#F04682"/>
</mask>
<g mask="url(#mask0)">
<path d="M177.028 246.798L174.231 279.698C174.157 280.605 172.897 280.791 172.564 279.939L162.023 247.446L158.244 237.406C157.929 236.646 157.596 235.887 157.244 235.146L143.739 196.93C142.85 193.984 139.757 192.335 136.83 193.206C133.884 194.095 132.236 197.189 133.106 200.116L135.829 207.822C136.793 210.564 134.218 213.287 131.439 212.379C127.178 210.99 122.658 210.249 118.009 210.249H100.003C96.9276 210.249 94.4453 212.731 94.4453 215.806C94.4453 218.881 96.9276 221.364 100.003 221.364H117.045C117.583 221.364 118.009 221.79 118.009 222.327C118.009 222.864 117.583 223.29 117.045 223.29H97.5574C94.4823 223.29 92 225.772 92 228.848C92 231.923 94.4823 234.405 97.5574 234.405H117.045C117.583 234.405 118.009 234.831 118.009 235.368C118.009 235.906 117.583 236.332 117.045 236.332H103.263C100.188 236.332 97.7056 238.814 97.7056 241.889C97.7056 244.964 100.188 247.446 103.263 247.446H118.009H123.788L143.332 300.834C148.519 313.857 161.116 322.416 175.139 322.416C192.107 322.416 206.26 309.485 207.816 292.61L211.595 251.522L177.028 246.798Z" fill="#FFE4EE"/>
<path d="M136.384 218.77C136.032 224.846 140.552 228.959 145.479 228.292" stroke="#FFBED2" stroke-width="1.75058" stroke-miterlimit="10" stroke-linecap="round" stroke-linejoin="round"/>
<path d="M131.382 240.481C133.105 235.794 131.234 225.291 128.622 220.419" stroke="#FFBED2" stroke-width="1.75058" stroke-miterlimit="10" stroke-linecap="round" stroke-linejoin="round"/>
<path d="M177.028 246.798L211.595 251.503L210.317 265.452C198.869 260.487 187.55 255.838 176.491 253.17L177.028 246.798Z" fill="#FFCDDC"/>
<path d="M173.656 283.588L174.675 288.608" stroke="#FFBED2" stroke-width="1.75058" stroke-miterlimit="10" stroke-linecap="round" stroke-linejoin="round"/>
<path d="M356.958 246.798L359.755 279.697C359.829 280.605 361.089 280.79 361.422 279.938L371.963 247.446L375.742 237.406C376.057 236.646 376.39 235.886 376.742 235.145L390.247 196.929C391.136 193.984 394.23 192.335 397.156 193.206C400.102 194.095 401.751 197.188 400.88 200.115L398.157 207.822C397.194 210.563 399.769 213.286 402.547 212.379C406.808 210.989 411.328 210.248 415.978 210.248H433.983C437.059 210.248 439.541 212.731 439.541 215.806C439.541 218.881 437.059 221.363 433.983 221.363H416.941C416.404 221.363 415.978 221.789 415.978 222.326C415.978 222.864 416.404 223.29 416.941 223.29H436.429C439.504 223.29 441.986 225.772 441.986 228.847C441.986 231.922 439.504 234.404 436.429 234.404H416.922C416.385 234.404 415.959 234.831 415.959 235.368C415.959 235.905 416.385 236.331 416.922 236.331H430.705C433.78 236.331 436.262 238.813 436.262 241.889C436.262 244.964 433.78 247.446 430.705 247.446H415.959H410.179L390.636 300.834C385.449 313.857 372.852 322.415 358.829 322.415C341.86 322.415 327.707 309.485 326.151 292.609L322.372 251.521L356.958 246.798Z" fill="#FFE4EE"/>
<path d="M356.958 246.797L322.391 251.503L323.669 265.452C335.117 260.487 346.436 255.837 357.495 253.17L356.958 246.797Z" fill="#FFCDDC"/>
<path d="M360.329 283.588L359.311 288.608" stroke="#FFBED2" stroke-width="1.75058" stroke-miterlimit="10" stroke-linecap="round" stroke-linejoin="round"/>
<path d="M203.426 254.577C205.964 255.244 207.65 257.615 207.464 260.227L201.314 342.533C201.073 345.682 203.574 348.349 206.723 348.349H327.097C330.301 348.349 332.802 345.589 332.488 342.384L324.3 260.394C324.04 257.708 325.781 255.244 328.393 254.596L357.366 247.482C359.978 246.834 361.794 244.352 361.479 241.684C358.441 215.75 330.45 194.317 293.048 187.333C290.825 186.925 289.084 185.239 288.658 183.016C288.306 181.146 286.991 179.534 285.175 178.941C273.023 174.847 260.89 174.847 248.756 178.941C246.941 179.552 245.644 181.146 245.273 183.016C244.847 185.221 243.087 186.925 240.883 187.333C203.463 194.317 175.454 215.787 172.453 241.758C172.138 244.407 173.916 246.871 176.491 247.538L203.426 254.577Z" fill="#FF6991"/>
<path d="M288.658 193.279L280.656 204.079C279.377 205.802 276.858 206.024 275.302 204.542L269.541 199.059C268.114 197.688 265.854 197.688 264.409 199.059L258.648 204.542C257.092 206.024 254.573 205.82 253.295 204.079L245.292 193.279" stroke="#F04682" stroke-width="1.75058" stroke-miterlimit="10" stroke-linecap="round" stroke-linejoin="round"/>
<path d="M266.947 207.636C267.868 207.636 268.614 206.89 268.614 205.969C268.614 205.048 267.868 204.302 266.947 204.302C266.026 204.302 265.28 205.048 265.28 205.969C265.28 206.89 266.026 207.636 266.947 207.636Z" fill="white"/>
<path d="M266.947 212.73C267.868 212.73 268.614 211.984 268.614 211.063C268.614 210.142 267.868 209.396 266.947 209.396C266.026 209.396 265.28 210.142 265.28 211.063C265.28 211.984 266.026 212.73 266.947 212.73Z" fill="white"/>
<path d="M282.378 140.188H251.609L248.83 178.033C247.57 188.889 256.054 190.538 266.984 190.538C277.914 190.538 286.398 188.889 285.138 178.033L282.378 140.188Z" fill="#FFDAE4"/>
<path d="M275.339 158.527C269.522 163.139 261.667 178.663 259.945 190.185C253.572 189.407 249.071 187.092 248.719 180.886C248.737 179.719 248.756 178.756 248.793 178.256C248.793 178.182 248.811 178.126 248.811 178.052L250.164 159.453L275.339 158.527Z" fill="#FFCDDC"/>
<path d="M224.135 118.607C224.135 98.5076 240.919 82.3356 261.222 83.3174C279.246 84.188 293.992 99.0262 294.77 117.051C295.122 125.331 292.621 133.001 288.175 139.169C284.229 144.634 280.691 150.377 277.079 156.082C271.299 165.196 260.518 170.809 248.607 169.105C237.084 167.456 227.562 158.676 224.913 147.357C224.154 144.097 223.969 140.91 224.284 137.891C224.858 132.167 224.543 126.406 224.21 120.645C224.154 119.959 224.135 119.292 224.135 118.607Z" fill="#FFE4EE"/>
<path d="M258.332 131.888C260.348 131.888 261.981 129.591 261.981 126.757C261.981 123.923 260.348 121.625 258.332 121.625C256.317 121.625 254.683 123.923 254.683 126.757C254.683 129.591 256.317 131.888 258.332 131.888Z" fill="white"/>
<path d="M257.165 130.573C258.536 130.573 259.647 128.915 259.647 126.869C259.647 124.822 258.536 123.164 257.165 123.164C255.794 123.164 254.683 124.822 254.683 126.869C254.683 128.915 255.794 130.573 257.165 130.573Z" fill="#2D2D37"/>
<path d="M238.234 131.888C240.249 131.888 241.883 129.591 241.883 126.757C241.883 123.923 240.249 121.625 238.234 121.625C236.218 121.625 234.584 123.923 234.584 126.757C234.584 129.591 236.218 131.888 238.234 131.888Z" fill="white"/>
<path d="M237.067 130.573C238.437 130.573 239.549 128.915 239.549 126.869C239.549 124.822 238.437 123.164 237.067 123.164C235.696 123.164 234.584 124.822 234.584 126.869C234.584 128.915 235.696 130.573 237.067 130.573Z" fill="#2D2D37"/>
<path d="M226.47 120.348L224.191 120.645C224.339 123.09 224.469 125.535 224.543 127.999C226.044 127.943 224.247 120.515 226.47 120.385" fill="#787885"/>
<path d="M271.707 124.608C274.837 124.608 272.892 130.147 277.468 130.147C285.878 130.147 276.801 143.374 285.267 143.374C286.212 141.966 287.193 140.558 288.175 139.187C290.898 135.408 292.899 131.055 293.955 126.35C288.398 126.887 280.321 125.905 271.707 124.59" fill="#787885"/>
<path d="M224.136 118.607C224.136 98.3405 241.197 82.0573 261.723 83.3355C279.821 84.4655 294.345 99.5631 294.789 117.699C294.863 120.663 294.567 123.552 293.937 126.331C294.567 123.571 295.234 120.681 295.16 117.699C294.715 99.5631 279.821 83.2059 261.723 82.0758C241.179 80.7976 223.877 95.8211 223.877 116.087C223.877 116.772 224.154 119.94 224.191 120.607C224.191 120.607 224.191 120.607 224.191 120.626C224.191 120.626 224.191 120.626 224.191 120.607C224.154 119.959 224.136 119.292 224.136 118.607Z" fill="#2D2D37"/>
<path d="M266.483 110.251C263.723 108.64 256.369 105.972 246.199 105.972C231.638 105.972 230.231 110.048 230.231 110.048C230.231 110.048 230.212 110.122 230.193 110.233C232.046 109.029 236.455 107.213 246.199 107.213C256.369 107.213 264.983 109.881 267.743 111.492C267.762 111.511 267.78 111.511 267.78 111.53C267.465 111.011 267.021 110.566 266.483 110.251Z" fill="#2D2D37"/>
<path d="M269.596 114.439C269.837 117.754 269.355 124.571 271.707 124.571C280.321 125.887 288.398 126.868 293.956 126.331C294.567 123.571 294.882 120.681 294.808 117.699C294.363 99.5632 279.84 84.4471 261.741 83.3356C241.197 82.0574 224.155 98.3406 224.155 118.607C224.155 119.292 224.173 119.959 224.21 120.626C224.21 120.626 224.21 120.626 224.21 120.644L226.489 120.348C228.378 120.237 228.99 111.271 228.99 111.271C228.99 111.271 229.286 110.826 230.212 110.233C230.231 110.122 230.249 110.048 230.249 110.048C230.249 110.048 231.657 105.973 246.218 105.973C256.388 105.973 263.742 108.64 266.502 110.252C267.039 110.567 267.484 110.993 267.799 111.512C268.836 112.141 269.503 113.234 269.596 114.439Z" fill="#2D2D37"/>
<path d="M228.973 111.271C228.973 111.271 231.641 107.195 246.201 107.195C256.371 107.195 264.985 109.863 267.745 111.475C268.82 112.104 269.505 113.197 269.598 114.438C269.838 117.754 269.357 124.571 271.709 124.571C280.323 125.887 288.4 126.868 293.958 126.331C294.587 123.571 295.254 120.681 295.18 117.699C294.736 99.5631 279.842 83.2059 261.743 82.0758C241.199 80.7976 223.897 95.8211 223.897 116.087C223.897 116.772 224.175 119.94 224.212 120.607C224.212 120.607 224.212 120.607 224.212 120.626L226.491 120.329C228.362 120.218 228.973 111.271 228.973 111.271Z" fill="#2D2D37"/>
<path d="M276.228 128.147C276.228 124.442 279.006 121.459 282.378 121.644C285.36 121.811 287.805 124.534 287.935 127.85C287.991 129.369 287.583 130.777 286.842 131.926C286.194 132.926 285.601 133.982 285.008 135.038C284.045 136.705 282.267 137.742 280.285 137.446C278.376 137.15 276.802 135.519 276.357 133.445C276.228 132.852 276.209 132.259 276.246 131.703C276.339 130.647 276.283 129.592 276.228 128.536C276.228 128.387 276.228 128.276 276.228 128.147Z" fill="#FFE4EE"/>
<path d="M245.366 154.637C247.218 154.637 248.719 151.825 248.719 148.357C248.719 144.889 247.218 142.077 245.366 142.077C243.514 142.077 242.013 144.889 242.013 148.357C242.013 151.825 243.514 154.637 245.366 154.637Z" fill="#FF7BA4"/>
<path d="M247.125 135.315C244.847 135.371 242.957 133.574 242.901 131.296C242.846 129.017 246.032 127.591 246.921 127.072V122.089" stroke="#FFBED2" stroke-width="1.75058" stroke-miterlimit="10" stroke-linecap="round" stroke-linejoin="round"/>
<path d="M283.322 127.999L282.415 128.906C281.488 129.833 281.488 131.333 282.415 132.259" stroke="#FFBED2" stroke-width="1.75058" stroke-miterlimit="10" stroke-linecap="round" stroke-linejoin="round"/>
</g>
</svg>
