<svg width="382" height="348" viewBox="0 0 382 348" fill="none" xmlns="http://www.w3.org/2000/svg">
<mask id="mask0" mask-type="alpha" maskUnits="userSpaceOnUse" x="0" y="0" width="382" height="348">
<path d="M382 324C382 337.255 371.255 348 358 348L24 348C10.7452 348 2.95782e-05 337.255 2.84194e-05 324L2.19259e-06 24C1.03382e-06 10.7452 10.7452 1.93855e-06 24 7.79773e-07L358 -2.84194e-05C371.255 -2.95782e-05 382 10.7451 382 24L382 324Z" fill="#32BECD"/>
</mask>
<g mask="url(#mask0)">
<path d="M177.028 245.959L174.231 278.859C174.157 279.767 172.897 279.952 172.564 279.1L162.023 246.608L158.244 236.567C157.929 235.808 157.596 235.048 157.244 234.307L143.739 196.091C142.85 193.145 139.757 191.497 136.83 192.367C133.903 193.238 132.236 196.35 133.106 199.277L135.829 206.983C136.793 209.725 134.218 212.448 131.439 211.54C127.178 210.151 122.658 209.41 118.009 209.41H100.003C96.9276 209.41 94.4453 211.892 94.4453 214.967C94.4453 218.042 96.9276 220.525 100.003 220.525H117.045C117.583 220.525 118.009 220.951 118.009 221.488C118.009 222.025 117.583 222.451 117.045 222.451H97.5574C94.4823 222.451 92 224.934 92 228.009C92 231.084 94.4823 233.566 97.5574 233.566H117.045C117.583 233.566 118.009 233.992 118.009 234.529C118.009 235.067 117.583 235.493 117.045 235.493H103.263C100.188 235.493 97.7056 237.975 97.7056 241.05C97.7056 244.125 100.188 246.608 103.263 246.608H118.009H123.788L143.332 299.995C148.519 313.018 161.116 321.577 175.139 321.577C192.107 321.577 206.26 308.647 207.816 291.771L211.595 250.683L177.028 245.959Z" fill="#FFE4EE"/>
<path d="M136.404 217.931C136.052 224.007 140.572 228.119 145.5 227.452" stroke="#FFBED2" stroke-width="1.75058" stroke-miterlimit="10" stroke-linecap="round" stroke-linejoin="round"/>
<path d="M131.403 239.642C133.125 234.956 131.254 224.452 128.642 219.58" stroke="#FFBED2" stroke-width="1.75058" stroke-miterlimit="10" stroke-linecap="round" stroke-linejoin="round"/>
<path d="M177.028 245.959L211.595 250.664L210.317 264.613C198.869 259.649 187.55 254.999 176.491 252.331L177.028 245.959Z" fill="#FFCDDC"/>
<path d="M173.658 282.749L174.677 287.769" stroke="#FFBED2" stroke-width="1.75058" stroke-miterlimit="10" stroke-linecap="round" stroke-linejoin="round"/>
<path d="M356.961 245.959L359.759 278.859C359.833 279.767 361.093 279.952 361.426 279.1L371.966 246.608L375.746 236.567C376.06 235.808 376.394 235.048 376.746 234.307L390.25 196.091C391.14 193.145 394.233 191.497 397.16 192.367C400.105 193.256 401.754 196.35 400.884 199.277L398.16 206.983C397.197 209.725 399.772 212.448 402.551 211.54C406.811 210.151 411.331 209.41 415.981 209.41H433.987C437.062 209.41 439.545 211.892 439.545 214.967C439.545 218.042 437.062 220.525 433.987 220.525H416.945C416.407 220.525 415.981 220.951 415.981 221.488C415.981 222.025 416.407 222.451 416.945 222.451H436.432C439.507 222.451 441.99 224.934 441.99 228.009C441.99 231.084 439.507 233.566 436.432 233.566H416.945C416.407 233.566 415.981 233.992 415.981 234.529C415.981 235.067 416.407 235.493 416.945 235.493H430.727C433.802 235.493 436.284 237.975 436.284 241.05C436.284 244.125 433.802 246.608 430.727 246.608H415.981H410.201L390.658 299.995C385.471 313.018 372.874 321.577 358.851 321.577C341.882 321.577 327.73 308.647 326.174 291.771L322.395 250.683L356.961 245.959Z" fill="#FFE4EE"/>
<path d="M356.961 245.959L322.394 250.664L323.672 264.613C335.121 259.649 346.439 254.999 357.498 252.331L356.961 245.959Z" fill="#FFCDDC"/>
<path d="M360.334 282.749L359.315 287.769" stroke="#FFBED2" stroke-width="1.75058" stroke-miterlimit="10" stroke-linecap="round" stroke-linejoin="round"/>
<path d="M203.448 253.739C205.985 254.406 207.671 256.777 207.486 259.389L201.336 341.694C201.095 344.843 203.596 347.511 206.745 347.511H327.118C330.323 347.511 332.824 344.751 332.509 341.546L324.321 259.556C324.062 256.87 325.803 254.406 328.415 253.758L357.388 246.644C360 245.996 361.815 243.513 361.5 240.846C358.462 214.911 330.471 193.478 293.07 186.495C290.847 186.087 289.106 184.401 288.68 182.178C288.328 180.307 287.012 178.695 285.197 178.103C273.045 174.009 260.911 174.009 248.777 178.103C246.962 178.714 245.665 180.307 245.295 182.178C244.869 184.383 243.109 186.087 240.904 186.495C203.485 193.478 175.475 214.948 172.474 240.92C172.159 243.569 173.938 246.033 176.513 246.7L203.448 253.739Z" fill="#32D7E1"/>
<path d="M288.662 192.441L280.659 203.241C279.381 204.964 276.862 205.186 275.306 203.704L269.545 198.221C268.118 196.85 265.858 196.85 264.413 198.221L258.652 203.704C257.096 205.186 254.577 204.983 253.298 203.241L245.296 192.441" stroke="#32BECD" stroke-width="1.75058" stroke-miterlimit="10" stroke-linecap="round" stroke-linejoin="round"/>
<path d="M266.969 206.797C267.89 206.797 268.636 206.051 268.636 205.13C268.636 204.209 267.89 203.463 266.969 203.463C266.048 203.463 265.302 204.209 265.302 205.13C265.302 206.051 266.048 206.797 266.969 206.797Z" fill="white"/>
<path d="M266.969 211.892C267.89 211.892 268.636 211.146 268.636 210.225C268.636 209.304 267.89 208.558 266.969 208.558C266.048 208.558 265.302 209.304 265.302 210.225C265.302 211.146 266.048 211.892 266.969 211.892Z" fill="white"/>
<path d="M282.751 138.961H251.759L248.962 177.103C247.684 188.033 256.242 189.7 267.246 189.7C278.25 189.7 286.808 188.051 285.53 177.103L282.751 138.961Z" fill="#FFDAE4"/>
<path d="M275.675 157.448C269.821 162.098 261.892 177.733 260.17 189.348C253.742 188.57 249.222 186.217 248.87 179.974C248.888 178.789 248.907 177.826 248.962 177.325C248.962 177.251 248.981 177.196 248.981 177.121L250.352 158.374L275.675 157.448Z" fill="#FFCDDC"/>
<path d="M224.084 117.232C224.084 96.9841 240.997 80.6824 261.448 81.6642C279.602 82.5349 294.459 97.4843 295.256 115.657C295.626 123.993 293.088 131.718 288.605 137.942C284.641 143.462 281.066 149.242 277.435 154.985C271.599 164.155 260.763 169.823 248.74 168.119C237.125 166.452 227.529 157.615 224.862 146.204C224.084 142.925 223.917 139.721 224.213 136.664C224.788 130.884 224.473 125.086 224.139 119.288C224.102 118.584 224.084 117.917 224.084 117.232Z" fill="#FFE4EE"/>
<path d="M256.001 135.089C258.027 135.089 259.669 132.808 259.669 129.995C259.669 127.181 258.027 124.9 256.001 124.9C253.976 124.9 252.333 127.181 252.333 129.995C252.333 132.808 253.976 135.089 256.001 135.089Z" fill="white"/>
<path d="M254.834 133.83C256.215 133.83 257.335 132.154 257.335 130.088C257.335 128.021 256.215 126.346 254.834 126.346C253.453 126.346 252.333 128.021 252.333 130.088C252.333 132.154 253.453 133.83 254.834 133.83Z" fill="#2D2D37"/>
<path d="M235.754 135.089C237.78 135.089 239.422 132.808 239.422 129.995C239.422 127.181 237.78 124.9 235.754 124.9C233.728 124.9 232.086 127.181 232.086 129.995C232.086 132.808 233.728 135.089 235.754 135.089Z" fill="white"/>
<path d="M234.569 133.83C235.95 133.83 237.07 132.154 237.07 130.088C237.07 128.021 235.95 126.346 234.569 126.346C233.188 126.346 232.068 128.021 232.068 130.088C232.068 132.154 233.188 133.83 234.569 133.83Z" fill="#2D2D37"/>
<path d="M234.217 161.45C226.066 161.394 216.97 159.264 207.06 157.133C212.802 153.262 220.027 130.476 221.324 109.099C221.638 103.819 222.694 98.5953 224.639 93.6677C228.604 83.5533 237.329 71.2899 256.094 73.198C257.095 73.3462 257.854 73.6981 258.447 74.2724C259.243 73.7537 260.151 73.4203 261.096 73.2906C273.563 71.6789 287.92 77.3845 295.293 95.2423C300.831 108.673 306.945 127.068 309.89 137.719C311.39 143.184 309.445 149.075 304.833 152.372C295.793 158.838 284.604 160.338 269.932 161.876C274.1 156.522 274.786 135.774 269.728 115.212C265.542 116.194 257.317 117.102 254.112 117.12C253.408 114.415 252.297 110.21 253.871 107.691C253.871 107.691 251.074 112.47 251.185 117.361C249.073 117.491 246.943 117.49 244.813 117.379C244.164 114.712 244.35 109.692 245.85 107.302C245.85 107.302 242.256 112.637 241.997 117.176C240.108 116.99 238.218 116.694 236.31 116.323C235.532 113.6 236.236 109.654 237.903 106.968C237.903 106.968 233.735 110.988 233.679 115.731C232.864 115.712 231.679 115.416 230.919 115.193C229.437 114.767 227.307 113.045 225.973 111.266C224.769 114.841 224.102 116.009 224.102 119.991C224.102 120.677 224.121 121.362 224.158 122.029C224.491 127.827 224.825 130.847 224.232 136.626C223.917 139.683 224.102 142.888 224.88 146.167C226.27 152.224 229.641 157.541 234.217 161.45Z" fill="#2D2D37"/>
<path d="M244.442 144.166C242.571 144.166 241.052 147 241.052 150.483C241.052 153.984 242.571 156.818 244.442 156.818C246.313 156.818 247.832 153.984 247.832 150.483C247.832 147 246.313 144.166 244.442 144.166Z" fill="#FF7BA4"/>
<path d="M246.369 139.906H244.294C242.015 139.906 240.163 138.053 240.163 135.775C240.163 133.496 241.867 131.44 244.294 130.736V126.901" stroke="#FFBED2" stroke-width="1.75058" stroke-miterlimit="10" stroke-linecap="round" stroke-linejoin="round"/>
</g>
</svg>
