<svg width="382" height="348" viewBox="0 0 382 348" fill="none" xmlns="http://www.w3.org/2000/svg">
<mask id="mask0" mask-type="alpha" maskUnits="userSpaceOnUse" x="0" y="0" width="382" height="348">
<path d="M382 348L3.05176e-05 348L2.19259e-06 24C1.03382e-06 10.7452 10.7452 2.02057e-06 24 8.61793e-07L358 -2.83374e-05C371.255 -2.94962e-05 382 10.7451 382 24L382 348Z" fill="#78CD69"/>
</mask>
<g mask="url(#mask0)">
<g filter="url(#filter0_d)">
<path d="M272 210C321.706 210 362 169.706 362 120C362 70.2944 321.706 30 272 30C222.294 30 182 70.2944 182 120C182 169.706 222.294 210 272 210Z" fill="#D2DCFF"/>
<path d="M374.601 254.032L377.449 287.644C377.449 288.498 378.873 288.783 379.158 287.929L389.982 254.602L393.97 244.348C394.255 243.493 394.54 242.924 395.109 242.069L409.067 202.761C409.921 199.627 413.054 197.918 416.188 199.058C419.321 200.197 421.03 203.046 419.891 206.179L417.042 214.154C416.188 217.003 418.751 219.851 421.6 218.712C425.872 217.288 430.715 216.433 435.272 216.433H453.787C456.92 216.433 459.484 218.997 459.484 222.13C459.484 225.263 456.92 227.827 453.787 227.827H436.412C435.842 227.827 435.557 228.397 435.557 228.681C435.557 229.251 436.127 229.536 436.412 229.536H456.351C459.484 229.536 462.047 232.1 462.047 235.233C462.047 238.366 459.484 240.93 456.351 240.93H436.412C435.842 240.93 435.557 241.499 435.557 241.784C435.557 242.354 436.127 242.639 436.412 242.639H450.654C453.787 242.639 456.351 245.202 456.351 248.336C456.351 251.469 453.787 254.032 450.654 254.032H435.557H429.575L409.636 308.722C404.224 322.11 391.406 330.94 377.164 330.94C359.789 330.94 345.262 317.552 343.553 300.462L339.565 258.305L374.601 254.032Z" fill="#FFE5EF"/>
<path d="M374.601 254.032L339.28 258.875L340.704 273.117C352.383 267.99 364.062 263.147 375.455 260.584L374.601 254.032Z" fill="#FFD0DD"/>
<path d="M191.162 254.033L188.314 287.644C188.314 288.499 186.889 288.784 186.604 287.929L175.78 254.602L171.793 244.348C171.508 243.494 171.223 242.924 170.653 242.069L156.981 203.046C156.126 199.913 152.993 198.204 149.86 199.343C146.726 200.197 145.017 203.331 146.157 206.464L149.005 214.44C149.86 217.288 147.296 220.136 144.448 218.997C140.175 217.573 135.333 216.718 130.775 216.718H112.26C109.127 216.718 106.564 219.282 106.564 222.415C106.564 225.548 109.127 228.112 112.26 228.112H129.636C130.206 228.112 130.49 228.682 130.49 228.967C130.49 229.536 129.921 229.821 129.636 229.821H109.697C106.564 229.821 104 232.385 104 235.518C104 238.651 106.564 241.215 109.697 241.215H129.636C130.206 241.215 130.49 241.785 130.49 242.069C130.49 242.639 129.921 242.924 129.636 242.924H115.394C112.26 242.924 109.697 245.487 109.697 248.621C109.697 251.754 112.26 254.318 115.394 254.318H130.49H136.472L156.411 309.007C161.823 322.395 174.641 331.225 188.883 331.225C206.259 331.225 220.786 317.838 222.495 300.747L226.482 258.59L191.162 254.033Z" fill="#FFE5EF"/>
<path d="M144.448 247.766C146.157 242.924 144.163 232.1 141.599 227.257" stroke="#333333" stroke-width="0.3384" stroke-miterlimit="10" stroke-linecap="round" stroke-linejoin="round"/>
<path d="M149.575 225.548C149.29 231.815 153.847 236.087 158.975 235.233" stroke="#333333" stroke-width="0.3384" stroke-miterlimit="10" stroke-linecap="round" stroke-linejoin="round"/>
<path d="M149.575 225.548C149.29 231.815 153.847 236.087 158.975 235.233" stroke="#FFBED7" stroke-width="0.6709" stroke-miterlimit="10" stroke-linecap="round" stroke-linejoin="round"/>
<path d="M144.448 247.766C146.157 242.924 144.163 232.1 141.599 227.257" stroke="#FFBED7" stroke-width="0.6709" stroke-miterlimit="10" stroke-linecap="round" stroke-linejoin="round"/>
<path d="M191.162 254.032L226.482 258.875L225.058 273.117C213.38 267.99 201.701 263.147 190.307 260.584L191.162 254.032Z" fill="#FFD0DD"/>
<path d="M379.728 248.905C376.595 222.415 347.825 200.482 309.656 193.076C307.378 192.791 305.669 190.797 305.099 188.518C304.814 186.524 303.39 184.815 301.396 184.246C288.863 179.973 276.615 179.973 264.082 184.246C262.088 184.815 260.948 186.524 260.379 188.518C259.809 190.797 258.1 192.506 255.821 193.076C215.089 200.767 185.465 224.978 185.465 253.747L217.367 262.008C219.931 262.578 221.64 265.141 221.64 267.705L215.373 352.018C215.089 355.151 217.652 358 220.785 358H344.122C347.541 358 350.104 355.151 349.534 352.018L341.274 267.99C340.989 265.141 342.698 262.578 345.547 262.008L375.17 254.602C378.304 254.317 380.298 251.754 379.728 248.905Z" fill="#5A87FA"/>
<path opacity="0.5" d="M305.099 199.342L296.839 210.451C295.414 212.16 292.851 212.445 291.427 211.02L285.445 205.323C284.021 203.899 281.742 203.899 280.318 205.323L274.336 211.02C272.627 212.445 270.063 212.445 268.924 210.451L260.663 199.342" stroke="white" stroke-width="0.6709" stroke-miterlimit="10" stroke-linecap="round" stroke-linejoin="round"/>
<path d="M282.881 213.87C283.825 213.87 284.59 213.105 284.59 212.161C284.59 211.217 283.825 210.452 282.881 210.452C281.937 210.452 281.172 211.217 281.172 212.161C281.172 213.105 281.937 213.87 282.881 213.87Z" fill="#E5E5E5"/>
<path d="M282.881 219.282C283.825 219.282 284.59 218.516 284.59 217.573C284.59 216.629 283.825 215.864 282.881 215.864C281.937 215.864 281.172 216.629 281.172 217.573C281.172 218.516 281.937 219.282 282.881 219.282Z" fill="#E5E5E5"/>
<path d="M298.548 143.799H266.361L263.512 183.392C262.088 194.786 271.203 196.495 282.597 196.495C293.99 196.495 302.821 194.786 301.681 183.392L298.548 143.799Z" fill="#FFDBE5"/>
<path d="M291.142 162.883C285.16 167.725 276.9 183.961 274.906 195.924C268.355 195.07 263.512 192.791 263.227 186.24C263.227 185.1 263.227 183.961 263.227 183.391V183.106L264.652 163.737L291.142 162.883Z" fill="#FFD0DD"/>
<path d="M236.737 121.866C236.452 100.788 253.828 83.6973 275.191 84.267C293.991 84.8367 309.657 100.218 310.796 119.303C311.366 127.848 308.802 136.108 304.245 142.66C300.257 148.357 296.554 154.623 292.851 160.605C286.869 170.29 275.761 176.271 263.227 174.562C251.264 172.853 241.01 164.023 238.161 152.06C237.307 148.642 237.022 145.223 237.307 142.09C237.877 136.108 237.307 130.127 237.022 124.145C236.737 123.29 236.737 122.436 236.737 121.866Z" fill="#FFE5EF"/>
<path d="M230.47 121.866C227.337 94.8057 245.282 78.2848 268.354 78C271.773 78 274.051 79.1394 275.476 78.8545C276.045 78.8545 278.894 77.7152 282.312 78.2848C302.536 81.4181 319.626 101.072 315.639 121.866C315.639 121.866 311.366 150.35 300.827 155.762C299.972 156.047 299.118 155.762 298.833 154.908L293.706 120.442C293.706 119.872 293.136 119.302 292.281 119.302C289.433 119.302 281.742 119.302 276.615 116.454C275.476 115.884 274.336 117.023 274.906 118.163C275.191 118.733 275.476 119.017 276.045 119.302C277.754 120.442 263.797 119.587 257.246 113.605C256.391 112.751 254.967 113.605 254.967 114.745C255.252 115.884 255.537 117.023 256.391 117.593C258.385 119.587 246.137 118.733 243.288 110.757V110.472C243.288 110.472 237.022 117.308 237.307 125.284C237.307 127.848 237.591 129.557 237.591 130.981C237.591 132.12 236.167 132.975 235.313 131.835C233.034 129.557 231.04 126.138 230.47 121.866Z" fill="#333333"/>
<path d="M295.415 134.398C295.415 130.411 298.263 127.277 301.681 127.562C304.815 127.562 307.378 130.411 307.663 134.114C307.663 135.823 307.378 137.247 306.524 138.386C305.954 139.526 305.384 140.665 304.53 141.804C303.675 143.513 301.681 144.653 299.687 144.368C297.693 144.083 295.984 142.374 295.415 140.095C295.415 139.526 295.13 138.956 295.415 138.386C295.415 137.247 295.415 136.107 295.415 134.968C295.415 134.683 295.415 134.683 295.415 134.398Z" fill="#FFE5EF"/>
<path d="M249.84 137.532C252.042 137.532 253.828 134.981 253.828 131.835C253.828 128.689 252.042 126.138 249.84 126.138C247.637 126.138 245.852 128.689 245.852 131.835C245.852 134.981 247.637 137.532 249.84 137.532Z" fill="white"/>
<path d="M269.779 137.532C271.981 137.532 273.767 134.981 273.767 131.835C273.767 128.689 271.981 126.138 269.779 126.138C267.576 126.138 265.791 128.689 265.791 131.835C265.791 134.981 267.576 137.532 269.779 137.532Z" fill="white"/>
<path d="M248.131 135.254C249.547 135.254 250.694 133.724 250.694 131.836C250.694 129.948 249.547 128.418 248.131 128.418C246.715 128.418 245.567 129.948 245.567 131.836C245.567 133.724 246.715 135.254 248.131 135.254Z" fill="#333333"/>
<path d="M268.07 135.254C269.328 135.254 270.348 133.724 270.348 131.836C270.348 129.948 269.328 128.418 268.07 128.418C266.811 128.418 265.791 129.948 265.791 131.836C265.791 133.724 266.811 135.254 268.07 135.254Z" fill="#333333"/>
<path d="M259.24 143.229C257.246 143.229 255.822 146.077 255.822 149.78C255.822 153.483 257.531 156.332 259.524 156.332C261.518 156.332 262.943 153.483 262.943 149.78C262.943 146.077 261.233 143.229 259.24 143.229Z" fill="#FF97BF"/>
<path d="M302.821 134.115L301.966 134.969C301.112 135.824 301.112 137.533 301.966 138.387" stroke="#FFBED7" stroke-width="0.6298" stroke-miterlimit="10" stroke-linecap="round" stroke-linejoin="round"/>
<path d="M259.524 139.241C257.246 139.241 255.252 137.532 255.252 134.968C255.252 132.69 258.385 131.266 259.524 130.696V127.847" stroke="#FFBED7" stroke-width="0.6298" stroke-miterlimit="10" stroke-linecap="round" stroke-linejoin="round"/>
</g>
</g>
<defs>
<filter id="filter0_d" x="88" y="18" width="390.047" height="360" filterUnits="userSpaceOnUse" color-interpolation-filters="sRGB">
<feFlood flood-opacity="0" result="BackgroundImageFix"/>
<feColorMatrix in="SourceAlpha" type="matrix" values="0 0 0 0 0 0 0 0 0 0 0 0 0 0 0 0 0 0 127 0"/>
<feOffset dy="4"/>
<feGaussianBlur stdDeviation="8"/>
<feColorMatrix type="matrix" values="0 0 0 0 0 0 0 0 0 0 0 0 0 0 0 0 0 0 0.08 0"/>
<feBlend mode="normal" in2="BackgroundImageFix" result="effect1_dropShadow"/>
<feBlend mode="normal" in="SourceGraphic" in2="effect1_dropShadow" result="shape"/>
</filter>
</defs>
</svg>
