<svg width="382" height="348" viewBox="0 0 382 348" fill="none" xmlns="http://www.w3.org/2000/svg">
<mask id="mask0" mask-type="alpha" maskUnits="userSpaceOnUse" x="0" y="0" width="382" height="348">
<path d="M382 324C382 337.255 371.255 348 358 348L24 348C10.7452 348 2.95782e-05 337.255 2.84194e-05 324L2.19259e-06 24C1.03382e-06 10.7452 10.7452 1.93855e-06 24 7.79773e-07L358 -2.84194e-05C371.255 -2.95782e-05 382 10.7451 382 24L382 324Z" fill="#3C6EE6"/>
</mask>
<g mask="url(#mask0)">
<path d="M366.419 229.332L324.184 230.044C331.565 262.589 335.471 297.702 339.96 348.267H382.346C382.281 347.425 382.217 346.584 382.217 345.72C377.426 286.846 373.951 259.891 366.419 229.332Z" fill="#FFE4EE"/>
<path d="M221.845 297.594L230.563 248.345L190.444 240.101L183.084 280.911C182.933 281.775 181.681 281.775 181.53 280.911L168.258 205.916C167.632 202.355 167.481 198.729 167.783 195.125L169.056 180.579C169.315 177.709 167.675 174.86 164.956 173.932C160.942 172.573 157.187 175.572 156.841 179.457L154.899 201.708L143.267 179.651C141.842 176.587 138.173 175.249 135.109 176.695C132.044 178.119 130.706 181.788 132.131 184.852L142.619 204.47C133.922 208.247 128.613 217.591 130.318 227.325L142.727 297.572C146.115 316.758 162.798 330.743 182.286 330.743C201.795 330.764 218.456 316.78 221.845 297.594Z" fill="#FFE4EE"/>
<path d="M140.052 225.749L132.692 209.952C131.268 206.887 132.584 203.24 135.67 201.794C138.735 200.37 142.382 201.686 143.828 204.772L151.187 220.57C152.612 223.634 151.295 227.282 148.209 228.728C145.123 230.152 141.476 228.835 140.052 225.749Z" fill="#FFE4EE"/>
<path d="M145.512 208.463L151.166 220.57C152.59 223.635 151.274 227.282 148.188 228.728C145.123 230.152 141.476 228.836 140.03 225.75L136.383 217.916" stroke="#FFBED2" stroke-width="1.76752" stroke-miterlimit="10" stroke-linecap="round" stroke-linejoin="round"/>
<path d="M167.093 218.217L163.445 210.383C162.021 207.318 158.352 205.98 155.287 207.404C152.223 208.829 150.885 212.498 152.309 215.562L157.964 227.67C154.554 228.274 152.266 231.533 152.87 234.943L153.151 236.561" stroke="#FFBED2" stroke-width="1.76752" stroke-miterlimit="10" stroke-linecap="round" stroke-linejoin="round"/>
<path d="M227.434 266.107L230.585 248.345L190.465 240.101L188.242 252.446C201.062 255.618 214.161 260.755 227.434 266.107Z" fill="#FFCDDC"/>
<path d="M368.728 239.194L327.982 247.503C329.299 253.827 330.594 260.323 331.845 267.056C345.269 261.208 358.52 255.445 371.426 252.445C370.606 247.978 369.699 243.575 368.728 239.194Z" fill="#FFCDDC"/>
<path d="M216.946 254.108C219.493 254.777 221.198 257.151 221.003 259.784L214.831 342.441C214.594 345.591 217.097 348.289 220.248 348.289H341.147C344.363 348.289 346.888 345.505 346.564 342.311L338.342 259.956C338.083 257.259 339.831 254.777 342.464 254.129L371.555 246.986C374.188 246.339 376.001 243.857 375.699 241.159C372.635 215.11 344.536 193.593 306.984 186.58C304.761 186.169 302.991 184.465 302.581 182.242C302.214 180.364 300.919 178.746 299.085 178.141C286.892 174.041 274.698 174.041 262.505 178.141C260.692 178.746 259.375 180.364 259.008 182.242C258.577 184.465 256.829 186.169 254.606 186.58C217.033 193.593 188.89 215.153 185.89 241.224C185.588 243.878 187.358 246.36 189.948 247.029L216.946 254.108Z" fill="#FFD25F"/>
<path d="M302.537 192.557L294.509 203.391C293.214 205.139 290.711 205.355 289.135 203.844L283.352 198.341C281.906 196.96 279.639 196.96 278.215 198.341L272.431 203.844C270.856 205.333 268.353 205.118 267.058 203.391L259.029 192.557" stroke="#FFB428" stroke-width="1.76752" stroke-miterlimit="10" stroke-linecap="round" stroke-linejoin="round"/>
<path d="M280.74 206.974C281.67 206.974 282.424 206.22 282.424 205.29C282.424 204.361 281.67 203.607 280.74 203.607C279.811 203.607 279.057 204.361 279.057 205.29C279.057 206.22 279.811 206.974 280.74 206.974Z" fill="white"/>
<path d="M280.74 212.089C281.67 212.089 282.424 211.335 282.424 210.405C282.424 209.476 281.67 208.722 280.74 208.722C279.811 208.722 279.057 209.476 279.057 210.405C279.057 211.335 279.811 212.089 280.74 212.089Z" fill="white"/>
<path d="M296.02 138.884H264.684L261.857 177.428C260.562 188.478 269.216 190.161 280.352 190.161C291.488 190.161 300.121 188.478 298.848 177.428L296.02 138.884Z" fill="#FFDAE4"/>
<path d="M288.856 157.573C282.943 162.278 274.936 178.075 273.188 189.816C266.692 189.017 262.117 186.665 261.771 180.342C261.793 179.155 261.815 178.183 261.858 177.665C261.858 177.601 261.858 177.536 261.879 177.45L263.26 158.501L288.856 157.573Z" fill="#FFCDDC"/>
<path d="M236.694 116.914C236.694 96.4543 253.786 79.9661 274.461 80.9805C292.806 81.8653 307.826 96.9723 308.625 115.338C308.992 123.776 306.445 131.567 301.913 137.869C297.899 143.437 294.295 149.286 290.626 155.091C284.734 164.371 273.771 170.09 261.62 168.364C249.88 166.68 240.19 157.746 237.492 146.221C236.715 142.898 236.543 139.66 236.845 136.574C237.428 130.747 237.104 124.877 236.759 119.007C236.715 118.295 236.694 117.604 236.694 116.914Z" fill="#FFE4EE"/>
<path d="M271.526 130.445C273.576 130.445 275.238 128.107 275.238 125.223C275.238 122.338 273.576 120 271.526 120C269.476 120 267.814 122.338 267.814 125.223C267.814 128.107 269.476 130.445 271.526 130.445Z" fill="white"/>
<path d="M270.339 129.107C271.733 129.107 272.864 127.416 272.864 125.33C272.864 123.245 271.733 121.554 270.339 121.554C268.944 121.554 267.814 123.245 267.814 125.33C267.814 127.416 268.944 129.107 270.339 129.107Z" fill="#2D2D37"/>
<path d="M251.045 130.445C253.095 130.445 254.757 128.107 254.757 125.223C254.757 122.338 253.095 120 251.045 120C248.995 120 247.333 122.338 247.333 125.223C247.333 128.107 248.995 130.445 251.045 130.445Z" fill="white"/>
<path d="M249.858 129.107C251.253 129.107 252.383 127.416 252.383 125.33C252.383 123.245 251.253 121.554 249.858 121.554C248.464 121.554 247.333 123.245 247.333 125.33C247.333 127.416 248.464 129.107 249.858 129.107Z" fill="#2D2D37"/>
<path d="M244.182 96.0232C239.693 96.0232 236.089 99.7135 236.197 104.202C236.37 111.864 236.715 122.05 237.039 125.093C237.06 125.352 237.082 125.59 237.103 125.762C239.024 124.467 240.211 122.331 240.341 120.022L240.988 108.67C241.139 106.058 242.283 103.598 244.182 101.828V96.0232Z" fill="#5A5A6B"/>
<path d="M258.318 153.602C260.201 153.602 261.728 150.742 261.728 147.214C261.728 143.686 260.201 140.826 258.318 140.826C256.435 140.826 254.908 143.686 254.908 147.214C254.908 150.742 256.435 153.602 258.318 153.602Z" fill="#FF7BA4"/>
<path d="M260.11 133.942C257.779 134.006 255.858 132.172 255.793 129.841C255.729 127.51 258.987 126.064 259.894 125.525V120.453" stroke="#FFBED2" stroke-width="1.76752" stroke-miterlimit="10" stroke-linecap="round" stroke-linejoin="round"/>
<path d="M300.294 83.5713C300.056 83.5713 253.181 88.7076 253.181 88.7076C253.181 88.7076 252.296 101.808 255.814 101.808C259.332 101.808 268.137 100.923 271.525 100.923L276.144 99.93C280.546 101.635 283.633 107.591 284.043 112.296L284.517 117.907C284.82 121.576 286.74 124.9 289.762 126.993L292.977 135.431L296.517 145.812C298.653 142.489 302.452 139.403 305.538 133.942C311.451 123.389 311.991 108.908 311.624 100.469" fill="#5A5A6B"/>
<path d="M312.594 87.7794C309.033 78.5858 292.005 69.1978 285.207 73.2767C279.596 69.0251 269.971 68.2913 264.424 69.5646C249.835 72.9313 241.893 80.9597 239.368 77.8952C238.85 77.2693 237.901 77.3125 237.34 77.8952C232.635 82.7942 230.347 91.8583 233.563 98.8507C234.642 101.181 236.671 102.93 239.109 103.663C247.073 106.037 270.338 110.224 276.143 99.9297C280.287 110.526 296.667 109.167 310.155 105.347C311.126 105.066 311.903 104.311 312.184 103.34C313.608 97.9226 313.867 91.0814 312.594 87.7794Z" fill="#2D2D37"/>
<path d="M289.74 126.627C289.74 122.85 292.567 119.829 295.998 120.001C299.041 120.174 301.523 122.936 301.653 126.325C301.717 127.878 301.286 129.324 300.53 130.468C299.861 131.504 299.279 132.562 298.653 133.641C297.682 135.346 295.847 136.403 293.84 136.079C291.898 135.777 290.279 134.116 289.848 132.001C289.718 131.396 289.697 130.792 289.74 130.231C289.826 129.152 289.783 128.073 289.718 126.994C289.74 126.886 289.74 126.756 289.74 126.627Z" fill="#FFE4EE"/>
<path d="M296.969 126.475L296.041 127.403C295.092 128.352 295.092 129.885 296.041 130.813" stroke="#FFBED2" stroke-width="1.76752" stroke-miterlimit="10" stroke-linecap="round" stroke-linejoin="round"/>
</g>
</svg>
