<svg width="382" height="348" viewBox="0 0 382 348" fill="none" xmlns="http://www.w3.org/2000/svg">
<mask id="mask0" mask-type="alpha" maskUnits="userSpaceOnUse" x="0" y="0" width="382" height="348">
<path d="M382 324C382 337.255 371.255 348 358 348L24 348C10.7452 348 2.95782e-05 337.255 2.84194e-05 324L2.19259e-06 24C1.03382e-06 10.7452 10.7452 1.93855e-06 24 7.79773e-07L358 -2.84194e-05C371.255 -2.95782e-05 382 10.7451 382 24L382 324Z" fill="#32BECD"/>
</mask>
<g mask="url(#mask0)">
<path d="M177.028 246.655L174.231 279.555C174.157 280.463 172.897 280.648 172.564 279.796L162.023 247.304L158.244 237.263C157.929 236.504 157.596 235.744 157.244 235.003L143.739 196.787C142.85 193.842 139.757 192.193 136.83 193.063C133.903 193.934 132.236 197.046 133.106 199.973L135.829 207.679C136.793 210.421 134.218 213.144 131.439 212.236C127.178 210.847 122.658 210.106 118.009 210.106H100.003C96.9276 210.106 94.4453 212.588 94.4453 215.664C94.4453 218.739 96.9276 221.221 100.003 221.221H117.045C117.583 221.221 118.009 221.647 118.009 222.184C118.009 222.721 117.583 223.148 117.045 223.148H97.5574C94.4823 223.148 92 225.63 92 228.705C92 231.78 94.4823 234.262 97.5574 234.262H117.045C117.583 234.262 118.009 234.688 118.009 235.226C118.009 235.763 117.583 236.189 117.045 236.189H103.263C100.188 236.189 97.7057 238.671 97.7057 241.746C97.7057 244.822 100.188 247.304 103.263 247.304H118.009H123.788L143.332 300.692C148.519 313.715 161.116 322.273 175.139 322.273C192.107 322.273 206.26 309.343 207.816 292.467L211.595 251.379L177.028 246.655Z" fill="#FFE4EE"/>
<path d="M136.385 218.628C136.034 224.704 140.554 228.817 145.481 228.15" stroke="#FFBED2" stroke-width="1.75058" stroke-miterlimit="10" stroke-linecap="round" stroke-linejoin="round"/>
<path d="M131.383 240.339C133.106 235.652 131.235 225.149 128.623 220.277" stroke="#FFBED2" stroke-width="1.75058" stroke-miterlimit="10" stroke-linecap="round" stroke-linejoin="round"/>
<path d="M177.029 246.656L211.596 251.361L210.318 265.31C198.869 260.346 187.551 255.696 176.491 253.029L177.029 246.656Z" fill="#FFCDDC"/>
<path d="M173.658 283.446L174.677 288.466" stroke="#FFBED2" stroke-width="1.75058" stroke-miterlimit="10" stroke-linecap="round" stroke-linejoin="round"/>
<path d="M356.958 246.656L359.755 279.556C359.829 280.463 361.089 280.649 361.423 279.796L371.963 247.304L375.742 237.264C376.057 236.504 376.39 235.745 376.742 235.004L390.247 196.788C391.136 193.842 394.23 192.193 397.157 193.064C400.084 193.935 401.751 197.047 400.88 199.974L398.157 207.68C397.194 210.422 399.769 213.145 402.547 212.237C406.808 210.848 411.328 210.107 415.978 210.107H433.984C437.059 210.107 439.541 212.589 439.541 215.664C439.541 218.739 437.059 221.221 433.984 221.221H416.941C416.404 221.221 415.978 221.648 415.978 222.185C415.978 222.722 416.404 223.148 416.941 223.148H436.41C439.486 223.148 441.968 225.63 441.968 228.705C441.968 231.781 439.486 234.263 436.41 234.263H416.922C416.385 234.263 415.959 234.689 415.959 235.226C415.959 235.763 416.385 236.19 416.922 236.19H430.705C433.78 236.19 436.262 238.672 436.262 241.747C436.262 244.822 433.78 247.304 430.705 247.304H415.959H410.179L390.636 300.692C385.449 313.715 372.852 322.273 358.829 322.273C341.861 322.273 327.708 309.343 326.152 292.467L322.373 251.38L356.958 246.656Z" fill="#FFE4EE"/>
<path d="M356.959 246.657L322.392 251.362L323.67 265.311C335.119 260.346 346.437 255.697 357.496 253.029L356.959 246.657Z" fill="#FFCDDC"/>
<path d="M360.33 283.446L359.312 288.466" stroke="#FFBED2" stroke-width="1.75058" stroke-miterlimit="10" stroke-linecap="round" stroke-linejoin="round"/>
<path d="M203.445 254.436C205.982 255.103 207.668 257.474 207.483 260.086L201.333 342.391C201.092 345.54 203.593 348.208 206.742 348.208H327.115C330.32 348.208 332.821 345.448 332.506 342.243L324.318 260.252C324.059 257.566 325.8 255.103 328.412 254.454L357.385 247.341C359.997 246.692 361.812 244.21 361.497 241.543C358.459 215.608 330.468 194.175 293.067 187.191C290.844 186.784 289.103 185.098 288.677 182.875C288.325 181.004 287.009 179.392 285.194 178.799C273.042 174.706 260.908 174.706 248.774 178.799C246.959 179.411 245.662 181.004 245.292 182.875C244.866 185.079 243.106 186.784 240.902 187.191C203.482 194.175 175.472 215.645 172.471 241.617C172.156 244.266 173.935 246.73 176.51 247.396L203.445 254.436Z" fill="#32D7E1"/>
<path d="M288.658 193.138L280.655 203.938C279.377 205.66 276.858 205.883 275.302 204.401L269.541 198.917C268.114 197.547 265.854 197.547 264.409 198.917L258.648 204.401C257.092 205.883 254.573 205.679 253.294 203.938L245.292 193.138" stroke="#32BECD" stroke-width="1.75058" stroke-miterlimit="10" stroke-linecap="round" stroke-linejoin="round"/>
<path d="M266.965 207.495C267.886 207.495 268.633 206.748 268.633 205.827C268.633 204.907 267.886 204.16 266.965 204.16C266.045 204.16 265.298 204.907 265.298 205.827C265.298 206.748 266.045 207.495 266.965 207.495Z" fill="white"/>
<path d="M266.965 212.589C267.886 212.589 268.633 211.842 268.633 210.922C268.633 210.001 267.886 209.254 266.965 209.254C266.045 209.254 265.298 210.001 265.298 210.922C265.298 211.842 266.045 212.589 266.965 212.589Z" fill="white"/>
<path d="M282.119 139.138H250.664L247.83 177.836C246.533 188.933 255.221 190.618 266.392 190.618C277.562 190.618 286.231 188.933 284.953 177.836L282.119 139.138Z" fill="#FFDAE4"/>
<path d="M274.932 157.885C268.986 162.609 260.946 178.466 259.205 190.248C252.684 189.451 248.09 187.08 247.738 180.726C247.757 179.522 247.775 178.559 247.831 178.04C247.831 177.966 247.849 177.892 247.849 177.836L249.239 158.83L274.932 157.885Z" fill="#FFCDDC"/>
<path d="M221.803 117.705C221.544 97.1613 238.494 80.415 259.279 81.156C277.711 81.8229 292.975 96.8093 294.013 115.204C294.476 123.67 292.03 131.525 287.548 137.897C283.583 143.547 280.045 149.457 276.414 155.329C270.616 164.702 259.668 170.593 247.479 169C235.678 167.462 225.842 158.608 222.97 147.067C222.155 143.751 221.933 140.49 222.193 137.397C222.711 131.525 222.304 125.634 221.896 119.761C221.859 119.095 221.822 118.409 221.803 117.705Z" fill="#FFE4EE"/>
<path d="M283.138 153.032C283.138 153.032 287.862 145.585 293.271 136.248C298.31 127.579 299.792 118.594 299.199 108.739C298.606 98.9027 291.326 89.7329 287.491 85.9724C283.657 82.2304 275.58 77.2844 268.244 75.6727C260.908 74.0611 261.409 75.8393 259.5 75.932C257.611 76.0246 257.611 75.0057 255.573 75.0057C253.535 75.0057 235.678 74.6538 226.063 85.1943C216.449 95.7348 214.893 105.46 218.654 119.52C221.914 131.747 222.396 131.487 222.414 132.377C222.859 126.69 222.284 125.467 221.895 119.78C221.84 119.094 221.821 118.409 221.803 117.705C221.803 117.687 221.803 117.668 221.803 117.668C221.784 115.315 224.081 113.611 226.341 114.315L234.881 116.927C235.752 117.168 236.456 116.223 235.993 115.464L235.215 114.185L246.663 117.39C247.534 117.631 248.238 116.686 247.774 115.927L246.996 114.649L258.445 117.853C259.315 118.094 260.019 117.149 259.556 116.39L258.778 115.112L259.204 115.223C270.097 118.187 278.803 118.557 281.637 139.12" fill="#2D2D37"/>
<path d="M279.119 130.099C279.063 126.32 281.879 123.226 285.325 123.374C288.381 123.504 290.919 126.264 291.086 129.654C291.16 131.21 290.753 132.655 290.012 133.841C289.363 134.878 288.77 135.971 288.178 137.045C287.214 138.768 285.399 139.861 283.38 139.565C281.416 139.287 279.786 137.638 279.304 135.526C279.175 134.915 279.138 134.322 279.175 133.748C279.267 132.674 279.193 131.581 279.119 130.506C279.119 130.34 279.119 130.228 279.119 130.099Z" fill="#FFE4EE"/>
<path d="M234.585 133.044C236.754 133.044 238.512 130.597 238.512 127.579C238.512 124.561 236.754 122.114 234.585 122.114C232.416 122.114 230.658 124.561 230.658 127.579C230.658 130.597 232.416 133.044 234.585 133.044Z" fill="white"/>
<path d="M254.073 133.044C256.242 133.044 258 130.597 258 127.579C258 124.561 256.242 122.114 254.073 122.114C251.904 122.114 250.146 124.561 250.146 127.579C250.146 130.597 251.904 133.044 254.073 133.044Z" fill="white"/>
<path d="M233.066 130.95C234.407 130.95 235.493 129.441 235.493 127.579C235.493 125.717 234.407 124.208 233.066 124.208C231.726 124.208 230.64 125.717 230.64 127.579C230.64 129.441 231.726 130.95 233.066 130.95Z" fill="#2D2D37"/>
<path d="M252.48 130.839C253.769 130.839 254.814 129.379 254.814 127.579C254.814 125.778 253.769 124.318 252.48 124.318C251.191 124.318 250.146 125.778 250.146 127.579C250.146 129.379 251.191 130.839 252.48 130.839Z" fill="#2D2D37"/>
<path d="M243.961 151.541C245.854 151.517 247.352 148.621 247.308 145.071C247.264 141.521 245.694 138.663 243.802 138.686C241.909 138.71 240.411 141.606 240.455 145.156C240.499 148.706 242.069 151.564 243.961 151.541Z" fill="#FF7BA4"/>
<path d="M286.361 129.857L285.435 130.802C284.49 131.765 284.527 133.303 285.472 134.229" stroke="#FFBED2" stroke-width="1.75058" stroke-miterlimit="10" stroke-linecap="round" stroke-linejoin="round"/>
<path d="M244.143 134.674C241.846 134.729 239.938 132.914 239.883 130.617C239.827 128.32 243.05 126.893 243.939 126.356V123.522" stroke="#FFBED2" stroke-width="1.75058" stroke-miterlimit="10" stroke-linecap="round" stroke-linejoin="round"/>
</g>
</svg>
