<svg width="382" height="348" viewBox="0 0 382 348" fill="none" xmlns="http://www.w3.org/2000/svg">
<mask id="mask0" mask-type="alpha" maskUnits="userSpaceOnUse" x="0" y="0" width="382" height="348">
<path d="M382 324C382 337.255 371.255 348 358 348L24 348C10.7452 348 2.95782e-05 337.255 2.84194e-05 324L2.19259e-06 24C1.03382e-06 10.7452 10.7452 1.93855e-06 24 7.79773e-07L358 -2.84194e-05C371.255 -2.95782e-05 382 10.7451 382 24L382 324Z" fill="#32BECD"/>
</mask>
<g mask="url(#mask0)">
<path d="M106.67 226.714L81.91 228.169C78.3215 228.389 75.2315 225.638 75.0123 222.049C74.793 218.461 77.544 215.371 81.1324 215.151L111.794 213.337C117.236 213.018 122.599 213.576 127.683 214.912C130.992 215.769 133.843 212.42 132.507 209.27L128.779 200.419C127.543 197.03 129.278 193.302 132.667 192.065C136.056 190.829 139.784 192.564 141.02 195.953L159.5 239.812C159.959 240.649 160.398 241.507 160.816 242.384L165.94 253.887L180.553 291.247C180.991 292.223 182.467 291.944 182.487 290.868L183.483 252.112L224.332 255.242L222.737 303.667C222.079 323.583 206.37 339.711 186.474 340.887C170.027 341.864 154.676 332.693 147.698 317.781L123.656 262.399C122.121 258.891 118.572 256.698 114.744 256.917C111.754 257.096 108.883 255.801 107.029 253.448L102.883 248.165L110.458 242.523L106.67 226.714Z" fill="#FFE4EE"/>
<path d="M113.29 239.234L99.6136 240.032C96.0251 240.251 92.9352 237.5 92.7159 233.912C92.4966 230.323 95.2478 227.233 98.8362 227.014L112.512 226.216C116.101 225.997 119.191 228.748 119.41 232.337C119.629 235.925 116.878 239.015 113.29 239.234Z" fill="#FFE4EE"/>
<path d="M117.595 252.033L103.919 252.831C100.331 253.05 97.2408 250.299 97.0215 246.71C96.8022 243.122 99.5534 240.032 103.142 239.813L116.818 239.015C120.406 238.796 123.496 241.547 123.716 245.136C123.935 248.744 121.184 251.834 117.595 252.033Z" fill="#FFE4EE"/>
<path d="M98.855 227.014L112.531 226.216C116.119 225.997 119.21 228.748 119.429 232.337C119.648 235.925 116.897 239.015 113.308 239.234" stroke="#FFBED2" stroke-width="1.88394" stroke-miterlimit="10" stroke-linecap="round" stroke-linejoin="round"/>
<path d="M105.076 239.713L116.838 239.015C120.426 238.796 123.516 241.547 123.736 245.136C123.955 248.724 121.204 251.814 117.615 252.033" stroke="#FFBED2" stroke-width="1.88394" stroke-miterlimit="10" stroke-linecap="round" stroke-linejoin="round"/>
<path d="M133.625 222.548C133.625 222.548 130.255 243.999 139.286 248.265" stroke="#FFBED2" stroke-width="1.88394" stroke-miterlimit="10" stroke-linecap="round" stroke-linejoin="round"/>
<path d="M183.523 252.112L224.372 255.242L223.614 278.149C213.766 271.769 198.634 266.466 183.204 263.855L183.523 252.112Z" fill="#FFCDDC"/>
<path d="M182.567 295.034L183.205 300.497" stroke="#FFBED2" stroke-width="1.88394" stroke-miterlimit="10" stroke-linecap="round" stroke-linejoin="round"/>
<path d="M223.435 272.427C223.376 270.333 221.88 268.559 219.827 268.141L181.371 260.366C179.218 259.927 177.683 257.993 177.762 255.8C178.739 228.508 213.926 203.947 255.193 195.115L256.389 190.63C256.669 188.556 258.483 186.962 260.696 186.822L298.793 184.569C301.006 184.43 302.979 185.805 303.518 187.839L305.392 192.584C346.36 197.109 382.683 217.065 386.75 243.5C387.089 245.653 385.793 247.746 383.72 248.444L353.019 258.671C351.344 259.229 350.188 260.704 349.988 262.399L349.649 265.489C344.546 297.965 352.281 326.473 349.151 342.601C349.39 344.834 351.862 348.203 347.337 347.924H223.834C222.02 347.924 220.565 346.409 220.624 344.595L223.435 272.427Z" fill="#32D7E1"/>
<path d="M277.422 215.968C278.347 215.968 279.097 215.219 279.097 214.294C279.097 213.369 278.347 212.619 277.422 212.619C276.497 212.619 275.748 213.369 275.748 214.294C275.748 215.219 276.497 215.968 277.422 215.968Z" fill="white"/>
<path d="M277.422 221.152C278.347 221.152 279.097 220.402 279.097 219.477C279.097 218.552 278.347 217.803 277.422 217.803C276.497 217.803 275.748 218.552 275.748 219.477C275.748 220.402 276.497 221.152 277.422 221.152Z" fill="white"/>
<path d="M255.871 202.512L263.566 218.321" stroke="#32BECD" stroke-width="1.88394" stroke-miterlimit="10" stroke-linecap="round" stroke-linejoin="round"/>
<path d="M269.188 215.968L272.558 212.121C274.77 209.609 278.598 209.35 281.11 211.562L288.546 218.081C289.364 218.819 290.639 218.719 291.317 217.862L304.475 201.654" stroke="#32BECD" stroke-width="1.88394" stroke-miterlimit="10" stroke-linecap="round" stroke-linejoin="round"/>
<path d="M297.138 147.867H263.327L260.277 189.493C258.882 201.435 268.212 203.229 280.233 203.229C292.254 203.229 301.584 201.415 300.189 189.493L297.138 147.867Z" fill="#FFDAE4"/>
<path d="M260.157 191.966C260.257 199.283 265.301 201.974 272.538 202.851C274.531 190.172 283.044 170.017 289.383 164.993L262.011 165.99L260.297 189.514C260.297 189.534 260.297 189.554 260.297 189.594L260.277 189.913V189.933C260.257 190.212 260.237 190.471 260.217 190.73C260.177 191.069 260.157 191.488 260.157 191.966Z" fill="#FFCDDC"/>
<path d="M233.105 124.144C233.105 102.035 251.546 84.2521 273.894 85.3287C293.71 86.2856 309.938 102.613 310.795 122.429C311.194 131.54 308.443 139.973 303.538 146.751C299.212 152.772 295.325 159.091 291.338 165.351C284.978 175.359 273.136 181.559 260.018 179.685C247.359 177.871 236.873 168.222 233.962 155.762C233.125 152.174 232.926 148.685 233.264 145.336C233.902 139.036 233.543 132.696 233.185 126.377C233.125 125.639 233.105 124.901 233.105 124.144Z" fill="#FFE4EE"/>
<path d="M260.975 179.785C260.656 179.745 260.337 179.725 260.018 179.685C247.339 177.871 236.873 168.302 233.962 155.842C233.125 152.253 232.925 148.765 233.264 145.415C233.603 142.086 233.663 138.737 233.583 135.408C233.543 130.503 234.46 125.639 236.354 121.114C239.584 113.359 244.588 104.886 250.489 103.291C251.565 102.992 252.702 103.63 253.08 104.686C254.137 107.637 257.626 113.618 268.69 115.771C280.094 117.984 283.343 134.65 294.587 136.923C300.488 138.278 297.697 155.463 297.697 155.463L299.71 182.855C306.11 183.015 313.347 182.117 320.882 180.861C323.554 180.423 325.368 177.891 324.85 175.24C324.032 170.993 323.135 166.687 322.178 162.281L317.473 131.719C317.354 130.902 317.254 130.065 317.194 129.247C317.194 127.015 317.015 124.642 316.596 122.15C312.011 94.8182 297.936 87.402 291.676 85.3885C288.526 84.3718 279.216 81.1222 268.89 81.0026C258.583 80.8631 247.319 86.3056 240.022 95.2966C233.105 106.341 229.616 118.163 229.098 124.044C228.559 130.125 227.961 140.053 227.842 144.777C227.602 153.848 226.386 164.713 225.31 176.276C225.09 178.728 226.725 180.961 229.157 181.44C237.451 183.054 248.236 183.672 260.696 183.633L260.975 179.785Z" fill="#2D2D37"/>
<path d="M294.566 138.218C294.566 134.151 297.616 130.882 301.325 131.081C304.614 131.26 307.305 134.271 307.445 137.919C307.505 139.594 307.046 141.149 306.249 142.405C305.531 143.521 304.893 144.677 304.235 145.833C303.179 147.668 301.225 148.824 299.052 148.465C296.959 148.126 295.224 146.352 294.726 144.059C294.586 143.401 294.547 142.763 294.606 142.145C294.706 140.989 294.646 139.813 294.586 138.657C294.566 138.497 294.566 138.358 294.566 138.218Z" fill="#FFE4EE"/>
<path d="M246.781 143.063C249.115 143.063 251.007 140.43 251.007 137.182C251.007 133.934 249.115 131.301 246.781 131.301C244.446 131.301 242.554 133.934 242.554 137.182C242.554 140.43 244.446 143.063 246.781 143.063Z" fill="white"/>
<path d="M267.733 143.063C270.067 143.063 271.96 140.43 271.96 137.182C271.96 133.934 270.067 131.301 267.733 131.301C265.399 131.301 263.507 133.934 263.507 137.182C263.507 140.43 265.399 143.063 267.733 143.063Z" fill="white"/>
<path d="M245.166 140.81C246.608 140.81 247.777 139.186 247.777 137.182C247.777 135.178 246.608 133.554 245.166 133.554C243.724 133.554 242.554 135.178 242.554 137.182C242.554 139.186 243.724 140.81 245.166 140.81Z" fill="#2D2D37"/>
<path d="M266.038 140.69C267.426 140.69 268.55 139.119 268.55 137.182C268.55 135.244 267.426 133.673 266.038 133.673C264.651 133.673 263.526 135.244 263.526 137.182C263.526 139.119 264.651 140.69 266.038 140.69Z" fill="#2D2D37"/>
<path d="M348.473 274.36L349.49 282.594C349.709 283.651 348.354 284.269 347.696 283.411L324.789 250.477L317.134 240.469C316.536 239.712 315.898 238.994 315.24 238.277L287.071 199.92C285.077 196.91 281.03 196.092 278.04 198.086C275.029 200.079 274.212 204.126 276.205 207.117L281.887 214.852C283.901 217.603 281.927 221.53 278.498 221.471C273.235 221.351 267.892 222.069 262.669 223.644L242.414 229.764C238.965 230.801 237.012 234.449 238.068 237.898C239.105 241.347 242.753 243.3 246.202 242.244L265.36 236.442C265.959 236.263 266.596 236.602 266.776 237.2C266.955 237.798 266.616 238.436 266.018 238.615L244.109 245.234C240.66 246.271 238.706 249.919 239.763 253.368C240.799 256.817 244.448 258.771 247.897 257.714L269.806 251.095C270.404 250.916 271.042 251.255 271.222 251.853C271.401 252.451 271.062 253.089 270.464 253.268L254.974 257.953C251.525 258.99 249.571 262.638 250.628 266.087C251.664 269.536 255.313 271.49 258.762 270.433L275.348 265.409L281.827 263.456L321.938 316.824C332.186 329.723 349.271 335.045 365.02 330.281C384.079 324.519 395.621 305.181 391.634 285.664L383.72 248.444L353.019 258.671C353.019 258.671 350.367 259.189 349.948 262.618C349.53 266.047 348.473 274.36 348.473 274.36Z" fill="#FFE4EE"/>
<path d="M350.667 285.823L354.076 290.129" stroke="#FFBED2" stroke-width="1.88394" stroke-miterlimit="10" stroke-linecap="round" stroke-linejoin="round"/>
<path d="M270.903 152.214C263.487 154.427 256.549 156.042 250.668 156.361C249.99 156.401 249.591 157.158 249.99 157.697C250.967 159.092 253.499 160.089 256.449 160.089C263.227 160.089 269.308 156.301 271.8 153.61C272.378 152.972 271.74 151.955 270.903 152.214Z" fill="#FF7BA4"/>
<path d="M302.382 138.059L301.385 139.055C300.368 140.072 300.368 141.727 301.385 142.744" stroke="#FFBED2" stroke-width="1.88394" stroke-miterlimit="10" stroke-linecap="round" stroke-linejoin="round"/>
<path d="M257.067 144.818C254.595 144.878 252.542 142.924 252.482 140.452C252.422 137.98 255.891 136.445 256.848 135.867V130.464" stroke="#FFBED2" stroke-width="1.88394" stroke-miterlimit="10" stroke-linecap="round" stroke-linejoin="round"/>
<path d="M383.721 248.443L352.98 258.69C352.98 258.69 350.308 259.209 349.91 262.638C349.83 263.375 349.71 264.352 349.571 265.429L384.718 253.128L383.721 248.443Z" fill="#FFCDDC"/>
</g>
</svg>
