<svg width="382" height="348" viewBox="0 0 382 348" fill="none" xmlns="http://www.w3.org/2000/svg">
<mask id="mask0" mask-type="alpha" maskUnits="userSpaceOnUse" x="0" y="0" width="382" height="348">
<path d="M382 324C382 337.255 371.255 348 358 348L24 348C10.7452 348 2.95782e-05 337.255 2.84194e-05 324L2.19259e-06 24C1.03382e-06 10.7452 10.7452 1.93855e-06 24 7.79773e-07L358 -2.84194e-05C371.255 -2.95782e-05 382 10.7451 382 24L382 324Z" fill="#3C6EE6"/>
</mask>
<g mask="url(#mask0)">
<path d="M365.698 230.099L323.654 230.814C331 263.201 325.263 298.15 329.731 348.487H381.532C381.463 347.646 381.41 346.803 381.395 345.959C376.656 287.326 373.189 260.506 365.698 230.099Z" fill="#FFE4EE"/>
<path d="M223.406 298.037L232.077 249.028L192.153 240.83L184.823 281.459C184.668 282.325 183.424 282.323 183.27 281.457L170.069 206.811C169.444 203.267 169.286 199.655 169.6 196.068L170.867 181.585C171.117 178.722 169.502 175.892 166.779 174.977C162.779 173.631 159.043 176.618 158.703 180.48L156.766 202.618L145.193 180.672C143.766 177.616 140.134 176.296 137.079 177.721C134.021 179.146 132.698 182.782 134.126 185.842L144.555 205.36C135.899 209.109 130.609 218.416 132.321 228.113L144.677 298.029C148.052 317.127 164.648 331.049 184.043 331.049C203.433 331.049 220.029 317.134 223.406 298.037Z" fill="#FFE4EE"/>
<path d="M141.978 226.532L134.646 210.812C133.221 207.754 134.544 204.12 137.599 202.695C140.657 201.27 144.29 202.593 145.716 205.648L153.047 221.369C154.472 224.426 153.149 228.06 150.094 229.485C147.036 230.911 143.403 229.59 141.978 226.532Z" fill="#FFE4EE"/>
<path d="M147.43 209.323L153.048 221.372C154.473 224.429 153.15 228.063 150.095 229.488C147.037 230.914 143.404 229.591 141.978 226.535L138.338 218.731" stroke="#FFBED2" stroke-width="1.75925" stroke-miterlimit="10" stroke-linecap="round" stroke-linejoin="round"/>
<path d="M168.91 219.039L165.27 211.234C163.844 208.176 160.211 206.853 157.153 208.281C154.096 209.706 152.773 213.34 154.2 216.397L159.818 228.446C156.424 229.046 154.158 232.282 154.755 235.675L155.039 237.288" stroke="#FFBED2" stroke-width="1.75925" stroke-miterlimit="10" stroke-linecap="round" stroke-linejoin="round"/>
<path d="M228.952 266.698L232.077 249.027L192.153 240.829L189.934 253.117C202.712 256.243 215.755 261.357 228.952 266.698Z" fill="#FFCDDC"/>
<path d="M368 239.913L327.456 248.193C328.777 254.485 330.063 260.944 331.307 267.656C344.662 261.836 357.85 256.092 370.709 253.116C369.867 248.639 368.968 244.272 368 239.913Z" fill="#FFCDDC"/>
<path d="M216.937 254.754C219.466 255.416 221.162 257.79 220.968 260.398L214.827 342.669C214.593 345.81 217.078 348.49 220.23 348.49H340.561C343.766 348.49 346.269 345.722 345.951 342.535L337.758 260.577C337.489 257.893 339.236 255.42 341.856 254.778L370.819 247.668C373.439 247.026 375.248 244.545 374.932 241.867C371.888 215.943 343.909 194.519 306.538 187.538C304.325 187.124 302.569 185.436 302.147 183.226C301.789 181.348 300.483 179.752 298.671 179.144C286.527 175.056 274.39 175.06 262.267 179.144C260.455 179.754 259.15 181.348 258.791 183.226C258.371 185.438 256.615 187.126 254.4 187.54C216.997 194.528 189.004 215.984 186 241.935C185.692 244.583 187.457 247.043 190.036 247.717L216.937 254.754Z" fill="#5F8CFF"/>
<path d="M302.128 193.482L294.131 204.27C292.849 206.001 290.342 206.216 288.784 204.729L283.03 199.243C281.596 197.876 279.343 197.876 277.909 199.243L272.154 204.731C270.597 206.216 268.088 206.001 266.807 204.272L258.811 193.485" stroke="#3C6EE6" stroke-width="1.75925" stroke-miterlimit="10" stroke-linecap="round" stroke-linejoin="round"/>
<path d="M280.429 207.824C281.351 207.824 282.098 207.077 282.098 206.155C282.098 205.234 281.351 204.487 280.429 204.487C279.508 204.487 278.761 205.234 278.761 206.155C278.761 207.077 279.508 207.824 280.429 207.824Z" fill="white"/>
<path d="M280.429 212.923C281.351 212.923 282.098 212.176 282.098 211.254C282.098 210.333 281.351 209.586 280.429 209.586C279.508 209.586 278.761 210.333 278.761 211.254C278.761 212.176 279.508 212.923 280.429 212.923Z" fill="white"/>
<path d="M295.836 140.456H264.923L262.139 178.494C260.871 189.404 269.397 191.053 280.379 191.053C291.361 191.053 299.887 189.402 298.62 178.494L295.836 140.456Z" fill="#FFDAE4"/>
<path d="M288.77 158.889C282.926 163.527 275.031 179.126 273.307 190.699C266.902 189.918 262.387 187.586 262.035 181.347C262.052 180.172 262.08 179.214 262.118 178.702C262.127 178.631 262.129 178.565 262.138 178.493L263.505 159.802L288.77 158.889Z" fill="#FFCDDC"/>
<path d="M237.312 118.775C237.312 98.5775 254.172 82.319 274.585 83.3069C292.689 84.1817 307.515 99.0938 308.3 117.202C308.661 125.521 306.145 133.226 301.675 139.435C297.715 144.935 294.161 150.703 290.527 156.423C284.713 165.574 273.891 171.226 261.913 169.515C250.333 167.864 240.766 159.045 238.095 147.658C237.327 144.381 237.147 141.186 237.453 138.135C238.031 132.377 237.711 126.584 237.371 120.808C237.331 120.136 237.312 119.457 237.312 118.775Z" fill="#FFE4EE"/>
<path d="M271.676 132.12C273.699 132.12 275.338 129.813 275.338 126.967C275.338 124.121 273.699 121.814 271.676 121.814C269.654 121.814 268.015 124.121 268.015 126.967C268.015 129.813 269.654 132.12 271.676 132.12Z" fill="white"/>
<path d="M270.503 130.801C271.876 130.801 272.988 129.131 272.988 127.071C272.988 125.011 271.876 123.341 270.503 123.341C269.13 123.341 268.017 125.011 268.017 127.071C268.017 129.131 269.13 130.801 270.503 130.801Z" fill="#2D2D37"/>
<path d="M251.473 132.12C253.495 132.12 255.135 129.813 255.135 126.967C255.135 124.121 253.495 121.814 251.473 121.814C249.451 121.814 247.812 124.121 247.812 126.967C247.812 129.813 249.451 132.12 251.473 132.12Z" fill="white"/>
<path d="M250.3 130.801C251.672 130.801 252.785 129.131 252.785 127.071C252.785 125.011 251.672 123.341 250.3 123.341C248.927 123.341 247.814 125.011 247.814 127.071C247.814 129.131 248.927 130.801 250.3 130.801Z" fill="#2D2D37"/>
<path d="M239.658 120.517L237.373 120.818C237.518 123.278 237.654 125.742 237.722 128.205C237.722 128.205 237.722 128.205 237.725 128.205C239.24 128.149 237.43 120.686 239.658 120.545" fill="#787885"/>
<path d="M285.124 124.794C288.271 124.794 286.321 130.352 290.914 130.352C299.361 130.352 290.238 143.649 298.745 143.649C299.701 142.232 300.674 140.826 301.674 139.437C304.414 135.633 306.415 131.263 307.476 126.539C307.476 126.541 307.476 126.543 307.474 126.545C301.89 127.085 293.782 126.093 285.124 124.768" fill="#787885"/>
<path d="M237.311 118.775C237.311 98.4131 254.448 82.0544 275.087 83.3346C293.283 84.4633 307.868 99.6463 308.323 117.87C308.397 120.857 308.099 123.757 307.476 126.537C308.099 123.757 308.773 120.857 308.698 117.87C308.244 99.6442 293.285 83.2044 275.089 82.0757C254.45 80.7955 237.057 95.8954 237.057 116.259C237.057 116.942 237.334 120.138 237.372 120.81C237.372 120.814 237.372 120.816 237.372 120.821C237.372 120.816 237.372 120.814 237.372 120.81C237.33 120.136 237.311 119.457 237.311 118.775Z" fill="#2D2D37"/>
<path d="M279.873 110.378C277.101 108.758 269.702 106.07 259.479 106.07C244.849 106.07 243.432 110.16 243.432 110.16C243.432 110.16 243.417 110.235 243.398 110.344C245.258 109.132 249.682 107.301 259.479 107.301C269.702 107.301 278.358 109.989 281.129 111.609C281.147 111.619 281.159 111.634 281.176 111.643C280.856 111.131 280.413 110.696 279.873 110.378Z" fill="#2D2D37"/>
<path d="M282.993 114.59C283.228 117.923 282.743 124.766 285.125 124.766C293.781 126.091 301.891 127.083 307.475 126.543C307.475 126.541 307.475 126.539 307.477 126.537C308.1 123.759 308.401 120.857 308.324 117.87C307.869 99.6441 293.284 84.4632 275.088 83.3345C254.449 82.0543 237.312 98.413 237.312 118.774C237.312 119.457 237.333 120.136 237.371 120.808C237.371 120.812 237.371 120.814 237.371 120.819L239.656 120.518C241.553 120.398 242.174 111.392 242.174 111.392C242.174 111.392 242.479 110.942 243.399 110.344C243.42 110.236 243.433 110.161 243.433 110.161C243.433 110.161 244.85 106.071 259.48 106.071C269.702 106.071 277.1 108.759 279.874 110.379C280.413 110.694 280.857 111.13 281.177 111.644C282.225 112.28 282.906 113.366 282.993 114.59Z" fill="#2D2D37"/>
<path d="M242.173 111.394C242.173 111.394 244.847 107.304 259.48 107.304C269.702 107.304 278.358 109.992 281.13 111.612C282.207 112.241 282.903 113.346 282.99 114.592C283.225 117.925 282.741 124.768 285.122 124.768C293.778 126.093 301.888 127.085 307.472 126.545C308.097 123.765 308.769 120.861 308.694 117.872C308.24 99.6462 293.281 83.2064 275.085 82.0777C254.446 80.7975 237.053 95.8973 237.053 116.261C237.053 116.944 237.33 120.14 237.369 120.812C237.369 120.816 237.369 120.818 237.369 120.823L239.654 120.522C241.553 120.398 242.173 111.394 242.173 111.394Z" fill="#2D2D37"/>
<path d="M289.656 128.355C289.656 124.636 292.451 121.643 295.835 121.824C298.837 121.984 301.295 124.73 301.423 128.065C301.482 129.597 301.066 131.016 300.324 132.16C299.667 133.173 299.078 134.234 298.476 135.288C297.512 136.973 295.717 138.014 293.733 137.699C291.813 137.393 290.227 135.77 289.786 133.675C289.658 133.071 289.628 132.484 289.679 131.921C289.775 130.86 289.722 129.793 289.666 128.731C289.658 128.605 289.656 128.481 289.656 128.355Z" fill="#FFE4EE"/>
<path d="M258.64 154.986C260.504 154.986 262.015 152.161 262.015 148.676C262.015 145.192 260.504 142.367 258.64 142.367C256.775 142.367 255.264 145.192 255.264 148.676C255.264 152.161 256.775 154.986 258.64 154.986Z" fill="#FF7BA4"/>
<path d="M260.416 135.569C258.125 135.625 256.221 133.813 256.164 131.522C256.108 129.23 259.317 127.805 260.211 127.269V122.264" stroke="#FFBED2" stroke-width="1.75925" stroke-miterlimit="10" stroke-linecap="round" stroke-linejoin="round"/>
<path d="M296.791 128.205L295.874 129.122C294.944 130.052 294.944 131.563 295.874 132.495" stroke="#FFBED2" stroke-width="1.75925" stroke-miterlimit="10" stroke-linecap="round" stroke-linejoin="round"/>
</g>
</svg>
