<svg width="382" height="348" viewBox="0 0 382 348" fill="none" xmlns="http://www.w3.org/2000/svg">
<mask id="mask0" mask-type="alpha" maskUnits="userSpaceOnUse" x="0" y="0" width="382" height="348">
<path d="M382 324C382 337.255 371.255 348 358 348L24 348C10.7452 348 2.95782e-05 337.255 2.84194e-05 324L2.19259e-06 24C1.03382e-06 10.7452 10.7452 1.93855e-06 24 7.79773e-07L358 -2.84194e-05C371.255 -2.95782e-05 382 10.7451 382 24L382 324Z" fill="#3C6EE6"/>
</mask>
<g mask="url(#mask0)">
<path d="M177.028 246.852L174.231 279.752C174.157 280.66 172.897 280.845 172.564 279.993L162.023 247.501L158.244 237.46C157.929 236.701 157.596 235.941 157.244 235.2L143.739 196.984C142.85 194.038 139.757 192.39 136.83 193.26C133.903 194.131 132.236 197.243 133.106 200.17L135.829 207.876C136.793 210.618 134.218 213.341 131.439 212.433C127.178 211.044 122.658 210.303 118.009 210.303H100.003C96.9276 210.303 94.4452 212.785 94.4452 215.86C94.4452 218.935 96.9276 221.418 100.003 221.418H117.045C117.583 221.418 118.009 221.844 118.009 222.381C118.009 222.918 117.583 223.344 117.045 223.344H97.5574C94.4823 223.344 92 225.827 92 228.902C92 231.977 94.4823 234.459 97.5574 234.459H117.045C117.583 234.459 118.009 234.885 118.009 235.422C118.009 235.96 117.583 236.386 117.045 236.386H103.263C100.188 236.386 97.7056 238.868 97.7056 241.943C97.7056 245.018 100.188 247.501 103.263 247.501H118.009H123.788L143.332 300.889C148.519 313.911 161.116 322.47 175.139 322.47C192.107 322.47 206.26 309.54 207.816 292.664L211.595 251.576L177.028 246.852Z" fill="#FFE4EE"/>
<path d="M136.385 218.824C136.033 224.9 140.553 229.013 145.48 228.346" stroke="#FFBED2" stroke-width="1.75058" stroke-miterlimit="10" stroke-linecap="round" stroke-linejoin="round"/>
<path d="M131.384 240.535C133.106 235.849 131.236 225.345 128.624 220.473" stroke="#FFBED2" stroke-width="1.75058" stroke-miterlimit="10" stroke-linecap="round" stroke-linejoin="round"/>
<path d="M177.029 246.852L211.596 251.557L210.318 265.506C198.87 260.542 187.551 255.892 176.492 253.224L177.029 246.852Z" fill="#FFCDDC"/>
<path d="M173.657 283.642L174.676 288.662" stroke="#FFBED2" stroke-width="1.75058" stroke-miterlimit="10" stroke-linecap="round" stroke-linejoin="round"/>
<path d="M356.957 246.852L359.754 279.751C359.828 280.659 361.088 280.844 361.421 279.992L371.962 247.5L375.741 237.46C376.056 236.7 376.389 235.941 376.741 235.2L390.246 196.983C391.135 194.038 394.228 192.389 397.155 193.26C400.082 194.13 401.749 197.243 400.879 200.17L398.156 207.876C397.192 210.617 399.767 213.34 402.546 212.433C406.807 211.043 411.327 210.302 415.976 210.302L433.982 210.302C437.057 210.302 439.54 212.785 439.54 215.86C439.54 218.935 437.057 221.417 433.982 221.417L416.94 221.417C416.402 221.417 415.976 221.843 415.976 222.381C415.976 222.918 416.402 223.344 416.94 223.344L436.427 223.344C439.503 223.344 441.985 225.826 441.985 228.901C441.985 231.976 439.503 234.459 436.427 234.459L416.94 234.459C416.402 234.459 415.976 234.885 415.976 235.422C415.976 235.959 416.402 236.385 416.94 236.385H430.722C433.797 236.385 436.279 238.868 436.279 241.943C436.279 245.018 433.797 247.5 430.722 247.5H415.976H410.197L390.653 300.888C385.466 313.911 372.869 322.469 358.846 322.469C341.878 322.469 327.725 309.539 326.169 292.663L322.39 251.576L356.957 246.852Z" fill="#FFE4EE"/>
<path d="M356.956 246.852L322.389 251.557L323.667 265.506C335.116 260.541 346.434 255.891 357.493 253.224L356.956 246.852Z" fill="#FFCDDC"/>
<path d="M360.329 283.642L359.311 288.662" stroke="#FFBED2" stroke-width="1.75058" stroke-miterlimit="10" stroke-linecap="round" stroke-linejoin="round"/>
<path d="M203.556 254.632C206.094 255.299 207.78 257.67 207.595 260.282L201.444 342.587C201.204 345.736 203.704 348.404 206.854 348.404H327.227C330.432 348.404 332.932 345.644 332.618 342.439L324.43 260.449C324.17 257.763 325.912 255.299 328.524 254.651L357.496 247.537C360.108 246.889 361.924 244.406 361.609 241.739C358.571 215.804 330.58 194.371 293.179 187.388C290.956 186.98 289.214 185.294 288.788 183.071C288.436 181.2 287.121 179.589 285.306 178.996C273.153 174.902 261.02 174.902 248.886 178.996C247.071 179.607 245.774 181.2 245.403 183.071C244.977 185.276 243.218 186.98 241.013 187.388C203.593 194.371 175.584 215.841 172.583 241.813C172.268 244.462 174.046 246.926 176.621 247.593L203.556 254.632Z" fill="#FFD25F"/>
<path d="M288.769 193.334L280.766 204.134C279.488 205.857 276.969 206.079 275.413 204.597L269.652 199.114C268.225 197.743 265.965 197.743 264.52 199.114L258.759 204.597C257.203 206.079 254.684 205.875 253.405 204.134L245.403 193.334" stroke="#FFB428" stroke-width="1.75058" stroke-miterlimit="10" stroke-linecap="round" stroke-linejoin="round"/>
<path d="M267.077 207.691C267.998 207.691 268.745 206.944 268.745 206.024C268.745 205.103 267.998 204.356 267.077 204.356C266.157 204.356 265.41 205.103 265.41 206.024C265.41 206.944 266.157 207.691 267.077 207.691Z" fill="white"/>
<path d="M267.077 212.785C267.998 212.785 268.745 212.039 268.745 211.118C268.745 210.197 267.998 209.451 267.077 209.451C266.157 209.451 265.41 210.197 265.41 211.118C265.41 212.039 266.157 212.785 267.077 212.785Z" fill="white"/>
<path d="M282.451 135.889H251.033L248.199 177.773C246.902 188.851 255.571 190.536 266.723 190.536C277.875 190.536 286.545 188.851 285.248 177.773L282.451 135.889Z" fill="#FFDAE4"/>
<path d="M275.282 154.617C269.336 159.322 261.315 178.402 259.573 190.166C253.071 189.369 248.477 186.998 248.125 180.662C248.144 179.477 248.162 178.495 248.218 177.976C248.218 177.902 248.236 177.828 248.236 177.773L249.626 155.561L275.282 154.617Z" fill="#FFCDDC"/>
<path d="M223.246 116.771C223.246 96.2456 240.381 79.7401 261.111 80.7405C279.505 81.6296 294.566 96.7827 295.363 115.178C295.733 123.625 293.177 131.461 288.638 137.759C284.618 143.354 280.117 147.411 276.412 153.227C270.503 162.527 257.331 167.195 246.865 164.88C236.399 162.545 228.655 153.542 226.729 146.114C225.877 142.798 225.895 138.574 225.747 135.462C225.469 129.886 223.672 124.699 223.32 118.827C223.265 118.142 223.246 117.456 223.246 116.771Z" fill="#FFE4EE"/>
<path d="M283.489 151.171C283.489 151.171 305.033 140.204 300.791 114.826C296.548 89.4468 283.451 82.5557 277.653 80.6847C271.836 78.8137 243.216 68.6435 229.804 89.8913C216.392 111.139 220.282 120.346 224.339 126.052C224.339 126.052 228.73 100.469 239.381 97.3569C240.437 97.042 241.567 97.5976 241.938 98.635C242.919 101.377 246.161 106.916 256.424 108.898C270.28 111.584 271.522 122.31 277.227 123.773C282.877 125.218 282.34 143.224 283.489 151.171Z" fill="#2D2D37"/>
<path d="M280.302 129.831C280.302 126.052 283.136 123.014 286.582 123.199C289.638 123.366 292.12 126.144 292.269 129.534C292.324 131.09 291.898 132.535 291.157 133.702C290.49 134.74 289.898 135.814 289.286 136.889C288.304 138.593 286.489 139.667 284.47 139.334C282.525 139.019 280.913 137.37 280.45 135.24C280.32 134.629 280.283 134.036 280.339 133.462C280.431 132.387 280.376 131.294 280.32 130.22C280.302 130.09 280.302 129.96 280.302 129.831Z" fill="#FFE4EE"/>
<path d="M307.134 97.2229C312.458 91.8985 311.719 82.527 305.483 76.291C299.247 70.0551 289.876 69.3161 284.551 74.6405C279.227 79.9649 279.966 89.3365 286.202 95.5724C292.438 101.808 301.809 102.547 307.134 97.2229Z" fill="#2D2D37"/>
<path d="M237.899 129.997C240.068 129.997 241.826 127.551 241.826 124.533C241.826 121.515 240.068 119.068 237.899 119.068C235.73 119.068 233.972 121.515 233.972 124.533C233.972 127.551 235.73 129.997 237.899 129.997Z" fill="white"/>
<path d="M257.35 129.997C259.519 129.997 261.277 127.551 261.277 124.533C261.277 121.515 259.519 119.068 257.35 119.068C255.181 119.068 253.422 121.515 253.422 124.533C253.422 127.551 255.181 129.997 257.35 129.997Z" fill="white"/>
<path d="M236.398 127.904C237.728 127.904 238.807 126.395 238.807 124.533C238.807 122.671 237.728 121.162 236.398 121.162C235.068 121.162 233.99 122.671 233.99 124.533C233.99 126.395 235.068 127.904 236.398 127.904Z" fill="#2D2D37"/>
<path d="M255.775 127.793C257.064 127.793 258.109 126.333 258.109 124.533C258.109 122.732 257.064 121.272 255.775 121.272C254.486 121.272 253.441 122.732 253.441 124.533C253.441 126.333 254.486 127.793 255.775 127.793Z" fill="#2D2D37"/>
<path d="M255.33 140.131C252.329 141.65 242.937 141.65 239.936 140.131C239.51 139.908 239.14 140.705 239.362 141.39C240.418 144.743 243.734 147.207 247.643 147.207C251.551 147.207 254.849 144.762 255.923 141.39C256.127 140.705 255.756 139.908 255.33 140.131Z" fill="#FF7BA4"/>
<path d="M287.564 129.683L286.638 130.609C285.693 131.554 285.693 133.091 286.638 134.036" stroke="#FFBED2" stroke-width="1.75058" stroke-miterlimit="10" stroke-linecap="round" stroke-linejoin="round"/>
<path d="M247.439 133.962C245.142 134.017 243.234 132.202 243.178 129.905C243.141 128.534 244.29 127.46 245.401 126.719C246.587 125.922 247.235 124.551 247.235 123.143V120.031" stroke="#FFBED2" stroke-width="1.75058" stroke-miterlimit="10" stroke-linecap="round" stroke-linejoin="round"/>
</g>
</svg>
