<svg width="382" height="348" viewBox="0 0 382 348" fill="none" xmlns="http://www.w3.org/2000/svg">
<mask id="mask0" mask-type="alpha" maskUnits="userSpaceOnUse" x="0" y="0" width="382" height="348">
<path d="M382 348L3.05176e-05 348L2.19259e-06 24C1.03382e-06 10.7452 10.7452 3.25381e-05 24 3.13794e-05L358 2.18017e-06C371.255 1.02139e-06 382 10.7452 382 24L382 348Z" fill="#F06E8C"/>
</mask>
<g mask="url(#mask0)">
<g filter="url(#filter0_d)">
<path d="M251.698 190.526C259.418 203.158 277.763 203.158 285.482 190.526L359.064 70.1193C367.126 56.9279 357.632 40 342.173 40L195.008 40C179.549 40 170.055 56.9278 178.116 70.1192L251.698 190.526Z" fill="#CDFFB9"/>
<path d="M292.065 147.122L259.412 147.997L257.371 189.397C256.205 201.059 265.534 202.517 276.905 202.225C288.567 201.933 297.605 199.893 295.855 188.522L292.065 147.122Z" fill="#FFDBE5"/>
<path d="M285.068 166.947C278.946 171.903 271.074 189.688 269.616 202.224C262.91 201.641 257.954 199.309 257.371 192.603C257.371 191.437 257.371 190.271 257.371 189.688C257.371 189.688 257.371 189.688 257.371 189.396L258.246 168.405L285.068 166.947Z" fill="#FFD0DD"/>
<path d="M229.382 125.839C228.799 104.556 246.292 86.771 267.867 87.3541C287.109 87.9372 303.144 103.098 304.602 122.34C305.185 131.087 302.853 139.25 298.188 145.956C294.106 151.787 290.608 158.201 286.817 164.323C280.986 174.236 269.616 180.359 256.788 178.901C244.543 177.443 234.047 168.405 230.84 156.451C229.965 152.953 229.674 149.746 229.965 146.247C230.548 140.125 229.965 134.002 229.382 127.88C229.674 127.296 229.382 126.422 229.382 125.839Z" fill="#FFE5EF"/>
<path d="M289.733 123.214L307.226 124.964C305.477 140.416 292.648 154.41 292.648 154.41L290.316 147.705C287.109 138.958 290.025 131.669 289.733 123.214Z" fill="#5A5A5A"/>
<path d="M253.581 108.928C253.581 108.928 261.453 106.304 266.701 110.094C270.491 112.718 259.995 102.514 259.995 102.514L241.336 103.097L240.461 109.511C240.169 109.22 247.75 104.263 253.581 108.928Z" fill="#5A5A5A"/>
<path d="M286.526 129.045C272.532 128.462 269.324 115.634 266.701 109.803C264.368 104.847 256.788 104.264 253.872 108.637C250.957 104.264 244.834 104.264 241.919 108.637C239.878 111.552 238.42 115.343 236.671 119.133C235.213 122.923 234.047 125.255 230.84 125.838C230.257 125.838 229.965 126.422 229.965 127.005C230.257 128.754 230.257 131.669 230.257 131.669C218.595 130.503 222.677 81.2313 250.082 78.3158C260.286 77.1496 263.493 79.482 264.368 80.9398C264.66 81.2313 265.243 81.5229 265.534 81.2313C266.701 80.3567 268.741 78.8989 272.532 78.8989C280.695 78.8989 293.232 85.313 299.063 90.5609C308.975 99.8905 311.599 121.174 308.684 125.255C304.894 129.337 299.354 129.337 286.526 129.045Z" fill="#333333"/>
<path d="M287.984 138.084C287.984 134.002 290.899 130.795 294.398 131.087C297.605 131.087 300.229 134.002 300.52 137.501C300.52 139.25 300.229 140.708 299.354 141.874C298.771 143.04 298.188 144.207 297.605 145.373C296.73 147.122 294.689 148.288 292.648 147.997C290.608 147.705 288.858 145.956 288.275 143.915C287.984 143.332 287.984 142.749 287.984 142.166C287.984 140.999 287.984 139.833 287.984 138.667C287.984 138.084 287.984 138.084 287.984 138.084Z" fill="#FFE5EF"/>
<path d="M243.96 140.124C246.214 140.124 248.041 137.513 248.041 134.293C248.041 131.072 246.214 128.462 243.96 128.462C241.705 128.462 239.878 131.072 239.878 134.293C239.878 137.513 241.705 140.124 243.96 140.124Z" fill="white"/>
<path d="M264.368 140.124C266.622 140.124 268.45 137.513 268.45 134.293C268.45 131.072 266.622 128.462 264.368 128.462C262.114 128.462 260.286 131.072 260.286 134.293C260.286 137.513 262.114 140.124 264.368 140.124Z" fill="white"/>
<path d="M242.502 137.792C243.951 137.792 245.126 136.226 245.126 134.294C245.126 132.361 243.951 130.795 242.502 130.795C241.053 130.795 239.878 132.361 239.878 134.294C239.878 136.226 241.053 137.792 242.502 137.792Z" fill="#333333"/>
<path d="M262.91 137.792C264.198 137.792 265.243 136.226 265.243 134.294C265.243 132.361 264.198 130.795 262.91 130.795C261.622 130.795 260.578 132.361 260.578 134.294C260.578 136.226 261.622 137.792 262.91 137.792Z" fill="#333333"/>
<path d="M247.75 148.288C248.333 154.119 251.249 158.493 254.164 158.201C257.371 157.909 259.412 152.953 258.829 147.122L247.75 148.288Z" fill="#FF97BF"/>
<path d="M253.873 133.127C253.873 133.127 254.747 132.544 253.873 133.127C252.998 133.71 249.499 135.168 249.499 137.5C249.499 139.833 251.54 141.873 253.873 141.873" stroke="#FFBED7" stroke-width="0.6298" stroke-miterlimit="10" stroke-linecap="round" stroke-linejoin="round"/>
<path d="M293.815 142.165C292.94 141.29 292.94 139.541 293.815 138.666L294.981 137.5" stroke="#FFBED7" stroke-width="0.6298" stroke-miterlimit="10" stroke-linecap="round" stroke-linejoin="round"/>
<path d="M75.4437 189.397V202.808C75.4437 206.307 78.3592 209.222 81.8578 209.222C81.8578 209.222 81.8578 209.222 82.1493 209.222L87.6888 215.636L81.5662 233.421C87.1057 236.628 95.2691 238.377 103.724 238.377H207.807V194.645H136.086C127.048 194.645 118.01 192.021 110.43 187.064C102.849 182.108 94.1029 179.775 85.0648 179.775C79.5254 179.484 75.1522 183.857 75.4437 189.397Z" fill="#FFE5EF"/>
<path d="M86.5226 207.764L45.4141 208.055C41.9155 208.055 39 205.14 39 201.641C39 198.143 41.9155 195.227 45.4141 195.227L86.5226 194.936C90.0212 194.936 92.9367 197.851 92.9367 201.35C92.9367 204.848 90.0212 207.764 86.5226 207.764Z" fill="#FFE5EF"/>
<path d="M91.479 233.713H74.8607C71.3621 233.713 68.155 230.797 68.155 227.299C68.155 223.8 71.0705 220.593 74.5691 220.593H91.1875C94.6861 220.593 97.8931 223.508 97.8931 227.007C98.1847 230.797 95.2692 233.713 91.479 233.713Z" fill="#FFE5EF"/>
<path d="M87.1057 220.884H70.4873C66.9887 220.884 64.0732 217.968 64.0732 214.469C64.0732 210.971 66.9887 208.055 70.4873 208.055H87.1057C90.6043 208.055 93.5198 210.971 93.5198 214.469C93.5198 217.968 90.6043 220.884 87.1057 220.884Z" fill="#FFE5EF"/>
<path d="M89.438 208.347C91.7704 209.222 93.5197 211.554 93.5197 214.47C93.5197 217.968 90.6042 220.884 87.1056 220.884H78.3591H91.7704C95.269 220.884 98.1845 223.799 98.1845 227.298C98.1845 229.922 96.7268 231.963 94.6859 233.129" stroke="#FFBED7" stroke-width="0.6709" stroke-miterlimit="10" stroke-linecap="round" stroke-linejoin="round"/>
<path d="M106.056 207.182C91.4788 207.182 88.2718 194.645 88.2718 194.645V202.517C88.2718 206.016 85.3563 208.931 81.8577 208.931C78.3591 208.931 75.4436 206.016 75.4436 202.517V197.852" stroke="#FFBED7" stroke-width="0.6709" stroke-miterlimit="10" stroke-linecap="round" stroke-linejoin="round"/>
<path d="M255.622 239.544H207.807V192.896H255.622C268.45 192.896 278.946 203.391 278.946 216.22C278.654 229.048 268.45 239.544 255.622 239.544Z" fill="#82E155"/>
<path d="M216.262 239.543H236.671L249.208 198.143C249.499 197.851 227.05 208.93 216.262 239.543Z" fill="#78CD69"/>
<path d="M204.6 194.645V238.086H207.807V194.353L204.6 194.645Z" fill="#FFD0DD"/>
<path d="M318.305 196.977L297.896 187.064C287.4 181.816 275.155 181.525 264.076 185.898C246.875 192.895 234.338 208.056 231.131 226.423L211.014 340.419C210.431 344.501 213.347 348 217.428 348H330.258C334.048 348 337.255 344.501 336.672 340.711L318.305 196.977Z" fill="#82E155"/>
<path d="M325.885 257.619L276.613 226.714C276.613 226.714 282.736 260.534 328.217 276.278L325.885 257.619Z" fill="#78CD69"/>
<path d="M334.34 264.617C335.215 265.2 335.215 266.657 334.049 266.949L308.684 276.57C300.52 279.194 291.774 279.486 283.319 277.736C274.572 275.695 265.243 276.57 256.496 279.777C251.54 281.818 248.916 287.358 250.957 292.605L252.415 296.104C252.415 296.104 248.624 297.853 246.001 299.894C243.377 301.935 241.044 305.434 242.502 308.641C243.668 311.848 247.167 313.597 250.374 312.722C247.458 314.18 246.292 317.679 247.458 320.886V321.177C248.624 324.676 252.706 326.425 255.913 324.967L258.246 324.093C255.622 325.842 254.455 329.049 255.622 331.965C256.496 334.589 258.829 336.046 261.453 336.338C267.867 337.504 276.322 336.338 284.194 333.131L371.367 300.186C385.653 294.938 394.982 281.235 394.982 265.783C394.982 252.955 388.277 241.293 377.489 234.587L315.972 196.977C302.27 187.939 283.902 193.187 276.905 208.056C273.115 220.593 278.654 234.004 290.025 240.418L334.34 264.617Z" fill="#FFE5EF"/>
<path d="M338.713 266.365L344.253 266.657" stroke="#FFBED7" stroke-width="0.6709" stroke-miterlimit="10" stroke-linecap="round" stroke-linejoin="round"/>
<path d="M255.039 295.812L269.325 290.564C269.325 290.564 263.785 292.314 262.619 288.815L264.077 292.605" stroke="#FFBED7" stroke-width="0.6709" stroke-miterlimit="10" stroke-linecap="round" stroke-linejoin="round"/>
<path d="M260.869 322.634L263.202 321.76" stroke="#FFBED7" stroke-width="0.6709" stroke-miterlimit="10" stroke-linecap="round" stroke-linejoin="round"/>
<path d="M252.998 311.556L255.622 310.39" stroke="#FFBED7" stroke-width="0.6709" stroke-miterlimit="10" stroke-linecap="round" stroke-linejoin="round"/>
<path d="M340.754 211.554L313.348 252.663L323.261 258.202L348.334 216.219L340.754 211.554Z" fill="#FFD0DD"/>
<path d="M293.815 192.603C285.943 194.936 279.529 200.184 276.03 207.764V208.055C271.948 220.884 277.779 235.17 289.733 241.584L320.054 258.494L346.585 213.886L316.847 196.393C309.85 191.729 301.686 190.562 293.815 192.603Z" fill="#82E155"/>
</g>
</g>
<defs>
<filter id="filter0_d" x="23" y="28" width="387.982" height="340" filterUnits="userSpaceOnUse" color-interpolation-filters="sRGB">
<feFlood flood-opacity="0" result="BackgroundImageFix"/>
<feColorMatrix in="SourceAlpha" type="matrix" values="0 0 0 0 0 0 0 0 0 0 0 0 0 0 0 0 0 0 127 0"/>
<feOffset dy="4"/>
<feGaussianBlur stdDeviation="8"/>
<feColorMatrix type="matrix" values="0 0 0 0 0 0 0 0 0 0 0 0 0 0 0 0 0 0 0.08 0"/>
<feBlend mode="normal" in2="BackgroundImageFix" result="effect1_dropShadow"/>
<feBlend mode="normal" in="SourceGraphic" in2="effect1_dropShadow" result="shape"/>
</filter>
</defs>
</svg>
