<svg width="382" height="348" viewBox="0 0 382 348" fill="none" xmlns="http://www.w3.org/2000/svg">
<mask id="mask0" mask-type="alpha" maskUnits="userSpaceOnUse" x="0" y="0" width="382" height="348">
<path d="M382 324C382 337.255 371.255 348 358 348L24 348C10.7452 348 2.95782e-05 337.255 2.84194e-05 324L2.19259e-06 24C1.03382e-06 10.7452 10.7452 1.93855e-06 24 7.79773e-07L358 -2.84194e-05C371.255 -2.95782e-05 382 10.7451 382 24L382 324Z" fill="#3C6EE6"/>
</mask>
<g mask="url(#mask0)">
<path d="M318.201 142.257H284.844L281.834 186.727C280.458 198.488 289.662 200.278 301.502 200.278C313.343 200.278 322.547 198.488 321.171 186.727L318.201 142.257Z" fill="#FFDAE4"/>
<path d="M310.59 162.142C304.276 167.137 295.76 187.396 293.911 199.885C287.008 199.039 282.13 196.522 281.756 189.795C281.776 188.536 281.796 187.494 281.855 186.943C281.855 186.865 281.874 186.786 281.874 186.727L283.349 163.145L310.59 162.142Z" fill="#FFCDDC"/>
<path d="M255.341 121.96C255.341 100.168 273.534 82.6434 295.543 83.7055C315.073 84.6496 331.064 100.738 331.909 120.269C332.303 129.237 329.588 137.557 324.77 144.244C320.502 150.184 315.722 154.491 311.789 160.667C305.515 170.54 291.531 175.497 280.418 173.038C269.306 170.58 261.084 161.001 259.039 153.114C258.134 149.594 258.154 145.109 257.997 141.805C257.701 135.885 255.794 130.378 255.42 124.143C255.361 123.435 255.341 122.688 255.341 121.96Z" fill="#FFE4EE"/>
<path d="M319.302 158.483C319.302 158.483 342.176 146.839 337.672 119.894C333.168 92.9488 319.263 85.6323 313.107 83.6458C306.931 81.6594 276.544 70.8615 262.304 93.4208C248.064 115.98 252.195 125.755 256.502 131.813C256.502 131.813 261.163 104.651 272.473 101.347C273.594 101.013 274.793 101.603 275.187 102.704C276.229 105.615 279.671 111.496 290.567 113.6C305.279 116.452 306.597 127.84 312.655 129.394C318.673 130.928 318.083 150.045 319.302 158.483Z" fill="#2D2D37"/>
<path d="M315.919 135.826C315.919 131.814 318.928 128.588 322.586 128.785C325.832 128.962 328.467 131.912 328.625 135.511C328.684 137.163 328.231 138.698 327.444 139.937C326.736 141.038 326.107 142.179 325.458 143.32C324.416 145.129 322.488 146.27 320.344 145.916C318.279 145.581 316.568 143.831 316.076 141.569C315.939 140.92 315.899 140.291 315.958 139.681C316.057 138.54 315.998 137.38 315.939 136.239C315.939 136.101 315.919 135.964 315.919 135.826Z" fill="#FFE4EE"/>
<path d="M344.406 101.212C350.059 95.5591 349.274 85.6091 342.654 78.9882C336.033 72.3674 326.083 71.5828 320.43 77.2359C314.777 82.889 315.561 92.839 322.182 99.4598C328.803 106.081 338.753 106.865 344.406 101.212Z" fill="#2D2D37"/>
<path d="M270.899 136.003C273.201 136.003 275.068 133.405 275.068 130.201C275.068 126.996 273.201 124.398 270.899 124.398C268.596 124.398 266.729 126.996 266.729 130.201C266.729 133.405 268.596 136.003 270.899 136.003Z" fill="white"/>
<path d="M291.57 136.003C293.873 136.003 295.74 133.405 295.74 130.201C295.74 126.996 293.873 124.398 291.57 124.398C289.267 124.398 287.4 126.996 287.4 130.201C287.4 133.405 289.267 136.003 291.57 136.003Z" fill="white"/>
<path d="M269.306 133.781C270.718 133.781 271.863 132.178 271.863 130.201C271.863 128.224 270.718 126.622 269.306 126.622C267.894 126.622 266.749 128.224 266.749 130.201C266.749 132.178 267.894 133.781 269.306 133.781Z" fill="#2D2D37"/>
<path d="M289.879 133.663C291.247 133.663 292.357 132.113 292.357 130.201C292.357 128.29 291.247 126.74 289.879 126.74C288.51 126.74 287.4 128.29 287.4 130.201C287.4 132.113 288.51 133.663 289.879 133.663Z" fill="#2D2D37"/>
<path d="M289.406 146.762C286.22 148.374 276.248 148.374 273.062 146.762C272.609 146.526 272.216 147.371 272.452 148.099C273.573 151.659 277.094 154.275 281.244 154.275C285.394 154.275 288.895 151.679 290.035 148.099C290.252 147.371 289.858 146.545 289.406 146.762Z" fill="#FF7BA4"/>
<path d="M323.629 135.669L322.646 136.652C321.643 137.655 321.643 139.288 322.646 140.291" stroke="#FFBED2" stroke-width="1.85864" stroke-miterlimit="10" stroke-linecap="round" stroke-linejoin="round"/>
<path d="M281.048 140.211C278.609 140.27 276.583 138.343 276.524 135.904C276.485 134.449 277.704 133.308 278.885 132.521C280.143 131.676 280.832 130.22 280.832 128.725V125.401" stroke="#FFBED2" stroke-width="1.85864" stroke-miterlimit="10" stroke-linecap="round" stroke-linejoin="round"/>
<path d="M98.0354 187.18L98.1338 200.751C98.1534 204.389 101.123 207.32 104.762 207.28C104.821 207.28 104.86 207.28 104.919 207.28L110.603 213.81L104.408 231.669C110.013 234.816 118.412 236.665 126.731 236.606L232.054 236.606V192.313L159.4 192.313C150.195 192.372 141.168 189.697 133.477 184.603C125.925 179.588 116.936 177.169 107.869 177.228C102.382 177.267 97.9961 181.732 98.0354 187.18Z" fill="#FFE4EE"/>
<path d="M109.305 205.825L67.6282 206.12C63.9896 206.139 61.0198 203.228 61.0001 199.59C60.9804 195.951 63.8913 192.981 67.5299 192.962L109.207 192.667C112.845 192.647 115.815 195.558 115.835 199.196C115.874 202.835 112.944 205.805 109.305 205.825Z" fill="#FFE4EE"/>
<path d="M114.517 232.12L97.7203 232.239C94.062 232.258 91.0725 229.328 91.0528 225.669V225.591C91.0332 221.933 93.9637 218.943 97.622 218.923L114.419 218.805C118.077 218.786 121.066 221.716 121.086 225.374V225.453C121.125 229.111 118.175 232.101 114.517 232.12Z" fill="#FFE4EE"/>
<path d="M109.876 218.983L93.0003 219.101C89.3617 219.121 86.3918 216.21 86.3722 212.571C86.3525 208.933 89.2634 205.963 92.902 205.943L109.777 205.825C113.416 205.806 116.386 208.716 116.405 212.355C116.425 215.994 113.514 218.963 109.876 218.983Z" fill="#FFE4EE"/>
<path d="M112.315 206.297C114.695 207.28 116.386 209.601 116.406 212.355C116.426 215.993 113.515 218.963 109.876 218.983L100.947 219.042L114.478 218.943C118.117 218.924 121.087 221.835 121.107 225.473C121.126 228.05 119.671 230.292 117.527 231.374" stroke="#FFBED2" stroke-width="1.85864" stroke-miterlimit="10" stroke-linecap="round" stroke-linejoin="round"/>
<path d="M129.13 205.294C114.497 205.392 111.252 192.647 111.252 192.647L111.311 200.652C111.331 204.29 108.42 207.26 104.781 207.28C101.143 207.3 98.1728 204.389 98.1531 200.75L98.1138 195.912" stroke="#FFBED2" stroke-width="1.85864" stroke-miterlimit="10" stroke-linecap="round" stroke-linejoin="round"/>
<path d="M280.359 237.845H233.45C232.664 237.845 232.034 237.215 232.034 236.429V192.175C232.034 191.389 232.664 190.759 233.45 190.759H280.359C293.359 190.759 303.902 201.301 303.902 214.302C303.902 227.303 293.359 237.845 280.359 237.845Z" fill="#5F8CFF"/>
<path d="M240.728 237.844H261.517L274.144 195.873C274.144 195.873 251.427 206.946 240.728 237.844Z" fill="#3C6EE6"/>
<path d="M228.966 192.313V236.586H232.034V192.313H228.966Z" fill="#FFCDDC"/>
<path d="M343.984 195.027L323.392 185.016C312.673 179.804 300.242 179.352 289.169 183.777C271.704 190.779 259.077 206.297 255.812 224.825L235.377 340.276C234.669 344.269 237.737 347.927 241.789 347.927H355.864C359.778 347.927 362.807 344.485 362.315 340.611L343.984 195.027Z" fill="#5F8CFF"/>
<path d="M351.714 256.293L301.993 224.962C301.993 224.962 308.071 259.145 354.074 275.057L351.714 256.293Z" fill="#3C6EE6"/>
<path d="M360.25 263.215C361.273 263.786 361.175 265.3 360.073 265.713L334.406 275.331C326.166 278.045 317.335 278.419 308.858 276.413C299.869 274.269 290.429 275.115 281.775 278.399C276.641 280.346 274.104 286.129 276.032 291.262L277.408 294.94C277.408 294.94 273.671 296.769 270.898 298.736C268.125 300.703 265.942 304.204 267.24 307.646C268.479 310.93 272 312.641 275.304 311.697C272.491 313.31 271.154 316.772 272.334 319.899L272.393 320.056C273.711 323.557 277.605 325.327 281.086 324.01L283.427 323.125C280.85 324.796 279.69 328.061 280.811 331.051C281.775 333.627 284.174 335.26 286.77 335.378C293.202 336.42 301.856 335.24 309.743 332.27L398.033 299.031C412.489 293.583 422.067 279.756 422.067 264.317C422.067 251.395 415.341 239.417 404.327 232.671L342.116 194.633C328.231 185.625 309.566 190.935 302.524 205.922C298.67 218.589 304.196 232.219 315.781 238.63L360.25 263.215Z" fill="#FFE4EE"/>
<path d="M364.558 265.045L370.124 265.281" stroke="#FFBED2" stroke-width="1.85864" stroke-miterlimit="10" stroke-linecap="round" stroke-linejoin="round"/>
<path d="M279.827 294.96L294.342 289.512C294.342 289.512 288.756 291.184 287.458 287.742L288.894 291.558" stroke="#FFBED2" stroke-width="1.85864" stroke-miterlimit="10" stroke-linecap="round" stroke-linejoin="round"/>
<path d="M285.768 322.122L288.266 321.197" stroke="#FFBED2" stroke-width="1.85864" stroke-miterlimit="10" stroke-linecap="round" stroke-linejoin="round"/>
<path d="M277.881 310.695L280.379 309.771" stroke="#FFBED2" stroke-width="1.85864" stroke-miterlimit="10" stroke-linecap="round" stroke-linejoin="round"/>
<path d="M366.682 209.64L338.832 251.376L348.941 256.962L374.293 214.302L366.682 209.64Z" fill="#FFCDDC"/>
<path d="M319.065 190.562C311.159 192.824 304.609 198.37 301.128 205.824L301.069 205.982C297.076 219.081 302.879 233.399 314.856 240.008L344.359 256.312C345.027 256.686 345.853 256.45 346.247 255.801L371.737 213.003C372.13 212.335 371.914 211.469 371.245 211.076L342.352 194.063C335.449 189.578 326.972 188.32 319.065 190.562Z" fill="#5F8CFF"/>
</g>
</svg>
