<svg width="382" height="348" viewBox="0 0 382 348" fill="none" xmlns="http://www.w3.org/2000/svg">
<mask id="mask0" mask-type="alpha" maskUnits="userSpaceOnUse" x="0" y="0" width="382" height="348">
<path d="M382 324C382 337.255 371.255 348 358 348L24 348C10.7452 348 2.95782e-05 337.255 2.84194e-05 324L2.19259e-06 24C1.03382e-06 10.7452 10.7452 1.93855e-06 24 7.79773e-07L358 -2.84194e-05C371.255 -2.95782e-05 382 10.7451 382 24L382 324Z" fill="#3C6EE6"/>
</mask>
<g mask="url(#mask0)">
<path d="M315.418 213.113C314.042 208.149 308.819 205.298 303.895 206.834L270.104 217.439L290.338 290.205C294.625 305.616 297.794 330.157 298.014 348.079H341.933C341.614 331.194 338.763 299.376 335.992 287.574L315.418 213.113Z" fill="#FFE4EE"/>
<path d="M288.285 143.277H254.474L251.424 188.352C250.028 200.274 259.358 202.088 271.36 202.088C283.361 202.088 292.691 200.274 291.295 188.352L288.285 143.277Z" fill="#FFDAE4"/>
<path d="M280.551 163.433C274.152 168.496 265.52 189.03 263.646 201.69C256.648 200.832 251.704 198.281 251.325 191.462C251.345 190.187 251.365 189.13 251.425 188.572C251.425 188.492 251.445 188.412 251.445 188.352L252.94 164.449L280.551 163.433Z" fill="#FFCDDC"/>
<path d="M224.551 122.705C224.551 100.616 242.991 82.8528 265.3 83.9293C285.096 84.8862 301.304 101.194 302.161 120.99C302.56 130.081 299.809 138.514 294.924 145.292C290.598 151.313 285.754 155.679 281.767 161.938C275.407 171.946 261.233 176.97 249.969 174.478C238.705 171.986 230.372 162.277 228.299 154.283C227.382 150.714 227.402 146.169 227.242 142.82C226.943 136.819 225.009 131.237 224.631 124.917C224.571 124.18 224.551 123.442 224.551 122.705Z" fill="#FFE4EE"/>
<path d="M289.383 159.725C289.383 159.725 312.568 147.923 308.003 120.611C303.437 93.2984 289.343 85.8822 283.103 83.8687C276.843 81.8552 246.042 70.9104 231.608 93.7769C217.175 116.643 221.361 126.551 225.727 132.692C225.727 132.692 230.452 105.16 241.915 101.811C243.052 101.472 244.268 102.07 244.666 103.187C245.723 106.137 249.212 112.098 260.256 114.231C275.168 117.122 276.504 128.665 282.644 130.24C288.745 131.795 288.167 151.172 289.383 159.725Z" fill="#2D2D37"/>
<path d="M285.974 136.759C285.974 132.692 289.024 129.422 292.732 129.621C296.021 129.801 298.693 132.791 298.852 136.44C298.912 138.114 298.453 139.669 297.656 140.925C296.938 142.042 296.3 143.198 295.643 144.354C294.586 146.188 292.632 147.344 290.459 146.986C288.366 146.647 286.631 144.872 286.133 142.58C285.994 141.922 285.954 141.284 286.013 140.666C286.113 139.51 286.053 138.333 285.994 137.177C285.974 137.038 285.974 136.898 285.974 136.759Z" fill="#FFE4EE"/>
<path d="M314.838 101.678C320.568 95.9479 319.773 85.8624 313.062 79.1515C306.351 72.4405 296.265 71.6453 290.535 77.3753C284.805 83.1054 285.6 93.1908 292.311 99.9018C299.022 106.613 309.108 107.408 314.838 101.678Z" fill="#2D2D37"/>
<path d="M240.32 136.938C242.654 136.938 244.547 134.305 244.547 131.057C244.547 127.809 242.654 125.176 240.32 125.176C237.986 125.176 236.094 127.809 236.094 131.057C236.094 134.305 237.986 136.938 240.32 136.938Z" fill="white"/>
<path d="M261.272 136.938C263.606 136.938 265.499 134.305 265.499 131.057C265.499 127.809 263.606 125.176 261.272 125.176C258.938 125.176 257.046 127.809 257.046 131.057C257.046 134.305 258.938 136.938 261.272 136.938Z" fill="white"/>
<path d="M238.706 134.686C240.137 134.686 241.298 133.061 241.298 131.058C241.298 129.054 240.137 127.429 238.706 127.429C237.275 127.429 236.114 129.054 236.114 131.058C236.114 133.061 237.275 134.686 238.706 134.686Z" fill="#2D2D37"/>
<path d="M259.558 134.566C260.945 134.566 262.07 132.995 262.07 131.058C262.07 129.12 260.945 127.549 259.558 127.549C258.171 127.549 257.046 129.12 257.046 131.058C257.046 132.995 258.171 134.566 259.558 134.566Z" fill="#2D2D37"/>
<path d="M259.08 147.843C255.85 149.478 245.743 149.478 242.513 147.843C242.054 147.604 241.656 148.461 241.895 149.199C243.031 152.807 246.6 155.459 250.806 155.459C255.013 155.459 258.561 152.827 259.718 149.199C259.937 148.461 259.538 147.604 259.08 147.843Z" fill="#FF7BA4"/>
<path d="M293.769 136.599L292.772 137.596C291.756 138.613 291.756 140.267 292.772 141.284" stroke="#FFBED2" stroke-width="1.88394" stroke-miterlimit="10" stroke-linecap="round" stroke-linejoin="round"/>
<path d="M250.607 141.204C248.135 141.264 246.081 139.31 246.021 136.838C245.982 135.363 247.218 134.207 248.414 133.409C249.69 132.552 250.387 131.077 250.387 129.562V126.212" stroke="#FFBED2" stroke-width="1.88394" stroke-miterlimit="10" stroke-linecap="round" stroke-linejoin="round"/>
<path d="M293.986 187.197C283.4 182.053 271.12 181.595 260.195 185.981C242.95 192.879 230.49 208.209 227.261 226.51L207.086 340.524C206.388 344.451 209.418 348.08 213.405 348.08H326.043C329.911 348.08 332.901 344.69 332.423 340.843L317.132 219.513C315.377 205.538 306.665 193.377 293.986 187.197Z" fill="#FFD25F"/>
<path d="M273.373 239.409L234.498 301.09C234.498 301.09 278.796 296.844 278.796 236.638L273.373 239.409Z" fill="#FFB428"/>
<path d="M265.957 198.142C253.457 194.334 239.98 199.797 233.66 211.24L209.02 255.816C208.262 256.973 207.026 256.793 206.647 255.697L194.965 223.301C193.39 218.935 194.467 213.971 197.935 210.881C204.375 205.139 207.026 195.849 203.936 187.257C202.919 184.426 201.344 181.874 199.271 179.681C197.377 177.668 194.566 177.05 192.114 177.847C191.337 175.375 189.203 173.461 186.472 173.082C182.983 172.604 179.395 172.963 176.086 174.159C170.464 176.192 166.197 180.299 163.805 185.323L157.645 168.198C156.429 164.809 152.761 162.816 149.352 163.932C145.823 165.088 143.969 168.916 145.205 172.385L153 194.035C153.12 194.354 152.94 194.713 152.621 194.813C152.302 194.912 151.943 194.753 151.844 194.434V194.414L145.823 177.688C144.607 174.299 140.939 172.305 137.53 173.421C134.001 174.578 132.147 178.405 133.383 181.874L139.503 198.879L146.142 217.34L176.903 302.706C183.542 321.106 205.75 329.4 223.334 318.076C227.6 315.325 231.149 311.557 233.9 307.291L277.101 237.236C285.992 223.52 280.749 205.1 265.957 198.142ZM176.006 197.325C174.531 193.218 176.664 188.672 180.771 187.197C181.987 186.759 183.263 186.619 184.538 186.798C185.615 186.958 186.672 186.838 187.629 186.539C187.928 187.516 188.466 188.433 189.203 189.211C189.961 190.008 190.519 190.925 190.898 191.962C192.373 196.069 190.24 200.614 186.133 202.089C182.027 203.564 177.481 201.431 176.006 197.325Z" fill="#FFE4EE"/>
<path d="M191.357 179.421C191.477 181.455 190.44 183.448 188.686 184.485" stroke="#FFBED2" stroke-width="1.88394" stroke-miterlimit="10" stroke-linecap="round" stroke-linejoin="round"/>
<path d="M207.564 259.384L207.325 264.887" stroke="#FFBED2" stroke-width="1.88394" stroke-miterlimit="10" stroke-linecap="round" stroke-linejoin="round"/>
<path d="M214.701 245.529L256.945 269.931L267.392 252.985L224.33 228.105L214.701 245.529Z" fill="#FFCDDC"/>
<path d="M281.487 214.847C279.254 207.033 273.772 200.573 266.415 197.124L266.276 197.065C253.337 193.137 239.203 198.859 232.684 210.681L216.556 239.867C216.217 240.505 216.416 241.282 217.034 241.661L259.398 266.9C260.036 267.279 260.853 267.06 261.232 266.422L278.058 237.834C282.464 231.035 283.72 222.662 281.487 214.847Z" fill="#FFD25F"/>
</g>
</svg>
