<svg width="393" height="348" viewBox="0 0 393 348" fill="none" xmlns="http://www.w3.org/2000/svg">
<mask id="mask0" mask-type="alpha" maskUnits="userSpaceOnUse" x="0" y="0" width="382" height="348">
<path d="M382 324C382 337.255 371.255 348 358 348L24 348C10.7452 348 2.95782e-05 337.255 2.84194e-05 324L2.19259e-06 24C1.03382e-06 10.7452 10.7452 1.93855e-06 24 7.79773e-07L358 -2.84194e-05C371.255 -2.95782e-05 382 10.7451 382 24L382 324Z" fill="#FFB428"/>
</mask>
<g mask="url(#mask0)">
<path d="M106.671 226.341L81.9102 227.796C78.3217 228.016 75.2315 225.264 75.0123 221.676C74.793 218.088 77.5441 214.997 81.1326 214.778L111.794 212.964C117.236 212.645 122.599 213.203 127.683 214.539C130.992 215.396 133.843 212.047 132.507 208.897L128.779 200.046C127.543 196.657 129.278 192.928 132.667 191.692C136.056 190.456 139.784 192.191 141.02 195.58L159.501 239.439C159.959 240.276 160.398 241.133 160.816 242.011L165.94 253.514L180.553 290.873C180.991 291.85 182.467 291.571 182.487 290.495L183.484 251.739L224.332 254.869L222.737 303.294C222.079 323.21 206.37 339.338 186.474 340.514C170.027 341.491 154.676 332.32 147.699 317.408L123.656 262.026C122.121 258.518 118.572 256.325 114.745 256.544C111.754 256.723 108.883 255.427 107.029 253.075L102.883 247.792L110.458 242.15L106.671 226.341Z" fill="#FFE4EE"/>
<path d="M113.27 238.861L99.5938 239.658C96.0053 239.878 92.9151 237.127 92.6958 233.538C92.4766 229.95 95.2277 226.86 98.8162 226.64L112.492 225.843C116.081 225.624 119.171 228.375 119.39 231.963C119.609 235.552 116.878 238.642 113.27 238.861Z" fill="#FFE4EE"/>
<path d="M117.596 251.66L103.92 252.457C100.331 252.677 97.2413 249.925 97.022 246.337C96.8027 242.748 99.5539 239.658 103.142 239.439L116.818 238.642C120.407 238.422 123.497 241.174 123.716 244.762C123.916 248.37 121.184 251.46 117.596 251.66Z" fill="#FFE4EE"/>
<path d="M183.505 251.739L224.354 254.869L223.597 277.775C213.748 271.396 198.617 266.093 183.187 263.481L183.505 251.739Z" fill="#FFCDDC"/>
<path d="M98.8369 226.64L112.513 225.843C116.102 225.624 119.191 228.375 119.411 231.963C119.63 235.552 116.879 238.642 113.29 238.861" stroke="#FFBED2" stroke-width="1.88394" stroke-miterlimit="10" stroke-linecap="round" stroke-linejoin="round"/>
<path d="M105.057 239.339L116.819 238.642C120.407 238.422 123.497 241.174 123.717 244.762C123.936 248.35 121.185 251.44 117.596 251.66" stroke="#FFBED2" stroke-width="1.88394" stroke-miterlimit="10" stroke-linecap="round" stroke-linejoin="round"/>
<path d="M133.604 222.174C133.604 222.174 130.235 243.625 139.266 247.892" stroke="#FFBED2" stroke-width="1.88394" stroke-miterlimit="10" stroke-linecap="round" stroke-linejoin="round"/>
<path d="M182.547 294.661L183.205 300.124" stroke="#FFBED2" stroke-width="1.88394" stroke-miterlimit="10" stroke-linecap="round" stroke-linejoin="round"/>
<path d="M223.415 272.054C223.355 269.96 221.86 268.186 219.807 267.767L181.351 259.992C179.197 259.554 177.662 257.62 177.742 255.427C178.719 228.135 213.906 203.574 255.173 194.742L256.369 190.257C256.648 188.183 258.463 186.589 260.676 186.449L298.773 184.196C300.986 184.057 302.959 185.432 303.498 187.466L305.372 192.21C346.34 196.736 382.663 216.692 386.73 243.127C387.069 245.28 385.773 247.373 383.7 248.071L352.999 258.298C351.324 258.856 350.168 260.331 349.968 262.026L349.629 265.116C344.526 297.592 352.261 326.1 349.131 342.228C349.37 344.461 351.842 347.83 347.317 347.551H223.814C222 347.551 220.545 346.036 220.604 344.222L223.415 272.054Z" fill="#FFD25F"/>
<path d="M277.421 215.595C278.346 215.595 279.095 214.846 279.095 213.921C279.095 212.996 278.346 212.246 277.421 212.246C276.496 212.246 275.746 212.996 275.746 213.921C275.746 214.846 276.496 215.595 277.421 215.595Z" fill="white"/>
<path d="M277.421 220.779C278.346 220.779 279.095 220.029 279.095 219.104C279.095 218.179 278.346 217.43 277.421 217.43C276.496 217.43 275.746 218.179 275.746 219.104C275.746 220.029 276.496 220.779 277.421 220.779Z" fill="white"/>
<path d="M255.851 202.139L263.566 217.948" stroke="#FFB428" stroke-width="1.88394" stroke-miterlimit="10" stroke-linecap="round" stroke-linejoin="round"/>
<path d="M269.188 215.596L272.557 211.748C274.77 209.236 278.597 208.977 281.109 211.19L288.545 217.709C289.363 218.447 290.639 218.347 291.316 217.49L304.474 201.282" stroke="#FFB428" stroke-width="1.88394" stroke-miterlimit="10" stroke-linecap="round" stroke-linejoin="round"/>
<path d="M296.381 145.641H263.287L260.297 186.37C258.941 198.052 268.072 199.826 279.834 199.826C291.596 199.826 300.727 198.052 299.371 186.37L296.381 145.641Z" fill="#FFDAE4"/>
<path d="M288.824 165.377C282.565 170.341 274.112 187.047 272.258 199.447C265.4 198.61 260.556 196.118 260.177 189.44C260.197 188.184 260.217 187.147 260.256 186.609C260.256 186.529 260.276 186.469 260.276 186.389L261.732 166.374L288.824 165.377Z" fill="#FFCDDC"/>
<path d="M233.701 122.416C233.701 100.785 251.763 83.3812 273.613 84.4378C293.01 85.3748 308.88 101.343 309.717 120.741C310.096 129.652 307.404 137.906 302.62 144.544C298.373 150.426 294.566 156.606 290.678 162.746C284.458 172.554 272.855 178.595 260.037 176.761C247.636 174.987 237.389 165.537 234.539 153.356C233.721 149.847 233.522 146.418 233.861 143.169C234.479 137.009 234.14 130.809 233.781 124.609C233.721 123.871 233.701 123.153 233.701 122.416Z" fill="#FFE4EE"/>
<path d="M270.504 136.709C272.673 136.709 274.431 134.237 274.431 131.187C274.431 128.137 272.673 125.665 270.504 125.665C268.335 125.665 266.576 128.137 266.576 131.187C266.576 134.237 268.335 136.709 270.504 136.709Z" fill="white"/>
<path d="M269.248 135.294C270.723 135.294 271.919 133.509 271.919 131.307C271.919 129.104 270.723 127.319 269.248 127.319C267.772 127.319 266.576 129.104 266.576 131.307C266.576 133.509 267.772 135.294 269.248 135.294Z" fill="#2D2D37"/>
<path d="M248.874 136.709C251.043 136.709 252.801 134.237 252.801 131.187C252.801 128.137 251.043 125.665 248.874 125.665C246.705 125.665 244.946 128.137 244.946 131.187C244.946 134.237 246.705 136.709 248.874 136.709Z" fill="white"/>
<path d="M247.619 135.294C249.094 135.294 250.29 133.509 250.29 131.307C250.29 129.104 249.094 127.319 247.619 127.319C246.143 127.319 244.947 129.104 244.947 131.307C244.947 133.509 246.143 135.294 247.619 135.294Z" fill="#2D2D37"/>
<path d="M236.214 124.289L233.762 124.608C233.921 127.24 234.061 129.871 234.14 132.523C235.755 132.463 233.821 124.468 236.214 124.329" fill="#787885"/>
<path d="M284.917 128.855C288.286 128.855 286.193 134.816 291.117 134.816C300.168 134.816 290.399 149.05 299.51 149.05C300.527 147.535 301.583 146.02 302.64 144.544C305.571 140.477 307.724 135.793 308.86 130.729C302.879 131.307 294.187 130.25 284.917 128.835" fill="#787885"/>
<path d="M233.702 122.415C233.702 100.605 252.063 83.0817 274.152 84.4573C293.629 85.6734 309.259 101.921 309.737 121.438C309.817 124.628 309.498 127.738 308.82 130.729C309.498 127.758 310.216 124.648 310.136 121.438C309.658 101.921 293.629 84.3177 274.152 83.1016C252.043 81.7261 233.423 97.8941 233.423 119.704C233.423 120.442 233.722 123.851 233.762 124.568C233.762 124.568 233.762 124.568 233.762 124.588C233.762 124.588 233.762 124.588 233.762 124.568C233.722 123.871 233.702 123.153 233.702 122.415Z" fill="#2D2D37"/>
<path d="M279.295 113.425C276.325 111.69 268.41 108.819 257.466 108.819C241.796 108.819 240.281 113.205 240.281 113.205C240.281 113.205 240.261 113.285 240.241 113.405C242.235 112.109 246.979 110.155 257.466 110.155C268.41 110.155 277.681 113.026 280.651 114.76C280.671 114.78 280.691 114.78 280.691 114.8C280.332 114.222 279.874 113.763 279.295 113.425Z" fill="#2D2D37"/>
<path d="M282.625 117.929C282.885 121.498 282.366 128.834 284.898 128.834C294.168 130.25 302.86 131.307 308.841 130.728C309.499 127.758 309.838 124.648 309.758 121.438C309.28 101.921 293.65 85.6533 274.172 84.4572C252.064 83.0816 233.723 100.605 233.723 122.415C233.723 123.153 233.743 123.87 233.782 124.588C233.782 124.588 233.782 124.588 233.782 124.608L236.234 124.289C238.268 124.169 238.926 114.52 238.926 114.52C238.926 114.52 239.245 114.042 240.242 113.404C240.262 113.284 240.281 113.205 240.281 113.205C240.281 113.205 241.797 108.819 257.466 108.819C268.411 108.819 276.326 111.69 279.296 113.424C279.874 113.763 280.353 114.221 280.692 114.78C281.808 115.457 282.546 116.614 282.625 117.929Z" fill="#2D2D37"/>
<path d="M238.925 114.501C238.925 114.501 241.796 110.115 257.466 110.115C268.41 110.115 277.681 112.985 280.651 114.72C281.807 115.398 282.545 116.574 282.645 117.91C282.904 121.478 282.385 128.815 284.917 128.815C294.188 130.23 302.879 131.287 308.86 130.708C309.538 127.738 310.256 124.628 310.176 121.418C309.698 101.901 293.669 84.2977 274.192 83.0816C252.083 81.706 233.463 97.874 233.463 119.684C233.463 120.422 233.762 123.831 233.802 124.548C233.802 124.548 233.802 124.548 233.802 124.568L236.254 124.249C238.248 124.15 238.925 114.501 238.925 114.501Z" fill="#2D2D37"/>
<path d="M289.761 132.682C289.761 128.695 292.751 125.485 296.379 125.685C299.589 125.864 302.221 128.795 302.36 132.363C302.42 133.998 301.981 135.513 301.184 136.749C300.486 137.826 299.848 138.962 299.21 140.098C298.174 141.912 296.26 143.009 294.127 142.69C292.073 142.371 290.379 140.617 289.9 138.384C289.761 137.746 289.741 137.108 289.781 136.51C289.88 135.373 289.821 134.237 289.761 133.101C289.761 132.941 289.761 132.802 289.761 132.682Z" fill="#FFE4EE"/>
<path d="M348.473 273.988L349.49 282.221C349.709 283.278 348.354 283.896 347.696 283.039L324.789 250.105L317.134 240.097C316.536 239.339 315.898 238.622 315.24 237.904L287.071 199.547C285.077 196.537 281.03 195.72 278.04 197.713C275.029 199.707 274.212 203.754 276.205 206.744L281.887 214.479C283.901 217.23 281.927 221.158 278.498 221.098C273.235 220.978 267.892 221.696 262.669 223.271L242.414 229.391C238.965 230.428 237.012 234.076 238.068 237.525C239.105 240.974 242.753 242.928 246.202 241.871L265.36 236.07C265.959 235.89 266.596 236.229 266.776 236.827C266.955 237.426 266.616 238.063 266.018 238.243L244.109 244.862C240.66 245.898 238.706 249.547 239.763 252.995C240.799 256.444 244.448 258.398 247.897 257.341L269.806 250.723C270.404 250.543 271.042 250.882 271.222 251.48C271.401 252.078 271.062 252.716 270.464 252.896L254.974 257.581C251.525 258.617 249.571 262.266 250.628 265.715C251.664 269.163 255.313 271.117 258.762 270.061L275.348 265.037L281.827 263.083L321.938 316.451C332.186 329.35 349.271 334.673 365.02 329.908C384.079 324.147 395.621 304.809 391.634 285.292L383.72 248.071L353.018 258.298C353.018 258.298 350.367 258.817 349.948 262.246C349.53 265.675 348.473 273.988 348.473 273.988Z" fill="#FFE4EE"/>
<path d="M350.666 285.451L354.055 289.757" stroke="#FFBED2" stroke-width="1.88394" stroke-miterlimit="10" stroke-linecap="round" stroke-linejoin="round"/>
<path d="M256.549 147.674C254.555 147.674 252.94 150.704 252.94 154.432C252.94 158.16 254.555 161.19 256.549 161.19C258.543 161.19 260.157 158.16 260.157 154.432C260.157 150.704 258.543 147.674 256.549 147.674Z" fill="#FF7BA4"/>
<path d="M297.398 132.522L296.421 133.499C295.425 134.496 295.425 136.111 296.421 137.108" stroke="#FFBED2" stroke-width="1.88394" stroke-miterlimit="10" stroke-linecap="round" stroke-linejoin="round"/>
<path d="M258.462 140.397C256.01 140.457 253.977 138.523 253.917 136.071C253.857 133.619 257.286 132.084 258.243 131.526V126.163" stroke="#FFBED2" stroke-width="1.88394" stroke-miterlimit="10" stroke-linecap="round" stroke-linejoin="round"/>
<path d="M383.719 248.052L352.978 258.299C352.978 258.299 350.307 258.817 349.908 262.246C349.829 262.984 349.709 263.961 349.569 265.037L384.716 252.737L383.719 248.052Z" fill="#FFCDDC"/>
</g>
</svg>
