<svg width="382" height="348" viewBox="0 0 382 348" fill="none" xmlns="http://www.w3.org/2000/svg">
<mask id="mask0" mask-type="alpha" maskUnits="userSpaceOnUse" x="0" y="0" width="382" height="348">
<path d="M382 324C382 337.255 371.255 348 358 348L24 348C10.7452 348 2.95782e-05 337.255 2.84194e-05 324L2.19259e-06 24C1.03382e-06 10.7452 10.7452 1.93855e-06 24 7.79773e-07L358 -2.84194e-05C371.255 -2.95782e-05 382 10.7451 382 24L382 324Z" fill="#F04682"/>
</mask>
<g mask="url(#mask0)">
<path d="M177.028 246.342L174.231 279.241C174.157 280.149 172.897 280.334 172.564 279.482L162.023 246.99L158.244 236.95C157.929 236.19 157.596 235.431 157.244 234.69L143.739 196.473C142.85 193.528 139.757 191.879 136.83 192.75C133.884 193.639 132.236 196.733 133.106 199.66L135.829 207.366C136.793 210.107 134.218 212.83 131.439 211.923C127.178 210.533 122.658 209.792 118.009 209.792H100.003C96.9276 209.792 94.4453 212.275 94.4453 215.35C94.4453 218.425 96.9276 220.907 100.003 220.907H117.045C117.583 220.907 118.009 221.333 118.009 221.871C118.009 222.408 117.583 222.834 117.045 222.834H97.5574C94.4823 222.834 92 225.316 92 228.391C92 231.466 94.4823 233.949 97.5574 233.949H117.045C117.583 233.949 118.009 234.375 118.009 234.912C118.009 235.449 117.583 235.875 117.045 235.875H103.263C100.188 235.875 97.7057 238.358 97.7057 241.433C97.7057 244.508 100.188 246.99 103.263 246.99H118.009H123.788L143.332 300.378C148.519 313.401 161.116 321.959 175.139 321.959C192.107 321.959 206.26 309.029 207.816 292.153L211.595 251.066L177.028 246.342Z" fill="#FFE4EE"/>
<path d="M136.404 218.314C136.052 224.391 140.572 228.503 145.499 227.836" stroke="#FFBED2" stroke-width="1.75058" stroke-miterlimit="10" stroke-linecap="round" stroke-linejoin="round"/>
<path d="M131.402 240.025C133.125 235.338 131.254 224.835 128.642 219.963" stroke="#FFBED2" stroke-width="1.75058" stroke-miterlimit="10" stroke-linecap="round" stroke-linejoin="round"/>
<path d="M177.028 246.342L211.596 251.047L210.317 264.996C198.869 260.032 187.551 255.382 176.491 252.715L177.028 246.342Z" fill="#FFCDDC"/>
<path d="M173.657 283.132L174.676 288.152" stroke="#FFBED2" stroke-width="1.75058" stroke-miterlimit="10" stroke-linecap="round" stroke-linejoin="round"/>
<path d="M356.957 246.342L359.755 279.242C359.829 280.15 361.088 280.335 361.422 279.483L371.962 246.991L375.741 236.95C376.056 236.191 376.39 235.431 376.742 234.69L390.246 196.474C391.135 193.529 394.229 191.88 397.156 192.75C400.101 193.64 401.75 196.733 400.879 199.66L398.156 207.367C397.193 210.108 399.768 212.831 402.547 211.923C406.807 210.534 411.327 209.793 415.977 209.793H433.983C437.058 209.793 439.54 212.275 439.54 215.351C439.54 218.426 437.058 220.908 433.983 220.908H416.94C416.403 220.908 415.977 221.334 415.977 221.871C415.977 222.408 416.403 222.835 416.94 222.835H436.428C439.503 222.835 441.985 225.317 441.985 228.392C441.985 231.467 439.503 233.949 436.428 233.949H416.94C416.403 233.949 415.977 234.376 415.977 234.913C415.977 235.45 416.403 235.876 416.94 235.876H430.722C433.798 235.876 436.28 238.358 436.28 241.433C436.28 244.509 433.798 246.991 430.722 246.991H415.977H410.197L390.654 300.379C385.467 313.402 372.87 321.96 358.847 321.96C341.878 321.96 327.725 309.03 326.169 292.154L322.39 251.066L356.957 246.342Z" fill="#FFE4EE"/>
<path d="M356.956 246.343L322.389 251.048L323.667 264.997C335.115 260.032 346.434 255.383 357.493 252.715L356.956 246.343Z" fill="#FFCDDC"/>
<path d="M360.329 283.132L359.31 288.152" stroke="#FFBED2" stroke-width="1.75058" stroke-miterlimit="10" stroke-linecap="round" stroke-linejoin="round"/>
<path d="M203.446 254.123C205.983 254.789 207.669 257.161 207.484 259.773L201.334 342.078C201.093 345.227 203.594 347.894 206.743 347.894H327.116C330.321 347.894 332.822 345.134 332.507 341.93L324.319 259.939C324.06 257.253 325.801 254.789 328.413 254.141L357.386 247.028C359.998 246.379 361.813 243.897 361.498 241.229C358.46 215.295 330.469 193.862 293.068 186.878C290.845 186.471 289.104 184.785 288.677 182.562C288.325 180.691 287.01 179.079 285.195 178.486C273.043 174.392 260.909 174.392 248.775 178.486C246.96 179.098 245.663 180.691 245.293 182.562C244.867 184.766 243.107 186.471 240.902 186.878C203.482 193.862 175.473 215.332 172.472 241.303C172.157 243.953 173.936 246.416 176.511 247.083L203.446 254.123Z" fill="#FF6991"/>
<path d="M288.677 192.824L280.675 203.624C279.396 205.347 276.877 205.569 275.321 204.087L269.56 198.604C268.133 197.233 265.873 197.233 264.428 198.604L258.667 204.087C257.111 205.569 254.592 205.365 253.314 203.624L245.311 192.824" stroke="#F04682" stroke-width="1.75058" stroke-miterlimit="10" stroke-linecap="round" stroke-linejoin="round"/>
<path d="M266.967 207.181C267.888 207.181 268.634 206.434 268.634 205.514C268.634 204.593 267.888 203.846 266.967 203.846C266.046 203.846 265.3 204.593 265.3 205.514C265.3 206.434 266.046 207.181 266.967 207.181Z" fill="white"/>
<path d="M266.967 212.275C267.888 212.275 268.634 211.529 268.634 210.608C268.634 209.687 267.888 208.941 266.967 208.941C266.046 208.941 265.3 209.687 265.3 210.608C265.3 211.529 266.046 212.275 266.967 212.275Z" fill="white"/>
<path d="M282.488 139.288H251.46L248.662 177.467C247.384 188.415 255.943 190.064 266.965 190.064C277.987 190.064 286.545 188.415 285.267 177.467L282.488 139.288Z" fill="#FFDAE4"/>
<path d="M275.393 157.794C269.521 162.444 261.611 178.097 259.87 189.712C253.442 188.934 248.903 186.581 248.551 180.32C248.57 179.135 248.588 178.171 248.644 177.671C248.644 177.597 248.662 177.541 248.662 177.467L250.033 158.702L275.393 157.794Z" fill="#FFCDDC"/>
<path d="M223.747 117.54C223.747 97.2737 240.66 80.9536 261.149 81.9354C279.321 82.8061 294.196 97.7739 294.993 115.965C295.363 124.32 292.826 132.044 288.343 138.287C284.36 143.808 280.803 149.606 277.154 155.33C271.319 164.518 260.463 170.187 248.441 168.464C236.826 166.797 227.211 157.961 224.544 146.531C223.766 143.233 223.599 140.029 223.895 136.972C224.47 131.192 224.155 125.376 223.821 119.577C223.766 118.892 223.747 118.225 223.747 117.54Z" fill="#FFE4EE"/>
<path d="M258.24 130.933C260.266 130.933 261.908 128.619 261.908 125.765C261.908 122.91 260.266 120.596 258.24 120.596C256.214 120.596 254.572 122.91 254.572 125.765C254.572 128.619 256.214 130.933 258.24 130.933Z" fill="white"/>
<path d="M257.055 129.6C258.436 129.6 259.556 127.924 259.556 125.857C259.556 123.791 258.436 122.115 257.055 122.115C255.674 122.115 254.554 123.791 254.554 125.857C254.554 127.924 255.674 129.6 257.055 129.6Z" fill="#2D2D37"/>
<path d="M237.956 130.933C239.981 130.933 241.623 128.619 241.623 125.765C241.623 122.91 239.981 120.596 237.956 120.596C235.93 120.596 234.288 122.91 234.288 125.765C234.288 128.619 235.93 130.933 237.956 130.933Z" fill="white"/>
<path d="M236.789 129.6C238.17 129.6 239.289 127.924 239.289 125.857C239.289 123.791 238.17 122.115 236.789 122.115C235.407 122.115 234.288 123.791 234.288 125.857C234.288 127.924 235.407 129.6 236.789 129.6Z" fill="#2D2D37"/>
<path d="M319.093 111.612C319.093 108.926 318 106.518 316.24 104.758C317.278 103.221 317.87 101.368 317.87 99.3861C317.87 96.9223 316.944 94.6809 315.425 92.9766C315.796 91.9577 315.999 90.8649 315.999 89.7163C315.999 84.9925 312.628 81.0838 308.164 80.2317C308.182 79.9538 308.201 79.6574 308.201 79.361C308.201 75.2114 305.589 71.6918 301.921 70.321C301.143 66.4493 298.067 63.4298 294.159 62.7259C292.825 58.9839 289.25 56.2978 285.063 56.2978C282.674 56.2978 280.488 57.1685 278.802 58.5949C277.283 55.2234 273.911 52.8891 269.984 52.8891C267.465 52.8891 265.168 53.8711 263.445 55.4457C261.667 53.3339 259.018 52 256.054 52C252.515 52 249.44 53.9081 247.754 56.7424C245.995 54.9826 243.568 53.8896 240.9 53.8896C237.844 53.8896 235.139 55.2974 233.361 57.5019C230.971 57.1499 228.433 57.6871 226.322 59.2246C224.728 60.3731 223.598 61.9108 222.95 63.5966C217.985 64.0041 214.095 68.1536 214.095 73.2294C214.095 73.4887 214.114 73.7295 214.132 73.9888C213.465 74.2667 212.817 74.6186 212.206 75.0632C208.297 77.879 207.13 83.0659 209.223 87.234C207.704 89.7163 207.389 92.7914 208.39 95.5516C206.889 97.2559 205.963 99.4974 205.963 101.943C205.963 104.258 206.778 106.407 208.149 108.074C207.926 108.871 207.815 109.704 207.815 110.575C207.815 112.038 208.149 113.409 208.723 114.65C208.149 115.892 207.815 117.262 207.815 118.726C207.815 120.893 208.538 122.875 209.723 124.487C209.705 124.783 209.686 125.061 209.686 125.358C209.686 128.359 211.057 131.026 213.188 132.805C214.021 135.213 215.8 137.195 218.078 138.306C218.893 140.548 220.486 142.4 222.561 143.53C223.043 144.531 223.71 145.439 224.488 146.217C223.784 143.049 223.617 139.955 223.913 136.991C224.488 131.211 224.173 125.395 223.839 119.597C223.802 118.985 223.784 111.297 229.304 109.834C230.527 109.519 231.675 108.945 232.583 108.13C233.509 108.704 234.621 109.038 235.788 109.038C237.566 109.038 239.178 108.278 240.308 107.055C241.734 107.907 243.401 108.389 245.198 108.389C247.217 108.389 249.088 107.778 250.626 106.722C251.793 107.222 253.09 107.518 254.442 107.518C255.331 107.518 256.183 107.389 256.998 107.166C258.61 108.371 260.592 109.093 262.759 109.093C263.815 109.093 264.834 108.926 265.779 108.611C265.779 108.778 265.76 108.926 265.76 109.093C265.76 113.317 268.465 116.892 272.226 118.207C271.892 119.189 271.707 120.226 271.707 121.319C271.707 121.56 271.707 121.82 271.725 122.06C271.966 125.284 274.004 128.099 276.838 129.655L277.116 129.804C280.061 131.397 282.007 134.379 282.266 137.732L284.23 162.926C285.637 162.166 286.86 161.073 287.731 159.74C292.473 159.128 296.16 155.071 296.16 150.162C296.16 150.125 296.16 150.088 296.16 150.051C300.161 149.477 303.366 146.457 304.199 142.567C307.737 141.122 310.22 137.658 310.22 133.62C310.22 133.583 310.22 133.546 310.22 133.509C314.888 132.823 318.482 128.822 318.482 123.95C318.482 121.782 317.759 119.8 316.555 118.189C318.13 116.392 319.093 114.113 319.093 111.612Z" fill="#2D2D37"/>
<path d="M276.283 127.154C276.283 123.431 279.08 120.411 282.489 120.596C285.509 120.763 287.972 123.523 288.102 126.858C288.158 128.395 287.75 129.822 286.991 130.97C286.324 131.989 285.749 133.045 285.138 134.101C284.175 135.787 282.378 136.842 280.377 136.527C278.451 136.213 276.858 134.601 276.413 132.489C276.283 131.878 276.246 131.285 276.302 130.729C276.395 129.673 276.339 128.599 276.283 127.525C276.283 127.395 276.283 127.284 276.283 127.154Z" fill="#FFE4EE"/>
<path d="M245.161 153.885C247.034 153.885 248.551 151.049 248.551 147.55C248.551 144.051 247.034 141.215 245.161 141.215C243.289 141.215 241.771 144.051 241.771 147.55C241.771 151.049 243.289 153.885 245.161 153.885Z" fill="#FF7BA4"/>
<path d="M283.451 127.006L282.525 127.932C281.599 128.859 281.599 130.378 282.525 131.322" stroke="#FFBED2" stroke-width="1.75058" stroke-miterlimit="10" stroke-linecap="round" stroke-linejoin="round"/>
<path d="M246.939 134.397C244.642 134.453 242.734 132.638 242.679 130.341C242.623 128.043 245.846 126.617 246.735 126.08V121.06" stroke="#FFBED2" stroke-width="1.75058" stroke-miterlimit="10" stroke-linecap="round" stroke-linejoin="round"/>
</g>
</svg>
