<svg width="382" height="348" viewBox="0 0 382 348" fill="none" xmlns="http://www.w3.org/2000/svg">
<mask id="mask0" mask-type="alpha" maskUnits="userSpaceOnUse" x="0" y="0" width="382" height="348">
<path d="M382 348L3.05176e-05 348L2.19259e-06 24C1.03382e-06 10.7452 10.7452 2.02057e-06 24 8.61793e-07L358 -2.83374e-05C371.255 -2.94962e-05 382 10.7451 382 24L382 348Z" fill="#1EB4BE"/>
</mask>
<g mask="url(#mask0)">
<g filter="url(#filter0_d)">
<path d="M332 40H192C180.954 40 172 48.9543 172 60V200C172 211.046 180.954 220 192 220H332C343.046 220 352 211.046 352 200V60C352 48.9543 343.046 40 332 40Z" fill="#D2DCFF"/>
<path d="M286.122 163.889H255.583L252.857 201.244C251.494 211.878 259.946 213.514 270.853 213.514C281.759 213.514 289.939 211.878 288.848 201.244L286.122 163.889Z" fill="#FFDBE5"/>
<path d="M279.031 182.158C273.305 186.793 265.398 202.062 263.762 213.514C257.491 212.696 253.128 210.514 252.583 204.243C252.583 203.153 252.583 202.062 252.583 201.517C252.583 201.517 252.583 201.517 252.583 201.244L253.946 182.703L279.031 182.158Z" fill="#FFD0DD"/>
<path d="M228.316 142.621C228.316 122.717 244.949 106.63 265.126 107.72C282.849 108.538 297.573 123.262 298.391 140.985C298.663 149.165 296.209 156.8 291.847 162.798C288.03 168.251 284.485 173.977 280.94 179.431C275.214 188.429 264.581 193.882 252.856 192.246C241.404 190.61 232.134 181.885 229.407 170.705C228.589 167.433 228.589 164.434 228.862 161.435C229.407 155.709 229.134 149.983 228.862 144.257C228.316 143.984 228.316 143.167 228.316 142.621Z" fill="#FFE5EF"/>
<path d="M262.127 155.709C264.085 155.709 265.672 153.39 265.672 150.529C265.672 147.667 264.085 145.348 262.127 145.348C260.169 145.348 258.582 147.667 258.582 150.529C258.582 153.39 260.169 155.709 262.127 155.709Z" fill="white"/>
<path d="M261.036 154.347C262.392 154.347 263.49 152.76 263.49 150.802C263.49 148.845 262.392 147.258 261.036 147.258C259.681 147.258 258.582 148.845 258.582 150.802C258.582 152.76 259.681 154.347 261.036 154.347Z" fill="#333333"/>
<path d="M242.222 155.709C244.179 155.709 245.766 153.39 245.766 150.529C245.766 147.667 244.179 145.348 242.222 145.348C240.264 145.348 238.677 147.667 238.677 150.529C238.677 153.39 240.264 155.709 242.222 155.709Z" fill="white"/>
<path d="M241.131 154.347C242.486 154.347 243.585 152.76 243.585 150.802C243.585 148.845 242.486 147.258 241.131 147.258C239.776 147.258 238.677 148.845 238.677 150.802C238.677 152.76 239.776 154.347 241.131 154.347Z" fill="#333333"/>
<path d="M321.839 136.622C321.839 133.896 320.749 131.715 319.113 129.806C320.203 128.17 320.749 126.534 320.749 124.625C320.749 122.171 319.931 119.99 318.295 118.354C318.567 117.263 318.84 116.173 318.84 115.082C318.84 110.447 315.568 106.63 311.205 105.812C311.205 105.539 311.205 105.266 311.205 104.994C311.205 100.904 308.751 97.359 304.934 95.9957C304.116 92.1784 301.117 89.1791 297.3 88.6337C295.936 85.0891 292.392 82.3625 288.302 82.3625C285.848 82.3625 283.939 83.1805 282.031 84.5438C280.667 81.2719 277.123 78.818 273.305 78.818C270.851 78.818 268.67 79.9087 266.761 81.272C265.125 79.0907 262.399 78 259.4 78C255.855 78 252.856 79.9087 251.22 82.6353C249.584 80.9993 247.13 79.9087 244.403 79.9087C241.404 79.9087 238.677 81.272 237.041 83.4533C234.587 83.1806 232.133 83.7259 230.225 85.0892C228.589 86.1798 227.498 87.8159 226.953 89.4519C222.045 89.7245 218.227 93.8145 218.227 98.9951C218.227 99.2677 218.227 99.5404 218.227 99.813C217.682 100.086 216.864 100.358 216.319 100.904C212.501 103.63 211.411 108.811 213.319 112.901C211.956 115.355 211.411 118.354 212.502 121.081C211.138 122.717 210.047 124.898 210.047 127.352C210.047 129.533 210.865 131.715 212.229 133.35C211.956 134.168 211.956 134.987 211.956 135.805C211.956 137.168 212.229 138.531 212.774 139.894C212.229 140.985 211.956 142.348 211.956 143.984C211.956 146.166 212.774 148.074 213.865 149.71C213.865 149.983 213.865 150.256 213.865 150.528C213.865 153.528 215.228 155.982 217.409 157.89C218.227 160.344 219.863 162.253 222.317 163.343C223.135 165.525 224.771 167.433 226.68 168.524C227.225 169.615 227.771 170.433 228.589 171.251C227.771 168.251 227.771 164.979 228.043 162.253C228.589 156.527 228.316 150.801 228.043 145.075C228.043 144.53 228.043 136.895 233.497 135.532C234.587 135.259 235.95 134.714 236.768 133.896C237.586 134.441 238.677 134.714 240.04 134.714C241.676 134.714 243.312 133.896 244.403 132.805C245.766 133.623 247.402 134.168 249.311 134.168C251.22 134.168 253.128 133.623 254.764 132.533C255.855 133.078 257.218 133.35 258.581 133.35C259.399 133.35 260.217 133.351 261.035 133.078C262.671 134.169 264.58 134.986 266.761 134.986C267.852 134.986 268.67 134.714 269.761 134.441C269.761 134.714 269.761 134.714 269.761 134.986C269.761 139.076 272.487 142.621 276.032 143.984C275.759 145.075 275.487 145.893 275.487 146.984C275.487 147.256 275.487 147.529 275.487 147.802C275.759 151.074 277.668 153.8 280.394 155.164L280.667 155.436C283.666 157.072 285.575 159.799 285.848 163.343L287.756 188.156C289.12 187.338 290.21 186.247 291.301 185.156C295.936 184.611 299.481 180.521 299.481 175.886C303.298 175.34 306.57 172.341 307.388 168.524C310.933 167.161 313.387 163.616 313.387 159.799C318.022 159.253 321.567 155.163 321.567 150.528C321.567 148.347 320.749 146.438 319.658 144.802C321.021 141.53 321.839 139.076 321.839 136.622Z" fill="#333333"/>
<path d="M279.849 151.892C279.849 148.347 282.576 145.348 285.848 145.348C288.847 145.621 291.301 148.075 291.301 151.619C291.301 153.255 291.029 154.619 290.211 155.709C289.665 156.8 289.12 157.618 288.302 158.709C287.484 160.344 285.575 161.435 283.667 161.163C281.758 160.89 280.122 159.254 279.849 157.073C279.849 156.527 279.577 155.982 279.849 155.437C279.849 154.346 279.849 153.255 279.849 152.165C279.849 152.165 279.849 152.165 279.849 151.892Z" fill="#FFE5EF"/>
<path d="M334.762 347.727V348H294.135C294.953 327.277 291.029 308.128 285.576 288.223L269.216 229.055L292.12 221.966C301.117 219.24 310.388 224.147 312.842 233.145L329.474 293.131C332.474 305.128 335.307 335.185 334.762 347.727Z" fill="#FFE5EF"/>
<path d="M291.029 201.242C281.486 196.607 270.307 196.062 260.218 200.152C244.404 206.423 233.225 220.329 230.226 237.234L211.957 341.118C211.412 344.663 214.138 347.935 217.683 347.935H320.477C324.021 347.935 326.748 344.936 326.203 341.391L312.297 230.69C310.661 217.875 302.754 206.968 291.029 201.242Z" fill="#5A87FA"/>
<path d="M272.215 248.96L236.769 305.129C236.769 305.129 277.123 301.311 277.123 246.234L272.215 248.96Z" fill="#646EDC"/>
<path d="M249.311 165.798C247.403 165.798 246.039 168.524 246.039 172.069C246.039 175.614 247.403 178.34 249.311 178.34C251.22 178.34 252.583 175.614 252.583 172.069C252.583 168.524 251.22 165.798 249.311 165.798Z" fill="#FF97BF"/>
<path d="M286.939 151.89L286.121 152.708C285.303 153.526 285.303 155.162 286.121 155.98" stroke="#FFBED7" stroke-width="0.6298" stroke-miterlimit="10" stroke-linecap="round" stroke-linejoin="round"/>
<path d="M251.22 158.982C249.039 158.982 247.13 157.346 247.13 154.892C247.13 152.711 250.129 151.347 251.22 150.802V145.894" stroke="#FFBED7" stroke-width="0.6298" stroke-miterlimit="10" stroke-linecap="round" stroke-linejoin="round"/>
<path d="M265.671 211.061C254.22 207.516 241.95 212.697 236.224 223.058L213.865 263.685C213.048 264.775 211.957 264.503 211.684 263.685L201.05 234.237C199.687 230.147 200.505 225.784 203.777 222.785C209.776 217.605 211.957 209.152 209.23 201.245C208.412 198.791 206.776 196.337 204.868 194.428C203.232 192.52 200.505 191.974 198.324 192.792C197.506 190.611 195.597 188.702 193.143 188.43C189.871 187.884 186.599 188.43 183.6 189.52C178.419 191.429 174.602 195.246 172.421 199.609L166.695 184.067C165.604 181.068 162.332 179.159 159.06 180.25C155.788 181.341 154.152 184.885 155.243 187.884L162.332 207.516C162.332 207.789 162.332 208.061 162.06 208.334C161.787 208.334 161.514 208.334 161.242 208.062L155.788 192.792C154.698 189.793 151.426 187.884 148.154 188.975C144.882 190.066 143.246 193.61 144.337 196.61L149.79 212.151L155.788 229.056L183.873 306.765C189.871 323.67 210.048 331.032 226.135 320.671C229.953 318.217 233.225 314.672 235.679 310.855L274.942 247.052C283.94 234.237 279.032 217.605 265.671 211.061ZM183.6 210.515C182.237 206.698 184.145 202.608 187.963 201.245C189.053 200.972 190.144 200.7 191.507 200.972C192.598 201.245 193.416 200.972 194.234 200.7C194.506 201.518 195.052 202.335 195.597 203.153C196.415 203.971 196.688 204.789 197.233 205.607C198.596 209.425 196.688 213.515 192.87 214.878C189.053 216.241 184.963 214.06 183.6 210.515Z" fill="#FFE5EF"/>
<path d="M197.505 194.153C197.505 196.062 196.687 197.698 195.051 198.789" stroke="#FFBED7" stroke-width="0.6298" stroke-miterlimit="10" stroke-linecap="round" stroke-linejoin="round"/>
<path d="M212.23 266.955V272.135" stroke="#FFBED7" stroke-width="0.6298" stroke-miterlimit="10" stroke-linecap="round" stroke-linejoin="round"/>
<path d="M218.773 254.412L257.491 276.498L267.035 261.229L227.771 238.325L218.773 254.412Z" fill="#FFD0DD"/>
<path d="M279.85 226.327C277.941 219.238 272.761 213.239 266.217 210.24C254.492 206.695 241.405 211.876 235.679 222.783L220.409 250.322L261.036 274.588L277.123 247.595C280.668 241.324 281.759 233.416 279.85 226.327Z" fill="#5A87FA"/>
</g>
</g>
<defs>
<filter id="filter0_d" x="128" y="28" width="240" height="340" filterUnits="userSpaceOnUse" color-interpolation-filters="sRGB">
<feFlood flood-opacity="0" result="BackgroundImageFix"/>
<feColorMatrix in="SourceAlpha" type="matrix" values="0 0 0 0 0 0 0 0 0 0 0 0 0 0 0 0 0 0 127 0"/>
<feOffset dy="4"/>
<feGaussianBlur stdDeviation="8"/>
<feColorMatrix type="matrix" values="0 0 0 0 0 0 0 0 0 0 0 0 0 0 0 0 0 0 0.08 0"/>
<feBlend mode="normal" in2="BackgroundImageFix" result="effect1_dropShadow"/>
<feBlend mode="normal" in="SourceGraphic" in2="effect1_dropShadow" result="shape"/>
</filter>
</defs>
</svg>
