<svg width="382" height="348" viewBox="0 0 382 348" fill="none" xmlns="http://www.w3.org/2000/svg">
<mask id="mask0" mask-type="alpha" maskUnits="userSpaceOnUse" x="0" y="0" width="382" height="348">
<path d="M382 324C382 337.255 371.255 348 358 348L24 348C10.7452 348 2.95782e-05 337.255 2.84194e-05 324L2.19259e-06 24C1.03382e-06 10.7452 10.7452 1.93855e-06 24 7.79773e-07L358 -2.84194e-05C371.255 -2.95782e-05 382 10.7451 382 24L382 324Z" fill="#3C6EE6"/>
</mask>
<g mask="url(#mask0)">
<path d="M106.647 226.436L81.9084 227.885C78.3218 228.092 75.2409 225.356 75.011 221.769C74.8041 218.182 77.5402 215.101 81.1269 214.872L111.774 213.055C117.223 212.733 122.557 213.285 127.661 214.619C130.972 215.492 133.8 212.136 132.49 208.986L128.765 200.134C127.523 196.754 129.271 193.007 132.651 191.765C136.03 190.524 139.778 192.271 141.02 195.651L159.482 239.495C159.941 240.346 160.378 241.197 160.792 242.07L165.896 253.566L180.496 290.904C180.932 291.893 182.404 291.594 182.427 290.513L183.439 251.773L224.271 254.9L222.685 303.297C222.041 323.184 206.315 339.324 186.451 340.497C170.012 341.462 154.653 332.312 147.687 317.39L123.638 262.05C122.12 258.532 118.557 256.348 114.717 256.578C111.728 256.762 108.855 255.451 106.992 253.106L102.854 247.818L110.418 242.185L106.647 226.436Z" fill="#FFE4EE"/>
<path d="M113.27 238.943L99.6125 239.748C96.0259 239.955 92.945 237.219 92.7151 233.632C92.5082 230.045 95.2443 226.965 98.831 226.735L112.488 225.93C116.074 225.723 119.155 228.459 119.385 232.046C119.592 235.655 116.856 238.736 113.27 238.943Z" fill="#FFE4EE"/>
<path d="M117.568 251.751L103.911 252.555C100.325 252.762 97.2438 250.026 97.0139 246.44C96.807 242.853 99.5429 239.772 103.13 239.542L116.787 238.738C120.373 238.531 123.454 241.267 123.684 244.853C123.914 248.463 121.155 251.544 117.568 251.751Z" fill="#FFE4EE"/>
<path d="M98.8311 226.758L112.488 225.953C116.074 225.746 119.155 228.482 119.385 232.069C119.592 235.656 116.856 238.737 113.27 238.967" stroke="#FFBED2" stroke-width="1.883" stroke-miterlimit="10" stroke-linecap="round" stroke-linejoin="round"/>
<path d="M105.038 239.45L116.787 238.76C120.373 238.553 123.454 241.289 123.684 244.876C123.891 248.462 121.155 251.543 117.568 251.773" stroke="#FFBED2" stroke-width="1.883" stroke-miterlimit="10" stroke-linecap="round" stroke-linejoin="round"/>
<path d="M133.57 222.274C133.57 222.274 130.213 243.702 139.226 247.979" stroke="#FFBED2" stroke-width="1.883" stroke-miterlimit="10" stroke-linecap="round" stroke-linejoin="round"/>
<path d="M183.462 251.818L224.295 254.945L223.536 277.845C213.696 271.476 198.567 266.165 183.163 263.544L183.462 251.818Z" fill="#FFCDDC"/>
<path d="M182.496 294.722L183.163 300.194" stroke="#FFBED2" stroke-width="1.883" stroke-miterlimit="10" stroke-linecap="round" stroke-linejoin="round"/>
<path d="M223.605 272.809C223.559 270.717 222.064 268.923 219.995 268.51L181.553 260.738C179.392 260.302 177.875 258.37 177.944 256.163C178.909 228.872 214.086 204.34 255.333 195.489L256.528 191.005C256.804 188.936 258.621 187.327 260.828 187.212L298.925 184.959C301.132 184.821 303.109 186.2 303.638 188.223L305.5 192.96C346.448 197.489 382.751 217.423 386.821 243.84C387.143 246.001 385.855 248.093 383.786 248.783L353.092 259.014C351.414 259.566 350.264 261.037 350.057 262.739L349.713 265.82C344.631 298.283 352.357 326.77 349.207 342.887C349.46 345.117 351.92 348.474 347.391 348.221H225.214C222.708 348.221 220.685 346.129 220.777 343.623L223.605 272.809Z" fill="#FFD25F"/>
<path d="M277.566 216.388C278.493 216.388 279.244 215.637 279.244 214.71C279.244 213.783 278.493 213.031 277.566 213.031C276.639 213.031 275.888 213.783 275.888 214.71C275.888 215.637 276.639 216.388 277.566 216.388Z" fill="white"/>
<path d="M277.566 221.563C278.493 221.563 279.244 220.811 279.244 219.884C279.244 218.957 278.493 218.206 277.566 218.206C276.639 218.206 275.888 218.957 275.888 219.884C275.888 220.811 276.639 221.563 277.566 221.563Z" fill="white"/>
<path d="M256.022 202.938L263.725 218.733" stroke="#FFB428" stroke-width="1.883" stroke-miterlimit="10" stroke-linecap="round" stroke-linejoin="round"/>
<path d="M269.335 216.388L272.715 212.548C274.922 210.042 278.739 209.789 281.268 211.996L288.694 218.526C289.521 219.261 290.786 219.169 291.476 218.319L304.627 202.133" stroke="#FFB428" stroke-width="1.883" stroke-miterlimit="10" stroke-linecap="round" stroke-linejoin="round"/>
<path d="M297.27 148.333H263.45L260.415 189.948C259.036 201.88 268.347 203.673 280.372 203.673C292.373 203.673 301.708 201.857 300.328 189.948L297.27 148.333Z" fill="#FFDAE4"/>
<path d="M260.3 192.406C260.415 199.718 265.427 202.408 272.669 203.281C274.669 190.613 283.176 170.45 289.499 165.438L262.139 166.426L260.415 189.946C260.415 189.969 260.415 189.992 260.415 190.015L260.392 190.337V190.36C260.369 190.636 260.346 190.889 260.346 191.165C260.323 191.487 260.323 191.924 260.3 192.406Z" fill="#FFCDDC"/>
<path d="M233.262 124.606C233.262 102.511 251.701 84.7387 274.026 85.8193C293.821 86.7849 310.053 103.086 310.904 122.881C311.295 131.986 308.536 140.401 303.662 147.206C299.339 153.23 295.454 159.53 291.476 165.783C285.107 175.785 273.29 181.969 260.185 180.107C247.517 178.291 237.055 168.657 234.136 156.196C233.285 152.609 233.101 149.115 233.423 145.781C234.043 139.481 233.699 133.136 233.331 126.836C233.285 126.1 233.262 125.365 233.262 124.606Z" fill="#FFE4EE"/>
<path d="M294.695 138.676C294.695 134.607 297.753 131.342 301.455 131.526C304.743 131.71 307.433 134.699 307.571 138.354C307.639 140.033 307.18 141.573 306.375 142.838C305.662 143.941 305.018 145.114 304.352 146.263C303.294 148.103 301.34 149.252 299.156 148.907C297.064 148.586 295.316 146.792 294.833 144.516C294.695 143.849 294.672 143.206 294.718 142.608C294.833 141.458 294.764 140.286 294.695 139.113C294.718 138.952 294.695 138.814 294.695 138.676Z" fill="#FFE4EE"/>
<path d="M246.942 143.527C249.279 143.527 251.173 140.892 251.173 137.642C251.173 134.391 249.279 131.756 246.942 131.756C244.606 131.756 242.712 134.391 242.712 137.642C242.712 140.892 244.606 143.527 246.942 143.527Z" fill="white"/>
<path d="M267.887 143.527C270.223 143.527 272.117 140.892 272.117 137.642C272.117 134.391 270.223 131.756 267.887 131.756C265.55 131.756 263.656 134.391 263.656 137.642C263.656 140.892 265.55 143.527 267.887 143.527Z" fill="white"/>
<path d="M245.332 141.274C246.767 141.274 247.931 139.648 247.931 137.641C247.931 135.635 246.767 134.009 245.332 134.009C243.898 134.009 242.734 135.635 242.734 137.641C242.734 139.648 243.898 141.274 245.332 141.274Z" fill="#2D2D37"/>
<path d="M266.185 141.159C267.582 141.159 268.714 139.584 268.714 137.642C268.714 135.699 267.582 134.124 266.185 134.124C264.789 134.124 263.656 135.699 263.656 137.642C263.656 139.584 264.789 141.159 266.185 141.159Z" fill="#2D2D37"/>
<path d="M302.512 138.516L301.501 139.527C300.489 140.539 300.489 142.194 301.501 143.206" stroke="#FFBED2" stroke-width="1.883" stroke-miterlimit="10" stroke-linecap="round" stroke-linejoin="round"/>
<path d="M257.218 145.276C254.735 145.345 252.689 143.391 252.62 140.908C252.551 138.424 256.023 136.884 256.989 136.309V130.906" stroke="#FFBED2" stroke-width="1.883" stroke-miterlimit="10" stroke-linecap="round" stroke-linejoin="round"/>
<path d="M234.273 109.754C245.585 99.1547 255.77 89.9811 256.069 99.2466C256.322 106.857 243.906 126.147 233.744 131.389" fill="#2D2D37"/>
<path d="M294.717 137.366C277.29 133.113 255.839 115.272 253.379 104.121C251.057 93.5908 265.633 85.6357 280.762 85.6357" fill="#2D2D37"/>
<path d="M252.988 108.26C252.988 108.26 251.287 112.076 259.196 123.25C259.908 124.262 261.012 124.974 262.23 125.273C266.3 126.216 269.335 126.722 268.139 125.457C268.139 125.457 255.908 115.019 255.034 102.259" fill="#2D2D37"/>
<path d="M253.586 110.443C253.586 110.443 255.885 113.271 249.195 123.571C248.505 124.629 247.447 125.411 246.229 125.779C244.136 126.445 242.573 126.721 243.056 126.054C243.056 126.054 251.77 116.053 252.023 104.351L255.816 104.948" fill="#2D2D37"/>
<path d="M326.285 168.474L319.732 122.606C315.157 95.2926 298.097 87.8663 291.821 85.8661C288.671 84.8545 279.36 82.1185 269.036 82.0035C267.841 81.9805 266.622 82.0725 265.427 82.2104C264.116 82.3714 262.852 82.6473 261.61 83.1761C260.622 83.5899 259.633 84.1647 258.966 85.0154C258.805 85.1993 258.667 85.4063 258.575 85.6362C257.61 85.0384 256.345 85.0844 255.264 85.2683C254.023 85.4982 252.85 86.027 251.747 86.6248C249.632 87.7744 247.654 89.2228 245.838 90.7863C244.068 92.3037 242.435 94.0051 240.964 95.8214C239.469 97.6377 238.159 99.592 236.986 101.638C236.618 102.259 236.296 102.903 235.952 103.546C235.791 103.868 235.63 104.19 235.469 104.489C235.4 104.65 235.308 104.811 235.239 104.972C235.193 105.087 235.009 105.317 235.009 105.455C231.491 113.203 229.629 120.353 229.261 124.515C228.732 130.607 228.112 140.517 227.997 145.23C227.767 154.312 226.525 165.164 225.468 176.705C225.238 179.165 226.893 181.395 229.307 181.878C237.607 183.488 248.39 184.108 260.828 184.062L261.104 180.246C260.782 180.2 260.46 180.2 260.139 180.154C247.47 178.338 237.009 168.773 234.089 156.335C233.239 152.748 233.055 149.253 233.376 145.92C233.698 142.586 233.767 139.252 233.698 135.918C233.652 131.021 234.572 126.147 236.457 121.618C239.699 113.847 244.711 105.363 250.643 103.776C251.701 103.501 252.804 104.121 253.172 105.133C254.207 108.053 257.655 114.1 268.783 116.261C280.187 118.468 283.429 135.137 294.649 137.413C296.189 143.942 295.063 161.117 291.453 177.418C290.763 180.476 293.131 183.373 296.281 183.258C301.592 183.097 311.731 181.464 319.204 179.349C323.986 177.947 326.975 173.326 326.285 168.474Z" fill="#2D2D37"/>
<path d="M271.634 152.955C267.243 155.277 253.402 155.553 248.919 153.391C248.275 153.092 247.769 154.265 248.091 155.254C249.746 160.174 254.69 163.692 260.46 163.6C266.231 163.485 271.036 159.783 272.508 154.794C272.83 153.782 272.255 152.633 271.634 152.955Z" fill="#FF7BA4"/>
<path d="M348.586 274.741L349.597 282.972C349.827 284.03 348.471 284.651 347.804 283.8L324.905 250.876L317.248 240.875C316.651 240.116 316.007 239.38 315.363 238.668L287.199 200.318C285.221 197.329 281.175 196.501 278.163 198.479C275.174 200.456 274.346 204.502 276.324 207.514L282.002 215.262C284.026 218.021 282.049 221.953 278.623 221.861C273.358 221.746 268.024 222.459 262.805 224.022L242.572 230.138C239.123 231.173 237.169 234.828 238.227 238.254C239.261 241.703 242.917 243.657 246.343 242.599L265.495 236.805C266.092 236.622 266.736 236.966 266.897 237.564C267.081 238.162 266.736 238.806 266.138 238.967L244.251 245.588C240.802 246.623 238.848 250.278 239.905 253.704C240.94 257.153 244.595 259.107 248.021 258.05L269.909 251.428C270.507 251.244 271.15 251.589 271.311 252.187C271.495 252.784 271.15 253.428 270.553 253.589L255.057 258.279C251.608 259.314 249.654 262.97 250.711 266.395C251.746 269.844 255.401 271.798 258.827 270.741L275.404 265.729L281.887 263.774L321.962 317.115C332.216 329.99 349.275 335.324 365.025 330.565C384.084 324.794 395.603 305.458 391.626 285.961L383.717 248.761L353.023 258.992C353.023 258.992 350.356 259.521 349.965 262.947C349.643 266.441 348.586 274.741 348.586 274.741Z" fill="#FFE4EE"/>
<path d="M350.771 286.214L354.173 290.513" stroke="#FFBED2" stroke-width="1.883" stroke-miterlimit="10" stroke-linecap="round" stroke-linejoin="round"/>
<path d="M383.809 248.83L353.092 259.061C353.092 259.061 350.425 259.59 350.034 263.016C349.942 263.752 349.827 264.74 349.689 265.798L384.82 253.497L383.809 248.83Z" fill="#FFCDDC"/>
</g>
</svg>
