<svg width="382" height="348" viewBox="0 0 382 348" fill="none" xmlns="http://www.w3.org/2000/svg">
<mask id="mask0" mask-type="alpha" maskUnits="userSpaceOnUse" x="0" y="0" width="382" height="348">
<path d="M382 348L3.05176e-05 348L2.19259e-06 24C1.03382e-06 10.7452 10.7452 2.02057e-06 24 8.61793e-07L358 -2.83374e-05C371.255 -2.94962e-05 382 10.7451 382 24L382 348Z" fill="#646EDC"/>
</mask>
<g mask="url(#mask0)">
<g filter="url(#filter0_d)">
<path d="M264.857 44.0571C268.083 38.6476 275.917 38.6476 279.143 44.0571V44.0571C281.803 48.5177 287.856 49.4762 291.764 46.0561V46.0561C296.504 41.9082 303.955 44.3292 305.352 50.4709V50.4709C306.503 55.5351 311.963 58.3171 316.737 56.272V56.272C322.526 53.7918 328.865 58.3969 328.295 64.6695V64.6695C327.825 69.8418 332.158 74.1747 337.33 73.7049V73.7049C343.603 73.1352 348.208 79.4736 345.728 85.2632V85.2632C343.683 90.0371 346.465 95.4969 351.529 96.6484V96.6484C357.671 98.045 360.092 105.496 355.944 110.236V110.236C352.524 114.144 353.482 120.197 357.943 122.857V122.857C363.352 126.083 363.352 133.917 357.943 137.143V137.143C353.482 139.803 352.524 145.856 355.944 149.764V149.764C360.092 154.504 357.671 161.955 351.529 163.352V163.352C346.465 164.503 343.683 169.963 345.728 174.737V174.737C348.208 180.526 343.603 186.865 337.33 186.295V186.295C332.158 185.825 327.825 190.158 328.295 195.33V195.33C328.865 201.603 322.526 206.208 316.737 203.728V203.728C311.963 201.683 306.503 204.465 305.352 209.529V209.529C303.955 215.671 296.504 218.092 291.764 213.944V213.944C287.856 210.524 281.803 211.482 279.143 215.943V215.943C275.917 221.352 268.083 221.352 264.857 215.943V215.943C262.197 211.482 256.144 210.524 252.236 213.944V213.944C247.496 218.092 240.045 215.671 238.648 209.529V209.529C237.497 204.465 232.037 201.683 227.263 203.728V203.728C221.474 206.208 215.135 201.603 215.705 195.33V195.33C216.175 190.158 211.842 185.825 206.67 186.295V186.295C200.397 186.865 195.792 180.526 198.272 174.737V174.737C200.317 169.963 197.535 164.503 192.471 163.352V163.352C186.329 161.955 183.908 154.504 188.056 149.764V149.764C191.476 145.856 190.518 139.803 186.057 137.143V137.143C180.648 133.917 180.648 126.083 186.057 122.857V122.857C190.518 120.197 191.476 114.144 188.056 110.236V110.236C183.908 105.496 186.329 98.045 192.471 96.6484V96.6484C197.535 95.4969 200.317 90.0371 198.272 85.2632V85.2632C195.792 79.4736 200.397 73.1352 206.67 73.7049V73.7049C211.842 74.1747 216.175 69.8418 215.705 64.6695V64.6695C215.135 58.3969 221.474 53.7918 227.263 56.272V56.272C232.037 58.3171 237.497 55.5351 238.648 50.4709V50.4709C240.045 44.3292 247.496 41.9082 252.236 46.0561V46.0561C256.144 49.4762 262.197 48.5177 264.857 44.0571V44.0571Z" fill="#BEFAFF"/>
<path d="M118.105 236.588L95.3316 237.96C92.0391 238.235 89.2952 235.765 89.0208 232.473C88.7465 229.18 91.2158 226.436 94.5083 226.162L122.769 224.516C127.708 224.242 132.646 224.79 137.311 225.888C140.329 226.711 143.073 223.693 141.701 220.675L138.408 212.443C137.311 209.425 138.957 205.858 141.975 204.761C144.993 203.663 148.56 205.31 149.658 208.328L166.669 248.661C167.218 249.484 167.492 250.307 167.766 251.13L172.431 261.556L185.875 295.853C186.149 296.676 187.521 296.402 187.521 295.579L188.344 259.91L225.934 262.654L224.562 307.102C224.013 325.486 209.471 340.302 191.363 341.125C176.272 341.948 162.279 333.717 155.694 319.998L133.744 269.239C132.372 265.946 129.08 264.026 125.513 264.3C122.769 264.575 120.025 263.203 118.379 261.008L114.538 256.069L121.397 250.856L118.105 236.588Z" fill="#FFE5EF"/>
<path d="M124.141 248.112L111.519 248.935C108.227 249.209 105.483 246.74 105.209 243.448C104.934 240.155 107.404 237.411 110.696 237.137L123.317 236.314C126.61 236.039 129.354 238.509 129.628 241.801C130.177 245.094 127.433 247.838 124.141 248.112Z" fill="#FFE5EF"/>
<path d="M128.256 259.909L115.635 260.733C112.342 261.007 109.599 258.538 109.324 255.245C109.05 251.953 111.519 249.209 114.812 248.935L127.433 248.111C130.725 247.837 133.469 250.306 133.744 253.599C134.018 256.891 131.549 259.635 128.256 259.909Z" fill="#FFE5EF"/>
<path d="M110.971 236.862L123.593 236.039C126.885 235.765 129.629 238.234 129.903 241.527C130.178 244.819 127.708 247.563 124.416 247.837" stroke="#FFBED7" stroke-width="0.6298" stroke-miterlimit="10" stroke-linecap="round" stroke-linejoin="round"/>
<path d="M116.734 248.385L127.434 247.837C130.727 247.562 133.47 250.032 133.745 253.324C134.019 256.617 131.55 259.36 128.257 259.635" stroke="#FFBED7" stroke-width="0.6298" stroke-miterlimit="10" stroke-linecap="round" stroke-linejoin="round"/>
<path d="M142.798 232.747C142.798 232.747 139.78 252.502 148.011 256.343" stroke="#FFBED7" stroke-width="0.6298" stroke-miterlimit="10" stroke-linecap="round" stroke-linejoin="round"/>
<path d="M188.619 259.91L226.208 262.653L225.385 283.78C216.33 278.018 202.337 273.08 188.344 270.61L188.619 259.91Z" fill="#FFD0DD"/>
<path d="M255.018 208.327L256.115 204.212C256.39 202.291 258.036 200.919 259.957 200.645L294.802 198.45C296.723 198.45 298.643 199.547 299.192 201.468L300.838 205.858C338.428 209.974 371.901 228.357 375.468 252.502C375.742 254.422 374.645 256.343 372.724 256.892L344.464 266.22C342.817 266.769 341.994 268.141 341.72 269.513L341.446 272.257C336.781 302.163 343.915 328.229 340.897 343.045C341.171 344.966 343.366 348.258 339.251 347.984H241.025C238.638 347.984 234.638 347.984 231.97 347.984C231.696 347.984 231.422 347.984 231.422 347.984C228.129 347.161 228.952 345.789 229.227 344.417C229.227 343.32 230.324 337.558 230.324 336.735C230.324 332.345 231.147 307.651 225.66 279.116C225.66 277.195 224.288 275.549 222.367 275.275L186.973 268.141C185.052 267.867 183.681 265.946 183.681 264.025C184.778 238.783 217.154 216.284 255.018 208.327Z" fill="#28D2DC"/>
<path d="M275.321 227.533C276.23 227.533 276.967 226.796 276.967 225.887C276.967 224.978 276.23 224.241 275.321 224.241C274.412 224.241 273.675 224.978 273.675 225.887C273.675 226.796 274.412 227.533 275.321 227.533Z" fill="#E5E5E5"/>
<path d="M275.321 232.198C276.23 232.198 276.967 231.461 276.967 230.552C276.967 229.643 276.23 228.906 275.321 228.906C274.412 228.906 273.675 229.643 273.675 230.552C273.675 231.461 274.412 232.198 275.321 232.198Z" fill="#E5E5E5"/>
<path opacity="0.5" d="M255.566 214.912L262.699 229.454" stroke="white" stroke-width="0.6298" stroke-miterlimit="10" stroke-linecap="round" stroke-linejoin="round"/>
<path opacity="0.5" d="M267.639 227.26L270.658 223.693C272.578 221.498 276.145 221.224 278.614 223.144L285.474 229.18C286.297 229.729 287.394 229.729 287.943 228.906L300.016 214.09" stroke="white" stroke-width="0.6298" stroke-miterlimit="10" stroke-linecap="round" stroke-linejoin="round"/>
<path d="M286.022 184.731C280.26 189.396 272.303 202.84 270.383 214.364C264.072 213.541 259.408 211.346 259.133 205.035C259.133 203.938 259.133 202.84 259.133 202.291V202.017L260.505 185.554L286.022 184.731Z" fill="#FFD0DD"/>
<path d="M292.881 164.428H262.151L259.407 202.017C258.036 212.718 266.541 214.364 277.516 214.364C288.491 214.364 296.723 212.718 295.625 202.017L292.881 164.428Z" fill="#FFDBE5"/>
<path d="M286.023 182.81C280.261 187.474 272.304 202.839 270.658 214.363C264.347 213.54 259.957 211.345 259.408 205.034C259.408 203.937 259.408 202.839 259.408 202.291C259.408 202.291 259.408 202.291 259.408 202.016L260.78 183.359L286.023 182.81Z" fill="#FFD0DD"/>
<path d="M234.988 143.027C234.988 122.998 251.725 106.809 272.028 107.907C289.863 108.73 304.679 123.546 305.502 141.381C305.776 149.612 303.307 157.294 298.917 163.331C295.076 168.818 291.509 174.58 287.942 180.067C282.18 189.122 271.48 194.609 259.682 192.963C248.158 191.317 238.829 182.537 236.085 171.287C235.262 167.995 235.262 164.977 235.536 161.959C236.085 156.197 235.811 150.435 235.536 144.673C234.988 144.399 234.988 143.576 234.988 143.027Z" fill="#FFE5EF"/>
<path d="M269.01 156.196C270.98 156.196 272.577 153.862 272.577 150.983C272.577 148.104 270.98 145.77 269.01 145.77C267.04 145.77 265.443 148.104 265.443 150.983C265.443 153.862 267.04 156.196 269.01 156.196Z" fill="white"/>
<path d="M267.913 154.825C269.277 154.825 270.382 153.228 270.382 151.258C270.382 149.288 269.277 147.691 267.913 147.691C266.549 147.691 265.443 149.288 265.443 151.258C265.443 153.228 266.549 154.825 267.913 154.825Z" fill="#333333"/>
<path d="M248.982 156.196C250.952 156.196 252.548 153.862 252.548 150.983C252.548 148.104 250.952 145.77 248.982 145.77C247.012 145.77 245.415 148.104 245.415 150.983C245.415 153.862 247.012 156.196 248.982 156.196Z" fill="white"/>
<path d="M247.884 154.825C249.248 154.825 250.354 153.228 250.354 151.258C250.354 149.288 249.248 147.691 247.884 147.691C246.52 147.691 245.415 149.288 245.415 151.258C245.415 153.228 246.52 154.825 247.884 154.825Z" fill="#333333"/>
<path d="M329.099 136.99C329.099 134.247 328.001 132.052 326.355 130.131C327.453 128.485 328.001 126.839 328.001 124.918C328.001 122.449 327.178 120.254 325.532 118.607C325.807 117.51 326.081 116.412 326.081 115.315C326.081 110.651 322.788 106.809 318.398 105.986C318.398 105.712 318.398 105.437 318.398 105.163C318.398 101.047 315.929 97.4806 312.088 96.1087C311.265 92.2675 308.246 89.2493 304.405 88.7006C303.033 85.1337 299.467 82.39 295.351 82.39C292.882 82.39 290.961 83.2131 289.04 84.585C287.668 81.2925 284.102 78.8231 280.26 78.8231C277.791 78.8231 275.596 79.9206 273.675 81.2925C272.029 79.0975 269.285 78 266.267 78C262.7 78 259.682 79.9206 258.036 82.6644C256.39 81.0181 253.92 79.9206 251.176 79.9206C248.158 79.9206 245.415 81.2925 243.769 83.4875C241.299 83.2131 238.83 83.7619 236.909 85.1337C235.263 86.2312 234.165 87.8775 233.617 89.5237C228.678 89.7981 224.837 93.9137 224.837 99.1268C224.837 99.4012 224.837 99.6756 224.837 99.9499C224.288 100.224 223.465 100.499 222.916 101.047C219.075 103.791 217.977 109.004 219.898 113.12C218.526 115.589 217.977 118.607 219.075 121.351C217.703 122.997 216.605 125.192 216.605 127.662C216.605 129.857 217.429 132.052 218.801 133.698C218.526 134.521 218.526 135.344 218.526 136.167C218.526 137.539 218.8 138.911 219.349 140.283C218.8 141.38 218.526 142.752 218.526 144.399C218.526 146.594 219.349 148.514 220.447 150.16C220.447 150.435 220.447 150.709 220.447 150.984C220.447 154.002 221.819 156.471 224.014 158.392C224.837 160.861 226.483 162.782 228.952 163.879C229.775 166.074 231.422 167.995 233.342 169.092C233.891 170.19 234.44 171.013 235.263 171.836C234.44 168.818 234.44 165.525 234.714 162.782C235.263 157.02 234.989 151.258 234.714 145.496C234.714 144.947 234.714 137.265 240.202 135.893C241.299 135.619 242.671 135.07 243.494 134.247C244.317 134.795 245.415 135.07 246.787 135.07C248.433 135.07 250.079 134.247 251.176 133.149C252.548 133.972 254.195 134.521 256.115 134.521C258.036 134.521 259.957 133.972 261.603 132.875C262.7 133.424 264.072 133.698 265.444 133.698C266.267 133.698 267.09 133.698 267.914 133.424C269.56 134.521 271.48 135.344 273.675 135.344C274.773 135.344 275.596 135.07 276.693 134.795C276.693 135.07 276.693 135.07 276.693 135.344C276.693 139.46 279.437 143.027 283.004 144.399C282.73 145.496 282.455 146.319 282.455 147.417C282.455 147.691 282.455 147.965 282.455 148.24C282.73 151.532 284.65 154.276 287.394 155.648L287.668 155.922C290.686 157.568 292.607 160.312 292.882 163.879L294.802 188.847C296.174 188.024 297.272 186.927 298.369 185.829C303.033 185.28 306.6 181.165 306.6 176.5C310.441 175.952 313.734 172.933 314.557 169.092C318.124 167.72 320.593 164.153 320.593 160.312C325.258 159.763 328.824 155.648 328.824 150.984C328.824 148.789 328.002 146.868 326.904 145.222C328.002 141.929 329.099 139.46 329.099 136.99Z" fill="#333333"/>
<path d="M286.844 152.355C286.844 148.788 289.588 145.77 292.881 145.77C295.899 146.044 298.368 148.788 298.368 152.08C298.368 153.727 298.094 155.098 297.27 156.196C296.722 157.293 296.173 158.116 295.35 159.214C294.527 160.86 292.606 161.958 290.685 161.683C288.765 161.409 287.118 159.763 286.844 157.568C286.844 157.019 286.57 156.47 286.844 155.921C286.844 154.824 286.844 153.727 286.844 152.629C286.844 152.629 286.844 152.629 286.844 152.355Z" fill="#FFE5EF"/>
<path d="M340.623 281.037L341.446 288.719C341.72 289.816 340.348 290.365 339.799 289.542L318.673 259.361L311.539 250.307C310.99 249.483 310.441 248.935 309.893 248.386L284.101 213.266C282.181 210.522 278.614 209.699 275.87 211.62C273.126 213.54 272.303 217.107 274.224 219.851L279.437 226.985C281.358 229.454 279.437 233.021 276.419 233.021C271.48 233.021 266.816 233.57 261.877 234.942L243.22 240.429C239.927 241.252 238.281 244.819 239.104 247.837C239.927 251.13 243.494 252.776 246.512 251.953L264.072 246.74C264.621 246.465 265.17 247.014 265.444 247.563C265.718 248.112 265.17 248.66 264.621 248.935L244.592 254.971C241.299 255.794 239.653 259.361 240.476 262.379C241.299 265.672 244.866 267.318 247.884 266.495L267.913 260.458C268.462 260.184 269.011 260.733 269.285 261.282C269.56 261.83 269.011 262.379 268.462 262.653L254.195 267.043C250.902 267.867 249.256 271.433 250.079 274.452C250.902 277.744 254.469 279.39 257.487 278.567L272.578 273.903L278.614 271.982L315.38 320.821C324.709 332.619 340.348 337.558 354.89 333.168C372.45 327.954 382.876 310.12 379.309 292.286L372.176 258.263L343.915 267.592C343.915 267.592 341.446 268.141 341.171 271.159C341.446 273.354 340.623 281.037 340.623 281.037Z" fill="#FFE5EF"/>
<path d="M342.543 291.463L345.561 295.304" stroke="#FFBED7" stroke-width="0.6298" stroke-miterlimit="10" stroke-linecap="round" stroke-linejoin="round"/>
<path d="M256.114 166.348C254.194 166.348 252.822 169.091 252.822 172.658C252.822 176.225 254.194 178.969 256.114 178.969C258.035 178.969 259.407 176.225 259.407 172.658C259.407 169.091 258.035 166.348 256.114 166.348Z" fill="#FF97BF"/>
<path d="M187.796 299.146L188.345 304.359" stroke="#FFBED7" stroke-width="0.6298" stroke-miterlimit="10" stroke-linecap="round" stroke-linejoin="round"/>
<path d="M293.979 152.356L293.155 153.179C292.332 154.002 292.332 155.648 293.155 156.471" stroke="#FFBED7" stroke-width="0.6298" stroke-miterlimit="10" stroke-linecap="round" stroke-linejoin="round"/>
<path d="M257.761 159.489C255.566 159.489 253.646 157.843 253.646 155.373C253.646 153.178 256.664 151.806 257.761 151.258V146.319" stroke="#FFBED7" stroke-width="0.6298" stroke-miterlimit="10" stroke-linecap="round" stroke-linejoin="round"/>
<path d="M372.724 257.166L344.464 266.494C344.464 266.494 341.994 267.043 341.72 270.061C341.72 270.61 341.446 271.708 341.446 272.531L373.822 261.281L372.724 257.166Z" fill="#FFD0DD"/>
</g>
</g>
<defs>
<filter id="filter0_d" x="73" y="28" width="323.006" height="340" filterUnits="userSpaceOnUse" color-interpolation-filters="sRGB">
<feFlood flood-opacity="0" result="BackgroundImageFix"/>
<feColorMatrix in="SourceAlpha" type="matrix" values="0 0 0 0 0 0 0 0 0 0 0 0 0 0 0 0 0 0 127 0"/>
<feOffset dy="4"/>
<feGaussianBlur stdDeviation="8"/>
<feColorMatrix type="matrix" values="0 0 0 0 0 0 0 0 0 0 0 0 0 0 0 0 0 0 0.08 0"/>
<feBlend mode="normal" in2="BackgroundImageFix" result="effect1_dropShadow"/>
<feBlend mode="normal" in="SourceGraphic" in2="effect1_dropShadow" result="shape"/>
</filter>
</defs>
</svg>
