<svg width="382" height="348" viewBox="0 0 382 348" fill="none" xmlns="http://www.w3.org/2000/svg">
<mask id="mask0" mask-type="alpha" maskUnits="userSpaceOnUse" x="0" y="0" width="382" height="348">
<path d="M382 324C382 337.255 371.255 348 358 348L24 348C10.7452 348 2.95782e-05 337.255 2.84194e-05 324L2.19259e-06 24C1.03382e-06 10.7452 10.7452 1.93855e-06 24 7.79773e-07L358 -2.84194e-05C371.255 -2.95782e-05 382 10.7451 382 24L382 324Z" fill="#3C6EE6"/>
</mask>
<g mask="url(#mask0)">
<path d="M317.932 140.66H284.725L281.725 181.516C280.373 193.242 289.511 195.005 301.328 195.005C313.123 195.005 322.283 193.242 320.932 181.516L317.932 140.66Z" fill="#FFDAE4"/>
<path d="M310.329 160.471C304.054 165.463 295.58 182.204 293.725 194.64C286.855 193.792 282 191.296 281.61 184.586C281.633 183.326 281.656 182.296 281.702 181.746C281.702 181.677 281.702 181.609 281.725 181.517L283.191 161.432L310.329 160.471Z" fill="#FFCDDC"/>
<path d="M255.067 117.369C255.067 95.6814 273.182 78.2076 295.099 79.2611C314.543 80.2 330.482 96.2311 331.329 115.674C331.719 124.606 329.016 132.896 324.207 139.561C319.947 145.469 316.146 151.676 312.229 157.813C305.977 167.638 294.366 173.707 281.496 171.875C269.06 170.088 258.777 160.63 255.915 148.401C255.09 144.874 254.907 141.439 255.228 138.164C255.846 131.98 255.502 125.751 255.136 119.545C255.067 118.835 255.067 118.102 255.067 117.369Z" fill="#FFE4EE"/>
<path d="M289.282 136.492C291.457 136.492 293.221 134.052 293.221 131.041C293.221 128.031 291.457 125.591 289.282 125.591C287.106 125.591 285.343 128.031 285.343 131.041C285.343 134.052 287.106 136.492 289.282 136.492Z" fill="white"/>
<path d="M288 135.142C289.48 135.142 290.679 133.347 290.679 131.134C290.679 128.92 289.48 127.126 288 127.126C286.52 127.126 285.32 128.92 285.32 131.134C285.32 133.347 286.52 135.142 288 135.142Z" fill="#2D2D37"/>
<path d="M267.572 136.492C269.747 136.492 271.511 134.052 271.511 131.041C271.511 128.031 269.747 125.591 267.572 125.591C265.396 125.591 263.633 128.031 263.633 131.041C263.633 134.052 265.396 136.492 267.572 136.492Z" fill="white"/>
<path d="M266.312 135.142C267.792 135.142 268.992 133.347 268.992 131.134C268.992 128.92 267.792 127.126 266.312 127.126C264.832 127.126 263.633 128.92 263.633 131.134C263.633 133.347 264.832 135.142 266.312 135.142Z" fill="#2D2D37"/>
<path d="M265.923 164.753C257.175 164.707 247.442 162.417 236.815 160.127C242.953 155.982 250.694 131.546 252.091 108.667C252.434 103.01 253.556 97.3995 255.641 92.1321C259.9 81.2997 269.221 68.1542 289.329 70.2153C290.382 70.3756 291.206 70.765 291.848 71.3604C292.695 70.7879 293.68 70.4443 294.688 70.3069C308.039 68.5893 323.429 74.6811 331.33 93.8268C337.262 108.209 343.811 127.927 346.972 139.332C348.598 145.195 346.491 151.516 341.544 155.043C331.857 161.982 319.879 163.585 304.146 165.234C308.612 159.485 309.345 137.248 303.917 115.24C299.428 116.293 290.611 117.255 287.199 117.278C286.443 114.369 285.252 109.858 286.924 107.178C286.924 107.178 283.924 112.308 284.038 117.53C281.771 117.667 279.504 117.667 277.214 117.553C276.504 114.69 276.733 109.331 278.313 106.766C278.313 106.766 274.466 112.491 274.191 117.347C272.175 117.14 270.137 116.843 268.099 116.431C267.274 113.499 268.007 109.285 269.794 106.4C269.794 106.4 265.328 110.705 265.259 115.789C264.389 115.766 263.106 115.446 262.305 115.217C260.725 114.759 258.435 112.927 257.015 111.003C255.732 114.827 255.022 116.087 255.022 120.347C255.022 121.08 255.045 121.812 255.091 122.522C255.457 128.729 255.801 131.981 255.182 138.164C254.862 141.439 255.045 144.874 255.87 148.401C257.427 154.882 261.022 160.562 265.923 164.753Z" fill="#2D2D37"/>
<path d="M276.893 146.226C274.9 146.226 273.274 149.272 273.274 153.004C273.274 156.737 274.9 159.783 276.893 159.783C278.885 159.783 280.511 156.737 280.511 153.004C280.511 149.272 278.885 146.226 276.893 146.226Z" fill="#FF7BA4"/>
<path d="M278.954 141.668H276.732C274.282 141.668 272.312 139.676 272.312 137.248C272.312 134.798 274.145 132.599 276.732 131.866V127.744" stroke="#FFBED2" stroke-width="1.87563" stroke-miterlimit="10" stroke-linecap="round" stroke-linejoin="round"/>
<path d="M91.2529 187.929V198.235C91.2529 202.013 94.3218 205.082 98.1006 205.082C98.1464 205.082 98.1922 205.082 98.2609 205.082L104.124 211.907L97.5508 228.304C103.368 231.625 112.093 235.724 120.727 235.724H236.792V190.975H156.316C146.537 190.975 131.125 186.83 122.262 182.662C115.689 179.57 108.383 177.005 101.055 177.074C95.6273 177.119 91.2529 182.524 91.2529 187.929Z" fill="#FFE4EE"/>
<path d="M102.841 201.464H64.8474C61.0687 201.464 58 198.395 58 194.616C58 190.837 61.0687 187.769 64.8474 187.769H102.841C106.62 187.769 109.689 190.837 109.689 194.616C109.689 198.418 106.62 201.464 102.841 201.464Z" fill="#FFE4EE"/>
<path d="M108.063 228.854H90.5892C86.7876 228.854 83.7188 225.762 83.7188 221.983V221.914C83.7188 218.113 86.8105 215.044 90.5892 215.044H108.063C111.865 215.044 114.933 218.136 114.933 221.914V221.983C114.956 225.762 111.865 228.854 108.063 228.854Z" fill="#FFE4EE"/>
<path d="M103.322 215.159H85.7793C82.0005 215.159 78.9316 212.09 78.9316 208.311C78.9316 204.533 82.0005 201.464 85.7793 201.464H103.322C107.101 201.464 110.169 204.533 110.169 208.311C110.169 212.09 107.101 215.159 103.322 215.159Z" fill="#FFE4EE"/>
<path d="M105.956 201.99C108.429 203.021 110.17 205.471 110.17 208.311C110.17 212.09 107.101 215.159 103.322 215.159H94.0244H108.086C111.865 215.159 114.933 218.227 114.933 222.006C114.933 224.686 113.399 226.999 111.155 228.121" stroke="#FFBED2" stroke-width="1.4166" stroke-miterlimit="10" stroke-linecap="round" stroke-linejoin="round"/>
<path d="M123.453 203.204C108.223 203.204 104.948 189.921 104.948 189.921V198.257C104.948 202.036 101.879 205.105 98.1006 205.105C94.3218 205.105 91.2529 202.036 91.2529 198.257V193.219" stroke="#FFBED2" stroke-width="1.4166" stroke-miterlimit="10" stroke-linecap="round" stroke-linejoin="round"/>
<path d="M227.7 190.998V235.725H230.815V190.998H227.7Z" fill="#FFCDDC"/>
<path d="M279.366 237.007H232.028C231.25 237.007 230.608 236.366 230.608 235.588V190.93C230.608 190.151 231.25 189.51 232.028 189.51H279.366C292.488 189.51 303.115 200.136 303.115 213.259C303.115 226.358 292.488 237.007 279.366 237.007Z" fill="#FFD25F"/>
<path d="M239.356 237.006H260.334L273.09 194.639C273.09 194.639 250.166 205.815 239.356 237.006Z" fill="#FFB428"/>
<path d="M343.582 193.792L322.81 183.692C312.001 178.425 299.451 177.967 288.275 182.455C270.641 189.509 257.908 205.174 254.61 223.884L233.998 340.407C233.288 344.438 236.38 348.125 240.456 348.125H355.582C359.544 348.125 362.59 344.667 362.109 340.728L343.582 193.792Z" fill="#FFD25F"/>
<path d="M351.369 255.604L301.191 223.977C301.191 223.977 307.329 258.466 353.75 274.52L351.369 255.604Z" fill="#FFB428"/>
<path d="M359.979 262.61C361.009 263.183 360.918 264.717 359.796 265.129L333.894 274.839C325.581 277.565 316.649 277.954 308.107 275.939C299.038 273.786 289.511 274.633 280.785 277.931C275.61 279.878 273.045 285.718 274.991 290.916L276.388 294.626C276.388 294.626 272.632 296.481 269.815 298.451C267.021 300.443 264.823 303.97 266.128 307.451C267.365 310.772 270.938 312.49 274.281 311.528C271.441 313.154 270.09 316.635 271.281 319.818L271.35 319.978C272.678 323.505 276.594 325.291 280.121 323.963L282.48 323.07C279.892 324.765 278.701 328.063 279.846 331.086C280.831 333.696 283.236 335.322 285.846 335.437C292.35 336.49 301.053 335.299 309.023 332.299L398.133 298.771C412.721 293.275 422.385 279.328 422.385 263.732C422.385 250.701 415.606 238.609 404.476 231.807L341.68 193.379C327.665 184.287 308.84 189.646 301.717 204.784C297.824 217.563 303.412 231.327 315.092 237.785L359.979 262.61Z" fill="#FFE4EE"/>
<path d="M364.33 264.442L369.941 264.671" stroke="#FFBED2" stroke-width="1.87563" stroke-miterlimit="10" stroke-linecap="round" stroke-linejoin="round"/>
<path d="M278.815 294.626L293.472 289.13C293.472 289.13 287.839 290.825 286.533 287.344L287.976 291.191" stroke="#FFBED2" stroke-width="1.87563" stroke-miterlimit="10" stroke-linecap="round" stroke-linejoin="round"/>
<path d="M284.816 322.04L287.336 321.101" stroke="#FFBED2" stroke-width="1.87563" stroke-miterlimit="10" stroke-linecap="round" stroke-linejoin="round"/>
<path d="M276.869 310.52L279.388 309.581" stroke="#FFBED2" stroke-width="1.87563" stroke-miterlimit="10" stroke-linecap="round" stroke-linejoin="round"/>
<path d="M366.483 208.54L338.383 250.656L348.574 256.29L374.155 213.235L366.483 208.54Z" fill="#FFCDDC"/>
<path d="M318.413 189.279C310.443 191.547 303.824 197.158 300.298 204.669L300.252 204.829C296.221 218.044 302.084 232.495 314.176 239.159L343.948 255.625C344.612 255.992 345.459 255.762 345.849 255.098L371.567 211.906C371.979 211.219 371.75 210.349 371.063 209.96L341.909 192.806C334.97 188.295 326.382 187.012 318.413 189.279Z" fill="#FFD25F"/>
</g>
</svg>
