<svg width="382" height="348" viewBox="0 0 382 348" fill="none" xmlns="http://www.w3.org/2000/svg">
<mask id="mask0" mask-type="alpha" maskUnits="userSpaceOnUse" x="0" y="0" width="382" height="348">
<path d="M382 348L3.05176e-05 348L2.19259e-06 24C1.03382e-06 10.7452 10.7452 2.02057e-06 24 8.61793e-07L358 -2.83374e-05C371.255 -2.94962e-05 382 10.7451 382 24L382 348Z" fill="#78CD69"/>
</mask>
<g mask="url(#mask0)">
<g filter="url(#filter0_d)">
<path d="M272 210C321.706 210 362 169.706 362 120C362 70.2944 321.706 30 272 30C222.294 30 182 70.2944 182 120C182 169.706 222.294 210 272 210Z" fill="#D2DCFF"/>
<path d="M371.861 251.355L374.783 285.832C374.783 286.709 376.244 287.001 376.536 286.124L387.639 251.94L391.729 241.421C392.022 240.545 392.314 239.96 392.898 239.084L407.215 198.763C408.091 195.549 411.305 193.796 414.519 194.965C417.733 196.134 419.486 199.055 418.317 202.269L415.396 210.45C414.519 213.372 417.149 216.294 420.07 215.125C424.453 213.664 429.42 212.788 434.095 212.788H453.087C456.301 212.788 458.93 215.417 458.93 218.631C458.93 221.845 456.301 224.475 453.087 224.475H435.264C434.68 224.475 434.387 225.059 434.387 225.351C434.387 225.936 434.972 226.228 435.264 226.228H455.716C458.93 226.228 461.56 228.857 461.56 232.071C461.56 235.285 458.93 237.915 455.716 237.915H435.264C434.68 237.915 434.387 238.499 434.387 238.792C434.387 239.376 434.972 239.668 435.264 239.668H449.873C453.087 239.668 455.716 242.298 455.716 245.512C455.716 248.726 453.087 251.355 449.873 251.355H434.387H428.252L407.799 307.453C402.248 321.186 389.1 330.243 374.491 330.243C356.668 330.243 341.767 316.511 340.014 298.98L335.923 255.738L371.861 251.355Z" fill="#FFE5EF"/>
<path d="M371.861 251.355L335.631 256.322L337.092 270.931C349.072 265.672 361.051 260.705 372.738 258.075L371.861 251.355Z" fill="#FFD0DD"/>
<path d="M183.699 251.355L180.777 285.832C180.777 286.709 179.316 287.001 179.024 286.124L167.921 251.94L163.831 241.421C163.538 240.545 163.246 239.96 162.662 239.084L148.345 198.763C147.468 195.549 144.255 193.796 141.041 194.965C137.827 196.134 136.074 199.055 137.242 202.269L140.164 210.45C141.041 213.372 138.411 216.294 135.489 215.125C131.107 213.664 126.14 212.788 121.465 212.788H102.473C99.2593 212.788 96.6297 215.417 96.6297 218.631C96.6297 221.845 99.2593 224.475 102.473 224.475H120.296C120.88 224.475 121.173 225.059 121.173 225.351C121.173 225.936 120.588 226.228 120.296 226.228H99.8436C96.6296 226.228 94 228.857 94 232.071C94 235.285 96.6296 237.915 99.8436 237.915H120.296C120.88 237.915 121.173 238.499 121.173 238.792C121.173 239.376 120.588 239.668 120.296 239.668H105.687C102.473 239.668 99.8436 242.298 99.8436 245.512C99.8436 248.726 102.473 251.355 105.687 251.355H121.173H127.308L147.761 307.453C153.312 321.186 166.46 330.243 181.069 330.243C198.892 330.243 213.793 316.511 215.546 298.98L219.636 255.738L183.699 251.355Z" fill="#FFE5EF"/>
<path d="M135.49 244.927C137.243 239.96 135.197 228.858 132.568 223.891" stroke="#333333" stroke-width="0.3384" stroke-miterlimit="10" stroke-linecap="round" stroke-linejoin="round"/>
<path d="M140.749 222.137C140.456 228.565 145.131 232.948 150.391 232.071" stroke="#333333" stroke-width="0.3384" stroke-miterlimit="10" stroke-linecap="round" stroke-linejoin="round"/>
<path d="M140.749 222.137C140.456 228.565 145.131 232.948 150.391 232.071" stroke="#FFBED7" stroke-width="0.6709" stroke-miterlimit="10" stroke-linecap="round" stroke-linejoin="round"/>
<path d="M135.49 244.927C137.243 239.96 135.197 228.858 132.568 223.891" stroke="#FFBED7" stroke-width="0.6709" stroke-miterlimit="10" stroke-linecap="round" stroke-linejoin="round"/>
<path d="M183.699 251.355L219.929 256.322L218.468 270.931C206.488 265.672 194.509 260.705 182.822 258.075L183.699 251.355Z" fill="#FFD0DD"/>
<path d="M377.12 246.096C373.906 218.923 344.397 196.426 305.245 188.829C302.907 188.537 301.154 186.492 300.57 184.154C300.278 182.109 298.817 180.356 296.771 179.771C283.916 175.389 271.352 175.389 258.496 179.771C256.451 180.356 255.282 182.109 254.698 184.154C254.113 186.492 252.36 188.245 250.023 188.829C208.242 196.718 177.855 221.553 177.855 251.063L210.579 259.536C213.209 260.12 214.962 262.75 214.962 265.38L208.534 351.864C208.242 355.078 210.871 358 214.085 358H340.598C344.104 358 346.734 355.078 346.15 351.864L337.676 265.672C337.384 262.75 339.137 260.12 342.059 259.536L372.446 251.939C375.66 251.647 377.413 249.018 377.12 246.096Z" fill="#5A87FA"/>
<path opacity="0.5" d="M300.57 195.256L292.097 206.651C290.636 208.404 288.006 208.697 286.545 207.236L280.41 201.392C278.949 199.931 276.611 199.931 275.15 201.392L269.015 207.236C267.261 208.697 264.632 208.697 263.463 206.651L254.99 195.256" stroke="white" stroke-width="0.6298" stroke-miterlimit="10" stroke-linecap="round" stroke-linejoin="round"/>
<path d="M277.78 210.159C278.748 210.159 279.533 209.374 279.533 208.406C279.533 207.437 278.748 206.653 277.78 206.653C276.812 206.653 276.027 207.437 276.027 208.406C276.027 209.374 276.812 210.159 277.78 210.159Z" fill="#E5E5E5"/>
<path d="M277.78 215.71C278.748 215.71 279.533 214.925 279.533 213.957C279.533 212.988 278.748 212.204 277.78 212.204C276.812 212.204 276.027 212.988 276.027 213.957C276.027 214.925 276.812 215.71 277.78 215.71Z" fill="#E5E5E5"/>
<path d="M293.85 139.452H261.418L258.496 179.188C257.035 190.583 266.093 192.336 277.488 192.336C288.883 192.336 297.94 190.583 296.479 179.188L293.85 139.452Z" fill="#FFDBE5"/>
<path d="M286.545 158.736C280.41 163.703 272.229 179.772 270.476 192.044C263.755 191.167 259.081 188.83 258.788 182.402C258.788 181.233 258.788 180.065 258.788 179.772C258.788 179.772 258.788 179.772 258.788 179.48L260.249 159.904L286.545 158.736Z" fill="#FFD0DD"/>
<path d="M232.785 116.661C232.785 95.6238 250.315 78.3853 271.644 79.5541C290.636 80.4306 306.121 96.2082 306.998 114.908C307.29 123.673 304.66 131.562 299.985 138.282C295.895 144.125 292.097 149.969 288.298 156.105C282.163 165.747 270.768 171.59 258.496 169.837C246.517 168.084 236.291 158.734 233.661 147.047C232.785 143.541 232.784 140.327 233.077 137.113C233.661 130.977 233.369 125.134 233.077 118.998C232.784 118.122 232.785 117.537 232.785 116.661Z" fill="#FFE5EF"/>
<path d="M268.723 130.393C270.82 130.393 272.521 128.039 272.521 125.134C272.521 122.23 270.82 119.875 268.723 119.875C266.625 119.875 264.924 122.23 264.924 125.134C264.924 128.039 266.625 130.393 268.723 130.393Z" fill="white"/>
<path d="M267.554 129.225C269.006 129.225 270.183 127.524 270.183 125.427C270.183 123.329 269.006 121.628 267.554 121.628C266.101 121.628 264.924 123.329 264.924 125.427C264.924 127.524 266.101 129.225 267.554 129.225Z" fill="black"/>
<path d="M247.393 130.393C249.491 130.393 251.192 128.039 251.192 125.134C251.192 122.23 249.491 119.875 247.393 119.875C245.296 119.875 243.595 122.23 243.595 125.134C243.595 128.039 245.296 130.393 247.393 130.393Z" fill="white"/>
<path d="M246.225 129.225C247.677 129.225 248.854 127.524 248.854 125.427C248.854 123.329 247.677 121.628 246.225 121.628C244.772 121.628 243.595 123.329 243.595 125.427C243.595 127.524 244.772 129.225 246.225 129.225Z" fill="black"/>
<path d="M235.122 118.414L232.785 118.706C233.077 121.336 233.077 123.966 233.077 126.303C234.83 126.595 232.785 118.706 235.122 118.414Z" fill="#666666"/>
<path d="M282.747 123.089C285.961 123.089 283.916 128.933 288.883 128.933C297.648 128.933 288.298 142.957 297.064 142.957C297.94 141.496 299.109 140.036 299.986 138.575C302.907 134.484 304.952 130.102 306.121 125.134C300.278 125.427 291.804 124.258 282.747 123.089Z" fill="#666666"/>
<path d="M232.785 116.662C232.785 95.3326 250.607 78.0941 272.229 79.555C291.22 80.7237 306.413 96.5013 306.998 115.785C306.998 118.999 306.705 121.921 306.121 124.843C306.705 121.921 307.582 118.999 307.29 115.785C306.706 96.7935 291.22 79.555 272.229 78.3862C250.607 76.9254 232.492 92.703 232.492 114.032C232.492 114.616 232.785 118.122 232.785 118.707C232.785 118.122 232.785 117.538 232.785 116.662Z" fill="#333333"/>
<path d="M277.196 107.895C274.274 106.142 266.677 103.513 255.867 103.513C240.673 103.513 239.213 107.895 239.213 107.895C239.213 107.895 239.213 107.895 239.213 108.188C241.258 107.019 245.933 104.974 256.159 104.974C266.969 104.974 276.027 107.895 278.949 109.356C278.364 108.772 277.78 108.188 277.196 107.895Z" fill="#333333"/>
<path d="M280.41 112.278C280.702 115.784 280.117 122.797 282.747 122.797C291.804 124.257 300.278 125.134 306.121 124.55C306.705 121.628 306.998 118.706 306.998 115.492C306.413 96.5005 291.22 80.4307 272.229 79.262C250.607 77.8011 232.785 95.0396 232.785 116.369C232.785 116.953 232.785 117.83 232.785 118.414L235.122 118.122C237.167 118.122 237.752 108.48 237.752 108.48C237.752 108.48 238.044 107.895 238.92 107.311V107.019C238.92 107.019 240.381 102.636 255.575 102.636C266.385 102.636 273.982 105.558 276.903 107.019C277.488 107.311 278.072 107.895 278.364 108.48C279.825 109.941 280.41 111.109 280.41 112.278Z" fill="#333333"/>
<path d="M237.752 109.065C237.752 109.065 240.673 104.682 255.867 104.682C266.677 104.682 275.735 107.604 278.657 109.065C279.825 109.649 280.41 110.818 280.702 112.279C280.994 115.785 280.41 122.797 283.039 122.797C292.097 124.258 300.57 125.134 306.414 124.55C306.998 121.628 307.874 118.706 307.582 115.493C306.998 96.501 291.512 79.2625 272.521 78.0938C250.9 76.6329 232.785 92.4105 232.785 113.739C232.785 114.324 233.077 117.83 233.077 118.414L235.414 118.122C237.167 118.414 237.752 109.065 237.752 109.065Z" fill="#333333"/>
<path d="M287.422 126.595C287.422 122.797 290.344 119.583 293.85 119.875C297.064 120.167 299.693 122.797 299.693 126.303C299.693 127.764 299.401 129.517 298.525 130.686C297.94 131.854 297.356 132.731 296.48 133.899C295.603 135.653 293.558 136.821 291.512 136.529C289.467 136.237 287.714 134.484 287.422 132.439C287.422 131.854 287.13 131.27 287.422 130.686C287.422 129.517 287.422 128.348 287.422 127.472C287.422 126.887 287.422 126.887 287.422 126.595Z" fill="#FFE5EF"/>
<path d="M254.99 154.645C256.926 154.645 258.496 151.636 258.496 147.925C258.496 144.214 256.926 141.205 254.99 141.205C253.054 141.205 251.484 144.214 251.484 147.925C251.484 151.636 253.054 154.645 254.99 154.645Z" fill="#FF97BF"/>
<path d="M257.036 134.192C254.698 134.192 252.653 132.439 252.653 130.102C252.653 127.764 255.867 126.304 256.743 125.719V120.46" stroke="#FFBED7" stroke-width="0.6298" stroke-miterlimit="10" stroke-linecap="round" stroke-linejoin="round"/>
<path d="M295.019 126.596L294.142 127.472C293.265 128.349 293.265 130.102 294.142 130.979" stroke="#FFBED7" stroke-width="0.6298" stroke-miterlimit="10" stroke-linecap="round" stroke-linejoin="round"/>
</g>
</g>
<defs>
<filter id="filter0_d" x="78" y="18" width="399.56" height="360" filterUnits="userSpaceOnUse" color-interpolation-filters="sRGB">
<feFlood flood-opacity="0" result="BackgroundImageFix"/>
<feColorMatrix in="SourceAlpha" type="matrix" values="0 0 0 0 0 0 0 0 0 0 0 0 0 0 0 0 0 0 127 0"/>
<feOffset dy="4"/>
<feGaussianBlur stdDeviation="8"/>
<feColorMatrix type="matrix" values="0 0 0 0 0 0 0 0 0 0 0 0 0 0 0 0 0 0 0.08 0"/>
<feBlend mode="normal" in2="BackgroundImageFix" result="effect1_dropShadow"/>
<feBlend mode="normal" in="SourceGraphic" in2="effect1_dropShadow" result="shape"/>
</filter>
</defs>
</svg>
