<svg width="382" height="348" viewBox="0 0 382 348" fill="none" xmlns="http://www.w3.org/2000/svg">
<mask id="mask0" mask-type="alpha" maskUnits="userSpaceOnUse" x="0" y="0" width="382" height="348">
<path d="M382 324C382 337.255 371.255 348 358 348L24 348C10.7452 348 2.95782e-05 337.255 2.84194e-05 324L2.19259e-06 24C1.03382e-06 10.7452 10.7452 1.93855e-06 24 7.79773e-07L358 -2.84194e-05C371.255 -2.95782e-05 382 10.7451 382 24L382 324Z" fill="#3C6EE6"/>
</mask>
<g mask="url(#mask0)">
<path d="M381.985 345.69C377.246 287.057 373.779 260.237 366.286 229.83L324.242 230.545C331.59 262.932 325.851 297.881 330.319 348.218H382.12C382.051 347.379 382 346.537 381.985 345.69Z" fill="#FFE4EE"/>
<path d="M222.408 297.767L231.079 248.757L191.154 240.559L183.823 281.188C183.667 282.054 182.423 282.052 182.27 281.186L169.069 206.54C168.443 202.996 168.286 199.384 168.599 195.797L169.867 181.314C170.116 178.451 168.501 175.621 165.779 174.706C161.778 173.36 158.042 176.347 157.703 180.209L155.765 202.347L144.192 180.401C142.765 177.345 139.134 176.025 136.076 177.45C133.018 178.875 131.696 182.511 133.123 185.571L143.552 205.089C134.898 208.838 129.611 218.145 131.32 227.842L143.676 297.758C147.051 316.856 163.647 330.778 183.042 330.778C202.435 330.778 219.028 316.863 222.408 297.767Z" fill="#FFE4EE"/>
<path d="M140.978 226.26L133.647 210.54C132.221 207.482 133.544 203.848 136.6 202.423C139.657 200.998 143.291 202.321 144.716 205.376L152.047 221.097C153.473 224.154 152.15 227.788 149.094 229.213C146.037 230.639 142.403 229.318 140.978 226.26Z" fill="#FFE4EE"/>
<path d="M146.429 209.051L152.047 221.1C153.473 224.157 152.15 227.791 149.094 229.216C146.037 230.641 142.403 229.318 140.978 226.263L137.338 218.458" stroke="#FFBED2" stroke-width="1.75925" stroke-miterlimit="10" stroke-linecap="round" stroke-linejoin="round"/>
<path d="M167.909 218.764L164.269 210.959C162.844 207.902 159.21 206.579 156.153 208.006C153.095 209.432 151.772 213.065 153.2 216.123L158.818 228.172C155.423 228.771 153.157 232.008 153.755 235.4L154.038 237.013" stroke="#FFBED2" stroke-width="1.75925" stroke-miterlimit="10" stroke-linecap="round" stroke-linejoin="round"/>
<path d="M227.954 266.428L231.079 248.757L191.155 240.56L188.936 252.847C201.712 255.973 214.755 261.087 227.954 266.428Z" fill="#FFCDDC"/>
<path d="M368.592 239.642L328.048 247.922C329.369 254.214 330.655 260.673 331.899 267.385C345.254 261.565 358.442 255.821 371.301 252.845C370.458 248.368 369.56 244.001 368.592 239.642Z" fill="#FFCDDC"/>
<path d="M217.527 254.483C220.056 255.145 221.752 257.519 221.558 260.127L215.417 342.398C215.182 345.539 217.668 348.219 220.82 348.219H341.151C344.356 348.219 346.859 345.451 346.541 342.264L338.348 260.306C338.079 257.622 339.826 255.149 342.446 254.507L371.408 247.397C374.029 246.755 375.838 244.274 375.522 241.596C372.477 215.672 344.499 194.248 307.128 187.267C304.915 186.853 303.159 185.165 302.737 182.955C302.378 181.077 301.073 179.481 299.261 178.873C287.116 174.785 274.98 174.789 262.857 178.873C261.045 179.483 259.74 181.077 259.381 182.955C258.961 185.167 257.205 186.855 254.99 187.269C217.587 194.257 189.594 215.713 186.589 241.664C186.282 244.312 188.047 246.772 190.626 247.446L217.527 254.483Z" fill="#FFD25F"/>
<path d="M302.718 193.211L294.721 203.999C293.439 205.729 290.931 205.945 289.374 204.457L283.619 198.97C282.186 197.602 279.933 197.602 278.499 198.97L272.744 204.457C271.187 205.942 268.678 205.727 267.397 203.999L259.4 193.211" stroke="#FFB428" stroke-width="1.75925" stroke-miterlimit="10" stroke-linecap="round" stroke-linejoin="round"/>
<path d="M281.021 207.555C281.943 207.555 282.69 206.808 282.69 205.886C282.69 204.965 281.943 204.218 281.021 204.218C280.1 204.218 279.353 204.965 279.353 205.886C279.353 206.808 280.1 207.555 281.021 207.555Z" fill="white"/>
<path d="M281.021 212.651C281.943 212.651 282.69 211.904 282.69 210.983C282.69 210.061 281.943 209.314 281.021 209.314C280.1 209.314 279.353 210.061 279.353 210.983C279.353 211.904 280.1 212.651 281.021 212.651Z" fill="white"/>
<path d="M296.308 140.278H265.159L262.353 178.607C261.075 189.598 269.667 191.262 280.732 191.262C291.797 191.262 300.387 189.598 299.111 178.607L296.308 140.278Z" fill="#FFDAE4"/>
<path d="M289.189 158.854C283.3 163.526 275.346 179.245 273.609 190.905C267.155 190.118 262.606 187.769 262.252 181.483C262.269 180.299 262.297 179.332 262.335 178.818C262.344 178.748 262.346 178.679 262.354 178.609L263.733 159.775L289.189 158.854Z" fill="#FFCDDC"/>
<path d="M237.336 118.433C237.336 98.0842 254.325 81.702 274.891 82.6942C293.134 83.5754 308.071 98.6005 308.863 116.848C309.226 125.231 306.691 132.993 302.187 139.249C298.197 144.792 294.616 150.602 290.953 156.367C285.094 165.587 274.189 171.283 262.123 169.559C250.458 167.893 240.816 159.006 238.126 147.534C237.351 144.231 237.172 141.013 237.479 137.939C238.062 132.137 237.74 126.3 237.396 120.479C237.358 119.805 237.336 119.122 237.336 118.433Z" fill="#FFE4EE"/>
<path d="M269.429 136.373C271.466 136.373 273.118 134.081 273.118 131.254C273.118 128.427 271.466 126.136 269.429 126.136C267.391 126.136 265.74 128.427 265.74 131.254C265.74 134.081 267.391 136.373 269.429 136.373Z" fill="white"/>
<path d="M268.247 135.114C269.63 135.114 270.752 133.432 270.752 131.357C270.752 129.282 269.63 127.6 268.247 127.6C266.863 127.6 265.742 129.282 265.742 131.357C265.742 133.432 266.863 135.114 268.247 135.114Z" fill="#2D2D37"/>
<path d="M249.072 136.373C251.109 136.373 252.761 134.081 252.761 131.254C252.761 128.427 251.109 126.136 249.072 126.136C247.034 126.136 245.383 128.427 245.383 131.254C245.383 134.081 247.034 136.373 249.072 136.373Z" fill="white"/>
<path d="M247.89 135.114C249.273 135.114 250.395 133.432 250.395 131.357C250.395 129.282 249.273 127.6 247.89 127.6C246.506 127.6 245.385 129.282 245.385 131.357C245.385 133.432 246.506 135.114 247.89 135.114Z" fill="#2D2D37"/>
<path d="M247.53 162.884C239.332 162.835 230.198 160.682 220.234 158.546C225.999 154.654 233.26 131.75 234.566 110.281C234.888 104.97 235.95 99.7192 237.894 94.767C241.882 84.598 250.641 72.2741 269.502 74.2008C270.501 74.3565 271.262 74.7086 271.868 75.2782C272.666 74.7491 273.579 74.4141 274.531 74.2904C287.051 72.6709 301.485 78.3976 308.898 96.3459C314.471 109.843 320.605 128.334 323.562 139.034C325.079 144.526 323.11 150.451 318.476 153.767C309.391 160.266 298.155 161.781 283.401 163.317C287.593 157.934 288.274 137.077 283.187 116.428C278.98 117.42 270.716 118.323 267.496 118.34C266.78 115.621 265.674 111.39 267.247 108.864C267.247 108.864 264.43 113.667 264.548 118.581C262.423 118.702 260.291 118.709 258.151 118.6C257.492 115.922 257.692 110.878 259.186 108.476C259.186 108.476 255.567 113.842 255.313 118.395C253.416 118.207 251.513 117.919 249.606 117.546C248.823 114.804 249.523 110.838 251.2 108.143C251.2 108.143 247.02 112.19 246.956 116.94C246.136 116.925 244.942 116.622 244.184 116.404C242.701 115.978 240.561 114.247 239.217 112.453C238.005 116.044 237.339 117.226 237.339 121.226C237.339 121.916 237.361 122.598 237.399 123.275C237.743 129.095 238.063 132.14 237.482 137.941C237.175 141.016 237.354 144.234 238.129 147.536C239.552 153.613 242.938 158.947 247.53 162.884Z" fill="#2D2D37"/>
<path d="M257.806 145.507C255.929 145.507 254.405 148.353 254.405 151.865C254.405 155.377 255.929 158.223 257.806 158.223C259.684 158.223 261.207 155.377 261.207 151.865C261.207 148.353 259.686 145.507 257.806 145.507Z" fill="#FF7BA4"/>
<path d="M259.75 141.22H257.674C255.38 141.22 253.522 139.362 253.522 137.068C253.522 134.774 255.24 132.709 257.674 132.011V128.151" stroke="#FFBED2" stroke-width="1.75925" stroke-miterlimit="10" stroke-linecap="round" stroke-linejoin="round"/>
</g>
</svg>
