<svg width="398" height="349" viewBox="0 0 398 349" fill="none" xmlns="http://www.w3.org/2000/svg">
<mask id="mask0" mask-type="alpha" maskUnits="userSpaceOnUse" x="0" y="0" width="382" height="348">
<path d="M382 324C382 337.255 371.255 348 358 348L24 348C10.7452 348 2.95782e-05 337.255 2.84194e-05 324L2.19259e-06 24C1.03382e-06 10.7452 10.7452 1.93855e-06 24 7.79773e-07L358 -2.84194e-05C371.255 -2.95782e-05 382 10.7451 382 24L382 324Z" fill="#FFB428"/>
</mask>
<g mask="url(#mask0)">
<path d="M246.09 173.178C244.166 195.599 243.273 221.317 251.426 246.875H340.078C352.239 227.02 351.345 200.729 346.17 171.873L246.09 173.178Z" fill="#2D2D37"/>
<path d="M317.91 141.071H284.222L281.199 182.523C279.825 194.408 289.1 196.195 301.077 196.195C313.032 196.195 322.33 194.386 320.956 182.523L317.91 141.071Z" fill="#FFDAE4"/>
<path d="M293.382 195.805C295.511 182.729 304.214 162.598 310.695 157.445L282.984 158.453L281.221 182.522C280.144 191.683 285.435 194.843 293.382 195.805Z" fill="#FFCDDC"/>
<path d="M254.151 117.46C254.151 95.4514 272.518 77.7486 294.756 78.8249C314.474 79.7868 330.642 96.0239 331.49 115.765C331.879 124.834 329.131 133.216 324.276 139.995C319.97 145.995 316.1 152.27 312.138 158.499C305.794 168.461 294.023 174.622 280.969 172.767C268.35 170.958 257.93 161.362 255.022 148.949C254.174 145.377 253.991 141.896 254.312 138.575C254.93 132.3 254.587 125.979 254.22 119.704C254.174 118.925 254.151 118.193 254.151 117.46Z" fill="#FFE4EE"/>
<path d="M291.778 145.377C284.404 147.575 277.488 149.201 271.625 149.499C270.961 149.545 270.571 150.278 270.961 150.827C271.945 152.224 274.442 153.209 277.396 153.209C284.129 153.209 290.198 149.453 292.671 146.774C293.267 146.132 292.626 145.148 291.778 145.377Z" fill="#FF7BA4"/>
<path d="M337.307 115.444C332.75 88.2371 319.032 82.0079 312.482 78.8475C309.756 77.5192 301.535 75.4351 292.214 75C288.527 75.0229 285.962 75.71 285.114 77.3131C284.061 76.168 282.572 75.916 281.107 76.1222C280.328 76.2367 279.549 76.5115 278.794 76.7635C278.015 77.0154 277.236 77.3131 276.458 77.6337C267.434 81.3895 260.541 88.4433 256.373 97.2832C252.548 105.39 250.556 112.994 250.167 117.322C249.64 123.391 249.022 133.261 248.907 137.956C248.655 148.079 247.144 160.446 246.021 173.477H281.862L281.908 172.835C281.381 172.767 280.786 172.698 279.778 172.515C269.45 170.545 260.449 163.675 256.556 153.896C254.449 148.605 253.831 143.43 254.312 138.598C254.632 135.277 254.701 131.956 254.632 128.635C254.61 127.055 254.747 125.498 254.93 123.941C262.35 120.093 270.87 111.299 274.877 103.238C277.992 114.116 301.329 130.147 315.367 130.147C321.184 131.475 318.528 148.239 318.459 148.583L320.245 173.064H346.376L337.307 115.444Z" fill="#2D2D37"/>
<path d="M315.345 131.475C315.345 127.422 318.391 124.17 322.078 124.353C325.353 124.536 328.032 127.514 328.17 131.155C328.238 132.827 327.78 134.361 326.979 135.621C326.269 136.72 325.628 137.888 324.963 139.033C323.91 140.865 321.963 142.01 319.788 141.667C317.704 141.346 315.963 139.56 315.482 137.292C315.345 136.628 315.322 135.987 315.368 135.392C315.482 134.247 315.413 133.079 315.345 131.911C315.345 131.75 315.345 131.613 315.345 131.475Z" fill="#FFE4EE"/>
<path d="M267.778 136.284C270.106 136.284 271.992 133.659 271.992 130.421C271.992 127.183 270.106 124.559 267.778 124.559C265.451 124.559 263.564 127.183 263.564 130.421C263.564 133.659 265.451 136.284 267.778 136.284Z" fill="white"/>
<path d="M288.642 136.284C290.969 136.284 292.855 133.659 292.855 130.421C292.855 127.183 290.969 124.559 288.642 124.559C286.314 124.559 284.428 127.183 284.428 130.421C284.428 133.659 286.314 136.284 288.642 136.284Z" fill="white"/>
<path d="M266.152 134.04C267.582 134.04 268.74 132.42 268.74 130.422C268.74 128.423 267.582 126.803 266.152 126.803C264.723 126.803 263.564 128.423 263.564 130.422C263.564 132.42 264.723 134.04 266.152 134.04Z" fill="#2D2D37"/>
<path d="M286.947 133.925C288.338 133.925 289.466 132.357 289.466 130.421C289.466 128.486 288.338 126.917 286.947 126.917C285.556 126.917 284.428 128.486 284.428 130.421C284.428 132.357 285.556 133.925 286.947 133.925Z" fill="#2D2D37"/>
<path d="M323.131 131.315L322.123 132.323C321.115 133.33 321.115 134.979 322.123 135.987" stroke="#FFBED2" stroke-width="1.87563" stroke-miterlimit="10" stroke-linecap="round" stroke-linejoin="round"/>
<path d="M278.015 138.048C275.542 138.117 273.503 136.17 273.435 133.697C273.366 131.224 276.824 129.689 277.786 129.117V123.735" stroke="#FFBED2" stroke-width="1.87563" stroke-miterlimit="10" stroke-linecap="round" stroke-linejoin="round"/>
<path d="M91.2529 188.042V198.348C91.2529 202.127 94.3217 205.195 98.1005 205.195C98.1463 205.195 98.1921 205.195 98.2608 205.195L104.124 212.02L97.5508 228.418C103.368 231.738 112.093 235.838 120.727 235.838H236.792V191.088H156.316C146.537 191.088 131.124 186.943 122.262 182.775C115.689 179.683 108.383 177.118 101.055 177.187C95.6271 177.233 91.2529 182.637 91.2529 188.042Z" fill="#FFE4EE"/>
<path d="M102.841 201.577H64.8475C61.0688 201.577 58 198.508 58 194.729C58 190.951 61.0688 187.882 64.8475 187.882H102.841C106.62 187.882 109.689 190.951 109.689 194.729C109.666 198.508 106.62 201.577 102.841 201.577Z" fill="#FFE4EE"/>
<path d="M108.063 228.944H90.5892C86.7876 228.944 83.7188 225.853 83.7188 222.074V222.005C83.7188 218.204 86.8105 215.135 90.5892 215.135H108.063C111.865 215.135 114.933 218.226 114.933 222.005V222.074C114.933 225.876 111.865 228.944 108.063 228.944Z" fill="#FFE4EE"/>
<path d="M103.322 215.272H85.7793C82.0005 215.272 78.9316 212.203 78.9316 208.425C78.9316 204.646 82.0005 201.577 85.7793 201.577H103.322C107.101 201.577 110.169 204.646 110.169 208.425C110.169 212.203 107.101 215.272 103.322 215.272Z" fill="#FFE4EE"/>
<path d="M105.956 202.104C108.429 203.134 110.17 205.585 110.17 208.424C110.17 212.203 107.101 215.272 103.322 215.272H94.0244H108.086C111.865 215.272 114.933 218.341 114.933 222.119C114.933 224.799 113.399 227.112 111.155 228.234" stroke="#FFBED2" stroke-width="1.4166" stroke-miterlimit="10" stroke-linecap="round" stroke-linejoin="round"/>
<path d="M123.43 203.318C108.201 203.318 104.926 190.035 104.926 190.035V198.371C104.926 202.15 101.857 205.219 98.078 205.219C94.2992 205.219 91.2305 202.15 91.2305 198.371V193.333" stroke="#FFBED2" stroke-width="1.4166" stroke-miterlimit="10" stroke-linecap="round" stroke-linejoin="round"/>
<path d="M227.7 191.088V235.838H230.792V191.088H227.7Z" fill="#FFCDDC"/>
<path d="M279.366 237.097H232.028C231.25 237.097 230.608 236.456 230.608 235.677V191.02C230.608 190.241 231.25 189.6 232.028 189.6H279.366C292.488 189.6 303.115 200.226 303.115 213.349C303.115 226.471 292.465 237.097 279.366 237.097Z" fill="#FFD25F"/>
<path d="M239.357 237.097H260.335L273.091 194.729C273.091 194.729 250.167 205.905 239.357 237.097Z" fill="#FFB428"/>
<path d="M343.559 193.882L322.787 183.782C311.978 178.515 299.427 178.057 288.251 182.545C270.617 189.599 257.884 205.264 254.586 223.974L233.975 340.497C233.265 344.528 236.357 348.215 240.433 348.215H355.559C359.521 348.215 362.567 344.757 362.086 340.818L343.559 193.882Z" fill="#FFD25F"/>
<path d="M351.368 255.715L301.19 224.088C301.19 224.088 307.328 258.578 353.749 274.632L351.368 255.715Z" fill="#FFB428"/>
<path d="M359.98 262.701C361.01 263.273 360.919 264.808 359.796 265.22L333.895 274.93C325.582 277.655 316.65 278.045 308.108 276.029C299.039 273.877 289.512 274.724 280.786 278.022C275.611 279.968 273.045 285.808 274.992 291.007L276.389 294.717C276.389 294.717 272.633 296.572 269.816 298.542C267.022 300.534 264.824 304.061 266.129 307.542C267.366 310.863 270.939 312.58 274.282 311.618C271.442 313.244 270.091 316.725 271.282 319.909L271.351 320.069C272.679 323.596 276.595 325.382 280.122 324.054L282.481 323.161C279.893 324.855 278.702 328.153 279.847 331.176C280.832 333.787 283.237 335.413 285.847 335.528C292.351 336.581 301.054 335.39 309.024 332.39L398.134 298.862C412.722 293.366 422.386 279.419 422.386 263.823C422.386 250.792 415.607 238.7 404.477 231.898L341.681 193.47C327.666 184.378 308.841 189.737 301.718 204.874C297.825 217.653 303.413 231.417 315.093 237.876L359.98 262.701Z" fill="#FFE4EE"/>
<path d="M364.331 264.533L369.942 264.785" stroke="#FFBED2" stroke-width="1.87563" stroke-miterlimit="10" stroke-linecap="round" stroke-linejoin="round"/>
<path d="M366.46 208.63L338.36 250.746L348.574 256.402L374.155 213.348L366.46 208.63Z" fill="#FFCDDC"/>
<path d="M318.414 189.393C310.444 191.66 303.825 197.271 300.298 204.783L300.253 204.943C296.222 218.157 302.085 232.608 314.177 239.273L343.949 255.739C344.613 256.105 345.46 255.876 345.85 255.212L371.568 212.02C371.98 211.333 371.751 210.463 371.064 210.073L341.911 192.92C334.949 188.385 326.383 187.103 318.414 189.393Z" fill="#FFD25F"/>
<path d="M278.816 294.717L293.473 289.221C293.473 289.221 287.84 290.916 286.534 287.435L287.977 291.282" stroke="#FFBED2" stroke-width="1.87563" stroke-miterlimit="10" stroke-linecap="round" stroke-linejoin="round"/>
<path d="M284.816 322.154L287.336 321.215" stroke="#FFBED2" stroke-width="1.87563" stroke-miterlimit="10" stroke-linecap="round" stroke-linejoin="round"/>
<path d="M276.87 310.611L279.366 309.672" stroke="#FFBED2" stroke-width="1.87563" stroke-miterlimit="10" stroke-linecap="round" stroke-linejoin="round"/>
</g>
</svg>
