<svg width="382" height="348" viewBox="0 0 382 348" fill="none" xmlns="http://www.w3.org/2000/svg">
<mask id="mask0" mask-type="alpha" maskUnits="userSpaceOnUse" x="0" y="0" width="382" height="348">
<path d="M382 324C382 337.255 371.255 348 358 348L24 348C10.7452 348 2.95782e-05 337.255 2.84194e-05 324L2.19259e-06 24C1.03382e-06 10.7452 10.7452 1.93855e-06 24 7.79773e-07L358 -2.84194e-05C371.255 -2.95782e-05 382 10.7451 382 24L382 324Z" fill="#3C6EE6"/>
</mask>
<g mask="url(#mask0)">
<path d="M318.573 142.032H285.669L282.699 182.529C281.342 194.133 290.429 195.903 302.111 195.903C313.794 195.903 322.881 194.153 321.524 182.529L318.573 142.032Z" fill="#FFDAE4"/>
<path d="M311.06 161.642C304.845 166.578 296.427 183.178 294.598 195.51C287.773 194.684 282.974 192.186 282.601 185.558C282.62 184.299 282.64 183.276 282.699 182.745C282.699 182.667 282.719 182.608 282.719 182.529L284.174 162.625L311.06 161.642Z" fill="#FFCDDC"/>
<path d="M256.285 118.942C256.285 97.445 274.241 80.1371 295.955 81.1795C315.23 82.1039 331.004 97.9761 331.849 117.271C332.243 126.121 329.548 134.323 324.789 140.931C320.58 146.792 316.784 152.929 312.929 159.026C306.733 168.762 295.227 174.78 282.463 172.971C270.131 171.201 259.943 161.819 257.111 149.703C256.284 146.222 256.107 142.819 256.422 139.574C257.032 133.438 256.698 127.282 256.344 121.125C256.304 120.398 256.285 119.67 256.285 118.942Z" fill="#FFE4EE"/>
<path d="M290.193 137.902C292.344 137.902 294.087 135.481 294.087 132.494C294.087 129.507 292.344 127.085 290.193 127.085C288.042 127.085 286.299 129.507 286.299 132.494C286.299 135.481 288.042 137.902 290.193 137.902Z" fill="white"/>
<path d="M288.934 136.565C290.4 136.565 291.589 134.786 291.589 132.592C291.589 130.398 290.4 128.619 288.934 128.619C287.467 128.619 286.278 130.398 286.278 132.592C286.278 134.786 287.467 136.565 288.934 136.565Z" fill="#2D2D37"/>
<path d="M268.676 137.902C270.826 137.902 272.57 135.481 272.57 132.494C272.57 129.507 270.826 127.085 268.676 127.085C266.525 127.085 264.781 129.507 264.781 132.494C264.781 135.481 266.525 137.902 268.676 137.902Z" fill="white"/>
<path d="M267.417 136.565C268.884 136.565 270.073 134.786 270.073 132.592C270.073 130.398 268.884 128.619 267.417 128.619C265.951 128.619 264.762 130.398 264.762 132.592C264.762 134.786 265.951 136.565 267.417 136.565Z" fill="#2D2D37"/>
<path d="M267.043 165.909C258.389 165.85 248.732 163.588 238.21 161.326C244.307 157.216 251.978 133.024 253.354 110.327C253.689 104.722 254.81 99.1752 256.875 93.9435C261.084 83.2047 270.348 70.1844 290.272 72.2102C291.334 72.3675 292.14 72.7412 292.769 73.3509C293.615 72.8002 294.579 72.4462 295.582 72.3085C308.819 70.5974 324.061 76.6552 331.889 95.6153C337.77 109.875 344.26 129.405 347.388 140.714C349 146.516 346.916 152.771 342.018 156.272C332.42 163.136 320.541 164.729 304.964 166.362C309.389 160.677 310.117 138.649 304.747 116.817C300.302 117.86 291.57 118.824 288.167 118.843C287.42 115.972 286.24 111.507 287.911 108.832C287.911 108.832 284.941 113.907 285.059 119.099C282.817 119.237 280.555 119.237 278.294 119.119C277.605 116.286 277.802 110.956 279.395 108.419C279.395 108.419 275.579 114.084 275.304 118.902C273.298 118.706 271.292 118.391 269.266 117.998C268.44 115.106 269.187 110.917 270.957 108.065C270.957 108.065 266.532 112.333 266.473 117.368C265.608 117.348 264.349 117.034 263.542 116.798C261.969 116.345 259.707 114.516 258.291 112.628C257.013 116.424 256.305 117.663 256.305 121.892C256.305 122.62 256.324 123.347 256.364 124.055C256.718 130.211 257.072 133.417 256.442 139.554C256.108 142.799 256.305 146.202 257.131 149.683C258.626 156.114 262.205 161.739 267.043 165.909Z" fill="#2D2D37"/>
<path d="M277.9 147.539C275.914 147.539 274.301 150.548 274.301 154.246C274.301 157.963 275.914 160.972 277.9 160.972C279.887 160.972 281.5 157.963 281.5 154.246C281.5 150.548 279.887 147.539 277.9 147.539Z" fill="#FF7BA4"/>
<path d="M279.966 143.015H277.763C275.344 143.015 273.377 141.048 273.377 138.629C273.377 136.21 275.186 134.027 277.763 133.279V129.208" stroke="#FFBED2" stroke-width="1.85864" stroke-miterlimit="10" stroke-linecap="round" stroke-linejoin="round"/>
<path d="M98.0354 186.836L98.1338 200.407C98.1534 204.046 101.123 206.976 104.762 206.937C104.821 206.937 104.86 206.937 104.919 206.937L110.603 213.467L104.408 231.325C110.013 234.472 118.412 236.321 126.731 236.262L232.054 236.262V191.95L159.4 191.95C150.195 192.009 141.168 189.334 133.477 184.24C125.925 179.225 116.936 176.805 107.869 176.864C102.402 176.904 97.9961 181.368 98.0354 186.836Z" fill="#FFE4EE"/>
<path d="M109.305 205.462L67.6283 205.757C63.9897 205.777 61.0198 202.866 61.0001 199.227C60.9804 195.588 63.8914 192.618 67.53 192.599L109.226 192.304C112.865 192.284 115.835 195.195 115.855 198.834C115.874 202.472 112.944 205.442 109.305 205.462Z" fill="#FFE4EE"/>
<path d="M114.517 231.758L97.7204 231.876C94.0621 231.895 91.0725 228.965 91.0528 225.307V225.228C91.0332 221.57 93.9638 218.58 97.6221 218.56L114.419 218.442C118.077 218.423 121.066 221.353 121.086 225.012V225.09C121.125 228.749 118.175 231.738 114.517 231.758Z" fill="#FFE4EE"/>
<path d="M109.876 218.64L93.0009 218.758C89.3623 218.777 86.3923 215.866 86.3727 212.228C86.353 208.589 89.2639 205.619 92.9025 205.6L109.778 205.482C113.416 205.462 116.386 208.373 116.406 212.011C116.445 215.63 113.515 218.6 109.876 218.64Z" fill="#FFE4EE"/>
<path d="M112.315 205.953C114.695 206.937 116.386 209.257 116.406 212.011C116.426 215.649 113.515 218.619 109.876 218.639L100.947 218.698L114.479 218.6C118.117 218.58 121.087 221.491 121.107 225.13C121.126 227.706 119.671 229.948 117.527 231.03" stroke="#FFBED2" stroke-width="1.85864" stroke-miterlimit="10" stroke-linecap="round" stroke-linejoin="round"/>
<path d="M129.131 204.95C114.498 205.049 111.253 192.304 111.253 192.304L111.312 200.309C111.332 203.947 108.421 206.917 104.782 206.937C101.144 206.957 98.1738 204.046 98.1541 200.407L98.1147 195.569" stroke="#FFBED2" stroke-width="1.85864" stroke-miterlimit="10" stroke-linecap="round" stroke-linejoin="round"/>
<path d="M280.359 237.481H233.45C232.664 237.481 232.034 236.852 232.034 236.065V191.812C232.034 191.025 232.664 190.396 233.45 190.396H280.359C293.359 190.396 303.902 200.938 303.902 213.938C303.902 226.959 293.359 237.481 280.359 237.481Z" fill="#5F8CFF"/>
<path d="M240.728 237.482H261.517L274.144 195.51C274.144 195.51 251.427 206.603 240.728 237.482Z" fill="#3C6EE6"/>
<path d="M228.965 191.95V236.243H232.053V191.95H228.965Z" fill="#FFCDDC"/>
<path d="M344.004 194.665L323.412 184.654C312.693 179.442 300.262 178.989 289.189 183.415C271.724 190.417 259.097 205.935 255.832 224.462L235.397 339.914C234.689 343.907 237.757 347.565 241.809 347.565H355.884C359.798 347.565 362.827 344.123 362.335 340.248L344.004 194.665Z" fill="#5F8CFF"/>
<path d="M351.713 255.931L301.992 224.6C301.992 224.6 308.07 258.783 354.073 274.694L351.713 255.931Z" fill="#3C6EE6"/>
<path d="M360.252 262.875C361.275 263.445 361.176 264.96 360.075 265.373L334.408 274.991C326.167 277.705 317.336 278.078 308.859 276.072C299.871 273.928 290.43 274.774 281.776 278.059C276.643 280.006 274.105 285.788 276.033 290.922L277.41 294.6C277.41 294.6 273.673 296.429 270.9 298.396C268.126 300.362 265.943 303.863 267.241 307.305C268.48 310.59 272.001 312.301 275.305 311.357C272.493 312.97 271.155 316.431 272.335 319.558L272.394 319.716C273.712 323.217 277.606 324.987 281.088 323.669L283.428 322.784C280.852 324.456 279.691 327.721 280.812 330.71C281.776 333.287 284.176 334.919 286.772 335.037C293.203 336.08 301.857 334.9 309.744 331.93L398.034 298.691C412.49 293.243 422.069 279.416 422.069 263.976C422.069 251.054 415.342 239.076 404.328 232.33L342.098 194.253C328.213 185.245 309.548 190.555 302.506 205.542C298.651 218.209 304.178 231.839 315.763 238.251L360.252 262.875Z" fill="#FFE4EE"/>
<path d="M364.559 264.685L370.125 264.921" stroke="#FFBED2" stroke-width="1.85864" stroke-miterlimit="10" stroke-linecap="round" stroke-linejoin="round"/>
<path d="M279.828 294.599L294.343 289.151C294.343 289.151 288.758 290.823 287.46 287.381L288.895 291.196" stroke="#FFBED2" stroke-width="1.85864" stroke-miterlimit="10" stroke-linecap="round" stroke-linejoin="round"/>
<path d="M285.789 321.78L288.267 320.836" stroke="#FFBED2" stroke-width="1.85864" stroke-miterlimit="10" stroke-linecap="round" stroke-linejoin="round"/>
<path d="M277.901 310.353L280.38 309.409" stroke="#FFBED2" stroke-width="1.85864" stroke-miterlimit="10" stroke-linecap="round" stroke-linejoin="round"/>
<path d="M366.683 209.299L338.853 251.015L348.942 256.62L374.314 213.96L366.683 209.299Z" fill="#FFCDDC"/>
<path d="M319.067 190.221C311.16 192.483 304.611 198.029 301.13 205.483L301.071 205.641C297.078 218.74 302.88 233.058 314.858 239.666L344.36 255.971C345.029 256.345 345.855 256.109 346.248 255.46L371.738 212.662C372.132 211.993 371.915 211.128 371.247 210.735L342.354 193.722C335.47 189.237 326.973 187.959 319.067 190.221Z" fill="#5F8CFF"/>
</g>
</svg>
