<svg width="382" height="348" viewBox="0 0 382 348" fill="none" xmlns="http://www.w3.org/2000/svg">
<mask id="mask0" mask-type="alpha" maskUnits="userSpaceOnUse" x="0" y="0" width="382" height="348">
<path d="M382 324C382 337.255 371.255 348 358 348L24 348C10.7452 348 2.95782e-05 337.255 2.84194e-05 324L2.19259e-06 24C1.03382e-06 10.7452 10.7452 1.93855e-06 24 7.79773e-07L358 -2.84194e-05C371.255 -2.95782e-05 382 10.7451 382 24L382 324Z" fill="#3C6EE6"/>
</mask>
<g mask="url(#mask0)">
<path d="M105.69 226.597L80.9101 228.052C77.3216 228.271 74.2315 225.52 74.0123 221.932C73.793 218.343 76.5441 215.253 80.1326 215.034L110.834 213.22C116.276 212.901 121.639 213.459 126.743 214.795C130.052 215.672 132.903 212.303 131.567 209.153L127.839 200.301C126.603 196.912 128.338 193.164 131.727 191.928C135.116 190.692 138.864 192.427 140.1 195.816L158.58 239.715C159.039 240.552 159.477 241.409 159.896 242.286L165.02 253.809L179.652 291.209C180.091 292.186 181.566 291.907 181.586 290.83L182.583 252.035L223.472 255.165L221.877 303.629C221.219 323.545 205.489 339.693 185.593 340.869C169.146 341.846 153.756 332.676 146.778 317.744L122.716 262.322C121.181 258.793 117.632 256.62 113.784 256.839C110.794 257.019 107.903 255.723 106.069 253.371L101.922 248.088L109.498 242.446L105.69 226.597Z" fill="#FFE4EE"/>
<path d="M112.309 239.135L98.6327 239.933C95.0443 240.152 91.9542 237.401 91.7349 233.812C91.5156 230.224 94.2668 227.134 97.8552 226.915L111.531 226.117C115.12 225.898 118.21 228.649 118.429 232.238C118.648 235.826 115.917 238.916 112.309 239.135Z" fill="#FFE4EE"/>
<path d="M116.615 251.934L102.939 252.732C99.3509 252.951 96.2608 250.2 96.0415 246.611C95.8223 243.023 98.5734 239.933 102.162 239.713L115.838 238.916C119.426 238.697 122.516 241.448 122.736 245.036C122.975 248.645 120.224 251.735 116.615 251.934Z" fill="#FFE4EE"/>
<path d="M97.8555 226.915L111.531 226.117C115.12 225.898 118.21 228.649 118.429 232.238C118.649 235.826 115.897 238.916 112.309 239.135" stroke="#FFBED2" stroke-width="1.88394" stroke-miterlimit="10" stroke-linecap="round" stroke-linejoin="round"/>
<path d="M104.075 239.614L115.857 238.916C119.446 238.697 122.536 241.448 122.755 245.036C122.974 248.625 120.223 251.715 116.635 251.934" stroke="#FFBED2" stroke-width="1.88394" stroke-miterlimit="10" stroke-linecap="round" stroke-linejoin="round"/>
<path d="M132.643 222.429C132.643 222.429 129.274 243.9 138.325 248.166" stroke="#FFBED2" stroke-width="1.88394" stroke-miterlimit="10" stroke-linecap="round" stroke-linejoin="round"/>
<path d="M182.582 252.014L223.471 255.144L222.713 278.07C212.845 271.691 197.714 266.368 182.283 263.756L182.582 252.014Z" fill="#FFCDDC"/>
<path d="M181.646 294.976L182.283 300.438" stroke="#FFBED2" stroke-width="1.88394" stroke-miterlimit="10" stroke-linecap="round" stroke-linejoin="round"/>
<path d="M222.536 272.35C222.476 270.257 220.981 268.463 218.927 268.064L180.451 260.269C178.298 259.83 176.763 257.897 176.843 255.704C177.82 228.372 213.026 203.811 254.334 194.959L255.53 190.473C255.809 188.4 257.623 186.785 259.836 186.666L297.973 184.413C300.186 184.273 302.16 185.669 302.698 187.682L304.572 192.427C345.56 196.953 381.923 216.928 385.99 243.383C386.329 245.536 385.033 247.63 382.96 248.327L352.219 258.574C350.544 259.133 349.388 260.608 349.169 262.302L348.83 265.392C343.726 297.888 351.461 326.416 348.331 342.564C348.571 344.797 351.043 348.166 346.517 347.907L222.915 347.887C221.1 347.887 219.645 346.372 219.705 344.558L222.536 272.35Z" fill="#FFD25F"/>
<path d="M276.582 215.852C277.507 215.852 278.256 215.102 278.256 214.177C278.256 213.252 277.507 212.502 276.582 212.502C275.657 212.502 274.907 213.252 274.907 214.177C274.907 215.102 275.657 215.852 276.582 215.852Z" fill="white"/>
<path d="M276.582 221.035C277.507 221.035 278.256 220.285 278.256 219.36C278.256 218.435 277.507 217.686 276.582 217.686C275.657 217.686 274.907 218.435 274.907 219.36C274.907 220.285 275.657 221.035 276.582 221.035Z" fill="white"/>
<path d="M255.011 202.396L262.706 218.205" stroke="#FFB428" stroke-width="1.88394" stroke-miterlimit="10" stroke-linecap="round" stroke-linejoin="round"/>
<path d="M268.328 215.852L271.697 212.004C273.91 209.493 277.738 209.233 280.25 211.446L287.686 217.985C288.503 218.723 289.779 218.623 290.477 217.766L303.635 201.558" stroke="#FFB428" stroke-width="1.88394" stroke-miterlimit="10" stroke-linecap="round" stroke-linejoin="round"/>
<path d="M294.782 148.428L261.171 149.245L259.157 188.778C258.061 200.68 267.391 202.235 279.332 201.956C291.274 201.657 300.504 199.643 298.829 187.801L294.782 148.428Z" fill="#FFDAE4"/>
<path d="M287.585 168.663C281.345 173.866 273.191 189.117 271.616 201.757C264.639 201.079 259.655 198.667 259.117 191.888C259.097 190.612 259.117 189.576 259.137 189.018C259.137 188.938 259.137 188.878 259.157 188.798L260.153 170.358L287.585 168.663Z" fill="#FFCDDC"/>
<path d="M230.55 126.419C230.012 104.45 247.914 86.328 270.143 86.8463C289.859 87.3048 306.366 103.134 307.722 122.811C308.34 131.842 305.808 140.294 301.103 147.172C296.936 153.253 293.228 159.632 289.441 165.952C283.36 176.059 271.737 182.499 258.679 180.964C246.04 179.468 235.394 170.138 232.205 157.838C231.288 154.289 231.008 150.821 231.248 147.491C231.726 141.211 231.228 134.932 230.689 128.652C230.61 127.894 230.57 127.157 230.55 126.419Z" fill="#FFE4EE"/>
<path d="M292.39 123.748L310.352 125.681C308.578 141.53 295.5 155.804 295.5 155.804L292.988 148.867C289.778 139.876 292.609 132.38 292.39 123.748Z" fill="#787885"/>
<path d="M255.21 109.015C255.21 109.015 263.284 106.264 268.567 110.112C272.395 112.923 261.67 102.396 261.67 102.396L242.412 102.875L241.574 109.494C241.574 109.494 249.409 104.41 255.21 109.015Z" fill="#787885"/>
<path d="M288.982 129.748C274.648 129.27 271.199 115.853 268.548 110.131C266.255 105.127 258.52 104.429 255.29 108.895L255.191 109.035C255.171 109.015 255.151 108.975 255.131 108.955C252.2 104.529 245.761 104.429 242.89 108.875C240.936 111.905 239.162 115.614 237.607 119.521C236.032 123.468 234.816 125.841 231.567 126.299C231.008 126.379 230.61 126.857 230.65 127.435C230.809 129.11 231.088 132.16 230.949 132.16C219.127 131.024 223.313 80.3668 251.323 77.2967C261.829 76.1604 265.079 78.5527 266.076 80.008C266.355 80.4266 266.913 80.5064 267.292 80.1675C268.348 79.2504 270.561 77.8748 274.409 77.7752C282.862 77.6755 295.68 84.2344 301.522 89.7168C311.629 99.4256 314.241 121.235 311.25 125.402C307.941 130.047 302.16 130.187 288.982 129.748Z" fill="#2D2D37"/>
<path d="M290.417 138.939C290.317 134.892 293.267 131.563 296.955 131.662C300.225 131.762 302.976 134.673 303.195 138.301C303.295 139.956 302.876 141.511 302.119 142.787C301.441 143.903 300.823 145.079 300.185 146.235C299.188 148.09 297.255 149.266 295.082 148.987C292.988 148.707 291.214 146.993 290.676 144.72C290.516 144.062 290.476 143.425 290.516 142.826C290.596 141.67 290.496 140.514 290.417 139.358C290.436 139.198 290.417 139.059 290.417 138.939Z" fill="#FFE4EE"/>
<path d="M245.481 141.072C247.815 141.072 249.708 138.439 249.708 135.191C249.708 131.943 247.815 129.31 245.481 129.31C243.147 129.31 241.255 131.943 241.255 135.191C241.255 138.439 243.147 141.072 245.481 141.072Z" fill="white"/>
<path d="M266.453 141.072C268.787 141.072 270.679 138.439 270.679 135.191C270.679 131.943 268.787 129.31 266.453 129.31C264.119 129.31 262.227 131.943 262.227 135.191C262.227 138.439 264.119 141.072 266.453 141.072Z" fill="white"/>
<path d="M243.866 138.82C245.309 138.82 246.478 137.195 246.478 135.191C246.478 133.187 245.309 131.563 243.866 131.563C242.424 131.563 241.255 133.187 241.255 135.191C241.255 137.195 242.424 138.82 243.866 138.82Z" fill="#2D2D37"/>
<path d="M264.738 138.7C266.126 138.7 267.25 137.129 267.25 135.191C267.25 133.253 266.126 131.683 264.738 131.683C263.351 131.683 262.227 133.253 262.227 135.191C262.227 137.129 263.351 138.7 264.738 138.7Z" fill="#2D2D37"/>
<path d="M249.31 149.385C249.808 155.326 252.798 159.931 255.968 159.672C259.158 159.412 261.331 154.369 260.833 148.428L249.31 149.385Z" fill="#FF7BA4"/>
<path d="M255.549 133.875C254.592 134.453 251.124 135.988 251.183 138.46C251.243 140.932 253.297 142.886 255.769 142.826" stroke="#FFBED2" stroke-width="1.88394" stroke-miterlimit="10" stroke-linecap="round" stroke-linejoin="round"/>
<path d="M296.656 143.225C295.68 142.248 295.68 140.674 296.656 139.697L297.733 138.62" stroke="#FFBED2" stroke-width="1.88394" stroke-miterlimit="10" stroke-linecap="round" stroke-linejoin="round"/>
<path d="M347.692 274.284L348.709 282.517C348.928 283.574 347.573 284.192 346.915 283.354L323.988 250.38L316.333 240.373C315.715 239.615 315.097 238.897 314.439 238.18L286.25 199.783C284.256 196.773 280.209 195.956 277.199 197.949C274.189 199.943 273.371 203.99 275.365 207L281.047 214.755C283.08 217.506 281.086 221.454 277.657 221.374C272.394 221.254 267.052 221.972 261.828 223.547L241.574 229.667C238.125 230.704 236.171 234.352 237.208 237.801C238.244 241.25 241.892 243.204 245.341 242.167L264.52 236.366C265.118 236.186 265.756 236.525 265.935 237.123C266.115 237.721 265.776 238.359 265.178 238.539L243.248 245.177C239.799 246.214 237.846 249.862 238.882 253.311C239.919 256.76 243.567 258.714 247.016 257.677L268.945 251.038C269.544 250.859 270.182 251.198 270.361 251.796C270.54 252.394 270.201 253.032 269.603 253.211L254.093 257.896C250.644 258.933 248.691 262.581 249.727 266.03C250.764 269.479 254.412 271.433 257.861 270.396L274.448 265.372L280.947 263.419L321.078 316.827C331.345 329.725 348.43 335.068 364.199 330.283C383.278 324.522 394.821 305.164 390.833 285.627L382.919 248.367L352.178 258.614C352.178 258.614 349.506 259.132 349.108 262.561C348.749 265.97 347.692 274.284 347.692 274.284Z" fill="#FFE4EE"/>
<path d="M349.885 285.746L353.294 290.072" stroke="#FFBED2" stroke-width="1.88394" stroke-miterlimit="10" stroke-linecap="round" stroke-linejoin="round"/>
<path d="M382.958 248.327L352.217 258.574C352.217 258.574 349.545 259.093 349.147 262.521C349.067 263.259 348.947 264.236 348.808 265.313L383.955 253.012L382.958 248.327Z" fill="#FFCDDC"/>
</g>
</svg>
