<svg width="382" height="348" viewBox="0 0 382 348" fill="none" xmlns="http://www.w3.org/2000/svg">
<mask id="mask0" mask-type="alpha" maskUnits="userSpaceOnUse" x="0" y="0" width="382" height="348">
<path d="M382 348L3.05176e-05 348L2.19259e-06 24C1.03382e-06 10.7452 10.7452 2.02057e-06 24 8.61793e-07L358 -2.83374e-05C371.255 -2.94962e-05 382 10.7451 382 24L382 348Z" fill="#78CD69"/>
</mask>
<g mask="url(#mask0)">
<g filter="url(#filter0_d)">
<path d="M272 210C321.706 210 362 169.706 362 120C362 70.2944 321.706 30 272 30C222.294 30 182 70.2944 182 120C182 169.706 222.294 210 272 210Z" fill="#CDFFB9"/>
<path d="M370.247 244.661L373.078 278.069C373.078 278.919 374.494 279.202 374.777 278.353L385.535 245.227L389.499 235.035C389.782 234.186 390.066 233.62 390.632 232.77L404.504 193.7C405.354 190.585 408.468 188.887 411.582 190.019C414.697 190.868 416.396 193.983 415.263 197.097L412.432 205.024C411.583 207.856 414.131 210.687 416.962 209.554C421.209 208.139 426.022 207.289 430.552 207.289H448.954C452.069 207.289 454.617 209.837 454.617 212.952C454.617 216.066 452.069 218.614 448.954 218.614H431.684C431.118 218.614 430.835 219.18 430.835 219.464C430.835 220.03 431.401 220.313 431.684 220.313H451.503C454.617 220.313 457.165 222.861 457.165 225.975C457.165 229.09 454.617 231.638 451.503 231.638H431.684C431.118 231.638 430.835 232.204 430.835 232.487C430.835 233.053 431.401 233.336 431.684 233.336H445.84C448.955 233.336 451.503 235.885 451.503 238.999C451.503 242.113 448.955 244.661 445.84 244.661H430.835H424.889L405.071 299.02C399.692 312.327 386.951 321.104 372.795 321.104C355.525 321.104 341.085 307.797 339.387 290.81L335.423 248.908L370.247 244.661Z" fill="#FFE5EF"/>
<path d="M370.247 244.661L335.14 249.474L336.556 263.63C348.164 258.534 359.772 253.721 371.097 251.173L370.247 244.661Z" fill="#FFD0DD"/>
<path d="M187.918 244.661L185.087 278.069C185.087 278.919 183.671 279.202 183.388 278.353L172.63 245.227L168.666 235.035C168.383 234.186 168.099 233.62 167.533 232.77L153.66 193.7C152.811 190.585 149.697 188.887 146.582 190.019C143.468 191.152 141.769 193.983 142.902 197.097L145.733 205.024C146.582 207.856 144.034 210.687 141.203 209.554C136.956 208.139 132.143 207.289 127.613 207.289H109.211C106.096 207.289 103.548 209.837 103.548 212.952C103.548 216.066 106.096 218.614 109.211 218.614H126.481C127.047 218.614 127.33 219.18 127.33 219.464C127.33 220.03 126.764 220.313 126.481 220.313H106.662C103.548 220.313 101 222.861 101 225.975C101 229.09 103.548 231.638 106.662 231.638H126.481C127.047 231.638 127.33 232.204 127.33 232.487C127.33 233.053 126.764 233.336 126.481 233.336H112.325C109.21 233.336 106.662 235.885 106.662 238.999C106.662 242.113 109.21 244.661 112.325 244.661H127.33H133.276L153.094 299.02C158.473 312.327 171.214 321.104 185.37 321.104C202.64 321.104 217.079 307.797 218.778 290.81L222.742 248.908L187.918 244.661Z" fill="#FFE5EF"/>
<path d="M141.486 238.433C143.185 233.62 141.203 222.861 138.655 218.048" stroke="#333333" stroke-width="0.3384" stroke-miterlimit="10" stroke-linecap="round" stroke-linejoin="round"/>
<path d="M146.582 216.349C146.299 222.578 150.829 226.825 155.926 225.975" stroke="#333333" stroke-width="0.3384" stroke-miterlimit="10" stroke-linecap="round" stroke-linejoin="round"/>
<path d="M146.582 216.349C146.299 222.578 150.829 226.825 155.926 225.975" stroke="#FFBED7" stroke-width="0.6709" stroke-miterlimit="10" stroke-linecap="round" stroke-linejoin="round"/>
<path d="M141.486 238.433C143.185 233.62 141.203 222.861 138.655 218.048" stroke="#FFBED7" stroke-width="0.6709" stroke-miterlimit="10" stroke-linecap="round" stroke-linejoin="round"/>
<path d="M187.918 244.661L223.024 249.474L221.609 263.63C210.001 258.534 198.393 253.721 187.068 251.173L187.918 244.661Z" fill="#FFD0DD"/>
<path d="M375.344 239.565C372.229 213.235 343.634 191.435 305.696 184.073C303.431 183.79 301.732 181.808 301.166 179.544C300.883 177.562 299.467 175.863 297.485 175.297C285.028 171.05 272.854 171.05 260.397 175.297C258.415 175.863 257.282 177.562 256.716 179.544C256.15 181.808 254.451 183.507 252.186 184.073C211.7 191.718 182.255 215.783 182.255 244.378L213.965 252.589C216.513 253.155 218.212 255.703 218.212 258.251L211.983 342.054C211.7 345.169 214.248 348 217.362 348H339.953C343.351 348 345.899 345.169 345.333 342.054L337.122 258.534C336.839 255.703 338.538 253.155 341.369 252.589L370.814 245.227C373.928 244.944 375.91 242.396 375.344 239.565Z" fill="#82E155"/>
<path opacity="0.5" d="M301.167 190.301L292.957 201.343C291.541 203.041 288.993 203.325 287.578 201.909L281.632 196.247C280.217 194.831 277.951 194.831 276.536 196.247L270.59 201.909C268.892 203.325 266.344 203.325 265.211 201.343L257 190.301" stroke="white" stroke-width="0.6298" stroke-miterlimit="10" stroke-linecap="round" stroke-linejoin="round"/>
<path d="M279.084 204.741C280.022 204.741 280.783 203.981 280.783 203.043C280.783 202.105 280.022 201.344 279.084 201.344C278.146 201.344 277.385 202.105 277.385 203.043C277.385 203.981 278.146 204.741 279.084 204.741Z" fill="#E5E5E5"/>
<path d="M279.084 210.12C280.022 210.12 280.783 209.36 280.783 208.422C280.783 207.484 280.022 206.723 279.084 206.723C278.146 206.723 277.385 207.484 277.385 208.422C277.385 209.36 278.146 210.12 279.084 210.12Z" fill="#E5E5E5"/>
<path d="M295.222 135.66H263.513L260.681 174.448C259.266 185.489 268.042 187.188 279.367 187.188C290.692 187.188 299.186 185.489 298.053 174.448L295.222 135.66Z" fill="#FFDBE5"/>
<path d="M288.144 154.63C282.199 159.443 273.988 175.298 272.289 187.189C265.778 186.339 261.248 184.074 260.682 177.563C260.682 176.43 260.682 175.298 260.682 174.731C260.682 174.731 260.682 174.731 260.682 174.448L262.097 155.479L288.144 154.63Z" fill="#FFD0DD"/>
<path d="M235.482 113.577C235.482 92.909 252.752 76.2049 273.42 77.3374C291.823 78.1867 307.111 93.4752 307.961 111.878C308.244 120.372 305.696 128.299 301.166 134.528C297.202 140.19 293.521 146.136 289.841 151.798C283.895 161.141 272.854 166.803 260.68 165.105C248.789 163.406 239.163 154.346 236.331 142.738C235.482 139.341 235.482 136.226 235.765 133.112C236.331 127.167 236.048 121.221 235.765 115.275C235.482 114.992 235.482 114.426 235.482 113.577Z" fill="#FFE5EF"/>
<path d="M268.042 131.696C270.075 131.696 271.723 129.415 271.723 126.6C271.723 123.786 270.075 121.504 268.042 121.504C266.009 121.504 264.361 123.786 264.361 126.6C264.361 129.415 266.009 131.696 268.042 131.696Z" fill="white"/>
<path d="M266.909 130.281C268.317 130.281 269.458 128.633 269.458 126.601C269.458 124.568 268.317 122.92 266.909 122.92C265.502 122.92 264.361 124.568 264.361 126.601C264.361 128.633 265.502 130.281 266.909 130.281Z" fill="#333333"/>
<path d="M247.373 131.696C249.405 131.696 251.053 129.415 251.053 126.6C251.053 123.786 249.405 121.504 247.373 121.504C245.34 121.504 243.692 123.786 243.692 126.6C243.692 129.415 245.34 131.696 247.373 131.696Z" fill="white"/>
<path d="M246.241 130.281C247.648 130.281 248.788 128.633 248.788 126.6C248.788 124.567 247.648 122.92 246.241 122.92C244.833 122.92 243.692 124.567 243.692 126.6C243.692 128.633 244.833 130.281 246.241 130.281Z" fill="#333333"/>
<path d="M245.674 158.593C237.464 158.593 228.121 156.328 217.929 154.063C223.874 150.099 231.235 126.883 232.368 105.083C232.651 99.7036 233.783 94.3243 235.765 89.2281C239.729 79.0358 248.789 66.2954 267.758 68.2772C268.89 68.5603 269.456 68.8435 270.023 69.4097C270.872 68.8435 271.721 68.5603 272.854 68.2772C285.594 66.5785 300.317 72.524 307.678 90.6437C313.34 104.233 319.569 123.203 322.683 133.961C324.099 139.623 322.117 145.569 317.587 148.966C308.244 155.478 296.919 157.177 281.914 158.593C286.161 153.213 286.727 131.979 281.631 111.028C277.384 112.161 268.89 113.01 265.776 113.01C264.926 110.179 263.794 105.932 265.493 103.384C265.493 103.384 262.661 108.197 262.661 113.293C260.397 113.293 258.415 113.293 256.15 113.293C255.584 110.462 255.583 105.366 257.282 103.101C257.282 103.101 253.602 108.48 253.319 113.293C251.337 113.01 249.355 112.727 247.656 112.444C246.807 109.613 247.656 105.649 249.355 102.818C249.355 102.818 245.108 106.782 245.108 111.878C244.259 111.878 243.126 111.595 242.277 111.311C240.861 110.745 238.596 109.047 237.181 107.348C236.048 111.028 235.199 112.161 235.199 116.125C235.199 116.691 235.199 117.54 235.199 118.106C235.482 124.052 235.765 127.166 235.199 133.112C234.916 136.226 235.199 139.623 235.765 142.738C237.747 149.25 241.144 154.629 245.674 158.593Z" fill="#333333"/>
<path d="M256.152 141.039C254.17 141.039 252.754 143.87 252.754 147.551C252.754 151.231 254.17 154.063 256.152 154.063C258.133 154.063 259.549 151.231 259.549 147.551C259.549 143.87 258.133 141.039 256.152 141.039Z" fill="#FF97BF"/>
<path d="M258.133 136.793H256.151C253.886 136.793 251.904 134.811 251.904 132.546C251.904 130.281 253.603 128.016 256.151 127.45V123.486" stroke="#FFBED7" stroke-width="0.6298" stroke-miterlimit="10" stroke-linecap="round" stroke-linejoin="round"/>
</g>
</g>
<defs>
<filter id="filter0_d" x="85" y="18" width="388.165" height="350" filterUnits="userSpaceOnUse" color-interpolation-filters="sRGB">
<feFlood flood-opacity="0" result="BackgroundImageFix"/>
<feColorMatrix in="SourceAlpha" type="matrix" values="0 0 0 0 0 0 0 0 0 0 0 0 0 0 0 0 0 0 127 0"/>
<feOffset dy="4"/>
<feGaussianBlur stdDeviation="8"/>
<feColorMatrix type="matrix" values="0 0 0 0 0 0 0 0 0 0 0 0 0 0 0 0 0 0 0.08 0"/>
<feBlend mode="normal" in2="BackgroundImageFix" result="effect1_dropShadow"/>
<feBlend mode="normal" in="SourceGraphic" in2="effect1_dropShadow" result="shape"/>
</filter>
</defs>
</svg>
