<svg width="382" height="348" viewBox="0 0 382 348" fill="none" xmlns="http://www.w3.org/2000/svg">
<mask id="mask0" mask-type="alpha" maskUnits="userSpaceOnUse" x="0" y="0" width="382" height="348">
<path d="M382 324C382 337.255 371.255 348 358 348L24 348C10.7452 348 2.95782e-05 337.255 2.84194e-05 324L2.19259e-06 24C1.03382e-06 10.7452 10.7452 1.93855e-06 24 7.79773e-07L358 -2.84194e-05C371.255 -2.95782e-05 382 10.7451 382 24L382 324Z" fill="#3C6EE6"/>
</mask>
<g mask="url(#mask0)">
<path d="M177.028 246.857L174.231 279.756C174.157 280.664 172.897 280.849 172.564 279.997L162.023 247.505L158.244 237.465C157.929 236.705 157.596 235.946 157.244 235.205L143.739 196.988C142.85 194.043 139.757 192.394 136.83 193.265C133.884 194.154 132.236 197.248 133.106 200.174L135.829 207.881C136.793 210.622 134.218 213.345 131.439 212.438C127.178 211.048 122.658 210.307 118.009 210.307H100.003C96.9276 210.307 94.4453 212.79 94.4453 215.865C94.4453 218.94 96.9276 221.422 100.003 221.422H117.045C117.583 221.422 118.009 221.848 118.009 222.385C118.009 222.923 117.583 223.349 117.045 223.349H97.5574C94.4823 223.349 92 225.831 92 228.906C92 231.981 94.4823 234.464 97.5574 234.464H117.045C117.583 234.464 118.009 234.89 118.009 235.427C118.009 235.964 117.583 236.39 117.045 236.39H103.263C100.188 236.39 97.7056 238.873 97.7056 241.948C97.7056 245.023 100.188 247.505 103.263 247.505H118.009H123.788L143.332 300.893C148.519 313.916 161.116 322.474 175.139 322.474C192.107 322.474 206.26 309.544 207.816 292.668L211.595 251.58L177.028 246.857Z" fill="#FFE4EE"/>
<path d="M136.404 218.828C136.052 224.904 140.572 229.017 145.5 228.35" stroke="#FFBED2" stroke-width="1.75058" stroke-miterlimit="10" stroke-linecap="round" stroke-linejoin="round"/>
<path d="M131.403 240.54C133.126 235.853 131.255 225.35 128.643 220.478" stroke="#FFBED2" stroke-width="1.75058" stroke-miterlimit="10" stroke-linecap="round" stroke-linejoin="round"/>
<path d="M177.028 246.856L211.595 251.562L210.317 265.511C198.869 260.546 187.55 255.896 176.491 253.229L177.028 246.856Z" fill="#FFCDDC"/>
<path d="M173.656 283.646L174.675 288.666" stroke="#FFBED2" stroke-width="1.75058" stroke-miterlimit="10" stroke-linecap="round" stroke-linejoin="round"/>
<path d="M356.957 246.856L359.754 279.755C359.828 280.663 361.088 280.848 361.421 279.996L371.962 247.504L375.741 237.464C376.056 236.704 376.389 235.945 376.741 235.204L390.245 196.987C391.135 194.042 394.228 192.393 397.155 193.264C400.101 194.153 401.749 197.247 400.879 200.173L398.156 207.88C397.192 210.621 399.767 213.344 402.546 212.437C406.807 211.047 411.327 210.306 415.976 210.306L433.982 210.306C437.057 210.306 439.54 212.789 439.54 215.864C439.54 218.939 437.057 221.421 433.982 221.421L416.94 221.421C416.402 221.421 415.976 221.847 415.976 222.384C415.976 222.922 416.402 223.348 416.94 223.348L436.427 223.348C439.503 223.348 441.985 225.83 441.985 228.905C441.985 231.98 439.503 234.463 436.427 234.463L416.94 234.463C416.402 234.463 415.976 234.889 415.976 235.426C415.976 235.963 416.402 236.389 416.94 236.389H430.722C433.797 236.389 436.279 238.872 436.279 241.947C436.279 245.022 433.797 247.504 430.722 247.504H415.976H410.197L390.653 300.892C385.466 313.915 372.869 322.473 358.846 322.473C341.878 322.473 327.725 309.543 326.169 292.667L322.39 251.579L356.957 246.856Z" fill="#FFE4EE"/>
<path d="M356.957 246.855L322.39 251.561L323.668 265.51C335.117 260.545 346.435 255.895 357.494 253.228L356.957 246.855Z" fill="#FFCDDC"/>
<path d="M360.329 283.646L359.311 288.666" stroke="#FFBED2" stroke-width="1.75058" stroke-miterlimit="10" stroke-linecap="round" stroke-linejoin="round"/>
<path d="M203.442 254.636C205.98 255.302 207.666 257.674 207.48 260.286L201.33 342.591C201.089 345.74 203.59 348.407 206.739 348.407H327.113C330.317 348.407 332.818 345.647 332.503 342.442L324.315 260.452C324.056 257.766 325.797 255.302 328.409 254.654L357.382 247.54C359.994 246.892 361.809 244.41 361.494 241.742C358.456 215.808 330.466 194.375 293.064 187.391C290.841 186.983 289.1 185.298 288.674 183.075C288.322 181.204 287.007 179.592 285.191 178.999C273.039 174.905 260.905 174.905 248.772 178.999C246.956 179.61 245.66 181.204 245.289 183.075C244.863 185.279 243.103 186.983 240.899 187.391C203.479 194.375 175.47 215.845 172.469 241.816C172.154 244.465 173.932 246.929 176.507 247.596L203.442 254.636Z" fill="#5F8CFF"/>
<path d="M288.673 193.337L280.671 204.137C279.392 205.86 276.873 206.082 275.317 204.6L269.556 199.117C268.129 197.746 265.869 197.746 264.424 199.117L258.663 204.6C257.107 206.082 254.588 205.878 253.31 204.137L245.307 193.337" stroke="#3C6EE6" stroke-width="1.75058" stroke-miterlimit="10" stroke-linecap="round" stroke-linejoin="round"/>
<path d="M266.963 207.694C267.884 207.694 268.63 206.947 268.63 206.027C268.63 205.106 267.884 204.359 266.963 204.359C266.042 204.359 265.296 205.106 265.296 206.027C265.296 206.947 266.042 207.694 266.963 207.694Z" fill="white"/>
<path d="M266.963 212.789C267.884 212.789 268.63 212.042 268.63 211.121C268.63 210.201 267.884 209.454 266.963 209.454C266.042 209.454 265.296 210.201 265.296 211.121C265.296 212.042 266.042 212.789 266.963 212.789Z" fill="white"/>
<path d="M282.894 139.135H251.458L248.623 177.814C247.327 188.911 255.996 190.578 267.167 190.578C278.337 190.578 287.006 188.892 285.71 177.814L282.894 139.135Z" fill="#FFDAE4"/>
<path d="M248.513 180.111C248.605 186.909 253.292 189.41 260.016 190.225C261.869 178.444 269.779 159.715 275.67 155.047L250.235 155.973L248.642 177.832C248.642 177.851 248.642 177.869 248.642 177.906L248.624 178.203V178.221C248.605 178.481 248.587 178.722 248.568 178.962C248.55 179.277 248.531 179.666 248.513 180.111Z" fill="#FFCDDC"/>
<path d="M223.374 117.09C223.374 96.5463 240.509 80.0223 261.275 81.0226C279.688 81.9118 294.768 97.0835 295.564 115.497C295.935 123.963 293.378 131.799 288.821 138.097C284.801 143.692 281.189 149.564 277.484 155.381C271.575 164.68 260.571 170.441 248.382 168.7C236.619 167.014 226.875 158.048 224.17 146.47C223.392 143.136 223.207 139.894 223.522 136.782C224.114 130.928 223.781 125.037 223.448 119.165C223.411 118.479 223.374 117.794 223.374 117.09Z" fill="#FFE4EE"/>
<path d="M249.29 168.792C248.994 168.755 248.697 168.737 248.401 168.7C236.619 167.014 226.894 158.122 224.189 146.544C223.411 143.21 223.226 139.968 223.541 136.856C223.856 133.762 223.911 130.65 223.837 127.556C223.8 122.999 224.653 118.479 226.412 114.274C229.413 107.068 234.063 99.1949 239.546 97.713C240.547 97.4351 241.602 98.0279 241.954 99.0097C242.936 101.751 246.178 107.309 256.459 109.31C267.055 111.366 270.075 126.852 280.523 128.964C286.006 130.224 283.413 146.192 283.413 146.192L285.284 171.645C291.23 171.793 297.955 170.96 304.957 169.793C307.439 169.385 309.125 167.032 308.643 164.569C307.884 160.623 307.05 156.621 306.161 152.528L301.789 124.129C301.678 123.37 301.585 122.592 301.53 121.832C301.53 119.757 301.363 117.553 300.974 115.237C296.713 89.8401 283.635 82.9489 277.818 81.0779C274.891 80.1331 266.24 77.1136 256.644 77.0024C247.067 76.8728 236.601 81.93 229.821 90.2847C223.393 100.547 220.151 111.532 219.669 116.997C219.169 122.647 218.613 131.873 218.502 136.263C218.28 144.692 217.15 154.788 216.15 165.532C215.946 167.81 217.465 169.885 219.725 170.33C227.431 171.83 237.453 172.404 249.031 172.367L249.29 168.792Z" fill="#2D2D37"/>
<path d="M280.505 130.187C280.505 126.408 283.339 123.37 286.785 123.555C289.841 123.722 292.342 126.519 292.472 129.909C292.527 131.465 292.101 132.91 291.36 134.077C290.693 135.114 290.101 136.189 289.489 137.263C288.508 138.967 286.692 140.042 284.673 139.708C282.728 139.394 281.116 137.745 280.653 135.615C280.523 135.003 280.486 134.41 280.542 133.836C280.634 132.762 280.579 131.669 280.523 130.594C280.505 130.428 280.505 130.298 280.505 130.187Z" fill="#FFE4EE"/>
<path d="M236.1 134.67C238.269 134.67 240.027 132.223 240.027 129.205C240.027 126.187 238.269 123.74 236.1 123.74C233.931 123.74 232.173 126.187 232.173 129.205C232.173 132.223 233.931 134.67 236.1 134.67Z" fill="white"/>
<path d="M255.57 134.67C257.739 134.67 259.498 132.223 259.498 129.205C259.498 126.187 257.739 123.74 255.57 123.74C253.401 123.74 251.643 126.187 251.643 129.205C251.643 132.223 253.401 134.67 255.57 134.67Z" fill="white"/>
<path d="M234.581 132.577C235.922 132.577 237.008 131.068 237.008 129.206C237.008 127.343 235.922 125.834 234.581 125.834C233.241 125.834 232.155 127.343 232.155 129.206C232.155 131.068 233.241 132.577 234.581 132.577Z" fill="#2D2D37"/>
<path d="M253.996 132.465C255.285 132.465 256.33 131.005 256.33 129.205C256.33 127.404 255.285 125.944 253.996 125.944C252.707 125.944 251.662 127.404 251.662 129.205C251.662 131.005 252.707 132.465 253.996 132.465Z" fill="#2D2D37"/>
<path d="M258.497 143.172C251.606 145.229 245.16 146.729 239.695 147.025C239.065 147.062 238.695 147.766 239.065 148.267C239.973 149.563 242.325 150.49 245.067 150.49C251.365 150.49 257.015 146.97 259.331 144.469C259.887 143.876 259.275 142.931 258.497 143.172Z" fill="#FF7BA4"/>
<path d="M287.747 130.02L286.821 130.946C285.876 131.891 285.876 133.428 286.821 134.373" stroke="#FFBED2" stroke-width="1.75058" stroke-miterlimit="10" stroke-linecap="round" stroke-linejoin="round"/>
<path d="M245.641 136.318C243.344 136.374 241.436 134.558 241.38 132.261C241.325 129.964 244.548 128.538 245.437 128.001V122.98" stroke="#FFBED2" stroke-width="1.75058" stroke-miterlimit="10" stroke-linecap="round" stroke-linejoin="round"/>
</g>
</svg>
