<svg width="393" height="348" viewBox="0 0 393 348" fill="none" xmlns="http://www.w3.org/2000/svg">
<mask id="mask0" mask-type="alpha" maskUnits="userSpaceOnUse" x="0" y="0" width="382" height="348">
<path d="M382 324C382 337.255 371.255 348 358 348L24 348C10.7452 348 2.95782e-05 337.255 2.84194e-05 324L2.19259e-06 24C1.03382e-06 10.7452 10.7452 1.93855e-06 24 7.79773e-07L358 -2.84194e-05C371.255 -2.95782e-05 382 10.7451 382 24L382 324Z" fill="#FFB428"/>
</mask>
<g mask="url(#mask0)">
<path d="M106.67 226.304L81.9101 227.76C78.3216 227.979 75.2315 225.228 75.0123 221.639C74.793 218.051 77.5441 214.961 81.1326 214.742L111.794 212.927C117.236 212.608 122.599 213.167 127.683 214.502C130.992 215.36 133.843 212.01 132.507 208.86L128.779 200.009C127.543 196.62 129.278 192.892 132.667 191.656C136.056 190.42 139.784 192.154 141.02 195.543L159.501 239.402C159.959 240.24 160.398 241.097 160.816 241.974L165.94 253.477L180.553 290.837C180.991 291.814 182.467 291.535 182.487 290.458L183.483 251.703L224.332 254.833L222.737 303.257C222.079 323.173 206.37 339.301 186.474 340.477C170.027 341.454 154.676 332.284 147.699 317.372L123.656 261.99C122.121 258.481 118.572 256.288 114.745 256.507C111.754 256.687 108.883 255.391 107.029 253.038L102.883 247.755L110.458 242.114L106.67 226.304Z" fill="#FFE4EE"/>
<path d="M113.269 238.824L99.5927 239.621C96.0042 239.841 92.9142 237.089 92.6949 233.501C92.4756 229.913 95.2267 226.822 98.8151 226.603L112.491 225.806C116.08 225.586 119.17 228.338 119.389 231.926C119.608 235.514 116.877 238.605 113.269 238.824Z" fill="#FFE4EE"/>
<path d="M117.596 251.623L103.92 252.42C100.331 252.639 97.2413 249.888 97.022 246.3C96.8027 242.711 99.5539 239.621 103.142 239.402L116.818 238.605C120.407 238.385 123.497 241.136 123.716 244.725C123.936 248.333 121.184 251.423 117.596 251.623Z" fill="#FFE4EE"/>
<path d="M98.8359 226.603L112.512 225.806C116.1 225.586 119.191 228.338 119.41 231.926C119.629 235.514 116.878 238.605 113.289 238.824" stroke="#FFBED2" stroke-width="1.88394" stroke-miterlimit="10" stroke-linecap="round" stroke-linejoin="round"/>
<path d="M105.057 239.302L116.819 238.605C120.407 238.385 123.497 241.136 123.717 244.725C123.936 248.313 121.185 251.403 117.596 251.623" stroke="#FFBED2" stroke-width="1.88394" stroke-miterlimit="10" stroke-linecap="round" stroke-linejoin="round"/>
<path d="M133.604 222.137C133.604 222.137 130.235 243.588 139.266 247.854" stroke="#FFBED2" stroke-width="1.88394" stroke-miterlimit="10" stroke-linecap="round" stroke-linejoin="round"/>
<path d="M183.504 251.704L224.352 254.834L223.595 277.74C213.746 271.36 198.615 266.057 183.185 263.446L183.504 251.704Z" fill="#FFCDDC"/>
<path d="M182.547 294.625L183.205 300.087" stroke="#FFBED2" stroke-width="1.88394" stroke-miterlimit="10" stroke-linecap="round" stroke-linejoin="round"/>
<path d="M223.414 272.017C223.354 269.924 221.859 268.15 219.806 267.731L181.35 259.956C179.196 259.517 177.662 257.584 177.741 255.391C178.718 228.098 213.905 203.537 255.172 194.706L256.368 190.22C256.647 188.147 258.462 186.552 260.675 186.412L298.772 184.16C300.985 184.02 302.959 185.396 303.497 187.429L305.371 192.174C346.339 196.699 382.662 216.655 386.729 243.09C387.068 245.243 385.772 247.336 383.699 248.034L352.998 258.261C351.323 258.82 350.167 260.295 349.967 261.989L349.628 265.079C344.525 297.555 352.26 326.063 349.13 342.191C349.369 344.424 351.841 347.793 347.316 347.514H223.813C221.999 347.514 220.544 345.999 220.603 344.185L223.414 272.017Z" fill="#FFD25F"/>
<path d="M277.421 215.559C278.346 215.559 279.095 214.809 279.095 213.884C279.095 212.959 278.346 212.209 277.421 212.209C276.496 212.209 275.746 212.959 275.746 213.884C275.746 214.809 276.496 215.559 277.421 215.559Z" fill="white"/>
<path d="M277.421 220.742C278.346 220.742 279.095 219.992 279.095 219.067C279.095 218.142 278.346 217.393 277.421 217.393C276.496 217.393 275.746 218.142 275.746 219.067C275.746 219.992 276.496 220.742 277.421 220.742Z" fill="white"/>
<path d="M255.85 202.103L263.565 217.912" stroke="#FFB428" stroke-width="1.88394" stroke-miterlimit="10" stroke-linecap="round" stroke-linejoin="round"/>
<path d="M269.187 215.558L272.556 211.71C274.769 209.199 278.596 208.939 281.108 211.152L288.544 217.671C289.362 218.409 290.638 218.309 291.315 217.452L304.473 201.244" stroke="#FFB428" stroke-width="1.88394" stroke-miterlimit="10" stroke-linecap="round" stroke-linejoin="round"/>
<path d="M297.059 147.039H263.208L260.158 188.685C258.762 200.626 268.112 202.44 280.133 202.44C292.155 202.44 301.485 200.626 300.109 188.685L297.059 147.039Z" fill="#FFDAE4"/>
<path d="M289.323 167.234C282.924 172.318 274.272 189.383 272.398 202.062C265.38 201.205 260.436 198.653 260.058 191.815C260.078 190.519 260.097 189.482 260.157 188.924C260.157 188.844 260.177 188.765 260.177 188.705L261.672 168.251L289.323 167.234Z" fill="#FFCDDC"/>
<path d="M232.147 123.993C231.868 101.884 250.109 83.8618 272.477 84.6593C292.313 85.377 308.74 101.505 309.857 121.301C310.355 130.412 307.724 138.865 302.899 145.723C298.633 151.803 294.825 158.163 290.918 164.483C284.678 174.57 272.896 180.91 259.778 179.195C247.079 177.541 236.493 168.011 233.403 155.591C232.525 152.023 232.286 148.514 232.565 145.185C233.124 138.865 232.685 132.525 232.246 126.206C232.187 125.488 232.147 124.73 232.147 123.993Z" fill="#FFE4EE"/>
<path d="M298.134 161.991C298.134 161.991 303.218 153.977 309.039 143.929C314.462 134.599 316.057 124.931 315.419 114.325C314.781 103.739 306.946 93.8705 302.819 89.8235C298.693 85.7964 290.001 80.4735 282.106 78.7391C274.211 77.0047 274.75 78.9185 272.696 79.0182C270.663 79.1179 270.663 78.0015 268.47 78.0015C266.277 78.0015 247.059 77.6227 236.712 88.9662C226.365 100.31 224.691 110.776 228.738 125.907C232.246 139.065 232.765 138.786 232.785 139.743C233.263 133.623 232.645 132.307 232.226 126.187C232.167 125.449 232.147 124.711 232.127 123.954C232.127 123.934 232.127 123.914 232.127 123.914C232.107 121.382 234.579 119.548 237.011 120.305L246.201 123.116C247.138 123.376 247.896 122.359 247.398 121.541L246.56 120.166L258.881 123.615C259.818 123.874 260.575 122.857 260.077 122.04L259.239 120.664L271.56 124.113C272.497 124.372 273.254 123.356 272.756 122.538L271.919 121.163L272.377 121.282C284.1 124.472 293.469 124.871 296.52 147" fill="#2D2D37"/>
<path d="M293.809 137.311C293.75 133.244 296.78 129.914 300.488 130.074C303.777 130.213 306.509 133.184 306.688 136.832C306.768 138.507 306.329 140.062 305.532 141.338C304.834 142.454 304.196 143.63 303.558 144.787C302.521 146.641 300.568 147.817 298.395 147.498C296.282 147.199 294.527 145.425 294.009 143.152C293.869 142.494 293.829 141.856 293.869 141.238C293.969 140.082 293.889 138.905 293.809 137.749C293.809 137.59 293.809 137.45 293.809 137.311Z" fill="#FFE4EE"/>
<path d="M245.884 140.481C248.218 140.481 250.11 137.848 250.11 134.6C250.11 131.352 248.218 128.719 245.884 128.719C243.549 128.719 241.657 131.352 241.657 134.6C241.657 137.848 243.549 140.481 245.884 140.481Z" fill="white"/>
<path d="M266.856 140.481C269.191 140.481 271.083 137.848 271.083 134.6C271.083 131.352 269.191 128.719 266.856 128.719C264.522 128.719 262.63 131.352 262.63 134.6C262.63 137.848 264.522 140.481 266.856 140.481Z" fill="white"/>
<path d="M244.248 138.227C245.691 138.227 246.86 136.603 246.86 134.599C246.86 132.595 245.691 130.971 244.248 130.971C242.806 130.971 241.637 132.595 241.637 134.599C241.637 136.603 242.806 138.227 244.248 138.227Z" fill="#2D2D37"/>
<path d="M265.142 138.108C266.529 138.108 267.654 136.537 267.654 134.6C267.654 132.662 266.529 131.091 265.142 131.091C263.755 131.091 262.63 132.662 262.63 134.6C262.63 136.537 263.755 138.108 265.142 138.108Z" fill="#2D2D37"/>
<path d="M255.973 160.44C258.009 160.415 259.622 157.297 259.575 153.477C259.527 149.657 257.838 146.58 255.801 146.606C253.764 146.631 252.152 149.748 252.199 153.568C252.246 157.389 253.936 160.465 255.973 160.44Z" fill="#FF7BA4"/>
<path d="M301.624 137.051L300.628 138.068C299.611 139.104 299.651 140.759 300.668 141.756" stroke="#FFBED2" stroke-width="1.88394" stroke-miterlimit="10" stroke-linecap="round" stroke-linejoin="round"/>
<path d="M256.17 142.255C253.698 142.315 251.645 140.361 251.585 137.889C251.525 135.417 254.994 133.882 255.951 133.304V130.254" stroke="#FFBED2" stroke-width="1.88394" stroke-miterlimit="10" stroke-linecap="round" stroke-linejoin="round"/>
<path d="M348.473 273.951L349.49 282.185C349.709 283.241 348.354 283.859 347.696 283.002L324.789 250.068L317.134 240.06C316.536 239.303 315.898 238.585 315.24 237.867L287.071 199.511C285.077 196.5 281.03 195.683 278.04 197.677C275.029 199.67 274.212 203.717 276.206 206.708L281.887 214.443C283.901 217.194 281.927 221.121 278.498 221.061C273.235 220.942 267.892 221.66 262.669 223.234L242.414 229.355C238.965 230.391 237.012 234.04 238.068 237.489C239.105 240.938 242.753 242.891 246.202 241.835L265.36 236.033C265.959 235.854 266.596 236.193 266.776 236.791C266.955 237.389 266.616 238.027 266.018 238.206L244.109 244.825C240.66 245.862 238.706 249.51 239.763 252.959C240.799 256.408 244.448 258.361 247.897 257.305L269.806 250.686C270.404 250.507 271.042 250.846 271.222 251.444C271.401 252.042 271.062 252.68 270.464 252.859L254.974 257.544C251.525 258.581 249.571 262.229 250.628 265.678C251.664 269.127 255.313 271.081 258.762 270.024L275.348 265L281.827 263.046L321.938 316.415C332.186 329.313 349.271 334.636 365.02 329.872C384.079 324.11 395.622 304.772 391.634 285.255L383.72 248.035L353.019 258.262C353.019 258.262 350.367 258.78 349.948 262.209C349.53 265.638 348.473 273.951 348.473 273.951Z" fill="#FFE4EE"/>
<path d="M350.666 285.415L354.055 289.721" stroke="#FFBED2" stroke-width="1.88394" stroke-miterlimit="10" stroke-linecap="round" stroke-linejoin="round"/>
<path d="M383.719 248.014L352.978 258.261C352.978 258.261 350.307 258.779 349.908 262.208C349.828 262.946 349.709 263.922 349.569 264.999L384.716 252.699L383.719 248.014Z" fill="#FFCDDC"/>
</g>
</svg>
