<svg width="382" height="348" viewBox="0 0 382 348" fill="none" xmlns="http://www.w3.org/2000/svg">
<mask id="mask0" mask-type="alpha" maskUnits="userSpaceOnUse" x="0" y="0" width="382" height="348">
<path d="M382 348L3.05176e-05 348L2.19259e-06 24C1.03382e-06 10.7452 10.7452 2.02057e-06 24 8.61793e-07L358 -2.83374e-05C371.255 -2.94962e-05 382 10.7451 382 24L382 348Z" fill="#646EDC"/>
</mask>
<g mask="url(#mask0)">
<g filter="url(#filter0_d)">
<path d="M264.857 44.0571C268.083 38.6476 275.917 38.6476 279.143 44.0571V44.0571C281.803 48.5177 287.856 49.4762 291.764 46.0561V46.0561C296.504 41.9082 303.955 44.3292 305.352 50.4709V50.4709C306.503 55.5351 311.963 58.3171 316.737 56.272V56.272C322.526 53.7918 328.865 58.3969 328.295 64.6695V64.6695C327.825 69.8418 332.158 74.1747 337.33 73.7049V73.7049C343.603 73.1352 348.208 79.4736 345.728 85.2632V85.2632C343.683 90.0371 346.465 95.4969 351.529 96.6484V96.6484C357.671 98.045 360.092 105.496 355.944 110.236V110.236C352.524 114.144 353.482 120.197 357.943 122.857V122.857C363.352 126.083 363.352 133.917 357.943 137.143V137.143C353.482 139.803 352.524 145.856 355.944 149.764V149.764C360.092 154.504 357.671 161.955 351.529 163.352V163.352C346.465 164.503 343.683 169.963 345.728 174.737V174.737C348.208 180.526 343.603 186.865 337.33 186.295V186.295C332.158 185.825 327.825 190.158 328.295 195.33V195.33C328.865 201.603 322.526 206.208 316.737 203.728V203.728C311.963 201.683 306.503 204.465 305.352 209.529V209.529C303.955 215.671 296.504 218.092 291.764 213.944V213.944C287.856 210.524 281.803 211.482 279.143 215.943V215.943C275.917 221.352 268.083 221.352 264.857 215.943V215.943C262.197 211.482 256.144 210.524 252.236 213.944V213.944C247.496 218.092 240.045 215.671 238.648 209.529V209.529C237.497 204.465 232.037 201.683 227.263 203.728V203.728C221.474 206.208 215.135 201.603 215.705 195.33V195.33C216.175 190.158 211.842 185.825 206.67 186.295V186.295C200.397 186.865 195.792 180.526 198.272 174.737V174.737C200.317 169.963 197.535 164.503 192.471 163.352V163.352C186.329 161.955 183.908 154.504 188.056 149.764V149.764C191.476 145.856 190.518 139.803 186.057 137.143V137.143C180.648 133.917 180.648 126.083 186.057 122.857V122.857C190.518 120.197 191.476 114.144 188.056 110.236V110.236C183.908 105.496 186.329 98.045 192.471 96.6484V96.6484C197.535 95.4969 200.317 90.0371 198.272 85.2632V85.2632C195.792 79.4736 200.397 73.1352 206.67 73.7049V73.7049C211.842 74.1747 216.175 69.8418 215.705 64.6695V64.6695C215.135 58.3969 221.474 53.7918 227.263 56.272V56.272C232.037 58.3171 237.497 55.5351 238.648 50.4709V50.4709C240.045 44.3292 247.496 41.9082 252.236 46.0561V46.0561C256.144 49.4762 262.197 48.5177 264.857 44.0571V44.0571Z" fill="#CDFFB9"/>
<path d="M105.821 236.191L80.9223 237.691C77.3225 237.991 74.3227 235.291 74.0228 231.691C73.7228 228.091 76.4226 225.091 80.0224 224.791L110.92 222.992C116.32 222.692 121.72 223.292 126.819 224.491C130.119 225.391 133.119 222.092 131.619 218.792L128.019 209.792C126.819 206.493 128.619 202.593 131.919 201.393C135.219 200.193 139.118 201.993 140.318 205.293L158.917 249.39C159.517 250.29 159.817 251.19 160.117 252.09L165.217 263.489L179.916 300.987C180.216 301.886 181.716 301.586 181.716 300.687L182.616 261.689L223.713 264.689L222.213 313.286C221.613 333.384 205.714 349.583 185.915 350.483C169.417 351.383 154.118 342.384 146.918 327.385L122.92 271.888C121.42 268.289 117.82 266.189 113.92 266.489C110.92 266.789 107.921 265.289 106.121 262.889L101.921 257.489L109.42 251.79L105.821 236.191Z" fill="#FFE5EF"/>
<path d="M112.42 248.79L98.6208 249.69C95.021 249.99 92.0212 247.29 91.7213 243.69C91.4213 240.09 94.1211 237.09 97.7209 236.79L111.52 235.89C115.12 235.59 118.12 238.29 118.419 241.89C118.719 245.49 116.02 248.49 112.42 248.79Z" fill="#FFE5EF"/>
<path d="M116.92 261.69L103.121 262.59C99.5208 262.89 96.521 260.19 96.221 256.59C95.921 252.99 98.6209 249.99 102.221 249.691L116.02 248.791C119.619 248.491 122.619 251.19 122.919 254.79C123.219 258.39 120.519 261.39 116.92 261.69Z" fill="#FFE5EF"/>
<path d="M98.0212 236.49L111.82 235.59C115.42 235.29 118.42 237.99 118.72 241.59C119.02 245.19 116.32 248.19 112.72 248.49" stroke="#FFBED7" stroke-width="0.6298" stroke-miterlimit="10" stroke-linecap="round" stroke-linejoin="round"/>
<path d="M104.321 249.391L116.02 248.791C119.62 248.491 122.62 251.19 122.92 254.79C123.22 258.39 120.52 261.39 116.92 261.69" stroke="#FFBED7" stroke-width="0.6298" stroke-miterlimit="10" stroke-linecap="round" stroke-linejoin="round"/>
<path d="M132.819 231.991C132.819 231.991 129.519 253.589 138.518 257.789" stroke="#FFBED7" stroke-width="0.6298" stroke-miterlimit="10" stroke-linecap="round" stroke-linejoin="round"/>
<path d="M182.915 261.69L224.013 264.69L223.113 287.788C213.213 281.489 197.914 276.089 182.615 273.389L182.915 261.69Z" fill="#FFD0DD"/>
<path d="M255.211 205.292L256.411 200.793C256.711 198.693 258.511 197.193 260.611 196.893L298.708 194.493C300.808 194.493 302.908 195.693 303.508 197.793L305.308 202.593C346.405 207.092 383.003 227.191 386.903 253.589C387.203 255.689 386.003 257.789 383.903 258.389L353.005 268.588C351.205 269.188 350.305 270.688 350.005 272.188L349.705 275.188C344.605 307.886 352.405 336.384 349.105 352.583C349.405 354.683 351.805 358.282 347.305 357.982H239.912C237.559 357.982 232.559 357.982 230.013 357.982C229.713 357.982 229.413 357.982 229.413 357.982C225.813 357.083 226.713 355.583 227.013 354.083C227.013 352.883 228.213 346.583 228.213 345.683C228.213 340.884 229.113 313.885 223.113 282.687C223.113 280.588 221.613 278.788 219.514 278.488L181.416 270.688C179.316 270.388 177.816 268.288 177.816 266.188C178.716 238.59 213.814 213.992 255.211 205.292Z" fill="#82E155"/>
<path d="M277.709 226.292C278.704 226.292 279.509 225.486 279.509 224.492C279.509 223.498 278.704 222.692 277.709 222.692C276.715 222.692 275.91 223.498 275.91 224.492C275.91 225.486 276.715 226.292 277.709 226.292Z" fill="#E5E5E5"/>
<path d="M277.709 231.391C278.704 231.391 279.509 230.585 279.509 229.591C279.509 228.597 278.704 227.791 277.709 227.791C276.715 227.791 275.91 228.597 275.91 229.591C275.91 230.585 276.715 231.391 277.709 231.391Z" fill="#E5E5E5"/>
<path opacity="0.5" d="M256.111 212.792L263.61 228.391" stroke="white" stroke-width="0.6298" stroke-miterlimit="10" stroke-linecap="round" stroke-linejoin="round"/>
<path opacity="0.5" d="M269.31 225.992L272.61 222.092C274.71 219.692 278.61 219.392 281.31 221.492L288.809 228.091C289.709 228.691 290.909 228.691 291.509 227.791L304.708 211.593" stroke="white" stroke-width="0.6298" stroke-miterlimit="10" stroke-linecap="round" stroke-linejoin="round"/>
<path d="M297.508 157.296H263.61L260.611 198.993C259.111 210.992 268.71 212.792 280.709 212.792C292.708 212.792 302.008 210.992 300.808 198.993L297.508 157.296Z" fill="#FFDBE5"/>
<path d="M289.709 177.395C283.409 182.495 274.71 199.594 272.61 212.193C265.711 211.293 260.611 208.893 260.311 201.993C260.311 200.793 260.311 199.594 260.311 198.994V198.694L261.811 178.295L289.709 177.395Z" fill="#FFD0DD"/>
<path d="M232.413 134.197C232.113 111.999 250.411 94.0001 272.91 94.6C292.709 95.2 309.208 111.399 310.407 131.498C311.007 140.497 308.308 149.196 303.508 156.096C299.308 162.096 295.409 168.695 291.509 174.995C285.209 185.194 273.51 191.494 260.311 189.694C247.712 187.894 236.912 178.595 233.912 165.995C233.013 162.396 232.713 158.796 233.013 155.496C233.613 149.196 233.012 142.897 232.712 136.597C232.412 135.697 232.413 134.797 232.413 134.197Z" fill="#FFE5EF"/>
<path d="M225.513 134.197C222.213 105.699 241.112 88.3 265.41 88C269.01 88 271.41 89.1999 272.91 88.8999C273.51 88.8999 276.51 87.7 280.11 88.3C301.408 91.5998 319.407 112.298 315.207 134.197C315.207 134.197 310.708 164.195 299.608 169.895C298.708 170.195 297.808 169.895 297.508 168.995L292.409 132.697C292.409 132.097 291.809 131.497 290.909 131.497C287.909 131.497 279.809 131.497 274.41 128.497C273.21 127.897 272.01 129.097 272.61 130.297C272.91 130.897 273.21 131.197 273.81 131.497C275.61 132.697 260.911 131.797 254.011 125.498C253.111 124.598 251.611 125.498 251.611 126.697C251.911 127.897 252.211 129.097 253.111 129.697C255.211 131.797 242.312 130.897 239.312 122.498V122.198C239.312 122.198 232.713 129.397 233.013 137.797C233.013 140.497 233.312 142.296 233.312 143.796C233.312 144.996 231.813 145.896 230.913 144.696C228.513 142.296 226.413 138.697 225.513 134.197Z" fill="#333333"/>
<path d="M294.209 147.397C294.209 143.197 297.209 139.898 300.808 140.198C304.108 140.198 306.808 143.197 307.108 147.097C307.108 148.897 306.808 150.397 305.908 151.597C305.308 152.797 304.708 153.997 303.808 155.197C302.908 156.997 300.808 158.196 298.708 157.896C296.609 157.597 294.809 155.797 294.209 153.397C294.209 152.797 293.909 152.197 294.209 151.597C294.209 150.397 294.209 149.197 294.209 147.997C294.209 147.697 294.209 147.697 294.209 147.397Z" fill="#FFE5EF"/>
<path d="M246.211 150.697C248.531 150.697 250.411 148.011 250.411 144.697C250.411 141.384 248.531 138.698 246.211 138.698C243.892 138.698 242.012 141.384 242.012 144.697C242.012 148.011 243.892 150.697 246.211 150.697Z" fill="white"/>
<path d="M267.21 150.697C269.529 150.697 271.41 148.011 271.41 144.697C271.41 141.384 269.529 138.698 267.21 138.698C264.89 138.698 263.01 141.384 263.01 144.697C263.01 148.011 264.89 150.697 267.21 150.697Z" fill="white"/>
<path d="M244.412 148.297C245.903 148.297 247.112 146.685 247.112 144.697C247.112 142.709 245.903 141.097 244.412 141.097C242.921 141.097 241.712 142.709 241.712 144.697C241.712 146.685 242.921 148.297 244.412 148.297Z" fill="#333333"/>
<path d="M265.41 148.297C266.735 148.297 267.81 146.685 267.81 144.697C267.81 142.709 266.735 141.097 265.41 141.097C264.085 141.097 263.01 142.709 263.01 144.697C263.01 146.685 264.085 148.297 265.41 148.297Z" fill="#333333"/>
<path d="M348.805 284.788L349.704 293.187C350.004 294.387 348.505 294.987 347.905 294.087L324.806 261.089L317.007 251.19C316.407 250.29 315.807 249.69 315.207 249.09L287.309 210.093C285.209 207.093 281.309 206.193 278.309 208.293C275.309 210.393 274.409 214.292 276.509 217.292L282.209 225.092C284.309 227.792 282.209 231.691 278.909 231.691C273.51 231.691 268.41 232.291 263.01 233.791L242.612 239.791C239.012 240.691 237.212 244.59 238.112 247.89C239.012 251.49 242.911 253.29 246.211 252.39L265.41 246.69C266.01 246.39 266.61 246.99 266.91 247.59C267.21 248.19 266.61 248.79 266.01 249.09L244.112 255.69C240.512 256.59 238.712 260.489 239.612 263.789C240.512 267.389 244.411 269.189 247.711 268.289L269.61 261.689C270.21 261.389 270.81 261.989 271.11 262.589C271.41 263.189 270.81 263.789 270.21 264.089L254.611 268.889C251.011 269.789 249.211 273.689 250.111 276.988C251.011 280.588 254.911 282.388 258.21 281.488L274.709 276.388L281.309 274.289L322.406 327.385C332.606 340.284 349.705 345.684 365.604 340.884C384.802 335.185 396.201 315.686 392.302 296.187L384.502 258.99L353.604 269.189C353.604 269.189 350.905 269.789 350.605 273.089C350.005 276.388 348.805 284.788 348.805 284.788Z" fill="#FFE5EF"/>
<path d="M351.205 296.188L354.505 300.687" stroke="#FFBED7" stroke-width="0.6298" stroke-miterlimit="10" stroke-linecap="round" stroke-linejoin="round"/>
<path d="M256.157 170.492C258.145 170.468 259.718 167.359 259.671 163.549C259.623 159.739 257.974 156.67 255.986 156.695C253.998 156.719 252.425 159.828 252.472 163.638C252.519 167.448 254.169 170.517 256.157 170.492Z" fill="#FF97BF"/>
<path d="M182.016 304.887L182.616 310.286" stroke="#FFBED7" stroke-width="0.6298" stroke-miterlimit="10" stroke-linecap="round" stroke-linejoin="round"/>
<path d="M302.008 147.097L301.108 147.997C300.208 148.897 300.208 150.696 301.108 151.596" stroke="#FFBED7" stroke-width="0.6298" stroke-miterlimit="10" stroke-linecap="round" stroke-linejoin="round"/>
<path d="M256.411 152.496C254.011 152.496 251.911 150.696 251.911 147.996C251.911 145.596 255.211 144.096 256.411 143.496V140.497" stroke="#FFBED7" stroke-width="0.6298" stroke-miterlimit="10" stroke-linecap="round" stroke-linejoin="round"/>
<path d="M384.202 258.69L353.304 268.889C353.304 268.889 350.605 269.489 350.305 272.789C350.305 273.389 350.005 274.589 350.005 275.489L385.402 263.19L384.202 258.69Z" fill="#FFD0DD"/>
</g>
</g>
<defs>
<filter id="filter0_d" x="58" y="28" width="351.064" height="350" filterUnits="userSpaceOnUse" color-interpolation-filters="sRGB">
<feFlood flood-opacity="0" result="BackgroundImageFix"/>
<feColorMatrix in="SourceAlpha" type="matrix" values="0 0 0 0 0 0 0 0 0 0 0 0 0 0 0 0 0 0 127 0"/>
<feOffset dy="4"/>
<feGaussianBlur stdDeviation="8"/>
<feColorMatrix type="matrix" values="0 0 0 0 0 0 0 0 0 0 0 0 0 0 0 0 0 0 0.08 0"/>
<feBlend mode="normal" in2="BackgroundImageFix" result="effect1_dropShadow"/>
<feBlend mode="normal" in="SourceGraphic" in2="effect1_dropShadow" result="shape"/>
</filter>
</defs>
</svg>
