<svg width="382" height="348" viewBox="0 0 382 348" fill="none" xmlns="http://www.w3.org/2000/svg">
<mask id="mask0" mask-type="alpha" maskUnits="userSpaceOnUse" x="0" y="0" width="382" height="348">
<path d="M382 324C382 337.255 371.255 348 358 348L24 348C10.7452 348 2.95782e-05 337.255 2.84194e-05 324L2.19259e-06 24C1.03382e-06 10.7452 10.7452 1.93855e-06 24 7.79773e-07L358 -2.84194e-05C371.255 -2.95782e-05 382 10.7451 382 24L382 324Z" fill="#F04682"/>
</mask>
<g mask="url(#mask0)">
<path d="M106.671 226.341L81.9102 227.796C78.3217 228.016 75.2315 225.264 75.0123 221.676C74.793 218.088 77.5441 214.997 81.1326 214.778L111.794 212.964C117.236 212.645 122.599 213.203 127.683 214.539C130.992 215.396 133.843 212.047 132.507 208.897L128.779 200.046C127.543 196.657 129.278 192.928 132.667 191.692C136.056 190.456 139.784 192.191 141.02 195.58L159.501 239.439C159.959 240.276 160.398 241.133 160.816 242.011L165.94 253.514L180.553 290.873C180.991 291.85 182.467 291.571 182.487 290.495L183.484 251.739L224.332 254.869L222.737 303.294C222.079 323.21 206.37 339.338 186.474 340.514C170.027 341.491 154.676 332.32 147.699 317.408L123.656 262.026C122.121 258.518 118.572 256.325 114.745 256.544C111.754 256.723 108.883 255.427 107.029 253.075L102.883 247.792L110.458 242.15L106.671 226.341Z" fill="#FFE4EE"/>
<path d="M113.27 238.861L99.5943 239.658C96.0058 239.878 92.9156 237.127 92.6963 233.538C92.477 229.95 95.2282 226.86 98.8167 226.64L112.493 225.843C116.081 225.624 119.171 228.375 119.391 231.963C119.61 235.552 116.879 238.642 113.27 238.861Z" fill="#FFE4EE"/>
<path d="M117.597 251.66L103.92 252.457C100.332 252.677 97.242 249.925 97.0227 246.337C96.8035 242.748 99.5546 239.658 103.143 239.439L116.819 238.642C120.408 238.422 123.498 241.174 123.717 244.762C123.916 248.37 121.185 251.46 117.597 251.66Z" fill="#FFE4EE"/>
<path d="M183.505 251.739L224.354 254.869L223.596 277.775C213.748 271.396 198.617 266.093 183.186 263.481L183.505 251.739Z" fill="#FFCDDC"/>
<path d="M98.8374 226.64L112.514 225.843C116.102 225.624 119.192 228.375 119.411 231.963C119.631 235.552 116.879 238.642 113.291 238.861" stroke="#FFBED2" stroke-width="1.88394" stroke-miterlimit="10" stroke-linecap="round" stroke-linejoin="round"/>
<path d="M105.056 239.339L116.819 238.642C120.407 238.422 123.497 241.174 123.716 244.762C123.936 248.35 121.185 251.44 117.596 251.66" stroke="#FFBED2" stroke-width="1.88394" stroke-miterlimit="10" stroke-linecap="round" stroke-linejoin="round"/>
<path d="M133.604 222.174C133.604 222.174 130.235 243.625 139.266 247.892" stroke="#FFBED2" stroke-width="1.88394" stroke-miterlimit="10" stroke-linecap="round" stroke-linejoin="round"/>
<path d="M182.547 294.661L183.205 300.124" stroke="#FFBED2" stroke-width="1.88394" stroke-miterlimit="10" stroke-linecap="round" stroke-linejoin="round"/>
<path d="M223.416 272.054C223.356 269.96 221.861 268.186 219.807 267.767L181.351 259.992C179.198 259.554 177.663 257.62 177.742 255.427C178.719 228.135 213.906 203.574 255.173 194.742L256.369 190.257C256.649 188.183 258.463 186.589 260.676 186.449L298.773 184.196C300.986 184.057 302.96 185.432 303.498 187.466L305.372 192.21C346.34 196.736 382.663 216.692 386.73 243.127C387.069 245.28 385.773 247.373 383.7 248.071L352.999 258.298C351.324 258.856 350.168 260.331 349.968 262.026L349.63 265.116C344.526 297.592 352.261 326.1 349.131 342.228C349.37 344.461 351.842 347.83 347.317 347.551H223.814C222 347.551 220.545 346.036 220.605 344.222L223.416 272.054Z" fill="#FF6991"/>
<path d="M277.422 215.595C278.346 215.595 279.096 214.846 279.096 213.921C279.096 212.996 278.346 212.246 277.422 212.246C276.497 212.246 275.747 212.996 275.747 213.921C275.747 214.846 276.497 215.595 277.422 215.595Z" fill="white"/>
<path d="M277.422 220.779C278.346 220.779 279.096 220.029 279.096 219.104C279.096 218.179 278.346 217.43 277.422 217.43C276.497 217.43 275.747 218.179 275.747 219.104C275.747 220.029 276.497 220.779 277.422 220.779Z" fill="white"/>
<path d="M255.851 202.139L263.566 217.948" stroke="#F04682" stroke-width="1.88394" stroke-miterlimit="10" stroke-linecap="round" stroke-linejoin="round"/>
<path d="M269.188 215.595L272.557 211.748C274.77 209.236 278.597 208.976 281.109 211.189L288.545 217.708C289.363 218.446 290.639 218.346 291.316 217.489L304.474 201.281" stroke="#F04682" stroke-width="1.88394" stroke-miterlimit="10" stroke-linecap="round" stroke-linejoin="round"/>
<path d="M296.381 145.641H263.287L260.297 186.37C258.941 198.052 268.072 199.826 279.834 199.826C291.596 199.826 300.727 198.052 299.371 186.37L296.381 145.641Z" fill="#FFDAE4"/>
<path d="M288.824 165.377C282.564 170.341 274.112 187.047 272.258 199.447C265.4 198.61 260.555 196.118 260.177 189.44C260.196 188.184 260.216 187.147 260.256 186.609C260.256 186.529 260.276 186.469 260.276 186.389L261.731 166.374L288.824 165.377Z" fill="#FFCDDC"/>
<path d="M233.702 122.416C233.702 100.785 251.764 83.3812 273.614 84.4378C293.011 85.3748 308.881 101.343 309.718 120.741C310.097 129.652 307.405 137.906 302.621 144.544C298.374 150.426 294.567 156.606 290.679 162.746C284.459 172.554 272.856 178.595 260.038 176.761C247.637 174.987 237.39 165.537 234.539 153.356C233.722 149.847 233.523 146.418 233.862 143.169C234.48 137.009 234.141 130.809 233.782 124.609C233.722 123.871 233.702 123.153 233.702 122.416Z" fill="#FFE4EE"/>
<path d="M270.503 136.709C272.672 136.709 274.431 134.237 274.431 131.187C274.431 128.137 272.672 125.665 270.503 125.665C268.334 125.665 266.576 128.137 266.576 131.187C266.576 134.237 268.334 136.709 270.503 136.709Z" fill="white"/>
<path d="M269.247 135.294C270.723 135.294 271.918 133.509 271.918 131.307C271.918 129.104 270.723 127.319 269.247 127.319C267.772 127.319 266.576 129.104 266.576 131.307C266.576 133.509 267.772 135.294 269.247 135.294Z" fill="#2D2D37"/>
<path d="M248.873 136.709C251.042 136.709 252.801 134.237 252.801 131.187C252.801 128.137 251.042 125.665 248.873 125.665C246.704 125.665 244.946 128.137 244.946 131.187C244.946 134.237 246.704 136.709 248.873 136.709Z" fill="white"/>
<path d="M247.619 135.294C249.094 135.294 250.29 133.509 250.29 131.307C250.29 129.104 249.094 127.319 247.619 127.319C246.143 127.319 244.947 129.104 244.947 131.307C244.947 133.509 246.143 135.294 247.619 135.294Z" fill="#2D2D37"/>
<path d="M236.214 124.289L233.761 124.608C233.921 127.24 234.06 129.871 234.14 132.523C235.755 132.463 233.821 124.468 236.214 124.329" fill="#787885"/>
<path d="M284.917 128.854C288.286 128.854 286.193 134.815 291.117 134.815C300.168 134.815 290.399 149.049 299.51 149.049C300.527 147.534 301.583 146.019 302.64 144.544C305.57 140.477 307.723 135.792 308.86 130.728C302.879 131.307 294.187 130.25 284.917 128.834" fill="#787885"/>
<path d="M233.703 122.415C233.703 100.605 252.064 83.0812 274.153 84.4568C293.63 85.6729 309.26 101.921 309.738 121.438C309.818 124.628 309.499 127.738 308.821 130.728C309.499 127.758 310.217 124.648 310.137 121.438C309.658 101.921 293.63 84.3172 274.153 83.1012C252.044 81.7256 233.424 97.8936 233.424 119.703C233.424 120.441 233.723 123.85 233.763 124.568C233.763 124.568 233.763 124.568 233.763 124.588C233.763 124.588 233.763 124.588 233.763 124.568C233.723 123.87 233.703 123.152 233.703 122.415Z" fill="#2D2D37"/>
<path d="M279.296 113.425C276.325 111.69 268.411 108.819 257.466 108.819C241.796 108.819 240.281 113.205 240.281 113.205C240.281 113.205 240.261 113.285 240.241 113.405C242.235 112.109 246.98 110.155 257.466 110.155C268.411 110.155 277.681 113.026 280.651 114.76C280.671 114.78 280.691 114.78 280.691 114.8C280.332 114.222 279.874 113.763 279.296 113.425Z" fill="#2D2D37"/>
<path d="M282.625 117.929C282.884 121.498 282.366 128.834 284.898 128.834C294.168 130.25 302.86 131.307 308.841 130.728C309.498 127.758 309.837 124.648 309.758 121.438C309.279 101.921 293.649 85.6533 274.172 84.4572C252.063 83.0816 233.722 100.605 233.722 122.415C233.722 123.153 233.742 123.87 233.782 124.588C233.782 124.588 233.782 124.588 233.782 124.608L236.234 124.289C238.267 124.169 238.925 114.52 238.925 114.52C238.925 114.52 239.244 114.042 240.241 113.404C240.261 113.284 240.281 113.205 240.281 113.205C240.281 113.205 241.796 108.819 257.466 108.819C268.411 108.819 276.325 111.69 279.296 113.424C279.874 113.763 280.352 114.221 280.691 114.78C281.807 115.457 282.545 116.614 282.625 117.929Z" fill="#2D2D37"/>
<path d="M238.925 114.501C238.925 114.501 241.796 110.115 257.466 110.115C268.41 110.115 277.681 112.985 280.651 114.72C281.807 115.398 282.545 116.574 282.645 117.91C282.904 121.478 282.385 128.815 284.917 128.815C294.188 130.23 302.879 131.287 308.86 130.708C309.538 127.738 310.256 124.628 310.176 121.418C309.698 101.901 293.669 84.2977 274.192 83.0816C252.083 81.706 233.463 97.874 233.463 119.684C233.463 120.422 233.762 123.831 233.802 124.548C233.802 124.548 233.802 124.548 233.802 124.568L236.254 124.249C238.248 124.15 238.925 114.501 238.925 114.501Z" fill="#2D2D37"/>
<path d="M289.761 132.682C289.761 128.695 292.751 125.485 296.38 125.685C299.589 125.864 302.221 128.795 302.361 132.363C302.42 133.998 301.982 135.513 301.184 136.749C300.486 137.826 299.849 138.962 299.211 140.098C298.174 141.912 296.26 143.009 294.127 142.69C292.074 142.371 290.379 140.617 289.901 138.384C289.761 137.746 289.741 137.108 289.781 136.51C289.881 135.373 289.821 134.237 289.761 133.101C289.761 132.941 289.761 132.802 289.761 132.682Z" fill="#FFE4EE"/>
<path d="M348.473 273.988L349.489 282.221C349.709 283.278 348.353 283.896 347.695 283.039L324.789 250.105L317.133 240.097C316.535 239.339 315.897 238.622 315.239 237.904L287.07 199.547C285.076 196.537 281.03 195.72 278.039 197.713C275.029 199.707 274.211 203.754 276.205 206.744L281.887 214.479C283.9 217.23 281.927 221.158 278.498 221.098C273.235 220.978 267.892 221.696 262.669 223.271L242.414 229.391C238.965 230.428 237.011 234.076 238.068 237.525C239.104 240.974 242.753 242.928 246.201 241.871L265.36 236.07C265.958 235.89 266.596 236.229 266.775 236.827C266.955 237.426 266.616 238.063 266.018 238.243L244.108 244.862C240.659 245.898 238.706 249.547 239.762 252.995C240.799 256.444 244.447 258.398 247.896 257.341L269.806 250.723C270.404 250.543 271.042 250.882 271.221 251.48C271.4 252.078 271.062 252.716 270.464 252.896L254.973 257.581C251.524 258.617 249.571 262.266 250.627 265.715C251.664 269.163 255.312 271.117 258.761 270.061L275.348 265.037L281.827 263.083L321.938 316.451C332.185 329.35 349.27 334.673 365.019 329.908C384.078 324.147 395.621 304.809 391.634 285.292L383.719 248.071L353.018 258.298C353.018 258.298 350.367 258.817 349.948 262.246C349.529 265.675 348.473 273.988 348.473 273.988Z" fill="#FFE4EE"/>
<path d="M350.666 285.451L354.055 289.757" stroke="#FFBED2" stroke-width="1.88394" stroke-miterlimit="10" stroke-linecap="round" stroke-linejoin="round"/>
<path d="M256.549 147.674C254.555 147.674 252.94 150.704 252.94 154.432C252.94 158.16 254.555 161.19 256.549 161.19C258.542 161.19 260.157 158.16 260.157 154.432C260.157 150.704 258.542 147.674 256.549 147.674Z" fill="#FF7BA4"/>
<path d="M297.398 132.522L296.421 133.499C295.424 134.496 295.424 136.111 296.421 137.108" stroke="#FFBED2" stroke-width="1.88394" stroke-miterlimit="10" stroke-linecap="round" stroke-linejoin="round"/>
<path d="M258.462 140.397C256.01 140.457 253.977 138.523 253.917 136.071C253.857 133.619 257.286 132.084 258.243 131.526V126.163" stroke="#FFBED2" stroke-width="1.88394" stroke-miterlimit="10" stroke-linecap="round" stroke-linejoin="round"/>
<path d="M383.719 248.051L352.978 258.298C352.978 258.298 350.307 258.817 349.908 262.246C349.829 262.983 349.709 263.96 349.569 265.037L384.716 252.736L383.719 248.051Z" fill="#FFCDDC"/>
</g>
</svg>
