<svg width="382" height="348" viewBox="0 0 382 348" fill="none" xmlns="http://www.w3.org/2000/svg">
<mask id="mask0" mask-type="alpha" maskUnits="userSpaceOnUse" x="0" y="0" width="382" height="349">
<path d="M382 348L3.05176e-05 348L2.19259e-06 24.0001C1.03382e-06 10.7453 10.7452 9.35733e-05 24 9.24145e-05L358 6.32153e-05C371.255 6.20565e-05 382 10.7452 382 24.0001L382 348Z" fill="#646EDC"/>
</mask>
<g mask="url(#mask0)">
<g filter="url(#filter0_d)">
<path d="M264.857 44.0572C268.083 38.6477 275.917 38.6477 279.143 44.0572V44.0572C281.803 48.5177 287.856 49.4763 291.764 46.0561V46.0561C296.504 41.9083 303.955 44.3293 305.352 50.471V50.471C306.503 55.5352 311.963 58.3171 316.737 56.272V56.272C322.526 53.7919 328.865 58.397 328.295 64.6696V64.6696C327.825 69.8418 332.158 74.1748 337.33 73.705V73.705C343.603 73.1353 348.208 79.4737 345.728 85.2632V85.2632C343.683 90.0371 346.465 95.497 351.529 96.6485V96.6485C357.671 98.045 360.092 105.496 355.944 110.236V110.236C352.524 114.144 353.482 120.197 357.943 122.857V122.857C363.352 126.083 363.352 133.917 357.943 137.143V137.143C353.482 139.804 352.524 145.856 355.944 149.764V149.764C360.092 154.504 357.671 161.955 351.529 163.352V163.352C346.465 164.503 343.683 169.963 345.728 174.737V174.737C348.208 180.526 343.603 186.865 337.33 186.295V186.295C332.158 185.825 327.825 190.158 328.295 195.331V195.331C328.865 201.603 322.526 206.208 316.737 203.728V203.728C311.963 201.683 306.503 204.465 305.352 209.529V209.529C303.955 215.671 296.504 218.092 291.764 213.944V213.944C287.856 210.524 281.803 211.482 279.143 215.943V215.943C275.917 221.352 268.083 221.352 264.857 215.943V215.943C262.197 211.482 256.144 210.524 252.236 213.944V213.944C247.496 218.092 240.045 215.671 238.648 209.529V209.529C237.497 204.465 232.037 201.683 227.263 203.728V203.728C221.474 206.208 215.135 201.603 215.705 195.331V195.331C216.175 190.158 211.842 185.825 206.67 186.295V186.295C200.397 186.865 195.792 180.526 198.272 174.737V174.737C200.317 169.963 197.535 164.503 192.471 163.352V163.352C186.329 161.955 183.908 154.504 188.056 149.764V149.764C191.476 145.856 190.518 139.804 186.057 137.143V137.143C180.648 133.917 180.648 126.083 186.057 122.857V122.857C190.518 120.197 191.476 114.144 188.056 110.236V110.236C183.908 105.496 186.329 98.045 192.471 96.6485V96.6485C197.535 95.497 200.317 90.0371 198.272 85.2632V85.2632C195.792 79.4737 200.397 73.1353 206.67 73.705V73.705C211.842 74.1748 216.175 69.8418 215.705 64.6696V64.6696C215.135 58.397 221.474 53.7919 227.263 56.2721V56.2721C232.037 58.3171 237.497 55.5352 238.648 50.471V50.471C240.045 44.3293 247.496 41.9083 252.236 46.0561V46.0561C256.144 49.4763 262.197 48.5177 264.857 44.0572V44.0572Z" fill="#FFDCE6"/>
<path d="M230.933 253.051H321.028C333.424 232.795 332.517 206.19 327.075 176.863H300.772L301.679 187.747C303.19 199.841 293.516 201.655 281.422 201.655C278.097 201.655 275.073 201.655 272.352 201.05C271.445 201.05 270.841 200.748 269.934 200.445C269.632 200.445 269.329 200.143 269.027 200.143C268.422 199.841 267.515 199.538 266.911 199.236C266.608 199.236 266.306 198.934 266.004 198.934C265.701 198.631 265.399 198.631 265.097 198.329C264.794 198.027 264.794 198.027 264.492 197.724C264.19 197.422 264.19 197.422 263.887 197.12C263.585 196.817 263.585 196.515 263.283 196.515C263.283 196.213 262.98 196.213 262.98 195.91C262.98 195.91 262.98 195.91 262.98 195.608C262.98 195.306 262.678 195.003 262.678 194.701C262.678 194.399 262.376 194.096 262.376 193.794C262.376 193.794 262.376 193.794 262.376 193.492C262.376 193.189 262.376 192.887 262.073 192.585V192.282C262.073 191.98 262.073 191.678 262.073 191.073C262.073 190.166 262.073 189.259 262.073 188.05V187.747L262.678 178.073H226.398C223.375 201.05 222.77 227.051 230.933 253.051Z" fill="#333333"/>
<path d="M106.07 225.236L80.9766 226.747C77.3486 227.05 74.3253 224.329 74.0229 220.701C73.7206 217.073 76.4416 214.049 80.0696 213.747L111.21 211.933C116.652 211.631 122.094 212.235 127.233 213.445C130.559 214.352 133.582 211.026 132.071 207.7L128.443 198.63C127.233 195.305 129.047 191.374 132.373 190.165C135.699 188.956 139.629 190.77 140.838 194.095L159.583 238.538C160.188 239.445 160.49 240.352 160.792 241.259L165.932 252.748L180.746 290.539C181.049 291.446 182.56 291.144 182.56 290.237L183.467 250.934L224.887 253.957L223.375 302.935C222.77 323.191 206.747 339.517 186.793 340.424C170.165 341.331 154.746 332.261 147.49 317.145L123.303 261.213C121.791 257.585 118.163 255.469 114.233 255.771C111.21 256.074 108.187 254.562 106.373 252.143L102.14 246.701L109.698 240.957L106.07 225.236Z" fill="#FFE5EF"/>
<path d="M112.721 237.934L98.8141 238.841C95.1862 239.143 92.1627 236.422 91.8603 232.794C91.558 229.166 94.279 226.143 97.907 225.84L111.814 224.933C115.442 224.631 118.466 227.352 118.768 230.98C119.07 234.608 116.349 237.631 112.721 237.934Z" fill="#FFE5EF"/>
<path d="M116.954 250.935L103.047 251.842C99.4189 252.144 96.3956 249.423 96.0933 245.795C95.7909 242.167 98.5119 239.144 102.14 238.841L116.047 237.934C119.675 237.632 122.699 240.353 123.001 243.981C123.303 247.609 120.582 250.632 116.954 250.935Z" fill="#FFE5EF"/>
<path d="M98.2095 225.538L112.117 224.631C115.745 224.328 118.768 227.049 119.07 230.677C119.373 234.305 116.652 237.329 113.024 237.631" stroke="#FFBED7" stroke-width="0.6298" stroke-miterlimit="10" stroke-linecap="round" stroke-linejoin="round"/>
<path d="M104.256 238.539L116.047 237.934C119.675 237.632 122.698 240.353 123.001 243.981C123.303 247.609 120.582 250.632 116.954 250.935" stroke="#FFBED7" stroke-width="0.6298" stroke-miterlimit="10" stroke-linecap="round" stroke-linejoin="round"/>
<path d="M133.28 221.003C133.28 221.003 129.954 242.771 139.024 247.003" stroke="#FFBED7" stroke-width="0.6298" stroke-miterlimit="10" stroke-linecap="round" stroke-linejoin="round"/>
<path d="M183.769 250.935L225.189 253.958L224.282 277.238C214.305 270.889 198.886 265.447 183.467 262.726L183.769 250.935Z" fill="#FFD0DD"/>
<path d="M256.632 194.095L257.841 189.56C258.144 187.444 259.958 185.932 262.074 185.63L300.47 183.211C302.587 183.211 304.703 184.42 305.308 186.537L307.122 191.374C348.541 195.909 385.426 216.165 389.356 242.771C389.658 244.887 388.449 247.003 386.333 247.608L355.193 257.887C353.379 258.492 352.472 260.004 352.169 261.515L351.867 264.539C346.727 297.493 354.588 326.214 351.262 342.54C351.565 344.657 353.983 348.285 349.448 347.982H241.213C237.995 347.982 233.495 347.982 231.236 347.982C230.934 347.982 230.632 347.982 230.632 347.982C227.004 347.075 227.91 345.564 228.213 344.052C228.213 342.843 229.422 336.494 229.422 335.587C229.422 330.749 230.329 303.539 224.283 272.097C224.283 269.981 222.771 268.167 220.655 267.864L181.654 260.004C179.537 259.701 178.026 257.585 178.026 255.469C179.235 227.654 214.91 202.863 256.632 194.095Z" fill="#FF5F87"/>
<path d="M279.004 215.26C280.006 215.26 280.818 214.447 280.818 213.446C280.818 212.444 280.006 211.632 279.004 211.632C278.002 211.632 277.19 212.444 277.19 213.446C277.19 214.447 278.002 215.26 279.004 215.26Z" fill="#E5E5E5"/>
<path d="M279.004 220.398C280.006 220.398 280.818 219.586 280.818 218.584C280.818 217.582 280.006 216.77 279.004 216.77C278.002 216.77 277.19 217.582 277.19 218.584C277.19 219.586 278.002 220.398 279.004 220.398Z" fill="#E5E5E5"/>
<path opacity="0.5" d="M257.237 201.654L265.097 217.375" stroke="white" stroke-width="0.6298" stroke-miterlimit="10" stroke-linecap="round" stroke-linejoin="round"/>
<path opacity="0.5" d="M270.842 214.957L274.167 211.026C276.284 208.608 280.214 208.305 282.935 210.422L290.493 217.073C291.4 217.678 292.61 217.678 293.214 216.771L306.517 200.445" stroke="white" stroke-width="0.6298" stroke-miterlimit="10" stroke-linecap="round" stroke-linejoin="round"/>
<path d="M298.354 145.722H264.19L261.167 187.746C259.655 199.84 269.33 201.654 281.423 201.654C293.516 201.654 302.888 199.84 301.679 187.746L298.354 145.722Z" fill="#FFDBE5"/>
<path d="M290.493 163.258C284.144 168.398 275.376 189.259 273.26 201.957C266.306 201.05 261.167 198.631 260.865 191.678C260.865 190.468 260.865 189.259 260.865 188.654V188.352L262.376 164.165L290.493 163.258Z" fill="#FFD0DD"/>
<path d="M233.654 121.839C233.654 99.4663 252.399 81.6287 274.772 82.5357C294.726 83.4427 311.354 100.071 311.959 120.025C312.261 129.095 309.54 137.863 304.703 144.514C300.47 150.56 296.54 156.909 292.307 163.258C285.958 173.235 273.865 179.584 260.562 177.77C247.864 175.956 237.282 166.282 234.259 153.584C233.352 149.956 233.352 146.328 233.654 143.002C234.259 136.653 233.957 130.304 233.654 123.955C233.654 123.351 233.654 122.444 233.654 121.839Z" fill="#FFE5EF"/>
<path d="M271.748 150.258C264.19 152.375 257.236 154.189 251.19 154.491C250.585 154.491 249.98 155.398 250.585 155.7C251.492 157.212 254.213 158.119 257.236 158.119C264.19 158.119 270.237 154.189 272.655 151.468C273.26 150.863 272.655 149.956 271.748 150.258Z" fill="#FF97BF"/>
<path d="M261.771 178.072C261.469 178.072 261.166 178.072 260.864 178.072C248.166 176.258 237.585 166.583 234.561 153.885C233.654 150.258 233.654 146.63 233.956 143.304C234.259 139.978 234.259 136.653 234.259 133.327C234.259 128.49 235.166 123.35 236.98 118.815C240.305 110.954 245.143 102.489 251.189 100.977C252.399 100.675 253.608 101.28 253.911 102.489C255.12 105.512 258.446 111.559 269.632 113.675C281.12 115.792 284.446 132.722 295.935 135.141C301.981 136.653 298.958 153.885 298.958 153.885L300.772 178.677H327.377C326.47 172.932 325.261 166.886 323.749 160.839L318.912 129.397C318.912 128.49 318.61 127.583 318.61 126.978C318.61 124.862 318.307 122.443 318.005 119.722C313.47 92.2097 299.26 84.6514 292.911 82.535C289.586 81.628 280.213 78.3024 269.934 78.0001C259.655 78.0001 248.166 83.442 240.608 92.512C233.654 103.698 230.026 115.489 229.422 121.536C228.817 127.583 228.212 137.862 228.212 142.397C227.91 152.676 226.398 165.374 225.189 178.374H261.469L261.771 178.072Z" fill="#333333"/>
<path d="M295.935 136.047C295.935 131.815 298.959 128.489 302.889 128.791C306.215 129.094 308.936 132.117 308.936 135.745C308.936 137.559 308.633 139.071 307.726 140.28C307.122 141.489 306.215 142.699 305.61 143.606C304.401 145.42 302.587 146.629 300.47 146.326C298.354 146.024 296.54 144.21 296.238 141.792C296.238 141.187 295.935 140.582 296.238 139.978C296.238 138.768 296.238 137.559 296.238 136.35C295.935 136.35 295.935 136.047 295.935 136.047Z" fill="#FFE5EF"/>
<path d="M247.562 141.187C249.899 141.187 251.794 138.48 251.794 135.141C251.794 131.801 249.899 129.094 247.562 129.094C245.224 129.094 243.329 131.801 243.329 135.141C243.329 138.48 245.224 141.187 247.562 141.187Z" fill="white"/>
<path d="M268.725 141.187C271.062 141.187 272.957 138.48 272.957 135.141C272.957 131.801 271.062 129.094 268.725 129.094C266.387 129.094 264.492 131.801 264.492 135.141C264.492 138.48 266.387 141.187 268.725 141.187Z" fill="white"/>
<path d="M245.748 138.769C247.251 138.769 248.469 137.145 248.469 135.141C248.469 133.138 247.251 131.513 245.748 131.513C244.245 131.513 243.027 133.138 243.027 135.141C243.027 137.145 244.245 138.769 245.748 138.769Z" fill="#333333"/>
<path d="M266.911 138.769C268.247 138.769 269.329 137.145 269.329 135.141C269.329 133.138 268.247 131.513 266.911 131.513C265.575 131.513 264.492 133.138 264.492 135.141C264.492 137.145 265.575 138.769 266.911 138.769Z" fill="#333333"/>
<path d="M350.96 274.214L351.867 282.679C352.169 283.889 350.658 284.493 350.053 283.586L326.773 250.33L318.913 240.353C318.308 239.446 317.703 238.841 317.099 238.236L288.982 198.933C286.865 195.91 282.935 195.003 279.912 197.119C276.888 199.236 275.981 203.166 278.098 206.189L283.54 214.05C285.656 216.771 283.54 220.701 280.214 220.701C274.772 220.701 269.632 221.306 264.19 222.817L243.632 228.864C240.004 229.771 238.19 233.701 239.097 237.027C240.004 240.655 243.934 242.469 247.26 241.562L266.609 235.818C267.214 235.515 267.819 236.12 268.121 236.725C268.423 237.329 267.818 237.934 267.214 238.236L245.144 244.888C241.516 245.795 239.702 249.725 240.609 253.051C241.516 256.679 245.446 258.493 248.772 257.586L270.842 250.934C271.446 250.632 272.051 251.237 272.353 251.841C272.656 252.446 272.051 253.051 271.446 253.353L255.725 258.19C252.097 259.097 250.283 263.028 251.19 266.353C252.097 269.981 256.028 271.795 259.353 270.888L275.981 265.749L282.633 263.632L323.145 317.447C333.425 330.448 350.658 335.89 366.681 331.052C386.03 325.308 397.519 305.657 393.589 286.005L385.728 248.516L354.588 258.795C354.588 258.795 351.867 259.4 351.565 262.725C352.169 265.749 350.96 274.214 350.96 274.214Z" fill="#FFE5EF"/>
<path d="M353.076 285.703L356.704 290.238" stroke="#FFBED7" stroke-width="0.6298" stroke-miterlimit="10" stroke-linecap="round" stroke-linejoin="round"/>
<path d="M182.863 294.47L183.467 299.912" stroke="#FFBED7" stroke-width="0.6298" stroke-miterlimit="10" stroke-linecap="round" stroke-linejoin="round"/>
<path d="M303.796 135.746L302.889 136.653C301.982 137.56 301.982 139.374 302.889 140.281" stroke="#FFBED7" stroke-width="0.6298" stroke-miterlimit="10" stroke-linecap="round" stroke-linejoin="round"/>
<path d="M257.841 142.699C255.422 142.699 253.306 140.885 253.306 138.165C253.306 135.746 256.632 134.234 257.841 133.63V128.188" stroke="#FFBED7" stroke-width="0.6298" stroke-miterlimit="10" stroke-linecap="round" stroke-linejoin="round"/>
<path d="M387.239 247.911L356.099 258.191C356.099 258.191 353.378 258.795 353.075 262.121C353.075 262.726 352.773 263.935 352.773 264.842L388.448 252.446L387.239 247.911Z" fill="#FFD0DD"/>
</g>
</g>
<defs>
<filter id="filter0_d" x="58" y="28.0001" width="352.357" height="340" filterUnits="userSpaceOnUse" color-interpolation-filters="sRGB">
<feFlood flood-opacity="0" result="BackgroundImageFix"/>
<feColorMatrix in="SourceAlpha" type="matrix" values="0 0 0 0 0 0 0 0 0 0 0 0 0 0 0 0 0 0 127 0"/>
<feOffset dy="4"/>
<feGaussianBlur stdDeviation="8"/>
<feColorMatrix type="matrix" values="0 0 0 0 0 0 0 0 0 0 0 0 0 0 0 0 0 0 0.08 0"/>
<feBlend mode="normal" in2="BackgroundImageFix" result="effect1_dropShadow"/>
<feBlend mode="normal" in="SourceGraphic" in2="effect1_dropShadow" result="shape"/>
</filter>
</defs>
</svg>
