<svg width="382" height="348" viewBox="0 0 382 348" fill="none" xmlns="http://www.w3.org/2000/svg">
<mask id="mask0" mask-type="alpha" maskUnits="userSpaceOnUse" x="0" y="0" width="382" height="348">
<path d="M382 324C382 337.255 371.255 348 358 348L24 348C10.7452 348 2.95782e-05 337.255 2.84194e-05 324L2.19259e-06 24C1.03382e-06 10.7452 10.7452 1.93855e-06 24 7.79773e-07L358 -2.84194e-05C371.255 -2.95782e-05 382 10.7451 382 24L382 324Z" fill="#3C6EE6"/>
</mask>
<g mask="url(#mask0)">
<path d="M317.451 142.78H284.782L281.832 182.962C280.495 194.487 289.503 196.238 301.107 196.238C312.711 196.238 321.719 194.487 320.382 182.962L317.451 142.78Z" fill="#FFDAE4"/>
<path d="M309.997 162.251C303.821 167.148 295.481 183.63 293.652 195.864C286.886 195.038 282.107 192.579 281.733 185.99C281.753 184.751 281.773 183.729 281.812 183.198C281.812 183.119 281.832 183.06 281.832 182.981L283.267 163.234L309.997 162.251Z" fill="#FFCDDC"/>
<path d="M255.614 119.885C255.614 98.5455 273.433 81.3752 294.989 82.4176C314.126 83.342 329.782 99.0962 330.608 118.233C330.982 127.025 328.327 135.168 323.607 141.717C319.417 147.519 315.661 153.616 311.825 159.674C305.689 169.351 294.242 175.31 281.595 173.501C269.362 171.75 259.252 162.428 256.44 150.41C255.633 146.949 255.437 143.566 255.771 140.36C256.381 134.283 256.046 128.166 255.692 122.049C255.633 121.321 255.614 120.593 255.614 119.885Z" fill="#FFE4EE"/>
<path d="M291.922 133.988C294.061 133.988 295.796 131.549 295.796 128.54C295.796 125.531 294.061 123.092 291.922 123.092C289.782 123.092 288.047 125.531 288.047 128.54C288.047 131.549 289.782 133.988 291.922 133.988Z" fill="white"/>
<path d="M290.682 132.572C292.138 132.572 293.318 130.811 293.318 128.638C293.318 126.466 292.138 124.705 290.682 124.705C289.227 124.705 288.047 126.466 288.047 128.638C288.047 130.811 289.227 132.572 290.682 132.572Z" fill="#2D2D37"/>
<path d="M270.582 133.988C272.722 133.988 274.457 131.549 274.457 128.54C274.457 125.531 272.722 123.092 270.582 123.092C268.442 123.092 266.708 125.531 266.708 128.54C266.708 131.549 268.442 133.988 270.582 133.988Z" fill="white"/>
<path d="M269.344 132.572C270.799 132.572 271.979 130.811 271.979 128.638C271.979 126.466 270.799 124.705 269.344 124.705C267.888 124.705 266.708 126.466 266.708 128.638C266.708 130.811 267.888 132.572 269.344 132.572Z" fill="#2D2D37"/>
<path d="M258.092 121.715L255.673 122.03C255.831 124.626 255.968 127.222 256.047 129.838C257.64 129.779 255.732 121.892 258.092 121.755" fill="#787885"/>
<path d="M306.142 126.239C309.466 126.239 307.401 132.12 312.259 132.12C321.188 132.12 311.551 146.163 320.539 146.163C321.542 144.668 322.585 143.174 323.627 141.718C326.518 137.706 328.643 133.084 329.764 128.088C323.863 128.659 315.288 127.616 306.142 126.22" fill="#787885"/>
<path d="M255.614 119.887C255.614 98.3701 273.728 81.0818 295.52 82.4389C314.736 83.6387 330.156 99.6682 330.628 118.923C330.707 122.07 330.392 125.138 329.723 128.089C330.392 125.158 331.1 122.09 331.021 118.923C330.549 99.6682 314.736 82.3013 295.52 81.1015C273.708 79.7444 255.338 95.6953 255.338 117.212C255.338 117.94 255.633 121.303 255.673 122.011C255.673 122.011 255.673 122.011 255.673 122.031C255.673 122.031 255.673 122.031 255.673 122.011C255.633 121.323 255.614 120.595 255.614 119.887Z" fill="#2D2D37"/>
<path d="M300.595 111.015C297.664 109.304 289.856 106.472 279.058 106.472C263.599 106.472 262.104 110.799 262.104 110.799C262.104 110.799 262.085 110.877 262.065 110.995C264.032 109.717 268.713 107.789 279.058 107.789C289.856 107.789 299.002 110.622 301.932 112.333C301.952 112.352 301.972 112.352 301.972 112.372C301.618 111.802 301.165 111.349 300.595 111.015Z" fill="#2D2D37"/>
<path d="M303.879 115.46C304.135 118.98 303.624 126.218 306.121 126.218C315.267 127.615 323.842 128.657 329.743 128.087C330.392 125.156 330.726 122.088 330.648 118.921C330.176 99.6664 314.756 83.6172 295.54 82.4371C273.728 81.08 255.633 98.3683 255.633 119.885C255.633 120.613 255.653 121.321 255.692 122.029C255.692 122.029 255.692 122.029 255.692 122.049L258.112 121.734C260.118 121.616 260.767 112.097 260.767 112.097C260.767 112.097 261.081 111.625 262.065 110.995C262.084 110.877 262.104 110.799 262.104 110.799C262.104 110.799 263.599 106.472 279.058 106.472C289.856 106.472 297.664 109.304 300.595 111.015C301.165 111.349 301.637 111.802 301.972 112.352C303.073 113.021 303.781 114.162 303.879 115.46Z" fill="#2D2D37"/>
<path d="M260.768 112.078C260.768 112.078 263.6 107.751 279.059 107.751C289.857 107.751 299.003 110.583 301.933 112.294C303.074 112.963 303.802 114.123 303.9 115.441C304.156 118.961 303.644 126.199 306.142 126.199C315.288 127.596 323.863 128.638 329.764 128.068C330.432 125.137 331.14 122.069 331.062 118.902C330.59 99.6472 314.777 82.2803 295.561 81.0805C273.749 79.7234 255.379 95.6743 255.379 117.191C255.379 117.919 255.674 121.282 255.713 121.99C255.713 121.99 255.713 121.99 255.713 122.01L258.132 121.695C260.099 121.597 260.768 112.078 260.768 112.078Z" fill="#2D2D37"/>
<path d="M310.921 129.995C310.921 126.062 313.871 122.895 317.451 123.092C320.617 123.269 323.213 126.16 323.351 129.681C323.41 131.293 322.977 132.788 322.191 134.008C321.502 135.07 320.873 136.191 320.243 137.312C319.221 139.102 317.333 140.183 315.228 139.869C313.202 139.554 311.53 137.823 311.058 135.62C310.921 134.991 310.901 134.361 310.94 133.771C311.039 132.65 310.98 131.529 310.921 130.408C310.921 130.271 310.921 130.133 310.921 129.995Z" fill="#FFE4EE"/>
<path d="M278.155 158.141C280.121 158.141 281.715 155.156 281.715 151.473C281.715 147.791 280.121 144.806 278.155 144.806C276.188 144.806 274.595 147.791 274.595 151.473C274.595 155.156 276.188 158.141 278.155 158.141Z" fill="#FF7BA4"/>
<path d="M280.022 137.627C277.602 137.686 275.596 135.778 275.537 133.359C275.478 130.94 278.861 129.425 279.805 128.875V123.584" stroke="#FFBED2" stroke-width="1.85864" stroke-miterlimit="10" stroke-linecap="round" stroke-linejoin="round"/>
<path d="M318.453 129.838L317.49 130.802C316.506 131.786 316.506 133.379 317.49 134.362" stroke="#FFBED2" stroke-width="1.85864" stroke-miterlimit="10" stroke-linecap="round" stroke-linejoin="round"/>
<path d="M98.0354 187.192L98.1338 200.763C98.1534 204.401 101.123 207.332 104.762 207.292C104.821 207.292 104.86 207.292 104.919 207.292L110.603 213.822L104.408 231.681C110.013 234.828 118.412 236.677 126.731 236.618L232.054 236.618V192.305L159.4 192.305C150.195 192.364 141.168 189.689 133.477 184.595C125.925 179.58 116.936 177.161 107.869 177.22C102.382 177.259 97.9961 181.724 98.0354 187.192Z" fill="#FFE4EE"/>
<path d="M109.305 205.817L67.6283 206.112C63.9897 206.132 61.0198 203.221 61.0001 199.582C60.9804 195.944 63.8914 192.974 67.53 192.954L109.207 192.659C112.845 192.64 115.815 195.551 115.835 199.189C115.874 202.828 112.944 205.798 109.305 205.817Z" fill="#FFE4EE"/>
<path d="M114.517 232.113L97.7204 232.231C94.0621 232.251 91.0725 229.32 91.0528 225.662V225.583C91.0332 221.925 93.9638 218.936 97.6221 218.916L114.419 218.798C118.077 218.778 121.066 221.709 121.086 225.367V225.446C121.106 229.104 118.175 232.094 114.517 232.113Z" fill="#FFE4EE"/>
<path d="M109.876 218.995L93.0004 219.113C89.3618 219.133 86.3918 216.222 86.3722 212.583C86.3525 208.945 89.2634 205.975 92.902 205.955L109.777 205.837C113.416 205.817 116.386 208.728 116.405 212.367C116.425 215.986 113.514 218.956 109.876 218.995Z" fill="#FFE4EE"/>
<path d="M112.315 206.309C114.695 207.292 116.386 209.613 116.406 212.366C116.426 216.005 113.515 218.975 109.876 218.995L100.947 219.053L114.478 218.955C118.117 218.935 121.087 221.846 121.107 225.485C121.126 228.062 119.671 230.304 117.527 231.385" stroke="#FFBED2" stroke-width="1.85864" stroke-miterlimit="10" stroke-linecap="round" stroke-linejoin="round"/>
<path d="M129.111 205.306C114.478 205.405 111.233 192.66 111.233 192.66L111.292 200.665C111.312 204.303 108.401 207.273 104.762 207.293C101.124 207.312 98.1538 204.402 98.1341 200.763L98.0947 195.925" stroke="#FFBED2" stroke-width="1.85864" stroke-miterlimit="10" stroke-linecap="round" stroke-linejoin="round"/>
<path d="M280.358 237.837H233.45C232.663 237.837 232.034 237.208 232.034 236.421V192.168C232.034 191.381 232.663 190.751 233.45 190.751H280.358C293.359 190.751 303.901 201.294 303.901 214.294C303.901 227.315 293.359 237.837 280.358 237.837Z" fill="#5F8CFF"/>
<path d="M240.728 237.837H261.517L274.144 195.865C274.144 195.865 251.427 206.958 240.728 237.837Z" fill="#3C6EE6"/>
<path d="M228.966 192.306V236.598H232.034V192.306H228.966Z" fill="#FFCDDC"/>
<path d="M343.984 195.019L323.392 185.009C312.673 179.796 300.242 179.344 289.169 183.769C271.704 190.771 259.077 206.289 255.812 224.817L235.377 340.269C234.669 344.261 237.737 347.92 241.789 347.92H355.864C359.778 347.92 362.807 344.478 362.315 340.603L343.984 195.019Z" fill="#5F8CFF"/>
<path d="M351.714 256.285L301.993 224.954C301.993 224.954 308.07 259.137 354.074 275.049L351.714 256.285Z" fill="#3C6EE6"/>
<path d="M360.248 263.229C361.271 263.799 361.173 265.314 360.071 265.727L334.404 275.345C326.164 278.059 317.333 278.432 308.856 276.426C299.867 274.282 290.427 275.128 281.773 278.413C276.639 280.36 274.102 286.142 276.03 291.276L277.406 294.954C277.406 294.954 273.669 296.783 270.896 298.75C268.123 300.716 265.94 304.217 267.238 307.659C268.477 310.944 271.998 312.655 275.302 311.711C272.489 313.324 271.152 316.785 272.332 319.912L272.391 320.07C273.709 323.571 277.603 325.341 281.084 324.023L283.425 323.138C280.848 324.81 279.688 328.075 280.809 331.064C281.773 333.641 284.172 335.273 286.768 335.391C293.2 336.434 301.854 335.254 309.741 332.284L398.031 299.045C412.487 293.597 422.065 279.77 422.065 264.33C422.065 251.408 415.339 239.43 404.325 232.684L342.095 194.607C328.209 185.599 309.544 190.909 302.503 205.896C298.648 218.563 304.175 232.193 315.759 238.605L360.248 263.229Z" fill="#FFE4EE"/>
<path d="M364.556 265.038L370.122 265.274" stroke="#FFBED2" stroke-width="1.85864" stroke-miterlimit="10" stroke-linecap="round" stroke-linejoin="round"/>
<path d="M279.824 294.952L294.339 289.504C294.339 289.504 288.754 291.176 287.455 287.734L288.891 291.549" stroke="#FFBED2" stroke-width="1.85864" stroke-miterlimit="10" stroke-linecap="round" stroke-linejoin="round"/>
<path d="M285.765 322.133L288.263 321.189" stroke="#FFBED2" stroke-width="1.85864" stroke-miterlimit="10" stroke-linecap="round" stroke-linejoin="round"/>
<path d="M277.878 310.706L280.376 309.762" stroke="#FFBED2" stroke-width="1.85864" stroke-miterlimit="10" stroke-linecap="round" stroke-linejoin="round"/>
<path d="M366.68 209.652L338.83 251.368L348.939 256.973L374.291 214.313L366.68 209.652Z" fill="#FFCDDC"/>
<path d="M319.043 190.574C311.137 192.836 304.587 198.382 301.106 205.836L301.047 205.994C297.054 219.093 302.856 233.411 314.834 240.02L344.337 256.324C345.005 256.698 345.831 256.462 346.225 255.813L371.715 213.015C372.108 212.346 371.892 211.481 371.223 211.088L342.33 194.075C335.447 189.591 326.97 188.312 319.043 190.574Z" fill="#5F8CFF"/>
</g>
</svg>
