<svg width="382" height="348" viewBox="0 0 382 348" fill="none" xmlns="http://www.w3.org/2000/svg">
<mask id="mask0" mask-type="alpha" maskUnits="userSpaceOnUse" x="0" y="0" width="382" height="348">
<path d="M382 348L3.05176e-05 348L2.19259e-06 24C1.03382e-06 10.7452 10.7452 2.02057e-06 24 8.61793e-07L358 -2.83374e-05C371.255 -2.94962e-05 382 10.7451 382 24L382 348Z" fill="#F06E8C"/>
</mask>
<g mask="url(#mask0)">
<g filter="url(#filter0_d)">
<path d="M251.698 190.526C259.418 203.158 277.763 203.158 285.482 190.526L359.064 70.1193C367.126 56.9279 357.632 40 342.173 40L195.008 40C179.549 40 170.055 56.9278 178.116 70.1192L251.698 190.526Z" fill="#CDFFB9"/>
<path d="M293.547 145.355H260.598L257.683 185.884C256.225 197.547 265.555 199.297 277.218 199.297C288.882 199.297 297.92 197.547 296.754 185.884L293.547 145.355Z" fill="#FFDBE5"/>
<path d="M285.966 165.181C279.843 170.138 271.387 186.758 269.346 199.004C262.64 198.13 257.683 195.797 257.391 189.091C257.391 187.924 257.391 186.758 257.391 186.175V185.883L258.849 166.056L285.966 165.181Z" fill="#FFD0DD"/>
<path d="M230.275 122.904C229.983 101.327 247.769 83.8321 269.637 84.4153C288.882 84.9984 304.918 100.744 306.085 120.279C306.668 129.027 304.044 137.482 299.378 144.189C295.296 150.02 291.506 156.435 287.715 162.558C281.592 172.472 270.221 178.595 257.391 176.845C245.145 175.096 234.648 166.057 231.732 153.811C230.858 150.312 230.566 146.813 230.858 143.606C231.441 137.482 230.858 131.359 230.566 125.236C230.275 124.361 230.275 123.778 230.275 122.904Z" fill="#FFE5EF"/>
<path d="M223.86 122.903C220.653 95.2031 239.022 78.2916 262.64 78C266.139 78 268.471 79.1663 269.929 78.8747C270.512 78.8747 273.428 77.7084 276.927 78.2916C297.629 81.4989 315.124 101.618 311.041 122.903C311.041 122.903 306.668 152.061 295.879 157.601C295.005 157.892 294.13 157.601 293.839 156.726L288.59 121.445C288.59 120.862 288.007 120.279 287.132 120.279C284.216 120.279 276.344 120.279 271.095 117.363C269.929 116.78 268.763 117.946 269.346 119.112C269.638 119.696 269.929 119.987 270.512 120.279C272.262 121.445 257.974 120.57 251.268 114.447C250.393 113.572 248.936 114.447 248.936 115.613C249.227 116.78 249.519 117.946 250.393 118.529C252.434 120.57 239.897 119.696 236.981 111.531V111.24C236.981 111.24 230.566 118.238 230.858 126.402C230.858 129.026 231.149 130.776 231.149 132.233C231.149 133.4 229.691 134.274 228.817 133.108C226.484 130.775 224.443 127.277 223.86 122.903Z" fill="#333333"/>
<path d="M290.34 136.024C290.34 131.942 293.255 128.734 296.754 129.026C299.962 129.026 302.586 131.942 302.877 135.732C302.877 137.482 302.586 138.94 301.711 140.106C301.128 141.272 300.545 142.439 299.67 143.605C298.795 145.354 296.754 146.521 294.713 146.229C292.672 145.937 290.923 144.188 290.34 141.855C290.34 141.272 290.048 140.689 290.34 140.106C290.34 138.94 290.34 137.773 290.34 136.607C290.34 136.315 290.34 136.024 290.34 136.024Z" fill="#FFE5EF"/>
<path d="M243.687 139.231C245.942 139.231 247.769 136.62 247.769 133.4C247.769 130.179 245.942 127.568 243.687 127.568C241.433 127.568 239.605 130.179 239.605 133.4C239.605 136.62 241.433 139.231 243.687 139.231Z" fill="white"/>
<path d="M264.098 139.231C266.352 139.231 268.18 136.62 268.18 133.4C268.18 130.179 266.352 127.568 264.098 127.568C261.843 127.568 260.015 130.179 260.015 133.4C260.015 136.62 261.843 139.231 264.098 139.231Z" fill="white"/>
<path d="M242.229 136.898C243.679 136.898 244.853 135.332 244.853 133.399C244.853 131.467 243.679 129.9 242.229 129.9C240.78 129.9 239.605 131.467 239.605 133.399C239.605 135.332 240.78 136.898 242.229 136.898Z" fill="#333333"/>
<path d="M262.348 136.898C263.636 136.898 264.681 135.332 264.681 133.399C264.681 131.467 263.636 129.9 262.348 129.9C261.06 129.9 260.015 131.467 260.015 133.399C260.015 135.332 261.06 136.898 262.348 136.898Z" fill="#333333"/>
<path d="M253.309 145.063C251.268 145.063 249.81 147.978 249.81 151.769C249.81 155.559 251.56 158.475 253.601 158.475C255.642 158.475 257.1 155.559 257.1 151.769C257.1 147.978 255.35 145.063 253.309 145.063Z" fill="#FF97BF"/>
<path d="M297.921 135.732L297.046 136.606C296.171 137.481 296.171 139.231 297.046 140.105" stroke="#FFBED7" stroke-width="0.6298" stroke-miterlimit="10" stroke-linecap="round" stroke-linejoin="round"/>
<path d="M253.601 140.689C251.268 140.689 249.227 138.94 249.227 136.316C249.227 133.983 252.434 132.525 253.601 131.942V129.026" stroke="#FFBED7" stroke-width="0.6298" stroke-miterlimit="10" stroke-linecap="round" stroke-linejoin="round"/>
<path d="M75.4473 189.382V202.794C75.4473 206.293 78.3631 209.209 81.862 209.209C81.862 209.209 81.8619 209.209 82.1535 209.209L87.6936 215.624L81.5703 233.41C87.1103 236.617 95.2746 238.367 103.73 238.367H207.824V194.63H136.095C127.056 194.63 118.018 192.006 110.437 187.049C102.856 182.092 94.1082 179.76 85.0693 179.76C79.8209 179.468 75.4473 183.842 75.4473 189.382Z" fill="#FFE5EF"/>
<path d="M86.5271 207.751L45.4147 208.042C41.9158 208.042 39 205.127 39 201.628C39 198.129 41.9158 195.213 45.4147 195.213L86.5271 194.921C90.026 194.921 92.9418 197.837 92.9418 201.336C92.9418 204.835 90.3176 207.751 86.5271 207.751Z" fill="#FFE5EF"/>
<path d="M91.7754 233.702H75.1556C71.6567 233.702 68.4492 230.786 68.4492 227.287C68.4492 223.788 71.365 220.581 74.864 220.581H91.4839C94.9828 220.581 98.1902 223.497 98.1902 226.996C98.1902 230.786 95.2743 233.702 91.7754 233.702Z" fill="#FFE5EF"/>
<path d="M87.1104 220.872H70.4904C66.9915 220.872 64.0757 217.956 64.0757 214.457C64.0757 210.958 66.9915 208.042 70.4904 208.042H87.1104C90.6093 208.042 93.5251 210.958 93.5251 214.457C93.5251 217.956 90.6093 220.872 87.1104 220.872Z" fill="#FFE5EF"/>
<path d="M89.4429 208.334C91.7756 209.209 93.5251 211.542 93.5251 214.457C93.5251 217.956 90.6093 220.872 87.1104 220.872H78.363H91.7755C95.2745 220.872 98.1903 223.788 98.1903 227.287C98.1903 229.911 96.7323 231.952 94.6913 233.118" stroke="#FFBED7" stroke-width="0.6709" stroke-miterlimit="10" stroke-linecap="round" stroke-linejoin="round"/>
<path d="M106.063 207.169C91.484 207.169 88.2767 194.631 88.2767 194.631V202.503C88.2767 206.002 85.3609 208.918 81.862 208.918C78.3631 208.918 75.4473 206.002 75.4473 202.503V197.838" stroke="#FFBED7" stroke-width="0.6709" stroke-miterlimit="10" stroke-linecap="round" stroke-linejoin="round"/>
<path d="M255.642 239.534H207.823V192.881H255.642C268.471 192.881 278.968 203.378 278.968 216.208C278.968 229.037 268.471 239.534 255.642 239.534Z" fill="#82E155"/>
<path d="M216.571 239.533H236.981L249.519 198.129C249.519 197.837 227.068 208.917 216.571 239.533Z" fill="#78CD69"/>
<path d="M204.908 194.631V238.076H207.823V194.339L204.908 194.631Z" fill="#FFD0DD"/>
<path d="M318.623 196.963L298.212 187.049C287.716 181.801 275.469 181.509 264.389 185.883C247.186 192.881 234.648 208.043 231.441 226.412L211.322 340.419C210.739 344.501 213.655 348 217.737 348H330.577C334.368 348 337.575 344.501 336.992 340.71L318.623 196.963Z" fill="#82E155"/>
<path d="M326.204 257.61L276.927 226.703C276.927 226.703 283.05 260.526 328.536 276.271L326.204 257.61Z" fill="#78CD69"/>
<path d="M334.66 264.609C335.534 265.192 335.534 266.65 334.368 266.942L309.001 276.564C300.837 279.188 292.089 279.48 283.634 277.73C274.886 275.689 265.556 276.564 256.808 279.771C251.852 281.812 249.227 287.352 251.268 292.601L252.726 296.1C252.726 296.1 248.936 297.849 246.312 299.89C243.687 301.931 241.355 305.43 242.813 308.637C243.979 311.845 247.478 313.594 250.685 312.72C247.769 314.177 246.603 317.676 247.769 320.884V321.175C248.936 324.674 253.018 326.424 256.225 324.966L258.558 324.091C255.934 325.84 254.767 329.048 255.934 331.964C256.809 334.588 259.141 336.046 261.765 336.337C268.18 337.504 276.636 336.337 284.508 333.13L371.69 300.182C385.977 294.933 395.308 281.229 395.308 265.776C395.308 252.946 388.601 241.283 377.813 234.577L316.29 196.963C302.586 187.924 284.217 193.173 277.219 208.043C273.428 220.581 278.968 233.994 290.34 240.408L334.66 264.609Z" fill="#FFE5EF"/>
<path d="M338.742 266.358L344.282 266.649" stroke="#FFBED7" stroke-width="0.6709" stroke-miterlimit="10" stroke-linecap="round" stroke-linejoin="round"/>
<path d="M341.074 211.542L313.375 252.654L323.288 258.194L348.364 216.207L341.074 211.542Z" fill="#FFD0DD"/>
<path d="M293.839 192.589C285.966 194.922 279.552 200.17 276.053 207.751V208.043C271.971 220.872 277.802 235.159 289.757 241.574L320.081 258.485L346.614 213.874L316.874 196.38C310.167 191.714 301.712 190.548 293.839 192.589Z" fill="#82E155"/>
<path d="M255.059 295.808L269.346 290.559C269.346 290.559 263.807 292.309 262.64 288.81L264.098 292.6" stroke="#FFBED7" stroke-width="0.6709" stroke-miterlimit="10" stroke-linecap="round" stroke-linejoin="round"/>
<path d="M260.891 322.632L263.515 321.758" stroke="#FFBED7" stroke-width="0.6709" stroke-miterlimit="10" stroke-linecap="round" stroke-linejoin="round"/>
<path d="M253.31 311.553L255.642 310.386" stroke="#FFBED7" stroke-width="0.6709" stroke-miterlimit="10" stroke-linecap="round" stroke-linejoin="round"/>
</g>
</g>
<defs>
<filter id="filter0_d" x="23" y="28" width="388.308" height="340" filterUnits="userSpaceOnUse" color-interpolation-filters="sRGB">
<feFlood flood-opacity="0" result="BackgroundImageFix"/>
<feColorMatrix in="SourceAlpha" type="matrix" values="0 0 0 0 0 0 0 0 0 0 0 0 0 0 0 0 0 0 127 0"/>
<feOffset dy="4"/>
<feGaussianBlur stdDeviation="8"/>
<feColorMatrix type="matrix" values="0 0 0 0 0 0 0 0 0 0 0 0 0 0 0 0 0 0 0.08 0"/>
<feBlend mode="normal" in2="BackgroundImageFix" result="effect1_dropShadow"/>
<feBlend mode="normal" in="SourceGraphic" in2="effect1_dropShadow" result="shape"/>
</filter>
</defs>
</svg>
