<svg width="382" height="348" viewBox="0 0 382 348" fill="none" xmlns="http://www.w3.org/2000/svg">
<mask id="mask0" mask-type="alpha" maskUnits="userSpaceOnUse" x="0" y="0" width="382" height="348">
<path d="M382 348L3.05176e-05 348L2.19259e-06 24C1.03382e-06 10.7452 10.7452 2.02057e-06 24 8.61793e-07L358 -2.83374e-05C371.255 -2.94962e-05 382 10.7451 382 24L382 348Z" fill="#F06E8C"/>
</mask>
<g mask="url(#mask0)">
<g filter="url(#filter0_d)">
<path d="M251.698 190.526C259.418 203.158 277.763 203.158 285.482 190.526L359.064 70.1193C367.126 56.9279 357.632 40.0001 342.173 40.0001L195.008 40C179.549 40 170.055 56.9279 178.116 70.1193L251.698 190.526Z" fill="#D2DCFF"/>
<path d="M287.814 147.012H255.471L252.583 186.574C251.139 197.837 260.091 199.569 271.642 199.569C283.193 199.569 291.857 197.837 290.701 186.574L287.814 147.012Z" fill="#FFDBE5"/>
<path d="M280.594 166.071C274.53 170.981 266.155 187.152 264.423 199.281C257.781 198.414 253.16 196.104 252.583 189.462C252.583 188.307 252.583 187.152 252.583 186.575C252.583 186.575 252.583 186.575 252.583 186.286L254.027 166.938L280.594 166.071Z" fill="#FFD0DD"/>
<path d="M226.882 124.488C226.882 103.407 244.497 86.3689 265.578 87.524C284.348 88.3903 299.942 103.984 300.808 122.755C301.097 131.418 298.498 139.504 293.878 145.857C289.835 151.633 286.081 157.697 282.327 163.472C276.262 173.002 265 178.778 252.583 177.045C240.454 175.312 230.636 166.071 227.748 154.232C226.881 150.766 226.882 147.59 227.17 144.413C227.748 138.349 227.459 132.284 227.17 126.22C226.882 125.931 226.882 125.065 226.882 124.488Z" fill="#FFE5EF"/>
<path d="M260.091 142.969C262.164 142.969 263.845 140.642 263.845 137.771C263.845 134.9 262.164 132.573 260.091 132.573C258.018 132.573 256.337 134.9 256.337 137.771C256.337 140.642 258.018 142.969 260.091 142.969Z" fill="white"/>
<path d="M258.936 141.525C260.371 141.525 261.535 139.844 261.535 137.771C261.535 135.698 260.371 134.017 258.936 134.017C257.5 134.017 256.337 135.698 256.337 137.771C256.337 139.844 257.5 141.525 258.936 141.525Z" fill="#333333"/>
<path d="M239.01 142.969C241.083 142.969 242.764 140.642 242.764 137.771C242.764 134.9 241.083 132.573 239.01 132.573C236.937 132.573 235.256 134.9 235.256 137.771C235.256 140.642 236.937 142.969 239.01 142.969Z" fill="white"/>
<path d="M237.855 141.525C239.29 141.525 240.454 139.844 240.454 137.771C240.454 135.698 239.29 134.017 237.855 134.017C236.42 134.017 235.256 135.698 235.256 137.771C235.256 139.844 236.42 141.525 237.855 141.525Z" fill="#333333"/>
<path d="M237.278 170.403C228.903 170.403 219.373 168.092 208.977 165.782C215.042 161.739 222.55 138.06 223.705 115.824C223.994 110.337 225.149 104.85 227.17 99.6523C231.213 89.2563 240.454 76.2614 259.802 78.2828C260.957 78.5716 261.535 78.8603 262.112 79.4379C262.979 78.8603 263.845 78.5716 265 78.2828C277.995 76.5501 293.012 82.6144 300.52 101.096C306.295 114.957 312.648 134.306 315.825 145.279C317.269 151.055 315.247 157.119 310.627 160.584C301.097 167.226 289.546 168.959 274.241 170.403C278.573 164.916 279.15 143.258 273.952 121.888C269.62 123.043 260.957 123.91 257.781 123.91C256.914 121.022 255.759 116.69 257.492 114.091C257.492 114.091 254.604 119 254.604 124.198C252.294 124.198 250.272 124.198 247.962 124.198C247.385 121.311 247.385 116.113 249.117 113.802C249.117 113.802 245.363 119.289 245.074 124.198C243.053 123.91 241.031 123.621 239.299 123.332C238.433 120.444 239.299 116.401 241.032 113.514C241.032 113.514 236.7 117.556 236.7 122.754C235.834 122.754 234.679 122.466 233.812 122.177C232.368 121.599 230.058 119.867 228.614 118.134C227.459 121.888 226.593 123.043 226.593 127.086C226.593 127.664 226.593 128.53 226.593 129.108C226.882 135.172 227.17 138.348 226.593 144.413C226.304 147.589 226.593 151.055 227.17 154.231C229.192 160.873 232.657 166.36 237.278 170.403Z" fill="#333333"/>
<path d="M247.962 152.498C245.941 152.498 244.497 155.386 244.497 159.14C244.497 162.894 245.941 165.782 247.962 165.782C249.984 165.782 251.428 162.894 251.428 159.14C251.428 155.386 249.984 152.498 247.962 152.498Z" fill="#FF97BF"/>
<path d="M249.984 147.878H247.962C245.652 147.878 243.63 145.857 243.63 143.547C243.63 141.237 245.363 138.926 247.962 138.349V134.306" stroke="#FFBED7" stroke-width="0.6298" stroke-miterlimit="10" stroke-linecap="round" stroke-linejoin="round"/>
<path d="M72.0971 190.904V204.188C72.0971 207.653 74.9848 210.541 78.4501 210.541C78.4501 210.541 78.45 210.541 78.7388 210.541L84.2256 216.894L78.1614 234.51C83.6482 237.686 91.7338 239.419 100.108 239.419H203.202V196.102H132.163C123.21 196.102 114.259 193.503 106.75 188.594C99.2422 183.685 90.5787 181.375 81.6266 181.375C76.1398 181.086 71.8084 185.418 72.0971 190.904Z" fill="#FFE5EF"/>
<path d="M83.0705 209.096L42.353 209.385C38.8876 209.385 36 206.497 36 203.032C36 199.567 38.8876 196.679 42.353 196.679L83.0705 196.39C86.5358 196.39 89.4238 199.278 89.4238 202.743C89.4238 206.209 86.5358 209.096 83.0705 209.096Z" fill="#FFE5EF"/>
<path d="M88.2686 234.8H71.8081C68.3428 234.8 65.1664 231.912 65.1664 228.447C65.1664 224.982 68.0541 221.805 71.5194 221.805H87.9799C91.4452 221.805 94.6216 224.693 94.6216 228.158C94.6216 231.912 91.7339 234.8 88.2686 234.8Z" fill="#FFE5EF"/>
<path d="M83.6482 222.093H67.1877C63.7224 222.093 60.8348 219.205 60.8348 215.74C60.8348 212.274 63.7224 209.387 67.1877 209.387H83.6482C87.1136 209.387 90.0012 212.274 90.0012 215.74C90.0012 218.916 87.1136 221.804 83.6482 222.093Z" fill="#FFE5EF"/>
<path d="M85.9582 209.676C88.2685 210.542 90.0012 212.852 90.0012 215.74C90.0012 219.205 87.1136 222.093 83.6482 222.093H74.9849H88.2686C91.7339 222.093 94.6216 224.981 94.6216 228.446C94.6216 231.045 93.1778 233.067 91.1564 234.222" stroke="#FFBED7" stroke-width="0.6709" stroke-miterlimit="10" stroke-linecap="round" stroke-linejoin="round"/>
<path d="M102.419 208.519C87.9799 208.519 84.8031 196.101 84.8031 196.101V203.898C84.8031 207.364 81.9154 210.251 78.4501 210.251C74.9848 210.251 72.0972 207.364 72.0972 203.898V199.278" stroke="#FFBED7" stroke-width="0.6709" stroke-miterlimit="10" stroke-linecap="round" stroke-linejoin="round"/>
<path d="M250.561 240.286H203.202V194.082H250.561C263.267 194.082 273.663 204.478 273.663 217.184C273.375 230.179 263.267 240.286 250.561 240.286Z" fill="#5A87FA"/>
<path d="M211.576 240.286H231.791L244.208 199.28C244.497 199.28 222.261 210.253 211.576 240.286Z" fill="#646EDC"/>
<path d="M200.025 196.104V239.132H203.202V195.815L200.025 196.104Z" fill="#FFD0DD"/>
<path d="M312.648 198.412L292.434 188.593C282.038 183.395 269.909 183.106 258.936 187.438C241.898 194.369 229.48 209.385 226.304 227.578L206.378 340.49C205.801 344.533 208.688 347.998 212.731 347.998H324.488C328.242 347.998 331.419 344.533 330.841 340.779L312.648 198.412Z" fill="#5A87FA"/>
<path d="M320.156 258.477L271.353 227.866C271.353 227.866 277.417 261.364 322.467 276.958L320.156 258.477Z" fill="#646EDC"/>
<path d="M328.531 265.12C329.397 265.697 329.397 267.141 328.242 267.43L303.119 276.96C295.033 279.559 286.37 279.847 277.995 278.115C269.332 276.093 260.091 276.96 251.428 280.136C246.518 282.158 243.919 287.644 245.941 292.842L247.385 296.308C247.385 296.308 243.631 298.04 241.032 300.062C238.433 302.083 236.122 305.548 237.566 308.725C238.721 311.902 242.187 313.634 245.363 312.768C242.476 314.212 241.321 317.677 242.476 320.854V321.142C243.631 324.608 247.673 326.34 250.85 324.897L253.16 324.03C250.561 325.763 249.406 328.939 250.561 331.827C251.428 334.426 253.738 335.87 256.337 336.159C262.69 337.314 271.065 336.159 278.861 332.982L365.206 300.351C379.356 295.153 388.597 281.58 388.597 266.275C388.597 253.569 381.955 242.018 371.27 235.376L310.338 198.123C296.766 189.171 278.573 194.369 271.642 209.097C267.888 221.514 273.375 234.798 284.637 241.151L328.531 265.12Z" fill="#FFE5EF"/>
<path d="M332.863 267.141H338.35" stroke="#FFBED7" stroke-width="0.6709" stroke-miterlimit="10" stroke-linecap="round" stroke-linejoin="round"/>
<path d="M249.984 296.308L264.134 291.11C264.134 291.11 258.647 292.842 257.492 289.377L258.936 293.131" stroke="#FFBED7" stroke-width="0.6709" stroke-miterlimit="10" stroke-linecap="round" stroke-linejoin="round"/>
<path d="M255.759 322.875L258.069 322.008" stroke="#FFBED7" stroke-width="0.6709" stroke-miterlimit="10" stroke-linecap="round" stroke-linejoin="round"/>
<path d="M247.962 311.613L250.561 310.746" stroke="#FFBED7" stroke-width="0.6709" stroke-miterlimit="10" stroke-linecap="round" stroke-linejoin="round"/>
<path d="M334.884 212.851L307.739 253.569L317.558 259.055L342.393 217.472L334.884 212.851Z" fill="#FFD0DD"/>
<path d="M288.391 194.08C280.594 196.39 274.241 201.589 270.776 209.097V209.386C266.733 222.092 272.508 236.242 284.348 242.595L314.381 259.344L340.66 215.161L311.204 197.834C304.274 193.214 296.188 192.059 288.391 194.08Z" fill="#5A87FA"/>
</g>
</g>
<defs>
<filter id="filter0_d" x="20" y="28" width="384.597" height="339.998" filterUnits="userSpaceOnUse" color-interpolation-filters="sRGB">
<feFlood flood-opacity="0" result="BackgroundImageFix"/>
<feColorMatrix in="SourceAlpha" type="matrix" values="0 0 0 0 0 0 0 0 0 0 0 0 0 0 0 0 0 0 127 0"/>
<feOffset dy="4"/>
<feGaussianBlur stdDeviation="8"/>
<feColorMatrix type="matrix" values="0 0 0 0 0 0 0 0 0 0 0 0 0 0 0 0 0 0 0.08 0"/>
<feBlend mode="normal" in2="BackgroundImageFix" result="effect1_dropShadow"/>
<feBlend mode="normal" in="SourceGraphic" in2="effect1_dropShadow" result="shape"/>
</filter>
</defs>
</svg>
