<svg width="398" height="349" viewBox="0 0 398 349" fill="none" xmlns="http://www.w3.org/2000/svg">
<mask id="mask0" mask-type="alpha" maskUnits="userSpaceOnUse" x="0" y="0" width="382" height="348">
<path d="M382 324C382 337.255 371.255 348 358 348L24 348C10.7452 348 2.95782e-05 337.255 2.84194e-05 324L2.19259e-06 24C1.03382e-06 10.7452 10.7452 1.93855e-06 24 7.79773e-07L358 -2.84194e-05C371.255 -2.95782e-05 382 10.7451 382 24L382 324Z" fill="#FFB428"/>
</mask>
<g mask="url(#mask0)">
<path d="M316.741 143.159L283.282 143.984L281.289 186.306C280.213 198.146 289.488 199.703 301.374 199.428C313.26 199.13 322.443 197.115 320.794 185.344L316.741 143.159Z" fill="#FFDAE4"/>
<path d="M309.596 163.29C303.39 168.465 295.26 186.626 293.702 199.199C286.74 198.512 281.793 196.107 281.244 189.374C281.221 188.092 281.244 187.061 281.267 186.512C281.267 186.443 281.267 186.374 281.29 186.283L282.274 164.939L309.596 163.29Z" fill="#FFCDDC"/>
<path d="M252.8 121.242C252.274 99.3712 270.091 81.3248 292.214 81.8516C311.841 82.3096 328.284 98.0659 329.612 117.647C330.23 126.647 327.711 135.052 323.039 141.899C318.894 147.968 315.207 154.289 311.428 160.587C305.382 170.641 293.817 177.053 280.809 175.519C268.236 174.03 257.633 164.732 254.449 152.48C253.533 148.953 253.258 145.495 253.51 142.197C253.991 135.945 253.487 129.693 252.961 123.441C252.869 122.708 252.823 121.975 252.8 121.242Z" fill="#FFE4EE"/>
<path d="M314.383 118.586L332.269 120.51C330.505 136.289 317.474 150.511 317.474 150.511L314.978 143.594C311.772 134.64 314.589 127.174 314.383 118.586Z" fill="#787885"/>
<path d="M277.351 103.906C277.351 103.906 285.389 101.158 290.633 105.005C294.458 107.799 283.763 97.3105 283.763 97.3105L264.572 97.7915L263.747 104.387C263.77 104.387 271.579 99.3259 277.351 103.906Z" fill="#787885"/>
<path d="M310.97 124.54C296.702 124.059 293.267 110.707 290.634 105.005C288.343 100.035 280.648 99.3255 277.442 103.768L277.328 103.906C277.305 103.883 277.305 103.86 277.282 103.837C274.373 99.4399 267.961 99.3254 265.075 103.745C263.129 106.768 261.365 110.456 259.831 114.349C258.274 118.288 257.06 120.647 253.808 121.105C253.258 121.173 252.846 121.677 252.892 122.227C253.052 123.876 253.327 126.945 253.19 126.922C241.418 125.777 245.586 75.3705 273.457 72.3017C283.923 71.1566 287.152 73.5383 288.137 74.9811C288.412 75.3933 288.985 75.485 289.351 75.1415C290.404 74.2254 292.603 72.8513 296.428 72.7597C304.855 72.6681 317.611 79.195 323.428 84.6456C333.505 94.31 336.093 116.021 333.116 120.166C329.841 124.838 324.093 124.998 310.97 124.54Z" fill="#2D2D37"/>
<path d="M312.413 133.701C312.322 129.67 315.253 126.349 318.94 126.464C322.192 126.555 324.917 129.464 325.146 133.082C325.261 134.731 324.849 136.289 324.07 137.548C323.383 138.67 322.788 139.838 322.146 140.983C321.139 142.838 319.238 144.006 317.085 143.709C315.001 143.434 313.238 141.716 312.711 139.449C312.551 138.808 312.505 138.166 312.551 137.548C312.619 136.403 312.551 135.235 312.459 134.09C312.413 133.953 312.413 133.815 312.413 133.701Z" fill="#FFE4EE"/>
<path d="M267.687 135.831C270.014 135.831 271.9 133.206 271.9 129.968C271.9 126.73 270.014 124.105 267.687 124.105C265.359 124.105 263.473 126.73 263.473 129.968C263.473 133.206 265.359 135.831 267.687 135.831Z" fill="white"/>
<path d="M288.55 135.831C290.877 135.831 292.764 133.206 292.764 129.968C292.764 126.73 290.877 124.105 288.55 124.105C286.223 124.105 284.336 126.73 284.336 129.968C284.336 133.206 286.223 135.831 288.55 135.831Z" fill="white"/>
<path d="M266.061 133.586C267.49 133.586 268.648 131.966 268.648 129.968C268.648 127.97 267.49 126.35 266.061 126.35C264.631 126.35 263.473 127.97 263.473 129.968C263.473 131.966 264.631 133.586 266.061 133.586Z" fill="#2D2D37"/>
<path d="M286.855 133.472C288.246 133.472 289.374 131.903 289.374 129.968C289.374 128.033 288.246 126.464 286.855 126.464C285.464 126.464 284.336 128.033 284.336 129.968C284.336 131.903 285.464 133.472 286.855 133.472Z" fill="#2D2D37"/>
<path d="M271.487 144.098C271.991 150.029 274.945 154.609 278.129 154.335C281.289 154.06 283.465 149.044 282.961 143.136L271.487 144.098Z" fill="#FF7BA4"/>
<path d="M277.694 128.662C276.732 129.235 273.274 130.769 273.343 133.242C273.412 135.716 275.45 137.662 277.923 137.594" stroke="#FFBED2" stroke-width="1.87563" stroke-miterlimit="10" stroke-linecap="round" stroke-linejoin="round"/>
<path d="M318.619 137.96C317.657 136.998 317.657 135.418 318.619 134.456L319.672 133.403" stroke="#FFBED2" stroke-width="1.87563" stroke-miterlimit="10" stroke-linecap="round" stroke-linejoin="round"/>
<path d="M91.2529 188.252V198.558C91.2529 202.337 94.3217 205.405 98.1005 205.405C98.1463 205.405 98.1921 205.405 98.2608 205.405L104.124 212.23L97.5508 228.627C103.368 231.948 112.093 236.048 120.727 236.048H236.792V191.298H156.316C146.537 191.298 131.124 187.153 122.262 182.985C115.689 179.893 108.383 177.328 101.055 177.397C95.65 177.443 91.2529 182.847 91.2529 188.252Z" fill="#FFE4EE"/>
<path d="M102.841 201.787H64.8476C61.0688 201.787 58 198.718 58 194.939C58 191.161 61.0688 188.092 64.8476 188.092H102.841C106.62 188.092 109.689 191.161 109.689 194.939C109.689 198.718 106.62 201.787 102.841 201.787Z" fill="#FFE4EE"/>
<path d="M108.086 229.154H90.6117C86.81 229.154 83.7412 226.063 83.7412 222.284V222.215C83.7412 218.414 86.8329 215.345 90.6117 215.345H108.086C111.887 215.345 114.956 218.436 114.956 222.215V222.284C114.956 226.086 111.887 229.154 108.086 229.154Z" fill="#FFE4EE"/>
<path d="M103.345 215.482H85.8026C82.0239 215.482 78.9551 212.413 78.9551 208.635C78.9551 204.856 82.0239 201.787 85.8026 201.787H103.345C107.124 201.787 110.193 204.856 110.193 208.635C110.193 212.413 107.124 215.482 103.345 215.482Z" fill="#FFE4EE"/>
<path d="M105.979 202.314C108.452 203.345 110.192 205.795 110.192 208.635C110.192 212.414 107.124 215.482 103.345 215.482H94.0469H108.108C111.887 215.482 114.956 218.551 114.956 222.33C114.956 225.009 113.422 227.322 111.177 228.445" stroke="#FFBED2" stroke-width="1.4166" stroke-miterlimit="10" stroke-linecap="round" stroke-linejoin="round"/>
<path d="M123.452 203.528C108.223 203.528 104.948 190.245 104.948 190.245V198.581C104.948 202.36 101.879 205.428 98.1005 205.428C94.3217 205.428 91.2529 202.36 91.2529 198.581V193.542" stroke="#FFBED2" stroke-width="1.4166" stroke-miterlimit="10" stroke-linecap="round" stroke-linejoin="round"/>
<path d="M227.7 191.298V236.047H230.815V191.298H227.7Z" fill="#FFCDDC"/>
<path d="M279.366 237.307H232.028C231.25 237.307 230.608 236.666 230.608 235.887V191.23C230.608 190.451 231.25 189.81 232.028 189.81H279.366C292.488 189.81 303.115 200.436 303.115 213.558C303.137 226.681 292.488 237.307 279.366 237.307Z" fill="#FFD25F"/>
<path d="M239.38 237.307H260.358L273.114 194.939C273.114 194.939 250.189 206.115 239.38 237.307Z" fill="#FFB428"/>
<path d="M230.609 191.344H227.494V236.025H230.609V191.344Z" fill="#FFCDDC"/>
<path d="M343.581 194.092L322.809 183.992C312 178.725 299.45 178.267 288.274 182.756C270.64 189.809 257.907 205.474 254.609 224.185L233.997 340.708C233.287 344.738 236.379 348.425 240.456 348.425H355.582C359.543 348.425 362.589 344.967 362.108 341.028L343.581 194.092Z" fill="#FFD25F"/>
<path d="M351.368 255.926L301.214 224.299C301.214 224.299 307.351 258.789 353.773 274.843L351.368 255.926Z" fill="#FFB428"/>
<path d="M360.002 262.912C361.033 263.484 360.941 265.019 359.819 265.431L333.917 275.141C325.604 277.866 316.672 278.256 308.13 276.24C299.061 274.088 289.534 274.935 280.809 278.233C275.633 280.179 273.068 286.019 275.015 291.218L276.412 294.928C276.412 294.928 272.656 296.783 269.839 298.753C267.045 300.745 264.846 304.272 266.152 307.753C267.388 311.074 270.961 312.791 274.305 311.829C271.465 313.455 270.114 316.936 271.305 320.12L271.373 320.28C272.702 323.807 276.618 325.593 280.145 324.265L282.503 323.372C279.916 325.066 278.725 328.364 279.87 331.387C280.855 333.998 283.259 335.624 285.87 335.738C292.374 336.792 301.077 335.601 309.046 332.601L398.156 299.073C412.744 293.577 422.409 279.63 422.409 264.034C422.409 251.003 415.63 238.911 404.5 232.109L341.704 193.68C327.688 184.589 308.863 189.947 301.741 205.085C297.847 217.864 303.435 231.628 315.115 238.086L360.002 262.912Z" fill="#FFE4EE"/>
<path d="M364.33 264.744L369.941 264.996" stroke="#FFBED2" stroke-width="1.87563" stroke-miterlimit="10" stroke-linecap="round" stroke-linejoin="round"/>
<path d="M278.839 294.927L293.496 289.431C293.496 289.431 287.862 291.126 286.557 287.645L287.999 291.492" stroke="#FFBED2" stroke-width="1.87563" stroke-miterlimit="10" stroke-linecap="round" stroke-linejoin="round"/>
<path d="M284.839 322.364L287.358 321.425" stroke="#FFBED2" stroke-width="1.87563" stroke-miterlimit="10" stroke-linecap="round" stroke-linejoin="round"/>
<path d="M276.869 310.821L279.388 309.882" stroke="#FFBED2" stroke-width="1.87563" stroke-miterlimit="10" stroke-linecap="round" stroke-linejoin="round"/>
<path d="M366.483 208.841L338.383 250.957L348.597 256.613L374.178 213.559L366.483 208.841Z" fill="#FFCDDC"/>
<path d="M318.436 189.604C310.466 191.871 303.848 197.482 300.321 204.993L300.275 205.154C296.245 218.368 302.107 232.819 314.199 239.483L343.971 255.949C344.635 256.316 345.483 256.087 345.872 255.422L371.591 212.23C372.003 211.543 371.774 210.673 371.087 210.284L341.933 193.13C334.971 188.596 326.406 187.313 318.436 189.604Z" fill="#FFD25F"/>
</g>
</svg>
