<svg width="382" height="348" viewBox="0 0 382 348" fill="none" xmlns="http://www.w3.org/2000/svg">
<mask id="mask0" mask-type="alpha" maskUnits="userSpaceOnUse" x="0" y="0" width="382" height="348">
<path d="M382 348L3.05176e-05 348L2.19259e-06 24C1.03382e-06 10.7452 10.7452 2.02057e-06 24 8.61793e-07L358 -2.83374e-05C371.255 -2.94962e-05 382 10.7451 382 24L382 348Z" fill="#F06E8C"/>
</mask>
<g mask="url(#mask0)">
<g filter="url(#filter0_d)">
<path d="M251.698 190.526C259.418 203.158 277.763 203.158 285.482 190.526L359.064 70.1193C367.126 56.9279 357.632 40 342.173 40L195.008 40C179.549 40 170.055 56.9278 178.116 70.1192L251.698 190.526Z" fill="#D2DCFF"/>
<path d="M286.731 162.459H256.701L254.02 199.192C252.68 209.649 260.992 211.257 271.717 211.257C282.442 211.257 290.485 209.649 289.413 199.192L286.731 162.459Z" fill="#FFDBE5"/>
<path d="M279.76 180.155C274.13 184.713 266.354 199.728 264.745 210.989C258.578 210.185 254.288 208.04 253.752 201.873C253.752 200.801 253.752 199.728 253.752 199.192C253.752 199.192 253.752 199.192 253.752 198.924L255.093 180.691L279.76 180.155Z" fill="#FFD0DD"/>
<path d="M229.889 141.277C229.889 121.704 246.244 105.885 266.086 106.957C283.514 107.762 297.993 122.24 298.797 139.668C299.065 147.712 296.652 155.22 292.362 161.118C288.608 166.481 285.123 172.111 281.637 177.474C276.006 186.322 265.549 191.684 254.02 190.076C242.759 188.467 233.643 179.887 230.962 168.894C230.157 165.676 230.157 162.727 230.425 159.778C230.962 154.147 230.694 148.516 230.425 142.886C230.157 142.618 229.889 142.081 229.889 141.277Z" fill="#FFE5EF"/>
<path d="M263.404 154.416C265.329 154.416 266.89 152.135 266.89 149.321C266.89 146.508 265.329 144.227 263.404 144.227C261.479 144.227 259.919 146.508 259.919 149.321C259.919 152.135 261.479 154.416 263.404 154.416Z" fill="white"/>
<path d="M262.064 152.806C263.397 152.806 264.477 151.245 264.477 149.32C264.477 147.395 263.397 145.835 262.064 145.835C260.731 145.835 259.651 147.395 259.651 149.32C259.651 151.245 260.731 152.806 262.064 152.806Z" fill="#333333"/>
<path d="M243.832 154.416C245.757 154.416 247.317 152.135 247.317 149.321C247.317 146.508 245.757 144.227 243.832 144.227C241.907 144.227 240.346 146.508 240.346 149.321C240.346 152.135 241.907 154.416 243.832 154.416Z" fill="white"/>
<path d="M242.491 152.806C243.824 152.806 244.904 151.245 244.904 149.32C244.904 147.395 243.824 145.835 242.491 145.835C241.158 145.835 240.078 147.395 240.078 149.32C240.078 151.245 241.158 152.806 242.491 152.806Z" fill="#333333"/>
<path d="M322.124 135.647C322.124 132.965 321.051 130.82 319.442 128.943C320.515 127.335 321.051 125.726 321.051 123.849C321.051 121.436 320.247 119.291 318.638 117.682C318.906 116.61 319.174 115.537 319.174 114.465C319.174 109.907 315.957 106.153 311.667 105.349C311.667 105.081 311.667 104.812 311.667 104.544C311.667 100.522 309.254 97.0368 305.5 95.6962C304.696 91.9424 301.746 88.993 297.992 88.4568C296.652 84.9712 293.166 82.29 289.145 82.29C286.731 82.29 284.854 83.0943 282.978 84.4349C281.637 81.2175 278.151 78.8043 274.398 78.8043C271.985 78.8043 269.84 79.8769 267.963 81.2175C266.354 79.0725 263.673 78 260.723 78C257.238 78 254.288 79.8769 252.679 82.5581C251.071 80.9494 248.658 79.8769 245.976 79.8769C243.027 79.8769 240.346 81.2175 238.737 83.3625C236.324 83.0943 233.911 83.6306 232.034 84.9712C230.425 86.0437 229.353 87.6525 228.817 89.2612C223.991 89.5293 220.237 93.5512 220.237 98.6455C220.237 98.9137 220.237 99.1818 220.237 99.4499C219.7 99.718 218.896 99.9861 218.36 100.522C214.606 103.204 213.534 108.298 215.411 112.32C214.07 114.733 213.534 117.682 214.606 120.363C213.265 121.972 212.193 124.117 212.193 126.53C212.193 128.675 212.997 130.82 214.338 132.429C214.07 133.233 214.07 134.038 214.07 134.842C214.07 136.183 214.338 137.523 214.874 138.864C214.338 139.937 214.07 141.277 214.07 142.886C214.07 145.031 214.874 146.908 215.947 148.516C215.947 148.785 215.947 149.053 215.947 149.321C215.947 152.27 217.287 154.683 219.432 156.56C220.237 158.973 221.845 160.85 224.258 161.923C225.063 164.068 226.671 165.945 228.548 167.017C229.085 168.09 229.621 168.894 230.425 169.698C229.621 166.749 229.621 163.531 229.889 160.85C230.425 155.22 230.157 149.589 229.889 143.958C229.889 143.422 229.889 135.915 235.251 134.574C236.324 134.306 237.665 133.77 238.469 132.965C239.273 133.502 240.346 133.77 241.686 133.77C243.295 133.77 244.904 132.965 245.976 131.893C247.317 132.697 248.926 133.233 250.803 133.233C252.68 133.233 254.556 132.697 256.165 131.625C257.238 132.161 258.578 132.429 259.919 132.429C260.723 132.429 261.528 132.429 262.332 132.161C263.941 133.233 265.818 134.038 267.963 134.038C269.035 134.038 269.839 133.77 270.912 133.502C270.912 133.77 270.912 133.77 270.912 134.038C270.912 138.06 273.593 141.545 277.079 142.886C276.811 143.958 276.543 144.763 276.543 145.835C276.543 146.103 276.543 146.372 276.543 146.64C276.811 149.857 278.688 152.538 281.369 153.879L281.637 154.147C284.586 155.756 286.463 158.437 286.731 161.923L288.608 186.322C289.949 185.518 291.021 184.445 292.094 183.373C296.652 182.836 300.138 178.814 300.138 174.256C303.891 173.72 307.109 170.771 307.913 167.017C311.399 165.676 313.812 162.191 313.812 158.437C318.37 157.901 321.855 153.879 321.855 149.321C321.855 147.176 321.051 145.299 319.979 143.69C321.051 140.205 322.124 138.06 322.124 135.647Z" fill="#333333"/>
<path d="M280.832 150.662C280.832 147.176 283.514 144.227 286.731 144.227C289.681 144.495 292.094 146.908 292.094 150.394C292.094 152.003 291.826 153.343 291.021 154.416C290.485 155.488 289.949 156.293 289.145 157.365C288.34 158.974 286.463 160.046 284.586 159.778C282.709 159.51 281.101 157.901 280.832 155.756C280.832 155.22 280.564 154.684 280.832 154.148C280.832 153.075 280.832 152.003 280.832 150.93C280.832 150.93 280.832 150.662 280.832 150.662Z" fill="#FFE5EF"/>
<path d="M250.535 176.402C252.312 176.402 253.752 173.641 253.752 170.235C253.752 166.829 252.312 164.068 250.535 164.068C248.758 164.068 247.317 166.829 247.317 170.235C247.317 173.641 248.758 176.402 250.535 176.402Z" fill="#FF97BF"/>
<path d="M287.536 150.393L286.731 151.198C285.927 152.002 285.927 153.611 286.731 154.415" stroke="#FFBED7" stroke-width="0.6298" stroke-miterlimit="10" stroke-linecap="round" stroke-linejoin="round"/>
<path d="M252.411 157.632C250.266 157.632 248.39 156.024 248.39 153.611C248.39 151.466 251.339 150.125 252.411 149.589V144.762" stroke="#FFBED7" stroke-width="0.6298" stroke-miterlimit="10" stroke-linecap="round" stroke-linejoin="round"/>
<path d="M87.5154 202.14V214.474C87.5154 217.692 90.1967 220.373 93.4142 220.373C93.4142 220.373 93.4143 220.373 93.6824 220.373L98.7767 226.272L93.1461 242.627C98.2405 245.577 105.748 247.185 113.523 247.185H209.244V206.967H143.285C134.973 206.967 126.661 204.554 119.69 199.996C112.719 195.437 104.675 193.292 96.3636 193.292C91.5374 193.024 87.5154 197.046 87.5154 202.14Z" fill="#FFE5EF"/>
<path d="M97.7043 219.032L59.8988 219.3C56.6813 219.3 54 216.619 54 213.401C54 210.184 56.6813 207.503 59.8988 207.503L97.7043 207.234C100.922 207.234 103.603 209.916 103.603 213.133C103.603 216.351 100.922 219.032 97.7043 219.032Z" fill="#FFE5EF"/>
<path d="M102.53 242.896H87.2474C84.0299 242.896 81.0806 240.214 81.0806 236.997C81.0806 233.78 83.7618 230.83 86.9793 230.83H102.262C105.48 230.83 108.429 233.511 108.429 236.729C108.429 240.215 105.748 242.896 102.53 242.896Z" fill="#FFE5EF"/>
<path d="M98.2404 231.097H82.9575C79.74 231.097 77.0587 228.416 77.0587 225.199C77.0587 221.981 79.74 219.3 82.9575 219.3H98.2404C101.458 219.3 104.139 221.981 104.139 225.199C104.139 228.416 101.458 231.097 98.2404 231.097Z" fill="#FFE5EF"/>
<path d="M100.385 219.568C102.53 220.373 104.139 222.518 104.139 225.199C104.139 228.417 101.458 231.098 98.2404 231.098H90.1967H102.53C105.748 231.098 108.429 233.779 108.429 236.997C108.429 239.41 107.089 241.286 105.212 242.359" stroke="#FFBED7" stroke-width="0.6709" stroke-miterlimit="10" stroke-linecap="round" stroke-linejoin="round"/>
<path d="M115.668 218.495C102.262 218.495 99.3129 206.966 99.3129 206.966V214.205C99.3129 217.423 96.6317 220.104 93.4142 220.104C90.1967 220.104 87.5154 217.423 87.5154 214.205V209.916" stroke="#FFBED7" stroke-width="0.6709" stroke-miterlimit="10" stroke-linecap="round" stroke-linejoin="round"/>
<path d="M253.216 248.258H209.244V205.358H253.216C265.013 205.358 274.666 215.011 274.666 226.808C274.666 238.606 265.013 248.258 253.216 248.258Z" fill="#5A87FA"/>
<path d="M217.019 248.258H235.788L247.317 210.184C247.585 209.916 226.94 220.105 217.019 248.258Z" fill="#646EDC"/>
<path d="M206.562 206.967V246.918H209.244V206.699L206.562 206.967Z" fill="#FFD0DD"/>
<path d="M310.862 209.112L292.094 199.995C282.441 195.169 271.18 194.901 260.991 198.923C245.172 205.358 233.643 219.3 230.693 236.192L212.193 341.028C211.657 344.782 214.338 348 218.092 348H321.855C325.341 348 328.29 344.782 327.754 341.297L310.862 209.112Z" fill="#5A87FA"/>
<path d="M318.102 264.881L272.789 236.46C272.789 236.46 278.42 267.562 320.247 282.041L318.102 264.881Z" fill="#646EDC"/>
<path d="M325.877 271.317C326.682 271.853 326.682 273.194 325.609 273.462L302.282 282.31C294.775 284.723 286.731 284.991 278.956 283.382C270.912 281.505 262.332 282.31 254.288 285.259C249.73 287.136 247.317 292.23 249.194 297.057L250.535 300.274C250.535 300.274 247.049 301.883 244.636 303.76C242.223 305.637 240.078 308.854 241.418 311.803C242.491 314.753 245.708 316.361 248.658 315.557C245.976 316.898 244.904 320.115 245.976 323.065V323.333C247.049 326.55 250.803 328.159 253.752 326.818L255.897 326.014C253.484 327.623 252.411 330.572 253.484 333.253C254.288 335.666 256.433 337.007 258.846 337.275C264.745 338.348 272.521 337.275 279.76 334.326L359.929 304.028C373.067 299.202 381.647 286.6 381.647 272.389C381.647 260.592 375.48 249.867 365.56 243.7L308.985 209.112C296.384 200.8 279.492 205.626 273.057 219.301C269.571 230.83 274.666 243.164 285.123 249.062L325.877 271.317Z" fill="#FFE5EF"/>
<path d="M329.631 272.925L334.726 273.193" stroke="#FFBED7" stroke-width="0.6709" stroke-miterlimit="10" stroke-linecap="round" stroke-linejoin="round"/>
<path d="M252.679 300.006L265.818 295.179C265.818 295.179 260.723 296.788 259.651 293.571L260.992 297.056" stroke="#FFBED7" stroke-width="0.6709" stroke-miterlimit="10" stroke-linecap="round" stroke-linejoin="round"/>
<path d="M258.042 324.672L260.455 323.868" stroke="#FFBED7" stroke-width="0.6709" stroke-miterlimit="10" stroke-linecap="round" stroke-linejoin="round"/>
<path d="M250.803 314.483L253.216 313.41" stroke="#FFBED7" stroke-width="0.6709" stroke-miterlimit="10" stroke-linecap="round" stroke-linejoin="round"/>
<path d="M331.508 222.518L306.304 260.324L315.42 265.418L338.479 226.808L331.508 222.518Z" fill="#FFD0DD"/>
<path d="M288.34 205.09C281.101 207.235 275.202 212.061 271.985 219.032V219.3C268.231 231.098 273.593 244.236 284.586 250.135L312.471 265.686L336.87 224.663L309.522 208.575C303.355 204.285 295.579 203.213 288.34 205.09Z" fill="#5A87FA"/>
</g>
</g>
<defs>
<filter id="filter0_d" x="38" y="28" width="359.647" height="340" filterUnits="userSpaceOnUse" color-interpolation-filters="sRGB">
<feFlood flood-opacity="0" result="BackgroundImageFix"/>
<feColorMatrix in="SourceAlpha" type="matrix" values="0 0 0 0 0 0 0 0 0 0 0 0 0 0 0 0 0 0 127 0"/>
<feOffset dy="4"/>
<feGaussianBlur stdDeviation="8"/>
<feColorMatrix type="matrix" values="0 0 0 0 0 0 0 0 0 0 0 0 0 0 0 0 0 0 0.08 0"/>
<feBlend mode="normal" in2="BackgroundImageFix" result="effect1_dropShadow"/>
<feBlend mode="normal" in="SourceGraphic" in2="effect1_dropShadow" result="shape"/>
</filter>
</defs>
</svg>
