<svg width="42" height="64" viewBox="0 0 42 64" fill="none" xmlns="http://www.w3.org/2000/svg">
<path d="M41 5.03645V32.9636C41 35.7336 38.7336 38 35.9635 38H8.03645C5.2664 38 3 35.7336 3 32.9636V5.03645C3 2.2664 5.2664 0 8.03645 0H35.9635C38.7336 0 41 2.24122 41 5.03645Z" fill="white"/>
<path d="M6.056 58.08C5.608 58.08 5.24533 57.952 4.968 57.696C4.70133 57.4293 4.568 57.0773 4.568 56.64V49.104H2.312C1.84267 49.104 1.49067 49.008 1.256 48.816C1.032 48.6133 0.92 48.3093 0.92 47.904C0.92 47.4987 1.032 47.2 1.256 47.008C1.49067 46.816 1.84267 46.72 2.312 46.72H9.8C10.2693 46.72 10.616 46.816 10.84 47.008C11.0747 47.2 11.192 47.4987 11.192 47.904C11.192 48.3093 11.0747 48.6133 10.84 48.816C10.616 49.008 10.2693 49.104 9.8 49.104H7.544V56.64C7.544 57.0773 7.40533 57.4293 7.128 57.696C6.86133 57.952 6.504 58.08 6.056 58.08ZM19.3564 47.104C19.6337 46.784 19.959 46.624 20.3324 46.624C20.6844 46.624 20.999 46.7627 21.2764 47.04C21.5644 47.3067 21.7084 47.616 21.7084 47.968C21.7084 48.2773 21.591 48.5707 21.3564 48.848L17.9964 52.736V56.64C17.9964 57.1093 17.8577 57.472 17.5804 57.728C17.3137 57.9733 16.967 58.096 16.5404 58.096C16.103 58.096 15.7457 57.9733 15.4684 57.728C15.191 57.472 15.0524 57.1093 15.0524 56.64V52.736L11.7244 48.848C11.479 48.5707 11.3564 48.272 11.3564 47.952C11.3564 47.6 11.495 47.2907 11.7724 47.024C12.0497 46.7573 12.3644 46.624 12.7164 46.624C13.0897 46.624 13.415 46.784 13.6924 47.104L16.5244 50.464L19.3564 47.104ZM24.0506 58.096C23.6026 58.096 23.2453 57.968 22.9786 57.712C22.7226 57.4453 22.5946 57.088 22.5946 56.64V48.08C22.5946 47.6427 22.712 47.3067 22.9466 47.072C23.1813 46.8373 23.5173 46.72 23.9546 46.72H28.0506C29.2986 46.72 30.2693 47.04 30.9626 47.68C31.656 48.3093 32.0026 49.1893 32.0026 50.32C32.0026 51.44 31.6506 52.32 30.9466 52.96C30.2533 53.6 29.288 53.92 28.0506 53.92H25.5386V56.64C25.5386 57.088 25.4053 57.4453 25.1386 57.712C24.872 57.968 24.5093 58.096 24.0506 58.096ZM27.6506 51.712C28.1946 51.712 28.5946 51.6 28.8506 51.376C29.1173 51.152 29.2506 50.8053 29.2506 50.336C29.2506 49.408 28.7173 48.944 27.6506 48.944H25.5386V51.712H27.6506ZM34.6228 58C34.1854 58 33.8494 57.8827 33.6148 57.648C33.3801 57.4133 33.2628 57.0773 33.2628 56.64V48.08C33.2628 47.6427 33.3801 47.3067 33.6148 47.072C33.8494 46.8373 34.1854 46.72 34.6228 46.72H40.1588C40.6174 46.72 40.9641 46.816 41.1988 47.008C41.4334 47.2 41.5508 47.4773 41.5508 47.84C41.5508 48.608 41.0868 48.992 40.1588 48.992H36.1268V51.136H39.8388C40.7668 51.136 41.2308 51.5147 41.2308 52.272C41.2308 52.6347 41.1134 52.912 40.8788 53.104C40.6441 53.296 40.2974 53.392 39.8388 53.392H36.1268V55.728H40.1588C41.0868 55.728 41.5508 56.112 41.5508 56.88C41.5508 57.2427 41.4334 57.52 41.1988 57.712C40.9641 57.904 40.6174 58 40.1588 58H34.6228Z" fill="white"/>
</svg>
