<svg width="42" height="66" viewBox="0 0 42 66" fill="none" xmlns="http://www.w3.org/2000/svg">
<path d="M41 20C41 31.052 32.052 40 21 40C9.94803 40 1 31.052 1 20C1 8.94804 9.94803 0 21 0C32.052 0.0253485 41 8.97338 41 20Z" fill="white"/>
<path d="M6.056 60.08C5.608 60.08 5.24533 59.952 4.968 59.696C4.70133 59.4293 4.568 59.0773 4.568 58.64V51.104H2.312C1.84267 51.104 1.49067 51.008 1.256 50.816C1.032 50.6133 0.92 50.3093 0.92 49.904C0.92 49.4987 1.032 49.2 1.256 49.008C1.49067 48.816 1.84267 48.72 2.312 48.72H9.8C10.2693 48.72 10.616 48.816 10.84 49.008C11.0747 49.2 11.192 49.4987 11.192 49.904C11.192 50.3093 11.0747 50.6133 10.84 50.816C10.616 51.008 10.2693 51.104 9.8 51.104H7.544V58.64C7.544 59.0773 7.40533 59.4293 7.128 59.696C6.86133 59.952 6.504 60.08 6.056 60.08ZM19.3564 49.104C19.6337 48.784 19.959 48.624 20.3324 48.624C20.6844 48.624 20.999 48.7627 21.2764 49.04C21.5644 49.3067 21.7084 49.616 21.7084 49.968C21.7084 50.2773 21.591 50.5707 21.3564 50.848L17.9964 54.736V58.64C17.9964 59.1093 17.8577 59.472 17.5804 59.728C17.3137 59.9733 16.967 60.096 16.5404 60.096C16.103 60.096 15.7457 59.9733 15.4684 59.728C15.191 59.472 15.0524 59.1093 15.0524 58.64V54.736L11.7244 50.848C11.479 50.5707 11.3564 50.272 11.3564 49.952C11.3564 49.6 11.495 49.2907 11.7724 49.024C12.0497 48.7573 12.3644 48.624 12.7164 48.624C13.0897 48.624 13.415 48.784 13.6924 49.104L16.5244 52.464L19.3564 49.104ZM24.0506 60.096C23.6026 60.096 23.2453 59.968 22.9786 59.712C22.7226 59.4453 22.5946 59.088 22.5946 58.64V50.08C22.5946 49.6427 22.712 49.3067 22.9466 49.072C23.1813 48.8373 23.5173 48.72 23.9546 48.72H28.0506C29.2986 48.72 30.2693 49.04 30.9626 49.68C31.656 50.3093 32.0026 51.1893 32.0026 52.32C32.0026 53.44 31.6506 54.32 30.9466 54.96C30.2533 55.6 29.288 55.92 28.0506 55.92H25.5386V58.64C25.5386 59.088 25.4053 59.4453 25.1386 59.712C24.872 59.968 24.5093 60.096 24.0506 60.096ZM27.6506 53.712C28.1946 53.712 28.5946 53.6 28.8506 53.376C29.1173 53.152 29.2506 52.8053 29.2506 52.336C29.2506 51.408 28.7173 50.944 27.6506 50.944H25.5386V53.712H27.6506ZM34.6228 60C34.1854 60 33.8494 59.8827 33.6148 59.648C33.3801 59.4133 33.2628 59.0773 33.2628 58.64V50.08C33.2628 49.6427 33.3801 49.3067 33.6148 49.072C33.8494 48.8373 34.1854 48.72 34.6228 48.72H40.1588C40.6174 48.72 40.9641 48.816 41.1988 49.008C41.4334 49.2 41.5508 49.4773 41.5508 49.84C41.5508 50.608 41.0868 50.992 40.1588 50.992H36.1268V53.136H39.8388C40.7668 53.136 41.2308 53.5147 41.2308 54.272C41.2308 54.6347 41.1134 54.912 40.8788 55.104C40.6441 55.296 40.2974 55.392 39.8388 55.392H36.1268V57.728H40.1588C41.0868 57.728 41.5508 58.112 41.5508 58.88C41.5508 59.2427 41.4334 59.52 41.1988 59.712C40.9641 59.904 40.6174 60 40.1588 60H34.6228Z" fill="white"/>
</svg>
