<svg width="42" height="65" viewBox="0 0 42 65" fill="none" xmlns="http://www.w3.org/2000/svg">
<path d="M6.056 59.08C5.608 59.08 5.24533 58.952 4.968 58.696C4.70133 58.4293 4.568 58.0773 4.568 57.64V50.104H2.312C1.84267 50.104 1.49067 50.008 1.256 49.816C1.032 49.6133 0.92 49.3093 0.92 48.904C0.92 48.4987 1.032 48.2 1.256 48.008C1.49067 47.816 1.84267 47.72 2.312 47.72H9.8C10.2693 47.72 10.616 47.816 10.84 48.008C11.0747 48.2 11.192 48.4987 11.192 48.904C11.192 49.3093 11.0747 49.6133 10.84 49.816C10.616 50.008 10.2693 50.104 9.8 50.104H7.544V57.64C7.544 58.0773 7.40533 58.4293 7.128 58.696C6.86133 58.952 6.504 59.08 6.056 59.08ZM19.3564 48.104C19.6337 47.784 19.959 47.624 20.3324 47.624C20.6844 47.624 20.999 47.7627 21.2764 48.04C21.5644 48.3067 21.7084 48.616 21.7084 48.968C21.7084 49.2773 21.591 49.5707 21.3564 49.848L17.9964 53.736V57.64C17.9964 58.1093 17.8577 58.472 17.5804 58.728C17.3137 58.9733 16.967 59.096 16.5404 59.096C16.103 59.096 15.7457 58.9733 15.4684 58.728C15.191 58.472 15.0524 58.1093 15.0524 57.64V53.736L11.7244 49.848C11.479 49.5707 11.3564 49.272 11.3564 48.952C11.3564 48.6 11.495 48.2907 11.7724 48.024C12.0497 47.7573 12.3644 47.624 12.7164 47.624C13.0897 47.624 13.415 47.784 13.6924 48.104L16.5244 51.464L19.3564 48.104ZM24.0506 59.096C23.6026 59.096 23.2453 58.968 22.9786 58.712C22.7226 58.4453 22.5946 58.088 22.5946 57.64V49.08C22.5946 48.6427 22.712 48.3067 22.9466 48.072C23.1813 47.8373 23.5173 47.72 23.9546 47.72H28.0506C29.2986 47.72 30.2693 48.04 30.9626 48.68C31.656 49.3093 32.0026 50.1893 32.0026 51.32C32.0026 52.44 31.6506 53.32 30.9466 53.96C30.2533 54.6 29.288 54.92 28.0506 54.92H25.5386V57.64C25.5386 58.088 25.4053 58.4453 25.1386 58.712C24.872 58.968 24.5093 59.096 24.0506 59.096ZM27.6506 52.712C28.1946 52.712 28.5946 52.6 28.8506 52.376C29.1173 52.152 29.2506 51.8053 29.2506 51.336C29.2506 50.408 28.7173 49.944 27.6506 49.944H25.5386V52.712H27.6506ZM34.6228 59C34.1854 59 33.8494 58.8827 33.6148 58.648C33.3801 58.4133 33.2628 58.0773 33.2628 57.64V49.08C33.2628 48.6427 33.3801 48.3067 33.6148 48.072C33.8494 47.8373 34.1854 47.72 34.6228 47.72H40.1588C40.6174 47.72 40.9641 47.816 41.1988 48.008C41.4334 48.2 41.5508 48.4773 41.5508 48.84C41.5508 49.608 41.0868 49.992 40.1588 49.992H36.1268V52.136H39.8388C40.7668 52.136 41.2308 52.5147 41.2308 53.272C41.2308 53.6347 41.1134 53.912 40.8788 54.104C40.6441 54.296 40.2974 54.392 39.8388 54.392H36.1268V56.728H40.1588C41.0868 56.728 41.5508 57.112 41.5508 57.88C41.5508 58.2427 41.4334 58.52 41.1988 58.712C40.9641 58.904 40.6174 59 40.1588 59H34.6228Z" fill="white"/>
<path d="M18.6641 35.4772L14.0397 37.9199C10.3876 39.8408 6.11899 36.7341 6.80672 32.6789L7.68417 27.5091C7.96875 25.8965 7.42331 24.2365 6.26128 23.0982L2.51436 19.4461C-0.449984 16.5766 1.18633 11.5491 5.26526 10.9562L10.4588 10.1973C12.0714 9.9602 13.4943 8.94046 14.2057 7.47015L16.5298 2.77462C18.3558 -0.924875 23.6442 -0.924875 25.4702 2.77462L27.7943 7.47015C28.5294 8.94046 29.9286 9.9602 31.5412 10.1973L36.7347 10.9562C40.8137 11.5491 42.45 16.5766 39.4856 19.4461L35.7387 23.0982C34.5767 24.2365 34.0312 25.8965 34.3158 27.5091L35.1933 32.6789C35.881 36.7579 31.6123 39.8408 27.9603 37.9199L23.3359 35.4772C21.8419 34.7184 20.1107 34.7184 18.6641 35.4772Z" fill="white"/>
</svg>
