<svg width="42" height="62" viewBox="0 0 42 62" fill="none" xmlns="http://www.w3.org/2000/svg">
<path d="M17.9339 1.76799C19.3012 -0.58933 22.6957 -0.58933 24.063 1.76799L32.29 16.0062L40.5171 30.2444C41.8843 32.6018 40.187 35.5484 37.4525 35.5484H20.9984H4.54433C1.83341 35.5484 0.112561 32.6018 1.47981 30.2444L9.70686 16.0062L17.9339 1.76799Z" fill="white"/>
<path d="M6.056 56.08C5.608 56.08 5.24533 55.952 4.968 55.696C4.70133 55.4293 4.568 55.0773 4.568 54.64V47.104H2.312C1.84267 47.104 1.49067 47.008 1.256 46.816C1.032 46.6133 0.92 46.3093 0.92 45.904C0.92 45.4987 1.032 45.2 1.256 45.008C1.49067 44.816 1.84267 44.72 2.312 44.72H9.8C10.2693 44.72 10.616 44.816 10.84 45.008C11.0747 45.2 11.192 45.4987 11.192 45.904C11.192 46.3093 11.0747 46.6133 10.84 46.816C10.616 47.008 10.2693 47.104 9.8 47.104H7.544V54.64C7.544 55.0773 7.40533 55.4293 7.128 55.696C6.86133 55.952 6.504 56.08 6.056 56.08ZM19.3564 45.104C19.6337 44.784 19.959 44.624 20.3324 44.624C20.6844 44.624 20.999 44.7627 21.2764 45.04C21.5644 45.3067 21.7084 45.616 21.7084 45.968C21.7084 46.2773 21.591 46.5707 21.3564 46.848L17.9964 50.736V54.64C17.9964 55.1093 17.8577 55.472 17.5804 55.728C17.3137 55.9733 16.967 56.096 16.5404 56.096C16.103 56.096 15.7457 55.9733 15.4684 55.728C15.191 55.472 15.0524 55.1093 15.0524 54.64V50.736L11.7244 46.848C11.479 46.5707 11.3564 46.272 11.3564 45.952C11.3564 45.6 11.495 45.2907 11.7724 45.024C12.0497 44.7573 12.3644 44.624 12.7164 44.624C13.0897 44.624 13.415 44.784 13.6924 45.104L16.5244 48.464L19.3564 45.104ZM24.0506 56.096C23.6026 56.096 23.2453 55.968 22.9786 55.712C22.7226 55.4453 22.5946 55.088 22.5946 54.64V46.08C22.5946 45.6427 22.712 45.3067 22.9466 45.072C23.1813 44.8373 23.5173 44.72 23.9546 44.72H28.0506C29.2986 44.72 30.2693 45.04 30.9626 45.68C31.656 46.3093 32.0026 47.1893 32.0026 48.32C32.0026 49.44 31.6506 50.32 30.9466 50.96C30.2533 51.6 29.288 51.92 28.0506 51.92H25.5386V54.64C25.5386 55.088 25.4053 55.4453 25.1386 55.712C24.872 55.968 24.5093 56.096 24.0506 56.096ZM27.6506 49.712C28.1946 49.712 28.5946 49.6 28.8506 49.376C29.1173 49.152 29.2506 48.8053 29.2506 48.336C29.2506 47.408 28.7173 46.944 27.6506 46.944H25.5386V49.712H27.6506ZM34.6228 56C34.1854 56 33.8494 55.8827 33.6148 55.648C33.3801 55.4133 33.2628 55.0773 33.2628 54.64V46.08C33.2628 45.6427 33.3801 45.3067 33.6148 45.072C33.8494 44.8373 34.1854 44.72 34.6228 44.72H40.1588C40.6174 44.72 40.9641 44.816 41.1988 45.008C41.4334 45.2 41.5508 45.4773 41.5508 45.84C41.5508 46.608 41.0868 46.992 40.1588 46.992H36.1268V49.136H39.8388C40.7668 49.136 41.2308 49.5147 41.2308 50.272C41.2308 50.6347 41.1134 50.912 40.8788 51.104C40.6441 51.296 40.2974 51.392 39.8388 51.392H36.1268V53.728H40.1588C41.0868 53.728 41.5508 54.112 41.5508 54.88C41.5508 55.2427 41.4334 55.52 41.1988 55.712C40.9641 55.904 40.6174 56 40.1588 56H34.6228Z" fill="white"/>
</svg>
