<svg width="32" height="32" viewBox="0 0 32 32" fill="none" xmlns="http://www.w3.org/2000/svg">
<path d="M14.1313 28.5623L10.4318 30.5288C7.51012 32.0753 4.09519 29.5742 4.64538 26.3094L5.34733 22.1472C5.575 20.8489 5.13865 19.5125 4.20903 18.596L1.21149 15.6558C-1.15999 13.3456 0.149061 9.29801 3.41221 8.8207L7.56704 8.20975C8.85712 8.01882 9.99542 7.19785 10.5646 6.01412L12.4238 2.23381C13.8846 -0.744605 18.1154 -0.744605 19.5762 2.23381L21.4354 6.01412C22.0235 7.19785 23.1429 8.01882 24.433 8.20975L28.5878 8.8207C31.8509 9.29801 33.16 13.3456 30.7885 15.6558L27.791 18.596C26.8613 19.5125 26.425 20.8489 26.6527 22.1472L27.3546 26.3094C27.9048 29.5933 24.4899 32.0753 21.5682 30.5288L17.8687 28.5623C16.6735 27.9513 15.2886 27.9513 14.1313 28.5623Z" fill="#FAD26E"/>
</svg>
