<svg width="64" height="64" viewBox="0 0 64 64" fill="none" xmlns="http://www.w3.org/2000/svg">
<circle cx="32" cy="32" r="32" fill="#FF9173"/>
<path d="M45.2633 23.2698L40.7249 18.7297C39.7524 17.7568 38.1021 17.7568 37.1296 18.7297L21.6874 34.1779C21.0391 34.8265 20.5381 35.652 20.3023 36.5659L18.0332 44.7323C17.9447 45.0861 18.0332 45.4399 18.2984 45.7052C18.4752 45.8821 18.7404 46 19.0057 46C19.0941 46 19.1825 46 19.2709 45.9705L27.434 43.7299C28.3476 43.4941 29.1727 42.9929 29.8211 42.3443L45.2633 26.8665C45.7348 26.3948 46 25.7462 46 25.0682C46 24.3901 45.7348 23.7415 45.2633 23.2698ZM26.9036 41.7842L24.045 42.5802C23.8682 41.9316 23.6029 41.3125 23.1314 40.8702C22.6599 40.3985 22.0705 40.1627 21.4222 39.9563L22.2179 37.0966C22.3652 36.5954 22.6304 36.1532 22.9546 35.7699C24.1923 36.1827 25.3122 36.8313 26.2552 37.7452C27.1983 38.6886 27.8466 39.8089 28.2297 41.0471C27.8466 41.3714 27.4046 41.6367 26.9036 41.7842Z" fill="white"/>
</svg>
