<svg width="446" height="240" viewBox="0 0 446 240" fill="none" xmlns="http://www.w3.org/2000/svg">
<path d="M335.171 55.5679C334.608 58.8159 330.78 60.2091 328.26 58.0834L313.076 45.2311L297.892 32.3789C295.373 30.2532 296.064 26.198 299.148 25.0757L317.702 18.3225L336.256 11.5693C339.313 10.4567 342.476 13.109 341.912 16.3571L338.542 35.9625L335.171 55.5679Z" fill="#FF8737" fill-opacity="0.1"/>
<path d="M59.2051 78.2053L51.167 84.8733C44.8156 90.1234 35.1821 85.8635 34.8531 77.6999L34.435 67.2923C34.3258 64.0413 32.5733 61.0434 29.8301 59.3153L20.992 53.7789C14.008 49.4373 15.1332 38.9905 22.868 36.1427L32.7148 32.5089C35.7716 31.3777 38.1341 28.8051 38.9188 25.6531L41.5265 15.5652C43.5712 7.61934 53.9168 5.4203 59.0166 11.8476L65.502 20.0026C67.5473 22.5532 70.7055 23.9523 73.9582 23.7424L84.4316 23.057C92.656 22.5125 97.933 31.5985 93.3187 38.4054L87.4966 47.0579C85.6934 49.7523 85.3118 53.2039 86.5343 56.2182L90.3855 65.8961C93.4152 73.5338 86.3374 81.2977 78.3997 79.0848L68.3445 76.2627C65.1084 75.4098 61.7217 76.1296 59.2051 78.2053Z" fill="#FF8737" fill-opacity="0.1"/>
<path d="M440.968 138.998L416.659 223.772C414.248 232.181 405.395 237.088 396.986 234.677L312.212 210.368C303.803 207.957 298.896 199.105 301.307 190.696L325.616 105.921C328.027 97.5127 336.88 92.6057 345.288 95.0168L430.063 119.326C438.472 121.737 443.401 130.513 440.968 138.998Z" fill="#FF8737" fill-opacity="0.1"/>
<path d="M0 156.633C0 163.265 5.36799 168.633 12 168.633C18.632 168.633 24 163.265 24 156.633C24 150.001 18.632 144.633 12 144.633C5.36799 144.649 0 150.017 0 156.633Z" fill="#FF8737" fill-opacity="0.1"/>
<path d="M227.63 85.6328C224.321 85.6328 221.63 82.9414 221.63 79.6328C221.63 76.3242 224.321 73.6328 227.63 73.6328C230.939 73.6328 233.63 76.3242 233.63 79.6328C233.63 82.9414 230.939 85.6328 227.63 85.6328ZM227.63 76.6295C225.974 76.6295 224.623 77.9768 224.623 79.6361C224.623 81.2954 225.971 82.6428 227.63 82.6428C229.289 82.6428 230.637 81.2954 230.637 79.6361C230.637 77.9768 229.286 76.6295 227.63 76.6295Z" fill="#FF8737"/>
<path d="M148 85.6328H143.497C142.67 85.6328 142 84.9625 142 84.1361V75.1295C142 74.3032 142.67 73.6328 143.497 73.6328H148C151.309 73.6328 154 76.3242 154 79.6328C154 82.9414 151.309 85.6328 148 85.6328ZM144.993 82.6395H148C149.656 82.6395 151.007 81.2921 151.007 79.6328C151.007 77.9735 149.659 76.6262 148 76.6262H144.993V82.6395Z" fill="#FF8737"/>
<path d="M156.801 85.6328C155.975 85.6328 155.305 84.9625 155.305 84.1361V75.1295C155.305 74.3032 155.975 73.6328 156.801 73.6328C157.628 73.6328 158.298 74.3032 158.298 75.1295V84.1361C158.298 84.9625 157.628 85.6328 156.801 85.6328Z" fill="#FF8737"/>
<path d="M192.214 85.6328H187.711C186.884 85.6328 186.214 84.9625 186.214 84.1361V75.1295C186.214 74.3032 186.884 73.6328 187.711 73.6328H192.214C195.523 73.6328 198.214 76.3242 198.214 79.6328C198.214 82.9414 195.523 85.6328 192.214 85.6328ZM189.211 82.6395H192.217C193.873 82.6395 195.224 81.2921 195.224 79.6328C195.224 77.9735 193.876 76.6262 192.217 76.6262H189.211V82.6395Z" fill="#FF8737"/>
<path d="M218.825 85.6328C217.998 85.6328 217.328 84.9625 217.328 84.1361V77.3828C217.328 76.968 216.99 76.6295 216.575 76.6295C216.16 76.6295 215.821 76.968 215.821 77.3828V84.1361C215.821 84.9625 215.151 85.6328 214.325 85.6328C213.498 85.6328 212.828 84.9625 212.828 84.1361V77.3828C212.828 76.968 212.49 76.6295 212.075 76.6295C211.66 76.6295 211.321 76.968 211.321 77.3828V84.1361C211.321 84.9625 210.651 85.6328 209.825 85.6328C208.998 85.6328 208.328 84.9625 208.328 84.1361V77.3828C208.328 75.3153 210.011 73.6328 212.078 73.6328C212.921 73.6328 213.701 73.9149 214.328 74.3861C214.955 73.9149 215.735 73.6328 216.578 73.6328C218.646 73.6328 220.328 75.3153 220.328 77.3828V84.1361C220.321 84.9625 219.651 85.6328 218.825 85.6328Z" fill="#FF8737"/>
<path d="M178.909 85.6328C175.601 85.6328 172.909 82.9414 172.909 79.6328C172.909 76.3242 175.601 73.6328 178.909 73.6328C182.218 73.6328 184.909 76.3242 184.909 79.6328C184.909 82.9414 182.218 85.6328 178.909 85.6328ZM178.909 76.6295C177.253 76.6295 175.903 77.9768 175.903 79.6361C175.903 81.2954 177.25 82.6428 178.909 82.6428C180.565 82.6428 181.916 81.2954 181.916 79.6361C181.916 77.9768 180.565 76.6295 178.909 76.6295Z" fill="#FF8737"/>
<path d="M170.109 85.6328C169.283 85.6328 168.612 84.9625 168.612 84.1361V77.3828C168.612 76.968 168.274 76.6295 167.859 76.6295C167.444 76.6295 167.106 76.968 167.106 77.3828V84.1361C167.106 84.9625 166.435 85.6328 165.609 85.6328C164.783 85.6328 164.112 84.9625 164.112 84.1361V77.3828C164.112 76.968 163.774 76.6295 163.359 76.6295C162.944 76.6295 162.606 76.968 162.606 77.3828V84.1361C162.606 84.9625 161.935 85.6328 161.109 85.6328C160.283 85.6328 159.612 84.9625 159.612 84.1361V77.3828C159.612 75.3153 161.295 73.6328 163.362 73.6328C164.205 73.6328 164.985 73.9149 165.612 74.3861C166.24 73.9149 167.019 73.6328 167.862 73.6328C169.93 73.6328 171.612 75.3153 171.612 77.3828V84.1361C171.606 84.9625 170.935 85.6328 170.109 85.6328Z" fill="#FF8737"/>
<path d="M205.522 85.6328C204.696 85.6328 204.025 84.9625 204.025 84.1361V77.3828C204.025 76.968 203.687 76.6295 203.272 76.6295C202.857 76.6295 202.519 76.968 202.519 77.3828V84.1361C202.519 84.9625 201.848 85.6328 201.022 85.6328C200.196 85.6328 199.525 84.9625 199.525 84.1361V77.3828C199.525 75.3153 201.208 73.6328 203.275 73.6328C205.343 73.6328 207.025 75.3153 207.025 77.3828V84.1361C207.019 84.9625 206.348 85.6328 205.522 85.6328Z" fill="#FF8737"/>
<path d="M205.521 81.1328H201.018C200.192 81.1328 199.521 80.4624 199.521 79.6361C199.521 78.8098 200.192 78.1394 201.018 78.1394H205.521C206.348 78.1394 207.018 78.8098 207.018 79.6361C207.018 80.4624 206.348 81.1328 205.521 81.1328Z" fill="#FF8737"/>
<path d="M179.107 163.898C182.978 162.694 186.677 160.629 188.827 158.393L178.763 152.372L182.118 144.716C182.978 142.824 181.172 140.846 179.193 141.448C178.505 141.62 177.817 141.104 177.817 140.415L177.559 132.244C177.473 130.696 176.527 129.319 174.979 129.061C172.828 128.631 171.022 130.438 171.108 132.416L171.194 135.857C171.194 136.803 171.194 137.663 170.936 138.523C170.076 142.222 167.409 144.888 164.055 145.92L143.325 152.114C142.981 152.2 142.637 152.028 142.551 151.684L135.841 129.491L115.025 134.91L125.089 168.285C126.896 174.22 133.175 177.574 139.11 175.768L179.107 163.898Z" fill="#FFE4EE"/>
<path d="M142.034 153.232L140.744 154.694" stroke="#FFBED2" stroke-width="0.8363" stroke-miterlimit="10" stroke-linecap="round" stroke-linejoin="round"/>
<path d="M135.841 129.578L115.025 134.997L119.412 149.103C120.788 147.641 122.251 146.437 124.229 145.061C126.896 143.254 136.271 140.846 139.024 140.072L135.841 129.578Z" fill="#FFCDDC"/>
<path d="M124.487 141.619C123.197 141.963 122.336 143.168 122.508 144.458L125.605 185.573C125.691 187.122 124.487 188.498 122.938 188.498H62.7273C61.0929 188.498 59.8887 187.122 60.0608 185.487L64.1895 144.544C64.3616 143.168 63.4154 141.963 62.1251 141.619L47.6744 138.093C46.3842 137.748 45.438 136.544 45.6101 135.168C47.1583 122.18 61.0929 111.514 79.7584 107.987C80.8766 107.815 81.7368 106.955 81.9948 105.837C82.1669 104.89 82.855 104.116 83.7152 103.772C89.8223 101.708 95.8434 101.708 101.865 103.772C102.811 104.116 103.413 104.89 103.585 105.837C103.757 106.955 104.703 107.815 105.821 107.987C124.487 111.514 138.507 122.18 139.97 135.168C140.142 136.458 139.282 137.748 137.991 138.093L124.487 141.619Z" fill="#FF915A"/>
<path d="M81.9092 110.998L85.8659 116.417C86.468 117.277 87.7583 117.363 88.5324 116.675L91.3709 113.922C92.0591 113.234 93.1773 113.234 93.9514 113.922L96.79 116.675C97.5641 117.449 98.8543 117.277 99.4564 116.417L103.413 110.998" stroke="#FF8737" stroke-width="1.0213" stroke-miterlimit="10" stroke-linecap="round" stroke-linejoin="round"/>
<path d="M92.7469 118.223C93.2219 118.223 93.607 117.838 93.607 117.363C93.607 116.888 93.2219 116.503 92.7469 116.503C92.2718 116.503 91.8867 116.888 91.8867 117.363C91.8867 117.838 92.2718 118.223 92.7469 118.223Z" fill="#E5E5E5"/>
<path d="M92.7469 120.718C93.2219 120.718 93.607 120.333 93.607 119.857C93.607 119.382 93.2219 118.997 92.7469 118.997C92.2718 118.997 91.8867 119.382 91.8867 119.857C91.8867 120.333 92.2718 120.718 92.7469 120.718Z" fill="#E5E5E5"/>
<path d="M85.5217 85.7954L101.177 86.1395L102.123 104.633C102.639 110.224 98.2521 110.912 92.7471 110.74C87.156 110.568 82.8552 109.622 83.6294 104.117L85.5217 85.7954Z" fill="#FFDAE4"/>
<path d="M88.876 95.2568C91.8005 97.6653 95.5852 104.805 96.3594 110.654C99.628 110.31 101.95 109.191 102.208 106.009C102.208 105.407 102.208 104.891 102.208 104.633V104.547L101.778 95.945L88.876 95.2568Z" fill="#FFCDDC"/>
<path d="M115.455 75.5595C115.713 65.3236 107.37 56.894 96.9616 57.0661C87.8439 57.3241 80.1025 64.6355 79.5004 73.8392C79.2423 78.054 80.3605 82.0107 82.5969 85.1933C84.5753 88.0318 86.2956 91.0424 88.016 93.9669C90.8545 98.6978 96.2735 101.708 102.381 100.934C108.316 100.246 113.219 95.8593 114.767 90.1822C115.197 88.5479 115.369 86.9136 115.197 85.3653C114.939 82.4408 115.197 79.5163 115.455 76.5917C115.455 76.2476 115.455 75.9036 115.455 75.5595Z" fill="#FFE4EE"/>
<path d="M86.6395 74.2693L78.2959 75.1294C79.1561 82.5268 85.2632 89.1501 85.2632 89.1501L86.4674 85.8815C87.8437 81.8387 86.5534 78.312 86.6395 74.2693Z" fill="#5A5A5A"/>
<path d="M104.015 67.3881C104.015 67.3881 100.23 66.0978 97.8218 67.9042C96.0155 69.1944 101.004 64.2915 101.004 64.2915L109.95 64.5496L110.38 67.6461C110.294 67.6461 106.681 65.2377 104.015 67.3881Z" fill="#5A5A5A"/>
<path d="M88.1878 77.1075C94.897 76.8494 96.4453 70.6563 97.7356 67.9898C98.7678 65.6674 102.38 65.3233 103.929 67.3877L104.015 67.4737C105.391 65.4093 108.402 65.3233 109.692 67.4737C110.638 68.8499 111.412 70.6563 112.186 72.4626C112.96 74.269 113.477 75.3872 115.025 75.6452C115.283 75.6452 115.455 75.9033 115.455 76.1613C115.369 76.9355 115.283 78.3977 115.283 78.3977C120.788 77.8816 118.81 54.2272 105.821 52.765C100.918 52.2489 99.3699 53.3671 98.9398 54.0552C98.7678 54.2272 98.5097 54.3132 98.3377 54.1412C97.8216 53.7111 96.7894 53.109 94.9831 53.023C91.0263 52.937 85.0912 56.0336 82.3387 58.614C77.6078 63.1729 76.4036 73.3228 77.7799 75.3012C79.4142 77.1935 82.0807 77.2795 88.1878 77.1075Z" fill="#333333"/>
<path d="M87.5856 81.3226C87.6716 79.4303 86.2093 77.882 84.575 77.968C83.0267 78.054 81.7365 79.3443 81.6505 81.0646C81.5644 81.8387 81.8225 82.5269 82.1666 83.129C82.5106 83.6451 82.7687 84.1612 83.0267 84.7633C83.4568 85.6234 84.403 86.1395 85.4352 86.0535C86.3813 85.8815 87.2415 85.1073 87.4995 84.0752C87.5856 83.7311 87.5856 83.473 87.5856 83.215C87.5856 82.6989 87.5856 82.0968 87.6716 81.5807C87.4996 81.4947 87.5856 81.4087 87.5856 81.3226Z" fill="#FFE4EE"/>
<path d="M108.487 82.3546C109.58 82.3546 110.466 81.1223 110.466 79.6021C110.466 78.082 109.58 76.8496 108.487 76.8496C107.395 76.8496 106.509 78.082 106.509 79.6021C106.509 81.1223 107.395 82.3546 108.487 82.3546Z" fill="white"/>
<path d="M98.7674 82.3546C99.8601 82.3546 100.746 81.1223 100.746 79.6021C100.746 78.082 99.8601 76.8496 98.7674 76.8496C97.6748 76.8496 96.7891 78.082 96.7891 79.6021C96.7891 81.1223 97.6748 82.3546 98.7674 82.3546Z" fill="white"/>
<path d="M109.262 81.3225C109.927 81.3225 110.466 80.5523 110.466 79.6022C110.466 78.652 109.927 77.8818 109.262 77.8818C108.597 77.8818 108.058 78.652 108.058 79.6022C108.058 80.5523 108.597 81.3225 109.262 81.3225Z" fill="#333333"/>
<path d="M99.5421 81.2364C100.207 81.2364 100.746 80.5047 100.746 79.6021C100.746 78.6995 100.207 77.9678 99.5421 77.9678C98.877 77.9678 98.3379 78.6995 98.3379 79.6021C98.3379 80.5047 98.877 81.2364 99.5421 81.2364Z" fill="#333333"/>
<path d="M106.767 86.2255C106.509 88.978 105.133 91.1284 103.671 91.0424C102.208 90.9564 101.176 88.5479 101.434 85.7954L106.767 86.2255Z" fill="#FF7BA4"/>
<path d="M103.843 79C104.273 79.258 105.907 79.9462 105.907 81.1504C105.907 82.2686 104.961 83.2148 103.757 83.2148" stroke="#FFBED2" stroke-width="1.0213" stroke-miterlimit="10" stroke-linecap="round" stroke-linejoin="round"/>
<path d="M84.6616 83.387C85.0917 82.9569 85.0917 82.1828 84.6616 81.7527L84.1455 81.2366" stroke="#FFBED2" stroke-width="1.0213" stroke-miterlimit="10" stroke-linecap="round" stroke-linejoin="round"/>
<path d="M179.796 161.404L187.709 158.995C189.43 158.479 190.376 156.673 189.86 154.952C189.343 153.232 187.537 152.286 185.817 152.802L177.903 155.21C176.183 155.727 175.237 157.533 175.753 159.253C176.269 160.974 178.075 161.92 179.796 161.404Z" fill="#FFE4EE"/>
<path d="M179.882 154.78L187.623 152.458C189.343 151.942 190.29 150.135 189.774 148.415C189.257 146.695 187.451 145.748 185.731 146.264L177.989 148.587C176.269 149.103 175.323 150.909 175.839 152.63C176.269 154.264 178.161 155.296 179.882 154.78Z" fill="#FFE4EE"/>
<path d="M178.161 148.501L186.074 146.092C187.795 145.576 188.741 143.77 188.225 142.05C187.709 140.329 185.902 139.383 184.182 139.899L176.269 142.308C174.548 142.824 173.602 144.63 174.118 146.35C174.634 148.071 176.441 149.017 178.161 148.501Z" fill="#FFE4EE"/>
<path d="M174.893 143.168C174.119 143.942 173.775 145.146 174.119 146.351C174.635 148.071 176.441 149.017 178.161 148.501L183.494 146.867L177.903 148.587C176.183 149.103 175.237 150.909 175.753 152.63C176.269 154.35 178.075 155.296 179.796 154.78L184.871 153.232L177.903 155.296C176.183 155.812 175.237 157.619 175.753 159.339C176.269 161.059 178.075 162.005 179.796 161.489L182.29 160.715" stroke="#FFBED2" stroke-width="1.0977" stroke-miterlimit="10" stroke-linecap="round" stroke-linejoin="round"/>
<path d="M40.4494 164.414L46.8146 137.749C47.0726 137.921 47.3307 138.007 47.5887 138.093L62.0394 141.62C63.3297 141.964 64.1898 143.168 64.1038 144.544L62.4695 160.543C62.3835 160.973 62.8136 161.403 63.2436 161.145L73.6516 156.414C76.9202 154.78 79.5867 152.285 81.5651 149.189C83.6294 145.92 86.64 143.34 90.1667 141.792C92.231 140.845 94.7255 141.792 95.6717 143.856L96.3598 145.318C96.3598 145.318 97.9941 144.716 99.3704 144.544C100.747 144.286 102.467 144.716 103.069 146.092C103.671 147.469 103.155 149.017 101.865 149.705C103.155 149.361 104.617 149.963 105.133 151.253V151.339C105.822 152.802 105.133 154.436 103.757 155.124L102.811 155.554C104.101 155.296 105.392 155.898 105.908 157.102C106.424 158.135 106.166 159.339 105.392 160.113C103.757 162.349 100.919 164.5 97.6501 165.962L61.6954 182.219C55.8463 184.886 48.879 183.595 44.3201 179.036C40.7074 175.166 39.1592 169.661 40.4494 164.414Z" fill="#FFE4EE"/>
<path d="M95.7574 146.007L89.8223 148.673C89.8223 148.673 91.9727 147.555 91.3706 146.093L92.0587 147.641" stroke="#FFBED2" stroke-width="0.8363" stroke-miterlimit="10" stroke-linecap="round" stroke-linejoin="round"/>
<path d="M102.037 155.812L101.005 156.242" stroke="#FFBED2" stroke-width="0.8363" stroke-miterlimit="10" stroke-linecap="round" stroke-linejoin="round"/>
<path d="M100.919 150.049L99.9727 150.565" stroke="#FFBED2" stroke-width="0.8363" stroke-miterlimit="10" stroke-linecap="round" stroke-linejoin="round"/>
<path d="M61.7817 162.177L60.2334 163.897" stroke="#FFBED2" stroke-width="0.8363" stroke-miterlimit="10" stroke-linecap="round" stroke-linejoin="round"/>
<path d="M46.2119 140.673L46.9 137.749C47.1581 137.921 47.4161 138.007 47.6742 138.093L62.1249 141.62C63.4151 141.964 64.2753 143.168 64.1893 144.544L64.0172 146.35C62.555 145.232 59.8024 143.598 56.1038 142.738C50.1687 141.361 46.2119 140.673 46.2119 140.673Z" fill="#FFCDDC"/>
<path d="M205.059 124.402L193.066 124.146C191.28 124.146 189.919 122.7 190.004 120.914C190.004 119.128 191.45 117.767 193.236 117.852L208.121 118.107C210.758 118.192 213.31 118.618 215.777 119.468C217.308 119.979 218.839 118.533 218.329 116.916L216.883 112.493C216.372 110.792 217.393 109.091 219.094 108.581C220.795 108.07 222.497 109.091 223.007 110.792L235.681 152.727C235.851 153.237 236.616 153.152 236.616 152.641L238.573 133.928L258.222 136.99L255.585 160.297C254.479 169.909 246.313 177.054 236.616 176.883C228.621 176.713 221.561 171.695 218.754 164.21L212.034 142.179C211.439 140.393 209.823 139.202 207.951 139.202C206.505 139.202 205.144 138.436 204.379 137.246L202.593 134.524L206.505 132.057L205.059 124.402Z" fill="#FFE4EE"/>
<path d="M207.782 130.696L201.147 130.526C199.361 130.526 198 129.08 198.085 127.294C198.085 125.507 199.531 124.147 201.317 124.232L207.952 124.402C209.738 124.402 211.099 125.848 211.014 127.634C211.014 129.335 209.568 130.781 207.782 130.696Z" fill="#FFE4EE"/>
<path d="M209.398 137.076L202.763 136.906C200.977 136.906 199.616 135.46 199.701 133.673C199.701 131.887 201.147 130.526 202.933 130.611L209.568 130.781C211.354 130.781 212.715 132.227 212.63 134.014C212.545 135.715 211.184 137.076 209.398 137.076Z" fill="#FFE4EE"/>
<path d="M201.316 124.232L207.951 124.402C209.737 124.402 211.098 125.848 211.013 127.634C211.013 129.42 209.567 130.781 207.781 130.696" stroke="#FFBED2" stroke-width="1.0733" stroke-miterlimit="10" stroke-linecap="round" stroke-linejoin="round"/>
<path d="M203.783 130.611L209.482 130.696C211.268 130.696 212.629 132.142 212.544 133.928C212.544 135.715 211.098 137.076 209.312 136.991" stroke="#FFBED2" stroke-width="1.0733" stroke-miterlimit="10" stroke-linecap="round" stroke-linejoin="round"/>
<path d="M218.244 123.381C218.244 123.381 215.777 133.588 220.03 136.055" stroke="#FFBED2" stroke-width="1.0733" stroke-miterlimit="10" stroke-linecap="round" stroke-linejoin="round"/>
<path d="M236.361 154.683L236.446 157.32" stroke="#FFBED2" stroke-width="1.0733" stroke-miterlimit="10" stroke-linecap="round" stroke-linejoin="round"/>
<path d="M237.553 141.924C243.847 143.54 250.227 146.177 256.691 148.984L257.882 138.011L238.318 134.013L237.553 141.924Z" fill="#FFCDDC"/>
<path d="M251.247 142.434C252.522 142.774 253.373 143.965 253.203 145.241L250.141 185.899C250.056 187.43 251.247 188.791 252.778 188.791H312.234C313.85 188.791 315.041 187.43 314.871 185.814L310.788 145.326C310.618 143.965 311.554 142.774 312.83 142.434L327.12 138.946C328.396 138.606 329.331 137.415 329.161 136.054C327.63 123.21 313.85 112.663 295.392 109.176C294.287 109.005 293.436 108.155 293.181 107.049C293.011 106.113 292.33 105.348 291.48 105.008C285.44 102.966 279.486 102.966 273.532 105.008C272.596 105.348 272.001 106.113 271.831 107.049C271.661 108.155 270.725 109.005 269.619 109.176C251.161 112.663 237.297 123.21 235.851 136.054C235.681 137.33 236.531 138.606 237.807 138.946L251.247 142.434Z" fill="#FF915A"/>
<path d="M293.266 112.153L289.353 117.512C288.758 118.362 287.482 118.447 286.716 117.767L283.909 115.045C283.229 114.364 282.123 114.364 281.358 115.045L278.551 117.767C277.785 118.532 276.509 118.362 275.914 117.512L272.001 112.153" stroke="#FF8737" stroke-width="1.0213" stroke-miterlimit="10" stroke-linecap="round" stroke-linejoin="round"/>
<path d="M282.549 119.298C283.019 119.298 283.399 118.917 283.399 118.447C283.399 117.977 283.019 117.596 282.549 117.596C282.079 117.596 281.698 117.977 281.698 118.447C281.698 118.917 282.079 119.298 282.549 119.298Z" fill="#E5E5E5"/>
<path d="M282.549 121.764C283.019 121.764 283.399 121.384 283.399 120.914C283.399 120.444 283.019 120.063 282.549 120.063C282.079 120.063 281.698 120.444 281.698 120.914C281.698 121.384 282.079 121.764 282.549 121.764Z" fill="#E5E5E5"/>
<path d="M290.204 84.7639H274.639L273.193 105.518C272.512 111.047 276.85 111.813 282.379 111.813C287.908 111.813 292.246 110.962 291.565 105.518L290.204 84.7639Z" fill="#FFDAE4"/>
<path d="M286.632 94.1201C283.655 96.5018 279.742 105.943 278.806 111.727C275.574 111.302 273.278 110.196 273.107 107.049C273.107 106.454 273.107 105.943 273.107 105.688V105.603L273.788 94.5454L286.632 94.1201Z" fill="#FFCDDC"/>
<path d="M260.859 75.322C260.859 65.1148 269.365 56.9491 279.658 57.4595C288.759 57.8848 296.244 65.4551 296.669 74.5564C296.84 78.7244 295.564 82.6371 293.352 85.7843C291.396 88.5913 289.099 90.5477 287.313 93.4397C284.421 98.0329 277.871 100.415 272.683 99.2237C267.494 98.0329 263.666 93.6098 262.646 89.9522C262.22 88.3361 262.22 86.2096 262.135 84.6785C261.965 81.9566 261.115 79.3198 260.944 76.4278C260.859 76.0025 260.859 75.6622 260.859 75.322Z" fill="#FFE4EE"/>
<path d="M290.8 92.4191C290.8 92.4191 301.432 86.9753 299.306 74.3865C297.179 61.7976 290.715 58.3102 287.823 57.3745C284.931 56.4389 270.726 51.4203 264.091 61.9677C257.457 72.5151 259.328 77.1084 261.369 79.9153C261.369 79.9153 263.581 67.2414 268.855 65.7104C269.365 65.5402 269.96 65.7954 270.13 66.3058C270.641 67.6667 272.257 70.3886 277.36 71.4094C284.25 72.7703 284.846 78.044 287.653 78.8096C290.46 79.49 290.205 88.4213 290.8 92.4191Z" fill="#333333"/>
<path d="M289.184 81.7865C289.184 79.9152 290.63 78.3841 292.331 78.4692C293.862 78.5543 295.053 79.9152 295.138 81.6164C295.138 82.3819 294.968 83.0624 294.542 83.6578C294.202 84.1682 293.947 84.6786 293.607 85.274C293.096 86.1246 292.246 86.6349 291.225 86.4648C290.289 86.2947 289.439 85.5292 289.269 84.4234C289.184 84.0831 289.184 83.828 289.184 83.5728C289.269 83.0624 289.184 82.467 289.184 81.9566C289.184 81.8716 289.184 81.8716 289.184 81.7865Z" fill="#FFE4EE"/>
<path d="M302.449 65.6318C305.106 62.9744 304.756 58.3158 301.667 55.2266C298.578 52.1374 293.919 51.7873 291.262 54.4447C288.604 57.1021 288.955 61.7607 292.044 64.8499C295.133 67.9391 299.792 68.2892 302.449 65.6318Z" fill="#333333"/>
<path d="M268.089 81.8718C269.17 81.8718 270.046 80.6532 270.046 79.1499C270.046 77.6466 269.17 76.428 268.089 76.428C267.009 76.428 266.133 77.6466 266.133 79.1499C266.133 80.6532 267.009 81.8718 268.089 81.8718Z" fill="white"/>
<path d="M277.786 81.8718C278.867 81.8718 279.743 80.6532 279.743 79.1499C279.743 77.6466 278.867 76.428 277.786 76.428C276.706 76.428 275.83 77.6466 275.83 79.1499C275.83 80.6532 276.706 81.8718 277.786 81.8718Z" fill="white"/>
<path d="M267.324 80.8506C267.981 80.8506 268.514 80.089 268.514 79.1494C268.514 78.2099 267.981 77.4482 267.324 77.4482C266.666 77.4482 266.133 78.2099 266.133 79.1494C266.133 80.089 266.666 80.8506 267.324 80.8506Z" fill="#333333"/>
<path d="M277.021 80.766C277.679 80.766 278.212 80.0424 278.212 79.1498C278.212 78.2573 277.679 77.5337 277.021 77.5337C276.363 77.5337 275.83 78.2573 275.83 79.1498C275.83 80.0424 276.363 80.766 277.021 80.766Z" fill="#333333"/>
<path d="M276.765 86.8904C275.234 87.656 270.641 87.656 269.11 86.8904C268.94 86.8054 268.685 87.1456 268.855 87.4858C269.365 89.187 270.981 90.3779 272.938 90.3779C274.894 90.3779 276.51 89.187 277.021 87.4858C277.191 87.1456 276.936 86.8054 276.765 86.8904Z" fill="#FF7BA4"/>
<path d="M292.756 81.7014L292.331 82.1267C291.821 82.6371 291.821 83.3175 292.331 83.8279" stroke="#FFBED2" stroke-width="1.0213" stroke-miterlimit="10" stroke-linecap="round" stroke-linejoin="round"/>
<path d="M272.852 83.8283C271.746 83.8283 270.726 82.9777 270.726 81.7869C270.726 81.1064 271.236 80.596 271.831 80.1707C272.427 79.7454 272.767 79.065 272.767 78.3845V76.9385" stroke="#FFBED2" stroke-width="1.0213" stroke-miterlimit="10" stroke-linecap="round" stroke-linejoin="round"/>
<path d="M334.265 164.975L327.886 138.607C327.631 138.777 327.461 138.862 327.205 138.947L312.915 142.434C311.64 142.775 310.789 143.965 310.874 145.326L312.49 161.147C312.575 161.573 312.15 161.998 311.725 161.743L301.432 157.065C298.2 155.448 295.563 152.982 293.607 149.92C291.565 146.687 288.588 144.136 285.101 142.604C283.06 141.669 280.593 142.604 279.657 144.646L278.977 146.092C278.977 146.092 277.361 145.497 276 145.326C274.639 145.071 272.937 145.497 272.342 146.857C271.747 148.218 272.257 149.749 273.533 150.43C272.257 150.09 270.811 150.685 270.301 151.961V152.046C269.62 153.492 270.301 155.108 271.662 155.789L272.597 156.214C271.321 155.959 270.045 156.554 269.535 157.745C269.025 158.766 269.28 159.957 270.045 160.722C271.662 162.934 274.468 165.06 277.701 166.506L313.256 182.583C319.04 185.219 325.93 183.943 330.438 179.435C334.01 175.608 335.541 170.164 334.265 164.975Z" fill="#FFE4EE"/>
<path d="M279.657 146.772L285.526 149.409C285.526 149.409 283.4 148.303 283.995 146.857L283.315 148.388" stroke="#FFBED2" stroke-width="0.8363" stroke-miterlimit="10" stroke-linecap="round" stroke-linejoin="round"/>
<path d="M273.449 156.469L274.47 156.895" stroke="#FFBED2" stroke-width="0.8363" stroke-miterlimit="10" stroke-linecap="round" stroke-linejoin="round"/>
<path d="M274.47 150.77L275.49 151.281" stroke="#FFBED2" stroke-width="0.8363" stroke-miterlimit="10" stroke-linecap="round" stroke-linejoin="round"/>
<path d="M313.172 162.763L314.788 164.464" stroke="#FFBED2" stroke-width="0.8363" stroke-miterlimit="10" stroke-linecap="round" stroke-linejoin="round"/>
<path d="M328.651 141.498L327.971 138.606C327.716 138.777 327.546 138.862 327.29 138.947L313 142.434C311.725 142.774 310.874 143.965 310.959 145.326L311.129 147.112C312.575 146.007 315.297 144.391 318.955 143.54C324.654 142.179 328.651 141.498 328.651 141.498Z" fill="#FFCDDC"/>
</svg>
