<svg width="40" height="39" viewBox="0 0 40 39" fill="none" xmlns="http://www.w3.org/2000/svg">
<path d="M17.6641 35.4772L13.0397 37.9199C9.38765 39.8408 5.11899 36.7341 5.80672 32.6789L6.68417 27.5091C6.96875 25.8965 6.42331 24.2365 5.26128 23.0982L1.51436 19.4461C-1.44998 16.5766 0.186327 11.5491 4.26526 10.9562L9.4588 10.1973C11.0714 9.9602 12.4943 8.94046 13.2057 7.47015L15.5298 2.77462C17.3558 -0.924875 22.6442 -0.924875 24.4702 2.77462L26.7943 7.47015C27.5294 8.94046 28.9286 9.9602 30.5412 10.1973L35.7347 10.9562C39.8137 11.5491 41.45 16.5766 38.4856 19.4461L34.7387 23.0982C33.5767 24.2365 33.0312 25.8965 33.3158 27.5091L34.1933 32.6789C34.881 36.7578 30.6123 39.8408 26.9603 37.9199L22.3359 35.4772C20.8419 34.7184 19.1107 34.7184 17.6641 35.4772Z" fill="#FF6991"/>
</svg>
