<svg width="133" height="74" viewBox="0 0 133 74" fill="none" xmlns="http://www.w3.org/2000/svg">
<path d="M93.3776 14.7794L93.0073 16.899L83.0099 73.9996H28.0811L38.463 14.7794H93.3776Z" fill="#B4B4BE"/>
<path d="M85.3026 73.9999H30.3311L32.8518 59.6323H88.0085L85.3026 73.9999Z" fill="#5A5A6B"/>
<path d="M38.4629 14.7794L38.8332 16.899L48.8448 73.9996H103.688L93.3205 14.7794H38.4629Z" fill="#B4B4BE"/>
<path d="M40.7139 14.7794L41.0699 16.899L51.0816 73.9996H106.082L95.7139 14.7794H40.7139Z" fill="#D5D5DE"/>
<path d="M52.6053 11.9489C50.8109 11.9489 49.3583 13.3999 49.3583 15.1923C49.3583 16.9846 50.8109 18.4356 52.6053 18.4356V20.3845C49.7286 20.3845 47.4072 18.0658 47.4072 15.1923C47.4072 12.3187 49.7286 10 52.6053 10" fill="#EEEEF5"/>
<path d="M83.6512 11.9489C81.8568 11.9489 80.4042 13.3999 80.4042 15.1923C80.4042 16.9846 81.8568 18.4356 83.6512 18.4356V20.3845C80.7745 20.3845 78.4531 18.0658 78.4531 15.1923C78.4531 12.3187 80.7745 10 83.6512 10" fill="#D5D5DE"/>
<path d="M88.1229 11.9489C86.3285 11.9489 84.8759 13.3999 84.8759 15.1923C84.8759 16.9846 86.3285 18.4356 88.1229 18.4356V20.3845C85.2461 20.3845 82.9248 18.0658 82.9248 15.1923C82.9248 12.3187 85.2461 10 88.1229 10" fill="#EEEEF5"/>
<path d="M48.2899 11.9489C46.4955 11.9489 45.0429 13.3999 45.0429 15.1923C45.0429 16.9846 46.4955 18.4356 48.2899 18.4356V20.3845C45.4131 20.3845 43.0918 18.0658 43.0918 15.1923C43.0918 12.3187 45.4131 10 48.2899 10" fill="#D5D5DE"/>
<path d="M32.8516 59.6322H46.3239L39.5877 21.1953L32.8516 59.6322Z" fill="#787885"/>
<path d="M30.6016 59.632H32.8517L39.5878 21.1951L46.324 59.632H48.5599L40.9835 16.3869L40.7129 14.7794H38.4628L30.6016 59.632Z" fill="#D5D5DE"/>
<path d="M40.7139 14.7794L40.9845 16.3869L48.5608 59.632H101.325L93.4638 14.7794H40.7139Z" fill="white"/>
<path d="M40.7139 14.7794L40.9845 16.3869L48.5608 59.632H103.575L95.7139 14.7794H40.7139Z" fill="#FBFBFE"/>
<path d="M97.4799 24.8794H42.4798L40.7139 14.7794H95.7139L97.4799 24.8794Z" fill="#FF915A"/>
<path d="M48.2891 11.9489C50.0835 11.9489 51.5361 13.3999 51.5361 15.1923C51.5361 16.7286 50.468 18.0089 49.0296 18.3503C48.6024 18.4499 48.2891 18.8055 48.2891 19.2323V19.3887C48.2891 19.972 48.8302 20.3845 49.3856 20.2707C51.7212 19.7728 53.4872 17.6817 53.4872 15.1923C53.4872 12.3187 51.1658 10 48.2891 10" fill="#D5D5DE"/>
<path d="M52.6045 11.9489C54.3989 11.9489 55.8515 13.3999 55.8515 15.1923C55.8515 16.7286 54.7834 18.0089 53.345 18.3503C52.9178 18.4499 52.6045 18.8055 52.6045 19.2323V19.3887C52.6045 19.972 53.1457 20.3845 53.7011 20.2707C56.0367 19.7728 57.8026 17.6817 57.8026 15.1923C57.8026 12.3187 55.4812 10 52.6045 10" fill="#EEEEF5"/>
<path d="M88.1221 11.9489C89.9165 11.9489 91.3691 13.3999 91.3691 15.1923C91.3691 16.7286 90.301 18.0089 88.8626 18.3503C88.4354 18.4499 88.1221 18.8055 88.1221 19.2323V19.3887C88.1221 19.972 88.6632 20.3845 89.2186 20.2707C91.5542 19.7728 93.3202 17.6817 93.3202 15.1923C93.3202 12.3187 90.9988 10 88.1221 10" fill="#EEEEF5"/>
<path d="M83.6504 11.9489C85.4448 11.9489 86.8974 13.3999 86.8974 15.1923C86.8974 16.7286 85.8293 18.0089 84.3909 18.3503C83.9637 18.4499 83.6504 18.8055 83.6504 19.2323V19.3887C83.6504 19.972 84.1916 20.3845 84.747 20.2707C87.0826 19.7728 88.8485 17.6817 88.8485 15.1923C88.8485 12.3187 86.5271 10 83.6504 10" fill="#D5D5DE"/>
<path d="M90.971 43.6289C89.5468 43.6289 88.1939 42.4767 87.9518 41.0542C87.6955 39.6316 88.6496 38.4794 90.0737 38.4794C91.4979 38.4794 92.8508 39.6316 93.0929 41.0542C93.335 42.4767 92.3809 43.6289 90.971 43.6289ZM90.2874 39.7739C89.5753 39.7739 89.1053 40.3571 89.2335 41.0542C89.3617 41.7654 90.0453 42.3344 90.7431 42.3344C91.4552 42.3344 91.9251 41.7512 91.797 41.0542C91.683 40.3571 90.9994 39.7739 90.2874 39.7739Z" fill="#5A5A6B"/>
<path d="M56.8341 43.6297H54.8973C54.5412 43.6297 54.1995 43.3452 54.1425 42.9896L53.4589 39.1345C53.4019 38.7789 53.6298 38.4944 53.9858 38.4944H55.9227C57.3468 38.4944 58.6997 39.6466 58.9418 41.0692C59.2124 42.4775 58.2582 43.6297 56.8341 43.6297ZM55.3245 42.3495H56.6062C57.3183 42.3495 57.7883 41.7662 57.6601 41.0692C57.5319 40.3579 56.8483 39.7889 56.1505 39.7889H54.8688L55.3245 42.3495Z" fill="#5A5A6B"/>
<path d="M60.6082 43.6289C60.2522 43.6289 59.9104 43.3444 59.8534 42.9887L59.1698 39.1337C59.1129 38.778 59.3407 38.4935 59.6968 38.4935C60.0528 38.4935 60.3946 38.778 60.4516 39.1337L61.1352 42.9887C61.2064 43.3444 60.9643 43.6289 60.6082 43.6289Z" fill="#5A5A6B"/>
<path d="M75.7892 43.6289H73.8524C73.4963 43.6289 73.1545 43.3444 73.0976 42.9887L72.414 39.1337C72.357 38.778 72.5849 38.4935 72.9409 38.4935H74.8777C76.3019 38.4935 77.6548 39.6458 77.8969 41.0683C78.1532 42.4766 77.2133 43.6289 75.7892 43.6289ZM74.2796 42.3486H75.5613C76.2734 42.3486 76.7433 41.7654 76.6152 41.0683C76.487 40.357 75.8034 39.788 75.1056 39.788H73.8239L74.2796 42.3486Z" fill="#5A5A6B"/>
<path d="M87.1973 43.6289C86.8413 43.6289 86.4995 43.3444 86.4425 42.9887L85.9298 40.101C85.9014 39.9161 85.7305 39.7738 85.5453 39.7738C85.3602 39.7738 85.2463 39.9161 85.2747 40.101L85.7874 42.9887C85.8444 43.3444 85.6165 43.6289 85.2605 43.6289C84.9045 43.6289 84.5627 43.3444 84.5057 42.9887L83.993 40.101C83.9645 39.9161 83.7936 39.7738 83.6085 39.7738C83.4234 39.7738 83.3094 39.9161 83.3379 40.101L83.8506 42.9887C83.9076 43.3444 83.6797 43.6289 83.3237 43.6289C82.9676 43.6289 82.6258 43.3444 82.5689 42.9887L82.0562 40.101C81.8995 39.219 82.4977 38.4935 83.3806 38.4935C83.7367 38.4935 84.0927 38.6073 84.406 38.8207C84.6339 38.6215 84.9472 38.4935 85.3175 38.4935C86.2004 38.4935 87.0549 39.219 87.2116 40.101L87.7242 42.9887C87.7812 43.3444 87.5533 43.6289 87.1973 43.6289Z" fill="#5A5A6B"/>
<path d="M70.093 43.6289C68.6689 43.6289 67.316 42.4767 67.0739 41.0542C66.8175 39.6316 67.7717 38.4794 69.1958 38.4794C70.62 38.4794 71.9729 39.6316 72.215 41.0542C72.4571 42.4767 71.5029 43.6289 70.093 43.6289ZM69.4094 39.7739C68.6974 39.7739 68.2274 40.3571 68.3556 41.0542C68.4838 41.7512 69.1673 42.3344 69.8652 42.3344C70.563 42.3344 71.0472 41.7512 70.919 41.0542C70.7909 40.3571 70.1215 39.7739 69.4094 39.7739Z" fill="#5A5A6B"/>
<path d="M66.3194 43.6289C65.9633 43.6289 65.6216 43.3444 65.5646 42.9887L65.0519 40.101C65.0234 39.9161 64.8525 39.7738 64.6674 39.7738C64.4822 39.7738 64.3683 39.9161 64.3968 40.101L64.9095 42.9887C64.9665 43.3444 64.7386 43.6289 64.3826 43.6289C64.0265 43.6289 63.6847 43.3444 63.6278 42.9887L63.1151 40.101C63.0866 39.9161 62.9157 39.7738 62.7306 39.7738C62.5454 39.7738 62.4315 39.9161 62.46 40.101L62.9727 42.9887C63.0296 43.3444 62.8018 43.6289 62.4457 43.6289C62.0897 43.6289 61.7479 43.3444 61.6909 42.9887L61.1783 40.101C61.0216 39.219 61.6197 38.4935 62.5027 38.4935C62.8587 38.4935 63.2148 38.6073 63.5281 38.8207C63.7559 38.6215 64.0692 38.4935 64.4395 38.4935C65.3225 38.4935 66.177 39.219 66.3336 40.101L66.8463 42.9887C66.9033 43.3444 66.6754 43.6289 66.3194 43.6289Z" fill="#5A5A6B"/>
<path d="M81.5007 43.6289C81.1447 43.6289 80.8029 43.3444 80.7459 42.9887L80.2332 40.101C80.2048 39.9161 80.0339 39.7738 79.8487 39.7738C79.6636 39.7738 79.5497 39.9161 79.5781 40.101L80.0908 42.9887C80.1478 43.3444 79.9199 43.6289 79.5639 43.6289C79.2079 43.6289 78.8661 43.3444 78.8091 42.9887L78.2964 40.101C78.1398 39.219 78.7379 38.4935 79.6209 38.4935C80.5038 38.4935 81.3583 39.219 81.515 40.101L82.0276 42.9887C82.0846 43.3444 81.8425 43.6289 81.5007 43.6289Z" fill="#5A5A6B"/>
<path d="M81.1583 41.7085H79.2215C78.8655 41.7085 78.5237 41.424 78.4667 41.0684C78.4098 40.7127 78.6376 40.4282 78.9936 40.4282H80.9305C81.2865 40.4282 81.6283 40.7127 81.6853 41.0684C81.7422 41.424 81.5144 41.7085 81.1583 41.7085Z" fill="#5A5A6B"/>
<path opacity="0.7" d="M119.33 13.1943C119.33 12.8674 119.181 12.5658 118.925 12.317C118.805 12.1992 118.888 12 119.059 12C119.935 12 121.614 12 122.566 12C122.954 12 123.268 12.3049 123.268 12.6813V16.0804C123.268 16.2455 123.474 16.328 123.595 16.2113C123.852 15.9637 124.163 15.8184 124.5 15.8184C125.374 15.8184 126.081 16.7947 126.081 18C126.081 19.2053 125.373 20.1816 124.5 20.1816C124.163 20.1816 123.852 20.0363 123.595 19.7887C123.474 19.672 123.268 19.7534 123.268 19.9196V23.3187C123.268 23.6951 122.954 24 122.566 24H119.02C118.877 23.9714 118.815 23.7964 118.925 23.6885C119.181 23.4397 119.33 23.1381 119.33 22.8112C119.33 21.9637 118.323 21.2779 117.08 21.2779C115.839 21.2779 114.831 21.9648 114.831 22.8112C114.831 23.1381 114.98 23.4397 115.236 23.6885C115.346 23.7964 115.284 23.9714 115.141 24H111.597C111.208 24 110.894 23.6951 110.894 23.3187V19.9196C110.894 19.7545 110.688 19.672 110.567 19.7887C110.31 20.0363 109.999 20.1816 109.662 20.1816C108.788 20.1816 108.081 19.2053 108.081 18C108.081 16.7947 108.789 15.8184 109.662 15.8184C109.999 15.8184 110.31 15.9637 110.567 16.2113C110.688 16.328 110.894 16.2477 110.894 16.0815V12.6813C110.894 12.3049 111.208 12 111.597 12H115.102C115.272 12 115.357 12.1992 115.237 12.317C114.982 12.5658 114.832 12.8674 114.832 13.1943C114.832 14.0418 115.839 14.7276 117.082 14.7276C118.323 14.7276 119.33 14.0407 119.33 13.1943Z" fill="#D5D5DE"/>
<path d="M0.0849088 59.3959C0.0849088 58.9106 0.466558 58.5168 0.936874 58.5168H5.18514C5.39331 58.5168 5.49354 58.2582 5.34705 58.107C5.03865 57.7848 4.85746 57.3949 4.85746 56.9772C4.85746 55.8832 6.07951 55 7.58298 55C9.08645 55 10.3085 55.8871 10.3085 56.9772C10.3085 57.3989 10.1273 57.7887 9.81891 58.107C9.67242 58.2582 9.77651 58.5168 9.98083 58.5168H14.2291C14.6994 58.5168 15.0811 58.9106 15.0811 59.3959V63.8317C15.0464 64.0107 14.8266 64.0902 14.6917 63.951C14.3794 63.6327 14.0016 63.4458 13.5969 63.4458C12.5367 63.4458 11.6809 64.7069 11.6809 66.2584C11.6809 67.8139 12.5406 69.071 13.5969 69.071C14.0055 69.071 14.3833 68.884 14.6917 68.5657C14.8266 68.4265 15.0464 68.5061 15.0811 68.6851V73.1208C15.0811 73.6062 14.6994 74 14.2291 74H0.93302C0.462704 74 0.0810547 73.6062 0.0810547 73.1208V59.3959H0.0849088Z" fill="#EEEEF5"/>
<path d="M132.081 55.9907C132.081 56.3228 131.827 56.5921 131.513 56.5921H128.681C128.544 56.5921 128.476 56.7671 128.573 56.8726C128.779 57.0925 128.9 57.3596 128.9 57.6468C128.9 58.3941 128.086 59 127.081 59C126.076 59 125.262 58.3941 125.262 57.6468C125.262 57.3596 125.383 57.0925 125.589 56.8726C125.686 56.7694 125.619 56.5921 125.481 56.5921H122.649C122.335 56.5921 122.081 56.3228 122.081 55.9907V52.9567C122.104 52.8355 122.251 52.7816 122.34 52.8759C122.547 53.0936 122.8 53.2215 123.071 53.2215C123.777 53.2215 124.349 52.3597 124.349 51.296C124.349 50.2323 123.777 49.3706 123.071 49.3706C122.8 49.3706 122.547 49.4985 122.34 49.7162C122.251 49.8105 122.104 49.7566 122.081 49.6354V46.6014C122.081 46.2693 122.335 46 122.649 46H131.513C131.827 46 132.081 46.2693 132.081 46.6014V55.9907Z" fill="#78D7E1"/>
<path d="M28.4994 6.74745C28.1622 6.74745 27.8511 6.89643 27.594 7.15158C27.4729 7.27263 27.268 7.18697 27.268 7.01749V3.51433C27.268 3.33182 27.1972 3.16793 27.0835 3.04315C27.0761 3.0357 27.0705 3.02452 27.063 3.01707C27.0556 3.00962 27.0463 3.00404 27.037 2.99659C26.9121 2.88299 26.7482 2.81221 26.5656 2.81221C25.6155 2.81221 23.937 2.81221 23.0614 2.81221C22.89 2.81221 22.8062 2.60735 22.9273 2.48629C23.1825 2.22928 23.3315 1.91827 23.3315 1.58118C23.3315 0.707716 22.3237 0 21.0829 0C19.8403 0 18.8325 0.707716 18.8325 1.58118C18.8325 1.91827 18.9815 2.22928 19.2367 2.48629C19.3578 2.60735 19.2721 2.81221 19.1026 2.81221H15.5983C15.5499 2.81221 15.5015 2.8178 15.4568 2.82711C15.1829 2.88299 14.9668 3.09902 14.909 3.37465C14.8997 3.42121 14.8941 3.46778 14.8941 3.5162V7.02121C14.8941 7.19255 14.6892 7.27636 14.5681 7.15531C14.311 6.90016 13.9999 6.75116 13.6627 6.75116C12.789 6.75116 12.0811 7.75872 12.0811 9.00094C12.0811 10.2432 12.789 11.2507 13.6627 11.2507C13.9999 11.2507 14.311 11.1017 14.5681 10.8466C14.6892 10.7255 14.8941 10.8112 14.8941 10.9807V14.4838C14.8941 14.5322 14.8997 14.5788 14.909 14.6254C14.9649 14.8991 15.181 15.1152 15.4568 15.1729C15.5033 15.1822 15.5499 15.1878 15.5983 15.1878H19.1007C19.2721 15.1878 19.3559 15.3927 19.2349 15.5137C18.9796 15.7707 18.8306 16.0817 18.8306 16.4188C18.8306 17.2923 19.8385 18 21.0811 18C22.3237 18 23.3297 17.2923 23.3297 16.4188C23.3297 16.0817 23.1806 15.7707 22.9254 15.5137C22.8043 15.3927 22.8881 15.1878 23.0595 15.1878H26.5656C26.7109 15.1878 26.8469 15.1431 26.9587 15.0686C27.145 14.942 27.268 14.7278 27.268 14.4857V10.9825C27.268 10.8112 27.4729 10.7274 27.594 10.8484C27.8511 11.1036 28.1622 11.2526 28.4994 11.2526C29.3731 11.2526 30.0811 10.245 30.0811 9.0028C30.0811 7.75314 29.3731 6.74745 28.4994 6.74745Z" fill="#FAD26E"/>
</svg>
