<svg width="90" height="36" viewBox="0 0 90 36" fill="none" xmlns="http://www.w3.org/2000/svg">
<rect x="1" y="1" width="88" height="34" rx="17" stroke="#CDFFB9" stroke-width="2"/>
<path d="M16.424 23.07C16.032 23.07 15.7147 22.958 15.472 22.734C15.2387 22.5007 15.122 22.1927 15.122 21.81V15.216H13.148C12.7373 15.216 12.4293 15.132 12.224 14.964C12.028 14.7867 11.93 14.5207 11.93 14.166C11.93 13.8113 12.028 13.55 12.224 13.382C12.4293 13.214 12.7373 13.13 13.148 13.13H19.7C20.1107 13.13 20.414 13.214 20.61 13.382C20.8153 13.55 20.918 13.8113 20.918 14.166C20.918 14.5207 20.8153 14.7867 20.61 14.964C20.414 15.132 20.1107 15.216 19.7 15.216H17.726V21.81C17.726 22.1927 17.6047 22.5007 17.362 22.734C17.1287 22.958 16.816 23.07 16.424 23.07ZM28.0618 13.466C28.3045 13.186 28.5892 13.046 28.9158 13.046C29.2238 13.046 29.4992 13.1673 29.7418 13.41C29.9938 13.6433 30.1198 13.914 30.1198 14.222C30.1198 14.4927 30.0172 14.7493 29.8118 14.992L26.8718 18.394V21.81C26.8718 22.2207 26.7505 22.538 26.5078 22.762C26.2745 22.9767 25.9712 23.084 25.5978 23.084C25.2152 23.084 24.9025 22.9767 24.6598 22.762C24.4172 22.538 24.2958 22.2207 24.2958 21.81V18.394L21.3838 14.992C21.1692 14.7493 21.0618 14.488 21.0618 14.208C21.0618 13.9 21.1832 13.6293 21.4258 13.396C21.6685 13.1627 21.9438 13.046 22.2518 13.046C22.5785 13.046 22.8632 13.186 23.1058 13.466L25.5838 16.406L28.0618 13.466ZM32.1693 23.084C31.7773 23.084 31.4646 22.972 31.2313 22.748C31.0073 22.5147 30.8953 22.202 30.8953 21.81V14.32C30.8953 13.9373 30.998 13.6433 31.2033 13.438C31.4086 13.2327 31.7026 13.13 32.0853 13.13H35.6693C36.7613 13.13 37.6106 13.41 38.2173 13.97C38.824 14.5207 39.1273 15.2907 39.1273 16.28C39.1273 17.26 38.8193 18.03 38.2033 18.59C37.5966 19.15 36.752 19.43 35.6693 19.43H33.4713V21.81C33.4713 22.202 33.3546 22.5147 33.1213 22.748C32.888 22.972 32.5706 23.084 32.1693 23.084ZM35.3193 17.498C35.7953 17.498 36.1453 17.4 36.3693 17.204C36.6026 17.008 36.7193 16.7047 36.7193 16.294C36.7193 15.482 36.2526 15.076 35.3193 15.076H33.4713V17.498H35.3193ZM41.4199 23C41.0372 23 40.7432 22.8973 40.5379 22.692C40.3326 22.4867 40.2299 22.1927 40.2299 21.81V14.32C40.2299 13.9373 40.3326 13.6433 40.5379 13.438C40.7432 13.2327 41.0372 13.13 41.4199 13.13H46.2639C46.6652 13.13 46.9686 13.214 47.1739 13.382C47.3792 13.55 47.4819 13.7927 47.4819 14.11C47.4819 14.782 47.0759 15.118 46.2639 15.118H42.7359V16.994H45.9839C46.7959 16.994 47.2019 17.3253 47.2019 17.988C47.2019 18.3053 47.0992 18.548 46.8939 18.716C46.6886 18.884 46.3852 18.968 45.9839 18.968H42.7359V21.012H46.2639C47.0759 21.012 47.4819 21.348 47.4819 22.02C47.4819 22.3373 47.3792 22.58 47.1739 22.748C46.9686 22.916 46.6652 23 46.2639 23H41.4199Z" fill="#CDFFB9"/>
<path d="M79 9H65C63.8954 9 63 9.89543 63 11V25C63 26.1046 63.8954 27 65 27H79C80.1046 27 81 26.1046 81 25V11C81 9.89543 80.1046 9 79 9Z" fill="#CDFFB9"/>
</svg>
