<svg width="32" height="32" viewBox="0 0 32 32" fill="none" xmlns="http://www.w3.org/2000/svg">
<path d="M13.6644 27.6779L13.6619 27.6793L9.96395 29.645C9.96354 29.6452 9.96313 29.6454 9.96272 29.6456C7.78814 30.7955 5.21649 28.9387 5.63145 26.4757C5.63146 26.4756 5.63146 26.4756 5.63147 26.4755L6.33231 22.3199C6.3325 22.3188 6.3327 22.3177 6.33289 22.3166C6.61652 20.6926 6.07143 19.0278 4.91107 17.8839L4.90928 17.8821L1.91174 14.9419L1.90928 14.9395C0.127935 13.2042 1.11824 10.1669 3.55694 9.81017L3.55769 9.81006L7.71252 9.19911L7.71344 9.19897C9.32334 8.96072 10.7471 7.93843 11.4638 6.45171L13.3212 2.67515L13.3216 2.67417C14.4165 0.441943 17.5835 0.441943 18.6784 2.67417L18.6788 2.67515L20.5381 6.45545L20.5399 6.45907C21.2709 7.93039 22.6667 8.95925 24.2866 9.19897L24.2875 9.19911L28.4423 9.81006L28.443 9.81017C30.8818 10.1669 31.8721 13.2042 30.0907 14.9395L30.0883 14.9419L27.0907 17.8821L27.0889 17.8839C25.9286 19.0278 25.3835 20.6924 25.6671 22.3164C25.6673 22.3176 25.6675 22.3188 25.6677 22.3199L26.3684 26.4746C26.3684 26.4749 26.3685 26.4752 26.3685 26.4755C26.3685 26.4756 26.3685 26.4756 26.3685 26.4757C26.7831 28.955 24.2143 30.7968 22.0373 29.6456C22.0369 29.6454 22.0364 29.6452 22.036 29.645L18.3381 27.6793L18.331 27.6755L18.3239 27.6719C16.8475 26.9172 15.1184 26.9103 13.6644 27.6779Z" fill="white" stroke="#FAD26E" stroke-width="2"/>
</svg>
