<svg width="90" height="36" viewBox="0 0 90 36" fill="none" xmlns="http://www.w3.org/2000/svg">
<rect x="1" y="1" width="88" height="34" rx="17" stroke="#BEFAFF" stroke-width="2"/>
<path d="M16.424 23.0701C16.032 23.0701 15.7147 22.9581 15.472 22.7341C15.2387 22.5007 15.122 22.1927 15.122 21.8101V15.2161H13.148C12.7373 15.2161 12.4293 15.1321 12.224 14.9641C12.028 14.7867 11.93 14.5207 11.93 14.1661C11.93 13.8114 12.028 13.5501 12.224 13.3821C12.4293 13.2141 12.7373 13.1301 13.148 13.1301H19.7C20.1107 13.1301 20.414 13.2141 20.61 13.3821C20.8153 13.5501 20.918 13.8114 20.918 14.1661C20.918 14.5207 20.8153 14.7867 20.61 14.9641C20.414 15.1321 20.1107 15.2161 19.7 15.2161H17.726V21.8101C17.726 22.1927 17.6047 22.5007 17.362 22.7341C17.1287 22.9581 16.816 23.0701 16.424 23.0701ZM28.0618 13.4661C28.3045 13.1861 28.5892 13.0461 28.9158 13.0461C29.2238 13.0461 29.4992 13.1674 29.7418 13.4101C29.9938 13.6434 30.1198 13.9141 30.1198 14.2221C30.1198 14.4927 30.0172 14.7494 29.8118 14.9921L26.8718 18.3941V21.8101C26.8718 22.2207 26.7505 22.5381 26.5078 22.7621C26.2745 22.9767 25.9712 23.0841 25.5978 23.0841C25.2152 23.0841 24.9025 22.9767 24.6598 22.7621C24.4172 22.5381 24.2958 22.2207 24.2958 21.8101V18.3941L21.3838 14.9921C21.1692 14.7494 21.0618 14.4881 21.0618 14.2081C21.0618 13.9001 21.1832 13.6294 21.4258 13.3961C21.6685 13.1627 21.9438 13.0461 22.2518 13.0461C22.5785 13.0461 22.8632 13.1861 23.1058 13.4661L25.5838 16.4061L28.0618 13.4661ZM32.1693 23.0841C31.7773 23.0841 31.4646 22.9721 31.2313 22.7481C31.0073 22.5147 30.8953 22.2021 30.8953 21.8101V14.3201C30.8953 13.9374 30.998 13.6434 31.2033 13.4381C31.4086 13.2327 31.7026 13.1301 32.0853 13.1301H35.6693C36.7613 13.1301 37.6106 13.4101 38.2173 13.9701C38.824 14.5207 39.1273 15.2907 39.1273 16.2801C39.1273 17.2601 38.8193 18.0301 38.2033 18.5901C37.5966 19.1501 36.752 19.4301 35.6693 19.4301H33.4713V21.8101C33.4713 22.2021 33.3546 22.5147 33.1213 22.7481C32.888 22.9721 32.5706 23.0841 32.1693 23.0841ZM35.3193 17.4981C35.7953 17.4981 36.1453 17.4001 36.3693 17.2041C36.6026 17.0081 36.7193 16.7047 36.7193 16.2941C36.7193 15.4821 36.2526 15.0761 35.3193 15.0761H33.4713V17.4981H35.3193ZM41.4199 23.0001C41.0372 23.0001 40.7432 22.8974 40.5379 22.6921C40.3326 22.4867 40.2299 22.1927 40.2299 21.8101V14.3201C40.2299 13.9374 40.3326 13.6434 40.5379 13.4381C40.7432 13.2327 41.0372 13.1301 41.4199 13.1301H46.2639C46.6652 13.1301 46.9686 13.2141 47.1739 13.3821C47.3792 13.5501 47.4819 13.7927 47.4819 14.1101C47.4819 14.7821 47.0759 15.1181 46.2639 15.1181H42.7359V16.9941H45.9839C46.7959 16.9941 47.2019 17.3254 47.2019 17.9881C47.2019 18.3054 47.0992 18.5481 46.8939 18.7161C46.6886 18.8841 46.3852 18.9681 45.9839 18.9681H42.7359V21.0121H46.2639C47.0759 21.0121 47.4819 21.3481 47.4819 22.0201C47.4819 22.3374 47.3792 22.5801 47.1739 22.7481C46.9686 22.9161 46.6652 23.0001 46.2639 23.0001H41.4199Z" fill="#BEFAFF"/>
<path d="M69.2934 25.2074C70.0733 26.4836 71.9267 26.4836 72.7066 25.2074L80.1405 13.0429C80.9549 11.7102 79.9957 10 78.4339 10L63.5661 10C62.0043 10 61.0451 11.7102 61.8596 13.0429L69.2934 25.2074Z" fill="#BEFAFF"/>
</svg>
