<svg width="40" height="39" viewBox="0 0 40 39" fill="none" xmlns="http://www.w3.org/2000/svg">
<path d="M17.1995 34.5917L17.197 34.593L12.5742 37.0348C9.65644 38.5695 6.2432 36.0866 6.79262 32.8462C6.79263 32.8462 6.79264 32.8462 6.79264 32.8461L7.66895 27.6829C7.66915 27.6818 7.66934 27.6807 7.66953 27.6796C8.01091 25.7386 7.35476 23.7491 5.96107 22.3838L5.95927 22.382L2.21235 18.73L2.20988 18.7276C-0.154687 16.4387 1.14766 12.4199 4.4091 11.9458L4.40984 11.9457L9.60338 11.1868L9.60429 11.1867C11.5343 10.9029 13.2436 9.68412 14.1039 7.90985L16.426 3.21821L16.4265 3.21723C17.8857 0.260922 22.1143 0.260922 23.5735 3.21723L23.574 3.21821L25.898 7.91374L25.8998 7.91736C26.7792 9.67615 28.4558 10.9014 30.3957 11.1867L30.3966 11.1868L35.5901 11.9457L35.5909 11.9458C38.8523 12.4199 40.1547 16.4387 37.7901 18.7276L37.7877 18.73L34.0407 22.382L34.0389 22.3838C32.6453 23.749 31.9891 25.7385 32.3304 27.6794C32.3306 27.6805 32.3308 27.6817 32.331 27.6829L33.2072 32.8452C33.7571 36.107 30.3463 38.5709 27.4258 37.0348L22.803 34.593L22.7959 34.5893L22.7888 34.5857C21.0148 33.6846 18.9416 33.6778 17.1995 34.5917Z" fill="white" stroke="#FFD25F" stroke-width="2"/>
</svg>
