<svg width="107" height="14" viewBox="0 0 107 14" fill="none" xmlns="http://www.w3.org/2000/svg">
<path fill-rule="evenodd" clip-rule="evenodd" d="M6.99999 14H1.74651C0.782434 14 0 13.2176 0 12.2535V1.74651C0 0.782435 0.782434 0 1.74651 0H6.99999C10.8563 0 14 3.14371 14 7C14 10.8563 10.8563 14 6.99999 14ZM3.49301 10.507H6.99999C8.92814 10.507 10.507 8.92814 10.507 7C10.507 5.07186 8.92814 3.49301 6.99999 3.49301H3.49301V10.507ZM99.8582 14C96.0019 14 92.8582 10.8563 92.8582 7C92.8582 3.14371 96.0019 0 99.8582 0C103.714 0 106.858 3.14371 106.858 7C106.858 10.8563 103.728 14 99.8582 14ZM99.8582 3.49301C97.9301 3.49301 96.3512 5.07186 96.3512 7C96.3512 8.92814 97.9301 10.507 99.8582 10.507C101.786 10.507 103.365 8.92814 103.365 7C103.365 5.07186 101.8 3.49301 99.8582 3.49301ZM15.5229 12.2535C15.5229 13.2176 16.3054 14 17.2694 14C18.2335 14 19.016 13.2176 19.016 12.2535V1.74651C19.016 0.782435 18.2335 0 17.2694 0C16.3054 0 15.5229 0.782435 15.5229 1.74651V12.2535ZM58.5708 14H53.3173C52.3533 14 51.5708 13.2176 51.5708 12.2535V1.74651C51.5708 0.782435 52.3533 0 53.3173 0H58.5708C62.4271 0 65.5708 3.14371 65.5708 7C65.5708 10.8563 62.4271 14 58.5708 14ZM55.0638 10.507H58.5708C60.4989 10.507 62.0778 8.92814 62.0778 7C62.0778 5.07186 60.4989 3.49301 58.5708 3.49301H55.0638V10.507ZM87.8562 12.2535C87.8562 13.2176 88.6386 14 89.6027 14C90.5668 14 91.3492 13.2176 91.3492 12.2535V4.37325C91.3492 1.95609 89.3931 0 86.976 0C85.9839 0 85.0758 0.335329 84.3492 0.88024C83.6227 0.321357 82.7005 0 81.7225 0C79.3053 0 77.3492 1.95609 77.3492 4.37325V12.2535C77.3492 13.2176 78.1317 14 79.0957 14C80.0598 14 80.8422 13.2176 80.8422 12.2535V4.37325C80.8422 3.88423 81.2335 3.49301 81.7225 3.49301C82.2115 3.49301 82.6027 3.88423 82.6027 4.37325V12.2535C82.6027 13.2176 83.3851 14 84.3492 14C85.3133 14 86.0957 13.2176 86.0957 12.2535V4.37325C86.0957 3.88423 86.4869 3.49301 86.976 3.49301C87.465 3.49301 87.8562 3.88423 87.8562 4.37325V12.2535ZM43.0479 14C39.1916 14 36.0479 10.8563 36.0479 7C36.0479 3.14371 39.1916 0 43.0479 0C46.9041 0 50.0479 3.14371 50.0479 7C50.0479 10.8563 46.9041 14 43.0479 14ZM43.0479 3.49301C41.1197 3.49301 39.5409 5.07186 39.5409 7C39.5409 8.92814 41.1197 10.507 43.0479 10.507C44.976 10.507 46.5548 8.92814 46.5548 7C46.5548 5.07186 44.976 3.49301 43.0479 3.49301ZM31.0319 12.2535C31.0319 13.2176 31.8144 14 32.7784 14C33.7425 14 34.5249 13.2176 34.5249 12.2535V4.37325C34.5249 1.95609 32.5688 0 30.1517 0C29.1597 0 28.2515 0.335329 27.5249 0.88024C26.7984 0.321357 25.8762 0 24.8982 0C22.495 0 20.5389 1.95609 20.5389 4.37325V12.2535C20.5389 13.2176 21.3074 14 22.2714 14C23.2355 14 24.0179 13.2176 24.0179 12.2535V4.37325C24.0179 3.88423 24.4092 3.49301 24.8982 3.49301C25.3872 3.49301 25.7784 3.88423 25.7784 4.37325V12.2535C25.7784 13.2176 26.5609 14 27.5249 14C28.489 14 29.2714 13.2176 29.2714 12.2535V4.37325C29.2714 3.88423 29.6627 3.49301 30.1517 3.49301C30.6407 3.49301 31.0319 3.88423 31.0319 4.37325V12.2535ZM74.0798 14C73.1157 14 72.3333 13.2176 72.3333 12.2535V8.74651H70.5728V12.2535C70.5728 13.2176 69.7903 14 68.8263 14C67.8622 14 67.0798 13.2176 67.0798 12.2535V7V4.37325C67.0798 1.95609 69.0359 0 71.453 0C73.8702 0 75.8263 1.95609 75.8263 4.37325V7V12.2535C75.8263 13.2176 75.0438 14 74.0798 14ZM72.3333 5.25349V4.37325C72.3333 3.88423 71.942 3.49301 71.453 3.49301C70.964 3.49301 70.5728 3.88423 70.5728 4.37325V5.25349H72.3333Z" fill="#FF7D5F"/>
</svg>
