<svg width="382" height="387" viewBox="0 0 382 387" fill="none" xmlns="http://www.w3.org/2000/svg">
<mask id="mask0" mask-type="alpha" maskUnits="userSpaceOnUse" x="0" y="0" width="382" height="387">
<rect width="382" height="387" fill="#C4C4C4"/>
</mask>
<g mask="url(#mask0)">
<path d="M241.217 281.575C241.299 282.715 242.927 282.878 243.253 281.819L248.954 264.065L251.316 257.713C251.478 257.224 251.723 256.736 251.967 256.329L260.437 232.304C261.007 230.431 262.961 229.372 264.753 229.942C266.545 230.512 267.685 232.467 267.115 234.259L265.404 239.145C264.753 240.937 266.463 242.565 268.173 241.995C270.861 241.1 273.711 240.692 276.562 240.692H287.882C289.836 240.692 291.383 242.24 291.383 244.194C291.383 246.149 289.836 247.696 287.882 247.696H277.132C276.806 247.696 276.562 247.94 276.562 248.266C276.562 248.592 276.806 248.836 277.132 248.836H289.429C291.383 248.836 292.931 250.384 292.931 252.338C292.931 254.293 291.383 255.84 289.429 255.84H277.132C276.806 255.84 276.562 256.084 276.562 256.41C276.562 256.736 276.806 256.98 277.132 256.98H285.846C287.8 256.98 289.347 258.527 289.347 260.482C289.347 262.436 287.8 263.984 285.846 263.984H276.562H272.897L260.599 297.618C257.342 305.843 249.442 311.218 240.566 311.218C229.897 311.218 220.939 303.074 219.962 292.406L217.6 266.508L239.344 263.577L241.217 281.575Z" fill="#FDE3ED"/>
<path d="M268.255 259.667C267.196 256.736 268.336 250.139 269.965 247.044" stroke="#FFBED2" stroke-width="1.1356" stroke-miterlimit="10" stroke-linecap="round" stroke-linejoin="round"/>
<path d="M265.079 246.067C265.323 249.895 262.473 252.501 259.378 252.094" stroke="#FFBED2" stroke-width="1.2582" stroke-miterlimit="10" stroke-linecap="round" stroke-linejoin="round"/>
<path d="M239.507 263.658L217.763 266.59L218.577 275.385C225.825 272.29 232.91 269.358 239.914 267.648L239.507 263.658Z" fill="#FFCDDC"/>
<path d="M147.888 323.434C135.917 335.976 138.93 433.458 137.22 504.391C137.138 508.137 140.152 511.232 143.898 511.232H176.555C180.22 511.232 183.233 508.219 183.233 504.554V334.917V504.472C183.233 508.137 186.246 511.15 189.911 511.15H222.568C226.314 511.15 229.327 508.056 229.246 504.31C227.454 432.806 230.141 333.288 218.577 323.353" fill="#F3F3F5"/>
<path d="M183.233 504.147V335.976" stroke="#CACACA" stroke-width="1.3378" stroke-miterlimit="10" stroke-linecap="round" stroke-linejoin="round"/>
<path d="M187.06 337.93V348.273C187.06 350.716 185.35 352.671 183.232 352.671" stroke="#CACACA" stroke-width="1.3378" stroke-miterlimit="10" stroke-linecap="round" stroke-linejoin="round"/>
<path d="M205.303 334.917L205.791 343.794C206.199 351.042 212.225 356.743 219.473 356.743" stroke="#CACACA" stroke-width="1.3378" stroke-miterlimit="10" stroke-linecap="round" stroke-linejoin="round"/>
<path d="M161.081 334.917L160.593 343.794C160.185 351.042 154.159 356.743 146.911 356.743" stroke="#CACACA" stroke-width="1.3378" stroke-miterlimit="10" stroke-linecap="round" stroke-linejoin="round"/>
<path d="M143.979 270.499C145.526 270.906 146.585 272.372 146.504 274.001L142.676 324.981C142.513 326.936 144.06 328.565 146.015 328.565H220.531C222.486 328.565 224.033 326.854 223.87 324.9L218.821 274.163C218.658 272.535 219.717 270.987 221.346 270.58L240.728 265.857C241.461 265.694 241.95 264.961 241.95 264.228C241.054 247.452 223.3 233.444 199.357 228.965C197.973 228.721 196.996 227.662 196.67 226.277C196.426 225.056 195.611 224.079 194.39 223.753C186.897 221.228 179.486 221.228 171.994 223.753C170.854 224.16 169.958 225.137 169.714 226.277C169.469 227.662 168.411 228.721 167.026 228.965C142.839 233.444 124.922 247.777 124.434 264.798C124.434 265.287 124.759 265.612 125.167 265.775L143.979 270.499Z" fill="#28D2DC"/>
<path d="M196.752 232.548L191.784 239.226C190.969 240.285 189.422 240.447 188.445 239.47L184.861 236.05C183.966 235.235 182.581 235.235 181.685 236.05L178.102 239.47C177.125 240.366 175.578 240.285 174.763 239.226L169.795 232.548" stroke="#33B4C8" stroke-width="1.3378" stroke-miterlimit="10" stroke-linecap="round" stroke-linejoin="round"/>
<path d="M183.314 241.425C182.729 241.425 182.255 240.951 182.255 240.366C182.255 239.782 182.729 239.308 183.314 239.308C183.899 239.308 184.373 239.782 184.373 240.366C184.373 240.951 183.899 241.425 183.314 241.425Z" fill="#E3E3E3"/>
<path d="M183.314 244.601C182.729 244.601 182.255 244.127 182.255 243.543C182.255 242.958 182.729 242.484 183.314 242.484C183.899 242.484 184.373 242.958 184.373 243.543C184.373 244.127 183.899 244.601 183.314 244.601Z" fill="#E3E3E3"/>
<path d="M192.842 199.565H173.297L171.506 223.671C170.691 230.594 176.066 231.652 183.07 231.652C189.992 231.652 195.448 230.594 194.634 223.671L192.842 199.565Z" fill="#FFDAE4"/>
<path opacity="0.5" d="M171.424 225.138C171.506 229.373 174.437 230.92 178.591 231.409C179.731 224.079 184.699 212.433 188.363 209.501L172.564 210.072L171.587 223.672C171.587 223.672 171.587 223.672 171.587 223.753V223.916C171.587 224.079 171.587 224.242 171.587 224.405C171.506 224.568 171.506 224.812 171.424 225.138Z" fill="#FFBED2"/>
<path d="M155.788 185.884C155.788 173.098 166.456 162.837 179.405 163.407C190.888 163.977 200.253 173.424 200.742 184.825C200.986 190.119 199.358 195.005 196.507 198.914C193.983 202.416 191.784 206.081 189.422 209.664C185.757 215.446 178.917 219.03 171.343 217.971C164.013 216.912 157.987 211.374 156.277 204.126C155.788 202.09 155.706 200.054 155.869 198.1C156.195 194.435 156.032 190.77 155.788 187.106C155.788 186.698 155.788 186.291 155.788 185.884Z" fill="#FDE3ED"/>
<path d="M165.968 204.452C165.56 204.452 165.316 204.94 165.56 205.266C166.131 206.081 167.596 206.651 169.307 206.651C173.216 206.651 176.718 204.452 178.184 202.904C178.509 202.497 178.184 201.927 177.695 202.09C173.379 203.393 169.388 204.289 165.968 204.452Z" fill="#FF7BA4"/>
<path d="M171.913 218.052C171.75 218.052 171.505 218.052 171.343 217.971C164.013 216.912 157.987 211.374 156.276 204.207C155.788 202.171 155.706 200.136 155.869 198.181C156.032 196.226 156.114 194.353 156.032 192.399C156.032 189.548 156.521 186.78 157.661 184.092C159.534 179.613 162.466 174.727 165.805 173.749C166.456 173.586 167.108 173.912 167.271 174.564C167.922 176.274 169.877 179.694 176.31 180.997C182.907 182.3 184.78 191.91 191.295 193.213C194.715 194.028 193.087 203.963 193.087 203.963L194.227 219.844C197.973 219.925 202.126 219.437 206.443 218.704C207.99 218.459 209.049 216.993 208.723 215.446C208.234 213.003 207.746 210.478 207.176 207.954L204.488 190.281C204.407 189.793 204.325 189.304 204.325 188.816C204.325 187.512 204.244 186.128 204 184.744C201.312 168.944 193.168 164.628 189.585 163.488C187.793 162.918 182.337 161.045 176.392 160.963C170.447 160.882 163.932 164.058 159.697 169.27C155.706 175.622 153.67 182.463 153.345 185.884C153.019 189.386 152.693 195.168 152.612 197.855C152.449 203.067 151.797 209.42 151.146 216.098C150.983 217.482 151.96 218.785 153.345 219.111C158.149 220.007 164.42 220.414 171.587 220.414L171.913 218.052Z" fill="#333333"/>
<path d="M191.377 194.028C191.377 191.666 193.168 189.793 195.286 189.874C197.159 189.956 198.706 191.747 198.788 193.865C198.788 194.842 198.543 195.738 198.055 196.471C197.648 197.122 197.24 197.774 196.915 198.425C196.345 199.484 195.204 200.135 193.901 199.973C192.68 199.81 191.702 198.751 191.377 197.448C191.295 197.041 191.295 196.715 191.295 196.308C191.377 195.656 191.295 194.923 191.295 194.272C191.377 194.19 191.377 194.109 191.377 194.028Z" fill="#FDE3ED"/>
<path d="M195.856 193.946L195.286 194.516C194.715 195.086 194.715 196.064 195.286 196.634" stroke="#FFBED2" stroke-width="1.2582" stroke-miterlimit="10" stroke-linecap="round" stroke-linejoin="round"/>
<path d="M169.714 197.856C168.248 197.856 167.108 196.797 167.026 195.331C167.026 193.865 168.981 192.969 169.551 192.643V189.549" stroke="#FFBED2" stroke-width="1.2582" stroke-miterlimit="10" stroke-linecap="round" stroke-linejoin="round"/>
<path d="M163.687 196.797C162.338 196.797 161.244 195.266 161.244 193.376C161.244 191.487 162.338 189.956 163.687 189.956C165.037 189.956 166.131 191.487 166.131 193.376C166.131 195.266 165.037 196.797 163.687 196.797Z" fill="white"/>
<path d="M175.822 196.797C174.473 196.797 173.379 195.266 173.379 193.376C173.379 191.487 174.473 189.956 175.822 189.956C177.171 189.956 178.265 191.487 178.265 193.376C178.265 195.266 177.171 196.797 175.822 196.797Z" fill="white"/>
<path d="M162.792 195.493C161.982 195.493 161.326 194.545 161.326 193.376C161.326 192.206 161.982 191.258 162.792 191.258C163.601 191.258 164.258 192.206 164.258 193.376C164.258 194.545 163.601 195.493 162.792 195.493Z" fill="#333333"/>
<path d="M174.844 195.412C174.035 195.412 173.378 194.5 173.378 193.376C173.378 192.251 174.035 191.34 174.844 191.34C175.654 191.34 176.31 192.251 176.31 193.376C176.31 194.5 175.654 195.412 174.844 195.412Z" fill="#333333"/>
<path d="M267.115 266.508H296.107C296.433 266.508 296.677 266.264 296.677 265.938V225.87H266.626V265.938C266.545 266.264 266.789 266.508 267.115 266.508Z" fill="#534741"/>
<path d="M296.595 225.87H268.173V224.078C268.173 223.345 268.743 222.775 269.476 222.775H295.455C296.188 222.775 296.758 223.345 296.758 224.078V225.626C296.84 225.789 296.758 225.87 296.595 225.87Z" fill="#33B4C8"/>
<path d="M293.664 225.87H265.323C265.16 225.87 264.997 225.707 264.997 225.544V224.078C264.997 223.345 265.567 222.775 266.3 222.775H292.279C293.012 222.775 293.582 223.345 293.582 224.078V225.87H293.664Z" fill="#33D4DE"/>
<path d="M266.544 266.508H295.537C295.862 266.508 296.107 266.264 296.107 265.938V225.87H266.056V265.938C265.974 266.264 266.219 266.508 266.544 266.508Z" fill="#7D6D61"/>
<path d="M295.54 266.098L265.489 266.098L265.489 225.948L295.54 225.948L295.54 266.098Z" fill="#FDD06E"/>
<path d="M294.157 266.098L265.327 266.098L265.327 225.948L294.157 225.948L294.157 266.098Z" fill="#FDE4B2"/>
<path d="M267.603 227.744C267.603 227.825 267.603 227.825 267.685 227.825H273.63C273.711 227.825 273.711 227.825 273.711 227.744C273.711 227.662 273.711 227.662 273.63 227.662H267.685C267.603 227.662 267.603 227.662 267.603 227.744Z" fill="#333333"/>
<path d="M267.603 227.744C267.603 227.825 267.603 227.825 267.685 227.825H273.63C273.711 227.825 273.711 227.825 273.711 227.744C273.711 227.662 273.711 227.662 273.63 227.662H267.685C267.603 227.662 267.603 227.662 267.603 227.744Z" fill="#333333"/>
<path d="M267.603 235.399C267.603 235.48 267.603 235.48 267.685 235.48H286.416C286.497 235.48 286.497 235.48 286.497 235.399C286.497 235.317 286.497 235.317 286.416 235.317H267.685C267.603 235.317 267.603 235.317 267.603 235.399Z" fill="#333333"/>
<path d="M288.777 235.887H291.139C291.628 235.887 292.035 235.48 292.035 234.991V232.63C292.035 232.141 291.628 231.734 291.139 231.734H288.777C288.289 231.734 287.881 232.141 287.881 232.63V234.991C287.881 235.48 288.289 235.887 288.777 235.887ZM291.139 231.978C291.465 231.978 291.79 232.304 291.79 232.63V234.991C291.79 235.317 291.465 235.643 291.139 235.643H288.777C288.451 235.643 288.126 235.317 288.126 234.991V232.63C288.126 232.304 288.451 231.978 288.777 231.978H291.139Z" fill="#333333"/>
<path d="M267.603 235.399C267.603 235.48 267.603 235.48 267.685 235.48H286.416C286.497 235.48 286.497 235.48 286.497 235.399C286.497 235.317 286.497 235.317 286.416 235.317H267.685C267.603 235.317 267.603 235.317 267.603 235.399Z" fill="#333333"/>
<path d="M288.777 235.887H291.139C291.628 235.887 292.035 235.48 292.035 234.991V232.63C292.035 232.141 291.628 231.734 291.139 231.734H288.777C288.289 231.734 287.881 232.141 287.881 232.63V234.991C287.881 235.48 288.289 235.887 288.777 235.887ZM291.139 231.978C291.465 231.978 291.79 232.304 291.79 232.63V234.991C291.79 235.317 291.465 235.643 291.139 235.643H288.777C288.451 235.643 288.126 235.317 288.126 234.991V232.63C288.126 232.304 288.451 231.978 288.777 231.978H291.139Z" fill="#333333"/>
<path d="M267.603 241.832C267.603 241.913 267.603 241.913 267.685 241.913H286.416C286.497 241.913 286.497 241.913 286.497 241.832C286.497 241.75 286.497 241.75 286.416 241.75H267.685C267.603 241.75 267.603 241.832 267.603 241.832Z" fill="#333333"/>
<path d="M288.777 242.402H291.139C291.628 242.402 292.035 241.995 292.035 241.507V239.145C292.035 238.656 291.628 238.249 291.139 238.249H288.777C288.289 238.249 287.881 238.656 287.881 239.145V241.507C287.881 241.995 288.289 242.402 288.777 242.402ZM291.139 238.493C291.465 238.493 291.79 238.819 291.79 239.145V241.507C291.79 241.832 291.465 242.158 291.139 242.158H288.777C288.451 242.158 288.126 241.832 288.126 241.507V239.145C288.126 238.819 288.451 238.493 288.777 238.493H291.139Z" fill="#333333"/>
<path d="M267.603 241.832C267.603 241.913 267.603 241.913 267.685 241.913H286.416C286.497 241.913 286.497 241.913 286.497 241.832C286.497 241.75 286.497 241.75 286.416 241.75H267.685C267.603 241.75 267.603 241.832 267.603 241.832Z" fill="#333333"/>
<path d="M288.777 242.402H291.139C291.628 242.402 292.035 241.995 292.035 241.507V239.145C292.035 238.656 291.628 238.249 291.139 238.249H288.777C288.289 238.249 287.881 238.656 287.881 239.145V241.507C287.881 241.995 288.289 242.402 288.777 242.402ZM291.139 238.493C291.465 238.493 291.79 238.819 291.79 239.145V241.507C291.79 241.832 291.465 242.158 291.139 242.158H288.777C288.451 242.158 288.126 241.832 288.126 241.507V239.145C288.126 238.819 288.451 238.493 288.777 238.493H291.139Z" fill="#333333"/>
<path d="M267.603 248.347C267.603 248.428 267.603 248.428 267.685 248.428H286.416C286.497 248.428 286.497 248.428 286.497 248.347C286.497 248.266 286.497 248.266 286.416 248.266H267.685C267.603 248.266 267.603 248.347 267.603 248.347Z" fill="#333333"/>
<path d="M288.777 248.836H291.139C291.628 248.836 292.035 248.429 292.035 247.94V245.578C292.035 245.09 291.628 244.683 291.139 244.683H288.777C288.289 244.683 287.881 245.09 287.881 245.578V247.94C287.881 248.51 288.289 248.836 288.777 248.836ZM291.139 245.008C291.465 245.008 291.79 245.334 291.79 245.66V248.022C291.79 248.347 291.465 248.673 291.139 248.673H288.777C288.451 248.673 288.126 248.347 288.126 248.022V245.66C288.126 245.334 288.451 245.008 288.777 245.008H291.139Z" fill="#333333"/>
<path d="M267.603 248.347C267.603 248.428 267.603 248.428 267.685 248.428H286.416C286.497 248.428 286.497 248.428 286.497 248.347C286.497 248.266 286.497 248.266 286.416 248.266H267.685C267.603 248.266 267.603 248.347 267.603 248.347Z" fill="#333333"/>
<path d="M288.777 248.836H291.139C291.628 248.836 292.035 248.429 292.035 247.94V245.578C292.035 245.09 291.628 244.683 291.139 244.683H288.777C288.289 244.683 287.881 245.09 287.881 245.578V247.94C287.881 248.51 288.289 248.836 288.777 248.836ZM291.139 245.008C291.465 245.008 291.79 245.334 291.79 245.66V248.022C291.79 248.347 291.465 248.673 291.139 248.673H288.777C288.451 248.673 288.126 248.347 288.126 248.022V245.66C288.126 245.334 288.451 245.008 288.777 245.008H291.139Z" fill="#333333"/>
<path d="M267.603 254.862C267.603 254.944 267.603 254.944 267.685 254.944H286.416C286.497 254.944 286.497 254.944 286.497 254.862C286.497 254.781 286.497 254.781 286.416 254.781H267.685C267.603 254.781 267.603 254.781 267.603 254.862Z" fill="#333333"/>
<path d="M288.777 255.351H291.139C291.628 255.351 292.035 254.944 292.035 254.455V252.094C292.035 251.605 291.628 251.198 291.139 251.198H288.777C288.289 251.198 287.881 251.605 287.881 252.094V254.455C287.881 254.944 288.289 255.351 288.777 255.351ZM291.139 251.442C291.465 251.442 291.79 251.768 291.79 252.094V254.455C291.79 254.781 291.465 255.107 291.139 255.107H288.777C288.451 255.107 288.126 254.781 288.126 254.455V252.094C288.126 251.768 288.451 251.442 288.777 251.442H291.139Z" fill="#333333"/>
<path d="M267.603 254.862C267.603 254.944 267.603 254.944 267.685 254.944H286.416C286.497 254.944 286.497 254.944 286.497 254.862C286.497 254.781 286.497 254.781 286.416 254.781H267.685C267.603 254.781 267.603 254.781 267.603 254.862Z" fill="#333333"/>
<path d="M288.777 255.351H291.139C291.628 255.351 292.035 254.944 292.035 254.455V252.094C292.035 251.605 291.628 251.198 291.139 251.198H288.777C288.289 251.198 287.881 251.605 287.881 252.094V254.455C287.881 254.944 288.289 255.351 288.777 255.351ZM291.139 251.442C291.465 251.442 291.79 251.768 291.79 252.094V254.455C291.79 254.781 291.465 255.107 291.139 255.107H288.777C288.451 255.107 288.126 254.781 288.126 254.455V252.094C288.126 251.768 288.451 251.442 288.777 251.442H291.139Z" fill="#333333"/>
<path d="M267.603 261.377C267.603 261.459 267.603 261.459 267.685 261.459H286.416C286.497 261.459 286.497 261.459 286.497 261.377C286.497 261.296 286.497 261.296 286.416 261.296H267.685C267.603 261.296 267.603 261.296 267.603 261.377Z" fill="#333333"/>
<path d="M267.603 261.377C267.603 261.459 267.603 261.459 267.685 261.459H286.416C286.497 261.459 286.497 261.459 286.497 261.377C286.497 261.296 286.497 261.296 286.416 261.296H267.685C267.603 261.296 267.603 261.296 267.603 261.377Z" fill="#333333"/>
<path d="M288.777 261.866H291.139C291.628 261.866 292.035 261.459 292.035 260.97V258.609C292.035 258.12 291.628 257.713 291.139 257.713H288.777C288.289 257.713 287.881 258.12 287.881 258.609V260.97C287.881 261.459 288.289 261.866 288.777 261.866ZM291.139 257.957C291.465 257.957 291.79 258.283 291.79 258.609V260.97C291.79 261.296 291.465 261.622 291.139 261.622H288.777C288.451 261.622 288.126 261.296 288.126 260.97V258.609C288.126 258.283 288.451 257.957 288.777 257.957H291.139Z" fill="#333333"/>
<path d="M289.918 234.747C289.999 234.91 290.243 234.991 290.406 234.829L291.383 233.281C291.465 233.2 291.465 233.118 291.383 233.118C291.302 233.037 291.302 233.037 291.221 233.118L290.162 234.421C290.162 234.421 290.162 234.421 290.08 234.421L288.452 231.734C288.452 231.652 288.37 231.652 288.289 231.734C288.207 231.815 288.207 231.897 288.289 231.897L289.918 234.747Z" fill="#FB5768"/>
<path d="M289.918 241.181C289.999 241.344 290.243 241.425 290.406 241.262L291.383 239.715C291.465 239.633 291.465 239.552 291.383 239.552C291.302 239.471 291.302 239.471 291.221 239.552L290.162 240.855C290.162 240.855 290.162 240.855 290.08 240.855L288.452 238.168C288.452 238.086 288.37 238.086 288.289 238.168C288.207 238.249 288.207 238.33 288.289 238.33L289.918 241.181Z" fill="#FB5768"/>
<path opacity="0.5" d="M273.711 240.285C274.281 240.285 274.281 239.145 274.933 239.145C275.503 239.145 275.503 240.285 276.154 240.285C276.724 240.285 276.724 239.145 277.376 239.145C277.946 239.145 277.946 240.285 278.597 240.285C279.249 240.285 279.167 239.145 279.819 239.145C280.389 239.145 280.389 240.285 281.041 240.285C281.611 240.285 281.611 239.145 282.262 239.145C282.832 239.145 282.832 240.285 283.484 240.285C284.054 240.285 284.054 239.145 284.705 239.145C285.357 239.145 285.275 240.285 285.927 240.285" stroke="#808080" stroke-width="0.523" stroke-miterlimit="10" stroke-linecap="round"/>
<path opacity="0.5" d="M278.435 233.851C279.005 233.851 279.005 232.711 279.656 232.711C280.226 232.711 280.226 233.851 280.878 233.851C281.448 233.851 281.448 232.711 282.099 232.711C282.669 232.711 282.669 233.851 283.321 233.851C283.891 233.851 283.891 232.711 284.542 232.711C285.194 232.711 285.113 233.851 285.764 233.851" stroke="#808080" stroke-width="0.523" stroke-miterlimit="10" stroke-linecap="round"/>
<path d="M265.323 230.105V243.787C265.323 243.461 266.056 241.506 266.219 241.099L268.499 235.317C269.232 233.118 267.847 230.756 265.323 230.105Z" fill="#4D4D4D" fill-opacity="0.2"/>
<path d="M209.798 252.941L209.05 251.976L210.531 250.828L211.279 251.794L209.798 252.941Z" fill="#FDD065"/>
<path d="M210.515 250.872H211.166C211.329 250.872 211.492 251.035 211.492 251.279L211.329 251.849L210.515 250.872Z" fill="#FDD065"/>
<path d="M209.456 252.582L210.922 251.442L211.329 251.035L211.411 251.198L211.166 251.687L209.7 252.827L209.456 252.582Z" fill="#4D4D4D"/>
<path d="M176.229 280.679L173.786 277.584L170.365 280.271C170.121 280.516 170.039 280.923 170.284 281.167L171.913 283.285C172.157 283.529 172.564 283.61 172.808 283.366L176.229 280.679Z" fill="#333333"/>
<path d="M204.244 259.178L201.638 255.839C204.326 253.885 206.606 252.5 208.479 251.768C208.886 251.605 209.293 251.768 209.538 252.093L209.701 252.338L209.864 252.582C210.108 252.908 210.108 253.315 209.864 253.641C208.723 255.188 206.85 257.061 204.244 259.178Z" fill="#333333"/>
<path d="M202.534 256.736L201.72 255.759C201.557 255.515 201.149 255.515 200.905 255.677L173.542 276.852C173.297 277.014 173.216 277.422 173.46 277.666L174.275 278.643L202.534 256.736Z" fill="#F0F0F0"/>
<path d="M175.397 279.896L174.299 278.48L202.493 256.632L203.59 258.048L175.397 279.896Z" fill="#E4E4E4"/>
<path d="M204.407 259.179L203.674 258.12L175.496 279.946L176.229 280.923C176.392 281.167 176.799 281.249 177.043 281.004L204.325 259.83C204.57 259.749 204.57 259.423 204.407 259.179Z" fill="#D5D5D5"/>
<path d="M179.975 273.43L179.731 273.105L179.079 272.86L178.346 273.593L178.835 274.245L179.975 273.43Z" fill="#333333"/>
<path d="M178.428 273.512C178.428 273.512 178.346 273.593 178.428 273.593V273.512L178.021 273.105V273.023C178.591 272.616 179.161 272.453 179.568 272.86L179.975 273.43C179.568 272.942 178.998 273.105 178.428 273.512Z" fill="#4D4D4D"/>
<path d="M178.116 274.754L177.767 274.303L178.475 273.755L178.824 274.205L178.116 274.754Z" fill="#333333"/>
<path d="M177.769 274.324L177.719 274.26L178.427 273.711L178.477 273.775L177.769 274.324Z" fill="#808080"/>
<path d="M178.184 274.815L177.939 274.571L177.451 274.408L176.881 274.896L177.288 275.466L178.184 274.815Z" fill="#333333"/>
<path d="M176.962 274.897C176.962 274.897 176.881 274.978 176.962 274.897L176.636 274.571V274.489C177.125 274.164 177.532 274.001 177.858 274.408L178.184 274.815C177.858 274.408 177.451 274.571 176.962 274.897Z" fill="#4D4D4D"/>
<path d="M175.789 276.557L175.44 276.106L176.084 275.607L176.433 276.058L175.789 276.557Z" fill="#333333"/>
<path d="M175.425 276.057L175.375 275.992L176.019 275.493L176.069 275.558L175.425 276.057Z" fill="#808080"/>
<path d="M211.247 251.116C211.166 251.035 211.166 250.954 211.166 250.872C211.329 250.872 211.492 251.035 211.41 251.198C211.41 251.198 211.329 251.116 211.247 251.116Z" fill="#FDA846"/>
<path d="M199.52 268.219L180.464 262.844C178.835 262.355 178.183 260.482 179.079 259.098L183.07 253.234C184.21 251.442 183.721 249.162 182.011 247.941C180.219 246.8 177.939 247.289 176.718 248.999L146.259 291.429C145.852 291.918 145.119 291.592 145.201 290.94L145.282 290.777L146.504 274.001C146.585 272.372 145.608 270.906 143.979 270.499L126.063 265.776L120.606 292.813C118.326 304.215 125.085 315.453 136.242 318.711C145.445 321.48 153.1 317.164 158.964 309.671L173.867 290.289C178.021 284.995 180.382 286.054 183.396 287.113L186.083 287.846C188.119 288.416 190.236 287.275 190.806 285.321C191.377 283.285 190.562 281.33 188.526 280.679L191.539 281.575C193.413 282.145 195.448 281.33 196.263 279.539C197.077 277.666 196.344 275.63 194.634 274.652L197.24 275.467C199.276 276.037 201.393 274.897 201.964 272.942C202.697 270.906 201.556 268.789 199.52 268.219Z" fill="#FDE3ED"/>
<path d="M144.631 293.464L143.572 296.477" stroke="#FFBED2" stroke-width="1.0815" stroke-miterlimit="10" stroke-linecap="round" stroke-linejoin="round"/>
<path d="M241.869 284.425L241.462 287.601" stroke="#FFBED2" stroke-width="1.0815" stroke-miterlimit="10" stroke-linecap="round" stroke-linejoin="round"/>
<path d="M193.575 274.489L191.458 273.838" stroke="#FFBED2" stroke-width="1.2582" stroke-miterlimit="10" stroke-linecap="round" stroke-linejoin="round"/>
<path d="M188.037 280.515L186.327 280.027" stroke="#FFBED2" stroke-width="1.2582" stroke-miterlimit="10" stroke-linecap="round" stroke-linejoin="round"/>
<path d="M143.979 270.498L126.062 265.775L125.737 267.567C132.496 268.951 139.418 271.394 146.504 274.082V274C146.666 272.371 145.608 270.906 143.979 270.498Z" fill="#FFCDDC"/>
<path d="M264.834 229.942C262.961 229.372 261.007 230.431 260.518 232.304L252.048 256.329L263.287 240.041H265.404C265.404 239.715 265.405 239.471 265.567 239.145L267.278 234.259C267.685 232.467 266.708 230.512 264.834 229.942Z" fill="#FDE3ED"/>
</g>
</svg>
