<svg width="335" height="220" viewBox="0 0 335 220" fill="none" xmlns="http://www.w3.org/2000/svg">
<mask id="mask0_3198:49383" style="mask-type:alpha" maskUnits="userSpaceOnUse" x="0" y="0" width="335" height="220">
<rect width="335" height="220" fill="#C4C4C4"/>
</mask>
<g mask="url(#mask0_3198:49383)">
<path d="M125.988 131.156C125.881 132.284 124.307 132.456 123.959 131.378L118.178 113.52L115.788 107.157C115.591 106.674 115.378 106.198 115.157 105.727L106.597 81.5022C106.039 79.641 104.076 78.5833 102.215 79.145C100.353 79.7025 99.2957 81.6662 99.8573 83.5274L101.587 88.4182C102.21 90.181 100.538 91.866 98.7627 91.292C96.0734 90.4188 93.2242 89.9556 90.2971 89.9556H78.8798C76.9366 89.9556 75.3582 91.5298 75.3582 93.4771C75.3582 95.4203 76.9325 96.9986 78.8798 96.9986H89.6863C90.0224 96.9986 90.2971 97.2733 90.2971 97.6095C90.2971 97.9456 90.0224 98.2203 89.6863 98.2203H77.3301C75.3869 98.2203 73.8086 99.7946 73.8086 101.742C73.8086 103.685 75.3828 105.263 77.3301 105.263H89.6863C90.0224 105.263 90.2971 105.538 90.2971 105.874C90.2971 106.21 90.0224 106.485 89.6863 106.485H80.946C79.0028 106.485 77.4244 108.059 77.4244 110.007C77.4244 111.95 78.9987 113.528 80.946 113.528H90.2889H93.9498L106.335 147.37C109.618 155.631 117.608 161.055 126.496 161.055C137.25 161.055 146.232 152.859 147.216 142.155L149.61 116.115L127.693 113.13L125.988 131.156Z" fill="#FDE3ED"/>
<path d="M98.7664 109.121C99.8651 106.153 98.6721 99.4952 97.02 96.4041" stroke="#FFBED2" stroke-width="1.13815" stroke-miterlimit="10" stroke-linecap="round" stroke-linejoin="round"/>
<path d="M101.94 95.3587C101.723 99.2041 104.584 101.82 107.7 101.393" stroke="#FFBED2" stroke-width="1.13815" stroke-miterlimit="10" stroke-linecap="round" stroke-linejoin="round"/>
<path d="M127.694 113.118L149.61 116.103L148.798 124.945C141.538 121.801 134.372 118.853 127.354 117.164L127.694 113.118Z" fill="#FFCDDC"/>
<path d="M219.934 173.283C231.974 185.914 228.986 284.042 230.691 355.46C230.781 359.228 227.756 362.319 223.988 362.319H191.097C187.391 362.319 184.39 359.314 184.39 355.612V184.877V355.612C184.39 359.318 181.385 362.319 177.684 362.319H144.797C141.029 362.319 138 359.224 138.094 355.456C139.877 283.468 137.163 183.303 148.843 173.283" fill="#F5F5F9"/>
<path d="M184.387 355.202V185.947" stroke="#CCCCD2" stroke-width="1.13815" stroke-miterlimit="10" stroke-linecap="round" stroke-linejoin="round"/>
<path d="M180.521 187.849V198.254C180.521 200.718 182.251 202.714 184.386 202.714" stroke="#CCCCD2" stroke-width="1.13815" stroke-miterlimit="10" stroke-linecap="round" stroke-linejoin="round"/>
<path d="M162.093 184.877L161.609 193.814C161.211 201.136 155.16 206.871 147.826 206.871" stroke="#CCCCD2" stroke-width="1.13815" stroke-miterlimit="10" stroke-linecap="round" stroke-linejoin="round"/>
<path d="M206.676 184.877L207.16 193.814C207.557 201.136 213.608 206.871 220.942 206.871" stroke="#CCCCD2" stroke-width="1.13815" stroke-miterlimit="10" stroke-linecap="round" stroke-linejoin="round"/>
<path d="M223.836 119.985C222.258 120.399 221.2 121.879 221.323 123.506L225.152 174.821C225.3 176.78 223.746 178.449 221.783 178.449H146.732C144.731 178.449 143.169 176.723 143.37 174.735L148.478 123.613C148.646 121.94 147.556 120.399 145.92 119.997L126.385 115.201C125.66 115.024 125.114 114.27 125.155 113.524C126.066 96.6337 143.915 82.527 168.017 78.0421C169.374 77.7879 170.431 76.722 170.689 75.365C170.919 74.1598 171.792 73.1759 172.957 72.7864C180.467 70.2816 187.969 70.2857 195.463 72.7864C196.628 73.1759 197.501 74.1598 197.73 75.365C197.989 76.722 199.046 77.792 200.403 78.0421C224.783 82.5762 242.768 96.9616 243.289 114.114C243.301 114.565 242.99 114.967 242.555 115.082L223.836 119.985Z" fill="#78D7E1"/>
<path d="M170.702 81.7642L175.691 88.4916C176.491 89.5698 178.057 89.7051 179.028 88.7786L182.616 85.3555C183.509 84.5027 184.915 84.5027 185.809 85.3555L189.396 88.7786C190.368 89.7051 191.934 89.5698 192.733 88.4916L197.722 81.7642" stroke="#32C3D7" stroke-width="1.14912" stroke-miterlimit="10" stroke-linecap="round" stroke-linejoin="round"/>
<path d="M184.235 90.714C184.81 90.714 185.276 90.2477 185.276 89.6727C185.276 89.0976 184.81 88.6314 184.235 88.6314C183.66 88.6314 183.194 89.0976 183.194 89.6727C183.194 90.2477 183.66 90.714 184.235 90.714Z" fill="white"/>
<path d="M184.235 93.8912C184.81 93.8912 185.276 93.425 185.276 92.8499C185.276 92.2748 184.81 91.8086 184.235 91.8086C183.66 91.8086 183.194 92.2748 183.194 92.8499C183.194 93.425 183.66 93.8912 184.235 93.8912Z" fill="white"/>
<path d="M99.927 116.012H70.7626C70.4552 116.012 70.2051 115.762 70.2051 115.455V75.0779H100.48V115.455C100.48 115.762 100.234 116.012 99.927 116.012Z" fill="#534741"/>
<path d="M70.1927 75.0779H98.8282V73.2905C98.8282 72.5566 98.2338 71.9622 97.5 71.9622H71.3283C70.5944 71.9622 70 72.5566 70 73.2905V74.8852C70.0041 74.9918 70.0902 75.0779 70.1927 75.0779Z" fill="#32C3D7"/>
<path d="M73.152 75.0779H101.661C101.837 75.0779 101.976 74.9385 101.976 74.7622V73.2905C101.976 72.5566 101.382 71.9622 100.648 71.9622H74.4762C73.7424 71.9622 73.1479 72.5566 73.1479 73.2905V75.0779H73.152Z" fill="#78D7E1"/>
<path d="M100.46 116.012H71.2958C70.9884 116.012 70.7383 115.762 70.7383 115.455V75.0779H101.014V115.455C101.014 115.762 100.764 116.012 100.46 116.012Z" fill="#7D6D61"/>
<path d="M71.2759 115.542L101.551 115.542L101.551 75.0829L71.2759 75.0829L71.2759 115.542Z" fill="#FDD06E"/>
<path d="M72.6686 115.542L101.71 115.542L101.71 75.0829L72.6686 75.0829L72.6686 115.542Z" fill="#FDE4B2"/>
<path d="M99.4469 76.9108C99.4469 76.9558 99.4059 76.9927 99.3567 76.9927H93.3631C93.3139 76.9927 93.2729 76.9558 93.2729 76.9108C93.2729 76.8657 93.3139 76.8288 93.3631 76.8288H99.3567C99.4059 76.8247 99.4469 76.8657 99.4469 76.9108Z" fill="#2D2D37"/>
<path d="M99.4469 76.9108C99.4469 76.9558 99.4059 76.9927 99.3567 76.9927H93.3631C93.3139 76.9927 93.2729 76.9558 93.2729 76.9108C93.2729 76.8657 93.3139 76.8288 93.3631 76.8288H99.3567C99.4059 76.8247 99.4469 76.8657 99.4469 76.9108Z" fill="#2D2D37"/>
<path d="M99.4474 84.6299C99.4474 84.675 99.4064 84.7119 99.3572 84.7119H80.5033C80.4541 84.7119 80.4131 84.675 80.4131 84.6299C80.4131 84.5848 80.4541 84.5479 80.5033 84.5479H99.3572C99.4064 84.5438 99.4474 84.5807 99.4474 84.6299Z" fill="#2D2D37"/>
<path d="M78.0847 85.1341H75.7069C75.2232 85.1341 74.8296 84.7405 74.8296 84.2568V81.879C74.8296 81.3953 75.2232 81.0017 75.7069 81.0017H78.0847C78.5684 81.0017 78.962 81.3953 78.962 81.879V84.2568C78.962 84.7405 78.5684 85.1341 78.0847 85.1341ZM75.711 81.2231C75.3461 81.2231 75.051 81.5183 75.051 81.8831V84.2609C75.051 84.6257 75.3461 84.9209 75.711 84.9209H78.0888C78.4536 84.9209 78.7488 84.6257 78.7488 84.2609V81.8831C78.7488 81.5183 78.4536 81.2231 78.0888 81.2231H75.711Z" fill="#2D2D37"/>
<path d="M99.4474 84.6299C99.4474 84.675 99.4064 84.7119 99.3572 84.7119H80.5033C80.4541 84.7119 80.4131 84.675 80.4131 84.6299C80.4131 84.5848 80.4541 84.5479 80.5033 84.5479H99.3572C99.4064 84.5438 99.4474 84.5807 99.4474 84.6299Z" fill="#2D2D37"/>
<path d="M78.0847 85.1341H75.7069C75.2232 85.1341 74.8296 84.7405 74.8296 84.2568V81.879C74.8296 81.3953 75.2232 81.0017 75.7069 81.0017H78.0847C78.5684 81.0017 78.962 81.3953 78.962 81.879V84.2568C78.962 84.7405 78.5684 85.1341 78.0847 85.1341ZM75.711 81.2231C75.3461 81.2231 75.051 81.5183 75.051 81.8831V84.2609C75.051 84.6257 75.3461 84.9209 75.711 84.9209H78.0888C78.4536 84.9209 78.7488 84.6257 78.7488 84.2609V81.8831C78.7488 81.5183 78.4536 81.2231 78.0888 81.2231H75.711Z" fill="#2D2D37"/>
<path d="M99.4474 91.169C99.4474 91.2141 99.4064 91.2509 99.3572 91.2509H80.5033C80.4541 91.2509 80.4131 91.2141 80.4131 91.169C80.4131 91.1239 80.4541 91.087 80.5033 91.087H99.3572C99.4064 91.0829 99.4474 91.1198 99.4474 91.169Z" fill="#2D2D37"/>
<path d="M78.0847 91.6731H75.7069C75.2232 91.6731 74.8296 91.2796 74.8296 90.7958V88.4181C74.8296 87.9343 75.2232 87.5408 75.7069 87.5408H78.0847C78.5684 87.5408 78.962 87.9343 78.962 88.4181V90.7958C78.962 91.2796 78.5684 91.6731 78.0847 91.6731ZM75.711 87.7621C75.3461 87.7621 75.051 88.0573 75.051 88.4222V90.7999C75.051 91.1648 75.3461 91.46 75.711 91.46H78.0888C78.4536 91.46 78.7488 91.1648 78.7488 90.7999V88.4222C78.7488 88.0573 78.4536 87.7621 78.0888 87.7621H75.711Z" fill="#2D2D37"/>
<path d="M99.4474 91.169C99.4474 91.2141 99.4064 91.2509 99.3572 91.2509H80.5033C80.4541 91.2509 80.4131 91.2141 80.4131 91.169C80.4131 91.1239 80.4541 91.087 80.5033 91.087H99.3572C99.4064 91.0829 99.4474 91.1198 99.4474 91.169Z" fill="#2D2D37"/>
<path d="M78.0847 91.6731H75.7069C75.2232 91.6731 74.8296 91.2796 74.8296 90.7958V88.4181C74.8296 87.9343 75.2232 87.5408 75.7069 87.5408H78.0847C78.5684 87.5408 78.962 87.9343 78.962 88.4181V90.7958C78.962 91.2796 78.5684 91.6731 78.0847 91.6731ZM75.711 87.7621C75.3461 87.7621 75.051 88.0573 75.051 88.4222V90.7999C75.051 91.1648 75.3461 91.46 75.711 91.46H78.0888C78.4536 91.46 78.7488 91.1648 78.7488 90.7999V88.4222C78.7488 88.0573 78.4536 87.7621 78.0888 87.7621H75.711Z" fill="#2D2D37"/>
<path d="M99.4474 97.7075C99.4474 97.7526 99.4064 97.7895 99.3572 97.7895H80.5033C80.4541 97.7895 80.4131 97.7526 80.4131 97.7075C80.4131 97.6624 80.4541 97.6255 80.5033 97.6255H99.3572C99.4064 97.6214 99.4474 97.6583 99.4474 97.7075Z" fill="#2D2D37"/>
<path d="M78.0847 98.2122H75.7069C75.2232 98.2122 74.8296 97.8186 74.8296 97.3349V94.9571C74.8296 94.4734 75.2232 94.0798 75.7069 94.0798H78.0847C78.5684 94.0798 78.962 94.4734 78.962 94.9571V97.3349C78.962 97.8186 78.5684 98.2122 78.0847 98.2122ZM75.711 94.3012C75.3461 94.3012 75.051 94.5963 75.051 94.9612V97.339C75.051 97.7038 75.3461 97.999 75.711 97.999H78.0888C78.4536 97.999 78.7488 97.7038 78.7488 97.339V94.9612C78.7488 94.5963 78.4536 94.3012 78.0888 94.3012H75.711Z" fill="#2D2D37"/>
<path d="M99.4474 97.7075C99.4474 97.7526 99.4064 97.7895 99.3572 97.7895H80.5033C80.4541 97.7895 80.4131 97.7526 80.4131 97.7075C80.4131 97.6624 80.4541 97.6255 80.5033 97.6255H99.3572C99.4064 97.6214 99.4474 97.6583 99.4474 97.7075Z" fill="#2D2D37"/>
<path d="M78.0847 98.2122H75.7069C75.2232 98.2122 74.8296 97.8186 74.8296 97.3349V94.9571C74.8296 94.4734 75.2232 94.0798 75.7069 94.0798H78.0847C78.5684 94.0798 78.962 94.4734 78.962 94.9571V97.3349C78.962 97.8186 78.5684 98.2122 78.0847 98.2122ZM75.711 94.3012C75.3461 94.3012 75.051 94.5963 75.051 94.9612V97.339C75.051 97.7038 75.3461 97.999 75.711 97.999H78.0888C78.4536 97.999 78.7488 97.7038 78.7488 97.339V94.9612C78.7488 94.5963 78.4536 94.3012 78.0888 94.3012H75.711Z" fill="#2D2D37"/>
<path d="M99.4474 104.247C99.4474 104.292 99.4064 104.329 99.3572 104.329H80.5033C80.4541 104.329 80.4131 104.292 80.4131 104.247C80.4131 104.201 80.4541 104.165 80.5033 104.165H99.3572C99.4064 104.16 99.4474 104.197 99.4474 104.247Z" fill="#2D2D37"/>
<path d="M78.0847 104.751H75.7069C75.2232 104.751 74.8296 104.357 74.8296 103.873V101.496C74.8296 101.012 75.2232 100.618 75.7069 100.618H78.0847C78.5684 100.618 78.962 101.012 78.962 101.496V103.873C78.962 104.357 78.5684 104.751 78.0847 104.751ZM75.711 100.84C75.3461 100.84 75.051 101.135 75.051 101.5V103.878C75.051 104.242 75.3461 104.538 75.711 104.538H78.0888C78.4536 104.538 78.7488 104.242 78.7488 103.878V101.5C78.7488 101.135 78.4536 100.84 78.0888 100.84H75.711Z" fill="#2D2D37"/>
<path d="M99.4474 104.247C99.4474 104.292 99.4064 104.329 99.3572 104.329H80.5033C80.4541 104.329 80.4131 104.292 80.4131 104.247C80.4131 104.201 80.4541 104.165 80.5033 104.165H99.3572C99.4064 104.16 99.4474 104.197 99.4474 104.247Z" fill="#2D2D37"/>
<path d="M78.0847 104.751H75.7069C75.2232 104.751 74.8296 104.357 74.8296 103.873V101.496C74.8296 101.012 75.2232 100.618 75.7069 100.618H78.0847C78.5684 100.618 78.962 101.012 78.962 101.496V103.873C78.962 104.357 78.5684 104.751 78.0847 104.751ZM75.711 100.84C75.3461 100.84 75.051 101.135 75.051 101.5V103.878C75.051 104.242 75.3461 104.538 75.711 104.538H78.0888C78.4536 104.538 78.7488 104.242 78.7488 103.878V101.5C78.7488 101.135 78.4536 100.84 78.0888 100.84H75.711Z" fill="#2D2D37"/>
<path d="M99.4474 110.786C99.4474 110.831 99.4064 110.868 99.3572 110.868H80.5033C80.4541 110.868 80.4131 110.831 80.4131 110.786C80.4131 110.741 80.4541 110.704 80.5033 110.704H99.3572C99.4064 110.7 99.4474 110.736 99.4474 110.786Z" fill="#2D2D37"/>
<path d="M99.4474 110.786C99.4474 110.831 99.4064 110.868 99.3572 110.868H80.5033C80.4541 110.868 80.4131 110.831 80.4131 110.786C80.4131 110.741 80.4541 110.704 80.5033 110.704H99.3572C99.4064 110.7 99.4474 110.736 99.4474 110.786Z" fill="#2D2D37"/>
<path d="M78.0847 111.29H75.7069C75.2232 111.29 74.8296 110.896 74.8296 110.412V108.035C74.8296 107.551 75.2232 107.157 75.7069 107.157H78.0847C78.5684 107.157 78.962 107.551 78.962 108.035V110.412C78.962 110.896 78.5684 111.29 78.0847 111.29ZM75.711 107.379C75.3461 107.379 75.051 107.674 75.051 108.039V110.417C75.051 110.781 75.3461 111.077 75.711 111.077H78.0888C78.4536 111.077 78.7488 110.781 78.7488 110.417V108.039C78.7488 107.674 78.4536 107.379 78.0888 107.379H75.711Z" fill="#2D2D37"/>
<path d="M76.9166 84.0356C76.81 84.2324 76.5968 84.257 76.4656 84.0889L75.4858 82.5474C75.4448 82.4942 75.4448 82.404 75.4858 82.3507C75.5268 82.2974 75.5924 82.2933 75.6375 82.3466L76.6624 83.6748C76.6747 83.6871 76.6952 83.6871 76.7075 83.6666L78.3104 80.9609C78.3432 80.8994 78.4088 80.883 78.458 80.9281C78.5072 80.9732 78.5154 81.0593 78.4826 81.1249L76.9166 84.0356Z" fill="#FB5768"/>
<path d="M76.9166 90.4968C76.81 90.6936 76.5968 90.7182 76.4656 90.5501L75.4858 89.0087C75.4448 88.9554 75.4448 88.8652 75.4858 88.8119C75.5268 88.7586 75.5924 88.7545 75.6375 88.8078L76.6624 90.136C76.6747 90.1483 76.6952 90.1483 76.7075 90.1278L78.3104 87.4221C78.3432 87.3606 78.4088 87.3442 78.458 87.3893C78.5072 87.4344 78.5154 87.5205 78.4826 87.5861L76.9166 90.4968Z" fill="#FB5768"/>
<path opacity="0.5" d="M93.2738 89.5948C92.6794 89.5948 92.6794 88.4305 92.0849 88.4305C91.4905 88.4305 91.4905 89.5948 90.892 89.5948C90.2975 89.5948 90.2975 88.4305 89.699 88.4305C89.1045 88.4305 89.1045 89.5948 88.506 89.5948C87.9116 89.5948 87.9116 88.4305 87.313 88.4305C86.7186 88.4305 86.7186 89.5948 86.1201 89.5948C85.5256 89.5948 85.5256 88.4305 84.9271 88.4305C84.3326 88.4305 84.3326 89.5948 83.7341 89.5948C83.1356 89.5948 83.1356 88.4305 82.5411 88.4305C81.9426 88.4305 81.9426 89.5948 81.3481 89.5948" stroke="#808080" stroke-width="0.449208" stroke-miterlimit="10" stroke-linecap="round"/>
<path opacity="0.5" d="M88.5094 83.134C87.915 83.134 87.915 81.9698 87.3164 81.9698C86.722 81.9698 86.722 83.134 86.1235 83.134C85.529 83.134 85.529 81.9698 84.9305 81.9698C84.3361 81.9698 84.3361 83.134 83.7375 83.134C83.139 83.134 83.139 81.9698 82.5445 81.9698C81.946 81.9698 81.946 83.134 81.3516 83.134" stroke="#808080" stroke-width="0.449208" stroke-miterlimit="10" stroke-linecap="round"/>
<path d="M101.695 79.3457C101.699 79.3457 101.707 79.3457 101.711 79.3416V93.0956C101.736 92.7513 100.989 90.7794 100.846 90.4186L98.5214 84.5767C97.7712 82.3548 99.1897 80.0139 101.695 79.3457Z" fill="#4D4D4D"/>
<path d="M157.613 102.336L158.349 101.386L156.885 100.251L156.149 101.201L157.613 102.336Z" fill="#FDD065"/>
<path d="M156.874 100.249L156.255 100.229C156.054 100.221 155.911 100.413 155.964 100.602L156.14 101.201L156.874 100.249Z" fill="#FDD065"/>
<path d="M157.915 101.931L156.452 100.795L156.103 100.414L156.009 100.533L156.222 101.09L157.69 102.226L157.915 101.931Z" fill="#4D4D4D"/>
<path d="M191.426 130.25L193.849 127.126L197.325 129.82C197.608 130.037 197.657 130.443 197.44 130.726L195.812 132.829C195.595 133.112 195.189 133.161 194.906 132.944L191.426 130.25Z" fill="#2D2D37"/>
<path d="M163.2 108.596L165.799 105.238C163.122 103.23 160.834 101.848 158.92 101.122C158.547 100.979 158.125 101.098 157.879 101.413L157.698 101.647L157.518 101.881C157.272 102.196 157.264 102.635 157.497 102.959C158.653 104.599 160.556 106.48 163.2 108.596Z" fill="#2D2D37"/>
<path d="M164.938 106.096L165.725 105.083C165.913 104.841 166.262 104.796 166.504 104.985L194.032 126.319C194.278 126.512 194.319 126.868 194.122 127.11L193.323 128.094L164.938 106.096Z" fill="#F0F0F0"/>
<path d="M192.208 129.54L193.333 128.089L164.951 106.095L163.826 107.547L192.208 129.54Z" fill="#E4E4E4"/>
<path d="M163.045 108.593L163.815 107.551L192.197 129.545L191.442 130.566C191.258 130.816 190.901 130.866 190.655 130.677L163.151 109.363C162.909 109.175 162.864 108.834 163.045 108.593Z" fill="#D5D5D5"/>
<path d="M187.674 122.912L187.916 122.6L188.547 122.399L189.269 123.105L188.764 123.756L187.674 122.912Z" fill="#2D2D37"/>
<path d="M189.203 123.064C189.232 123.088 189.248 123.129 189.228 123.158L189.285 123.084L189.646 122.617C189.666 122.588 189.654 122.543 189.621 122.518C189.01 122.092 188.469 121.92 188.092 122.371L187.674 122.912C188.051 122.461 188.592 122.633 189.203 123.064Z" fill="#4D4D4D"/>
<path d="M189.477 124.301L189.844 123.828L189.144 123.285L188.777 123.758L189.477 124.301Z" fill="#2D2D37"/>
<path d="M189.872 123.848L189.917 123.79L189.185 123.222L189.14 123.281L189.872 123.848Z" fill="#808080"/>
<path d="M189.461 124.298L189.65 124.052L190.154 123.892L190.724 124.449L190.326 124.966L189.461 124.298Z" fill="#2D2D37"/>
<path d="M190.675 124.417C190.695 124.437 190.708 124.47 190.695 124.49L190.74 124.433L191.027 124.064C191.044 124.044 191.036 124.007 191.007 123.986C190.523 123.646 190.093 123.511 189.793 123.867L189.461 124.298C189.761 123.937 190.191 124.076 190.675 124.417Z" fill="#4D4D4D"/>
<path d="M191.819 126.116L192.186 125.643L191.554 125.154L191.187 125.627L191.819 126.116Z" fill="#2D2D37"/>
<path d="M192.183 125.642L192.228 125.584L191.596 125.094L191.551 125.152L192.183 125.642Z" fill="#808080"/>
<path d="M156.136 100.438C156.189 100.369 156.214 100.295 156.214 100.229C156.042 100.241 155.923 100.397 155.952 100.565C156.013 100.549 156.083 100.508 156.136 100.438Z" fill="#FDA846"/>
<path d="M167.952 117.693L187.146 112.29C188.782 111.827 189.483 109.896 188.527 108.49L184.498 102.57C183.337 100.807 183.829 98.4335 185.592 97.2774C187.355 96.1173 189.729 96.6092 190.885 98.372L221.574 141.086C221.955 141.59 222.755 141.225 222.628 140.606L222.587 140.405L221.324 123.502C221.201 121.875 222.259 120.395 223.837 119.981L241.863 115.262L247.324 142.504C249.619 153.954 242.81 165.269 231.618 168.606C222.365 171.361 214.687 167.065 208.706 159.48L193.681 139.966C189.474 134.608 187.154 135.74 184.059 136.732L184.051 136.711L181.37 137.474C179.344 138.076 177.217 136.924 176.614 134.903C176.011 132.882 176.856 130.857 178.881 130.254L175.86 131.177C173.999 131.73 171.924 130.914 171.129 129.139C170.284 127.254 171.076 125.163 172.744 124.228L170.137 125.019C168.112 125.622 165.984 124.47 165.381 122.449C164.779 120.428 165.931 118.296 167.952 117.693Z" fill="#FDE3ED"/>
<path d="M223.21 143.082L224.309 146.111" stroke="#FFBED2" stroke-width="1.13815" stroke-miterlimit="10" stroke-linecap="round" stroke-linejoin="round"/>
<path d="M125.336 134.01L125.705 137.212" stroke="#FFBED2" stroke-width="1.13815" stroke-miterlimit="10" stroke-linecap="round" stroke-linejoin="round"/>
<path d="M173.924 123.994L176.036 123.363" stroke="#FFBED2" stroke-width="1.13815" stroke-miterlimit="10" stroke-linecap="round" stroke-linejoin="round"/>
<path d="M179.52 130.111L181.225 129.557" stroke="#FFBED2" stroke-width="1.13815" stroke-miterlimit="10" stroke-linecap="round" stroke-linejoin="round"/>
<path d="M223.837 119.981L241.863 115.262L242.223 117.07C235.41 118.484 228.412 120.944 221.328 123.588L221.32 123.498C221.201 121.875 222.258 120.395 223.837 119.981Z" fill="#FFCDDC"/>
<path d="M102.215 79.1449C104.076 78.5873 106.039 79.6409 106.597 81.5021L115.157 105.727L103.838 89.3077H101.71C101.727 89.0208 101.69 88.7215 101.579 88.4181L99.8491 83.5273C99.2957 81.6661 100.353 79.7065 102.215 79.1449Z" fill="#FDE3ED"/>
<path d="M169.681 69.8141C169.681 69.8141 175.843 70.1338 185.522 69.5312C195.214 68.9286 201.888 60.7827 191.971 62.193C182.054 63.6032 158.576 69.3713 169.681 69.8141Z" fill="#2D2D37"/>
<path d="M164.118 45.4334C164.94 45.4334 165.606 44.5047 165.606 43.359C165.606 42.2134 164.94 41.2847 164.118 41.2847C163.296 41.2847 162.63 42.2134 162.63 43.359C162.63 44.5047 163.296 45.4334 164.118 45.4334Z" fill="#2D2D37"/>
<path d="M193.844 49.4716H174.502L172.76 73.2737C171.968 80.0995 177.302 81.1326 184.173 81.1326C191.044 81.1326 196.381 80.0995 195.586 73.2737L193.844 49.4716Z" fill="#FFDAE4"/>
<path d="M172.69 74.6885C172.751 78.8701 175.629 80.4074 179.766 80.9117C180.91 73.6595 185.776 60.5573 189.396 57.6876L173.744 59.8276L172.76 73.2783C172.76 73.2947 172.76 73.307 172.756 73.3234L172.743 73.5079C172.743 73.512 172.743 73.516 172.743 73.5201C172.727 73.6759 172.723 73.8276 172.715 73.9793C172.702 74.172 172.698 74.4139 172.69 74.6885Z" fill="#FFCDDC"/>
<path d="M157.222 35.9062C157.222 23.2672 167.77 13.0962 180.545 13.7111C191.872 14.2563 201.149 23.5911 201.641 34.9223C201.867 40.1288 200.292 44.9499 197.496 48.8322C195.02 52.2758 192.794 55.8834 190.519 59.4624C186.883 65.1895 180.11 68.7233 172.616 67.6533C165.372 66.6202 159.383 61.1022 157.714 53.9771C157.234 51.9274 157.12 49.9268 157.312 48.0205C157.673 44.4169 157.476 40.7929 157.263 37.1771C157.234 36.7589 157.222 36.3326 157.222 35.9062Z" fill="#FFE4EE"/>
<path d="M178.224 51.5956C175.711 52.9279 167.794 53.0796 165.228 51.8415C164.867 51.6653 164.568 52.3417 164.761 52.9115C165.712 55.732 168.54 57.7449 171.841 57.6834C175.141 57.6219 177.887 55.4984 178.732 52.6451C178.904 52.0711 178.58 51.407 178.224 51.5956Z" fill="#FF7BA4"/>
<path d="M153.926 33.6148C154.074 35.5416 154.267 35.1726 154.357 39.3214C154.451 43.5112 153.389 44.327 152.877 48.2216C152.434 51.5751 153.32 53.6822 153.008 55.6705C152.791 57.0398 152.163 58.9871 151.573 59.848C149.347 63.0908 151.294 67.5306 155.177 68.1578C160.449 69.0106 166.824 69.9207 173.006 69.8961L173.166 67.711C172.985 67.6905 172.801 67.6782 172.616 67.6536C165.372 66.6205 159.383 61.1435 157.714 54.0225C157.235 51.9727 157.12 49.9721 157.313 48.0658C157.501 46.1636 157.534 44.2532 157.493 42.3387C157.485 41.322 157.575 40.3094 157.71 39.305C160.793 38.4728 163.331 36.1688 165.565 33.2868C165.212 34.4142 165.007 35.5129 165.048 36.5255C165.069 37.0707 165.528 37.5135 166.11 37.5627C166.168 37.5668 166.221 37.5709 166.282 37.575C166.84 37.616 167.328 37.2224 167.348 36.7018C167.397 35.3284 167.889 33.3811 167.889 33.3811C167.816 34.8775 168.025 36.1852 168.217 36.9929C168.316 37.4028 168.693 37.6939 169.14 37.7062C169.324 37.7103 169.513 37.7144 169.706 37.7185C170.259 37.7308 170.71 37.3085 170.71 36.792C170.702 35.312 171.087 33.254 171.087 33.254C171.165 34.7586 171.411 36.1688 171.649 37.0584C171.755 37.4602 172.141 37.7431 172.588 37.7431C172.825 37.7431 173.067 37.7431 173.313 37.7431C173.895 37.7431 174.338 37.2675 174.285 36.7264C174.145 35.312 174.297 33.4508 174.297 33.4508C174.498 35.0087 174.933 36.3328 175.277 37.1445C175.429 37.4971 175.789 37.7267 176.195 37.7226C176.437 37.7185 176.679 37.7185 176.921 37.7144C177.413 37.7103 177.761 37.2511 177.593 36.8166C177.138 35.6441 176.843 34.4388 176.675 33.2253C180.992 37.3946 186.907 41.035 192.577 42.5929L193.483 45.9545C193.463 48.1847 192.372 49.1932 192.147 51.8415C191.925 54.4899 192.671 56.5191 192.671 58.1467C192.671 59.9997 192.032 62.1561 191.794 62.7013C190.531 65.6243 192.893 68.8138 196.045 68.371C200.227 67.7807 206.335 67.1698 209.455 66.1409C211.206 65.5628 212.378 63.8656 212.222 62.0249C211.943 58.7083 209.717 57.1218 209.205 54.621C208.639 51.8579 209.172 50.1156 208.926 47.9428C208.328 42.72 206.778 43.667 206.581 37.4397C206.475 34.1027 205.983 30.7656 204.765 27.654C200.887 17.7494 193.684 14.6789 190.716 13.7278C188.92 13.1497 183.591 11.5878 177.683 11.5222C177.581 11.5222 177.482 11.5386 177.38 11.5386C176.605 11.2065 175.707 10.9523 174.662 10.8047C168.508 9.93154 156.103 18.639 154.328 27.5433C153.893 29.7489 153.783 31.688 153.926 33.6148Z" fill="#2D2D37"/>
<path d="M165.045 46.7211C166.378 46.7211 167.459 45.2161 167.459 43.3595C167.459 41.5029 166.378 39.9978 165.045 39.9978C163.711 39.9978 162.63 41.5029 162.63 43.3595C162.63 45.2161 163.711 46.7211 165.045 46.7211Z" fill="white"/>
<path d="M177.027 46.7211C178.361 46.7211 179.442 45.2161 179.442 43.3595C179.442 41.5029 178.361 39.9978 177.027 39.9978C175.693 39.9978 174.612 41.5029 174.612 43.3595C174.612 45.2161 175.693 46.7211 177.027 46.7211Z" fill="white"/>
<path d="M176.055 45.368C176.85 45.368 177.494 44.4686 177.494 43.3592C177.494 42.2497 176.85 41.3504 176.055 41.3504C175.26 41.3504 174.616 42.2497 174.616 43.3592C174.616 44.4686 175.26 45.368 176.055 45.368Z" fill="#2D2D37"/>
<path d="M164.069 45.368C164.864 45.368 165.508 44.4686 165.508 43.3592C165.508 42.2497 164.864 41.3504 164.069 41.3504C163.274 41.3504 162.63 42.2497 162.63 43.3592C162.63 44.4686 163.274 45.368 164.069 45.368Z" fill="#2D2D37"/>
<path d="M192.368 43.9536C192.368 41.625 194.118 39.7515 196.234 39.8663C198.111 39.9688 199.649 41.6865 199.731 43.7732C199.768 44.7325 199.505 45.618 199.042 46.3354C198.632 46.9708 198.263 47.635 197.886 48.2909C197.283 49.3445 196.16 49.9963 194.918 49.7996C193.717 49.611 192.725 48.5943 192.446 47.2824C192.368 46.9053 192.347 46.5363 192.38 46.1837C192.442 45.5196 192.409 44.8514 192.372 44.1872C192.368 44.1134 192.368 44.0355 192.368 43.9536Z" fill="#FFE4EE"/>
<path d="M196.832 43.8632L196.258 44.4372C195.676 45.0193 195.676 45.9663 196.258 46.5484" stroke="#FFBED2" stroke-width="1.1644" stroke-miterlimit="10" stroke-linecap="round" stroke-linejoin="round"/>
<path d="M193.851 10.5294C194.52 6.45856 190.761 2.45146 185.455 1.57926C180.149 0.707062 175.304 3.30004 174.635 7.37084C173.966 11.4416 177.725 15.4487 183.032 16.3209C188.338 17.1931 193.182 14.6002 193.851 10.5294Z" fill="#2D2D37"/>
<path d="M171.218 48.2134C169.804 48.2462 168.627 47.127 168.59 45.7126C168.578 45.1469 168.885 44.6672 169.295 44.2737C170.382 43.2324 171.091 41.8631 171.091 40.3586V39.9978" stroke="#FFBED2" stroke-width="1.1644" stroke-miterlimit="10" stroke-linecap="round" stroke-linejoin="round"/>
</g>
</svg>
