<svg width="335" height="220" viewBox="0 0 335 220" fill="none" xmlns="http://www.w3.org/2000/svg">
<mask id="mask0_3198:49142" style="mask-type:alpha" maskUnits="userSpaceOnUse" x="0" y="0" width="335" height="220">
<rect width="335" height="220" fill="#C4C4C4"/>
</mask>
<g mask="url(#mask0_3198:49142)">
<path d="M138.169 193.588C126.709 205.611 129.555 299.01 127.931 366.992C127.844 370.578 130.725 373.521 134.311 373.521H165.62C169.147 373.521 172.004 370.664 172.004 367.137V204.622V367.134C172.004 370.66 174.861 373.517 178.388 373.517H209.689C213.275 373.517 216.16 370.57 216.069 366.984C214.371 298.463 216.956 203.125 205.835 193.588" fill="#F5F5F9"/>
<path d="M172.004 366.743V205.639" stroke="#CCCCD2" stroke-width="1.12024" stroke-miterlimit="10" stroke-linecap="round" stroke-linejoin="round"/>
<path d="M175.681 207.451V217.355C175.681 219.699 174.033 221.599 172.004 221.599" stroke="#CCCCD2" stroke-width="1.12024" stroke-miterlimit="10" stroke-linecap="round" stroke-linejoin="round"/>
<path d="M193.221 204.622L193.682 213.126C194.06 220.097 199.821 225.555 206.8 225.555" stroke="#CCCCD2" stroke-width="1.12024" stroke-miterlimit="10" stroke-linecap="round" stroke-linejoin="round"/>
<path d="M150.783 204.622L150.322 213.126C149.943 220.097 144.182 225.555 137.203 225.555" stroke="#CCCCD2" stroke-width="1.12024" stroke-miterlimit="10" stroke-linecap="round" stroke-linejoin="round"/>
<path d="M242.96 9.92685C244.56 10.9199 244.99 13.0676 244.044 14.6991L240.943 20.0466C240.781 20.3264 240.872 20.685 241.148 20.8545C241.431 21.0279 241.806 20.9333 241.975 20.6456L246.716 12.4804L252.962 1.71439C253.916 0.0711092 256.02 -0.488473 257.663 0.465181C259.306 1.41884 259.866 3.52318 258.912 5.16646L252.702 15.8655C252.536 16.1492 252.635 16.5157 252.919 16.6812C253.202 16.8467 253.569 16.7482 253.734 16.4645L260.859 4.17734C261.813 2.53406 263.917 1.97448 265.56 2.92813C267.204 3.88178 267.763 5.98613 266.81 7.62941L259.157 20.8151C258.991 21.0988 259.09 21.4653 259.373 21.6308C259.657 21.7963 260.024 21.6978 260.189 21.414L265.584 12.1139C266.538 10.4707 268.642 9.91108 270.285 10.8647C271.929 11.8184 272.488 13.9227 271.535 15.566L266.36 24.4799L263.562 29.3034L226.591 93.009L206.682 81.4548L229.03 42.9422C231.418 38.8241 232.541 34.0913 232.257 29.3388C231.974 24.5863 233.097 19.8535 235.485 15.7355L238.168 11.113C239.142 9.44608 241.305 8.89832 242.96 9.92685Z" fill="#FFE4EE"/>
<path d="M256.954 30.2213C253.64 28.7514 249.163 25.327 247.945 21.4966" stroke="#FFBED2" stroke-width="1.12024" stroke-miterlimit="10" stroke-linecap="round" stroke-linejoin="round"/>
<path d="M243.157 24.7006C246.491 27.593 244.934 33.4884 242.097 35.707" stroke="#FFBED2" stroke-width="1.12024" stroke-miterlimit="10" stroke-linecap="round" stroke-linejoin="round"/>
<path d="M101.039 9.92764C99.4394 10.9207 99.0099 13.0684 99.9556 14.6999L103.061 20.0513C103.222 20.3311 103.132 20.6897 102.856 20.8592C102.572 21.0326 102.198 20.938 102.028 20.6503L97.2878 12.4852L91.0417 1.71518C90.0881 0.0719027 87.9837 -0.487679 86.3405 0.465975C84.6972 1.41963 84.1376 3.52397 85.0912 5.16725L91.3018 15.8663C91.4673 16.15 91.3688 16.5165 91.0851 16.682C90.8013 16.8475 90.4349 16.749 90.2693 16.4653L83.1406 4.17813C82.1869 2.53485 80.0826 1.97527 78.4393 2.92892C76.796 3.88258 76.2364 5.98692 77.1901 7.6302L84.843 20.8158C85.0085 21.0996 84.91 21.4661 84.6262 21.6316C84.3425 21.7971 83.976 21.6986 83.8105 21.4148L78.4157 12.1147C77.462 10.4715 75.3577 9.91188 73.7144 10.8655C72.0711 11.8192 71.5115 13.9235 72.4652 15.5668L77.6393 24.4807L80.4373 29.3042L117.409 93.0098L137.318 81.4556L114.97 42.943C112.582 38.8249 111.459 34.0921 111.742 29.3396C112.026 24.5871 110.903 19.8543 108.515 15.7363L105.831 11.1138C104.858 9.44687 102.694 8.89911 101.039 9.92764Z" fill="#FFE4EE"/>
<path d="M87.0464 30.2216C90.3605 28.7518 94.8372 25.3273 96.0549 21.4969" stroke="#FFBED2" stroke-width="1.12024" stroke-miterlimit="10" stroke-linecap="round" stroke-linejoin="round"/>
<path d="M100.843 24.7009C97.5089 27.5934 99.0655 33.4887 101.903 35.7073" stroke="#FFBED2" stroke-width="1.12024" stroke-miterlimit="10" stroke-linecap="round" stroke-linejoin="round"/>
<path d="M228.199 89.9549L210.435 77.0254C209.308 76.2058 207.731 76.4422 206.896 77.5574L189.99 100.544C189.478 101.19 189.025 101.864 188.627 102.565L187.594 102.337C186.554 102.144 185.703 101.47 185.254 100.552C185.131 100.303 185.025 100.043 184.974 99.7634C184.974 98.7309 184.316 97.8206 183.342 97.4778C179.555 96.1537 175.772 95.4956 171.993 95.4995C168.21 95.4956 164.427 96.1537 160.644 97.4778C159.67 97.8167 159.012 98.7309 159.012 99.7634C158.957 100.043 158.851 100.303 158.732 100.552C158.287 101.47 157.432 102.144 156.392 102.337L155.367 102.565C154.969 101.868 154.52 101.19 154.008 100.544L137.102 77.5574C136.266 76.4422 134.69 76.2058 133.563 77.0254L115.798 89.9549C114.738 90.7273 114.435 92.1775 115.101 93.3085L128.208 118.269C128.231 118.308 128.255 118.348 128.279 118.387C134.032 127.967 137.003 138.958 136.18 150.102L132.901 194.376C132.739 196.551 134.462 198.407 136.645 198.407H207.357C209.54 198.407 211.262 196.551 211.101 194.376L207.818 150.114C206.991 138.966 209.958 127.971 215.715 118.395C215.739 118.356 215.763 118.312 215.79 118.273L228.897 93.3124C229.563 92.1775 229.263 90.7273 228.199 89.9549Z" fill="#FAA0B4"/>
<path d="M184.863 105.749L180.091 112.188C179.326 113.221 177.829 113.351 176.899 112.464L173.466 109.189C172.611 108.374 171.263 108.374 170.408 109.189L166.976 112.464C166.046 113.351 164.548 113.221 163.784 112.188L159.012 105.749" stroke="#FA7D9B" stroke-width="1.11996" stroke-miterlimit="10" stroke-linecap="round" stroke-linejoin="round"/>
<path d="M171.914 114.312C172.465 114.312 172.911 113.866 172.911 113.315C172.911 112.764 172.465 112.318 171.914 112.318C171.364 112.318 170.917 112.764 170.917 113.315C170.917 113.866 171.364 114.312 171.914 114.312Z" fill="white"/>
<path d="M171.914 117.354C172.465 117.354 172.911 116.908 172.911 116.357C172.911 115.806 172.465 115.36 171.914 115.36C171.364 115.36 170.917 115.806 170.917 116.357C170.917 116.908 171.364 117.354 171.914 117.354Z" fill="white"/>
<path d="M181.998 83.4763C177.861 83.7679 175.228 79.177 177.486 75.7012C178.822 73.6442 180.308 71.6147 181.313 71C183.567 69.6168 188.142 83.0231 182.195 83.4645C182.125 83.4645 182.061 83.4723 181.998 83.4763Z" fill="#2D2D37"/>
<path d="M181.411 72.7848H162.22L160.49 96.4015C159.702 103.176 164.998 104.2 171.816 104.2C178.633 104.2 183.925 103.176 183.141 96.4015L181.411 72.7848Z" fill="#FFDAE4"/>
<path d="M177.025 84.2329C173.396 87.1136 168.497 96.7959 167.425 103.98C163.449 103.495 160.647 102.045 160.427 98.1752C160.439 97.4461 160.454 96.8511 160.478 96.5319C160.482 96.4885 160.486 96.4452 160.49 96.4018L161.337 84.7964L177.025 84.2329Z" fill="#FFCDDC"/>
<path d="M145.078 59.3277C145.078 46.7883 155.544 36.6962 168.218 37.307C179.456 37.8508 188.662 47.1075 189.151 58.3504C189.375 63.5167 187.811 68.2968 185.037 72.1548C182.578 75.5714 180.371 79.1495 178.117 82.7001C174.507 88.3826 167.788 91.8899 160.352 90.8298C153.164 89.8013 147.225 84.3276 145.566 77.258C145.089 75.2246 144.979 73.2385 145.168 71.3469C145.527 67.7727 145.33 64.1748 145.117 60.5887C145.089 60.171 145.078 59.7494 145.078 59.3277Z" fill="#FFE4EE"/>
<path d="M166.409 67.6153C167.665 67.6153 168.683 66.1827 168.683 64.4154C168.683 62.6482 167.665 61.2156 166.409 61.2156C165.153 61.2156 164.135 62.6482 164.135 64.4154C164.135 66.1827 165.153 67.6153 166.409 67.6153Z" fill="white"/>
<path d="M165.68 66.7953C166.533 66.7953 167.225 65.7579 167.225 64.4782C167.225 63.1984 166.533 62.161 165.68 62.161C164.827 62.161 164.135 63.1984 164.135 64.4782C164.135 65.7579 164.827 66.7953 165.68 66.7953Z" fill="#2D2D37"/>
<path d="M153.948 67.6153C155.204 67.6153 156.222 66.1827 156.222 64.4154C156.222 62.6482 155.204 61.2156 153.948 61.2156C152.692 61.2156 151.674 62.6482 151.674 64.4154C151.674 66.1827 152.692 67.6153 153.948 67.6153Z" fill="white"/>
<path d="M153.219 66.7953C154.072 66.7953 154.764 65.7579 154.764 64.4782C154.764 63.1984 154.072 62.161 153.219 62.161C152.366 62.161 151.674 63.1984 151.674 64.4782C151.674 65.7579 152.366 66.7953 153.219 66.7953Z" fill="#2D2D37"/>
<path d="M159.422 69.7547C158 69.7901 156.818 68.6631 156.782 67.2405C156.747 65.8179 158.741 64.9312 159.296 64.6002V61.491" stroke="#FFBED2" stroke-width="1.19846" stroke-miterlimit="10" stroke-linecap="round" stroke-linejoin="round"/>
<path d="M182.191 83.4606C183.929 83.4212 185.458 82.0262 185.947 80.446C187.424 80.182 188.571 78.9958 188.78 77.4983C190.092 77.0727 191.05 75.9023 191.172 74.4797C192.591 74.0344 193.623 72.7222 193.623 71.1577C193.623 71.0355 193.6 70.9173 193.588 70.7952C194.62 70.1883 195.318 69.077 195.318 67.7923C195.318 67.485 195.266 67.1894 195.188 66.9017C196.074 66.2673 196.654 65.2348 196.654 64.0644C196.654 63.497 196.504 62.965 196.263 62.4921C197.024 61.8497 197.513 60.904 197.513 59.8321C197.513 59.1819 197.324 58.5789 197.016 58.0588C197.591 57.4361 197.954 56.6086 197.954 55.6904C197.954 54.6973 197.536 53.8067 196.874 53.1723C197.197 52.6442 197.394 52.0255 197.394 51.3595C197.394 50.134 196.76 49.0582 195.806 48.4355C196.102 47.9232 196.283 47.3361 196.283 46.6977C196.283 45.2593 195.412 44.0219 194.167 43.486C194.23 43.2259 194.269 42.954 194.269 42.6742C194.269 41.09 193.209 39.7659 191.763 39.3364C191.787 39.1709 191.814 39.0054 191.814 38.832C191.814 37.0232 190.435 35.5533 188.674 35.3681C188.319 33.8115 186.932 32.649 185.269 32.649C185.08 32.649 184.894 32.6766 184.713 32.7042C184.229 31.3525 182.948 30.3792 181.431 30.3792C180.993 30.3792 180.579 30.4698 180.193 30.6156C179.59 29.5713 178.471 28.858 177.175 28.858C176.564 28.858 175.996 29.0275 175.496 29.3033C174.854 28.4915 173.876 27.9635 172.761 27.9635C172.19 27.9635 171.662 28.1132 171.185 28.3536C170.546 27.6719 169.644 27.2384 168.635 27.2384C167.906 27.2384 167.232 27.463 166.669 27.8413C166.042 27.2463 165.199 26.8759 164.269 26.8759C163.264 26.8759 162.365 27.3054 161.727 27.9832C161.136 27.5221 160.399 27.2345 159.591 27.2345C158.44 27.2345 157.428 27.798 156.789 28.6571C156.372 28.4482 155.903 28.3221 155.406 28.3221C154.184 28.3221 153.136 29.0314 152.616 30.0521C152.388 30.0048 152.151 29.9811 151.907 29.9811C150.366 29.9811 149.077 30.9821 148.608 32.3613C147.008 32.3968 145.684 33.5002 145.306 34.9898C145.298 34.9937 145.29 34.9977 145.282 35.0016C143.454 35.108 141.996 36.6094 141.988 38.4616C140.833 39.033 140.029 40.2112 140.029 41.5866C140.029 41.6969 140.053 41.8033 140.061 41.9097C139.115 42.5363 138.489 43.6081 138.489 44.8298C138.489 45.3775 138.627 45.8938 138.851 46.3548C138.134 46.9972 137.673 47.9193 137.673 48.9557C137.673 49.7951 137.98 50.5517 138.473 51.1546C137.98 51.7576 137.673 52.5181 137.673 53.3575C137.673 54.1929 137.98 54.9535 138.469 55.5564C137.98 56.1593 137.673 56.916 137.673 57.7553C137.673 58.5632 137.957 59.2961 138.418 59.8873C138.28 60.2616 138.193 60.6636 138.193 61.0852C138.193 61.9916 138.548 62.8073 139.111 63.43C139.025 63.7334 138.965 64.0447 138.965 64.3757C138.965 65.3924 139.407 66.3027 140.104 66.9411C140.057 67.1697 140.033 67.4061 140.033 67.6505C140.033 68.9076 140.699 69.9991 141.696 70.6178C141.696 70.6218 141.696 70.6257 141.696 70.6257C141.696 72.1823 142.717 73.4827 144.12 73.9399C144.285 74.7438 144.727 75.4492 145.338 75.9496C145.093 74.2551 145.042 72.4857 145.152 71.3626C145.511 67.7884 145.361 64.959 145.148 61.3729C145.137 61.168 145.05 59.6981 145.582 58.24C145.85 57.5031 146.599 57.0933 147.387 57.0972C148.372 57.0972 149.282 56.4431 149.972 55.6116V55.6076C150.437 55.0481 150.807 54.4057 151.024 53.8185C151.54 54.0747 152.112 54.2323 152.726 54.2323C153.818 54.2323 154.799 53.7713 155.501 53.0422C156.163 53.5782 156.994 53.9131 157.908 53.9131C158.945 53.9131 159.883 53.4993 160.576 52.8294C161.282 53.6806 162.334 54.2363 163.528 54.2363C164.438 54.2363 165.262 53.9092 165.924 53.3772C166.617 54.3978 167.784 55.0678 169.108 55.0678C169.577 55.0678 170.018 54.9732 170.436 54.8195C170.814 56.38 172.091 57.6016 173.774 57.7238C176.647 58.0075 177.415 59.8163 177.557 62.161C177.675 64.0841 178.373 65.688 180.296 65.7944C180.422 65.8023 180.54 65.7983 180.642 65.7865H180.654C180.65 66.1885 180.808 66.5392 181.32 66.819L181.49 66.9096C183.314 67.8987 181.076 69.743 181.237 71.8158L182.191 83.4606Z" fill="#2D2D37"/>
<path d="M177.573 65.2742C177.573 62.965 179.307 61.105 181.407 61.2192C183.271 61.3178 184.796 63.0241 184.879 65.093C184.914 66.0427 184.658 66.9254 184.197 67.6347C183.791 68.2652 183.425 68.9233 183.05 69.5775C182.451 70.6218 181.34 71.2681 180.107 71.075C178.917 70.8858 177.931 69.877 177.656 68.5766C177.577 68.2022 177.557 67.8357 177.589 67.4889C177.648 66.8308 177.616 66.1688 177.581 65.5067C177.573 65.4279 177.573 65.353 177.573 65.2742Z" fill="#FFE4EE"/>
<path d="M182.003 65.1838L181.432 65.7552C180.852 66.3345 180.852 67.2724 181.432 67.8478" stroke="#FFBED2" stroke-width="1.19846" stroke-miterlimit="10" stroke-linecap="round" stroke-linejoin="round"/>
<path d="M165.778 73.1913C165.778 71.284 162.886 73.4435 159.319 73.4435C155.753 73.4435 152.86 71.284 152.86 73.1913C152.86 75.0986 153.782 79.6856 159.319 79.6856C164.856 79.6856 165.778 75.0986 165.778 73.1913Z" fill="#FF7BA4"/>
</g>
</svg>
