<svg width="382" height="387" viewBox="0 0 382 387" fill="none" xmlns="http://www.w3.org/2000/svg">
<mask id="mask0" mask-type="alpha" maskUnits="userSpaceOnUse" x="0" y="0" width="382" height="387">
<rect width="382" height="387" fill="#C4C4C4"/>
</mask>
<g mask="url(#mask0)">
<path d="M155.784 329.056C143.918 341.577 146.864 438.551 145.145 509.093C145.063 512.775 148.009 515.885 151.774 515.885H184.262C187.945 515.885 190.891 512.939 190.891 509.257V340.513V509.257C190.891 512.939 193.837 515.885 197.52 515.885H230.008C233.772 515.885 236.718 512.857 236.637 509.093C234.836 437.978 237.537 338.958 225.998 329.056" fill="#F5F5F7"/>
<path d="M190.891 508.848V341.577" stroke="#CCCCCC" stroke-width="1.3247" stroke-miterlimit="10" stroke-linecap="round" stroke-linejoin="round"/>
<path d="M194.655 343.459V353.771C194.655 356.226 192.937 358.19 190.809 358.19" stroke="#CCCCCC" stroke-width="1.3247" stroke-miterlimit="10" stroke-linecap="round" stroke-linejoin="round"/>
<path d="M212.905 340.513L213.396 349.351C213.805 356.553 219.779 362.281 226.98 362.281" stroke="#CCCCCC" stroke-width="1.3247" stroke-miterlimit="10" stroke-linecap="round" stroke-linejoin="round"/>
<path d="M168.877 340.513L168.386 349.351C167.977 356.553 162.003 362.281 154.802 362.281" stroke="#CCCCCC" stroke-width="1.3247" stroke-miterlimit="10" stroke-linecap="round" stroke-linejoin="round"/>
<path d="M264.542 138.381C266.179 139.445 266.67 141.654 265.688 143.373L262.496 148.938C262.333 149.265 262.415 149.592 262.742 149.756C263.069 149.92 263.397 149.838 263.56 149.51L268.47 141L274.935 129.788C275.917 128.07 278.127 127.497 279.845 128.479C281.564 129.461 282.137 131.67 281.155 133.389L274.69 144.519C274.526 144.846 274.608 145.173 274.935 145.337C275.263 145.501 275.59 145.419 275.754 145.091L283.119 132.325C284.101 130.607 286.31 130.034 288.029 131.016C289.747 131.998 290.32 134.207 289.338 135.926L281.4 149.592C281.237 149.92 281.318 150.247 281.646 150.411C281.973 150.574 282.3 150.493 282.464 150.165L288.029 140.509C289.011 138.79 291.22 138.217 292.939 139.199C294.658 140.181 295.23 142.391 294.248 144.109L288.847 153.357L285.901 158.349L247.521 224.635L226.816 212.605L250.058 172.588C252.513 168.333 253.74 163.422 253.413 158.43C253.085 153.52 254.313 148.61 256.768 144.273L259.55 139.445C260.614 137.89 262.824 137.317 264.542 138.381Z" fill="#FFE4EE"/>
<path d="M279.109 159.413C275.672 157.858 271.007 154.339 269.78 150.329" stroke="#FFBED2" stroke-width="1.2836" stroke-miterlimit="10" stroke-linecap="round" stroke-linejoin="round"/>
<path d="M264.788 153.684C268.225 156.712 266.67 162.85 263.724 165.141" stroke="#FFBED2" stroke-width="1.2836" stroke-miterlimit="10" stroke-linecap="round" stroke-linejoin="round"/>
<path d="M117.158 138.381C115.521 139.445 115.03 141.654 116.012 143.373L119.204 148.937C119.367 149.265 119.285 149.592 118.958 149.756C118.631 149.919 118.303 149.838 118.14 149.51L113.23 140.999L106.847 129.87C105.864 128.151 103.655 127.578 101.936 128.56C100.218 129.542 99.645 131.752 100.627 133.471L107.092 144.6C107.256 144.927 107.174 145.255 106.847 145.418C106.519 145.582 106.192 145.5 106.028 145.173L98.663 132.407C97.681 130.688 95.4715 130.115 93.7529 131.097C92.0344 132.079 91.4616 134.289 92.4436 136.007L100.382 149.674C100.545 150.001 100.463 150.329 100.136 150.492C99.8087 150.656 99.4814 150.574 99.3177 150.247L93.6711 140.672C92.6891 138.954 90.4795 138.381 88.761 139.363C87.0425 140.345 86.4696 142.554 87.4516 144.273L92.8527 153.52L95.7988 158.512L134.179 224.635L154.884 212.605L131.642 172.669C129.187 168.414 127.96 163.504 128.287 158.512C128.615 153.602 127.387 148.692 124.932 144.355L122.15 139.526C121.168 137.89 118.876 137.317 117.158 138.381Z" fill="#FFE4EE"/>
<path d="M102.673 159.413C106.11 157.858 110.775 154.339 112.002 150.329" stroke="#FFBED2" stroke-width="1.2836" stroke-miterlimit="10" stroke-linecap="round" stroke-linejoin="round"/>
<path d="M116.994 153.684C113.557 156.712 115.112 162.85 118.058 165.141" stroke="#FFBED2" stroke-width="1.2836" stroke-miterlimit="10" stroke-linecap="round" stroke-linejoin="round"/>
<path d="M249.239 221.443L230.826 208.022C229.681 207.204 228.044 207.45 227.144 208.595L209.549 232.491C209.058 233.146 208.567 233.882 208.158 234.619L207.094 234.373C206.03 234.21 205.13 233.473 204.639 232.491C204.476 232.246 204.394 232 204.312 231.673C204.312 230.609 203.657 229.627 202.593 229.299C198.665 227.908 194.737 227.254 190.809 227.254C186.881 227.254 182.953 227.908 179.025 229.299C178.043 229.627 177.306 230.609 177.306 231.673C177.225 232 177.143 232.246 176.979 232.491C176.488 233.473 175.67 234.128 174.524 234.373L173.46 234.619C173.051 233.882 172.56 233.228 172.069 232.491L154.638 208.595C153.738 207.45 152.101 207.204 150.956 208.022L132.543 221.443C131.479 222.262 131.151 223.735 131.806 224.962L145.391 250.904L145.473 250.986C151.447 260.97 154.556 272.345 153.656 283.883L150.219 329.875C150.055 332.166 151.856 334.048 154.065 334.048H227.471C229.763 334.048 231.563 332.084 231.317 329.875L227.88 283.883C227.062 272.345 230.09 260.888 236.064 250.986C236.064 250.904 236.146 250.904 236.146 250.822L249.73 224.88C250.63 223.817 250.303 222.262 249.239 221.443Z" fill="#FF678D"/>
<path d="M204.23 237.892L199.238 244.603C198.42 245.666 196.865 245.83 195.965 244.848L192.364 241.411C191.464 240.593 190.073 240.593 189.172 241.411L185.572 244.848C184.59 245.748 183.035 245.666 182.298 244.603L177.306 237.892" stroke="#FF4682" stroke-width="1.3247" stroke-miterlimit="10" stroke-linecap="round" stroke-linejoin="round"/>
<path d="M190.809 246.812C191.397 246.812 191.873 246.335 191.873 245.748C191.873 245.16 191.397 244.684 190.809 244.684C190.222 244.684 189.745 245.16 189.745 245.748C189.745 246.335 190.222 246.812 190.809 246.812Z" fill="#E5E5E5"/>
<path d="M190.809 249.922C191.397 249.922 191.873 249.446 191.873 248.858C191.873 248.271 191.397 247.794 190.809 247.794C190.222 247.794 189.745 248.271 189.745 248.858C189.745 249.446 190.222 249.922 190.809 249.922Z" fill="#E5E5E5"/>
<path d="M200.302 204.831H181.071L179.352 228.481C178.534 235.274 183.853 236.256 190.727 236.256C197.52 236.256 202.839 235.192 202.102 228.481L200.302 204.831Z" fill="#FFDAE4"/>
<path d="M195.883 216.288C192.282 219.152 187.372 228.89 186.308 236.092C182.298 235.601 179.516 234.128 179.27 230.281C179.27 229.545 179.27 228.972 179.352 228.645C179.352 228.563 179.352 228.563 179.352 228.481L180.171 216.86L195.883 216.288Z" fill="#FFCDDC"/>
<path d="M163.885 191.328C163.885 178.808 174.36 168.66 187.045 169.315C198.338 169.888 207.503 179.135 207.994 190.428C208.24 195.584 206.685 200.412 203.903 204.258C201.448 207.695 199.238 211.296 196.947 214.815C193.346 220.543 186.636 223.98 179.189 222.917C171.987 221.853 166.013 216.37 164.376 209.332C163.885 207.286 163.804 205.322 163.967 203.44C164.295 199.839 164.131 196.238 163.885 192.638C163.967 192.147 163.885 191.737 163.885 191.328Z" fill="#FFE4EE"/>
<path d="M185.326 199.594C186.592 199.594 187.618 198.165 187.618 196.402C187.618 194.639 186.592 193.21 185.326 193.21C184.061 193.21 183.035 194.639 183.035 196.402C183.035 198.165 184.061 199.594 185.326 199.594Z" fill="white"/>
<path d="M184.59 198.775C185.448 198.775 186.145 197.749 186.145 196.484C186.145 195.218 185.448 194.192 184.59 194.192C183.731 194.192 183.035 195.218 183.035 196.484C183.035 197.749 183.731 198.775 184.59 198.775Z" fill="#333333"/>
<path d="M172.724 199.594C173.989 199.594 175.015 198.165 175.015 196.402C175.015 194.639 173.989 193.21 172.724 193.21C171.458 193.21 170.432 194.639 170.432 196.402C170.432 198.165 171.458 199.594 172.724 199.594Z" fill="white"/>
<path d="M171.987 198.775C172.846 198.775 173.542 197.749 173.542 196.484C173.542 195.218 172.846 194.192 171.987 194.192C171.128 194.192 170.432 195.218 170.432 196.484C170.432 197.749 171.128 198.775 171.987 198.775Z" fill="#333333"/>
<path d="M222.97 187.646C222.97 186.009 222.316 184.454 221.17 183.39C221.825 182.408 222.152 181.263 222.152 180.035C222.152 178.48 221.579 177.089 220.597 176.025C220.842 175.37 220.924 174.716 220.924 173.979C220.924 171.033 218.797 168.66 216.096 168.087C216.096 167.924 216.096 167.76 216.096 167.514C216.096 164.977 214.459 162.768 212.25 161.95C211.759 159.576 209.877 157.694 207.422 157.203C206.603 154.912 204.394 153.193 201.775 153.193C200.302 153.193 198.911 153.766 197.929 154.584C197.029 152.539 194.901 151.066 192.446 151.066C190.891 151.066 189.5 151.638 188.354 152.62C187.29 151.311 185.572 150.493 183.771 150.493C181.562 150.493 179.68 151.638 178.616 153.439C177.552 152.375 175.997 151.638 174.36 151.638C172.478 151.638 170.76 152.539 169.696 153.848C168.223 153.602 166.668 153.93 165.358 154.912C164.376 155.648 163.64 156.548 163.231 157.612C160.121 157.858 157.748 160.477 157.748 163.586C157.748 163.75 157.748 163.914 157.748 164.077C157.339 164.241 156.929 164.486 156.52 164.732C154.065 166.45 153.411 169.724 154.638 172.261C153.738 173.816 153.492 175.698 154.147 177.416C153.247 178.48 152.674 179.871 152.674 181.344C152.674 182.817 153.165 184.127 154.065 185.109C153.902 185.6 153.82 186.091 153.82 186.664C153.82 187.564 154.065 188.382 154.393 189.201C154.065 189.937 153.82 190.837 153.82 191.737C153.82 193.047 154.229 194.274 154.965 195.338C154.965 195.502 154.965 195.666 154.965 195.911C154.965 197.793 155.784 199.43 157.175 200.494C157.666 201.967 158.812 203.194 160.203 203.931C160.694 205.322 161.676 206.468 162.985 207.204C163.313 207.859 163.722 208.35 164.213 208.841C163.804 206.877 163.64 204.995 163.885 203.112C164.213 199.512 164.049 195.911 163.804 192.31C163.804 191.901 163.804 187.155 167.159 186.255C167.895 186.091 168.632 185.682 169.205 185.191C169.778 185.518 170.432 185.764 171.169 185.764C172.314 185.764 173.296 185.272 173.951 184.536C174.851 185.027 175.833 185.354 176.979 185.354C178.207 185.354 179.352 184.945 180.334 184.29C181.071 184.618 181.889 184.781 182.707 184.781C183.28 184.781 183.771 184.7 184.262 184.536C185.244 185.272 186.472 185.764 187.863 185.764C188.518 185.764 189.172 185.682 189.745 185.436C189.745 185.518 189.745 185.6 189.745 185.764C189.745 188.382 191.382 190.592 193.755 191.41C193.51 191.983 193.428 192.638 193.428 193.374C193.428 193.538 193.428 193.701 193.428 193.865C193.591 195.829 194.819 197.63 196.619 198.53L196.783 198.612C198.583 199.594 199.811 201.476 199.975 203.522L201.202 219.152C202.102 218.661 202.839 218.006 203.412 217.188C206.358 216.779 208.649 214.324 208.649 211.214V211.132C211.104 210.805 213.068 208.923 213.641 206.468C215.851 205.568 217.405 203.44 217.405 200.903V200.821C220.27 200.412 222.561 197.875 222.561 194.929C222.561 193.62 222.152 192.392 221.334 191.328C222.397 190.592 222.97 189.201 222.97 187.646Z" fill="#333333"/>
<path d="M196.456 197.302C196.456 195.011 198.174 193.129 200.302 193.211C202.184 193.292 203.657 195.011 203.739 197.057C203.739 198.039 203.494 198.857 203.084 199.594C202.675 200.248 202.348 200.903 201.939 201.558C201.366 202.622 200.22 203.276 198.993 203.031C197.765 202.867 196.783 201.803 196.538 200.494C196.456 200.085 196.456 199.757 196.456 199.43C196.538 198.775 196.456 198.121 196.456 197.466C196.456 197.466 196.456 197.384 196.456 197.302Z" fill="#FFE4EE"/>
<path d="M184.999 206.059C184.999 204.095 181.971 206.304 178.288 206.304C174.606 206.304 171.578 204.095 171.578 206.059C171.578 208.023 172.56 212.769 178.288 212.769C184.017 212.769 184.999 208.023 184.999 206.059Z" fill="#FF7BA4"/>
<path d="M200.875 197.221L200.302 197.794C199.729 198.366 199.729 199.348 200.302 199.921" stroke="#FFBED2" stroke-width="1.3247" stroke-miterlimit="10" stroke-linecap="round" stroke-linejoin="round"/>
<path d="M178.288 201.803C176.897 201.803 175.67 200.739 175.67 199.266C175.67 197.875 177.634 196.975 178.207 196.647V193.538" stroke="#FFBED2" stroke-width="1.3247" stroke-miterlimit="10" stroke-linecap="round" stroke-linejoin="round"/>
</g>
</svg>
