<svg width="362" height="263" viewBox="0 0 362 263" fill="none" xmlns="http://www.w3.org/2000/svg">
<g opacity="0.4">
<path d="M341.194 216.336L360.945 218.802L362 210.348L342.25 207.882L341.194 216.336Z" fill="#FFDCE6"/>
<path d="M251.255 202.407L268.084 213.035L272.633 205.832L255.804 195.203L251.255 202.407Z" fill="#FFDCE6"/>
<path d="M36.8894 46.68L53.718 57.3086L58.2674 50.1054L41.4388 39.4769L36.8894 46.68Z" fill="#FFDCE6"/>
<path d="M164.142 260.69L172.342 263L177.74 243.843L169.54 241.532L164.142 260.69Z" fill="#FFDCE6"/>
<path d="M337.499 105.134L345.699 107.444L351.097 88.287L342.897 85.9766L337.499 105.134Z" fill="#FFDCE6"/>
<path d="M163.14 19.8067L171.34 22.1172L176.738 2.95987L168.538 0.64941L163.14 19.8067Z" fill="#FFDCE6"/>
<path d="M104.14 59.8062L112.34 62.1167L117.738 42.9594L109.538 40.6489L104.14 59.8062Z" fill="#FFDCE6"/>
<path d="M259.615 250.965L264.022 258.256L281.056 247.96L276.649 240.669L259.615 250.965Z" fill="#FFDCE6"/>
<path d="M55.2012 193.133L74.2769 198.812L76.7075 190.647L57.6318 184.968L55.2012 193.133Z" fill="#FFDCE6"/>
<path d="M60.2012 253.133L79.2769 258.812L81.7075 250.647L62.6318 244.968L60.2012 253.133Z" fill="#FFDCE6"/>
<path d="M191.987 53.7272L211.063 59.4058L213.494 51.2408L194.418 45.5623L191.987 53.7272Z" fill="#FFDCE6"/>
<path d="M10.6283 217.066L10.6841 236.97L19.2035 236.946L19.1476 217.042L10.6283 217.066Z" fill="#FFDCE6"/>
<path d="M-8.77985e-06 21.691L0.0558167 41.5947L8.57521 41.5708L8.51938 21.6671L-8.77985e-06 21.691Z" fill="#FFDCE6"/>
<path d="M269.492 18.4454L269.548 38.3491L278.068 38.3252L278.012 18.4215L269.492 18.4454Z" fill="#FFDCE6"/>
<path d="M1.30456 118.329L5.20218 125.904L22.9006 116.798L19.0029 109.223L1.30456 118.329Z" fill="#FFDCE6"/>
<path d="M313.66 59.0969L317.557 66.6724L335.256 57.5664L331.358 49.991L313.66 59.0969Z" fill="#FFDCE6"/>
<path d="M124.234 211.758L128.642 219.048L145.674 208.75L141.266 201.46L124.234 211.758Z" fill="#FFDCE6"/>
</g>
</svg>
