<svg width="335" height="220" viewBox="0 0 335 220" fill="none" xmlns="http://www.w3.org/2000/svg">
<mask id="mask0_3198:49227" style="mask-type:alpha" maskUnits="userSpaceOnUse" x="0" y="0" width="335" height="220">
<rect width="335" height="220" fill="#C4C4C4"/>
</mask>
<g mask="url(#mask0_3198:49227)">
<path d="M154.774 132.361L157.082 121.854L131.004 115.43L129.357 123.021C137.663 124.984 146.165 128.611 154.774 132.361Z" fill="#FFCDDC"/>
<path d="M151.915 179.255C139.498 192.28 142.583 265.116 140.825 338.761C140.73 342.642 143.852 345.834 147.738 345.834H181.656C185.476 345.834 188.573 342.737 188.573 338.917V191.212V338.917C188.573 342.737 191.67 345.834 195.49 345.834H229.4C233.286 345.834 236.408 342.642 236.313 338.757C234.473 264.528 237.274 189.589 225.227 179.259" fill="#F5F5F9"/>
<path d="M188.569 338.49V192.312" stroke="#CBCBCB" stroke-width="1.18999" stroke-miterlimit="10" stroke-linecap="round" stroke-linejoin="round"/>
<path d="M249.498 115.96C247.498 99.1688 229.233 85.3228 204.917 80.9526C203.635 80.7225 202.691 79.6259 202.691 78.3238V78.2869C202.691 77.1697 201.972 76.188 200.916 75.8183C192.936 73.0253 184.963 72.9801 176.999 75.6746C175.824 76.073 175.048 77.1204 174.798 78.3362C174.51 79.7368 173.389 80.7965 171.984 81.0594C147.976 85.5446 129.998 99.2961 128.002 115.939C127.793 117.681 128.885 119.315 130.586 119.763L147.89 124.29C149.517 124.717 150.609 126.241 150.482 127.92L146.535 180.832C146.383 182.853 147.985 184.574 150.01 184.574H227.401C229.463 184.574 231.073 182.795 230.867 180.745L225.598 128.031C225.425 126.306 226.551 124.717 228.235 124.302L246.862 119.73C248.492 119.332 249.696 117.631 249.498 115.96Z" fill="#FAD26E"/>
<path d="M202.678 84.8879L197.536 91.8252C196.71 92.9383 195.1 93.078 194.098 92.121L190.397 88.5927C189.477 87.7138 188.027 87.7138 187.103 88.5927L183.402 92.121C182.4 93.078 180.786 92.9383 179.964 91.8252L174.822 84.8879" stroke="#FABE41" stroke-width="1.18999" stroke-miterlimit="10" stroke-linecap="round" stroke-linejoin="round"/>
<path d="M188.725 94.1134C189.317 94.1134 189.797 93.6335 189.797 93.0414C189.797 92.4493 189.317 91.9694 188.725 91.9694C188.133 91.9694 187.653 92.4493 187.653 93.0414C187.653 93.6335 188.133 94.1134 188.725 94.1134Z" fill="white"/>
<path d="M188.725 97.3912C189.317 97.3912 189.797 96.9113 189.797 96.3192C189.797 95.7272 189.317 95.2472 188.725 95.2472C188.133 95.2472 187.653 95.7272 187.653 96.3192C187.653 96.9113 188.133 97.3912 188.725 97.3912Z" fill="white"/>
<path d="M246.874 119.731L228.247 124.302C226.563 124.717 225.437 126.307 225.61 128.032L227.639 151.497L227.622 151.448C227.803 152.742 226.793 153.95 225.425 153.913L209.722 153.506C204.374 153.149 199.224 151.325 194.837 148.212C190.22 144.934 184.667 143.233 179.007 143.077C175.569 142.983 172.686 145.673 172.6 149.111L172.538 151.538C172.538 151.538 169.979 151.727 167.934 152.208C165.888 152.693 163.835 154.192 163.777 156.467C163.724 158.632 165.35 160.427 167.466 160.653C165.478 160.928 163.917 162.596 163.868 164.67L163.863 164.772C163.814 167.081 165.638 168.991 167.942 169.048L169.478 169.085C167.618 169.447 166.192 171.053 166.143 173.024C166.098 174.725 167.096 176.212 168.55 176.877C171.996 178.963 177.221 180.286 182.425 180.417L230.9 180.988C243.924 181.14 254.012 169.644 252.168 156.751L246.874 119.731Z" fill="#FFE4EE"/>
<path d="M228.246 124.302C226.562 124.717 225.437 126.307 225.609 128.032L225.864 130.993C229.741 128.751 237.093 125.136 247.304 122.766L246.869 119.731L228.246 124.302Z" fill="#FFCDDC"/>
<path d="M173.922 152.109L183.501 152.352C183.501 152.352 179.911 152.019 179.968 149.739L179.903 152.261" stroke="#FFBED2" stroke-width="1.1452" stroke-miterlimit="10" stroke-linecap="round" stroke-linejoin="round"/>
<path d="M171.039 169.052L172.682 169.093" stroke="#FFBED2" stroke-width="1.1452" stroke-miterlimit="10" stroke-linecap="round" stroke-linejoin="round"/>
<path d="M169.166 160.681L170.808 160.727" stroke="#FFBED2" stroke-width="1.1452" stroke-miterlimit="10" stroke-linecap="round" stroke-linejoin="round"/>
<path opacity="0.5" d="M229.384 154.594L232.514 156.015" stroke="#FFBED2" stroke-width="1.1452" stroke-miterlimit="10" stroke-linecap="round" stroke-linejoin="round"/>
<path opacity="0.5" d="M229.384 154.594L232.514 156.015" stroke="#FFBED2" stroke-width="1.1452" stroke-miterlimit="10" stroke-linecap="round" stroke-linejoin="round"/>
<path d="M229.384 154.594L232.514 156.015" stroke="#FFBED2" stroke-width="1.1452" stroke-miterlimit="10" stroke-linecap="round" stroke-linejoin="round"/>
<path d="M159.264 19.3949C157.609 22.5329 157.876 32.1565 158.459 35.5861C159.051 39.0569 159.355 41.6158 160.554 42.4578L174.835 14.6549C174.839 14.6549 160.92 16.2609 159.264 19.3949Z" fill="#5A5A6B"/>
<path d="M198.605 50.164H178.355L176.532 75.0794C175.702 82.2221 181.284 83.3064 188.48 83.3064C195.672 83.3064 201.258 82.2262 200.428 75.0794L198.605 50.164Z" fill="#FFDAE4"/>
<path d="M195.253 55.0926C191.425 58.1321 184.985 75.4939 183.855 83.0721C179.662 82.5586 176.704 81.0307 176.47 76.948C176.483 76.1799 176.499 75.5515 176.524 75.2146C176.528 75.1695 176.532 75.1243 176.536 75.0791L177.431 62.835L195.253 55.0926Z" fill="#FFCDDC"/>
<path d="M160.274 35.964C160.274 22.7341 171.315 12.0878 184.689 12.7327C196.547 13.3036 206.257 23.0709 206.77 34.9331C207.004 40.3835 205.357 45.4274 202.428 49.4937C199.833 53.0959 197.508 55.0592 195.126 58.8092C191.318 64.8019 184.229 68.5068 176.384 67.3855C168.801 66.3011 162.533 60.5261 160.784 53.0671C160.279 50.919 160.164 48.8283 160.365 46.8321C160.743 43.0616 160.533 41.0777 160.311 37.2948C160.287 36.8553 160.274 36.4117 160.274 35.964Z" fill="#FFE4EE"/>
<path d="M182.442 46.5865C183.766 46.5865 184.84 45.0749 184.84 43.2102C184.84 41.3455 183.766 39.8339 182.442 39.8339C181.117 39.8339 180.043 41.3455 180.043 43.2102C180.043 45.0749 181.117 46.5865 182.442 46.5865Z" fill="white"/>
<path d="M181.674 45.7195C182.572 45.7195 183.3 44.6253 183.3 43.2756C183.3 41.9259 182.572 40.8317 181.674 40.8317C180.776 40.8317 180.047 41.9259 180.047 43.2756C180.047 44.6253 180.776 45.7195 181.674 45.7195Z" fill="#2D2D37"/>
<path d="M169.208 46.5865C170.533 46.5865 171.607 45.0749 171.607 43.2102C171.607 41.3455 170.533 39.8339 169.208 39.8339C167.883 39.8339 166.809 41.3455 166.809 43.2102C166.809 45.0749 167.883 46.5865 169.208 46.5865Z" fill="white"/>
<path d="M168.44 45.7195C169.338 45.7195 170.067 44.6253 170.067 43.2756C170.067 41.9259 169.338 40.8317 168.44 40.8317C167.542 40.8317 166.813 41.9259 166.813 43.2756C166.813 44.6253 167.542 45.7195 168.44 45.7195Z" fill="#2D2D37"/>
<path d="M175.069 48.8455C173.57 48.8824 172.322 47.6954 172.285 46.1962C172.248 44.697 174.351 43.7605 174.934 43.4114V40.1337" stroke="#FFBED2" stroke-width="1.2401" stroke-miterlimit="10" stroke-linecap="round" stroke-linejoin="round"/>
<path d="M188.085 34.7774C193.331 34.0504 190.55 45.128 194.592 44.327C200.091 40.6797 198.416 47.4445 198.416 47.4445L198.884 53.8849C199.598 53.4824 199.828 53.1456 204.19 46.8531C210.389 37.9195 212.828 22.3936 207.025 14.6512L188.085 34.7774Z" fill="#5A5A6B"/>
<path d="M194.558 42.2404C194.558 39.8047 196.39 37.8455 198.604 37.9646C200.571 38.0714 202.182 39.8704 202.264 42.0515C202.305 43.0537 202.03 43.986 201.545 44.7336C201.114 45.399 200.728 46.0931 200.333 46.7832C199.701 47.8881 198.526 48.5699 197.228 48.3604C195.971 48.1591 194.932 47.0953 194.64 45.7235C194.558 45.3292 194.538 44.9431 194.571 44.5734C194.632 43.8793 194.599 43.181 194.562 42.4827C194.558 42.4006 194.558 42.3226 194.558 42.2404Z" fill="#FFE4EE"/>
<path d="M199.233 42.1423L198.633 42.7419C198.021 43.3539 198.021 44.3397 198.633 44.9517" stroke="#FFBED2" stroke-width="1.2401" stroke-miterlimit="10" stroke-linecap="round" stroke-linejoin="round"/>
<path d="M209.591 32.9864C210.138 32.588 210.524 32.0335 210.737 31.3928C212.187 27.0472 211.173 18.9064 208.256 15.0249C203.073 8.12038 193.08 2.3988 187.855 6.00919C182.815 1.18302 166.221 5.43416 160.245 14.6716C156.212 20.9025 156.056 28.9859 157.674 32.1773C158.344 33.4999 159.399 34.5883 160.722 35.2496C162.973 36.375 165.503 36.9665 168.308 36.8268C169.043 36.7899 169.52 36.0588 169.24 35.3769C167.433 30.9779 170.078 27.0061 171.853 24.9976C171.902 28.0042 172.662 31.5899 175.496 33.9065C179.665 37.0774 185.206 37.9317 188.188 37.9358C192.427 37.9358 204.786 36.4983 209.591 32.9864Z" fill="#2D2D37"/>
<path d="M171.612 51.8805C171.078 51.9627 170.708 52.4679 170.757 53.006C171.057 56.3001 172.877 58.8343 175.074 58.8343C177.268 58.8343 179.083 56.3083 179.387 53.0224C179.436 52.4761 179.054 51.9709 178.512 51.8928C176.146 51.5602 173.842 51.5355 171.612 51.8805Z" fill="#FF7BA4"/>
<path d="M192.554 177.845V188.574C192.554 191.112 190.771 193.17 188.57 193.17" stroke="#CBCBCB" stroke-width="1.18999" stroke-miterlimit="10" stroke-linecap="round" stroke-linejoin="round"/>
<path d="M211.554 174.781L212.051 183.994C212.458 191.548 218.701 197.458 226.263 197.458" stroke="#CBCBCB" stroke-width="1.18999" stroke-miterlimit="10" stroke-linecap="round" stroke-linejoin="round"/>
<path d="M165.581 174.781L165.084 183.994C164.677 191.548 158.434 197.458 150.872 197.458" stroke="#CBCBCB" stroke-width="1.18999" stroke-miterlimit="10" stroke-linecap="round" stroke-linejoin="round"/>
<path d="M293.439 329.399H282.805C281.186 329.399 279.872 328.085 279.872 326.466V193.687H293.435V329.399H293.439Z" fill="#998574"/>
<path d="M297.136 329.399H293.287V193.687H300.068V326.466C300.068 328.085 298.754 329.399 297.136 329.399Z" fill="#645045"/>
<path d="M258.342 193.687H31.1668C29.417 193.687 28 192.27 28 190.521V181.842C28 180.092 29.417 178.675 31.1668 178.675H258.342C260.092 178.675 261.509 180.092 261.509 181.842V190.521C261.509 192.27 260.092 193.687 258.342 193.687Z" fill="#C7B197"/>
<path d="M306.18 193.687H232.769C231.762 193.687 230.949 192.874 230.949 191.868V180.494C230.949 179.488 231.762 178.675 232.769 178.675H306.18C307.186 178.675 308 179.488 308 180.494V191.868C308 192.874 307.182 193.687 306.18 193.687Z" fill="#998574"/>
<path d="M51.4451 329.399H40.7659C39.1435 329.399 37.8291 328.085 37.8291 326.462V193.687H51.4451V329.399Z" fill="#998574"/>
<path d="M236.844 193.687H51.4448V232.97H236.844V193.687Z" fill="#736356"/>
<path d="M236.873 329.399H226.227C224.604 329.399 223.294 328.085 223.294 326.466V193.687H236.873V329.399Z" fill="#998574"/>
<path d="M240.574 329.399H236.717V193.687H243.506V326.466C243.506 328.085 242.192 329.399 240.574 329.399Z" fill="#645045"/>
<path d="M293.168 193.687H243.506V232.97H293.168V193.687Z" fill="#534741"/>
<path d="M160.619 173.216H153.846C153.846 172.768 154.208 172.407 154.655 172.407H159.81C160.258 172.407 160.619 172.768 160.619 173.216Z" fill="#989898"/>
<path d="M168.242 173.216H161.469C161.469 172.768 161.831 172.407 162.278 172.407H167.433C167.881 172.407 168.242 172.768 168.242 173.216Z" fill="#989898"/>
<path d="M175.865 173.216H169.092C169.092 172.768 169.454 172.407 169.901 172.407H175.056C175.504 172.407 175.865 172.768 175.865 173.216Z" fill="#989898"/>
<path d="M183.493 173.216H176.72C176.72 172.768 177.082 172.407 177.529 172.407H182.684C183.128 172.407 183.493 172.768 183.493 173.216Z" fill="#989898"/>
<path d="M163.781 173.216H157.008C157.008 172.768 157.37 172.407 157.817 172.407H162.972C163.42 172.407 163.781 172.768 163.781 173.216Z" fill="#787885"/>
<path d="M171.405 173.216H164.632C164.632 172.768 164.994 172.407 165.441 172.407H170.596C171.044 172.407 171.405 172.768 171.405 173.216Z" fill="#787885"/>
<path d="M179.028 173.216H172.255C172.255 172.768 172.617 172.407 173.065 172.407H178.219C178.667 172.407 179.028 172.768 179.028 173.216Z" fill="#787885"/>
<path d="M186.655 173.216H179.882C179.882 172.768 180.244 172.407 180.691 172.407H185.846C186.29 172.407 186.655 172.768 186.655 173.216Z" fill="#787885"/>
<path d="M157.341 173.216H65.1595C63.1059 173.216 61.389 171.66 61.1836 169.618L55.2813 110.731C55.0472 108.377 56.8914 106.336 59.2572 106.336H151.443C153.497 106.336 155.214 107.893 155.419 109.934L161.321 168.822C161.556 171.175 159.707 173.216 157.341 173.216Z" fill="#CBCBCB"/>
<path d="M198.09 178.708H103.366C101.85 178.708 100.618 177.48 100.618 175.96C100.618 174.444 101.846 173.212 103.366 173.212H198.09C199.606 173.212 200.838 174.44 200.838 175.96C200.834 177.48 199.606 178.708 198.09 178.708Z" fill="#B4B4BE"/>
<path d="M156.34 173.216H64.1537C62.1 173.216 60.3831 171.66 60.1777 169.618L54.2754 110.731C54.0413 108.377 55.8855 106.336 58.2514 106.336H150.437C152.491 106.336 154.208 107.893 154.413 109.934L160.316 168.822C160.55 171.175 158.701 173.216 156.34 173.216Z" fill="#E5E5EB"/>
<path d="M154.7 175.96C154.7 174.444 155.928 173.212 157.448 173.212H63.282C61.7664 173.212 60.5342 174.44 60.5342 175.96C60.5342 177.476 61.7623 178.708 63.282 178.708H157.448C155.932 178.708 154.7 177.48 154.7 175.96Z" fill="#CCCCD2"/>
<path d="M105.579 144.081C107.716 143.935 109.316 141.893 109.154 139.519C108.992 137.144 107.129 135.338 104.992 135.484C102.856 135.63 101.255 137.673 101.417 140.047C101.58 142.421 103.443 144.227 105.579 144.081Z" fill="white"/>
<path d="M166.505 175.098H159.189V176.831H166.505V175.098Z" fill="#989898"/>
<path d="M163.782 175.098H159.189V176.831H163.782V175.098Z" fill="#787885"/>
<path d="M175.336 175.098H168.021V176.831H175.336V175.098Z" fill="#989898"/>
<path d="M172.613 175.098H168.021V176.831H172.613V175.098Z" fill="#787885"/>
<path d="M289.312 178.671C287.04 178.671 287.04 164.464 289.312 164.464H236.84C234.568 164.464 234.568 178.671 236.84 178.671H289.312Z" fill="#FFF9EF"/>
<path d="M253.721 176.798H285.028V176.942H253.721V176.798ZM247.852 166.949H278.255V167.093H247.852V166.949ZM237.099 167.709H245.149V167.852H237.099V167.709ZM237.099 169.98H269.921V170.124H237.099V169.98ZM237.099 172.256H275.129V172.399H237.099V172.256Z" fill="#FFF9EF"/>
<path d="M288.401 165.433C288.384 165.479 288.367 165.529 288.347 165.579L288.401 165.433Z" fill="#B4B4BE"/>
<path d="M237.099 165.577H288.346C288.363 165.528 288.379 165.478 288.4 165.433H237.099V165.577Z" fill="#B4B4BE"/>
<path d="M288.153 166.193C288.141 166.239 288.128 166.288 288.12 166.338L288.153 166.193Z" fill="#B4B4BE"/>
<path d="M237.099 166.332H288.116C288.129 166.287 288.137 166.234 288.149 166.189H237.099V166.332Z" fill="#B4B4BE"/>
<path d="M278.254 166.949H247.852V167.093H278.254V166.949Z" fill="#B4B4BE"/>
<path d="M245.149 167.709H237.099V167.852H245.149V167.709Z" fill="#B4B4BE"/>
<path d="M287.858 167.709C287.849 167.754 287.845 167.804 287.837 167.854L287.858 167.709Z" fill="#B4B4BE"/>
<path d="M247.046 167.848H287.837C287.845 167.799 287.849 167.754 287.857 167.704H247.046V167.848Z" fill="#B4B4BE"/>
<path d="M287.763 168.465C287.759 168.51 287.755 168.56 287.75 168.61L287.763 168.465Z" fill="#B4B4BE"/>
<path d="M237.099 168.608H287.751C287.755 168.563 287.759 168.514 287.763 168.465H237.099V168.608Z" fill="#B4B4BE"/>
<path d="M287.697 169.224C287.693 169.27 287.689 169.319 287.685 169.369L287.697 169.224Z" fill="#B4B4BE"/>
<path d="M237.099 169.364H287.685C287.689 169.315 287.693 169.269 287.697 169.22H237.099V169.364Z" fill="#B4B4BE"/>
<path d="M269.921 169.98H237.099V170.124H269.921V169.98Z" fill="#B4B4BE"/>
<path d="M287.619 170.74C287.619 170.789 287.615 170.835 287.615 170.885L287.619 170.74Z" fill="#B4B4BE"/>
<path d="M249.65 170.88H287.614C287.614 170.83 287.619 170.785 287.619 170.736H249.65V170.88Z" fill="#B4B4BE"/>
<path d="M275.129 172.255H237.099V172.399H275.129V172.255Z" fill="#B4B4BE"/>
<path d="M287.64 173.011C287.644 173.061 287.644 173.107 287.648 173.157L287.64 173.011Z" fill="#B4B4BE"/>
<path d="M237.099 173.155H287.648C287.644 173.106 287.644 173.06 287.64 173.011H237.099V173.155Z" fill="#B4B4BE"/>
<path d="M287.685 173.767C287.689 173.817 287.693 173.863 287.697 173.913L287.685 173.767Z" fill="#B4B4BE"/>
<path d="M250.883 173.911H287.697C287.693 173.866 287.689 173.817 287.685 173.767H250.883V173.911Z" fill="#B4B4BE"/>
<path d="M287.956 176.043C287.964 176.092 287.972 176.138 287.985 176.188L287.956 176.043Z" fill="#B4B4BE"/>
<path d="M237.099 176.186H287.981C287.973 176.137 287.964 176.092 287.952 176.043H237.099V176.186Z" fill="#B4B4BE"/>
<path d="M285.028 176.798H253.721V176.942H285.028V176.798Z" fill="#B4B4BE"/>
<path d="M288.347 177.558C288.363 177.604 288.38 177.658 288.401 177.704L288.347 177.558Z" fill="#B4B4BE"/>
<path d="M237.099 177.697H288.4C288.383 177.652 288.363 177.603 288.346 177.554H237.099V177.697Z" fill="#B4B4BE"/>
<path d="M257.442 164.464H234.047C231.775 164.464 231.775 178.671 234.047 178.671H257.442C255.167 178.671 255.167 164.464 257.442 164.464Z" fill="#787885"/>
<path d="M255.553 165.679C255.673 165.343 255.997 165.125 256.354 165.125H289.312C289.534 165.125 289.534 164.464 289.312 164.464H256.556H209.769H204.084C201.813 164.464 201.813 178.671 204.084 178.671H209.769H256.56H289.312C289.534 178.671 289.534 178.01 289.312 178.01H256.354C255.997 178.01 255.668 177.792 255.553 177.455C254.621 174.773 254.621 168.362 255.553 165.679Z" fill="#5A5A6B"/>
<path d="M208.68 164.464H207.308C205.037 164.464 205.037 178.671 207.308 178.671H208.68C206.404 178.671 206.404 164.464 208.68 164.464Z" fill="#787885"/>
<path d="M242.422 164.464H241.05C238.779 164.464 238.779 178.671 241.05 178.671H242.422C240.151 178.671 240.151 164.464 242.422 164.464Z" fill="#787885"/>
<path d="M211.698 164.46C213.538 164.46 213.538 151.628 211.698 151.628H254.214C256.054 151.628 256.054 164.46 254.214 164.46H211.698Z" fill="#FFF9EF"/>
<path d="M240.536 162.899H215.173V162.771H240.536V162.899ZM245.293 154.002H220.657V153.875H245.293V154.002ZM254.004 154.684H247.482V154.556H254.004V154.684ZM254.004 156.737H227.413V156.61H254.004V156.737ZM254.004 158.791H223.191V158.664H254.004V158.791Z" fill="#FFF9EF"/>
<path d="M212.438 152.503C212.455 152.544 212.467 152.59 212.48 152.632L212.438 152.503Z" fill="#B4B4BE"/>
<path d="M254.004 152.634H212.482C212.466 152.593 212.454 152.548 212.441 152.507H254.004V152.634Z" fill="#B4B4BE"/>
<path d="M212.639 153.189C212.647 153.23 212.656 153.276 212.668 153.318L212.639 153.189Z" fill="#B4B4BE"/>
<path d="M254.005 153.316H212.668C212.66 153.275 212.651 153.23 212.639 153.189H254V153.316H254.005Z" fill="#B4B4BE"/>
<path d="M245.297 153.87H220.661V153.998H245.297V153.87Z" fill="#B4B4BE"/>
<path d="M254.004 154.557H247.482V154.684H254.004V154.557Z" fill="#B4B4BE"/>
<path d="M212.881 154.557C212.886 154.598 212.894 154.644 212.898 154.686L212.881 154.557Z" fill="#B4B4BE"/>
<path d="M245.945 154.684H212.893C212.889 154.643 212.881 154.598 212.877 154.557H245.941V154.684H245.945Z" fill="#B4B4BE"/>
<path d="M212.955 155.243C212.959 155.284 212.963 155.33 212.968 155.372L212.955 155.243Z" fill="#B4B4BE"/>
<path d="M254.004 155.37H212.967C212.963 155.329 212.959 155.284 212.955 155.243H254.004V155.37Z" fill="#B4B4BE"/>
<path d="M213.009 155.924C213.013 155.966 213.013 156.012 213.017 156.053L213.009 155.924Z" fill="#B4B4BE"/>
<path d="M254.004 156.056H213.02C213.016 156.014 213.016 155.969 213.012 155.928H254.008V156.056H254.004Z" fill="#B4B4BE"/>
<path d="M254.004 156.61H227.413V156.738H254.004V156.61Z" fill="#B4B4BE"/>
<path d="M213.07 157.296C213.07 157.338 213.074 157.384 213.074 157.425L213.07 157.296Z" fill="#B4B4BE"/>
<path d="M243.834 157.424H213.074C213.074 157.383 213.07 157.337 213.07 157.296H243.834V157.424Z" fill="#B4B4BE"/>
<path d="M254.004 158.664H223.191V158.791H254.004V158.664Z" fill="#B4B4BE"/>
<path d="M213.053 159.346C213.053 159.387 213.049 159.433 213.049 159.475L213.053 159.346Z" fill="#B4B4BE"/>
<path d="M254.004 159.477H213.049C213.049 159.436 213.053 159.391 213.053 159.35H254.004V159.477Z" fill="#B4B4BE"/>
<path d="M213.017 160.032C213.013 160.073 213.013 160.119 213.009 160.16L213.017 160.032Z" fill="#B4B4BE"/>
<path d="M242.837 160.159H213.009C213.013 160.118 213.013 160.073 213.017 160.032H242.837V160.159Z" fill="#B4B4BE"/>
<path d="M212.799 162.086C212.791 162.131 212.782 162.173 212.778 162.215L212.799 162.086Z" fill="#B4B4BE"/>
<path d="M254.004 162.213H212.778C212.787 162.172 212.795 162.127 212.799 162.086H254.004V162.213Z" fill="#B4B4BE"/>
<path d="M240.536 162.767H215.173V162.894H240.536V162.767Z" fill="#B4B4BE"/>
<path d="M212.483 163.453C212.47 163.495 212.454 163.541 212.441 163.582L212.483 163.453Z" fill="#B4B4BE"/>
<path d="M254.005 163.581H212.438C212.454 163.54 212.467 163.494 212.479 163.453H254.001V163.581H254.005Z" fill="#B4B4BE"/>
<path d="M237.521 151.628H256.477C258.317 151.628 258.317 164.46 256.477 164.46H237.521C239.366 164.46 239.366 151.628 237.521 151.628Z" fill="#B3B3B3"/>
<path d="M239.053 152.725C238.959 152.421 238.692 152.223 238.404 152.223H211.702C211.521 152.223 211.521 151.624 211.702 151.624H238.24H276.151H280.755C282.595 151.624 282.595 164.455 280.755 164.455H276.151H238.24H211.702C211.521 164.455 211.521 163.856 211.702 163.856H238.404C238.692 163.856 238.959 163.658 239.053 163.354C239.809 160.935 239.809 155.148 239.053 152.725Z" fill="#787885"/>
<path d="M277.03 151.628H278.143C279.983 151.628 279.983 164.46 278.143 164.46H277.03C278.874 164.46 278.874 151.628 277.03 151.628Z" fill="#B3B3B3"/>
<path d="M249.692 151.628H250.805C252.645 151.628 252.645 164.46 250.805 164.46H249.692C251.532 164.46 251.532 151.628 249.692 151.628Z" fill="#B3B3B3"/>
</g>
</svg>
