<svg width="294" height="188" viewBox="0 0 294 188" fill="none" xmlns="http://www.w3.org/2000/svg">
<g opacity="0.4">
<path d="M276.982 38.9716L293.077 36.919L293.937 43.9555L277.842 46.0081L276.982 38.9716Z" fill="#D2DCFF"/>
<path d="M203.689 50.5664L217.403 41.7198L221.11 47.7153L207.396 56.562L203.689 50.5664Z" fill="#D2DCFF"/>
<path d="M28.9985 150.185L42.7124 141.338L46.4197 147.333L32.7059 156.18L28.9985 150.185Z" fill="#D2DCFF"/>
<path d="M132.698 2.05451L139.38 0.131409L143.779 16.077L137.097 18.0001L132.698 2.05451Z" fill="#D2DCFF"/>
<path d="M273.97 101.53L280.652 99.607L285.051 115.553L278.368 117.476L273.97 101.53Z" fill="#D2DCFF"/>
<path d="M131.884 172.055L138.566 170.131L142.965 186.077L136.282 188L131.884 172.055Z" fill="#D2DCFF"/>
<path d="M83.8026 139.259L90.4849 137.335L94.8837 153.281L88.2014 155.204L83.8026 139.259Z" fill="#D2DCFF"/>
<path d="M210.502 10.1492L214.093 4.08063L227.974 12.6506L224.383 18.7192L210.502 10.1492Z" fill="#D2DCFF"/>
<path d="M43.9212 58.2841L59.4663 53.5576L61.447 60.3537L45.9019 65.0802L43.9212 58.2841Z" fill="#D2DCFF"/>
<path d="M47.9954 8.34321L63.5405 3.6167L65.5212 10.4128L49.9761 15.1393L47.9954 8.34321Z" fill="#D2DCFF"/>
<path d="M155.39 144.318L170.935 139.592L172.916 146.388L157.371 151.114L155.39 144.318Z" fill="#D2DCFF"/>
<path d="M7.59752 38.3656L7.64307 21.7988L14.5857 21.8187L14.5401 38.3855L7.59752 38.3656Z" fill="#D2DCFF"/>
<path d="M218.551 173.686L218.596 157.119L225.539 157.139L225.493 173.705L218.551 173.686Z" fill="#D2DCFF"/>
<path d="M3.78884e-05 90.5476L3.17627 84.2422L17.599 91.8215L14.4227 98.1269L3.78884e-05 90.5476Z" fill="#D2DCFF"/>
<path d="M254.543 139.85L257.719 133.544L272.142 141.124L268.966 147.429L254.543 139.85Z" fill="#D2DCFF"/>
<path d="M100.178 42.7813L103.77 36.7134L117.649 45.2851L114.057 51.3529L100.178 42.7813Z" fill="#D2DCFF"/>
</g>
</svg>
