<svg width="382" height="387" viewBox="0 0 382 387" fill="none" xmlns="http://www.w3.org/2000/svg">
<mask id="mask0" mask-type="alpha" maskUnits="userSpaceOnUse" x="0" y="0" width="382" height="387">
<rect width="382" height="387" fill="#C4C4C4"/>
</mask>
<g mask="url(#mask0)">
<path opacity="0.1" d="M99.5881 236.385L60.603 252.292C52.2785 234.572 48.5696 216.027 52.6906 198.224L95.467 200.697L99.5881 236.385Z" fill="url(#paint0_radial)"/>
<path d="M168.162 263.254L146.898 256.742L142.447 285.919C142.282 286.991 140.799 287.238 140.304 286.249L129.26 262.1C127.611 258.144 124.397 255.012 120.276 253.446C115.33 251.632 111.539 247.511 110.138 242.401L109.643 240.588C109.231 238.94 107.583 237.786 105.935 238.033C103.956 238.363 102.803 240.258 103.297 242.154L105.522 250.396C105.687 251.138 105.193 251.797 104.451 251.797C102.308 251.797 101.237 254.27 102.555 255.836L105.852 259.71L104.698 260.204L106.347 264.243L100 271.166C101.814 272.237 104.204 272.979 106.841 273.391C109.067 273.721 110.88 275.287 111.786 277.348L118.133 292.76L121.677 301.25C125.056 309.409 133.051 314.767 141.952 314.767C152.914 314.767 162.146 306.689 163.629 295.892L164.041 292.76L168.162 263.254Z" fill="#FFE4EE"/>
<path d="M145.084 269.188C149.7 270.342 164.948 274.381 164.948 279.244C164.948 279.985 165.195 280.315 165.69 280.397L168.08 263.254L146.815 256.743L145.084 269.188Z" fill="#FFCDDC"/>
<path d="M166.679 322.35C154.645 334.96 157.695 432.711 155.964 503.84C155.881 507.632 158.931 510.681 162.64 510.681H195.443C199.152 510.681 202.12 507.714 202.12 504.005V333.889V504.005C202.12 507.714 205.087 510.681 208.796 510.681H241.599C245.39 510.681 248.358 507.632 248.275 503.84C246.462 432.134 249.182 332.323 237.56 322.35" fill="#F5F5F7"/>
<path d="M202.119 503.594V334.961" stroke="#CCCCCC" stroke-width="1.326" stroke-miterlimit="10" stroke-linecap="round" stroke-linejoin="round"/>
<path d="M205.911 336.856V347.241C205.911 349.714 204.18 351.692 202.037 351.692" stroke="#CCCCCC" stroke-width="1.326" stroke-miterlimit="10" stroke-linecap="round" stroke-linejoin="round"/>
<path d="M224.291 333.889L224.785 342.791C225.197 350.126 231.214 355.813 238.549 355.813" stroke="#CCCCCC" stroke-width="1.326" stroke-miterlimit="10" stroke-linecap="round" stroke-linejoin="round"/>
<path d="M179.866 333.889L179.371 342.791C178.959 350.126 172.943 355.813 165.607 355.813" stroke="#CCCCCC" stroke-width="1.326" stroke-miterlimit="10" stroke-linecap="round" stroke-linejoin="round"/>
<path d="M104.093 235.644L100.981 236L102.171 246.4L105.283 246.044L104.093 235.644Z" fill="#B3B3B3"/>
<path d="M108.242 275.947L106.017 276.194C105.193 276.276 104.451 275.699 104.286 274.875L101.154 247.182C101.072 246.358 101.649 245.616 102.473 245.451L104.698 245.204C105.523 245.121 106.264 245.698 106.429 246.522L109.561 274.216C109.726 275.04 109.067 275.864 108.242 275.947Z" fill="#4D4D4D"/>
<path d="M102.308 237.291C105.44 236.961 107.006 228.06 105.77 217.51C104.533 206.96 101.072 198.718 97.9398 199.048L95.3023 199.377C92.1703 199.707 90.6043 208.608 91.8406 219.158C93.0769 229.708 96.5386 237.95 99.6706 237.621L102.308 237.291Z" fill="#B3B3B3"/>
<path d="M102.308 237.291C105.44 236.961 107.006 228.06 105.77 217.51C104.533 206.96 101.072 198.718 97.9398 199.048L95.3023 199.377C92.1703 199.707 90.6043 208.608 91.8406 219.158C93.0769 229.708 96.5386 237.95 99.6706 237.621L102.308 237.291Z" fill="#B3B3B3"/>
<path d="M102.061 236.384C99.0937 236.714 95.7144 228.884 94.5605 218.829C93.4066 208.773 94.8902 200.366 97.8573 200.037L100.412 199.707C103.38 199.377 106.759 207.207 107.913 217.263C109.067 227.318 107.583 235.725 104.616 236.055L102.061 236.384Z" fill="#E5FFFF"/>
<path d="M102.06 236.384C99.0933 236.714 95.714 228.884 94.5601 218.829C93.4062 208.773 94.8898 200.366 97.8569 200.037L100.412 199.707C103.379 199.377 106.758 207.207 107.912 217.263C109.066 227.318 107.583 235.725 104.615 236.055L102.06 236.384Z" fill="#D2F0FF"/>
<path d="M94.231 214.626L100.66 199.791C100.577 199.791 100.495 199.791 100.413 199.791L99.1763 199.955L94.1486 211.494C94.231 212.483 94.231 213.555 94.231 214.626Z" fill="white"/>
<path d="M95.8791 225.917L105.028 204.899C104.286 203.086 103.462 201.685 102.555 200.778L94.6428 218.993C94.8901 221.466 95.3022 223.774 95.8791 225.917Z" fill="white"/>
<path d="M101.319 198.718L95.3023 199.377C98.4343 199.048 101.978 207.29 103.132 217.84C104.369 228.39 102.803 237.209 99.6706 237.621L105.687 236.961C108.819 236.632 110.385 227.73 109.149 217.18C107.995 206.63 104.451 198.388 101.319 198.718Z" fill="#CCCCCC"/>
<path d="M95.3023 199.377C92.1703 199.707 90.6043 208.608 91.8406 219.158C93.0769 229.708 96.5386 237.95 99.6706 237.62C102.803 237.291 104.369 228.389 103.132 217.839C101.978 207.29 98.4343 199.048 95.3023 199.377ZM99.5057 236.467C98.187 236.631 94.4781 230.862 93.0769 218.993C91.7582 207.125 94.066 200.696 95.3847 200.531C96.7034 200.366 100.412 206.136 101.814 218.004C103.132 229.873 100.824 236.302 99.5057 236.467Z" fill="#E6E6E6"/>
<path d="M109.726 271.413H101.319C99.5059 271.413 98.0223 269.93 98.0223 268.117C98.0223 266.303 99.5059 264.82 101.319 264.82H109.726C111.539 264.82 113.023 266.303 113.023 268.117C113.023 269.93 111.539 271.413 109.726 271.413Z" fill="#FFE4EE"/>
<path d="M107.665 264.985H99.341C97.5278 264.985 96.0442 263.501 96.0442 261.688C96.0442 259.875 97.5278 258.391 99.341 258.391H107.665C109.479 258.391 110.962 259.875 110.962 261.688C111.045 263.501 109.561 264.985 107.665 264.985Z" fill="#FFE4EE"/>
<path d="M107.501 258.308H99.0936C97.2803 258.308 95.7968 256.825 95.7968 255.011C95.7968 253.198 97.2803 251.715 99.0936 251.715H107.501C109.314 251.715 110.797 253.198 110.797 255.011C110.797 256.825 109.314 258.308 107.501 258.308Z" fill="#FFE4EE"/>
<path d="M109.808 252.622C110.468 253.199 110.797 254.023 110.797 255.012C110.797 256.825 109.314 258.309 107.501 258.309H101.814H107.748C109.561 258.309 111.045 259.792 111.045 261.605C111.045 263.419 109.561 264.902 107.748 264.902H102.308H109.726C111.539 264.902 113.023 266.386 113.023 268.199C113.023 270.012 111.539 271.496 109.726 271.496" stroke="#FFBED2" stroke-width="1.172" stroke-miterlimit="10" stroke-linecap="round" stroke-linejoin="round"/>
<path d="M112.528 258.638C112.528 258.638 113.929 264.078 120.441 264.078" stroke="#FFBED2" stroke-width="1.172" stroke-miterlimit="10" stroke-linecap="round" stroke-linejoin="round"/>
<path d="M162.805 271.001C164.371 271.413 165.442 272.897 165.278 274.545L161.486 325.646C161.321 327.624 162.887 329.273 164.866 329.273H239.621C241.599 329.273 243.165 327.542 243 325.564L237.89 274.628C237.725 272.979 238.797 271.413 240.445 271.001L259.897 266.221C260.721 266.056 261.215 265.314 261.133 264.49C260.226 247.676 242.423 233.665 218.439 229.214C217.12 228.967 216.049 227.895 215.802 226.577C215.554 225.34 214.73 224.434 213.576 224.021C206.076 221.549 198.658 221.549 191.158 224.021C190.004 224.434 189.097 225.423 188.932 226.577C188.685 227.895 187.614 228.967 186.295 229.214C162.558 233.665 144.92 247.429 143.601 263.996C143.518 265.149 144.26 266.138 145.332 266.386L162.805 271.001Z" fill="#5A87FA"/>
<path d="M215.801 232.923L210.856 239.599C210.032 240.67 208.466 240.835 207.559 239.846L204.015 236.467C203.109 235.643 201.707 235.643 200.801 236.467L197.257 239.846C196.268 240.753 194.702 240.67 193.96 239.599L189.015 232.923" stroke="#4664FA" stroke-width="1.3247" stroke-miterlimit="10" stroke-linecap="round" stroke-linejoin="round"/>
<path d="M202.285 241.907C202.876 241.907 203.356 241.427 203.356 240.835C203.356 240.243 202.876 239.764 202.285 239.764C201.693 239.764 201.213 240.243 201.213 240.835C201.213 241.427 201.693 241.907 202.285 241.907Z" fill="#E5E5E5"/>
<path d="M202.285 245.039C202.876 245.039 203.356 244.559 203.356 243.967C203.356 243.375 202.876 242.896 202.285 242.896C201.693 242.896 201.213 243.375 201.213 243.967C201.213 244.559 201.693 245.039 202.285 245.039Z" fill="#E5E5E5"/>
<path d="M211.845 197.235H192.312L190.581 223.28C189.756 230.203 195.196 231.192 202.12 231.192C209.043 231.192 214.4 230.121 213.658 223.28L211.845 197.235Z" fill="#FFDAE4"/>
<path d="M207.395 208.856C203.686 211.823 198.74 223.61 197.669 230.945C193.63 230.45 190.746 228.967 190.581 225.011C190.581 224.269 190.581 223.692 190.663 223.362C190.663 223.28 190.663 223.28 190.663 223.197L191.487 209.433L207.395 208.856Z" fill="#FFCDDC"/>
<path d="M175.086 185.366C175.086 172.591 185.718 162.371 198.575 162.948C210.032 163.525 219.345 172.921 219.84 184.377C220.087 189.652 218.439 194.515 215.637 198.389C213.164 201.85 210.362 204.406 208.054 208.032C204.345 213.801 196.185 216.686 189.674 215.285C183.163 213.801 178.382 208.279 177.146 203.664C176.652 201.603 176.651 198.966 176.569 197.07C176.404 193.608 175.25 190.394 175.086 186.767C175.086 186.273 175.086 185.778 175.086 185.366Z" fill="#FFE4EE"/>
<path d="M212.587 206.713C212.587 206.713 225.857 199.872 223.219 184.13C220.582 168.387 212.422 164.102 208.878 162.948C205.334 161.794 187.449 155.447 179.124 168.635C170.8 181.822 173.19 187.591 175.745 191.136C175.745 191.136 178.465 175.228 185.059 173.333C185.718 173.168 186.377 173.498 186.624 174.157C187.201 175.888 189.262 179.267 195.608 180.503C204.263 182.152 205.004 188.828 208.548 189.734C212.093 190.641 211.845 201.85 212.587 206.713Z" fill="#333333"/>
<path d="M210.527 193.526C210.527 191.218 212.257 189.323 214.4 189.405C216.296 189.487 217.862 191.218 217.944 193.361C217.944 194.35 217.697 195.257 217.285 195.916C216.873 196.576 216.461 197.235 216.131 197.894C215.554 198.966 214.4 199.625 213.164 199.378C211.928 199.213 210.939 198.142 210.691 196.823C210.609 196.411 210.609 196.081 210.609 195.751C210.691 195.092 210.609 194.433 210.609 193.773C210.527 193.691 210.527 193.608 210.527 193.526Z" fill="#FFE4EE"/>
<path d="M227.171 173.25C230.487 169.935 230.043 164.116 226.181 160.254C222.318 156.391 216.499 155.948 213.184 159.263C209.869 162.578 210.312 168.397 214.175 172.259C218.037 176.122 223.856 176.565 227.171 173.25Z" fill="#333333"/>
<path d="M196.268 193.031C197.633 193.031 198.74 191.777 198.74 190.229C198.74 188.681 197.633 187.427 196.268 187.427C194.902 187.427 193.795 188.681 193.795 190.229C193.795 191.777 194.902 193.031 196.268 193.031Z" fill="white"/>
<path d="M195.279 191.877C196.098 191.877 196.762 191.139 196.762 190.229C196.762 189.319 196.098 188.581 195.279 188.581C194.459 188.581 193.795 189.319 193.795 190.229C193.795 191.139 194.459 191.877 195.279 191.877Z" fill="#333333"/>
<path d="M195.691 198.719C194.125 200.12 188.52 201.603 186.46 201.191C186.13 201.109 186.048 201.686 186.295 202.015C187.449 203.829 189.839 204.818 192.229 204.158C194.537 203.499 196.185 201.521 196.268 199.378C196.268 198.966 195.938 198.554 195.691 198.719Z" fill="#FF7BA4"/>
<path d="M215.059 193.444L214.483 194.021C213.906 194.598 213.906 195.587 214.483 196.164" stroke="#FFBED2" stroke-width="1.319" stroke-miterlimit="10" stroke-linecap="round" stroke-linejoin="round"/>
<path d="M190.086 196.081C188.685 196.081 187.449 195.009 187.449 193.526C187.449 192.702 188.108 192.042 188.85 191.548C189.592 191.053 190.004 190.229 190.004 189.322V187.427" stroke="#FFBED2" stroke-width="1.319" stroke-miterlimit="10" stroke-linecap="round" stroke-linejoin="round"/>
<path d="M267.232 299.272L259.32 266.304C259.072 266.469 258.743 266.551 258.413 266.634L240.528 271.002C238.879 271.414 237.808 272.898 237.973 274.628L239.951 294.409C240.033 294.986 239.539 295.398 238.962 295.151L226.022 289.299C221.983 287.239 218.604 284.189 216.296 280.315C213.823 276.277 210.032 273.062 205.664 271.084C203.109 269.93 200.059 271.084 198.823 273.722L197.999 275.535C197.999 275.535 195.938 274.876 194.207 274.546C192.476 274.216 190.416 274.711 189.592 276.442C188.85 278.09 189.509 279.986 191.075 280.892C189.427 280.48 187.696 281.222 186.954 282.788V282.871C186.13 284.601 186.954 286.744 188.685 287.486L189.839 288.063C188.273 287.733 186.625 288.475 185.965 290.041C185.388 291.36 185.635 292.843 186.542 293.832C188.52 296.552 192.147 299.272 196.103 301.086L240.693 321.279C247.946 324.575 256.6 323.009 262.204 317.322C266.902 312.624 268.798 305.784 267.232 299.272Z" fill="#FFE4EE"/>
<path d="M198.823 276.441L206.158 279.738C206.158 279.738 203.521 278.337 204.263 276.524L203.356 278.419" stroke="#FFBED2" stroke-width="1.0815" stroke-miterlimit="10" stroke-linecap="round" stroke-linejoin="round"/>
<path d="M190.993 288.557L192.229 289.134" stroke="#FFBED2" stroke-width="1.0815" stroke-miterlimit="10" stroke-linecap="round" stroke-linejoin="round"/>
<path d="M192.312 281.469L193.548 282.046" stroke="#FFBED2" stroke-width="1.0815" stroke-miterlimit="10" stroke-linecap="round" stroke-linejoin="round"/>
<path d="M240.775 296.552L242.753 298.613" stroke="#FFBED2" stroke-width="1.0815" stroke-miterlimit="10" stroke-linecap="round" stroke-linejoin="round"/>
<path d="M260.144 269.848L259.32 266.304C259.072 266.469 258.743 266.551 258.413 266.634L240.528 271.002C238.879 271.414 237.808 272.898 237.973 274.628L238.22 276.854C240.033 275.535 243.413 273.392 248.111 272.321C255.199 270.672 260.144 269.848 260.144 269.848Z" fill="#FFCDDC"/>
<path d="M181.514 189.9C181.514 189.9 184.069 189.158 185.965 189.9" stroke="#FFBED2" stroke-width="1.319" stroke-miterlimit="10" stroke-linecap="round" stroke-linejoin="round"/>
<path d="M181.514 190.723C181.514 190.723 184.069 189.982 185.965 190.723" stroke="#4D4D4D" stroke-width="1.0592" stroke-miterlimit="10" stroke-linecap="round" stroke-linejoin="round"/>
<path d="M141.87 288.557L142.777 291.277" stroke="#FFBED2" stroke-width="1.0815" stroke-miterlimit="10" stroke-linecap="round" stroke-linejoin="round"/>
</g>
<defs>
<radialGradient id="paint0_radial" cx="0" cy="0" r="1" gradientUnits="userSpaceOnUse" gradientTransform="translate(95.6799 220.141) rotate(-0.582483) scale(49.6971 90.9127)">
<stop stop-color="#00B8FF"/>
<stop offset="1" stop-color="#CCE0F4" stop-opacity="0"/>
</radialGradient>
</defs>
</svg>
