<svg width="294" height="188" viewBox="0 0 294 188" fill="none" xmlns="http://www.w3.org/2000/svg">
<g opacity="0.4">
<path d="M17.0173 38.9716L0.922363 36.9189L0.0621758 43.9554L16.1571 46.0081L17.0173 38.9716Z" fill="#FFDCE6"/>
<path d="M90.3101 50.5664L76.5962 41.7197L72.8888 47.7152L86.6027 56.5619L90.3101 50.5664Z" fill="#FFDCE6"/>
<path d="M265 150.185L251.287 141.338L247.579 147.333L261.293 156.18L265 150.185Z" fill="#FFDCE6"/>
<path d="M161.301 2.05445L154.619 0.131348L150.22 16.0769L156.902 18L161.301 2.05445Z" fill="#FFDCE6"/>
<path d="M20.0294 101.53L13.3472 99.6069L8.94834 115.552L15.6306 117.476L20.0294 101.53Z" fill="#FFDCE6"/>
<path d="M162.115 172.054L155.433 170.131L151.034 186.077L157.717 188L162.115 172.054Z" fill="#FFDCE6"/>
<path d="M210.196 139.259L203.514 137.335L199.115 153.281L205.798 155.204L210.196 139.259Z" fill="#FFDCE6"/>
<path d="M83.4972 10.1491L79.9058 4.08057L66.0248 12.6506L69.6162 18.7191L83.4972 10.1491Z" fill="#FFDCE6"/>
<path d="M250.078 58.2841L234.533 53.5576L232.552 60.3537L248.097 65.0802L250.078 58.2841Z" fill="#FFDCE6"/>
<path d="M246.004 8.34321L230.458 3.6167L228.478 10.4128L244.023 15.1393L246.004 8.34321Z" fill="#FFDCE6"/>
<path d="M138.609 144.318L123.064 139.592L121.083 146.388L136.628 151.114L138.609 144.318Z" fill="#FFDCE6"/>
<path d="M286.401 38.3656L286.356 21.7988L279.413 21.8187L279.459 38.3855L286.401 38.3656Z" fill="#FFDCE6"/>
<path d="M75.4484 173.685L75.4028 157.119L68.4603 157.139L68.5058 173.705L75.4484 173.685Z" fill="#FFDCE6"/>
<path d="M293.999 90.5476L290.823 84.2422L276.4 91.8215L279.576 98.1269L293.999 90.5476Z" fill="#FFDCE6"/>
<path d="M39.456 139.85L36.2798 133.544L21.8571 141.124L25.0333 147.429L39.456 139.85Z" fill="#FFDCE6"/>
<path d="M193.821 42.7812L190.229 36.7134L176.35 45.285L179.942 51.3529L193.821 42.7812Z" fill="#FFDCE6"/>
</g>
</svg>
