<svg width="382" height="387" viewBox="0 0 382 387" fill="none" xmlns="http://www.w3.org/2000/svg">
<mask id="mask0" mask-type="alpha" maskUnits="userSpaceOnUse" x="0" y="0" width="382" height="387">
<rect width="382" height="387" fill="#C4C4C4"/>
</mask>
<g mask="url(#mask0)">
<path d="M182.684 261.215H232.159C238.923 250.127 238.467 235.468 235.579 219.367H221.063L221.519 225.443C222.279 232.051 217.111 233.038 210.423 233.038C208.599 233.038 206.928 232.962 205.408 232.734C204.952 232.658 204.496 232.582 204.116 232.43C204.116 232.43 204.116 232.43 204.04 232.43C203.812 232.355 203.66 232.355 203.432 232.279C203.052 232.127 202.672 231.975 202.368 231.823H202.292C202.14 231.747 201.988 231.671 201.836 231.595C201.836 231.595 201.836 231.595 201.76 231.595C201.608 231.519 201.456 231.367 201.304 231.291C201.152 231.215 201.076 231.063 200.924 230.987L200.848 230.911C200.772 230.836 200.62 230.684 200.544 230.608C200.468 230.456 200.316 230.304 200.24 230.228C200.24 230.228 200.24 230.152 200.164 230.152C200.088 230 200.012 229.924 199.936 229.772L199.86 229.696C199.784 229.544 199.708 229.392 199.632 229.241C199.632 229.241 199.632 229.241 199.632 229.165C199.556 229.013 199.48 228.785 199.48 228.633C199.48 228.557 199.48 228.557 199.48 228.481C199.48 228.329 199.404 228.177 199.404 228.025C199.404 227.949 199.404 227.949 199.404 227.874C199.404 227.646 199.328 227.494 199.328 227.266C199.328 226.81 199.328 226.203 199.404 225.671C199.404 225.595 199.404 225.595 199.404 225.519L199.784 220.203H179.796C178.656 232.658 178.124 246.937 182.684 261.215Z" fill="#333333"/>
<path d="M109.803 273.215L107.827 279.823C107.751 280.203 108.131 280.506 108.435 280.355L114.362 276.785L109.803 273.215Z" fill="#FFE4C5"/>
<path d="M109.803 273.215L107.827 279.823C107.751 280.203 108.131 280.506 108.435 280.355L114.362 276.785L109.803 273.215Z" fill="#FFE4C5"/>
<path d="M108.435 280.279L109.499 279.671L108.131 278.608L107.751 279.747C107.675 280.203 108.131 280.506 108.435 280.279Z" fill="#333333"/>
<path d="M179.264 278.608L181.392 268.886L157.301 262.962L155.781 269.95C163.457 271.772 171.285 275.114 179.264 278.608Z" fill="#FFCDDC"/>
<path d="M176.604 321.975C165.129 334.051 167.941 401.342 166.345 469.469C166.269 473.038 169.157 476 172.729 476H204.116C207.612 476 210.499 473.114 210.499 469.62V332.988V469.62C210.499 473.114 213.387 476 216.883 476H248.27C251.842 476 254.73 473.038 254.654 469.469C252.982 400.81 255.566 331.544 244.394 321.975" fill="#F4F4F6"/>
<path d="M210.575 469.165V334.051" stroke="#CBCBCB" stroke-width="1.3768" stroke-miterlimit="10" stroke-linecap="round" stroke-linejoin="round"/>
<path d="M214.223 335.874V345.823C214.223 348.177 212.551 350.076 210.499 350.076" stroke="#CBCBCB" stroke-width="1.3768" stroke-miterlimit="10" stroke-linecap="round" stroke-linejoin="round"/>
<path d="M231.779 332.987L232.235 341.494C232.615 348.481 238.391 353.949 245.382 353.949" stroke="#CBCBCB" stroke-width="1.3768" stroke-miterlimit="10" stroke-linecap="round" stroke-linejoin="round"/>
<path d="M189.296 332.987L188.84 341.494C188.46 348.481 182.684 353.949 175.693 353.949" stroke="#CBCBCB" stroke-width="1.3768" stroke-miterlimit="10" stroke-linecap="round" stroke-linejoin="round"/>
<path d="M266.89 263.418C265.066 247.924 248.118 235.089 225.623 231.063C224.407 230.836 223.571 229.848 223.571 228.633C223.571 227.57 222.887 226.658 221.899 226.355C214.527 223.772 207.156 223.696 199.784 226.203C198.72 226.582 197.96 227.57 197.732 228.633C197.504 229.924 196.44 230.911 195.148 231.139C172.957 235.317 156.313 248 154.489 263.418C154.261 265.013 155.325 266.532 156.845 266.987L172.881 271.165C174.401 271.544 175.389 272.987 175.313 274.506L171.665 323.418C171.513 325.317 173.033 326.911 174.857 326.911H246.446C248.346 326.911 249.866 325.241 249.638 323.342L244.774 274.582C244.622 272.987 245.686 271.544 247.206 271.165L264.458 266.911C265.978 266.532 267.118 265.013 266.89 263.418Z" fill="#82E155"/>
<path d="M223.571 234.709L218.783 241.089C218.023 242.152 216.503 242.228 215.591 241.393L212.171 238.127C211.335 237.291 209.967 237.291 209.131 238.127L205.712 241.393C204.8 242.304 203.28 242.152 202.52 241.089L197.732 234.709" stroke="#5AD23C" stroke-width="1.3768" stroke-miterlimit="10" stroke-linecap="round" stroke-linejoin="round"/>
<path d="M210.727 243.215C211.273 243.215 211.715 242.773 211.715 242.228C211.715 241.683 211.273 241.24 210.727 241.24C210.182 241.24 209.739 241.683 209.739 242.228C209.739 242.773 210.182 243.215 210.727 243.215Z" fill="#E4E4E4"/>
<path d="M210.727 246.253C211.273 246.253 211.715 245.811 211.715 245.266C211.715 244.721 211.273 244.279 210.727 244.279C210.182 244.279 209.739 244.721 209.739 245.266C209.739 245.811 210.182 246.253 210.727 246.253Z" fill="#E4E4E4"/>
<path d="M219.847 202.279H201.076L199.404 225.367C198.644 231.975 203.812 232.962 210.499 232.962C217.187 232.962 222.355 231.975 221.595 225.367L219.847 202.279Z" fill="#FFDAE4"/>
<path opacity="0.5" d="M215.515 211.772C211.943 214.582 207.156 225.975 206.092 233.038C202.216 232.582 199.48 231.139 199.252 227.342C199.252 226.658 199.252 226.051 199.328 225.747C199.328 225.671 199.328 225.671 199.328 225.595L200.164 212.304L215.515 211.772Z" fill="#FFBED2"/>
<path d="M184.204 189.139C184.204 176.835 194.464 166.962 206.852 167.57C217.871 168.101 226.839 177.139 227.371 188.152C227.599 193.24 226.079 197.873 223.343 201.671C220.911 205.013 218.783 208.506 216.579 212C213.007 217.544 206.472 220.962 199.176 219.975C192.108 218.987 186.332 213.595 184.66 206.684C184.204 204.709 184.052 202.734 184.28 200.911C184.66 197.418 184.432 193.924 184.204 190.354C184.28 189.899 184.204 189.519 184.204 189.139Z" fill="#FFE4EE"/>
<path d="M191.949 205.443C191.551 205.359 191.211 205.786 191.382 206.155C191.771 207.07 193.087 207.931 194.76 208.286C198.585 209.095 202.466 207.669 204.221 206.459C204.624 206.128 204.423 205.503 203.911 205.561C199.419 205.942 195.329 205.992 191.949 205.443Z" fill="#FF7BA4"/>
<path d="M199.708 219.975C199.556 219.975 199.328 219.975 199.176 219.899C192.108 218.911 186.332 213.595 184.66 206.684C184.204 204.709 184.052 202.734 184.28 200.911C184.432 199.089 184.508 197.19 184.432 195.367C184.432 192.633 184.888 189.975 185.952 187.392C187.7 183.139 190.512 178.43 193.704 177.519C194.312 177.367 194.996 177.671 195.224 178.279C195.832 179.949 197.732 183.215 203.888 184.43C210.195 185.646 212.019 194.911 218.251 196.203C221.519 196.962 219.999 206.532 219.999 206.532L220.987 220.203H235.579C234.971 217.013 234.363 213.747 233.603 210.329L231.019 193.392C230.943 192.937 230.867 192.481 230.867 192.025C230.867 190.81 230.791 189.443 230.563 188.076C228.055 172.886 220.227 168.785 216.731 167.646C214.983 167.114 209.815 165.291 204.04 165.215C198.34 165.139 192.032 168.177 188.004 173.114C184.128 179.266 182.228 185.798 181.924 189.063C181.62 192.481 181.316 197.949 181.24 200.608C181.088 206.228 180.252 213.139 179.644 220.43H199.632L199.708 219.975Z" fill="#333333"/>
<path d="M218.403 196.886C218.403 194.608 220.075 192.785 222.127 192.937C223.951 193.013 225.471 194.684 225.547 196.734C225.547 197.646 225.319 198.557 224.863 199.241C224.483 199.848 224.103 200.532 223.723 201.139C223.115 202.127 222.051 202.81 220.835 202.582C219.695 202.431 218.707 201.443 218.403 200.152C218.327 199.772 218.327 199.393 218.327 199.089C218.403 198.481 218.327 197.798 218.327 197.114C218.403 197.038 218.403 196.962 218.403 196.886Z" fill="#FFE4EE"/>
<path d="M222.735 196.81L222.203 197.342C221.671 197.874 221.671 198.861 222.203 199.393" stroke="#FFBED2" stroke-width="1.3768" stroke-miterlimit="10" stroke-linecap="round" stroke-linejoin="round"/>
<path d="M197.58 200.608C196.212 200.608 195.072 199.544 194.996 198.177C194.996 196.81 196.896 195.975 197.428 195.595V192.557" stroke="#FFBED2" stroke-width="1.3768" stroke-miterlimit="10" stroke-linecap="round" stroke-linejoin="round"/>
<path d="M191.804 199.62C193.105 199.62 194.16 198.158 194.16 196.354C194.16 194.551 193.105 193.089 191.804 193.089C190.503 193.089 189.448 194.551 189.448 196.354C189.448 198.158 190.503 199.62 191.804 199.62Z" fill="white"/>
<path d="M203.508 199.62C204.809 199.62 205.864 198.158 205.864 196.354C205.864 194.551 204.809 193.089 203.508 193.089C202.206 193.089 201.152 194.551 201.152 196.354C201.152 198.158 202.206 199.62 203.508 199.62Z" fill="white"/>
<path d="M191.424 197.19C192.221 197.19 192.868 196.306 192.868 195.215C192.868 194.125 192.221 193.24 191.424 193.24C190.627 193.24 189.98 194.125 189.98 195.215C189.98 196.306 190.627 197.19 191.424 197.19Z" fill="#333333"/>
<path d="M202.976 197.19C203.731 197.19 204.344 196.306 204.344 195.215C204.344 194.125 203.731 193.24 202.976 193.24C202.22 193.24 201.608 194.125 201.608 195.215C201.608 196.306 202.22 197.19 202.976 197.19Z" fill="#333333"/>
<path d="M307.548 476H297.745C296.225 476 295.009 474.785 295.009 473.266V350.532H307.548V476Z" fill="#998574"/>
<path d="M310.968 476H307.396V350.532H313.704V473.266C313.704 474.785 312.488 476 310.968 476Z" fill="#645045"/>
<path d="M141.342 476H131.234C129.866 476 128.802 474.937 128.802 473.57V386.835H141.418V476H141.342Z" fill="#998574"/>
<path d="M144.989 476H141.418V386.835H147.725V473.266C147.649 474.785 146.433 476 144.989 476Z" fill="#645045"/>
<path d="M275.097 350.532H64.9639C63.368 350.532 62 349.241 62 347.57V339.519C62 337.924 63.292 336.557 64.9639 336.557H275.097C276.693 336.557 278.061 337.848 278.061 339.519V347.57C278.061 349.165 276.693 350.532 275.097 350.532Z" fill="#C7B197"/>
<path d="M319.328 350.532H251.386C250.474 350.532 249.714 349.772 249.714 348.861V338.38C249.714 337.468 250.474 336.709 251.386 336.709H319.328C320.24 336.709 321 337.468 321 338.38V348.861C321 349.772 320.316 350.532 319.328 350.532Z" fill="#998574"/>
<path d="M83.6593 476H73.7796C72.2597 476 71.0437 474.785 71.0437 473.266V350.532H83.6593V476Z" fill="#998574"/>
<path d="M255.186 350.532H83.6593V386.836H255.186V350.532Z" fill="#736356"/>
<path d="M255.262 476H245.382C243.862 476 242.646 474.785 242.646 473.266V350.532H255.186V476H255.262Z" fill="#998574"/>
<path d="M258.682 476H255.11V350.532H261.418V473.266C261.342 474.785 260.126 476 258.682 476Z" fill="#645045"/>
<path d="M87.3072 476H83.7353V386.835H90.0431V473.266C89.9671 474.785 88.7512 476 87.3072 476Z" fill="#645045"/>
<path d="M307.32 350.532H261.342V386.836H307.32V350.532Z" fill="#534741"/>
<path d="M264.458 266.911L247.206 271.165C245.61 271.544 244.622 272.987 244.774 274.582L246.674 296.304V296.228C246.826 297.443 245.914 298.506 244.622 298.506L230.107 298.127C225.167 297.823 220.379 296.076 216.351 293.266C212.095 290.228 206.928 288.633 201.684 288.557C198.492 288.481 195.832 290.987 195.756 294.101L195.68 296.38C195.68 296.38 193.324 296.532 191.424 296.987C189.524 297.443 187.624 298.81 187.548 300.937C187.472 302.911 188.992 304.582 190.968 304.81C189.144 305.038 187.7 306.633 187.624 308.532V308.608C187.548 310.734 189.296 312.481 191.424 312.557H192.868C191.12 312.861 189.828 314.38 189.752 316.202C189.676 317.797 190.664 319.165 191.956 319.772C195.148 321.671 200.012 322.886 204.8 323.038L249.638 323.57C261.722 323.721 270.994 313.089 269.322 301.165L264.458 266.911Z" fill="#FFE4EE"/>
<path d="M247.282 271.165C245.686 271.544 244.698 272.987 244.85 274.582L245.078 277.316C248.65 275.266 255.49 271.924 264.914 269.721L264.534 266.911L247.282 271.165Z" fill="#FFCDDC"/>
<path d="M196.972 296.836L205.864 297.063C205.864 297.063 202.52 296.76 202.596 294.633L202.52 296.988" stroke="#FFBED2" stroke-width="1.3768" stroke-miterlimit="10" stroke-linecap="round" stroke-linejoin="round"/>
<path d="M194.312 312.557H195.832" stroke="#FFBED2" stroke-width="1.3768" stroke-miterlimit="10" stroke-linecap="round" stroke-linejoin="round"/>
<path d="M192.564 304.81H194.084" stroke="#FFBED2" stroke-width="1.3768" stroke-miterlimit="10" stroke-linecap="round" stroke-linejoin="round"/>
<path opacity="0.5" d="M248.27 299.19L251.234 300.481" stroke="#FFBED2" stroke-width="1.4344" stroke-miterlimit="10" stroke-linecap="round" stroke-linejoin="round"/>
<path opacity="0.5" d="M248.27 299.19L251.234 300.481" stroke="#FFBED2" stroke-width="1.4344" stroke-miterlimit="10" stroke-linecap="round" stroke-linejoin="round"/>
<path d="M248.27 299.19L251.234 300.481" stroke="#FFBED2" stroke-width="1.3768" stroke-miterlimit="10" stroke-linecap="round" stroke-linejoin="round"/>
<path d="M184.66 331.544H178.428C178.428 331.165 178.732 330.785 179.188 330.785H183.976C184.356 330.861 184.66 331.165 184.66 331.544Z" fill="#989898"/>
<path d="M191.728 331.544H185.496C185.496 331.165 185.8 330.785 186.256 330.785H191.044C191.424 330.861 191.728 331.165 191.728 331.544Z" fill="#989898"/>
<path d="M198.796 331.544H192.564C192.564 331.165 192.868 330.785 193.324 330.785H198.112C198.492 330.861 198.796 331.165 198.796 331.544Z" fill="#989898"/>
<path d="M205.864 331.544H199.556C199.556 331.165 199.86 330.785 200.316 330.785H205.104C205.484 330.861 205.864 331.165 205.864 331.544Z" fill="#989898"/>
<path d="M187.624 331.544H181.316C181.316 331.165 181.62 330.785 182.076 330.785H186.864C187.32 330.861 187.624 331.165 187.624 331.544Z" fill="#666666"/>
<path d="M194.692 331.544H188.46C188.46 331.165 188.764 330.785 189.22 330.785H194.008C194.312 330.861 194.692 331.165 194.692 331.544Z" fill="#666666"/>
<path d="M201.76 331.544H195.528C195.528 331.165 195.832 330.785 196.288 330.785H201.076C201.38 330.861 201.76 331.165 201.76 331.544Z" fill="#666666"/>
<path d="M208.751 331.544H202.52C202.52 331.165 202.824 330.785 203.28 330.785H208.067C208.447 330.861 208.751 331.165 208.751 331.544Z" fill="#666666"/>
<path d="M181.696 331.544H96.3509C94.451 331.544 92.8551 330.101 92.7031 328.203L87.2312 273.747C87.0032 271.544 88.7512 269.722 90.8791 269.722H176.148C178.048 269.722 179.644 271.165 179.796 273.063L185.268 327.519C185.572 329.722 183.824 331.544 181.696 331.544Z" fill="#CBCBCB"/>
<path d="M219.391 336.633H131.69C130.322 336.633 129.182 335.494 129.182 334.127C129.182 332.76 130.322 331.62 131.69 331.62H219.315C220.683 331.62 221.823 332.76 221.823 334.127C221.899 335.494 220.759 336.633 219.391 336.633Z" fill="#B2B2B2"/>
<path d="M180.708 331.544H95.439C93.539 331.544 91.9431 330.101 91.7911 328.203L86.3192 273.823C86.0912 271.62 87.8392 269.798 89.9671 269.798H175.236C177.136 269.798 178.732 271.241 178.884 273.139L184.356 327.595C184.66 329.722 182.912 331.544 180.708 331.544Z" fill="#E5E5E5"/>
<path d="M179.188 334.127C179.188 332.76 180.328 331.62 181.696 331.62H94.679C93.311 331.62 92.1711 332.76 92.1711 334.127C92.1711 335.494 93.311 336.633 94.679 336.633H181.772C180.328 336.633 179.188 335.494 179.188 334.127Z" fill="#CBCBCB"/>
<path d="M133.783 304.577C135.751 304.443 137.226 302.57 137.077 300.394C136.929 298.217 135.213 296.562 133.244 296.696C131.276 296.831 129.801 298.704 129.95 300.88C130.099 303.056 131.815 304.711 133.783 304.577Z" fill="white"/>
<path d="M190.132 333.291H183.368V334.886H190.132V333.291Z" fill="#989898"/>
<path d="M187.624 333.291H183.368V334.886H187.624V333.291Z" fill="#666666"/>
<path d="M198.264 333.291H191.5V334.886H198.264V333.291Z" fill="#989898"/>
<path d="M195.756 333.291H191.5V334.886H195.756V333.291Z" fill="#666666"/>
<path d="M303.749 336.633C301.621 336.633 301.621 323.494 303.749 323.494H255.186C253.058 323.494 253.058 336.633 255.186 336.633H303.749Z" fill="#FFF9EF"/>
<path d="M270.842 334.886H299.797V335.038H270.842V334.886ZM265.37 325.772H293.489V325.924H265.37V325.772ZM255.414 326.456H262.862V326.608H255.414V326.456ZM255.414 328.582H285.813V328.734H255.414V328.582ZM255.414 330.709H290.601V330.861H255.414V330.709Z" fill="#FFF9EF"/>
<path d="M302.913 324.405C302.913 324.481 302.913 324.481 302.837 324.557L302.913 324.405Z" fill="#7D6D60"/>
<path d="M255.414 324.481H302.837C302.837 324.405 302.837 324.405 302.913 324.329H255.49V324.481H255.414Z" fill="#7D6D60"/>
<path d="M255.414 325.241H302.609C302.609 325.165 302.609 325.165 302.609 325.089H255.414V325.241Z" fill="#7D6D60"/>
<path d="M293.489 325.772H265.37V325.924H293.489V325.772Z" fill="#7D6D60"/>
<path d="M262.862 326.456H255.414V326.608H262.862V326.456Z" fill="#7D6D60"/>
<path d="M264.61 326.608H302.381C302.381 326.532 302.381 326.532 302.381 326.456H264.61V326.608Z" fill="#7D6D60"/>
<path d="M255.414 327.291H302.305C302.305 327.215 302.305 327.215 302.305 327.139H255.414V327.291Z" fill="#7D6D60"/>
<path d="M255.414 328.051H302.229C302.229 327.975 302.229 327.975 302.229 327.899H255.414V328.051Z" fill="#7D6D60"/>
<path d="M285.813 328.582H255.414V328.734H285.813V328.582Z" fill="#7D6D60"/>
<path d="M267.042 329.418H302.153C302.153 329.342 302.153 329.342 302.153 329.266H267.042V329.418Z" fill="#7D6D60"/>
<path d="M290.601 330.709H255.414V330.861H290.601V330.709Z" fill="#7D6D60"/>
<path d="M255.414 331.544H302.153C302.153 331.469 302.153 331.469 302.153 331.393H255.414V331.544Z" fill="#7D6D60"/>
<path d="M268.182 332.228H302.229C302.229 332.152 302.229 332.152 302.229 332.076H268.182V332.228Z" fill="#7D6D60"/>
<path d="M255.414 334.355H302.457C302.457 334.279 302.457 334.279 302.457 334.203H255.414V334.355Z" fill="#7D6D60"/>
<path d="M299.797 334.886H270.842V335.038H299.797V334.886Z" fill="#7D6D60"/>
<path d="M302.837 335.57C302.837 335.646 302.837 335.646 302.913 335.722L302.837 335.57Z" fill="#7D6D60"/>
<path d="M255.414 335.722H302.913C302.913 335.646 302.913 335.646 302.837 335.57H255.414V335.722Z" fill="#7D6D60"/>
<path d="M274.261 323.494H252.602C250.474 323.494 250.474 336.633 252.602 336.633H274.261C272.134 336.633 272.134 323.494 274.261 323.494Z" fill="#666666"/>
<path d="M272.514 324.633C272.589 324.329 272.893 324.101 273.273 324.101H303.749C303.977 324.101 303.977 323.494 303.749 323.494H273.425H230.107H224.863C222.735 323.494 222.735 336.633 224.863 336.633H230.107H273.425H303.749C303.977 336.633 303.977 336.025 303.749 336.025H273.273C272.969 336.025 272.665 335.797 272.514 335.494C271.678 332.987 271.678 327.063 272.514 324.633Z" fill="#999999"/>
<path d="M229.119 323.494H227.827C225.699 323.494 225.699 336.633 227.827 336.633H229.119C227.067 336.633 227.067 323.494 229.119 323.494Z" fill="#666666"/>
<path d="M260.354 323.494H259.062C256.934 323.494 256.934 336.633 259.062 336.633H260.354C258.302 336.633 258.302 323.494 260.354 323.494Z" fill="#666666"/>
<path opacity="0.5" d="M287.789 334.734H283.685C283.229 333.367 282.013 332.38 279.429 332.228H284.141C286.269 332.532 286.801 333.595 287.789 334.734Z" fill="#CBCBCB"/>
<path d="M283.609 334.734H287.713C287.257 334.203 286.877 333.671 286.421 333.291H282.621C283.077 333.595 283.457 334.127 283.609 334.734Z" fill="#5AD23C"/>
<path opacity="0.5" d="M284.445 333.899H279.049C278.441 331.848 276.921 330.329 273.501 330.101H279.657C282.469 330.633 283.077 332.228 284.445 333.899Z" fill="#CBCBCB"/>
<path d="M278.973 333.899H284.369C283.761 333.063 283.229 332.304 282.621 331.62H277.605C278.289 332.304 278.745 333.063 278.973 333.899Z" fill="#82E155"/>
<path d="M231.931 323.494C233.603 323.494 233.603 311.646 231.931 311.646H271.298C272.969 311.646 272.969 323.494 271.298 323.494H231.931Z" fill="#FFF9EF"/>
<path d="M258.606 322.051H235.123V321.899H258.606V322.051ZM263.014 313.772H240.214V313.62H263.014V313.772ZM271.07 314.456H265.066V314.304H271.07V314.456ZM271.07 316.355H246.446V316.203H271.07V316.355ZM271.07 318.253H242.57V318.101H271.07V318.253Z" fill="#FFF9EF"/>
<path d="M232.615 312.405C232.615 312.405 232.615 312.481 232.691 312.557L232.615 312.405Z" fill="#7D6D60"/>
<path d="M271.07 312.557H232.691C232.691 312.481 232.691 312.481 232.615 312.405H271.07V312.557Z" fill="#7D6D60"/>
<path d="M271.07 313.165H232.843C232.843 313.089 232.843 313.089 232.843 313.013H271.146V313.165H271.07Z" fill="#7D6D60"/>
<path d="M263.014 313.696H240.214V313.848H263.014V313.696Z" fill="#7D6D60"/>
<path d="M271.07 314.304H265.066V314.456H271.07V314.304Z" fill="#7D6D60"/>
<path d="M263.622 314.456H233.071C233.071 314.38 233.071 314.38 233.071 314.304H263.698V314.456H263.622Z" fill="#7D6D60"/>
<path d="M271.07 315.063H233.071C233.071 314.987 233.071 314.987 233.071 314.911H271.07V315.063Z" fill="#7D6D60"/>
<path d="M271.07 315.671H233.147C233.147 315.595 233.147 315.595 233.147 315.519H271.07V315.671Z" fill="#7D6D60"/>
<path d="M271.07 316.203H246.446V316.355H271.07V316.203Z" fill="#7D6D60"/>
<path d="M261.646 316.962H233.223C233.223 316.886 233.223 316.886 233.223 316.81H261.646V316.962Z" fill="#7D6D60"/>
<path d="M271.07 318.101H242.57V318.253H271.07V318.101Z" fill="#7D6D60"/>
<path d="M271.07 318.861H233.147C233.147 318.785 233.147 318.785 233.147 318.709H270.994V318.861H271.07Z" fill="#7D6D60"/>
<path d="M260.734 319.468H233.147C233.147 319.392 233.147 319.392 233.147 319.316H260.734V319.468Z" fill="#7D6D60"/>
<path d="M271.07 321.367H232.919C232.919 321.291 232.919 321.291 232.919 321.215H271.07V321.367Z" fill="#7D6D60"/>
<path d="M258.606 321.899H235.123V322.051H258.606V321.899Z" fill="#7D6D60"/>
<path d="M232.691 322.582C232.691 322.658 232.691 322.658 232.615 322.734L232.691 322.582Z" fill="#7D6D60"/>
<path d="M271.07 322.658H232.615C232.615 322.658 232.615 322.582 232.691 322.506H271.07V322.658Z" fill="#7D6D60"/>
<path d="M255.87 311.646H273.425C275.097 311.646 275.097 323.494 273.425 323.494H255.87C257.542 323.494 257.542 311.646 255.87 311.646Z" fill="#B3B3B3"/>
<path d="M257.238 312.633C257.162 312.329 256.934 312.177 256.63 312.177H231.931C231.779 312.177 231.779 311.646 231.931 311.646H256.478H291.513H295.769C297.441 311.646 297.441 323.494 295.769 323.494H291.513H256.478H231.931C231.779 323.494 231.779 322.962 231.931 322.962H256.63C256.934 322.962 257.162 322.81 257.238 322.507C257.922 320.228 257.922 314.836 257.238 312.633Z" fill="#666666"/>
<path d="M292.425 311.646H293.489C295.161 311.646 295.161 323.494 293.489 323.494H292.425C294.097 323.494 294.097 311.646 292.425 311.646Z" fill="#B3B3B3"/>
<path d="M267.118 311.646H268.182C269.854 311.646 269.854 323.494 268.182 323.494H267.118C268.79 323.494 268.79 311.646 267.118 311.646Z" fill="#B3B3B3"/>
</g>
</svg>
