<svg width="335" height="220" viewBox="0 0 335 220" fill="none" xmlns="http://www.w3.org/2000/svg">
<mask id="mask0_3198:49523" style="mask-type:alpha" maskUnits="userSpaceOnUse" x="0" y="0" width="335" height="220">
<rect width="335" height="220" fill="#C4C4C4"/>
</mask>
<g mask="url(#mask0_3198:49523)">
<path d="M211.359 90.743C211.338 90.6677 211.318 90.5925 211.301 90.5172C209.453 83.5303 207.266 78.9435 209.227 70.9824C209.239 70.9406 209.244 70.8988 209.256 70.857V70.8528C210.724 65.3461 210.109 60.8262 208.198 56.9125C206.049 51.8992 204.92 46.6267 205.819 40.844C206.622 35.6927 206.2 30.3741 204.163 25.5448C203.177 23.2033 201.809 21.0082 200.083 19.1099C197.532 16.3084 193.125 16.3084 190.57 19.1099C188.847 21.0082 187.48 23.1991 186.489 25.5448C184.453 30.3741 184.035 35.6927 184.833 40.844C185.732 46.6267 184.604 51.8992 182.454 56.9125C180.544 60.8262 179.933 65.3461 181.397 70.8528C181.397 70.857 181.397 70.857 181.397 70.857C181.409 70.8988 181.413 70.9406 181.426 70.9824C183.387 78.9435 181.2 83.5303 179.352 90.5172C179.331 90.5925 179.31 90.6677 179.293 90.743C177.997 95.702 178.971 100.544 181.455 104.428C187.806 114.363 202.834 114.363 209.189 104.428C211.681 100.548 212.656 95.7062 211.359 90.743Z" fill="#2D2D37"/>
<path opacity="0.1" d="M83.334 85.3529L43.7417 109.855C35.3082 91.8882 31.5241 56.3685 35.7221 38.272L79.1569 49.1391L83.334 85.3529Z" fill="url(#paint0_radial_3198:49523)"/>
<path d="M152.889 112.598L131.301 105.958L126.777 135.587C126.606 136.699 125.096 136.908 124.628 135.888L113.401 111.352C111.72 107.296 108.425 102.459 104.311 100.937C99.2769 99.0802 95.4385 96.5965 94.0503 91.416L93.5527 89.5511C93.1012 87.8703 91.4705 86.6995 89.7562 86.988C87.7868 87.3183 86.5742 89.2584 87.0802 91.14L89.313 99.4774C89.5053 100.197 88.9617 100.907 88.2175 100.907C86.085 100.907 84.9352 103.412 86.3234 105.03L89.6809 108.944L88.4725 109.446L90.1826 113.577L83.7603 120.626C85.6042 121.68 88.0502 122.453 90.6928 122.863C92.9465 123.214 94.828 124.778 95.6977 126.89L102.166 142.557H102.162L102.166 142.565L105.724 151.141C109.166 159.441 117.273 164.851 126.258 164.843C137.339 164.834 146.721 156.66 148.243 145.684L148.682 142.532L152.889 112.598Z" fill="#FFE4EE"/>
<path d="M129.52 118.648C134.19 119.79 149.649 123.946 149.686 128.834C149.69 129.574 149.971 129.921 150.451 129.975L152.889 112.598L131.301 105.958L129.52 118.648Z" fill="#FFCDDC"/>
<path d="M151.371 172.565C139.199 185.335 142.223 284.539 140.496 356.741C140.404 360.55 143.464 363.673 147.273 363.673H180.527C184.273 363.673 187.309 360.638 187.309 356.891V184.285V356.895C187.309 360.642 190.345 363.677 194.091 363.677H227.34C231.149 363.677 234.21 360.55 234.118 356.737C232.316 283.958 235.059 182.696 223.251 172.565" fill="#F5F5F9"/>
<path d="M187.309 356.477V185.368" stroke="#CCCCD2" stroke-width="1.1452" stroke-miterlimit="10" stroke-linecap="round" stroke-linejoin="round"/>
<path d="M191.214 187.291V197.807C191.214 200.295 189.466 202.315 187.309 202.315" stroke="#CCCCD2" stroke-width="1.1452" stroke-miterlimit="10" stroke-linecap="round" stroke-linejoin="round"/>
<path d="M209.845 184.285L210.334 193.321C210.736 200.726 216.853 206.521 224.271 206.521" stroke="#CCCCD2" stroke-width="1.1452" stroke-miterlimit="10" stroke-linecap="round" stroke-linejoin="round"/>
<path d="M164.771 184.285L164.282 193.321C163.881 200.726 157.764 206.521 150.346 206.521" stroke="#CCCCD2" stroke-width="1.1452" stroke-miterlimit="10" stroke-linecap="round" stroke-linejoin="round"/>
<path d="M87.8394 84.5979L84.7031 84.9568L85.9088 95.4915L89.0451 95.1326L87.8394 84.5979Z" fill="#B3B3B3"/>
<path d="M92.1151 125.464L89.853 125.723C89.0042 125.819 88.2349 125.209 88.1345 124.36L84.9191 96.2453C84.823 95.3965 85.4334 94.6271 86.2822 94.5268L88.5443 94.2675C89.3931 94.1714 90.1624 94.7818 90.2628 95.6306L93.4782 123.745C93.5785 124.598 92.9681 125.363 92.1151 125.464Z" fill="#4D4D4D"/>
<path d="M86.1019 86.2899C89.2838 85.9262 90.8727 76.9532 89.6476 66.2492C88.4225 55.5452 84.8475 47.1618 81.6656 47.5256L78.952 47.835C75.7701 48.1987 74.1812 57.1717 75.4063 67.8757C76.6314 78.5797 80.2064 86.9631 83.3883 86.5993L86.1019 86.2899Z" fill="#B3B3B3"/>
<path d="M86.1019 86.2899C89.2838 85.9262 90.8727 76.9532 89.6476 66.2492C88.4225 55.5452 84.8475 47.1618 81.6656 47.5256L78.952 47.835C75.7701 48.1987 74.1812 57.1717 75.4063 67.8757C76.6314 78.5797 80.2064 86.9631 83.3883 86.5993L86.1019 86.2899Z" fill="#B3B3B3"/>
<path d="M85.8461 85.3446C82.8188 85.6916 79.4237 77.7222 78.2613 67.5492C77.0989 57.3762 78.6042 48.8465 81.6314 48.4994L84.2112 48.2026C87.2384 47.8555 90.6336 55.825 91.796 65.998C92.9584 76.1709 91.4531 84.7007 88.4259 85.0477L85.8461 85.3446Z" fill="#E5FFFF"/>
<path d="M85.8475 85.3446C82.8203 85.6916 79.4251 77.7222 78.2628 67.5492C77.1004 57.3762 78.6056 48.8465 81.6328 48.4994L84.2127 48.2026C87.2399 47.8555 90.6351 55.825 91.7975 65.998C92.9598 76.1709 91.4546 84.7007 88.4274 85.0477L85.8475 85.3446Z" fill="#D2F0FF"/>
<path d="M77.9194 63.2438L84.4505 48.1996C84.3669 48.1955 84.2874 48.1955 84.208 48.208L82.9578 48.3502L77.8776 60.0493C77.8566 61.0737 77.8734 62.1399 77.9194 63.2438Z" fill="white"/>
<path d="M79.5206 74.7033L88.7863 53.3664C88.0169 51.5141 87.1681 50.0757 86.3026 49.1935L78.2788 67.6746C78.5673 70.1875 78.9938 72.5583 79.5206 74.7033Z" fill="white"/>
<path d="M85.0563 47.1363L78.9517 47.8346C82.1336 47.4708 85.7086 55.8542 86.9337 66.5582C88.1588 77.2622 86.5699 86.2351 83.388 86.5989L89.4926 85.9006C92.6745 85.5369 94.2634 76.5639 93.0383 65.8599C91.8132 55.1517 88.2382 46.7725 85.0563 47.1363Z" fill="#CCCCCC"/>
<path d="M78.952 47.8345C75.7701 48.1983 74.1812 57.1713 75.4063 67.8752C76.6314 78.5792 80.2064 86.9626 83.3883 86.5989C86.5702 86.2351 88.1591 77.2622 86.934 66.5582C85.7089 55.8542 82.1339 47.4708 78.952 47.8345ZM83.2545 85.4365C81.9374 85.587 78.1366 79.7416 76.761 67.7205C75.3854 55.6995 77.7645 49.1474 79.0858 48.9969C80.4029 48.8464 84.2036 54.6918 85.5793 66.7129C86.9549 78.7339 84.5716 85.286 83.2545 85.4365Z" fill="#E6E6E6"/>
<path d="M93.6067 120.894H85.0644C83.2246 120.894 81.7319 119.401 81.7319 117.561C81.7319 115.721 83.2246 114.229 85.0644 114.229H93.6067C95.4464 114.229 96.9391 115.721 96.9391 117.561C96.9391 119.401 95.4464 120.894 93.6067 120.894Z" fill="#FFE4EE"/>
<path d="M91.5504 114.329H83.1126C81.2436 114.329 79.73 112.816 79.73 110.947C79.73 109.078 81.2436 107.564 83.1126 107.564H91.5504C93.4194 107.564 94.933 109.078 94.933 110.947C94.9288 112.816 93.4152 114.329 91.5504 114.329Z" fill="#FFE4EE"/>
<path d="M91.3577 107.585H82.8154C80.9756 107.585 79.4829 106.092 79.4829 104.252C79.4829 102.413 80.9756 100.92 82.8154 100.92H91.3577C93.1974 100.92 94.6901 102.413 94.6901 104.252C94.6901 106.092 93.1974 107.585 91.3577 107.585Z" fill="#FFE4EE"/>
<path d="M93.6745 101.836C94.3017 102.442 94.6948 103.291 94.6948 104.232C94.6948 106.071 93.2021 107.564 91.3623 107.564H85.5713H91.6007C93.4404 107.564 94.9331 109.057 94.9331 110.897C94.9331 112.736 93.4404 114.229 91.6007 114.229H86.073H93.6077C95.4474 114.229 96.9401 115.722 96.9401 117.561C96.9401 119.401 95.4474 120.894 93.6077 120.894" stroke="#FFBED2" stroke-width="1.1452" stroke-miterlimit="10" stroke-linecap="round" stroke-linejoin="round"/>
<path d="M96.4126 107.898C96.4126 107.898 97.8217 113.405 104.457 113.405" stroke="#FFBED2" stroke-width="1.1452" stroke-miterlimit="10" stroke-linecap="round" stroke-linejoin="round"/>
<path d="M147.499 120.496C149.092 120.915 150.163 122.411 150.042 124.055L146.17 175.931C146.023 177.913 147.591 179.603 149.577 179.603H225.455C227.474 179.603 229.055 177.859 228.854 175.848L223.69 124.168C223.523 122.474 224.623 120.915 226.274 120.509L245.98 115.671C246.775 115.475 247.314 114.739 247.268 113.919C246.319 96.864 228.281 82.6227 203.942 78.0985C202.571 77.8435 201.5 76.7605 201.241 75.3933C201.007 74.1724 200.129 73.1772 198.95 72.7842C191.357 70.2503 183.772 70.2545 176.195 72.7842C175.016 73.1772 174.138 74.1724 173.904 75.3933C173.645 76.7647 172.574 77.8477 171.203 78.1027C147.119 82.5808 129.206 96.5713 127.91 113.384C127.822 114.517 128.579 115.546 129.679 115.834L147.499 120.496Z" fill="#7896FF"/>
<path d="M201.221 81.8574L196.178 88.6602C195.371 89.7516 193.786 89.8854 192.804 88.9488L189.174 85.4909C188.271 84.6295 186.85 84.6295 185.947 85.4909L182.317 88.9488C181.335 89.8854 179.754 89.7516 178.943 88.6602L173.9 81.8574" stroke="#5A7DF5" stroke-width="1.14492" stroke-miterlimit="10" stroke-linecap="round" stroke-linejoin="round"/>
<path d="M187.54 90.9056C188.121 90.9056 188.593 90.4339 188.593 89.852C188.593 89.27 188.121 88.7983 187.54 88.7983C186.958 88.7983 186.486 89.27 186.486 89.852C186.486 90.4339 186.958 90.9056 187.54 90.9056Z" fill="white"/>
<path d="M187.54 94.1167C188.121 94.1167 188.593 93.645 188.593 93.0631C188.593 92.4811 188.121 92.0094 187.54 92.0094C186.958 92.0094 186.486 92.4811 186.486 93.0631C186.486 93.645 186.958 94.1167 187.54 94.1167Z" fill="white"/>
<path d="M253.444 149.126L245.395 115.684C245.115 115.847 244.789 115.914 244.463 115.994L226.274 120.459C224.631 120.865 223.531 122.416 223.699 124.101L225.706 144.179L225.681 144.15C225.781 144.71 225.221 145.183 224.681 144.936L211.556 138.965C207.484 136.908 204.051 133.764 201.651 129.867C199.1 125.728 195.275 122.529 190.842 120.53C188.212 119.343 185.118 120.555 183.922 123.177L183.07 125.059C183.07 125.059 181 124.352 179.239 124.051C177.475 123.75 175.368 124.243 174.565 126.008C173.804 127.684 174.481 129.633 176.066 130.515C174.414 130.068 172.641 130.858 171.91 132.464L171.872 132.543C171.061 134.328 171.851 136.436 173.637 137.247L174.837 137.79C173.26 137.456 171.605 138.238 170.91 139.768C170.313 141.089 170.597 142.582 171.517 143.59C173.524 146.37 177.178 149.143 181.213 150.978L226.421 171.47C233.822 174.824 242.527 173.239 248.272 167.494C253.076 162.69 255.037 155.732 253.444 149.126Z" fill="#FFE4EE"/>
<path d="M183.964 125.966L191.39 129.34C191.39 129.34 188.685 127.885 189.491 126.116L188.601 128.073" stroke="#FFBED2" stroke-width="1.1452" stroke-miterlimit="10" stroke-linecap="round" stroke-linejoin="round"/>
<path d="M176.069 138.284L177.345 138.865" stroke="#FFBED2" stroke-width="1.1452" stroke-miterlimit="10" stroke-linecap="round" stroke-linejoin="round"/>
<path d="M177.386 131.1L178.657 131.682" stroke="#FFBED2" stroke-width="1.1452" stroke-miterlimit="10" stroke-linecap="round" stroke-linejoin="round"/>
<path d="M226.604 146.353L228.591 148.511" stroke="#FFBED2" stroke-width="1.1452" stroke-miterlimit="10" stroke-linecap="round" stroke-linejoin="round"/>
<path d="M246.248 119.255L245.391 115.684C245.11 115.847 244.784 115.914 244.458 115.993L226.27 120.459C224.626 120.865 223.527 122.416 223.694 124.101L223.92 126.359C225.772 124.983 229.213 122.859 233.917 121.797C241.209 120.158 246.248 119.255 246.248 119.255Z" fill="#FFCDDC"/>
<path d="M126.184 138.28L127.099 141.065" stroke="#FFBED2" stroke-width="1.1452" stroke-miterlimit="10" stroke-linecap="round" stroke-linejoin="round"/>
<path d="M201.897 32.6402C200.572 27.0332 196.248 20.0045 196.248 20.0045H159.508C157.647 23.4457 155.598 33.2842 155.598 41.1156C155.598 45.5227 157.087 49.7374 158.717 51.3639C166.816 59.4504 183.056 55.9005 184.248 55.6246C184.566 55.5953 194.475 53.9521 195.705 53.6928L202.98 50.5736C203.369 44.1596 203.089 37.6661 201.897 32.6402Z" fill="#2D2D37"/>
<path d="M197.013 47.7259H177.286L175.509 72.0022C174.702 78.964 180.142 80.0177 187.15 80.0177C194.158 80.0177 199.602 78.964 198.79 72.0022L197.013 47.7259Z" fill="#FFDAE4"/>
<path d="M192.702 55.1057L176.529 58.0326L175.509 72.0021C174.886 77.3667 177.98 79.219 182.638 79.7876C183.842 72.1652 188.935 58.0953 192.702 55.1057Z" fill="#FFCDDC"/>
<path d="M158.646 33.7478C158.646 20.3135 169.861 9.50076 183.441 10.153C195.483 10.7342 205.347 20.6563 205.87 32.6983C206.108 38.2343 204.435 43.3563 201.462 47.4874C198.828 51.146 197.453 52.3293 195.036 56.1342C191.168 62.2221 181.213 67.0013 175.012 66.4076C168.811 65.8138 161.532 59.0402 159.755 51.4638C159.244 49.2853 159.123 48.2526 159.328 46.2247C159.713 42.3946 158.914 38.9409 158.688 35.0984C158.663 34.6552 158.646 34.2036 158.646 33.7478Z" fill="#FFE4EE"/>
<path d="M166.227 44.5735C167.645 44.5735 168.794 43.1227 168.794 41.333C168.794 39.5433 167.645 38.0925 166.227 38.0925C164.809 38.0925 163.66 39.5433 163.66 41.333C163.66 43.1227 164.809 44.5735 166.227 44.5735Z" fill="white"/>
<path d="M178.628 44.6193C180.046 44.6193 181.196 43.1685 181.196 41.3788C181.196 39.5892 180.046 38.1384 178.628 38.1384C177.21 38.1384 176.061 39.5892 176.061 41.3788C176.061 43.1685 177.21 44.6193 178.628 44.6193Z" fill="white"/>
<path d="M165.244 43.5366C166.117 43.5366 166.825 42.55 166.825 41.333C166.825 40.1161 166.117 39.1295 165.244 39.1295C164.371 39.1295 163.664 40.1161 163.664 41.333C163.664 42.55 164.371 43.5366 165.244 43.5366Z" fill="#2D2D37"/>
<path d="M177.591 43.5153C178.437 43.5153 179.122 42.5606 179.122 41.3829C179.122 40.2052 178.437 39.2504 177.591 39.2504C176.746 39.2504 176.061 40.2052 176.061 41.3829C176.061 42.5606 176.746 43.5153 177.591 43.5153Z" fill="#2D2D37"/>
<path d="M178.72 46.0409C181.311 46.0409 183.412 43.9405 183.412 41.3496C183.412 38.7586 181.311 36.6582 178.72 36.6582C176.129 36.6582 174.029 38.7586 174.029 41.3496C174.029 43.9405 176.129 46.0409 178.72 46.0409Z" stroke="#B4B4BE" stroke-width="0.901244" stroke-miterlimit="10"/>
<path d="M165.791 46.0409C168.382 46.0409 170.483 43.9405 170.483 41.3496C170.483 38.7586 168.382 36.6582 165.791 36.6582C163.2 36.6582 161.1 38.7586 161.1 41.3496C161.1 43.9405 163.2 46.0409 165.791 46.0409Z" stroke="#B4B4BE" stroke-width="0.901244" stroke-miterlimit="10"/>
<path d="M183.257 40.0663L197.8 40.242" stroke="#B4B4BE" stroke-width="0.901244" stroke-miterlimit="10" stroke-linecap="round"/>
<path d="M178.833 51.0042C176.601 52.1875 169.572 52.3213 167.293 51.2259C166.971 51.0711 166.708 51.6691 166.879 52.175C167.724 54.6796 170.237 56.465 173.168 56.4106C176.099 56.3562 178.537 54.4705 179.289 51.9367C179.436 51.4266 179.147 50.837 178.833 51.0042Z" fill="#FF7BA4"/>
<path d="M210.368 36.399C209.594 32.3223 207.96 26.0505 206.956 23.5668C203.247 14.4015 197.402 11.7004 194.258 10.1743C194.095 10.0948 193.869 10.007 193.643 9.91919C192.949 9.65159 191.962 9.35472 190.779 9.0704C190.632 9.03695 190.486 8.99932 190.348 8.96587C190.06 8.89897 189.763 8.83207 189.453 8.76935C188.007 8.48502 186.886 8.48084 186.246 9.34218C185.975 7.99164 184.055 8.05436 182.291 8C181.154 8.02927 180.016 8.14216 178.892 8.33032L176.755 8.68991C169.467 9.90665 162.447 13.7994 159.281 20.4643C156.948 25.4149 156.451 31.0178 156.217 33.6687C155.87 37.6451 155.761 42.5455 156.643 45.8696C157.124 47.68 157.818 48.8508 159.022 50.6822L159.875 51.9533C159.858 51.8822 159.662 51.5979 159.645 51.5268C159.135 49.3484 159.123 48.2529 159.327 46.225C159.511 44.402 159.424 42.6667 159.256 40.9315L158.964 38.1552C167.748 31.1098 165.286 25.7745 169.551 25.7912C172.528 25.8038 172.436 27.7062 174.719 27.9027C207.571 30.7251 185.979 65.5967 201.445 57.9826C215.85 50.8996 211.2 40.7935 210.368 36.399Z" fill="#2D2D37"/>
<path d="M192.364 42.2947C192.364 39.8194 194.224 37.8291 196.474 37.9504C198.468 38.0591 200.103 39.8821 200.191 42.1024C200.233 43.1226 199.952 44.0634 199.459 44.8244C199.024 45.4975 198.631 46.2042 198.23 46.9066C197.59 48.0272 196.394 48.7213 195.073 48.5122C193.798 48.3115 192.74 47.2286 192.447 45.8362C192.364 45.4348 192.343 45.0418 192.376 44.6697C192.439 43.963 192.405 43.2564 192.368 42.5456C192.368 42.462 192.364 42.3783 192.364 42.2947Z" fill="#FFE4EE"/>
<path d="M197.109 42.1937L196.499 42.8042C195.88 43.423 195.88 44.4265 196.499 45.0495" stroke="#FFBED2" stroke-width="1.17162" stroke-miterlimit="10" stroke-linecap="round" stroke-linejoin="round"/>
<path d="M172.139 47.3373C171.294 47.3583 170.533 46.9945 170.019 46.4049C169.413 45.7108 169.609 44.6864 170.211 43.9923C171.721 42.2446 172.005 38.6027 172.005 38.6027" stroke="#FFBED2" stroke-width="1.17162" stroke-miterlimit="10" stroke-linecap="round" stroke-linejoin="round"/>
<path d="M170.299 40.0663H174.209" stroke="#B4B4BE" stroke-width="0.901244" stroke-miterlimit="10" stroke-linecap="round"/>
<path d="M159.06 40.0663H161.101" stroke="#B4B4BE" stroke-width="0.901244" stroke-miterlimit="10" stroke-linecap="round"/>
</g>
<defs>
<radialGradient id="paint0_radial_3198:49523" cx="0" cy="0" r="1" gradientUnits="userSpaceOnUse" gradientTransform="translate(87.2441 68.083) rotate(-0.582484) scale(65.8553 50.6999)">
<stop stop-color="#00B8FF"/>
<stop offset="1" stop-color="#CCE0F4" stop-opacity="0"/>
</radialGradient>
</defs>
</svg>
