<svg width="362" height="263" viewBox="0 0 362 263" fill="none" xmlns="http://www.w3.org/2000/svg">
<g opacity="0.6">
<path d="M341.194 215.687L360.945 218.153L362 209.7L342.25 207.233L341.194 215.687Z" fill="#CDFFB9"/>
<path d="M251.255 201.758L268.084 212.386L272.633 205.183L255.804 194.555L251.255 201.758Z" fill="#CDFFB9"/>
<path d="M36.8894 46.0308L53.718 56.6594L58.2674 49.4563L41.4388 38.8277L36.8894 46.0308Z" fill="#CDFFB9"/>
<path d="M164.142 260.04L172.342 262.351L177.74 243.193L169.54 240.883L164.142 260.04Z" fill="#CDFFB9"/>
<path d="M337.499 104.485L345.699 106.795L351.097 87.6378L342.897 85.3274L337.499 104.485Z" fill="#CDFFB9"/>
<path d="M163.14 19.1573L171.34 21.4678L176.738 2.31046L168.538 -3.66483e-06L163.14 19.1573Z" fill="#CDFFB9"/>
<path d="M104.14 59.1573L112.34 61.4678L117.738 42.3105L109.538 40L104.14 59.1573Z" fill="#CDFFB9"/>
<path d="M259.615 250.316L264.022 257.607L281.056 247.311L276.649 240.02L259.615 250.316Z" fill="#CDFFB9"/>
<path d="M55.2012 192.484L74.2769 198.163L76.7075 189.998L57.6318 184.319L55.2012 192.484Z" fill="#CDFFB9"/>
<path d="M60.2012 252.484L79.2769 258.163L81.7075 249.998L62.6318 244.319L60.2012 252.484Z" fill="#CDFFB9"/>
<path d="M191.987 53.0783L211.063 58.7568L213.494 50.5919L194.418 44.9133L191.987 53.0783Z" fill="#CDFFB9"/>
<path d="M10.6283 216.417L10.6841 236.321L19.2035 236.297L19.1476 216.393L10.6283 216.417Z" fill="#CDFFB9"/>
<path d="M-8.77985e-06 21.0421L0.0558167 40.9458L8.57521 40.9219L8.51938 21.0182L-8.77985e-06 21.0421Z" fill="#CDFFB9"/>
<path d="M269.492 17.7962L269.548 37.7L278.068 37.676L278.012 17.7723L269.492 17.7962Z" fill="#CDFFB9"/>
<path d="M1.30456 117.68L5.20218 125.255L22.9006 116.149L19.0029 108.574L1.30456 117.68Z" fill="#CDFFB9"/>
<path d="M313.66 58.4478L317.557 66.0232L335.256 56.9172L331.358 49.3418L313.66 58.4478Z" fill="#CDFFB9"/>
<path d="M124.234 211.109L128.642 218.399L145.674 208.101L141.266 200.811L124.234 211.109Z" fill="#CDFFB9"/>
</g>
</svg>
