<svg width="362" height="263" viewBox="0 0 362 263" fill="none" xmlns="http://www.w3.org/2000/svg">
<g opacity="0.6">
<path d="M341.194 215.687L360.945 218.153L362 209.699L342.25 207.233L341.194 215.687Z" fill="#FFF0C8"/>
<path d="M251.255 201.757L268.084 212.386L272.633 205.183L255.804 194.554L251.255 201.757Z" fill="#FFF0C8"/>
<path d="M36.8894 46.0306L53.718 56.6592L58.2674 49.456L41.4388 38.8275L36.8894 46.0306Z" fill="#FFF0C8"/>
<path d="M164.142 260.04L172.342 262.351L177.74 243.193L169.54 240.883L164.142 260.04Z" fill="#FFF0C8"/>
<path d="M337.499 104.484L345.699 106.795L351.097 87.6376L342.897 85.3271L337.499 104.484Z" fill="#FFF0C8"/>
<path d="M163.14 19.1573L171.34 21.4678L176.738 2.31046L168.538 -3.66483e-06L163.14 19.1573Z" fill="#FFF0C8"/>
<path d="M104.14 59.1568L112.34 61.4673L117.738 42.31L109.538 39.9995L104.14 59.1568Z" fill="#FFF0C8"/>
<path d="M259.615 250.316L264.022 257.607L281.056 247.311L276.649 240.02L259.615 250.316Z" fill="#FFF0C8"/>
<path d="M55.2012 192.484L74.2769 198.162L76.7075 189.997L57.6318 184.319L55.2012 192.484Z" fill="#FFF0C8"/>
<path d="M60.2012 252.484L79.2769 258.163L81.7075 249.998L62.6318 244.319L60.2012 252.484Z" fill="#FFF0C8"/>
<path d="M191.987 53.0778L211.063 58.7563L213.494 50.5914L194.418 44.9128L191.987 53.0778Z" fill="#FFF0C8"/>
<path d="M10.6283 216.417L10.6841 236.32L19.2035 236.296L19.1476 216.393L10.6283 216.417Z" fill="#FFF0C8"/>
<path d="M-8.77985e-06 21.0416L0.0558167 40.9453L8.57521 40.9214L8.51938 21.0177L-8.77985e-06 21.0416Z" fill="#FFF0C8"/>
<path d="M269.492 17.796L269.548 37.6997L278.068 37.6758L278.012 17.7721L269.492 17.796Z" fill="#FFF0C8"/>
<path d="M1.30456 117.679L5.20218 125.255L22.9006 116.149L19.0029 108.573L1.30456 117.679Z" fill="#FFF0C8"/>
<path d="M313.66 58.4475L317.557 66.0229L335.256 56.917L331.358 49.3416L313.66 58.4475Z" fill="#FFF0C8"/>
<path d="M124.234 211.109L128.642 218.399L145.674 208.101L141.266 200.811L124.234 211.109Z" fill="#FFF0C8"/>
</g>
</svg>
