<svg width="395" height="145" viewBox="0 0 395 145" fill="none" xmlns="http://www.w3.org/2000/svg">
<path d="M24.4536 101.279C19.1346 102.939 14.9394 107.135 13.2787 112.454C13.0415 113.228 11.9927 113.228 11.7554 112.454C10.0948 107.135 5.89957 102.939 0.580592 101.279C-0.193531 101.042 -0.193531 99.9927 0.580592 99.7554C5.89957 98.0948 10.0948 93.8996 11.7554 88.5806C11.9927 87.8065 13.0415 87.8065 13.2787 88.5806C14.9394 93.8996 19.1346 98.0948 24.4536 99.7554C25.2277 99.9927 25.2277 101.029 24.4536 101.279Z" fill="#33D4DE"/>
<path d="M45.5797 127.211C42.658 128.322 40.3356 130.645 39.2244 133.567C38.9747 134.216 38.0382 134.216 37.7885 133.567C36.6773 130.645 34.3549 128.322 31.4332 127.211C30.784 126.962 30.784 126.025 31.4332 125.775C34.3549 124.664 36.6773 122.342 37.7885 119.42C38.0382 118.771 38.9747 118.771 39.2244 119.42C40.3356 122.342 42.658 124.664 45.5797 125.775C46.229 126.025 46.229 126.962 45.5797 127.211Z" fill="#FF678D"/>
<path d="M44.2307 109.781C46.5684 109.781 48.4634 107.886 48.4634 105.549C48.4634 103.211 46.5684 101.316 44.2307 101.316C41.8931 101.316 39.998 103.211 39.998 105.549C39.998 107.886 41.8931 109.781 44.2307 109.781Z" fill="#D5D5DE"/>
<path d="M375.594 30.124C373.422 38.5644 366.779 45.2194 358.339 47.3794C357.577 47.5792 357.577 48.6904 358.339 48.8777C366.779 51.0503 373.434 57.6927 375.594 66.1332C375.794 66.8948 376.905 66.8948 377.093 66.1332C379.265 57.6927 385.908 51.0378 394.348 48.8777C395.11 48.6779 395.11 47.5667 394.348 47.3794C385.908 45.2069 379.253 38.5644 377.093 30.124C376.905 29.3623 375.794 29.3623 375.594 30.124Z" fill="#5A87FA"/>
<path d="M356.253 19.0991C352.945 20.3102 350.31 22.9447 349.099 26.2535C348.862 26.9152 347.888 26.9152 347.651 26.2535C346.44 22.9447 343.805 20.3102 340.496 19.0991C339.835 18.8618 339.835 17.8879 340.496 17.6507C343.805 16.4396 346.44 13.8051 347.651 10.4963C347.888 9.83456 348.862 9.83456 349.099 10.4963C350.31 13.8051 352.945 16.4396 356.253 17.6507C356.903 17.8879 356.903 18.8618 356.253 19.0991Z" fill="#FF678D"/>
<path d="M221.397 11.9864C224.706 11.9864 227.39 9.30317 227.39 5.99321C227.39 2.68325 224.706 0 221.397 0C218.087 0 215.403 2.68325 215.403 5.99321C215.403 9.30317 218.087 11.9864 221.397 11.9864Z" fill="#D5D5DE"/>
<path d="M212.469 26.8073H207.312L209.922 24.1977C210.334 23.7857 210.334 23.1114 209.922 22.6994C209.51 22.2874 208.835 22.2874 208.423 22.6994L205.826 25.2965V19.0286C205.826 18.4417 205.352 17.9673 204.765 17.9673C204.178 17.9673 203.704 18.4417 203.704 19.0286V25.2965L201.107 22.6994C200.695 22.2874 200.02 22.2874 199.608 22.6994C199.196 23.1114 199.196 23.7857 199.608 24.1977L202.218 26.8073H197.061C196.474 26.8073 196 27.2818 196 27.8686C196 28.4554 196.474 28.9299 197.061 28.9299H202.218L199.608 31.5394C199.196 31.9515 199.196 32.6257 199.608 33.0377C199.821 33.25 200.083 33.3499 200.358 33.3499C200.632 33.3499 200.907 33.25 201.107 33.0377L203.704 30.4406V36.7086C203.704 37.2954 204.178 37.7699 204.765 37.7699C205.352 37.7699 205.826 37.2954 205.826 36.7086V30.4406L208.423 33.0377C208.636 33.25 208.898 33.3499 209.173 33.3499C209.447 33.3499 209.722 33.25 209.922 33.0377C210.334 32.6257 210.334 31.9515 209.922 31.5394L207.312 28.9299H212.469C213.056 28.9299 213.53 28.4554 213.53 27.8686C213.53 27.2818 213.056 26.8073 212.469 26.8073Z" fill="#EEEEF5"/>
<path d="M60.5869 22.1215H53.4075L58.0523 17.4768C58.6017 16.9274 58.6017 16.0284 58.0523 15.479C57.5029 14.9296 56.6039 14.9296 56.0545 15.479L51.4098 20.1238V9.41091C51.4098 8.63678 50.773 8 49.9989 8C49.2248 8 48.588 8.63678 48.588 9.41091V20.1238L43.9433 15.479C43.3939 14.9296 42.4949 14.9296 41.9455 15.479C41.3961 16.0284 41.3961 16.9274 41.9455 17.4768L46.5902 22.1215H39.4109C38.6368 22.1215 38 22.7583 38 23.5324C38 24.3065 38.6368 24.9433 39.4109 24.9433H46.5902L41.9455 29.588C41.3961 30.1374 41.3961 31.0364 41.9455 31.5858C42.2202 31.8605 42.5823 31.9978 42.9444 31.9978C43.3065 31.9978 43.6686 31.8605 43.9433 31.5858L48.588 26.941V37.6539C48.588 38.428 49.2248 39.0648 49.9989 39.0648C50.773 39.0648 51.4098 38.428 51.4098 37.6539V26.941L56.0545 31.5858C56.3292 31.8605 56.6913 31.9978 57.0534 31.9978C57.4155 31.9978 57.7776 31.8605 58.0523 31.5858C58.6017 31.0364 58.6017 30.1374 58.0523 29.588L53.4075 24.9433H60.5869C61.361 24.9433 61.9978 24.3065 61.9978 23.5324C61.9978 22.7583 61.361 22.1215 60.5869 22.1215Z" fill="#EEEEF5"/>
<path d="M239.821 83.5265L228.832 83.3242C227.214 83.3242 226 81.9759 226 80.3579C226 78.7398 227.348 77.5263 228.966 77.5263L242.517 77.796C244.944 77.8634 247.236 78.2679 249.461 79.0095C250.877 79.4814 252.293 78.1331 251.753 76.7173L250.405 72.6723C250.001 71.1217 250.877 69.5711 252.428 69.0992C253.978 68.6273 255.529 69.5711 256.001 71.1217L267.529 109.347C267.664 109.819 268.338 109.752 268.405 109.212L270.158 92.1559L288.091 94.92L285.732 116.224C284.72 124.988 277.237 131.527 268.473 131.393C261.192 131.258 254.72 126.673 252.158 119.864L246.023 99.774C245.484 98.156 244 97.0773 242.315 97.0773C240.967 97.0773 239.753 96.4031 239.012 95.2571L237.393 92.7626L240.899 90.5379L239.821 83.5265Z" fill="#FFE4EE"/>
<path d="M235.506 48.9416C234.158 43.8179 230.382 44.1549 230.382 41.4583C228.495 44.0201 226.944 47.5932 227.753 50.8967C228.63 54.2001 230.383 54.8743 233.214 56.2226C235.102 53.6608 236.383 52.245 235.506 48.9416Z" fill="#FCF6E5"/>
<path d="M228.764 51.3681C227.416 47.9972 227.821 45.0983 229.776 42.132" stroke="#EBDCC8" stroke-width="0.230843" stroke-miterlimit="10" stroke-linecap="round"/>
<path d="M233.079 55.7514C231.394 55.0772 230.045 53.9985 229.236 52.3805" stroke="#EBDCC8" stroke-width="0.230843" stroke-miterlimit="10" stroke-linecap="round"/>
<path d="M229.506 50.2231C228.562 47.3242 228.292 44.8298 229.775 42.0657" stroke="#EBDCC8" stroke-width="0.230843" stroke-miterlimit="10" stroke-linecap="round"/>
<path d="M233.079 55.8188C231.933 55.0098 230.989 53.9986 230.45 52.7177" stroke="#EBDCC8" stroke-width="0.230843" stroke-miterlimit="10" stroke-linecap="round"/>
<path d="M229.438 46.0433C229.169 44.6949 229.236 43.3466 229.775 42.0657" stroke="#EBDCC8" stroke-width="0.230843" stroke-miterlimit="10" stroke-linecap="round"/>
<path d="M230.787 50.5603C230.517 49.6164 230.18 48.6726 229.91 47.7288" stroke="#EBDCC8" stroke-width="0.230843" stroke-miterlimit="10" stroke-linecap="round"/>
<path d="M233.079 55.8188C232.203 54.7401 231.663 53.4592 231.191 52.1108" stroke="#EBDCC8" stroke-width="0.230843" stroke-miterlimit="10" stroke-linecap="round"/>
<path d="M230.045 45.6388C229.506 44.4927 229.304 43.3466 229.708 42.0657" stroke="#EBDCC8" stroke-width="0.230843" stroke-miterlimit="10" stroke-linecap="round"/>
<path d="M233.079 55.8184C232.27 53.1892 232 50.425 230.989 47.7958" stroke="#EBDCC8" stroke-width="0.230843" stroke-miterlimit="10" stroke-linecap="round"/>
<path d="M233.079 55.8188C233.214 53.7288 233.618 52.3131 232.674 49.2119C231.393 44.9646 229.236 44.5601 229.708 42.0657" stroke="#EBDCC8" stroke-width="0.230843" stroke-miterlimit="10" stroke-linecap="round"/>
<path d="M232.944 47.0545C232.068 45.5039 229.573 44.0208 229.708 42.0657" stroke="#EBDCC8" stroke-width="0.230843" stroke-miterlimit="10" stroke-linecap="round"/>
<path d="M234.225 51.9756C234.293 50.8295 234.091 49.6834 233.686 48.6047" stroke="#EBDCC8" stroke-width="0.230843" stroke-miterlimit="10" stroke-linecap="round"/>
<path d="M233.079 55.8189C233.281 55.2795 233.551 54.6728 233.753 54.1334" stroke="#EBDCC8" stroke-width="0.230843" stroke-miterlimit="10" stroke-linecap="round"/>
<path d="M235.101 51.976C235.573 49.6164 234.427 46.9197 232.674 45.3017C231.596 44.3579 229.775 43.6837 229.708 42.0657" stroke="#EBDCC8" stroke-width="0.230843" stroke-miterlimit="10" stroke-linecap="round"/>
<path d="M233.079 55.8189C233.348 55.347 233.685 54.9425 233.955 54.4706" stroke="#EBDCC8" stroke-width="0.230843" stroke-miterlimit="10" stroke-linecap="round"/>
<path d="M247.439 113.663C247.641 114.337 248.652 114.067 248.517 113.393C245.618 97.4825 242.113 81.7069 237.933 66.1335L237.731 65.2571H237.663L233.753 66.2683H233.686L233.955 67.1448C237.798 82.7855 242.315 98.3589 247.439 113.663Z" fill="#998675"/>
<path d="M231.057 55.3468L234.765 54.403C235.102 54.3355 235.439 54.5378 235.506 54.8075L238.607 66.8077C238.675 67.1448 238.473 67.4819 238.203 67.5493L234.495 68.4931C234.158 68.5606 233.821 68.3583 233.753 68.0886L230.652 56.0884C230.585 55.7513 230.72 55.4142 231.057 55.3468Z" fill="#CCCCCC"/>
<path d="M230.921 57.7738L236.045 56.4929C236.314 56.4255 236.584 56.5603 236.652 56.83C236.719 57.0996 236.584 57.3693 236.314 57.4367L231.191 58.7177C230.921 58.7851 230.651 58.6502 230.584 58.3806C230.517 58.1109 230.719 57.8412 230.921 57.7738Z" fill="#E6E6E6"/>
<path d="M227.281 48.4025C227.348 48.4699 227.483 48.5373 227.618 48.5373C228.427 48.5373 229.169 48.7396 229.843 48.8744C230.382 49.0093 230.854 49.1441 231.326 49.1441C233.348 49.2789 234.697 47.7283 234.832 46.3126C234.832 46.2452 234.832 46.1103 234.764 46.0429C234.023 44.8968 233.146 44.2227 232.405 43.6833C231.461 42.9417 230.854 42.4698 230.854 41.526C230.854 41.3237 230.719 41.1889 230.584 41.1215C230.517 41.1215 230.449 41.1215 230.315 41.1215C230.247 41.1215 230.112 41.1889 230.045 41.2563C228.899 42.8743 227.483 45.3013 227.146 48.1328C227.146 48.2003 227.213 48.3351 227.281 48.4025Z" fill="#FF678D"/>
<path d="M242.247 89.2575L236.18 89.1227C234.562 89.1227 233.348 87.7744 233.348 86.1564C233.348 84.5383 234.697 83.3248 236.315 83.3248L242.382 83.4597C244 83.4597 245.214 84.808 245.214 86.426C245.214 88.044 243.865 89.2575 242.247 89.2575Z" fill="#FFE4EE"/>
<path d="M243.731 95.0549L237.664 94.9201C236.046 94.9201 234.832 93.5717 234.832 91.9537C234.832 90.3357 236.18 89.1222 237.798 89.1222L243.866 89.257C245.484 89.257 246.697 90.6054 246.697 92.2234C246.63 93.8414 245.349 95.0549 243.731 95.0549Z" fill="#FFE4EE"/>
<path d="M236.315 83.3917L242.382 83.5266C244 83.5266 245.214 84.8749 245.214 86.4929C245.214 88.1109 243.866 89.3244 242.248 89.3244" stroke="#FFBED2" stroke-width="0.927502" stroke-miterlimit="10" stroke-linecap="round" stroke-linejoin="round"/>
<path d="M238.607 89.1897L243.798 89.3245C245.416 89.3245 246.63 90.6729 246.63 92.2909C246.63 93.9089 245.281 95.1224 243.663 95.1224H240.427" stroke="#FFBED2" stroke-width="0.927502" stroke-miterlimit="10" stroke-linecap="round" stroke-linejoin="round"/>
<path d="M251.821 82.5826C251.821 82.5826 249.596 91.8862 253.439 94.111" stroke="#FFBED2" stroke-width="0.927502" stroke-miterlimit="10" stroke-linecap="round" stroke-linejoin="round"/>
<path d="M268.271 111.1L268.405 113.527" stroke="#FFBED2" stroke-width="0.927502" stroke-miterlimit="10" stroke-linecap="round" stroke-linejoin="round"/>
<path opacity="0.5" d="M269.417 99.5047C275.147 100.988 280.945 103.347 286.878 105.909L288.024 95.8642L270.226 92.2236L269.417 99.5047Z" fill="#FFBED2"/>
<path d="M282.428 100.718C283.575 101.055 284.384 102.134 284.316 103.348L281.485 141.303C281.35 142.719 282.496 144 283.979 144H339.463C340.947 144 342.093 142.719 341.958 141.236L338.182 103.415C338.048 102.201 338.857 101.055 340.07 100.718L353.419 97.4148C354.565 97.1452 355.441 95.9317 355.306 94.7182C353.891 82.7853 340.947 72.875 323.688 69.7064C322.676 69.5041 321.935 68.6951 321.733 67.7513C321.53 66.8749 320.924 66.1333 320.047 65.8636C314.519 64.0433 308.923 64.0433 303.395 65.8636C302.519 66.1333 301.912 66.8749 301.71 67.7513C301.508 68.7626 300.766 69.5716 299.755 69.7064C282.226 72.9424 269.147 83.1224 268.069 95.3923C268.001 96.2688 268.608 97.1452 269.484 97.3474L282.428 100.718Z" fill="#FF915A"/>
<path d="M321.732 72.4702L318.024 77.4591C317.418 78.2681 316.272 78.3355 315.53 77.6613L312.901 75.0995C312.227 74.4927 311.215 74.4927 310.541 75.0995L307.912 77.6613C307.17 78.3355 306.024 78.2681 305.417 77.4591L301.709 72.4702" stroke="#FF8737" stroke-width="0.857888" stroke-miterlimit="10" stroke-linecap="round" stroke-linejoin="round"/>
<path d="M311.687 79.0775C312.097 79.0775 312.429 78.7455 312.429 78.3359C312.429 77.9264 312.097 77.5944 311.687 77.5944C311.278 77.5944 310.946 77.9264 310.946 78.3359C310.946 78.7455 311.278 79.0775 311.687 79.0775Z" fill="#E4E4E4"/>
<path d="M311.687 81.3694C312.097 81.3694 312.429 81.0374 312.429 80.6278C312.429 80.2183 312.097 79.8862 311.687 79.8862C311.278 79.8862 310.946 80.2183 310.946 80.6278C310.946 81.0374 311.278 81.3694 311.687 81.3694Z" fill="#E4E4E4"/>
<path d="M318.969 46.4467H304.272L302.924 65.9976C302.317 71.1888 306.362 71.9978 311.62 71.9978C316.812 71.9978 320.857 71.1888 320.317 65.9976L318.969 46.4467Z" fill="#FFDAE4"/>
<path d="M315.598 55.2112C312.834 57.4359 309.058 66.335 308.249 71.8632C305.216 71.4587 303.058 70.38 302.923 67.4137C302.923 66.8743 302.923 66.4024 302.991 66.1328V66.0653L303.665 55.6831L315.598 55.2112Z" fill="#FFCDDC"/>
<path d="M291.26 37.4807C291.26 27.9075 299.283 20.1545 308.991 20.6264C317.62 21.0309 324.632 28.1097 325.036 36.7391C325.238 40.7167 324.025 44.3573 321.868 47.3236C319.98 49.9529 317.89 51.8406 316.137 54.5372C313.373 58.8519 307.238 61.0767 302.317 59.998C297.395 58.9194 293.822 54.6721 292.878 51.2338C292.474 49.6832 292.474 47.7281 292.406 46.2449C292.271 43.6157 291.463 41.1886 291.26 38.492C291.26 38.1549 291.26 37.8178 291.26 37.4807Z" fill="#FFE4EE"/>
<path d="M319.508 53.5932C319.508 53.5932 329.553 48.4695 327.531 36.604C325.576 24.7386 319.441 21.5026 316.677 20.6262C313.98 19.7497 300.564 14.9631 294.294 24.9409C288.024 34.9186 289.845 39.1659 291.732 41.8626C291.732 41.8626 293.755 29.9297 298.744 28.4466C299.216 28.3117 299.755 28.5814 299.957 29.0533C300.429 30.3342 301.912 32.8961 306.766 33.8399C313.238 35.1209 313.845 40.1097 316.474 40.7839C319.171 41.4581 318.969 49.8852 319.508 53.5932Z" fill="#333333"/>
<path d="M317.958 43.6151C317.958 41.8623 319.306 40.4465 320.924 40.5139C322.34 40.5813 323.486 41.8623 323.553 43.4803C323.553 44.2219 323.351 44.896 323.014 45.4354C322.677 45.9073 322.407 46.4466 322.137 46.9185C321.665 47.7275 320.856 48.1995 319.913 48.0646C318.969 47.9298 318.227 47.1208 318.025 46.177C317.958 45.9073 317.958 45.6376 317.958 45.3679C318.025 44.896 317.958 44.3567 317.958 43.8848C317.958 43.7499 317.958 43.6825 317.958 43.6151Z" fill="#FFE4EE"/>
<path d="M330.501 28.3298C333.002 25.8286 332.661 21.432 329.738 18.5096C326.816 15.5872 322.419 15.2457 319.918 17.7469C317.417 20.248 317.759 24.6447 320.681 27.5671C323.603 30.4894 328 30.8309 330.501 28.3298Z" fill="#333333"/>
<path d="M298.07 43.6829C299.075 43.6829 299.89 42.5359 299.89 41.1211C299.89 39.7062 299.075 38.5592 298.07 38.5592C297.064 38.5592 296.25 39.7062 296.25 41.1211C296.25 42.5359 297.064 43.6829 298.07 43.6829Z" fill="white"/>
<path d="M307.171 43.6829C308.176 43.6829 308.991 42.5359 308.991 41.1211C308.991 39.7062 308.176 38.5592 307.171 38.5592C306.166 38.5592 305.351 39.7062 305.351 41.1211C305.351 42.5359 306.166 43.6829 307.171 43.6829Z" fill="white"/>
<path d="M297.396 42.6717C298.029 42.6717 298.542 41.9775 298.542 41.1212C298.542 40.2648 298.029 39.5706 297.396 39.5706C296.763 39.5706 296.25 40.2648 296.25 41.1212C296.25 41.9775 296.763 42.6717 297.396 42.6717Z" fill="#333333"/>
<path d="M306.429 42.6717C307.025 42.6717 307.508 41.9775 307.508 41.1212C307.508 40.2648 307.025 39.5706 306.429 39.5706C305.834 39.5706 305.351 40.2648 305.351 41.1212C305.351 41.9775 305.834 42.6717 306.429 42.6717Z" fill="#333333"/>
<path d="M306.227 48.402C304.811 49.1436 300.429 49.1436 299.014 48.402C298.811 48.3346 298.609 48.6717 298.744 49.0087C299.216 50.5593 300.766 51.7054 302.587 51.7054C304.407 51.7054 305.958 50.5593 306.429 49.0087C306.632 48.6717 306.429 48.3346 306.227 48.402Z" fill="#FF7BA4"/>
<path d="M321.328 43.548L320.924 43.9525C320.452 44.4244 320.452 45.0986 320.924 45.5705" stroke="#FFBED2" stroke-width="0.911581" stroke-miterlimit="10" stroke-linecap="round" stroke-linejoin="round"/>
<path d="M302.586 45.5032C301.507 45.5032 300.631 44.6942 300.563 43.6155C300.563 42.9414 301.103 42.4694 301.575 42.1324C302.114 41.7953 302.451 41.1211 302.451 40.4469V38.9637" stroke="#FFBED2" stroke-width="0.911581" stroke-miterlimit="10" stroke-linecap="round" stroke-linejoin="round"/>
<path d="M274.946 4.04174L271.238 2.49115C259.507 -2.36289 246.024 3.23274 241.102 14.9633C237.327 24.0646 241.642 34.5143 250.811 38.2897L255.125 40.1099C258.698 41.5931 262.271 38.02 260.788 34.4469C259.305 30.8738 262.878 27.3007 266.451 28.7838L269.687 30.1322C275.013 32.357 281.148 29.7951 283.373 24.4691C286.676 16.5139 282.901 7.34519 274.946 4.04174ZM252.631 30.1322C250.945 30.1322 249.597 28.7838 249.597 27.0984C249.597 25.413 250.945 24.0646 252.631 24.0646C254.316 24.0646 255.665 25.413 255.665 27.0984C255.665 28.7164 254.316 30.1322 252.631 30.1322Z" fill="#998675"/>
<path d="M274.136 3.30005L270.428 1.74945C258.765 -3.10459 245.282 2.49104 240.36 14.2216C236.585 23.3229 240.9 33.7726 250.068 37.548L254.383 39.3682C257.956 40.8514 261.529 37.2783 260.046 33.7052C258.563 30.1321 262.136 26.559 265.709 28.0421L268.945 29.3905C274.271 31.6153 280.406 29.0534 282.631 23.7274C285.934 15.7722 282.159 6.60349 274.136 3.30005ZM251.889 29.3231C250.203 29.3231 248.855 27.9747 248.855 26.2893C248.855 24.6039 250.203 23.2555 251.889 23.2555C253.574 23.2555 254.922 24.6039 254.922 26.2893C254.922 27.9747 253.574 29.3231 251.889 29.3231Z" fill="#D2BEAA"/>
<path d="M258.159 8.82857C258.294 9.16566 258.226 9.57016 258.091 9.97467C257.956 10.4466 257.822 10.9185 257.619 11.323C257.417 11.5927 257.215 11.8623 256.878 12.0646C256.541 12.2668 256.136 12.3343 255.799 12.4017C255.395 12.4691 254.99 12.6039 254.586 12.7388C254.249 12.8736 253.911 13.0084 253.574 13.0084C252.968 13.0084 252.496 12.8062 252.024 12.4691C251.552 12.1994 251.147 11.8623 250.743 11.5253C250.406 11.1882 250.204 10.7163 250.069 10.2443C249.799 8.89599 250.743 7.61507 252.024 6.94089C253.305 6.19931 254.99 6.13189 256.338 6.60381C256.945 6.80606 257.485 7.27798 257.687 7.88473C257.754 8.01957 257.754 8.22182 257.889 8.35665C257.889 8.49149 258.024 8.55891 258.159 8.82857C258.159 8.76116 258.159 8.76116 258.159 8.82857Z" fill="#7896FF"/>
<path d="M264.024 9.63723C263.687 9.56981 263.417 9.43498 263.147 9.23273C262.81 9.03047 262.473 8.82822 262.203 8.55855C262.001 8.3563 261.866 8.15405 261.799 7.9518C261.732 7.68213 261.799 7.5473 261.866 7.27763C261.934 7.00796 261.934 6.80571 261.934 6.53604C261.934 6.33379 261.934 6.13154 262.001 5.92928C262.136 5.5922 262.473 5.45736 262.878 5.32253C263.215 5.1877 263.619 5.12028 264.024 4.98544C264.361 4.91803 264.833 4.98544 265.237 5.05286C266.451 5.38995 267.192 6.26637 267.327 7.07538C267.529 7.9518 267.125 8.82822 266.316 9.30014C265.911 9.50239 265.439 9.63723 264.833 9.56981C264.698 9.56981 264.563 9.50239 264.428 9.50239C264.361 9.63723 264.226 9.70465 264.024 9.63723C264.091 9.63723 264.024 9.63723 264.024 9.63723Z" fill="#FFE5E0"/>
<path d="M247.102 16.5817C246.9 16.7165 246.63 16.8514 246.361 16.9188C246.024 16.9862 245.754 17.0536 245.484 17.121C245.282 17.121 245.08 17.121 244.945 16.9862C244.743 16.9188 244.675 16.7165 244.608 16.5817C244.473 16.4469 244.338 16.312 244.203 16.1098C244.069 15.9749 244.001 15.9075 243.934 15.7053C243.866 15.4356 243.934 15.1659 244.069 14.8288C244.203 14.5592 244.338 14.2895 244.54 14.0198C244.675 13.7502 245.012 13.5479 245.282 13.3457C246.091 12.8063 247.035 12.8737 247.642 13.2108C248.248 13.5479 248.518 14.2895 248.383 15.0311C248.316 15.3682 248.114 15.7053 247.776 15.9749C247.709 16.0423 247.574 16.1098 247.507 16.1772C247.305 16.3794 247.237 16.5143 247.102 16.5817C247.17 16.5817 247.102 16.5817 247.102 16.5817Z" fill="#D3E0FA"/>
<path d="M279.934 18.6038C280.137 19.0083 280.204 19.4802 280.069 19.9521C279.867 20.8285 279.193 21.5701 278.316 21.9746C277.507 22.3791 276.564 22.4465 275.62 22.5814C275.013 22.6488 274.339 22.7836 273.732 22.6488C273.26 22.5139 272.856 22.3117 272.519 22.042C271.777 21.3679 271.642 20.4914 271.642 19.5476C271.71 18.6712 272.114 17.9296 272.451 17.1206C272.788 16.4464 273.125 15.8396 273.665 15.3677C274.406 14.761 275.755 14.6936 276.564 15.2329C277.17 15.6374 277.642 16.2442 278.114 16.8509C278.586 17.3902 279.193 17.6599 279.597 18.2667C279.8 18.2667 279.867 18.4689 279.934 18.6038Z" fill="#FF678D"/>
<path d="M271.17 13.2101C270.833 13.2775 270.496 13.4123 270.159 13.4798C269.957 13.5472 269.957 13.682 270.024 13.8168C269.282 14.2213 268.541 14.6258 267.799 15.0303C267.26 15.3 266.721 15.5697 266.249 15.8394C266.653 15.6371 267.058 15.3674 267.462 15.0978C268.473 14.491 269.417 13.8168 270.361 13.2101C270.563 13.0752 270.361 12.6707 270.091 12.8056C268.204 13.682 266.383 14.6933 264.563 15.7045C264.294 15.8394 264.428 16.1764 264.631 16.1764C264.428 16.3113 264.226 16.4461 264.024 16.5809C263.822 16.7158 263.956 16.9854 264.159 17.0529C264.563 17.1203 265.035 16.918 265.372 16.7832C266.046 16.5135 266.721 16.1764 267.395 15.8394C268.676 15.1652 269.957 14.3562 271.305 13.682C271.642 13.4798 271.44 13.0752 271.17 13.2101Z" fill="#FF678D"/>
<path d="M271.642 13.0753C271.709 12.873 271.575 12.6034 271.372 12.7382C270.159 13.345 268.878 13.9517 267.664 14.6259C267.125 14.8955 266.653 15.2326 266.114 15.5697C265.574 15.9068 264.968 16.1765 264.496 16.581C264.294 16.7158 264.428 17.0529 264.698 16.9855H264.631C264.361 17.1203 264.563 17.5922 264.833 17.4574C265.979 16.7832 267.193 16.1765 268.339 15.5023C268.811 15.2326 269.282 14.963 269.754 14.6933C270.091 14.5585 270.429 14.3562 270.766 14.154C271.17 13.9517 271.507 13.8169 271.844 13.4798C271.844 13.345 271.777 13.1427 271.642 13.0753Z" fill="#FF4682"/>
<path d="M270.226 13.4117C270.159 13.4117 270.159 13.4117 270.226 13.4117C270.159 13.4117 270.159 13.4117 270.226 13.4117C270.159 13.4117 270.159 13.4117 270.226 13.4117C269.485 12.9398 268.541 12.8724 267.732 12.7375C267.732 12.7375 267.732 12.7375 267.665 12.7375C266.923 12.5353 266.047 12.4004 265.372 12.2656C265.238 12.1982 265.103 12.333 265.103 12.4679C265.035 12.4679 264.968 12.4679 264.833 12.4679C264.766 12.4679 264.698 12.4679 264.698 12.5353C264.563 12.5353 264.429 12.7375 264.496 12.8724C264.833 13.4791 265.912 13.614 266.518 13.7488C267.732 14.0185 268.945 14.2207 270.159 14.4904C270.361 14.5578 270.564 14.1533 270.361 14.0185C270.226 13.951 270.159 13.8836 270.024 13.8162C270.226 13.8836 270.429 13.5465 270.226 13.4117Z" fill="#FF4682"/>
<path d="M270.429 13.5469C270.698 13.5469 270.766 13.075 270.496 13.075C269.485 12.9402 268.406 12.7379 267.395 12.4683C267.26 12.4683 267.193 12.5357 267.125 12.6031C266.99 12.6031 266.923 12.5357 266.788 12.5357C266.518 12.4683 266.316 12.8728 266.586 13.0076C266.653 13.0076 266.721 13.075 266.788 13.075C267.193 13.4795 267.867 13.6818 268.474 13.884C269.148 14.0863 269.889 14.2885 270.563 14.6256C270.833 14.7604 271.035 14.3559 270.833 14.2211H270.766C270.563 14.0863 270.361 14.0189 270.159 13.884C270.294 13.7492 270.429 13.6818 270.429 13.5469Z" fill="#FF678D"/>
<path d="M270.227 11.3225C269.215 11.7944 268.339 12.4012 267.395 13.0079C266.451 13.6821 265.507 14.4911 264.429 14.8956C264.159 15.0304 264.294 15.3675 264.564 15.3675C264.564 15.4349 264.564 15.5024 264.631 15.5698C264.496 15.6372 264.361 15.772 264.226 15.8394C263.957 15.9743 264.226 16.3788 264.496 16.2439C265.44 15.8394 266.316 15.2327 267.193 14.6933C267.26 14.6259 267.328 14.5585 267.328 14.4911C268.406 13.8843 269.485 13.2102 270.564 12.6034C270.833 12.4686 270.698 11.9967 270.361 12.1315C269.822 12.3337 269.35 12.6034 268.811 12.8731C269.418 12.4686 270.024 12.0641 270.631 11.6596C270.698 11.5922 270.496 11.1877 270.227 11.3225Z" fill="#FF678D"/>
<path d="M271.305 12.1989C271.238 12.2663 271.17 12.2663 271.035 12.3338C271.103 12.1989 270.968 12.0641 270.901 11.9967C270.968 11.7944 270.766 11.5922 270.564 11.727C270.361 11.7944 270.092 11.9293 269.889 12.0641C269.755 12.1315 269.552 12.1989 269.417 12.3338C269.35 12.3338 269.283 12.4012 269.283 12.4686C269.013 12.6708 268.743 12.8731 268.474 13.0754C267.125 13.8169 265.844 14.6934 264.429 15.3675C264.159 15.5024 264.361 15.9743 264.631 15.8395C264.698 15.772 264.766 15.772 264.833 15.7046C264.429 15.9069 263.957 16.1091 263.552 16.244C263.282 16.3788 263.417 16.7833 263.754 16.7159C264.361 16.5136 264.9 16.244 265.507 15.9743C265.575 16.1091 265.709 16.244 265.844 16.1765C266.856 15.6372 267.799 14.963 268.743 14.3563C269.215 14.0866 269.687 13.8169 270.092 13.5473C270.159 13.4799 270.226 13.4124 270.159 13.2776C270.564 13.0079 271.035 12.7383 271.44 12.536C271.777 12.4686 271.575 12.0641 271.305 12.1989Z" fill="#FF4682"/>
<path d="M270.699 12.2656C270.631 12.2656 270.631 12.2656 270.564 12.2656C269.553 12.6701 268.609 13.142 267.665 13.7488C267.193 14.0859 266.654 14.4904 266.114 14.8275C265.71 15.0297 265.238 15.232 264.833 15.5016C264.564 15.6365 264.699 16.041 265.036 15.9735C265.508 15.8387 265.912 15.6365 266.317 15.3668C267.935 14.5578 269.485 13.6814 270.968 12.7375C271.171 12.5353 270.968 12.1982 270.699 12.2656Z" fill="#FF678D"/>
<path d="M353.014 97.5494L340.002 100.718C338.856 100.988 338.047 102.134 338.182 103.347L339.598 119.73V119.662C339.733 120.539 338.991 121.415 338.047 121.415L327.058 121.145C323.35 120.876 319.71 119.595 316.676 117.437C313.44 115.145 309.597 113.932 305.62 113.864C303.193 113.797 301.237 115.685 301.17 118.112L301.103 119.797C301.103 119.797 299.282 119.932 297.867 120.269C296.451 120.606 295.035 121.685 294.968 123.235C294.9 124.719 296.046 125.999 297.53 126.134C296.114 126.337 295.035 127.483 295.035 128.966V129.033C294.968 130.651 296.249 132 297.867 132H298.945C297.664 132.269 296.653 133.348 296.586 134.764C296.586 135.977 297.26 136.988 298.271 137.46C300.698 138.944 304.339 139.82 307.979 139.955L341.823 140.359C350.924 140.494 357.935 132.404 356.654 123.438L353.014 97.5494Z" fill="#FFE4EE"/>
<path d="M340.002 100.718C338.856 100.988 338.047 102.134 338.182 103.347L338.384 105.437C341.081 103.887 346.205 101.325 353.351 99.7069L353.014 97.6169L340.002 100.718Z" fill="#FFCDDC"/>
<path d="M302.046 120.134L308.721 120.336C308.721 120.336 306.226 120.134 306.226 118.516L306.159 120.269" stroke="#FFBED2" stroke-width="0.880041" stroke-miterlimit="10" stroke-linecap="round" stroke-linejoin="round"/>
<path d="M300.024 132H301.17" stroke="#FFBED2" stroke-width="0.880041" stroke-miterlimit="10" stroke-linecap="round" stroke-linejoin="round"/>
<path d="M298.743 126.135L299.889 126.202" stroke="#FFBED2" stroke-width="0.880041" stroke-miterlimit="10" stroke-linecap="round" stroke-linejoin="round"/>
<path d="M340.812 121.887L342.969 122.899" stroke="#FFBED2" stroke-width="0.880041" stroke-miterlimit="10" stroke-linecap="round" stroke-linejoin="round"/>
<path d="M166.374 74.1572L159.406 81.1248" stroke="#999999" stroke-width="0.224159" stroke-miterlimit="10"/>
<path d="M159.406 81.2616C159.406 81.2616 159.338 81.2615 159.338 81.1939C159.271 81.1263 159.271 81.0586 159.338 81.0586L159.406 80.991C159.406 80.991 159.474 80.991 159.474 81.0586C159.541 81.1263 159.541 81.1939 159.474 81.1939C159.474 81.2615 159.406 81.2616 159.406 81.2616Z" fill="#989898"/>
<path d="M159.406 80.7874C159.338 80.7874 159.271 80.7874 159.203 80.855C159.068 80.9903 159.068 81.1932 159.203 81.3285C159.271 81.3962 159.338 81.3962 159.406 81.3962C159.474 81.3962 159.541 81.3962 159.609 81.3285C159.744 81.1932 159.744 80.9903 159.609 80.855C159.541 80.855 159.474 80.7874 159.406 80.7874Z" fill="#999999"/>
<path d="M166.373 74.2935C166.373 74.2935 166.305 74.2935 166.305 74.2259L166.238 74.1582C166.238 74.1582 166.238 74.0906 166.305 74.0906L166.373 74.0229C166.373 74.0229 166.441 74.0229 166.441 74.0906C166.508 74.1582 166.508 74.2259 166.441 74.2259C166.441 74.2935 166.441 74.2935 166.373 74.2935Z" fill="#989898"/>
<path d="M166.373 73.8196C166.306 73.8196 166.238 73.8196 166.17 73.8872C166.035 74.0225 166.035 74.2255 166.17 74.3607C166.238 74.4284 166.306 74.4284 166.373 74.4284C166.441 74.4284 166.509 74.4284 166.576 74.3607C166.711 74.2255 166.711 74.0225 166.576 73.8872C166.576 73.8872 166.509 73.8196 166.373 73.8196Z" fill="#999999"/>
<path d="M172.8 78.0138C169.959 75.1726 165.562 75.0373 162.991 77.6079C160.353 80.2461 160.556 84.6431 163.397 87.4165" stroke="#999999" stroke-width="0.448244" stroke-miterlimit="10"/>
<path d="M172.665 90.5282L175.776 87.4165C176.25 86.943 176.115 86.1312 175.506 85.8607L174.153 85.1842L170.365 88.9724L171.041 90.3253C171.379 90.8665 172.191 91.0018 172.665 90.5282Z" fill="#999999"/>
<path d="M166.509 86.8753L164.006 80.5842C163.803 80.5842 163.533 80.5166 163.397 80.246C163.262 80.043 163.262 79.7048 163.397 79.5019C163.668 79.096 164.141 79.096 164.48 79.3666L168.741 83.6283C168.538 83.8989 168.538 84.2371 168.809 84.44C169.08 84.7106 169.418 84.7106 169.688 84.44C169.959 84.1694 169.959 83.8312 169.688 83.5606C169.486 83.3577 169.147 83.29 168.877 83.493L164.615 79.2313C164.344 78.9607 164.344 78.4195 164.75 78.149C164.953 78.0137 165.291 78.0137 165.494 78.149C165.697 78.2842 165.833 78.4872 165.833 78.7578L172.124 81.2607C172.665 81.4636 173.003 81.8695 173.138 82.4106L173.747 84.7106L172.191 86.2665L171.921 86.537L171.785 86.6723L171.583 86.8753L169.959 88.4988L167.659 87.89C167.186 87.7547 166.712 87.3488 166.509 86.8753Z" fill="#999999"/>
<path d="M172.8 78.2168C172.732 78.2168 172.665 78.2168 172.665 78.1492C172.597 78.0815 172.597 77.8786 172.665 77.8109C172.732 77.7433 172.8 77.7433 172.8 77.7433C172.867 77.7433 172.935 77.7433 172.935 77.8109C173.003 77.8786 173.003 77.9462 173.003 77.9462C173.003 77.9462 173.003 78.0815 172.935 78.0815C172.867 78.2168 172.867 78.2168 172.8 78.2168Z" fill="#989898"/>
<path d="M172.8 77.5404C172.665 77.5404 172.597 77.608 172.462 77.6757C172.259 77.8786 172.259 78.1492 172.462 78.2845C172.529 78.3522 172.665 78.4198 172.8 78.4198C172.935 78.4198 173.003 78.3522 173.138 78.2845C173.341 78.0816 173.341 77.811 173.138 77.6757C173.003 77.608 172.868 77.5404 172.8 77.5404Z" fill="#999999"/>
<path d="M163.329 87.6871C163.261 87.6871 163.194 87.6871 163.194 87.6195C163.126 87.5519 163.126 87.3489 163.194 87.2813C163.261 87.2136 163.329 87.2136 163.329 87.2136C163.397 87.2136 163.464 87.2136 163.464 87.2813C163.532 87.3489 163.532 87.5519 163.464 87.6195C163.464 87.6195 163.397 87.6871 163.329 87.6871Z" fill="#989898"/>
<path d="M163.329 87.0105C163.194 87.0105 163.126 87.0781 162.991 87.1458C162.788 87.3487 162.788 87.6193 162.991 87.7546C163.059 87.8222 163.194 87.8899 163.329 87.8899C163.465 87.8899 163.532 87.8222 163.668 87.7546C163.87 87.5517 163.87 87.2811 163.668 87.1458C163.532 87.0781 163.465 87.0105 163.329 87.0105Z" fill="#999999"/>
<path d="M162.883 76.9451L162.165 77.6624L162.882 78.38L163.6 77.6626L162.883 76.9451Z" fill="white"/>
<path d="M162.924 77.2022L163.33 77.6081L162.924 78.0139L162.518 77.6081L162.924 77.2022ZM162.924 76.661L161.909 77.6757L162.924 78.6904L163.939 77.6757L162.924 76.661Z" fill="#999999"/>
<path d="M160.218 62.0492L161.097 62.9286C161.436 63.2669 161.909 63.2669 162.18 62.9286L169.485 55.6229L167.456 53.5935L160.15 60.8993C159.88 61.2375 159.88 61.711 160.218 62.0492Z" fill="#999999"/>
<path d="M167.997 53.1872L170.026 55.2166L171.582 53.6608C171.853 53.3902 171.853 52.9843 171.582 52.7137L170.568 51.699C170.297 51.4284 169.891 51.4284 169.621 51.699L167.997 53.1872Z" fill="#999999"/>
<path d="M172.529 59.3431C173.575 59.3431 174.423 58.4951 174.423 57.449C174.423 56.4029 173.575 55.5549 172.529 55.5549C171.483 55.5549 170.635 56.4029 170.635 57.449C170.635 58.4951 171.483 59.3431 172.529 59.3431Z" fill="#999999"/>
<path d="M173.815 52.5106C174.524 52.5106 175.1 51.9352 175.1 51.2253C175.1 50.5155 174.524 49.9401 173.815 49.9401C173.105 49.9401 172.529 50.5155 172.529 51.2253C172.529 51.9352 173.105 52.5106 173.815 52.5106Z" fill="#999999"/>
<path d="M167.794 50.9551C168.504 50.9551 169.079 50.3796 169.079 49.6698C169.079 48.96 168.504 48.3845 167.794 48.3845C167.084 48.3845 166.509 48.96 166.509 49.6698C166.509 50.3796 167.084 50.9551 167.794 50.9551Z" fill="#999999"/>
<path d="M154.401 108.251L151.086 111.566C151.018 111.634 150.951 111.701 150.951 111.769L149.801 114.272L152.304 113.122C152.371 113.054 152.439 113.054 152.507 112.987L155.821 109.672L154.401 108.251Z" fill="#999999"/>
<path d="M158.122 103.719L160.354 105.951C160.489 106.087 160.692 106.087 160.827 106.087L162.316 105.545C162.586 105.41 162.721 105.072 162.451 104.869L159.272 101.69C159.069 101.487 158.663 101.554 158.595 101.825L158.054 103.313C157.986 103.448 158.054 103.651 158.122 103.719Z" fill="#999999"/>
<path d="M159.068 111.16L160.083 106.831C160.15 106.696 160.083 106.493 159.947 106.425L157.648 104.125C157.512 103.99 157.377 103.99 157.242 103.99L152.912 105.004C152.574 105.072 152.439 105.478 152.709 105.749L158.324 111.363C158.595 111.634 159 111.498 159.068 111.16Z" fill="#999999"/>
<path d="M82.222 52.5101L97.307 52.8484L98.1864 71.9245C98.66 77.2685 94.4659 77.945 89.1219 77.8097C83.7779 77.6744 79.6515 76.795 80.3956 71.451L82.222 52.5101Z" fill="#FFDAE4"/>
<path d="M85.4688 61.5747C88.2422 63.8747 91.9628 72.1275 92.6392 77.7421C95.7509 77.4039 97.9832 76.3215 98.2538 73.3451C98.2538 72.8039 98.2538 72.3304 98.2538 72.0598C98.2538 71.9922 98.2538 71.9922 98.2538 71.9245L97.7803 62.3188L85.4688 61.5747Z" fill="#FFCDDC"/>
<path d="M111.04 42.634C111.31 32.7577 103.26 24.6401 93.3165 24.8431C84.4549 25.046 77.0815 32.1488 76.4727 41.0105C76.2021 45.0692 77.3521 48.8574 79.4491 51.9691C81.3432 54.6749 82.9667 57.5837 84.6578 60.4248C87.3637 64.9571 92.5724 67.8659 98.4576 67.1894C104.14 66.513 108.875 62.3189 110.363 56.8396C110.769 55.2161 110.904 53.6602 110.769 52.172C110.566 49.3309 110.769 46.5574 111.04 43.7163C111.04 43.3104 111.04 42.9722 111.04 42.634Z" fill="#FFE4EE"/>
<path d="M83.3043 41.4163L75.2544 42.2957C76.0661 49.3985 81.9513 55.8248 81.9513 55.8248L83.1013 52.7131C84.5219 48.6544 83.2366 45.2721 83.3043 41.4163Z" fill="#5A5A5A"/>
<path d="M100.013 34.8552C100.013 34.8552 96.3602 33.6376 93.9926 35.3287C92.3015 36.614 97.1043 31.8788 97.1043 31.8788L105.763 32.0817L106.169 35.0581C106.101 35.0581 102.584 32.7582 100.013 34.8552Z" fill="#5A5A5A"/>
<path d="M84.8601 44.1226C91.2865 43.9197 92.8423 37.8992 94.06 35.3287C95.0747 33.0964 98.5922 32.7581 100.013 34.7875L100.08 34.8552C100.08 34.8552 100.08 34.8552 100.08 34.7875C101.366 32.8258 104.275 32.7581 105.56 34.7199C106.439 36.0728 107.251 37.7639 107.927 39.5227C108.604 41.2815 109.145 42.3639 110.633 42.5668C110.904 42.6344 111.039 42.8374 111.039 43.0403C110.971 43.8521 110.836 45.205 110.904 45.205C116.18 44.6638 114.354 21.9348 101.772 20.5819C97.0364 20.0407 95.6158 21.123 95.1423 21.7995C95.007 22.0024 94.7364 22.0024 94.6011 21.8671C94.1276 21.4613 93.1129 20.8524 91.4218 20.7848C87.6336 20.7172 81.8837 23.6936 79.2455 26.1288C74.7132 30.4582 73.5633 40.2668 74.8485 42.1609C76.3367 44.2579 78.9073 44.3256 84.8601 44.1226Z" fill="#333333"/>
<path d="M84.1835 48.249C84.2511 46.4225 82.8982 44.9343 81.2747 45.002C79.7865 45.0696 78.5689 46.3549 78.5012 47.9784C78.4336 48.7225 78.6365 49.399 78.9748 50.0078C79.313 50.4813 79.5836 51.0225 79.8542 51.5636C80.3277 52.3754 81.1394 52.9165 82.1541 52.7813C83.1012 52.646 83.9129 51.9019 84.1159 50.8872C84.1835 50.6166 84.1835 50.2784 84.1835 50.0078C84.1159 49.4666 84.1835 48.9931 84.2511 48.4519C84.1835 48.3843 84.1835 48.3166 84.1835 48.249Z" fill="#FFE4EE"/>
<path d="M104.342 49.1955C105.388 49.1955 106.236 48.0143 106.236 46.5573C106.236 45.1002 105.388 43.9191 104.342 43.9191C103.296 43.9191 102.448 45.1002 102.448 46.5573C102.448 48.0143 103.296 49.1955 104.342 49.1955Z" fill="white"/>
<path d="M94.9395 49.1955C95.9856 49.1955 96.8336 48.0143 96.8336 46.5573C96.8336 45.1002 95.9856 43.9191 94.9395 43.9191C93.8934 43.9191 93.0454 45.1002 93.0454 46.5573C93.0454 48.0143 93.8934 49.1955 94.9395 49.1955Z" fill="white"/>
<path d="M105.087 48.1807C105.722 48.1807 106.236 47.4539 106.236 46.5572C106.236 45.6606 105.722 44.9337 105.087 44.9337C104.451 44.9337 103.937 45.6606 103.937 46.5572C103.937 47.4539 104.451 48.1807 105.087 48.1807Z" fill="#333333"/>
<path d="M95.7515 48.1134C96.3867 48.1134 96.9015 47.4168 96.9015 46.5576C96.9015 45.6983 96.3867 45.0017 95.7515 45.0017C95.1164 45.0017 94.6016 45.6983 94.6016 46.5576C94.6016 47.4168 95.1164 48.1134 95.7515 48.1134Z" fill="#333333"/>
<path d="M102.651 52.9163C102.448 55.5545 101.095 57.6515 99.6748 57.5162C98.2542 57.3809 97.2395 55.1486 97.5101 52.4427L102.651 52.9163Z" fill="#FF7BA4"/>
<path d="M99.8777 45.9491C99.8777 45.9491 99.4718 45.7461 99.8777 45.9491C100.284 46.2197 101.839 46.8961 101.839 47.9785C101.839 49.0608 100.892 49.9402 99.81 49.9402" stroke="#FFBED2" stroke-width="0.938165" stroke-miterlimit="10" stroke-linecap="round" stroke-linejoin="round"/>
<path d="M81.4105 50.1427C81.8164 49.7368 81.8164 48.9927 81.4105 48.5868L80.937 48.1133" stroke="#FFBED2" stroke-width="0.938165" stroke-miterlimit="10" stroke-linecap="round" stroke-linejoin="round"/>
<path d="M68.7606 87.8897L60.6431 117.248C59.3954 122.536 58.1476 136.8 58 144.364H77.7141C77.7861 136.307 79.2247 125.348 81.1398 118.466L90.2044 85.7927L79.1104 82.2751C74.7134 80.8546 69.9782 83.4251 68.7606 87.8897Z" fill="#FFE4EE"/>
<path d="M79.652 72.1957C84.3872 69.8958 89.9341 69.6928 94.8046 71.6545C102.516 74.7663 108.131 81.5985 109.619 89.8513L118.684 140.992C119.022 142.75 117.669 144.374 115.843 144.374H65.2434C63.4846 144.374 62.1317 142.818 62.4022 141.127L69.2345 86.6719C70.0462 80.3809 73.9697 74.9692 79.652 72.1957Z" fill="#FF915A"/>
<path d="M88.9191 95.6012L106.372 123.268C106.372 123.268 86.4839 121.374 86.4839 94.3159L88.9191 95.6012Z" fill="#FF915A"/>
<path d="M92.2338 77.0669C85.6045 80.1786 83.2369 88.4314 87.228 94.5872L106.575 126.043C107.792 127.937 109.416 129.628 111.31 130.913C119.225 135.986 129.169 132.266 132.145 124.013L145.945 85.7256L148.921 77.4727L151.695 69.8288C152.236 68.2729 151.424 66.5818 149.868 66.0406C148.312 65.5671 146.689 66.4465 146.148 67.9347L143.442 75.4434C143.374 75.5787 143.239 75.6463 143.104 75.5787C142.968 75.511 142.901 75.3757 142.968 75.2404L146.486 65.4994C147.027 63.9436 146.215 62.2524 144.659 61.7112C143.104 61.2377 141.48 62.1171 140.939 63.6053L138.165 71.317C137.083 69.0847 135.189 67.1906 132.686 66.3112C131.198 65.77 129.574 65.6347 128.019 65.8376C126.801 66.0406 125.854 66.8523 125.516 68.0023C124.433 67.6641 123.148 67.9347 122.269 68.8141C121.322 69.8288 120.645 70.9111 120.172 72.1964C118.751 76.0522 119.969 80.2462 122.877 82.8168C124.433 84.1697 124.907 86.402 124.23 88.3637L119.022 102.908C118.819 103.381 118.278 103.449 117.939 102.975L106.913 82.9521C103.869 77.811 97.8485 75.3757 92.2338 77.0669ZM128.019 78.8257C126.192 78.1492 125.245 76.1198 125.854 74.2934C125.989 73.8199 126.26 73.414 126.598 73.0758C126.936 72.7375 127.139 72.3317 127.274 71.8581C127.68 71.9934 128.154 72.0611 128.695 71.9934C129.304 71.9258 129.845 71.9934 130.386 72.1964C132.213 72.8728 133.16 74.9022 132.551 76.7286C131.942 78.5551 129.913 79.5021 128.019 78.8257Z" fill="#FFE4EE"/>
<path d="M125.718 68.6779C125.651 69.5573 126.124 70.5043 126.936 70.9778" stroke="#FFBED2" stroke-width="0.938165" stroke-miterlimit="10" stroke-linecap="round" stroke-linejoin="round"/>
<path d="M118.413 104.53L118.548 107.033" stroke="#FFBED2" stroke-width="0.938165" stroke-miterlimit="10" stroke-linecap="round" stroke-linejoin="round"/>
<path d="M115.165 98.2389L96.2245 109.198L91.4893 101.554L110.836 90.392L115.165 98.2389Z" fill="#FFCDDC"/>
<path d="M85.2663 84.5754C86.281 81.0578 88.7162 78.149 92.0309 76.5932H92.0985C97.916 74.8344 104.275 77.4049 107.184 82.6813L114.286 95.6017C114.489 96.0076 114.354 96.4811 114.016 96.684L95.4132 107.778C95.0073 107.981 94.5338 107.913 94.2632 107.507L86.8221 94.8576C84.7927 91.8135 84.2516 88.093 85.2663 84.5754Z" fill="#FF915A"/>
<path d="M163.6 9.48865H163.533H123.825H123.757C122.878 9.48865 122.201 10.1651 122.201 11.0445V11.1121V12.5327V42.094V42.1616C122.201 43.041 122.878 43.7175 123.757 43.7175H123.825H163.533H163.6C164.48 43.7175 165.156 43.041 165.156 42.1616V42.094V41.0116V31.1353V12.5327V11.1121V11.0445C165.156 10.1651 164.48 9.48865 163.6 9.48865Z" fill="#CBCBCB"/>
<path d="M165.156 8H125.313C124.433 8 123.757 8.67646 123.757 9.55586V40.673C123.757 41.5524 124.433 42.2288 125.313 42.2288H165.156C166.036 42.2288 166.712 41.5524 166.712 40.673V9.55586C166.712 8.67646 165.968 8 165.156 8Z" fill="white"/>
<path d="M166.712 29.5787H157.647V39.455H166.712V29.5787Z" fill="#F1F1F1"/>
<path d="M165.088 8H125.38C124.501 8 123.757 8.74411 123.757 9.6235V40.6053C123.757 41.4847 124.501 42.2288 125.38 42.2288H165.088C165.968 42.2288 166.712 41.4847 166.712 40.6053V9.55586C166.712 8.67646 165.968 8 165.088 8Z" stroke="#E5E5E5" stroke-width="0.456729" stroke-miterlimit="10"/>
<path d="M165.088 8H125.38C124.501 8 123.757 8.74411 123.757 9.6235V11.0441H166.644V9.55586C166.712 8.67646 165.968 8 165.088 8Z" fill="#E5E5E5"/>
<path d="M125.922 10.0292C126.258 10.0292 126.531 9.75658 126.531 9.42034C126.531 9.0841 126.258 8.81152 125.922 8.81152C125.586 8.81152 125.313 9.0841 125.313 9.42034C125.313 9.75658 125.586 10.0292 125.922 10.0292Z" fill="#B2B2B2"/>
<path d="M128.087 8.81152H126.937V9.9615H128.087V8.81152Z" fill="#B2B2B2"/>
<path d="M129.101 8.81152L128.424 9.9615H129.777L129.101 8.81152Z" fill="#B2B2B2"/>
<path d="M130.725 8.81166C130.792 8.74402 130.86 8.74402 130.927 8.81166V8.87931C130.927 8.94696 130.995 8.94696 131.063 8.94696H131.13C131.198 8.94696 131.198 9.0146 131.198 9.08225V9.14989C131.198 9.21754 131.198 9.28519 131.266 9.28519L131.333 9.35283C131.401 9.35283 131.401 9.48812 131.333 9.48812L131.266 9.55577C131.198 9.55577 131.198 9.62342 131.198 9.69106V9.75871C131.198 9.82635 131.198 9.894 131.13 9.894H131.063C130.995 9.894 130.927 9.96165 130.927 9.96165V10.0293C130.927 10.0969 130.86 10.0969 130.792 10.0969L130.725 10.0293C130.657 10.0293 130.589 10.0293 130.589 10.0293L130.522 10.0969C130.454 10.1646 130.386 10.0969 130.386 10.0293V9.96165C130.386 9.894 130.319 9.894 130.251 9.894H130.183C130.116 9.894 130.116 9.82635 130.116 9.75871V9.69106C130.116 9.62342 130.116 9.55577 130.048 9.55577L129.98 9.48812C129.913 9.48812 129.913 9.35283 129.98 9.35283L130.048 9.28519C130.116 9.28519 130.116 9.21754 130.116 9.14989V9.08225C130.116 9.0146 130.116 8.94696 130.183 8.94696H130.251C130.319 8.94696 130.386 8.87931 130.386 8.87931V8.81166C130.386 8.74402 130.454 8.74402 130.522 8.74402L130.589 8.81166C130.657 8.87931 130.725 8.87931 130.725 8.81166Z" fill="#B2B2B2"/>
<path opacity="0.6" d="M126.395 15.7116C127.068 15.7116 127.613 15.1665 127.613 14.494C127.613 13.8215 127.068 13.2764 126.395 13.2764C125.723 13.2764 125.178 13.8215 125.178 14.494C125.178 15.1665 125.723 15.7116 126.395 15.7116Z" fill="#F15956"/>
<path opacity="0.6" d="M127.503 23.1198V20.8875H125.271V23.1198H127.503Z" fill="#FFBE43"/>
<path opacity="0.6" d="M126.396 28.4287L125.11 30.661H127.681L126.396 28.4287Z" fill="#5960D4"/>
<path opacity="0.6" d="M127.477 37.2231L127.545 37.2907C127.613 37.3584 127.545 37.4937 127.477 37.5613L127.342 37.629C127.207 37.629 127.139 37.7643 127.139 37.8996V38.0348C127.139 38.1701 127.004 38.2378 126.936 38.1701L126.801 38.1025C126.666 38.0348 126.598 38.1025 126.53 38.1701L126.463 38.2378C126.395 38.3054 126.26 38.3054 126.192 38.2378L126.125 38.1701C126.057 38.1025 125.922 38.0348 125.854 38.1025L125.719 38.1701C125.583 38.2378 125.516 38.1025 125.516 38.0348V37.8996C125.516 37.7643 125.448 37.6966 125.313 37.629L125.178 37.5613C125.042 37.5613 125.042 37.426 125.11 37.2907L125.178 37.2231C125.245 37.1554 125.245 37.0202 125.178 36.9525L125.11 36.8849C125.042 36.8172 125.11 36.6819 125.178 36.6143L125.313 36.5466C125.448 36.5466 125.516 36.4113 125.516 36.276V36.1408C125.516 36.0055 125.651 35.9378 125.719 36.0055L125.854 36.0731C125.989 36.1408 126.057 36.0731 126.125 36.0055L126.192 35.9378C126.26 35.8702 126.395 35.8702 126.463 35.9378L126.53 36.0055C126.598 36.0731 126.733 36.1408 126.801 36.0731L126.936 36.0055C127.072 35.9378 127.139 36.0731 127.139 36.1408V36.276C127.139 36.4113 127.207 36.479 127.342 36.5466L127.477 36.6143C127.613 36.6143 127.613 36.7496 127.545 36.8849L127.477 36.9525C127.41 37.0202 127.41 37.1554 127.477 37.2231Z" fill="#7D6D60"/>
<path opacity="0.6" d="M152.236 26.3319H134.377C133.701 26.3319 133.16 25.7907 133.16 25.1143V14.088C133.16 13.4115 133.701 12.8704 134.377 12.8704H152.236C152.912 12.8704 153.453 13.4115 153.453 14.088V25.0466C153.521 25.7907 152.912 26.3319 152.236 26.3319Z" fill="#7D6D60"/>
<path opacity="0.6" d="M138.977 18.8231C139.383 19.0937 139.789 19.229 140.33 19.2966L140.262 20.2436C140.195 20.2436 140.127 20.3113 140.06 20.3113C139.315 20.6495 138.774 21.3936 138.639 22.2054L137.557 26.2641H147.501L148.989 22.1377L149.395 21.0554L149.733 20.0407C149.801 19.8378 149.665 19.5672 149.462 19.4995C149.259 19.4319 149.056 19.5672 148.989 19.7701L148.651 20.7848C148.651 20.7848 148.651 20.7848 148.583 20.7848C148.583 20.7848 148.583 20.7848 148.583 20.7172L149.056 19.4319C149.124 19.229 148.989 18.9584 148.786 18.8907C148.583 18.8231 148.38 18.9584 148.312 19.1613L147.906 20.176C147.771 19.9054 147.501 19.6348 147.162 19.4995C146.959 19.4319 146.756 19.4319 146.554 19.4319C146.418 19.4319 146.283 19.5672 146.215 19.7025C146.08 19.6348 145.877 19.7025 145.809 19.8378C145.674 19.9731 145.607 20.1083 145.539 20.3113C145.336 20.8525 145.539 21.3936 145.877 21.7318C146.08 21.9348 146.148 22.2054 146.08 22.476L145.404 24.4377C145.404 24.5053 145.336 24.5053 145.268 24.4377L144.795 23.5583L144.862 23.4906L143.848 21.6642C143.577 21.1907 143.239 20.7848 142.765 20.5142V20.4466C142.765 20.4466 142.765 20.4466 142.765 20.3789L142.698 19.7701H142.765C143.104 19.7025 143.442 19.5672 143.712 19.3642C144.254 19.3642 144.862 19.229 145.471 19.0937C145.065 18.8231 144.659 17.3349 144.524 15.9819C144.524 15.6437 144.457 15.3055 144.321 14.9673C144.051 14.2908 143.509 13.479 142.292 13.6143C142.224 13.6143 142.157 13.6143 142.157 13.682C142.089 13.6143 142.021 13.6143 141.954 13.6143C141.142 13.479 140.195 13.8849 139.721 15.0349C139.383 15.9143 138.977 17.1319 138.774 17.8084C138.504 18.2819 138.639 18.6201 138.977 18.8231ZM144.186 17.3349C144.186 17.1319 144.186 16.929 144.186 16.6584C144.186 16.6584 144.186 16.6584 144.186 16.5908V16.6584C144.186 16.7261 144.186 16.7261 144.186 16.7937C144.186 17.0643 144.186 17.1996 144.186 17.3349ZM146.215 20.6495C146.215 20.5819 146.283 20.5142 146.351 20.5142C146.418 20.4466 146.418 20.3789 146.418 20.3789C146.486 20.3789 146.554 20.3789 146.621 20.3789C146.689 20.3789 146.756 20.3789 146.824 20.3789C147.095 20.4466 147.23 20.7172 147.095 20.9877C147.027 21.2583 146.756 21.3936 146.486 21.2583C146.215 21.1907 146.148 20.9201 146.215 20.6495Z" fill="#F1F1F1"/>
<path d="M141.548 28.6993H133.295V30.4581H141.548V28.6993Z" fill="#F1F1F1"/>
<path d="M153.25 31.5413H133.295V32.2177H153.25V31.5413Z" fill="#F1F1F1"/>
<path d="M153.25 32.8936H133.295V33.57H153.25V32.8936Z" fill="#F1F1F1"/>
<path d="M153.25 34.1783H133.295V34.8548H153.25V34.1783Z" fill="#F1F1F1"/>
<path d="M153.25 35.5321H133.295V36.2086H153.25V35.5321Z" fill="#F1F1F1"/>
<path d="M153.25 36.817H133.295V37.4935H153.25V36.817Z" fill="#F1F1F1"/>
<path d="M153.25 38.1019H133.295V38.7784H153.25V38.1019Z" fill="#F1F1F1"/>
<path d="M153.25 39.4557H133.295V40.1321H153.25V39.4557Z" fill="#F1F1F1"/>
<path d="M157.647 10.9757V42.1605" stroke="#E5E5E5" stroke-width="0.456729" stroke-miterlimit="10"/>
<path d="M159.609 13.4796C160.095 13.4796 160.489 13.0859 160.489 12.6002C160.489 12.1145 160.095 11.7208 159.609 11.7208C159.124 11.7208 158.73 12.1145 158.73 12.6002C158.73 13.0859 159.124 13.4796 159.609 13.4796Z" fill="#B2B2B2"/>
<path d="M162.383 11.9236H160.827V12.3295H162.383V11.9236Z" fill="#CBCBCB"/>
<path d="M165.495 12.6002H160.827V12.8032H165.495V12.6002Z" fill="#E5E5E5"/>
<path d="M165.495 13.0056H160.827V13.2086H165.495V13.0056Z" fill="#E5E5E5"/>
<path d="M162.789 12.3295C162.901 12.3295 162.992 12.2386 162.992 12.1265C162.992 12.0144 162.901 11.9236 162.789 11.9236C162.677 11.9236 162.586 12.0144 162.586 12.1265C162.586 12.2386 162.677 12.3295 162.789 12.3295Z" fill="#4DA04C"/>
<path d="M159.609 16.2531C160.095 16.2531 160.489 15.8593 160.489 15.3737C160.489 14.888 160.095 14.4943 159.609 14.4943C159.124 14.4943 158.73 14.888 158.73 15.3737C158.73 15.8593 159.124 16.2531 159.609 16.2531Z" fill="#B2B2B2"/>
<path d="M162.383 14.697H160.827V15.1029H162.383V14.697Z" fill="#CBCBCB"/>
<path d="M165.495 15.3737H160.827V15.5766H165.495V15.3737Z" fill="#E5E5E5"/>
<path d="M165.495 15.7792H160.827V15.9821H165.495V15.7792Z" fill="#E5E5E5"/>
<path d="M162.789 15.1029C162.901 15.1029 162.992 15.012 162.992 14.9C162.992 14.7879 162.901 14.697 162.789 14.697C162.677 14.697 162.586 14.7879 162.586 14.9C162.586 15.012 162.677 15.1029 162.789 15.1029Z" fill="#4DA04C"/>
<path d="M159.609 19.0266C160.095 19.0266 160.489 18.6329 160.489 18.1472C160.489 17.6615 160.095 17.2678 159.609 17.2678C159.124 17.2678 158.73 17.6615 158.73 18.1472C158.73 18.6329 159.124 19.0266 159.609 19.0266Z" fill="#B2B2B2"/>
<path d="M162.383 17.538H160.827V17.9438H162.383V17.538Z" fill="#CBCBCB"/>
<path d="M165.495 18.1471H160.827V18.35H165.495V18.1471Z" fill="#E5E5E5"/>
<path d="M165.495 18.5531H160.827V18.756H165.495V18.5531Z" fill="#E5E5E5"/>
<path d="M162.789 17.9438C162.901 17.9438 162.992 17.853 162.992 17.7409C162.992 17.6288 162.901 17.538 162.789 17.538C162.677 17.538 162.586 17.6288 162.586 17.7409C162.586 17.853 162.677 17.9438 162.789 17.9438Z" fill="#4DA04C"/>
<path d="M159.609 21.7996C160.095 21.7996 160.489 21.4058 160.489 20.9202C160.489 20.4345 160.095 20.0408 159.609 20.0408C159.124 20.0408 158.73 20.4345 158.73 20.9202C158.73 21.4058 159.124 21.7996 159.609 21.7996Z" fill="#B2B2B2"/>
<path d="M162.383 20.3119H160.827V20.7178H162.383V20.3119Z" fill="#CBCBCB"/>
<path d="M165.495 20.988H160.827V21.191H165.495V20.988Z" fill="#E5E5E5"/>
<path d="M165.495 21.3262H160.827V21.5291H165.495V21.3262Z" fill="#E5E5E5"/>
<path d="M162.789 20.7178C162.901 20.7178 162.992 20.6269 162.992 20.5148C162.992 20.4027 162.901 20.3119 162.789 20.3119C162.677 20.3119 162.586 20.4027 162.586 20.5148C162.586 20.6269 162.677 20.7178 162.789 20.7178Z" fill="#FF915A"/>
<path d="M159.609 24.573C160.095 24.573 160.489 24.1793 160.489 23.6936C160.489 23.2079 160.095 22.8142 159.609 22.8142C159.124 22.8142 158.73 23.2079 158.73 23.6936C158.73 24.1793 159.124 24.573 159.609 24.573Z" fill="#B2B2B2"/>
<path d="M162.383 23.085H160.827V23.4908H162.383V23.085Z" fill="#CBCBCB"/>
<path d="M165.495 23.7616H160.827V23.9645H165.495V23.7616Z" fill="#E5E5E5"/>
<path d="M165.495 24.0991H160.827V24.3021H165.495V24.0991Z" fill="#E5E5E5"/>
<path d="M162.789 23.4908C162.901 23.4908 162.992 23.4 162.992 23.2879C162.992 23.1758 162.901 23.085 162.789 23.085C162.677 23.085 162.586 23.1758 162.586 23.2879C162.586 23.4 162.677 23.4908 162.789 23.4908Z" fill="#4DA04C"/>
<path d="M159.609 27.3466C160.095 27.3466 160.489 26.9528 160.489 26.4672C160.489 25.9815 160.095 25.5878 159.609 25.5878C159.124 25.5878 158.73 25.9815 158.73 26.4672C158.73 26.9528 159.124 27.3466 159.609 27.3466Z" fill="#B2B2B2"/>
<path d="M162.383 25.8584H160.827V26.2643H162.383V25.8584Z" fill="#CBCBCB"/>
<path d="M165.495 26.535H160.827V26.738H165.495V26.535Z" fill="#E5E5E5"/>
<path d="M165.495 26.941H160.827V27.144H165.495V26.941Z" fill="#E5E5E5"/>
<path d="M162.789 26.2643C162.901 26.2643 162.992 26.1734 162.992 26.0613C162.992 25.9493 162.901 25.8584 162.789 25.8584C162.677 25.8584 162.586 25.9493 162.586 26.0613C162.586 26.1734 162.677 26.2643 162.789 26.2643Z" fill="#FF915A"/>
<path d="M165.495 41.079H158.865C158.662 41.079 158.459 40.876 158.459 40.6731C158.459 40.4701 158.662 40.2672 158.865 40.2672H165.495C165.698 40.2672 165.901 40.4701 165.901 40.6731C165.901 40.876 165.698 41.079 165.495 41.079Z" fill="#E5E5E5"/>
<path d="M129.101 10.9757V42.1605" stroke="#E5E5E5" stroke-width="0.456729" stroke-miterlimit="10"/>
<path d="M151.83 27.8879L151.898 38.7112C151.898 38.9818 152.236 39.1171 152.439 38.9142L155.145 36.073C155.212 36.0054 155.28 35.9377 155.415 36.0054L159.339 36.276C159.609 36.276 159.812 35.9377 159.609 35.7348L152.371 27.7526C152.168 27.482 151.83 27.6173 151.83 27.8879Z" fill="#999999"/>
</svg>
